<?xml version="1.0" encoding="utf-8" standalone="no"?>
<!DOCTYPE svg PUBLIC "-//W3C//DTD SVG 1.1//EN"
  "http://www.w3.org/Graphics/SVG/1.1/DTD/svg11.dtd">
<svg xmlns:xlink="http://www.w3.org/1999/xlink" width="968.405281pt" height="414.385812pt" viewBox="0 0 968.405281 414.385812" xmlns="http://www.w3.org/2000/svg" version="1.1">
 <metadata>
  <rdf:RDF xmlns:dc="http://purl.org/dc/elements/1.1/" xmlns:cc="http://creativecommons.org/ns#" xmlns:rdf="http://www.w3.org/1999/02/22-rdf-syntax-ns#">
   <cc:Work>
    <dc:type rdf:resource="http://purl.org/dc/dcmitype/StillImage"/>
    <dc:date>2025-09-10T13:17:06.975601</dc:date>
    <dc:format>image/svg+xml</dc:format>
    <dc:creator>
     <cc:Agent>
      <dc:title>Matplotlib v3.10.6, https://matplotlib.org/</dc:title>
     </cc:Agent>
    </dc:creator>
   </cc:Work>
  </rdf:RDF>
 </metadata>
 <defs>
  <style type="text/css">*{stroke-linejoin: round; stroke-linecap: butt}</style>
 </defs>
 <g id="figure_1">
  <g id="patch_1">
   <path d="M 0 414.385812 
L 968.405281 414.385812 
L 968.405281 -0 
L 0 -0 
z
" style="fill: #ffffff"/>
  </g>
  <g id="axes_1">
   <g id="patch_2">
    <path d="M 101.885281 364.248 
L 475.502673 364.248 
L 475.502673 48.24 
L 101.885281 48.24 
z
" style="fill: #ffffff"/>
   </g>
   <g id="matplotlib.axis_1">
    <g id="xtick_1">
     <g id="line2d_1">
      <defs>
       <path id="m7fe40446ed" d="M 0 0 
L 0 3.5 
" style="stroke: #000000; stroke-width: 0.8"/>
      </defs>
      <g>
       <use xlink:href="#m7fe40446ed" x="118.86789" y="364.248" style="stroke: #000000; stroke-width: 0.8"/>
      </g>
     </g>
     <g id="text_1">
      <!-- 0 -->
      <g transform="translate(114.096015 382.645656) scale(0.15 -0.15)">
       <defs>
        <path id="DejaVuSans-30" d="M 2034 4250 
Q 1547 4250 1301 3770 
Q 1056 3291 1056 2328 
Q 1056 1369 1301 889 
Q 1547 409 2034 409 
Q 2525 409 2770 889 
Q 3016 1369 3016 2328 
Q 3016 3291 2770 3770 
Q 2525 4250 2034 4250 
z
M 2034 4750 
Q 2819 4750 3233 4129 
Q 3647 3509 3647 2328 
Q 3647 1150 3233 529 
Q 2819 -91 2034 -91 
Q 1250 -91 836 529 
Q 422 1150 422 2328 
Q 422 3509 836 4129 
Q 1250 4750 2034 4750 
z
" transform="scale(0.015625)"/>
       </defs>
       <use xlink:href="#DejaVuSans-30"/>
      </g>
     </g>
    </g>
    <g id="xtick_2">
     <g id="line2d_2">
      <g>
       <use xlink:href="#m7fe40446ed" x="186.798325" y="364.248" style="stroke: #000000; stroke-width: 0.8"/>
      </g>
     </g>
     <g id="text_2">
      <!-- 5 -->
      <g transform="translate(182.02645 382.645656) scale(0.15 -0.15)">
       <defs>
        <path id="DejaVuSans-35" d="M 691 4666 
L 3169 4666 
L 3169 4134 
L 1269 4134 
L 1269 2991 
Q 1406 3038 1543 3061 
Q 1681 3084 1819 3084 
Q 2600 3084 3056 2656 
Q 3513 2228 3513 1497 
Q 3513 744 3044 326 
Q 2575 -91 1722 -91 
Q 1428 -91 1123 -41 
Q 819 9 494 109 
L 494 744 
Q 775 591 1075 516 
Q 1375 441 1709 441 
Q 2250 441 2565 725 
Q 2881 1009 2881 1497 
Q 2881 1984 2565 2268 
Q 2250 2553 1709 2553 
Q 1456 2553 1204 2497 
Q 953 2441 691 2322 
L 691 4666 
z
" transform="scale(0.015625)"/>
       </defs>
       <use xlink:href="#DejaVuSans-35"/>
      </g>
     </g>
    </g>
    <g id="xtick_3">
     <g id="line2d_3">
      <g>
       <use xlink:href="#m7fe40446ed" x="254.72876" y="364.248" style="stroke: #000000; stroke-width: 0.8"/>
      </g>
     </g>
     <g id="text_3">
      <!-- 10 -->
      <g transform="translate(245.18501 382.645656) scale(0.15 -0.15)">
       <defs>
        <path id="DejaVuSans-31" d="M 794 531 
L 1825 531 
L 1825 4091 
L 703 3866 
L 703 4441 
L 1819 4666 
L 2450 4666 
L 2450 531 
L 3481 531 
L 3481 0 
L 794 0 
L 794 531 
z
" transform="scale(0.015625)"/>
       </defs>
       <use xlink:href="#DejaVuSans-31"/>
       <use xlink:href="#DejaVuSans-30" transform="translate(63.623047 0)"/>
      </g>
     </g>
    </g>
    <g id="xtick_4">
     <g id="line2d_4">
      <g>
       <use xlink:href="#m7fe40446ed" x="322.659194" y="364.248" style="stroke: #000000; stroke-width: 0.8"/>
      </g>
     </g>
     <g id="text_4">
      <!-- 15 -->
      <g transform="translate(313.115444 382.645656) scale(0.15 -0.15)">
       <use xlink:href="#DejaVuSans-31"/>
       <use xlink:href="#DejaVuSans-35" transform="translate(63.623047 0)"/>
      </g>
     </g>
    </g>
    <g id="xtick_5">
     <g id="line2d_5">
      <g>
       <use xlink:href="#m7fe40446ed" x="390.589629" y="364.248" style="stroke: #000000; stroke-width: 0.8"/>
      </g>
     </g>
     <g id="text_5">
      <!-- 20 -->
      <g transform="translate(381.045879 382.645656) scale(0.15 -0.15)">
       <defs>
        <path id="DejaVuSans-32" d="M 1228 531 
L 3431 531 
L 3431 0 
L 469 0 
L 469 531 
Q 828 903 1448 1529 
Q 2069 2156 2228 2338 
Q 2531 2678 2651 2914 
Q 2772 3150 2772 3378 
Q 2772 3750 2511 3984 
Q 2250 4219 1831 4219 
Q 1534 4219 1204 4116 
Q 875 4013 500 3803 
L 500 4441 
Q 881 4594 1212 4672 
Q 1544 4750 1819 4750 
Q 2544 4750 2975 4387 
Q 3406 4025 3406 3419 
Q 3406 3131 3298 2873 
Q 3191 2616 2906 2266 
Q 2828 2175 2409 1742 
Q 1991 1309 1228 531 
z
" transform="scale(0.015625)"/>
       </defs>
       <use xlink:href="#DejaVuSans-32"/>
       <use xlink:href="#DejaVuSans-30" transform="translate(63.623047 0)"/>
      </g>
     </g>
    </g>
    <g id="xtick_6">
     <g id="line2d_6">
      <g>
       <use xlink:href="#m7fe40446ed" x="458.520064" y="364.248" style="stroke: #000000; stroke-width: 0.8"/>
      </g>
     </g>
     <g id="text_6">
      <!-- 25 -->
      <g transform="translate(448.976314 382.645656) scale(0.15 -0.15)">
       <use xlink:href="#DejaVuSans-32"/>
       <use xlink:href="#DejaVuSans-35" transform="translate(63.623047 0)"/>
      </g>
     </g>
    </g>
    <g id="text_7">
     <!-- time [hr] -->
     <g transform="translate(243.619446 403.442375) scale(0.18 -0.18)">
      <defs>
       <path id="DejaVuSans-Bold-74" d="M 1759 4494 
L 1759 3500 
L 2913 3500 
L 2913 2700 
L 1759 2700 
L 1759 1216 
Q 1759 972 1856 886 
Q 1953 800 2241 800 
L 2816 800 
L 2816 0 
L 1856 0 
Q 1194 0 917 276 
Q 641 553 641 1216 
L 641 2700 
L 84 2700 
L 84 3500 
L 641 3500 
L 641 4494 
L 1759 4494 
z
" transform="scale(0.015625)"/>
       <path id="DejaVuSans-Bold-69" d="M 538 3500 
L 1656 3500 
L 1656 0 
L 538 0 
L 538 3500 
z
M 538 4863 
L 1656 4863 
L 1656 3950 
L 538 3950 
L 538 4863 
z
" transform="scale(0.015625)"/>
       <path id="DejaVuSans-Bold-6d" d="M 3781 2919 
Q 3994 3244 4286 3414 
Q 4578 3584 4928 3584 
Q 5531 3584 5847 3212 
Q 6163 2841 6163 2131 
L 6163 0 
L 5038 0 
L 5038 1825 
Q 5041 1866 5042 1909 
Q 5044 1953 5044 2034 
Q 5044 2406 4934 2573 
Q 4825 2741 4581 2741 
Q 4263 2741 4089 2478 
Q 3916 2216 3909 1719 
L 3909 0 
L 2784 0 
L 2784 1825 
Q 2784 2406 2684 2573 
Q 2584 2741 2328 2741 
Q 2006 2741 1831 2477 
Q 1656 2213 1656 1722 
L 1656 0 
L 531 0 
L 531 3500 
L 1656 3500 
L 1656 2988 
Q 1863 3284 2130 3434 
Q 2397 3584 2719 3584 
Q 3081 3584 3359 3409 
Q 3638 3234 3781 2919 
z
" transform="scale(0.015625)"/>
       <path id="DejaVuSans-Bold-65" d="M 4031 1759 
L 4031 1441 
L 1416 1441 
Q 1456 1047 1700 850 
Q 1944 653 2381 653 
Q 2734 653 3104 758 
Q 3475 863 3866 1075 
L 3866 213 
Q 3469 63 3072 -14 
Q 2675 -91 2278 -91 
Q 1328 -91 801 392 
Q 275 875 275 1747 
Q 275 2603 792 3093 
Q 1309 3584 2216 3584 
Q 3041 3584 3536 3087 
Q 4031 2591 4031 1759 
z
M 2881 2131 
Q 2881 2450 2695 2645 
Q 2509 2841 2209 2841 
Q 1884 2841 1681 2658 
Q 1478 2475 1428 2131 
L 2881 2131 
z
" transform="scale(0.015625)"/>
       <path id="DejaVuSans-Bold-20" transform="scale(0.015625)"/>
       <path id="DejaVuSans-Bold-5b" d="M 550 4863 
L 2491 4863 
L 2491 4159 
L 1613 4159 
L 1613 -141 
L 2491 -141 
L 2491 -844 
L 550 -844 
L 550 4863 
z
" transform="scale(0.015625)"/>
       <path id="DejaVuSans-Bold-68" d="M 4056 2131 
L 4056 0 
L 2931 0 
L 2931 347 
L 2931 1625 
Q 2931 2084 2911 2256 
Q 2891 2428 2841 2509 
Q 2775 2619 2662 2680 
Q 2550 2741 2406 2741 
Q 2056 2741 1856 2470 
Q 1656 2200 1656 1722 
L 1656 0 
L 538 0 
L 538 4863 
L 1656 4863 
L 1656 2988 
Q 1909 3294 2193 3439 
Q 2478 3584 2822 3584 
Q 3428 3584 3742 3212 
Q 4056 2841 4056 2131 
z
" transform="scale(0.015625)"/>
       <path id="DejaVuSans-Bold-72" d="M 3138 2547 
Q 2991 2616 2845 2648 
Q 2700 2681 2553 2681 
Q 2122 2681 1889 2404 
Q 1656 2128 1656 1613 
L 1656 0 
L 538 0 
L 538 3500 
L 1656 3500 
L 1656 2925 
Q 1872 3269 2151 3426 
Q 2431 3584 2822 3584 
Q 2878 3584 2943 3579 
Q 3009 3575 3134 3559 
L 3138 2547 
z
" transform="scale(0.015625)"/>
       <path id="DejaVuSans-Bold-5d" d="M 2375 -844 
L 434 -844 
L 434 -141 
L 1313 -141 
L 1313 4159 
L 434 4159 
L 434 4863 
L 2375 4863 
L 2375 -844 
z
" transform="scale(0.015625)"/>
      </defs>
      <use xlink:href="#DejaVuSans-Bold-74"/>
      <use xlink:href="#DejaVuSans-Bold-69" transform="translate(47.802734 0)"/>
      <use xlink:href="#DejaVuSans-Bold-6d" transform="translate(82.080078 0)"/>
      <use xlink:href="#DejaVuSans-Bold-65" transform="translate(186.279297 0)"/>
      <use xlink:href="#DejaVuSans-Bold-20" transform="translate(254.101562 0)"/>
      <use xlink:href="#DejaVuSans-Bold-5b" transform="translate(288.916016 0)"/>
      <use xlink:href="#DejaVuSans-Bold-68" transform="translate(334.619141 0)"/>
      <use xlink:href="#DejaVuSans-Bold-72" transform="translate(405.810547 0)"/>
      <use xlink:href="#DejaVuSans-Bold-5d" transform="translate(455.126953 0)"/>
     </g>
    </g>
   </g>
   <g id="matplotlib.axis_2">
    <g id="ytick_1">
     <g id="line2d_7">
      <defs>
       <path id="me008aaef11" d="M 0 0 
L -3.5 0 
" style="stroke: #000000; stroke-width: 0.8"/>
      </defs>
      <g>
       <use xlink:href="#me008aaef11" x="101.885281" y="353.757019" style="stroke: #000000; stroke-width: 0.8"/>
      </g>
     </g>
     <g id="text_8">
      <!-- −0.05 -->
      <g transform="translate(48.917312 359.455847) scale(0.15 -0.15)">
       <defs>
        <path id="DejaVuSans-2212" d="M 678 2272 
L 4684 2272 
L 4684 1741 
L 678 1741 
L 678 2272 
z
" transform="scale(0.015625)"/>
        <path id="DejaVuSans-2e" d="M 684 794 
L 1344 794 
L 1344 0 
L 684 0 
L 684 794 
z
" transform="scale(0.015625)"/>
       </defs>
       <use xlink:href="#DejaVuSans-2212"/>
       <use xlink:href="#DejaVuSans-30" transform="translate(83.789062 0)"/>
       <use xlink:href="#DejaVuSans-2e" transform="translate(147.412109 0)"/>
       <use xlink:href="#DejaVuSans-30" transform="translate(179.199219 0)"/>
       <use xlink:href="#DejaVuSans-35" transform="translate(242.822266 0)"/>
      </g>
     </g>
    </g>
    <g id="ytick_2">
     <g id="line2d_8">
      <g>
       <use xlink:href="#me008aaef11" x="101.885281" y="290.646363" style="stroke: #000000; stroke-width: 0.8"/>
      </g>
     </g>
     <g id="text_9">
      <!-- 0.00 -->
      <g transform="translate(61.486844 296.345191) scale(0.15 -0.15)">
       <use xlink:href="#DejaVuSans-30"/>
       <use xlink:href="#DejaVuSans-2e" transform="translate(63.623047 0)"/>
       <use xlink:href="#DejaVuSans-30" transform="translate(95.410156 0)"/>
       <use xlink:href="#DejaVuSans-30" transform="translate(159.033203 0)"/>
      </g>
     </g>
    </g>
    <g id="ytick_3">
     <g id="line2d_9">
      <g>
       <use xlink:href="#me008aaef11" x="101.885281" y="227.535708" style="stroke: #000000; stroke-width: 0.8"/>
      </g>
     </g>
     <g id="text_10">
      <!-- 0.05 -->
      <g transform="translate(61.486844 233.234536) scale(0.15 -0.15)">
       <use xlink:href="#DejaVuSans-30"/>
       <use xlink:href="#DejaVuSans-2e" transform="translate(63.623047 0)"/>
       <use xlink:href="#DejaVuSans-30" transform="translate(95.410156 0)"/>
       <use xlink:href="#DejaVuSans-35" transform="translate(159.033203 0)"/>
      </g>
     </g>
    </g>
    <g id="ytick_4">
     <g id="line2d_10">
      <g>
       <use xlink:href="#me008aaef11" x="101.885281" y="164.425052" style="stroke: #000000; stroke-width: 0.8"/>
      </g>
     </g>
     <g id="text_11">
      <!-- 0.10 -->
      <g transform="translate(61.486844 170.12388) scale(0.15 -0.15)">
       <use xlink:href="#DejaVuSans-30"/>
       <use xlink:href="#DejaVuSans-2e" transform="translate(63.623047 0)"/>
       <use xlink:href="#DejaVuSans-31" transform="translate(95.410156 0)"/>
       <use xlink:href="#DejaVuSans-30" transform="translate(159.033203 0)"/>
      </g>
     </g>
    </g>
    <g id="ytick_5">
     <g id="line2d_11">
      <g>
       <use xlink:href="#me008aaef11" x="101.885281" y="101.314397" style="stroke: #000000; stroke-width: 0.8"/>
      </g>
     </g>
     <g id="text_12">
      <!-- 0.15 -->
      <g transform="translate(61.486844 107.013225) scale(0.15 -0.15)">
       <use xlink:href="#DejaVuSans-30"/>
       <use xlink:href="#DejaVuSans-2e" transform="translate(63.623047 0)"/>
       <use xlink:href="#DejaVuSans-31" transform="translate(95.410156 0)"/>
       <use xlink:href="#DejaVuSans-35" transform="translate(159.033203 0)"/>
      </g>
     </g>
    </g>
    <g id="text_13">
     <!-- renin change -->
     <g transform="translate(20.877187 272.588062) rotate(-90) scale(0.18 -0.18)">
      <defs>
       <path id="DejaVuSans-Bold-6e" d="M 4056 2131 
L 4056 0 
L 2931 0 
L 2931 347 
L 2931 1631 
Q 2931 2084 2911 2256 
Q 2891 2428 2841 2509 
Q 2775 2619 2662 2680 
Q 2550 2741 2406 2741 
Q 2056 2741 1856 2470 
Q 1656 2200 1656 1722 
L 1656 0 
L 538 0 
L 538 3500 
L 1656 3500 
L 1656 2988 
Q 1909 3294 2193 3439 
Q 2478 3584 2822 3584 
Q 3428 3584 3742 3212 
Q 4056 2841 4056 2131 
z
" transform="scale(0.015625)"/>
       <path id="DejaVuSans-Bold-63" d="M 3366 3391 
L 3366 2478 
Q 3138 2634 2908 2709 
Q 2678 2784 2431 2784 
Q 1963 2784 1702 2511 
Q 1441 2238 1441 1747 
Q 1441 1256 1702 982 
Q 1963 709 2431 709 
Q 2694 709 2930 787 
Q 3166 866 3366 1019 
L 3366 103 
Q 3103 6 2833 -42 
Q 2563 -91 2291 -91 
Q 1344 -91 809 395 
Q 275 881 275 1747 
Q 275 2613 809 3098 
Q 1344 3584 2291 3584 
Q 2566 3584 2833 3536 
Q 3100 3488 3366 3391 
z
" transform="scale(0.015625)"/>
       <path id="DejaVuSans-Bold-61" d="M 2106 1575 
Q 1756 1575 1579 1456 
Q 1403 1338 1403 1106 
Q 1403 894 1545 773 
Q 1688 653 1941 653 
Q 2256 653 2472 879 
Q 2688 1106 2688 1447 
L 2688 1575 
L 2106 1575 
z
M 3816 1997 
L 3816 0 
L 2688 0 
L 2688 519 
Q 2463 200 2181 54 
Q 1900 -91 1497 -91 
Q 953 -91 614 226 
Q 275 544 275 1050 
Q 275 1666 698 1953 
Q 1122 2241 2028 2241 
L 2688 2241 
L 2688 2328 
Q 2688 2594 2478 2717 
Q 2269 2841 1825 2841 
Q 1466 2841 1156 2769 
Q 847 2697 581 2553 
L 581 3406 
Q 941 3494 1303 3539 
Q 1666 3584 2028 3584 
Q 2975 3584 3395 3211 
Q 3816 2838 3816 1997 
z
" transform="scale(0.015625)"/>
       <path id="DejaVuSans-Bold-67" d="M 2919 594 
Q 2688 288 2409 144 
Q 2131 0 1766 0 
Q 1125 0 706 504 
Q 288 1009 288 1791 
Q 288 2575 706 3076 
Q 1125 3578 1766 3578 
Q 2131 3578 2409 3434 
Q 2688 3291 2919 2981 
L 2919 3500 
L 4044 3500 
L 4044 353 
Q 4044 -491 3511 -936 
Q 2978 -1381 1966 -1381 
Q 1638 -1381 1331 -1331 
Q 1025 -1281 716 -1178 
L 716 -306 
Q 1009 -475 1290 -558 
Q 1572 -641 1856 -641 
Q 2406 -641 2662 -400 
Q 2919 -159 2919 353 
L 2919 594 
z
M 2181 2772 
Q 1834 2772 1640 2515 
Q 1447 2259 1447 1791 
Q 1447 1309 1634 1061 
Q 1822 813 2181 813 
Q 2531 813 2725 1069 
Q 2919 1325 2919 1791 
Q 2919 2259 2725 2515 
Q 2531 2772 2181 2772 
z
" transform="scale(0.015625)"/>
      </defs>
      <use xlink:href="#DejaVuSans-Bold-72"/>
      <use xlink:href="#DejaVuSans-Bold-65" transform="translate(49.316406 0)"/>
      <use xlink:href="#DejaVuSans-Bold-6e" transform="translate(117.138672 0)"/>
      <use xlink:href="#DejaVuSans-Bold-69" transform="translate(188.330078 0)"/>
      <use xlink:href="#DejaVuSans-Bold-6e" transform="translate(222.607422 0)"/>
      <use xlink:href="#DejaVuSans-Bold-20" transform="translate(293.798828 0)"/>
      <use xlink:href="#DejaVuSans-Bold-63" transform="translate(328.613281 0)"/>
      <use xlink:href="#DejaVuSans-Bold-68" transform="translate(387.890625 0)"/>
      <use xlink:href="#DejaVuSans-Bold-61" transform="translate(459.082031 0)"/>
      <use xlink:href="#DejaVuSans-Bold-6e" transform="translate(526.5625 0)"/>
      <use xlink:href="#DejaVuSans-Bold-67" transform="translate(597.753906 0)"/>
      <use xlink:href="#DejaVuSans-Bold-65" transform="translate(669.335938 0)"/>
     </g>
     <!--  [pM] -->
     <g transform="translate(41.173875 233.002125) rotate(-90) scale(0.18 -0.18)">
      <defs>
       <path id="DejaVuSans-Bold-70" d="M 1656 506 
L 1656 -1331 
L 538 -1331 
L 538 3500 
L 1656 3500 
L 1656 2988 
Q 1888 3294 2169 3439 
Q 2450 3584 2816 3584 
Q 3463 3584 3878 3070 
Q 4294 2556 4294 1747 
Q 4294 938 3878 423 
Q 3463 -91 2816 -91 
Q 2450 -91 2169 54 
Q 1888 200 1656 506 
z
M 2400 2772 
Q 2041 2772 1848 2508 
Q 1656 2244 1656 1747 
Q 1656 1250 1848 986 
Q 2041 722 2400 722 
Q 2759 722 2948 984 
Q 3138 1247 3138 1747 
Q 3138 2247 2948 2509 
Q 2759 2772 2400 2772 
z
" transform="scale(0.015625)"/>
       <path id="DejaVuSans-Bold-4d" d="M 588 4666 
L 2119 4666 
L 3181 2169 
L 4250 4666 
L 5778 4666 
L 5778 0 
L 4641 0 
L 4641 3413 
L 3566 897 
L 2803 897 
L 1728 3413 
L 1728 0 
L 588 0 
L 588 4666 
z
" transform="scale(0.015625)"/>
      </defs>
      <use xlink:href="#DejaVuSans-Bold-20"/>
      <use xlink:href="#DejaVuSans-Bold-5b" transform="translate(34.814453 0)"/>
      <use xlink:href="#DejaVuSans-Bold-70" transform="translate(80.517578 0)"/>
      <use xlink:href="#DejaVuSans-Bold-4d" transform="translate(152.099609 0)"/>
      <use xlink:href="#DejaVuSans-Bold-5d" transform="translate(251.611328 0)"/>
     </g>
    </g>
   </g>
   <g id="line2d_12">
    <path d="M 118.86789 290.646363 
L 146.040064 205.591432 
L 173.212238 278.882907 
L 200.384412 291.948093 
L 227.556586 339.404217 
L 254.72876 281.936559 
L 444.933977 301.882997 
" clip-path="url(#pdf35cd6c3c)" style="fill: none; stroke-dasharray: 3.7,1.6; stroke-dashoffset: 0; stroke: #000000"/>
    <defs>
     <path id="m1f5edc1f0c" d="M -3 3 
L 3 3 
L 3 -3 
L -3 -3 
z
" style="stroke: #000000; stroke-linejoin: miter"/>
    </defs>
    <g clip-path="url(#pdf35cd6c3c)">
     <use xlink:href="#m1f5edc1f0c" x="118.86789" y="290.646363" style="stroke: #000000; stroke-linejoin: miter"/>
     <use xlink:href="#m1f5edc1f0c" x="146.040064" y="205.591432" style="stroke: #000000; stroke-linejoin: miter"/>
     <use xlink:href="#m1f5edc1f0c" x="173.212238" y="278.882907" style="stroke: #000000; stroke-linejoin: miter"/>
     <use xlink:href="#m1f5edc1f0c" x="200.384412" y="291.948093" style="stroke: #000000; stroke-linejoin: miter"/>
     <use xlink:href="#m1f5edc1f0c" x="227.556586" y="339.404217" style="stroke: #000000; stroke-linejoin: miter"/>
     <use xlink:href="#m1f5edc1f0c" x="254.72876" y="281.936559" style="stroke: #000000; stroke-linejoin: miter"/>
     <use xlink:href="#m1f5edc1f0c" x="444.933977" y="301.882997" style="stroke: #000000; stroke-linejoin: miter"/>
    </g>
   </g>
   <g id="line2d_13">
    <path d="M 118.86789 290.646363 
L 119.71702 279.771324 
L 121.415281 244.047181 
L 124.811803 162.736947 
L 126.510064 123.912576 
L 128.208325 91.720168 
L 129.057455 79.460243 
L 129.906586 70.354608 
L 130.755716 64.694297 
L 131.604846 62.604 
L 132.453977 64.029 
L 133.303107 68.744276 
L 134.152238 76.383663 
L 135.001368 86.482661 
L 136.699629 111.994125 
L 143.492673 225.408858 
L 145.190933 248.142574 
L 146.889194 267.784443 
L 148.587455 284.520302 
L 150.285716 298.628991 
L 151.983977 310.412515 
L 153.682238 320.160437 
L 155.380499 328.134253 
L 157.07876 334.56262 
L 158.77702 339.642064 
L 160.475281 343.540158 
L 161.324412 345.091643 
L 162.173542 346.39958 
L 163.022673 347.478593 
L 163.871803 348.342256 
L 164.720933 349.003199 
L 165.570064 349.473213 
L 166.419194 349.763349 
L 167.268325 349.884 
L 168.117455 349.84499 
L 168.966586 349.655644 
L 169.815716 349.324857 
L 171.513977 348.272754 
L 173.212238 346.75344 
L 174.910499 344.828118 
L 176.60876 342.555577 
L 179.156151 338.620469 
L 181.703542 334.220719 
L 185.949194 326.347966 
L 191.043977 316.961347 
L 193.591368 312.623641 
L 196.13876 308.664006 
L 198.686151 305.149583 
L 201.233542 302.115485 
L 203.780933 299.567137 
L 205.479194 298.129277 
L 207.177455 296.888255 
L 209.724846 295.365509 
L 212.272238 294.201264 
L 214.819629 293.338014 
L 217.36702 292.718892 
L 220.763542 292.18278 
L 224.160064 291.880103 
L 229.254846 291.685187 
L 238.595281 291.631681 
L 258.974412 291.508055 
L 293.78876 291.266824 
L 358.322673 291.16096 
L 458.520064 291.099549 
L 458.520064 291.099549 
" clip-path="url(#pdf35cd6c3c)" style="fill: none; stroke: #000000; stroke-width: 2; stroke-linecap: square"/>
   </g>
   <g id="patch_3">
    <path d="M 101.885281 364.248 
L 101.885281 48.24 
" style="fill: none; stroke: #000000; stroke-width: 0.8; stroke-linejoin: miter; stroke-linecap: square"/>
   </g>
   <g id="patch_4">
    <path d="M 475.502673 364.248 
L 475.502673 48.24 
" style="fill: none; stroke: #000000; stroke-width: 0.8; stroke-linejoin: miter; stroke-linecap: square"/>
   </g>
   <g id="patch_5">
    <path d="M 101.885281 364.248 
L 475.502673 364.248 
" style="fill: none; stroke: #000000; stroke-width: 0.8; stroke-linejoin: miter; stroke-linecap: square"/>
   </g>
   <g id="patch_6">
    <path d="M 101.885281 48.24 
L 475.502673 48.24 
" style="fill: none; stroke: #000000; stroke-width: 0.8; stroke-linejoin: miter; stroke-linecap: square"/>
   </g>
   <g id="legend_1">
    <g id="patch_7">
     <path d="M 294.41986 85.59625 
L 468.502673 85.59625 
Q 470.502673 85.59625 470.502673 83.59625 
L 470.502673 55.24 
Q 470.502673 53.24 468.502673 53.24 
L 294.41986 53.24 
Q 292.41986 53.24 292.41986 55.24 
L 292.41986 83.59625 
Q 292.41986 85.59625 294.41986 85.59625 
z
" style="fill: #ffffff; opacity: 0.8; stroke: #cccccc; stroke-linejoin: miter"/>
    </g>
    <g id="line2d_14">
     <path d="M 296.41986 61.338437 
L 316.41986 61.338437 
" style="fill: none; stroke-dasharray: 3.7,1.6; stroke-dashoffset: 0; stroke: #000000"/>
    </g>
    <g id="line2d_15">
     <g>
      <use xlink:href="#m1f5edc1f0c" x="306.41986" y="61.338437" style="stroke: #000000; stroke-linejoin: miter"/>
     </g>
    </g>
    <g id="text_14">
     <!-- CHF exp: 6.25mg PO (n=12) -->
     <g transform="translate(324.41986 64.838437) scale(0.1 -0.1)">
      <defs>
       <path id="DejaVuSans-43" d="M 4122 4306 
L 4122 3641 
Q 3803 3938 3442 4084 
Q 3081 4231 2675 4231 
Q 1875 4231 1450 3742 
Q 1025 3253 1025 2328 
Q 1025 1406 1450 917 
Q 1875 428 2675 428 
Q 3081 428 3442 575 
Q 3803 722 4122 1019 
L 4122 359 
Q 3791 134 3420 21 
Q 3050 -91 2638 -91 
Q 1578 -91 968 557 
Q 359 1206 359 2328 
Q 359 3453 968 4101 
Q 1578 4750 2638 4750 
Q 3056 4750 3426 4639 
Q 3797 4528 4122 4306 
z
" transform="scale(0.015625)"/>
       <path id="DejaVuSans-48" d="M 628 4666 
L 1259 4666 
L 1259 2753 
L 3553 2753 
L 3553 4666 
L 4184 4666 
L 4184 0 
L 3553 0 
L 3553 2222 
L 1259 2222 
L 1259 0 
L 628 0 
L 628 4666 
z
" transform="scale(0.015625)"/>
       <path id="DejaVuSans-46" d="M 628 4666 
L 3309 4666 
L 3309 4134 
L 1259 4134 
L 1259 2759 
L 3109 2759 
L 3109 2228 
L 1259 2228 
L 1259 0 
L 628 0 
L 628 4666 
z
" transform="scale(0.015625)"/>
       <path id="DejaVuSans-20" transform="scale(0.015625)"/>
       <path id="DejaVuSans-65" d="M 3597 1894 
L 3597 1613 
L 953 1613 
Q 991 1019 1311 708 
Q 1631 397 2203 397 
Q 2534 397 2845 478 
Q 3156 559 3463 722 
L 3463 178 
Q 3153 47 2828 -22 
Q 2503 -91 2169 -91 
Q 1331 -91 842 396 
Q 353 884 353 1716 
Q 353 2575 817 3079 
Q 1281 3584 2069 3584 
Q 2775 3584 3186 3129 
Q 3597 2675 3597 1894 
z
M 3022 2063 
Q 3016 2534 2758 2815 
Q 2500 3097 2075 3097 
Q 1594 3097 1305 2825 
Q 1016 2553 972 2059 
L 3022 2063 
z
" transform="scale(0.015625)"/>
       <path id="DejaVuSans-78" d="M 3513 3500 
L 2247 1797 
L 3578 0 
L 2900 0 
L 1881 1375 
L 863 0 
L 184 0 
L 1544 1831 
L 300 3500 
L 978 3500 
L 1906 2253 
L 2834 3500 
L 3513 3500 
z
" transform="scale(0.015625)"/>
       <path id="DejaVuSans-70" d="M 1159 525 
L 1159 -1331 
L 581 -1331 
L 581 3500 
L 1159 3500 
L 1159 2969 
Q 1341 3281 1617 3432 
Q 1894 3584 2278 3584 
Q 2916 3584 3314 3078 
Q 3713 2572 3713 1747 
Q 3713 922 3314 415 
Q 2916 -91 2278 -91 
Q 1894 -91 1617 61 
Q 1341 213 1159 525 
z
M 3116 1747 
Q 3116 2381 2855 2742 
Q 2594 3103 2138 3103 
Q 1681 3103 1420 2742 
Q 1159 2381 1159 1747 
Q 1159 1113 1420 752 
Q 1681 391 2138 391 
Q 2594 391 2855 752 
Q 3116 1113 3116 1747 
z
" transform="scale(0.015625)"/>
       <path id="DejaVuSans-3a" d="M 750 794 
L 1409 794 
L 1409 0 
L 750 0 
L 750 794 
z
M 750 3309 
L 1409 3309 
L 1409 2516 
L 750 2516 
L 750 3309 
z
" transform="scale(0.015625)"/>
       <path id="DejaVuSans-36" d="M 2113 2584 
Q 1688 2584 1439 2293 
Q 1191 2003 1191 1497 
Q 1191 994 1439 701 
Q 1688 409 2113 409 
Q 2538 409 2786 701 
Q 3034 994 3034 1497 
Q 3034 2003 2786 2293 
Q 2538 2584 2113 2584 
z
M 3366 4563 
L 3366 3988 
Q 3128 4100 2886 4159 
Q 2644 4219 2406 4219 
Q 1781 4219 1451 3797 
Q 1122 3375 1075 2522 
Q 1259 2794 1537 2939 
Q 1816 3084 2150 3084 
Q 2853 3084 3261 2657 
Q 3669 2231 3669 1497 
Q 3669 778 3244 343 
Q 2819 -91 2113 -91 
Q 1303 -91 875 529 
Q 447 1150 447 2328 
Q 447 3434 972 4092 
Q 1497 4750 2381 4750 
Q 2619 4750 2861 4703 
Q 3103 4656 3366 4563 
z
" transform="scale(0.015625)"/>
       <path id="DejaVuSans-6d" d="M 3328 2828 
Q 3544 3216 3844 3400 
Q 4144 3584 4550 3584 
Q 5097 3584 5394 3201 
Q 5691 2819 5691 2113 
L 5691 0 
L 5113 0 
L 5113 2094 
Q 5113 2597 4934 2840 
Q 4756 3084 4391 3084 
Q 3944 3084 3684 2787 
Q 3425 2491 3425 1978 
L 3425 0 
L 2847 0 
L 2847 2094 
Q 2847 2600 2669 2842 
Q 2491 3084 2119 3084 
Q 1678 3084 1418 2786 
Q 1159 2488 1159 1978 
L 1159 0 
L 581 0 
L 581 3500 
L 1159 3500 
L 1159 2956 
Q 1356 3278 1631 3431 
Q 1906 3584 2284 3584 
Q 2666 3584 2933 3390 
Q 3200 3197 3328 2828 
z
" transform="scale(0.015625)"/>
       <path id="DejaVuSans-67" d="M 2906 1791 
Q 2906 2416 2648 2759 
Q 2391 3103 1925 3103 
Q 1463 3103 1205 2759 
Q 947 2416 947 1791 
Q 947 1169 1205 825 
Q 1463 481 1925 481 
Q 2391 481 2648 825 
Q 2906 1169 2906 1791 
z
M 3481 434 
Q 3481 -459 3084 -895 
Q 2688 -1331 1869 -1331 
Q 1566 -1331 1297 -1286 
Q 1028 -1241 775 -1147 
L 775 -588 
Q 1028 -725 1275 -790 
Q 1522 -856 1778 -856 
Q 2344 -856 2625 -561 
Q 2906 -266 2906 331 
L 2906 616 
Q 2728 306 2450 153 
Q 2172 0 1784 0 
Q 1141 0 747 490 
Q 353 981 353 1791 
Q 353 2603 747 3093 
Q 1141 3584 1784 3584 
Q 2172 3584 2450 3431 
Q 2728 3278 2906 2969 
L 2906 3500 
L 3481 3500 
L 3481 434 
z
" transform="scale(0.015625)"/>
       <path id="DejaVuSans-50" d="M 1259 4147 
L 1259 2394 
L 2053 2394 
Q 2494 2394 2734 2622 
Q 2975 2850 2975 3272 
Q 2975 3691 2734 3919 
Q 2494 4147 2053 4147 
L 1259 4147 
z
M 628 4666 
L 2053 4666 
Q 2838 4666 3239 4311 
Q 3641 3956 3641 3272 
Q 3641 2581 3239 2228 
Q 2838 1875 2053 1875 
L 1259 1875 
L 1259 0 
L 628 0 
L 628 4666 
z
" transform="scale(0.015625)"/>
       <path id="DejaVuSans-4f" d="M 2522 4238 
Q 1834 4238 1429 3725 
Q 1025 3213 1025 2328 
Q 1025 1447 1429 934 
Q 1834 422 2522 422 
Q 3209 422 3611 934 
Q 4013 1447 4013 2328 
Q 4013 3213 3611 3725 
Q 3209 4238 2522 4238 
z
M 2522 4750 
Q 3503 4750 4090 4092 
Q 4678 3434 4678 2328 
Q 4678 1225 4090 567 
Q 3503 -91 2522 -91 
Q 1538 -91 948 565 
Q 359 1222 359 2328 
Q 359 3434 948 4092 
Q 1538 4750 2522 4750 
z
" transform="scale(0.015625)"/>
       <path id="DejaVuSans-28" d="M 1984 4856 
Q 1566 4138 1362 3434 
Q 1159 2731 1159 2009 
Q 1159 1288 1364 580 
Q 1569 -128 1984 -844 
L 1484 -844 
Q 1016 -109 783 600 
Q 550 1309 550 2009 
Q 550 2706 781 3412 
Q 1013 4119 1484 4856 
L 1984 4856 
z
" transform="scale(0.015625)"/>
       <path id="DejaVuSans-6e" d="M 3513 2113 
L 3513 0 
L 2938 0 
L 2938 2094 
Q 2938 2591 2744 2837 
Q 2550 3084 2163 3084 
Q 1697 3084 1428 2787 
Q 1159 2491 1159 1978 
L 1159 0 
L 581 0 
L 581 3500 
L 1159 3500 
L 1159 2956 
Q 1366 3272 1645 3428 
Q 1925 3584 2291 3584 
Q 2894 3584 3203 3211 
Q 3513 2838 3513 2113 
z
" transform="scale(0.015625)"/>
       <path id="DejaVuSans-3d" d="M 678 2906 
L 4684 2906 
L 4684 2381 
L 678 2381 
L 678 2906 
z
M 678 1631 
L 4684 1631 
L 4684 1100 
L 678 1100 
L 678 1631 
z
" transform="scale(0.015625)"/>
       <path id="DejaVuSans-29" d="M 513 4856 
L 1013 4856 
Q 1481 4119 1714 3412 
Q 1947 2706 1947 2009 
Q 1947 1309 1714 600 
Q 1481 -109 1013 -844 
L 513 -844 
Q 928 -128 1133 580 
Q 1338 1288 1338 2009 
Q 1338 2731 1133 3434 
Q 928 4138 513 4856 
z
" transform="scale(0.015625)"/>
      </defs>
      <use xlink:href="#DejaVuSans-43"/>
      <use xlink:href="#DejaVuSans-48" transform="translate(69.824219 0)"/>
      <use xlink:href="#DejaVuSans-46" transform="translate(145.019531 0)"/>
      <use xlink:href="#DejaVuSans-20" transform="translate(202.539062 0)"/>
      <use xlink:href="#DejaVuSans-65" transform="translate(234.326172 0)"/>
      <use xlink:href="#DejaVuSans-78" transform="translate(294.099609 0)"/>
      <use xlink:href="#DejaVuSans-70" transform="translate(353.279297 0)"/>
      <use xlink:href="#DejaVuSans-3a" transform="translate(416.755859 0)"/>
      <use xlink:href="#DejaVuSans-20" transform="translate(450.447266 0)"/>
      <use xlink:href="#DejaVuSans-36" transform="translate(482.234375 0)"/>
      <use xlink:href="#DejaVuSans-2e" transform="translate(545.857422 0)"/>
      <use xlink:href="#DejaVuSans-32" transform="translate(577.644531 0)"/>
      <use xlink:href="#DejaVuSans-35" transform="translate(641.267578 0)"/>
      <use xlink:href="#DejaVuSans-6d" transform="translate(704.890625 0)"/>
      <use xlink:href="#DejaVuSans-67" transform="translate(802.302734 0)"/>
      <use xlink:href="#DejaVuSans-20" transform="translate(865.779297 0)"/>
      <use xlink:href="#DejaVuSans-50" transform="translate(897.566406 0)"/>
      <use xlink:href="#DejaVuSans-4f" transform="translate(957.869141 0)"/>
      <use xlink:href="#DejaVuSans-20" transform="translate(1036.580078 0)"/>
      <use xlink:href="#DejaVuSans-28" transform="translate(1068.367188 0)"/>
      <use xlink:href="#DejaVuSans-6e" transform="translate(1107.380859 0)"/>
      <use xlink:href="#DejaVuSans-3d" transform="translate(1170.759766 0)"/>
      <use xlink:href="#DejaVuSans-31" transform="translate(1254.548828 0)"/>
      <use xlink:href="#DejaVuSans-32" transform="translate(1318.171875 0)"/>
      <use xlink:href="#DejaVuSans-29" transform="translate(1381.794922 0)"/>
     </g>
    </g>
    <g id="line2d_16">
     <path d="M 296.41986 76.016562 
L 316.41986 76.016562 
" style="fill: none; stroke: #000000; stroke-width: 2; stroke-linecap: square"/>
    </g>
    <g id="line2d_17"/>
    <g id="text_15">
     <!-- CHF sim: 6.25mg PO -->
     <g transform="translate(324.41986 79.516562) scale(0.1 -0.1)">
      <defs>
       <path id="DejaVuSans-73" d="M 2834 3397 
L 2834 2853 
Q 2591 2978 2328 3040 
Q 2066 3103 1784 3103 
Q 1356 3103 1142 2972 
Q 928 2841 928 2578 
Q 928 2378 1081 2264 
Q 1234 2150 1697 2047 
L 1894 2003 
Q 2506 1872 2764 1633 
Q 3022 1394 3022 966 
Q 3022 478 2636 193 
Q 2250 -91 1575 -91 
Q 1294 -91 989 -36 
Q 684 19 347 128 
L 347 722 
Q 666 556 975 473 
Q 1284 391 1588 391 
Q 1994 391 2212 530 
Q 2431 669 2431 922 
Q 2431 1156 2273 1281 
Q 2116 1406 1581 1522 
L 1381 1569 
Q 847 1681 609 1914 
Q 372 2147 372 2553 
Q 372 3047 722 3315 
Q 1072 3584 1716 3584 
Q 2034 3584 2315 3537 
Q 2597 3491 2834 3397 
z
" transform="scale(0.015625)"/>
       <path id="DejaVuSans-69" d="M 603 3500 
L 1178 3500 
L 1178 0 
L 603 0 
L 603 3500 
z
M 603 4863 
L 1178 4863 
L 1178 4134 
L 603 4134 
L 603 4863 
z
" transform="scale(0.015625)"/>
      </defs>
      <use xlink:href="#DejaVuSans-43"/>
      <use xlink:href="#DejaVuSans-48" transform="translate(69.824219 0)"/>
      <use xlink:href="#DejaVuSans-46" transform="translate(145.019531 0)"/>
      <use xlink:href="#DejaVuSans-20" transform="translate(202.539062 0)"/>
      <use xlink:href="#DejaVuSans-73" transform="translate(234.326172 0)"/>
      <use xlink:href="#DejaVuSans-69" transform="translate(286.425781 0)"/>
      <use xlink:href="#DejaVuSans-6d" transform="translate(314.208984 0)"/>
      <use xlink:href="#DejaVuSans-3a" transform="translate(411.621094 0)"/>
      <use xlink:href="#DejaVuSans-20" transform="translate(445.3125 0)"/>
      <use xlink:href="#DejaVuSans-36" transform="translate(477.099609 0)"/>
      <use xlink:href="#DejaVuSans-2e" transform="translate(540.722656 0)"/>
      <use xlink:href="#DejaVuSans-32" transform="translate(572.509766 0)"/>
      <use xlink:href="#DejaVuSans-35" transform="translate(636.132812 0)"/>
      <use xlink:href="#DejaVuSans-6d" transform="translate(699.755859 0)"/>
      <use xlink:href="#DejaVuSans-67" transform="translate(797.167969 0)"/>
      <use xlink:href="#DejaVuSans-20" transform="translate(860.644531 0)"/>
      <use xlink:href="#DejaVuSans-50" transform="translate(892.431641 0)"/>
      <use xlink:href="#DejaVuSans-4f" transform="translate(952.734375 0)"/>
     </g>
    </g>
   </g>
  </g>
  <g id="axes_2">
   <g id="patch_8">
    <path d="M 587.58789 364.248 
L 961.205281 364.248 
L 961.205281 48.24 
L 587.58789 48.24 
z
" style="fill: #ffffff"/>
   </g>
   <g id="matplotlib.axis_3">
    <g id="xtick_7">
     <g id="line2d_18">
      <g>
       <use xlink:href="#m7fe40446ed" x="604.570499" y="364.248" style="stroke: #000000; stroke-width: 0.8"/>
      </g>
     </g>
     <g id="text_16">
      <!-- 0 -->
      <g transform="translate(599.798624 382.645656) scale(0.15 -0.15)">
       <use xlink:href="#DejaVuSans-30"/>
      </g>
     </g>
    </g>
    <g id="xtick_8">
     <g id="line2d_19">
      <g>
       <use xlink:href="#m7fe40446ed" x="672.500933" y="364.248" style="stroke: #000000; stroke-width: 0.8"/>
      </g>
     </g>
     <g id="text_17">
      <!-- 5 -->
      <g transform="translate(667.729058 382.645656) scale(0.15 -0.15)">
       <use xlink:href="#DejaVuSans-35"/>
      </g>
     </g>
    </g>
    <g id="xtick_9">
     <g id="line2d_20">
      <g>
       <use xlink:href="#m7fe40446ed" x="740.431368" y="364.248" style="stroke: #000000; stroke-width: 0.8"/>
      </g>
     </g>
     <g id="text_18">
      <!-- 10 -->
      <g transform="translate(730.887618 382.645656) scale(0.15 -0.15)">
       <use xlink:href="#DejaVuSans-31"/>
       <use xlink:href="#DejaVuSans-30" transform="translate(63.623047 0)"/>
      </g>
     </g>
    </g>
    <g id="xtick_10">
     <g id="line2d_21">
      <g>
       <use xlink:href="#m7fe40446ed" x="808.361803" y="364.248" style="stroke: #000000; stroke-width: 0.8"/>
      </g>
     </g>
     <g id="text_19">
      <!-- 15 -->
      <g transform="translate(798.818053 382.645656) scale(0.15 -0.15)">
       <use xlink:href="#DejaVuSans-31"/>
       <use xlink:href="#DejaVuSans-35" transform="translate(63.623047 0)"/>
      </g>
     </g>
    </g>
    <g id="xtick_11">
     <g id="line2d_22">
      <g>
       <use xlink:href="#m7fe40446ed" x="876.292238" y="364.248" style="stroke: #000000; stroke-width: 0.8"/>
      </g>
     </g>
     <g id="text_20">
      <!-- 20 -->
      <g transform="translate(866.748488 382.645656) scale(0.15 -0.15)">
       <use xlink:href="#DejaVuSans-32"/>
       <use xlink:href="#DejaVuSans-30" transform="translate(63.623047 0)"/>
      </g>
     </g>
    </g>
    <g id="xtick_12">
     <g id="line2d_23">
      <g>
       <use xlink:href="#m7fe40446ed" x="944.222673" y="364.248" style="stroke: #000000; stroke-width: 0.8"/>
      </g>
     </g>
     <g id="text_21">
      <!-- 25 -->
      <g transform="translate(934.678923 382.645656) scale(0.15 -0.15)">
       <use xlink:href="#DejaVuSans-32"/>
       <use xlink:href="#DejaVuSans-35" transform="translate(63.623047 0)"/>
      </g>
     </g>
    </g>
    <g id="text_22">
     <!-- time [hr] -->
     <g transform="translate(729.322054 403.442375) scale(0.18 -0.18)">
      <use xlink:href="#DejaVuSans-Bold-74"/>
      <use xlink:href="#DejaVuSans-Bold-69" transform="translate(47.802734 0)"/>
      <use xlink:href="#DejaVuSans-Bold-6d" transform="translate(82.080078 0)"/>
      <use xlink:href="#DejaVuSans-Bold-65" transform="translate(186.279297 0)"/>
      <use xlink:href="#DejaVuSans-Bold-20" transform="translate(254.101562 0)"/>
      <use xlink:href="#DejaVuSans-Bold-5b" transform="translate(288.916016 0)"/>
      <use xlink:href="#DejaVuSans-Bold-68" transform="translate(334.619141 0)"/>
      <use xlink:href="#DejaVuSans-Bold-72" transform="translate(405.810547 0)"/>
      <use xlink:href="#DejaVuSans-Bold-5d" transform="translate(455.126953 0)"/>
     </g>
    </g>
   </g>
   <g id="matplotlib.axis_4">
    <g id="ytick_6">
     <g id="line2d_24">
      <g>
       <use xlink:href="#me008aaef11" x="587.58789" y="346.661757" style="stroke: #000000; stroke-width: 0.8"/>
      </g>
     </g>
     <g id="text_23">
      <!-- −30 -->
      <g transform="translate(548.930859 352.360585) scale(0.15 -0.15)">
       <defs>
        <path id="DejaVuSans-33" d="M 2597 2516 
Q 3050 2419 3304 2112 
Q 3559 1806 3559 1356 
Q 3559 666 3084 287 
Q 2609 -91 1734 -91 
Q 1441 -91 1130 -33 
Q 819 25 488 141 
L 488 750 
Q 750 597 1062 519 
Q 1375 441 1716 441 
Q 2309 441 2620 675 
Q 2931 909 2931 1356 
Q 2931 1769 2642 2001 
Q 2353 2234 1838 2234 
L 1294 2234 
L 1294 2753 
L 1863 2753 
Q 2328 2753 2575 2939 
Q 2822 3125 2822 3475 
Q 2822 3834 2567 4026 
Q 2313 4219 1838 4219 
Q 1578 4219 1281 4162 
Q 984 4106 628 3988 
L 628 4550 
Q 988 4650 1302 4700 
Q 1616 4750 1894 4750 
Q 2613 4750 3031 4423 
Q 3450 4097 3450 3541 
Q 3450 3153 3228 2886 
Q 3006 2619 2597 2516 
z
" transform="scale(0.015625)"/>
       </defs>
       <use xlink:href="#DejaVuSans-2212"/>
       <use xlink:href="#DejaVuSans-33" transform="translate(83.789062 0)"/>
       <use xlink:href="#DejaVuSans-30" transform="translate(147.412109 0)"/>
      </g>
     </g>
    </g>
    <g id="ytick_7">
     <g id="line2d_25">
      <g>
       <use xlink:href="#me008aaef11" x="587.58789" y="311.025931" style="stroke: #000000; stroke-width: 0.8"/>
      </g>
     </g>
     <g id="text_24">
      <!-- −25 -->
      <g transform="translate(548.930859 316.72476) scale(0.15 -0.15)">
       <use xlink:href="#DejaVuSans-2212"/>
       <use xlink:href="#DejaVuSans-32" transform="translate(83.789062 0)"/>
       <use xlink:href="#DejaVuSans-35" transform="translate(147.412109 0)"/>
      </g>
     </g>
    </g>
    <g id="ytick_8">
     <g id="line2d_26">
      <g>
       <use xlink:href="#me008aaef11" x="587.58789" y="275.390106" style="stroke: #000000; stroke-width: 0.8"/>
      </g>
     </g>
     <g id="text_25">
      <!-- −20 -->
      <g transform="translate(548.930859 281.088934) scale(0.15 -0.15)">
       <use xlink:href="#DejaVuSans-2212"/>
       <use xlink:href="#DejaVuSans-32" transform="translate(83.789062 0)"/>
       <use xlink:href="#DejaVuSans-30" transform="translate(147.412109 0)"/>
      </g>
     </g>
    </g>
    <g id="ytick_9">
     <g id="line2d_27">
      <g>
       <use xlink:href="#me008aaef11" x="587.58789" y="239.754281" style="stroke: #000000; stroke-width: 0.8"/>
      </g>
     </g>
     <g id="text_26">
      <!-- −15 -->
      <g transform="translate(548.930859 245.453109) scale(0.15 -0.15)">
       <use xlink:href="#DejaVuSans-2212"/>
       <use xlink:href="#DejaVuSans-31" transform="translate(83.789062 0)"/>
       <use xlink:href="#DejaVuSans-35" transform="translate(147.412109 0)"/>
      </g>
     </g>
    </g>
    <g id="ytick_10">
     <g id="line2d_28">
      <g>
       <use xlink:href="#me008aaef11" x="587.58789" y="204.118455" style="stroke: #000000; stroke-width: 0.8"/>
      </g>
     </g>
     <g id="text_27">
      <!-- −10 -->
      <g transform="translate(548.930859 209.817283) scale(0.15 -0.15)">
       <use xlink:href="#DejaVuSans-2212"/>
       <use xlink:href="#DejaVuSans-31" transform="translate(83.789062 0)"/>
       <use xlink:href="#DejaVuSans-30" transform="translate(147.412109 0)"/>
      </g>
     </g>
    </g>
    <g id="ytick_11">
     <g id="line2d_29">
      <g>
       <use xlink:href="#me008aaef11" x="587.58789" y="168.48263" style="stroke: #000000; stroke-width: 0.8"/>
      </g>
     </g>
     <g id="text_28">
      <!-- −5 -->
      <g transform="translate(558.474609 174.181458) scale(0.15 -0.15)">
       <use xlink:href="#DejaVuSans-2212"/>
       <use xlink:href="#DejaVuSans-35" transform="translate(83.789062 0)"/>
      </g>
     </g>
    </g>
    <g id="ytick_12">
     <g id="line2d_30">
      <g>
       <use xlink:href="#me008aaef11" x="587.58789" y="132.846805" style="stroke: #000000; stroke-width: 0.8"/>
      </g>
     </g>
     <g id="text_29">
      <!-- 0 -->
      <g transform="translate(571.04414 138.545633) scale(0.15 -0.15)">
       <use xlink:href="#DejaVuSans-30"/>
      </g>
     </g>
    </g>
    <g id="ytick_13">
     <g id="line2d_31">
      <g>
       <use xlink:href="#me008aaef11" x="587.58789" y="97.210979" style="stroke: #000000; stroke-width: 0.8"/>
      </g>
     </g>
     <g id="text_30">
      <!-- 5 -->
      <g transform="translate(571.04414 102.909807) scale(0.15 -0.15)">
       <use xlink:href="#DejaVuSans-35"/>
      </g>
     </g>
    </g>
    <g id="ytick_14">
     <g id="line2d_32">
      <g>
       <use xlink:href="#me008aaef11" x="587.58789" y="61.575154" style="stroke: #000000; stroke-width: 0.8"/>
      </g>
     </g>
     <g id="text_31">
      <!-- 10 -->
      <g transform="translate(561.50039 67.273982) scale(0.15 -0.15)">
       <use xlink:href="#DejaVuSans-31"/>
       <use xlink:href="#DejaVuSans-30" transform="translate(63.623047 0)"/>
      </g>
     </g>
    </g>
    <g id="text_32">
     <!-- MAP -->
     <g transform="translate(520.890734 228.762281) rotate(-90) scale(0.18 -0.18)">
      <defs>
       <path id="DejaVuSans-Bold-41" d="M 3419 850 
L 1538 850 
L 1241 0 
L 31 0 
L 1759 4666 
L 3194 4666 
L 4922 0 
L 3713 0 
L 3419 850 
z
M 1838 1716 
L 3116 1716 
L 2478 3572 
L 1838 1716 
z
" transform="scale(0.015625)"/>
       <path id="DejaVuSans-Bold-50" d="M 588 4666 
L 2584 4666 
Q 3475 4666 3951 4270 
Q 4428 3875 4428 3144 
Q 4428 2409 3951 2014 
Q 3475 1619 2584 1619 
L 1791 1619 
L 1791 0 
L 588 0 
L 588 4666 
z
M 1791 3794 
L 1791 2491 
L 2456 2491 
Q 2806 2491 2997 2661 
Q 3188 2831 3188 3144 
Q 3188 3456 2997 3625 
Q 2806 3794 2456 3794 
L 1791 3794 
z
" transform="scale(0.015625)"/>
      </defs>
      <use xlink:href="#DejaVuSans-Bold-4d"/>
      <use xlink:href="#DejaVuSans-Bold-41" transform="translate(99.511719 0)"/>
      <use xlink:href="#DejaVuSans-Bold-50" transform="translate(176.904297 0)"/>
     </g>
     <!-- change [mmHg] -->
     <g transform="translate(541.046796 287.103375) rotate(-90) scale(0.18 -0.18)">
      <defs>
       <path id="DejaVuSans-Bold-48" d="M 588 4666 
L 1791 4666 
L 1791 2888 
L 3566 2888 
L 3566 4666 
L 4769 4666 
L 4769 0 
L 3566 0 
L 3566 1978 
L 1791 1978 
L 1791 0 
L 588 0 
L 588 4666 
z
" transform="scale(0.015625)"/>
      </defs>
      <use xlink:href="#DejaVuSans-Bold-63"/>
      <use xlink:href="#DejaVuSans-Bold-68" transform="translate(59.277344 0)"/>
      <use xlink:href="#DejaVuSans-Bold-61" transform="translate(130.46875 0)"/>
      <use xlink:href="#DejaVuSans-Bold-6e" transform="translate(197.949219 0)"/>
      <use xlink:href="#DejaVuSans-Bold-67" transform="translate(269.140625 0)"/>
      <use xlink:href="#DejaVuSans-Bold-65" transform="translate(340.722656 0)"/>
      <use xlink:href="#DejaVuSans-Bold-20" transform="translate(408.544922 0)"/>
      <use xlink:href="#DejaVuSans-Bold-5b" transform="translate(443.359375 0)"/>
      <use xlink:href="#DejaVuSans-Bold-6d" transform="translate(489.0625 0)"/>
      <use xlink:href="#DejaVuSans-Bold-6d" transform="translate(593.261719 0)"/>
      <use xlink:href="#DejaVuSans-Bold-48" transform="translate(697.460938 0)"/>
      <use xlink:href="#DejaVuSans-Bold-67" transform="translate(781.152344 0)"/>
      <use xlink:href="#DejaVuSans-Bold-5d" transform="translate(852.734375 0)"/>
     </g>
    </g>
   </g>
   <g id="LineCollection_1">
    <path clip-path="url(#pdb74d5b27a)" style="fill: none; stroke: #000000"/>
    <path clip-path="url(#pdb74d5b27a)" style="fill: none; stroke: #000000"/>
    <path clip-path="url(#pdb74d5b27a)" style="fill: none; stroke: #000000"/>
    <path clip-path="url(#pdb74d5b27a)" style="fill: none; stroke: #000000"/>
    <path clip-path="url(#pdb74d5b27a)" style="fill: none; stroke: #000000"/>
    <path clip-path="url(#pdb74d5b27a)" style="fill: none; stroke: #000000"/>
    <path clip-path="url(#pdb74d5b27a)" style="fill: none; stroke: #000000"/>
    <path clip-path="url(#pdb74d5b27a)" style="fill: none; stroke: #000000"/>
    <path d="M 618.156586 349.884 
L 618.156586 147.155749 
" clip-path="url(#pdb74d5b27a)" style="fill: none; stroke: #000000"/>
    <path clip-path="url(#pdb74d5b27a)" style="fill: none; stroke: #000000"/>
    <path clip-path="url(#pdb74d5b27a)" style="fill: none; stroke: #000000"/>
    <path clip-path="url(#pdb74d5b27a)" style="fill: none; stroke: #000000"/>
    <path d="M 631.742673 304.444909 
L 631.742673 189.099525 
" clip-path="url(#pdb74d5b27a)" style="fill: none; stroke: #000000"/>
    <path clip-path="url(#pdb74d5b27a)" style="fill: none; stroke: #000000"/>
    <path d="M 645.32876 289.589822 
L 645.32876 160.263179 
" clip-path="url(#pdb74d5b27a)" style="fill: none; stroke: #000000"/>
    <path clip-path="url(#pdb74d5b27a)" style="fill: none; stroke: #000000"/>
    <path clip-path="url(#pdb74d5b27a)" style="fill: none; stroke: #000000"/>
    <path clip-path="url(#pdb74d5b27a)" style="fill: none; stroke: #000000"/>
    <path clip-path="url(#pdb74d5b27a)" style="fill: none; stroke: #000000"/>
    <path clip-path="url(#pdb74d5b27a)" style="fill: none; stroke: #000000"/>
    <path clip-path="url(#pdb74d5b27a)" style="fill: none; stroke: #000000"/>
    <path clip-path="url(#pdb74d5b27a)" style="fill: none; stroke: #000000"/>
    <path clip-path="url(#pdb74d5b27a)" style="fill: none; stroke: #000000"/>
    <path clip-path="url(#pdb74d5b27a)" style="fill: none; stroke: #000000"/>
    <path clip-path="url(#pdb74d5b27a)" style="fill: none; stroke: #000000"/>
    <path clip-path="url(#pdb74d5b27a)" style="fill: none; stroke: #000000"/>
    <path clip-path="url(#pdb74d5b27a)" style="fill: none; stroke: #000000"/>
    <path clip-path="url(#pdb74d5b27a)" style="fill: none; stroke: #000000"/>
   </g>
   <g id="line2d_33">
    <path d="M 604.570499 132.846805 
L 606.114372 134.922148 
L 607.040696 155.894036 
L 608.275795 167.253808 
L 609.510894 178.613581 
L 611.981092 181.235067 
L 613.83374 211.81907 
L 616.303937 229.295644 
L 618.156586 248.519875 
L 621.553107 257.258161 
L 624.949629 259.879647 
L 628.346151 239.781588 
L 631.742673 246.772217 
L 638.535716 224.052672 
L 645.32876 224.9265 
L 652.121803 220.557357 
L 658.914846 229.295644 
L 665.70789 228.421815 
L 672.500933 228.421815 
L 679.293977 201.333126 
L 686.08702 184.730382 
L 692.880064 198.71164 
L 699.673107 176.865924 
L 706.466151 166.37998 
L 713.259194 155.020207 
L 726.845281 151.524892 
L 740.431368 176.865924 
L 930.636586 187.351868 
" clip-path="url(#pdb74d5b27a)" style="fill: none; stroke-dasharray: 3.7,1.6; stroke-dashoffset: 0; stroke: #000000"/>
    <g clip-path="url(#pdb74d5b27a)">
     <use xlink:href="#m1f5edc1f0c" x="604.570499" y="132.846805" style="stroke: #000000; stroke-linejoin: miter"/>
     <use xlink:href="#m1f5edc1f0c" x="606.114372" y="134.922148" style="stroke: #000000; stroke-linejoin: miter"/>
     <use xlink:href="#m1f5edc1f0c" x="607.040696" y="155.894036" style="stroke: #000000; stroke-linejoin: miter"/>
     <use xlink:href="#m1f5edc1f0c" x="608.275795" y="167.253808" style="stroke: #000000; stroke-linejoin: miter"/>
     <use xlink:href="#m1f5edc1f0c" x="609.510894" y="178.613581" style="stroke: #000000; stroke-linejoin: miter"/>
     <use xlink:href="#m1f5edc1f0c" x="611.981092" y="181.235067" style="stroke: #000000; stroke-linejoin: miter"/>
     <use xlink:href="#m1f5edc1f0c" x="613.83374" y="211.81907" style="stroke: #000000; stroke-linejoin: miter"/>
     <use xlink:href="#m1f5edc1f0c" x="616.303937" y="229.295644" style="stroke: #000000; stroke-linejoin: miter"/>
     <use xlink:href="#m1f5edc1f0c" x="618.156586" y="248.519875" style="stroke: #000000; stroke-linejoin: miter"/>
     <use xlink:href="#m1f5edc1f0c" x="621.553107" y="257.258161" style="stroke: #000000; stroke-linejoin: miter"/>
     <use xlink:href="#m1f5edc1f0c" x="624.949629" y="259.879647" style="stroke: #000000; stroke-linejoin: miter"/>
     <use xlink:href="#m1f5edc1f0c" x="628.346151" y="239.781588" style="stroke: #000000; stroke-linejoin: miter"/>
     <use xlink:href="#m1f5edc1f0c" x="631.742673" y="246.772217" style="stroke: #000000; stroke-linejoin: miter"/>
     <use xlink:href="#m1f5edc1f0c" x="638.535716" y="224.052672" style="stroke: #000000; stroke-linejoin: miter"/>
     <use xlink:href="#m1f5edc1f0c" x="645.32876" y="224.9265" style="stroke: #000000; stroke-linejoin: miter"/>
     <use xlink:href="#m1f5edc1f0c" x="652.121803" y="220.557357" style="stroke: #000000; stroke-linejoin: miter"/>
     <use xlink:href="#m1f5edc1f0c" x="658.914846" y="229.295644" style="stroke: #000000; stroke-linejoin: miter"/>
     <use xlink:href="#m1f5edc1f0c" x="665.70789" y="228.421815" style="stroke: #000000; stroke-linejoin: miter"/>
     <use xlink:href="#m1f5edc1f0c" x="672.500933" y="228.421815" style="stroke: #000000; stroke-linejoin: miter"/>
     <use xlink:href="#m1f5edc1f0c" x="679.293977" y="201.333126" style="stroke: #000000; stroke-linejoin: miter"/>
     <use xlink:href="#m1f5edc1f0c" x="686.08702" y="184.730382" style="stroke: #000000; stroke-linejoin: miter"/>
     <use xlink:href="#m1f5edc1f0c" x="692.880064" y="198.71164" style="stroke: #000000; stroke-linejoin: miter"/>
     <use xlink:href="#m1f5edc1f0c" x="699.673107" y="176.865924" style="stroke: #000000; stroke-linejoin: miter"/>
     <use xlink:href="#m1f5edc1f0c" x="706.466151" y="166.37998" style="stroke: #000000; stroke-linejoin: miter"/>
     <use xlink:href="#m1f5edc1f0c" x="713.259194" y="155.020207" style="stroke: #000000; stroke-linejoin: miter"/>
     <use xlink:href="#m1f5edc1f0c" x="726.845281" y="151.524892" style="stroke: #000000; stroke-linejoin: miter"/>
     <use xlink:href="#m1f5edc1f0c" x="740.431368" y="176.865924" style="stroke: #000000; stroke-linejoin: miter"/>
     <use xlink:href="#m1f5edc1f0c" x="930.636586" y="187.351868" style="stroke: #000000; stroke-linejoin: miter"/>
    </g>
   </g>
   <g id="line2d_34">
    <path d="M 604.570499 132.846805 
L 605.419629 138.474789 
L 607.96702 174.965457 
L 609.665281 195.123749 
L 611.363542 210.917494 
L 612.212673 217.239788 
L 613.061803 222.554692 
L 613.910933 226.894134 
L 614.760064 230.289512 
L 615.609194 232.771965 
L 616.458325 234.372982 
L 617.307455 235.125124 
L 618.156586 235.062733 
L 619.005716 234.222507 
L 619.854846 232.643888 
L 620.703977 230.369225 
L 621.553107 227.443722 
L 622.402238 223.915194 
L 624.100499 215.251005 
L 625.79876 204.794963 
L 627.49702 192.976831 
L 630.044412 173.622679 
L 635.988325 127.564295 
L 638.535716 109.991044 
L 640.233977 99.574328 
L 641.932238 90.367949 
L 643.630499 82.465492 
L 645.32876 75.915966 
L 647.02702 70.727605 
L 647.876151 68.636436 
L 648.725281 66.872603 
L 649.574412 65.427881 
L 650.423542 64.292485 
L 651.272673 63.455253 
L 652.121803 62.903823 
L 652.970933 62.624814 
L 653.820064 62.604 
L 654.669194 62.826471 
L 655.518325 63.276798 
L 656.367455 63.93918 
L 657.216586 64.797588 
L 658.914846 67.037994 
L 660.613107 69.869941 
L 662.311368 73.169036 
L 664.85876 78.737749 
L 669.104412 88.812819 
L 673.350064 98.760135 
L 675.897455 104.27814 
L 678.444846 109.301594 
L 680.992238 113.759275 
L 683.539629 117.621013 
L 685.23789 119.864856 
L 686.936151 121.852277 
L 688.634412 123.594868 
L 690.332673 125.107309 
L 692.030933 126.40649 
L 693.729194 127.510723 
L 696.276586 128.843235 
L 698.823977 129.844238 
L 701.371368 130.575188 
L 703.91876 131.092268 
L 707.315281 131.53338 
L 711.560933 131.81736 
L 717.504846 131.950181 
L 779.491368 132.294637 
L 849.120064 132.393382 
L 944.222673 132.44429 
L 944.222673 132.44429 
" clip-path="url(#pdb74d5b27a)" style="fill: none; stroke: #000000; stroke-width: 2; stroke-linecap: square"/>
   </g>
   <g id="patch_9">
    <path d="M 587.58789 364.248 
L 587.58789 48.24 
" style="fill: none; stroke: #000000; stroke-width: 0.8; stroke-linejoin: miter; stroke-linecap: square"/>
   </g>
   <g id="patch_10">
    <path d="M 961.205281 364.248 
L 961.205281 48.24 
" style="fill: none; stroke: #000000; stroke-width: 0.8; stroke-linejoin: miter; stroke-linecap: square"/>
   </g>
   <g id="patch_11">
    <path d="M 587.58789 364.248 
L 961.205281 364.248 
" style="fill: none; stroke: #000000; stroke-width: 0.8; stroke-linejoin: miter; stroke-linecap: square"/>
   </g>
   <g id="patch_12">
    <path d="M 587.58789 48.24 
L 961.205281 48.24 
" style="fill: none; stroke: #000000; stroke-width: 0.8; stroke-linejoin: miter; stroke-linecap: square"/>
   </g>
   <g id="legend_2">
    <g id="patch_13">
     <path d="M 757.694344 85.59625 
L 954.205281 85.59625 
Q 956.205281 85.59625 956.205281 83.59625 
L 956.205281 55.24 
Q 956.205281 53.24 954.205281 53.24 
L 757.694344 53.24 
Q 755.694344 53.24 755.694344 55.24 
L 755.694344 83.59625 
Q 755.694344 85.59625 757.694344 85.59625 
z
" style="fill: #ffffff; opacity: 0.8; stroke: #cccccc; stroke-linejoin: miter"/>
    </g>
    <g id="LineCollection_2">
     <path d="M 769.694344 66.338437 
L 769.694344 56.338437 
" style="fill: none; stroke: #000000"/>
    </g>
    <g id="line2d_35">
     <path d="M 759.694344 61.338437 
L 779.694344 61.338437 
" style="fill: none; stroke-dasharray: 3.7,1.6; stroke-dashoffset: 0; stroke: #000000"/>
    </g>
    <g id="line2d_36">
     <g>
      <use xlink:href="#m1f5edc1f0c" x="769.694344" y="61.338437" style="stroke: #000000; stroke-linejoin: miter"/>
     </g>
    </g>
    <g id="text_33">
     <!-- CHF exp: 6.25mg PO±SD (n=12) -->
     <g transform="translate(787.694344 64.838437) scale(0.1 -0.1)">
      <defs>
       <path id="DejaVuSans-b1" d="M 2944 4013 
L 2944 2803 
L 4684 2803 
L 4684 2272 
L 2944 2272 
L 2944 1063 
L 2419 1063 
L 2419 2272 
L 678 2272 
L 678 2803 
L 2419 2803 
L 2419 4013 
L 2944 4013 
z
M 678 531 
L 4684 531 
L 4684 0 
L 678 0 
L 678 531 
z
" transform="scale(0.015625)"/>
       <path id="DejaVuSans-53" d="M 3425 4513 
L 3425 3897 
Q 3066 4069 2747 4153 
Q 2428 4238 2131 4238 
Q 1616 4238 1336 4038 
Q 1056 3838 1056 3469 
Q 1056 3159 1242 3001 
Q 1428 2844 1947 2747 
L 2328 2669 
Q 3034 2534 3370 2195 
Q 3706 1856 3706 1288 
Q 3706 609 3251 259 
Q 2797 -91 1919 -91 
Q 1588 -91 1214 -16 
Q 841 59 441 206 
L 441 856 
Q 825 641 1194 531 
Q 1563 422 1919 422 
Q 2459 422 2753 634 
Q 3047 847 3047 1241 
Q 3047 1584 2836 1778 
Q 2625 1972 2144 2069 
L 1759 2144 
Q 1053 2284 737 2584 
Q 422 2884 422 3419 
Q 422 4038 858 4394 
Q 1294 4750 2059 4750 
Q 2388 4750 2728 4690 
Q 3069 4631 3425 4513 
z
" transform="scale(0.015625)"/>
       <path id="DejaVuSans-44" d="M 1259 4147 
L 1259 519 
L 2022 519 
Q 2988 519 3436 956 
Q 3884 1394 3884 2338 
Q 3884 3275 3436 3711 
Q 2988 4147 2022 4147 
L 1259 4147 
z
M 628 4666 
L 1925 4666 
Q 3281 4666 3915 4102 
Q 4550 3538 4550 2338 
Q 4550 1131 3912 565 
Q 3275 0 1925 0 
L 628 0 
L 628 4666 
z
" transform="scale(0.015625)"/>
      </defs>
      <use xlink:href="#DejaVuSans-43"/>
      <use xlink:href="#DejaVuSans-48" transform="translate(69.824219 0)"/>
      <use xlink:href="#DejaVuSans-46" transform="translate(145.019531 0)"/>
      <use xlink:href="#DejaVuSans-20" transform="translate(202.539062 0)"/>
      <use xlink:href="#DejaVuSans-65" transform="translate(234.326172 0)"/>
      <use xlink:href="#DejaVuSans-78" transform="translate(294.099609 0)"/>
      <use xlink:href="#DejaVuSans-70" transform="translate(353.279297 0)"/>
      <use xlink:href="#DejaVuSans-3a" transform="translate(416.755859 0)"/>
      <use xlink:href="#DejaVuSans-20" transform="translate(450.447266 0)"/>
      <use xlink:href="#DejaVuSans-36" transform="translate(482.234375 0)"/>
      <use xlink:href="#DejaVuSans-2e" transform="translate(545.857422 0)"/>
      <use xlink:href="#DejaVuSans-32" transform="translate(577.644531 0)"/>
      <use xlink:href="#DejaVuSans-35" transform="translate(641.267578 0)"/>
      <use xlink:href="#DejaVuSans-6d" transform="translate(704.890625 0)"/>
      <use xlink:href="#DejaVuSans-67" transform="translate(802.302734 0)"/>
      <use xlink:href="#DejaVuSans-20" transform="translate(865.779297 0)"/>
      <use xlink:href="#DejaVuSans-50" transform="translate(897.566406 0)"/>
      <use xlink:href="#DejaVuSans-4f" transform="translate(957.869141 0)"/>
      <use xlink:href="#DejaVuSans-b1" transform="translate(1036.580078 0)"/>
      <use xlink:href="#DejaVuSans-53" transform="translate(1120.369141 0)"/>
      <use xlink:href="#DejaVuSans-44" transform="translate(1183.845703 0)"/>
      <use xlink:href="#DejaVuSans-20" transform="translate(1260.847656 0)"/>
      <use xlink:href="#DejaVuSans-28" transform="translate(1292.634766 0)"/>
      <use xlink:href="#DejaVuSans-6e" transform="translate(1331.648438 0)"/>
      <use xlink:href="#DejaVuSans-3d" transform="translate(1395.027344 0)"/>
      <use xlink:href="#DejaVuSans-31" transform="translate(1478.816406 0)"/>
      <use xlink:href="#DejaVuSans-32" transform="translate(1542.439453 0)"/>
      <use xlink:href="#DejaVuSans-29" transform="translate(1606.0625 0)"/>
     </g>
    </g>
    <g id="line2d_37">
     <path d="M 759.694344 76.016562 
L 779.694344 76.016562 
" style="fill: none; stroke: #000000; stroke-width: 2; stroke-linecap: square"/>
    </g>
    <g id="line2d_38"/>
    <g id="text_34">
     <!-- CHF sim: 6.25mg PO -->
     <g transform="translate(787.694344 79.516562) scale(0.1 -0.1)">
      <use xlink:href="#DejaVuSans-43"/>
      <use xlink:href="#DejaVuSans-48" transform="translate(69.824219 0)"/>
      <use xlink:href="#DejaVuSans-46" transform="translate(145.019531 0)"/>
      <use xlink:href="#DejaVuSans-20" transform="translate(202.539062 0)"/>
      <use xlink:href="#DejaVuSans-73" transform="translate(234.326172 0)"/>
      <use xlink:href="#DejaVuSans-69" transform="translate(286.425781 0)"/>
      <use xlink:href="#DejaVuSans-6d" transform="translate(314.208984 0)"/>
      <use xlink:href="#DejaVuSans-3a" transform="translate(411.621094 0)"/>
      <use xlink:href="#DejaVuSans-20" transform="translate(445.3125 0)"/>
      <use xlink:href="#DejaVuSans-36" transform="translate(477.099609 0)"/>
      <use xlink:href="#DejaVuSans-2e" transform="translate(540.722656 0)"/>
      <use xlink:href="#DejaVuSans-32" transform="translate(572.509766 0)"/>
      <use xlink:href="#DejaVuSans-35" transform="translate(636.132812 0)"/>
      <use xlink:href="#DejaVuSans-6d" transform="translate(699.755859 0)"/>
      <use xlink:href="#DejaVuSans-67" transform="translate(797.167969 0)"/>
      <use xlink:href="#DejaVuSans-20" transform="translate(860.644531 0)"/>
      <use xlink:href="#DejaVuSans-50" transform="translate(892.431641 0)"/>
      <use xlink:href="#DejaVuSans-4f" transform="translate(952.734375 0)"/>
     </g>
    </g>
   </g>
  </g>
  <g id="text_35">
   <!-- MacFadyen1991 -->
   <g transform="translate(403.898172 26.196094) scale(0.25 -0.25)">
    <defs>
     <path id="DejaVuSans-Bold-46" d="M 588 4666 
L 3834 4666 
L 3834 3756 
L 1791 3756 
L 1791 2888 
L 3713 2888 
L 3713 1978 
L 1791 1978 
L 1791 0 
L 588 0 
L 588 4666 
z
" transform="scale(0.015625)"/>
     <path id="DejaVuSans-Bold-64" d="M 2919 2988 
L 2919 4863 
L 4044 4863 
L 4044 0 
L 2919 0 
L 2919 506 
Q 2688 197 2409 53 
Q 2131 -91 1766 -91 
Q 1119 -91 703 423 
Q 288 938 288 1747 
Q 288 2556 703 3070 
Q 1119 3584 1766 3584 
Q 2128 3584 2408 3439 
Q 2688 3294 2919 2988 
z
M 2181 722 
Q 2541 722 2730 984 
Q 2919 1247 2919 1747 
Q 2919 2247 2730 2509 
Q 2541 2772 2181 2772 
Q 1825 2772 1636 2509 
Q 1447 2247 1447 1747 
Q 1447 1247 1636 984 
Q 1825 722 2181 722 
z
" transform="scale(0.015625)"/>
     <path id="DejaVuSans-Bold-79" d="M 78 3500 
L 1197 3500 
L 2138 1125 
L 2938 3500 
L 4056 3500 
L 2584 -331 
Q 2363 -916 2067 -1148 
Q 1772 -1381 1288 -1381 
L 641 -1381 
L 641 -647 
L 991 -647 
Q 1275 -647 1404 -556 
Q 1534 -466 1606 -231 
L 1638 -134 
L 78 3500 
z
" transform="scale(0.015625)"/>
     <path id="DejaVuSans-Bold-31" d="M 750 831 
L 1813 831 
L 1813 3847 
L 722 3622 
L 722 4441 
L 1806 4666 
L 2950 4666 
L 2950 831 
L 4013 831 
L 4013 0 
L 750 0 
L 750 831 
z
" transform="scale(0.015625)"/>
     <path id="DejaVuSans-Bold-39" d="M 641 103 
L 641 966 
Q 928 831 1190 764 
Q 1453 697 1709 697 
Q 2247 697 2547 995 
Q 2847 1294 2900 1881 
Q 2688 1725 2447 1647 
Q 2206 1569 1925 1569 
Q 1209 1569 770 1986 
Q 331 2403 331 3084 
Q 331 3838 820 4291 
Q 1309 4744 2131 4744 
Q 3044 4744 3544 4128 
Q 4044 3513 4044 2388 
Q 4044 1231 3459 570 
Q 2875 -91 1856 -91 
Q 1528 -91 1228 -42 
Q 928 6 641 103 
z
M 2125 2350 
Q 2441 2350 2600 2554 
Q 2759 2759 2759 3169 
Q 2759 3575 2600 3781 
Q 2441 3988 2125 3988 
Q 1809 3988 1650 3781 
Q 1491 3575 1491 3169 
Q 1491 2759 1650 2554 
Q 1809 2350 2125 2350 
z
" transform="scale(0.015625)"/>
    </defs>
    <use xlink:href="#DejaVuSans-Bold-4d"/>
    <use xlink:href="#DejaVuSans-Bold-61" transform="translate(99.511719 0)"/>
    <use xlink:href="#DejaVuSans-Bold-63" transform="translate(166.992188 0)"/>
    <use xlink:href="#DejaVuSans-Bold-46" transform="translate(226.269531 0)"/>
    <use xlink:href="#DejaVuSans-Bold-61" transform="translate(288.705078 0)"/>
    <use xlink:href="#DejaVuSans-Bold-64" transform="translate(356.185547 0)"/>
    <use xlink:href="#DejaVuSans-Bold-79" transform="translate(427.767578 0)"/>
    <use xlink:href="#DejaVuSans-Bold-65" transform="translate(492.953125 0)"/>
    <use xlink:href="#DejaVuSans-Bold-6e" transform="translate(560.775391 0)"/>
    <use xlink:href="#DejaVuSans-Bold-31" transform="translate(631.966797 0)"/>
    <use xlink:href="#DejaVuSans-Bold-39" transform="translate(701.546875 0)"/>
    <use xlink:href="#DejaVuSans-Bold-39" transform="translate(771.126953 0)"/>
    <use xlink:href="#DejaVuSans-Bold-31" transform="translate(840.707031 0)"/>
   </g>
  </g>
 </g>
 <defs>
  <clipPath id="pdf35cd6c3c">
   <rect x="101.885281" y="48.24" width="373.617391" height="316.008"/>
  </clipPath>
  <clipPath id="pdb74d5b27a">
   <rect x="587.58789" y="48.24" width="373.617391" height="316.008"/>
  </clipPath>
 </defs>
</svg>
