<?xml version="1.0" encoding="utf-8" standalone="no"?>
<!DOCTYPE svg PUBLIC "-//W3C//DTD SVG 1.1//EN"
  "http://www.w3.org/Graphics/SVG/1.1/DTD/svg11.dtd">
<svg xmlns:xlink="http://www.w3.org/1999/xlink" width="491.568125pt" height="414.385812pt" viewBox="0 0 491.568125 414.385812" xmlns="http://www.w3.org/2000/svg" version="1.1">
 <metadata>
  <rdf:RDF xmlns:dc="http://purl.org/dc/elements/1.1/" xmlns:cc="http://creativecommons.org/ns#" xmlns:rdf="http://www.w3.org/1999/02/22-rdf-syntax-ns#">
   <cc:Work>
    <dc:type rdf:resource="http://purl.org/dc/dcmitype/StillImage"/>
    <dc:date>2025-09-10T13:16:40.993407</dc:date>
    <dc:format>image/svg+xml</dc:format>
    <dc:creator>
     <cc:Agent>
      <dc:title>Matplotlib v3.10.6, https://matplotlib.org/</dc:title>
     </cc:Agent>
    </dc:creator>
   </cc:Work>
  </rdf:RDF>
 </metadata>
 <defs>
  <style type="text/css">*{stroke-linejoin: round; stroke-linecap: butt}</style>
 </defs>
 <g id="figure_1">
  <g id="patch_1">
   <path d="M 0 414.385812 
L 491.568125 414.385812 
L 491.568125 -0 
L 0 -0 
z
" style="fill: #ffffff"/>
  </g>
  <g id="axes_1">
   <g id="patch_2">
    <path d="M 54.708125 364.248 
L 484.368125 364.248 
L 484.368125 48.24 
L 54.708125 48.24 
z
" style="fill: #ffffff"/>
   </g>
   <g id="matplotlib.axis_1">
    <g id="xtick_1">
     <g id="line2d_1">
      <defs>
       <path id="mfc6ae5d490" d="M 0 0 
L 0 3.5 
" style="stroke: #000000; stroke-width: 0.8"/>
      </defs>
      <g>
       <use xlink:href="#mfc6ae5d490" x="74.238125" y="364.248" style="stroke: #000000; stroke-width: 0.8"/>
      </g>
     </g>
     <g id="text_1">
      <!-- 0 -->
      <g transform="translate(69.46625 382.645656) scale(0.15 -0.15)">
       <defs>
        <path id="DejaVuSans-30" d="M 2034 4250 
Q 1547 4250 1301 3770 
Q 1056 3291 1056 2328 
Q 1056 1369 1301 889 
Q 1547 409 2034 409 
Q 2525 409 2770 889 
Q 3016 1369 3016 2328 
Q 3016 3291 2770 3770 
Q 2525 4250 2034 4250 
z
M 2034 4750 
Q 2819 4750 3233 4129 
Q 3647 3509 3647 2328 
Q 3647 1150 3233 529 
Q 2819 -91 2034 -91 
Q 1250 -91 836 529 
Q 422 1150 422 2328 
Q 422 3509 836 4129 
Q 1250 4750 2034 4750 
z
" transform="scale(0.015625)"/>
       </defs>
       <use xlink:href="#DejaVuSans-30"/>
      </g>
     </g>
    </g>
    <g id="xtick_2">
     <g id="line2d_2">
      <g>
       <use xlink:href="#mfc6ae5d490" x="161.038125" y="364.248" style="stroke: #000000; stroke-width: 0.8"/>
      </g>
     </g>
     <g id="text_2">
      <!-- 2 -->
      <g transform="translate(156.26625 382.645656) scale(0.15 -0.15)">
       <defs>
        <path id="DejaVuSans-32" d="M 1228 531 
L 3431 531 
L 3431 0 
L 469 0 
L 469 531 
Q 828 903 1448 1529 
Q 2069 2156 2228 2338 
Q 2531 2678 2651 2914 
Q 2772 3150 2772 3378 
Q 2772 3750 2511 3984 
Q 2250 4219 1831 4219 
Q 1534 4219 1204 4116 
Q 875 4013 500 3803 
L 500 4441 
Q 881 4594 1212 4672 
Q 1544 4750 1819 4750 
Q 2544 4750 2975 4387 
Q 3406 4025 3406 3419 
Q 3406 3131 3298 2873 
Q 3191 2616 2906 2266 
Q 2828 2175 2409 1742 
Q 1991 1309 1228 531 
z
" transform="scale(0.015625)"/>
       </defs>
       <use xlink:href="#DejaVuSans-32"/>
      </g>
     </g>
    </g>
    <g id="xtick_3">
     <g id="line2d_3">
      <g>
       <use xlink:href="#mfc6ae5d490" x="247.838125" y="364.248" style="stroke: #000000; stroke-width: 0.8"/>
      </g>
     </g>
     <g id="text_3">
      <!-- 4 -->
      <g transform="translate(243.06625 382.645656) scale(0.15 -0.15)">
       <defs>
        <path id="DejaVuSans-34" d="M 2419 4116 
L 825 1625 
L 2419 1625 
L 2419 4116 
z
M 2253 4666 
L 3047 4666 
L 3047 1625 
L 3713 1625 
L 3713 1100 
L 3047 1100 
L 3047 0 
L 2419 0 
L 2419 1100 
L 313 1100 
L 313 1709 
L 2253 4666 
z
" transform="scale(0.015625)"/>
       </defs>
       <use xlink:href="#DejaVuSans-34"/>
      </g>
     </g>
    </g>
    <g id="xtick_4">
     <g id="line2d_4">
      <g>
       <use xlink:href="#mfc6ae5d490" x="334.638125" y="364.248" style="stroke: #000000; stroke-width: 0.8"/>
      </g>
     </g>
     <g id="text_4">
      <!-- 6 -->
      <g transform="translate(329.86625 382.645656) scale(0.15 -0.15)">
       <defs>
        <path id="DejaVuSans-36" d="M 2113 2584 
Q 1688 2584 1439 2293 
Q 1191 2003 1191 1497 
Q 1191 994 1439 701 
Q 1688 409 2113 409 
Q 2538 409 2786 701 
Q 3034 994 3034 1497 
Q 3034 2003 2786 2293 
Q 2538 2584 2113 2584 
z
M 3366 4563 
L 3366 3988 
Q 3128 4100 2886 4159 
Q 2644 4219 2406 4219 
Q 1781 4219 1451 3797 
Q 1122 3375 1075 2522 
Q 1259 2794 1537 2939 
Q 1816 3084 2150 3084 
Q 2853 3084 3261 2657 
Q 3669 2231 3669 1497 
Q 3669 778 3244 343 
Q 2819 -91 2113 -91 
Q 1303 -91 875 529 
Q 447 1150 447 2328 
Q 447 3434 972 4092 
Q 1497 4750 2381 4750 
Q 2619 4750 2861 4703 
Q 3103 4656 3366 4563 
z
" transform="scale(0.015625)"/>
       </defs>
       <use xlink:href="#DejaVuSans-36"/>
      </g>
     </g>
    </g>
    <g id="xtick_5">
     <g id="line2d_5">
      <g>
       <use xlink:href="#mfc6ae5d490" x="421.438125" y="364.248" style="stroke: #000000; stroke-width: 0.8"/>
      </g>
     </g>
     <g id="text_5">
      <!-- 8 -->
      <g transform="translate(416.66625 382.645656) scale(0.15 -0.15)">
       <defs>
        <path id="DejaVuSans-38" d="M 2034 2216 
Q 1584 2216 1326 1975 
Q 1069 1734 1069 1313 
Q 1069 891 1326 650 
Q 1584 409 2034 409 
Q 2484 409 2743 651 
Q 3003 894 3003 1313 
Q 3003 1734 2745 1975 
Q 2488 2216 2034 2216 
z
M 1403 2484 
Q 997 2584 770 2862 
Q 544 3141 544 3541 
Q 544 4100 942 4425 
Q 1341 4750 2034 4750 
Q 2731 4750 3128 4425 
Q 3525 4100 3525 3541 
Q 3525 3141 3298 2862 
Q 3072 2584 2669 2484 
Q 3125 2378 3379 2068 
Q 3634 1759 3634 1313 
Q 3634 634 3220 271 
Q 2806 -91 2034 -91 
Q 1263 -91 848 271 
Q 434 634 434 1313 
Q 434 1759 690 2068 
Q 947 2378 1403 2484 
z
M 1172 3481 
Q 1172 3119 1398 2916 
Q 1625 2713 2034 2713 
Q 2441 2713 2670 2916 
Q 2900 3119 2900 3481 
Q 2900 3844 2670 4047 
Q 2441 4250 2034 4250 
Q 1625 4250 1398 4047 
Q 1172 3844 1172 3481 
z
" transform="scale(0.015625)"/>
       </defs>
       <use xlink:href="#DejaVuSans-38"/>
      </g>
     </g>
    </g>
    <g id="text_6">
     <!-- time [hr] -->
     <g transform="translate(224.463594 403.442375) scale(0.18 -0.18)">
      <defs>
       <path id="DejaVuSans-Bold-74" d="M 1759 4494 
L 1759 3500 
L 2913 3500 
L 2913 2700 
L 1759 2700 
L 1759 1216 
Q 1759 972 1856 886 
Q 1953 800 2241 800 
L 2816 800 
L 2816 0 
L 1856 0 
Q 1194 0 917 276 
Q 641 553 641 1216 
L 641 2700 
L 84 2700 
L 84 3500 
L 641 3500 
L 641 4494 
L 1759 4494 
z
" transform="scale(0.015625)"/>
       <path id="DejaVuSans-Bold-69" d="M 538 3500 
L 1656 3500 
L 1656 0 
L 538 0 
L 538 3500 
z
M 538 4863 
L 1656 4863 
L 1656 3950 
L 538 3950 
L 538 4863 
z
" transform="scale(0.015625)"/>
       <path id="DejaVuSans-Bold-6d" d="M 3781 2919 
Q 3994 3244 4286 3414 
Q 4578 3584 4928 3584 
Q 5531 3584 5847 3212 
Q 6163 2841 6163 2131 
L 6163 0 
L 5038 0 
L 5038 1825 
Q 5041 1866 5042 1909 
Q 5044 1953 5044 2034 
Q 5044 2406 4934 2573 
Q 4825 2741 4581 2741 
Q 4263 2741 4089 2478 
Q 3916 2216 3909 1719 
L 3909 0 
L 2784 0 
L 2784 1825 
Q 2784 2406 2684 2573 
Q 2584 2741 2328 2741 
Q 2006 2741 1831 2477 
Q 1656 2213 1656 1722 
L 1656 0 
L 531 0 
L 531 3500 
L 1656 3500 
L 1656 2988 
Q 1863 3284 2130 3434 
Q 2397 3584 2719 3584 
Q 3081 3584 3359 3409 
Q 3638 3234 3781 2919 
z
" transform="scale(0.015625)"/>
       <path id="DejaVuSans-Bold-65" d="M 4031 1759 
L 4031 1441 
L 1416 1441 
Q 1456 1047 1700 850 
Q 1944 653 2381 653 
Q 2734 653 3104 758 
Q 3475 863 3866 1075 
L 3866 213 
Q 3469 63 3072 -14 
Q 2675 -91 2278 -91 
Q 1328 -91 801 392 
Q 275 875 275 1747 
Q 275 2603 792 3093 
Q 1309 3584 2216 3584 
Q 3041 3584 3536 3087 
Q 4031 2591 4031 1759 
z
M 2881 2131 
Q 2881 2450 2695 2645 
Q 2509 2841 2209 2841 
Q 1884 2841 1681 2658 
Q 1478 2475 1428 2131 
L 2881 2131 
z
" transform="scale(0.015625)"/>
       <path id="DejaVuSans-Bold-20" transform="scale(0.015625)"/>
       <path id="DejaVuSans-Bold-5b" d="M 550 4863 
L 2491 4863 
L 2491 4159 
L 1613 4159 
L 1613 -141 
L 2491 -141 
L 2491 -844 
L 550 -844 
L 550 4863 
z
" transform="scale(0.015625)"/>
       <path id="DejaVuSans-Bold-68" d="M 4056 2131 
L 4056 0 
L 2931 0 
L 2931 347 
L 2931 1625 
Q 2931 2084 2911 2256 
Q 2891 2428 2841 2509 
Q 2775 2619 2662 2680 
Q 2550 2741 2406 2741 
Q 2056 2741 1856 2470 
Q 1656 2200 1656 1722 
L 1656 0 
L 538 0 
L 538 4863 
L 1656 4863 
L 1656 2988 
Q 1909 3294 2193 3439 
Q 2478 3584 2822 3584 
Q 3428 3584 3742 3212 
Q 4056 2841 4056 2131 
z
" transform="scale(0.015625)"/>
       <path id="DejaVuSans-Bold-72" d="M 3138 2547 
Q 2991 2616 2845 2648 
Q 2700 2681 2553 2681 
Q 2122 2681 1889 2404 
Q 1656 2128 1656 1613 
L 1656 0 
L 538 0 
L 538 3500 
L 1656 3500 
L 1656 2925 
Q 1872 3269 2151 3426 
Q 2431 3584 2822 3584 
Q 2878 3584 2943 3579 
Q 3009 3575 3134 3559 
L 3138 2547 
z
" transform="scale(0.015625)"/>
       <path id="DejaVuSans-Bold-5d" d="M 2375 -844 
L 434 -844 
L 434 -141 
L 1313 -141 
L 1313 4159 
L 434 4159 
L 434 4863 
L 2375 4863 
L 2375 -844 
z
" transform="scale(0.015625)"/>
      </defs>
      <use xlink:href="#DejaVuSans-Bold-74"/>
      <use xlink:href="#DejaVuSans-Bold-69" transform="translate(47.802734 0)"/>
      <use xlink:href="#DejaVuSans-Bold-6d" transform="translate(82.080078 0)"/>
      <use xlink:href="#DejaVuSans-Bold-65" transform="translate(186.279297 0)"/>
      <use xlink:href="#DejaVuSans-Bold-20" transform="translate(254.101562 0)"/>
      <use xlink:href="#DejaVuSans-Bold-5b" transform="translate(288.916016 0)"/>
      <use xlink:href="#DejaVuSans-Bold-68" transform="translate(334.619141 0)"/>
      <use xlink:href="#DejaVuSans-Bold-72" transform="translate(405.810547 0)"/>
      <use xlink:href="#DejaVuSans-Bold-5d" transform="translate(455.126953 0)"/>
     </g>
    </g>
   </g>
   <g id="matplotlib.axis_2">
    <g id="ytick_1">
     <g id="line2d_6">
      <defs>
       <path id="mef6c9918b3" d="M 0 0 
L -3.5 0 
" style="stroke: #000000; stroke-width: 0.8"/>
      </defs>
      <g>
       <use xlink:href="#mef6c9918b3" x="54.708125" y="333.432306" style="stroke: #000000; stroke-width: 0.8"/>
      </g>
     </g>
     <g id="text_7">
      <!-- 0 -->
      <g transform="translate(38.164375 339.131134) scale(0.15 -0.15)">
       <use xlink:href="#DejaVuSans-30"/>
      </g>
     </g>
    </g>
    <g id="ytick_2">
     <g id="line2d_7">
      <g>
       <use xlink:href="#mef6c9918b3" x="54.708125" y="291.727894" style="stroke: #000000; stroke-width: 0.8"/>
      </g>
     </g>
     <g id="text_8">
      <!-- 2 -->
      <g transform="translate(38.164375 297.426722) scale(0.15 -0.15)">
       <use xlink:href="#DejaVuSans-32"/>
      </g>
     </g>
    </g>
    <g id="ytick_3">
     <g id="line2d_8">
      <g>
       <use xlink:href="#mef6c9918b3" x="54.708125" y="250.023482" style="stroke: #000000; stroke-width: 0.8"/>
      </g>
     </g>
     <g id="text_9">
      <!-- 4 -->
      <g transform="translate(38.164375 255.72231) scale(0.15 -0.15)">
       <use xlink:href="#DejaVuSans-34"/>
      </g>
     </g>
    </g>
    <g id="ytick_4">
     <g id="line2d_9">
      <g>
       <use xlink:href="#mef6c9918b3" x="54.708125" y="208.31907" style="stroke: #000000; stroke-width: 0.8"/>
      </g>
     </g>
     <g id="text_10">
      <!-- 6 -->
      <g transform="translate(38.164375 214.017898) scale(0.15 -0.15)">
       <use xlink:href="#DejaVuSans-36"/>
      </g>
     </g>
    </g>
    <g id="ytick_5">
     <g id="line2d_10">
      <g>
       <use xlink:href="#mef6c9918b3" x="54.708125" y="166.614658" style="stroke: #000000; stroke-width: 0.8"/>
      </g>
     </g>
     <g id="text_11">
      <!-- 8 -->
      <g transform="translate(38.164375 172.313486) scale(0.15 -0.15)">
       <use xlink:href="#DejaVuSans-38"/>
      </g>
     </g>
    </g>
    <g id="ytick_6">
     <g id="line2d_11">
      <g>
       <use xlink:href="#mef6c9918b3" x="54.708125" y="124.910245" style="stroke: #000000; stroke-width: 0.8"/>
      </g>
     </g>
     <g id="text_12">
      <!-- 10 -->
      <g transform="translate(28.620625 130.609074) scale(0.15 -0.15)">
       <defs>
        <path id="DejaVuSans-31" d="M 794 531 
L 1825 531 
L 1825 4091 
L 703 3866 
L 703 4441 
L 1819 4666 
L 2450 4666 
L 2450 531 
L 3481 531 
L 3481 0 
L 794 0 
L 794 531 
z
" transform="scale(0.015625)"/>
       </defs>
       <use xlink:href="#DejaVuSans-31"/>
       <use xlink:href="#DejaVuSans-30" transform="translate(63.623047 0)"/>
      </g>
     </g>
    </g>
    <g id="ytick_7">
     <g id="line2d_12">
      <g>
       <use xlink:href="#mef6c9918b3" x="54.708125" y="83.205833" style="stroke: #000000; stroke-width: 0.8"/>
      </g>
     </g>
     <g id="text_13">
      <!-- 12 -->
      <g transform="translate(28.620625 88.904661) scale(0.15 -0.15)">
       <use xlink:href="#DejaVuSans-31"/>
       <use xlink:href="#DejaVuSans-32" transform="translate(63.623047 0)"/>
      </g>
     </g>
    </g>
    <g id="text_14">
     <!-- renin [pM] -->
     <g transform="translate(20.877188 259.443844) rotate(-90) scale(0.18 -0.18)">
      <defs>
       <path id="DejaVuSans-Bold-6e" d="M 4056 2131 
L 4056 0 
L 2931 0 
L 2931 347 
L 2931 1631 
Q 2931 2084 2911 2256 
Q 2891 2428 2841 2509 
Q 2775 2619 2662 2680 
Q 2550 2741 2406 2741 
Q 2056 2741 1856 2470 
Q 1656 2200 1656 1722 
L 1656 0 
L 538 0 
L 538 3500 
L 1656 3500 
L 1656 2988 
Q 1909 3294 2193 3439 
Q 2478 3584 2822 3584 
Q 3428 3584 3742 3212 
Q 4056 2841 4056 2131 
z
" transform="scale(0.015625)"/>
       <path id="DejaVuSans-Bold-70" d="M 1656 506 
L 1656 -1331 
L 538 -1331 
L 538 3500 
L 1656 3500 
L 1656 2988 
Q 1888 3294 2169 3439 
Q 2450 3584 2816 3584 
Q 3463 3584 3878 3070 
Q 4294 2556 4294 1747 
Q 4294 938 3878 423 
Q 3463 -91 2816 -91 
Q 2450 -91 2169 54 
Q 1888 200 1656 506 
z
M 2400 2772 
Q 2041 2772 1848 2508 
Q 1656 2244 1656 1747 
Q 1656 1250 1848 986 
Q 2041 722 2400 722 
Q 2759 722 2948 984 
Q 3138 1247 3138 1747 
Q 3138 2247 2948 2509 
Q 2759 2772 2400 2772 
z
" transform="scale(0.015625)"/>
       <path id="DejaVuSans-Bold-4d" d="M 588 4666 
L 2119 4666 
L 3181 2169 
L 4250 4666 
L 5778 4666 
L 5778 0 
L 4641 0 
L 4641 3413 
L 3566 897 
L 2803 897 
L 1728 3413 
L 1728 0 
L 588 0 
L 588 4666 
z
" transform="scale(0.015625)"/>
      </defs>
      <use xlink:href="#DejaVuSans-Bold-72"/>
      <use xlink:href="#DejaVuSans-Bold-65" transform="translate(49.316406 0)"/>
      <use xlink:href="#DejaVuSans-Bold-6e" transform="translate(117.138672 0)"/>
      <use xlink:href="#DejaVuSans-Bold-69" transform="translate(188.330078 0)"/>
      <use xlink:href="#DejaVuSans-Bold-6e" transform="translate(222.607422 0)"/>
      <use xlink:href="#DejaVuSans-Bold-20" transform="translate(293.798828 0)"/>
      <use xlink:href="#DejaVuSans-Bold-5b" transform="translate(328.613281 0)"/>
      <use xlink:href="#DejaVuSans-Bold-70" transform="translate(374.316406 0)"/>
      <use xlink:href="#DejaVuSans-Bold-4d" transform="translate(445.898438 0)"/>
      <use xlink:href="#DejaVuSans-Bold-5d" transform="translate(545.410156 0)"/>
     </g>
    </g>
   </g>
   <g id="LineCollection_1">
    <path d="M 74.238125 333.933734 
L 74.238125 294.94457 
" clip-path="url(#p91f89630f7)" style="fill: none; stroke: #000000"/>
    <path d="M 117.638125 345.272788 
L 117.638125 152.763788 
" clip-path="url(#p91f89630f7)" style="fill: none; stroke: #000000"/>
    <path d="M 247.838125 349.884 
L 247.838125 198.800987 
" clip-path="url(#p91f89630f7)" style="fill: none; stroke: #000000"/>
    <path d="M 421.438125 331.796318 
L 421.438125 219.70247 
" clip-path="url(#p91f89630f7)" style="fill: none; stroke: #000000"/>
   </g>
   <g id="line2d_13">
    <path d="M 74.238125 314.439152 
L 75.214625 314.113094 
L 78.144125 312.307209 
L 81.073625 310.248522 
L 84.979625 307.194012 
L 88.885625 303.792364 
L 92.791625 300.052196 
L 96.697625 296.002825 
L 101.580125 290.60703 
L 110.368625 280.756617 
L 113.298125 277.769499 
L 116.227625 275.12091 
L 118.180625 273.603335 
L 120.133625 272.323574 
L 122.086625 271.310597 
L 124.039625 270.587131 
L 125.992625 270.168099 
L 127.945625 270.059547 
L 129.898625 270.258218 
L 131.851625 270.751818 
L 133.804625 271.519963 
L 135.757625 272.535655 
L 137.710625 273.767112 
L 140.640125 275.942837 
L 143.569625 278.406894 
L 148.452125 282.855989 
L 156.264125 290.005568 
L 161.146625 294.118887 
L 165.052625 297.120668 
L 168.958625 299.848333 
L 172.864625 302.305595 
L 176.770625 304.506702 
L 180.676625 306.471279 
L 184.582625 308.22101 
L 189.465125 310.139062 
L 194.347625 311.795213 
L 199.230125 313.225252 
L 205.089125 314.68647 
L 210.948125 315.912437 
L 217.783625 317.095124 
L 224.619125 318.05657 
L 232.431125 318.93291 
L 241.219625 319.68739 
L 250.984625 320.293941 
L 261.726125 320.735441 
L 273.444125 321.00165 
L 287.115125 321.086595 
L 302.739125 320.950139 
L 320.316125 320.569019 
L 341.799125 319.870206 
L 373.047125 318.604711 
L 417.966125 316.805264 
L 444.331625 315.987131 
L 464.838125 315.515248 
L 464.838125 315.515248 
" clip-path="url(#p91f89630f7)" style="fill: none; stroke: #000000; stroke-width: 2; stroke-linecap: square"/>
   </g>
   <g id="line2d_14">
    <path d="M 74.238125 331.321955 
L 78.144125 331.085073 
L 87.909125 330.23706 
L 97.674125 329.156345 
L 117.204125 326.865872 
L 123.063125 326.485555 
L 127.945625 326.390888 
L 132.828125 326.506841 
L 138.687125 326.879049 
L 147.475625 327.711917 
L 164.076125 329.317132 
L 174.817625 330.099496 
L 186.535625 330.720064 
L 200.206625 331.216156 
L 217.783625 331.617063 
L 240.243125 331.896956 
L 271.491125 332.047704 
L 315.433625 332.017075 
L 391.600625 331.698022 
L 464.838125 331.441522 
L 464.838125 331.441522 
" clip-path="url(#p91f89630f7)" style="fill: none; stroke: #338dff; stroke-width: 2; stroke-linecap: square"/>
   </g>
   <g id="line2d_15">
    <path d="M 74.238125 259.570041 
L 75.214625 258.302039 
L 77.167625 253.760128 
L 80.097125 246.030115 
L 83.026625 237.503158 
L 85.956125 228.21344 
L 88.885625 218.165867 
L 91.815125 207.376099 
L 94.744625 195.885599 
L 98.650625 179.61892 
L 104.509625 153.93726 
L 109.392125 132.665453 
L 112.321625 120.715326 
L 114.274625 113.362581 
L 116.227625 106.665765 
L 118.180625 100.764085 
L 120.133625 95.787238 
L 121.110125 93.681702 
L 122.086625 91.847883 
L 123.063125 90.29601 
L 124.039625 89.034404 
L 125.016125 88.069319 
L 125.992625 87.404834 
L 126.969125 87.042777 
L 127.945625 86.98269 
L 128.922125 87.221844 
L 129.898625 87.755296 
L 130.875125 88.575981 
L 131.851625 89.674852 
L 132.828125 91.041046 
L 133.804625 92.662083 
L 135.757625 96.611998 
L 137.710625 101.400994 
L 139.663625 106.894475 
L 141.616625 112.954175 
L 144.546125 122.811026 
L 149.428625 140.284125 
L 155.287625 161.188468 
L 159.193625 174.323924 
L 162.123125 183.563607 
L 165.052625 192.220381 
L 167.982125 200.27611 
L 170.911625 207.734644 
L 173.841125 214.614595 
L 176.770625 220.943845 
L 179.700125 226.755535 
L 182.629625 232.085219 
L 185.559125 236.968928 
L 188.488625 241.441888 
L 191.418125 245.537735 
L 194.347625 249.288055 
L 197.277125 252.722165 
L 200.206625 255.867047 
L 203.136125 258.747386 
L 206.065625 261.385667 
L 209.971625 264.561854 
L 213.877625 267.386974 
L 217.783625 269.898819 
L 221.689625 272.130438 
L 225.595625 274.11073 
L 229.501625 275.864982 
L 233.407625 277.415351 
L 238.290125 279.095991 
L 243.172625 280.521164 
L 248.055125 281.718962 
L 252.937625 282.713465 
L 258.796625 283.667494 
L 264.655625 284.38903 
L 270.514625 284.903911 
L 277.350125 285.272619 
L 284.185625 285.419652 
L 291.997625 285.348551 
L 299.809625 285.053246 
L 308.598125 284.487866 
L 318.363125 283.611351 
L 329.104625 282.395664 
L 340.822625 280.830468 
L 354.493625 278.775949 
L 375.976625 275.286006 
L 402.342125 271.045692 
L 417.966125 268.771587 
L 431.637125 267.009 
L 444.331625 265.589958 
L 457.026125 264.388344 
L 464.838125 263.754859 
L 464.838125 263.754859 
" clip-path="url(#p91f89630f7)" style="fill: none; stroke: #9333ff; stroke-width: 2; stroke-linecap: square"/>
   </g>
   <g id="line2d_16">
    <path d="M 74.238125 331.321955 
L 117.638125 331.321955 
L 247.838125 327.45298 
" clip-path="url(#p91f89630f7)" style="fill: none; stroke-dasharray: 3.7,1.6; stroke-dashoffset: 0; stroke: #338dff"/>
    <defs>
     <path id="me3a43cce47" d="M -3 3 
L 3 3 
L 3 -3 
L -3 -3 
z
" style="stroke: #000000; stroke-linejoin: miter"/>
    </defs>
    <g clip-path="url(#p91f89630f7)">
     <use xlink:href="#me3a43cce47" x="74.238125" y="331.321955" style="fill: #338dff; stroke: #000000; stroke-linejoin: miter"/>
     <use xlink:href="#me3a43cce47" x="117.638125" y="331.321955" style="fill: #338dff; stroke: #000000; stroke-linejoin: miter"/>
     <use xlink:href="#me3a43cce47" x="247.838125" y="327.45298" style="fill: #338dff; stroke: #000000; stroke-linejoin: miter"/>
    </g>
   </g>
   <g id="line2d_17">
    <path d="M 74.238125 259.570041 
L 117.638125 62.604 
L 247.838125 66.121251 
" clip-path="url(#p91f89630f7)" style="fill: none; stroke-dasharray: 3.7,1.6; stroke-dashoffset: 0; stroke: #9333ff"/>
    <defs>
     <path id="md26fbabe35" d="M -3 3 
L 3 3 
L 3 -3 
L -3 -3 
z
" style="stroke: #000000; stroke-linejoin: miter"/>
    </defs>
    <g clip-path="url(#p91f89630f7)">
     <use xlink:href="#md26fbabe35" x="74.238125" y="259.570041" style="fill: #9333ff; stroke: #000000; stroke-linejoin: miter"/>
     <use xlink:href="#md26fbabe35" x="117.638125" y="62.604" style="fill: #9333ff; stroke: #000000; stroke-linejoin: miter"/>
     <use xlink:href="#md26fbabe35" x="247.838125" y="66.121251" style="fill: #9333ff; stroke: #000000; stroke-linejoin: miter"/>
    </g>
   </g>
   <g id="line2d_18">
    <path d="M 74.238125 314.439152 
L 117.638125 249.018288 
L 247.838125 274.342494 
L 421.438125 275.749394 
" clip-path="url(#p91f89630f7)" style="fill: none; stroke-dasharray: 3.7,1.6; stroke-dashoffset: 0; stroke: #000000"/>
    <defs>
     <path id="m05990a9bac" d="M -3 3 
L 3 3 
L 3 -3 
L -3 -3 
z
" style="stroke: #000000; stroke-linejoin: miter"/>
    </defs>
    <g clip-path="url(#p91f89630f7)">
     <use xlink:href="#m05990a9bac" x="74.238125" y="314.439152" style="stroke: #000000; stroke-linejoin: miter"/>
     <use xlink:href="#m05990a9bac" x="117.638125" y="249.018288" style="stroke: #000000; stroke-linejoin: miter"/>
     <use xlink:href="#m05990a9bac" x="247.838125" y="274.342494" style="stroke: #000000; stroke-linejoin: miter"/>
     <use xlink:href="#m05990a9bac" x="421.438125" y="275.749394" style="stroke: #000000; stroke-linejoin: miter"/>
    </g>
   </g>
   <g id="patch_3">
    <path d="M 54.708125 364.248 
L 54.708125 48.24 
" style="fill: none; stroke: #000000; stroke-width: 0.8; stroke-linejoin: miter; stroke-linecap: square"/>
   </g>
   <g id="patch_4">
    <path d="M 484.368125 364.248 
L 484.368125 48.24 
" style="fill: none; stroke: #000000; stroke-width: 0.8; stroke-linejoin: miter; stroke-linecap: square"/>
   </g>
   <g id="patch_5">
    <path d="M 54.708125 364.248 
L 484.368125 364.248 
" style="fill: none; stroke: #000000; stroke-width: 0.8; stroke-linejoin: miter; stroke-linecap: square"/>
   </g>
   <g id="patch_6">
    <path d="M 54.708125 48.24 
L 484.368125 48.24 
" style="fill: none; stroke: #000000; stroke-width: 0.8; stroke-linejoin: miter; stroke-linecap: square"/>
   </g>
   <g id="legend_1">
    <g id="patch_7">
     <path d="M 275.535312 144.30875 
L 477.368125 144.30875 
Q 479.368125 144.30875 479.368125 142.30875 
L 479.368125 55.24 
Q 479.368125 53.24 477.368125 53.24 
L 275.535312 53.24 
Q 273.535312 53.24 273.535312 55.24 
L 273.535312 142.30875 
Q 273.535312 144.30875 275.535312 144.30875 
z
" style="fill: #ffffff; opacity: 0.8; stroke: #cccccc; stroke-linejoin: miter"/>
    </g>
    <g id="line2d_19">
     <path d="M 277.535312 61.338437 
L 297.535312 61.338437 
" style="fill: none; stroke: #000000; stroke-width: 2; stroke-linecap: square"/>
    </g>
    <g id="line2d_20"/>
    <g id="text_15">
     <!-- CHF sim all: 25mg PO -->
     <g transform="translate(305.535312 64.838437) scale(0.1 -0.1)">
      <defs>
       <path id="DejaVuSans-43" d="M 4122 4306 
L 4122 3641 
Q 3803 3938 3442 4084 
Q 3081 4231 2675 4231 
Q 1875 4231 1450 3742 
Q 1025 3253 1025 2328 
Q 1025 1406 1450 917 
Q 1875 428 2675 428 
Q 3081 428 3442 575 
Q 3803 722 4122 1019 
L 4122 359 
Q 3791 134 3420 21 
Q 3050 -91 2638 -91 
Q 1578 -91 968 557 
Q 359 1206 359 2328 
Q 359 3453 968 4101 
Q 1578 4750 2638 4750 
Q 3056 4750 3426 4639 
Q 3797 4528 4122 4306 
z
" transform="scale(0.015625)"/>
       <path id="DejaVuSans-48" d="M 628 4666 
L 1259 4666 
L 1259 2753 
L 3553 2753 
L 3553 4666 
L 4184 4666 
L 4184 0 
L 3553 0 
L 3553 2222 
L 1259 2222 
L 1259 0 
L 628 0 
L 628 4666 
z
" transform="scale(0.015625)"/>
       <path id="DejaVuSans-46" d="M 628 4666 
L 3309 4666 
L 3309 4134 
L 1259 4134 
L 1259 2759 
L 3109 2759 
L 3109 2228 
L 1259 2228 
L 1259 0 
L 628 0 
L 628 4666 
z
" transform="scale(0.015625)"/>
       <path id="DejaVuSans-20" transform="scale(0.015625)"/>
       <path id="DejaVuSans-73" d="M 2834 3397 
L 2834 2853 
Q 2591 2978 2328 3040 
Q 2066 3103 1784 3103 
Q 1356 3103 1142 2972 
Q 928 2841 928 2578 
Q 928 2378 1081 2264 
Q 1234 2150 1697 2047 
L 1894 2003 
Q 2506 1872 2764 1633 
Q 3022 1394 3022 966 
Q 3022 478 2636 193 
Q 2250 -91 1575 -91 
Q 1294 -91 989 -36 
Q 684 19 347 128 
L 347 722 
Q 666 556 975 473 
Q 1284 391 1588 391 
Q 1994 391 2212 530 
Q 2431 669 2431 922 
Q 2431 1156 2273 1281 
Q 2116 1406 1581 1522 
L 1381 1569 
Q 847 1681 609 1914 
Q 372 2147 372 2553 
Q 372 3047 722 3315 
Q 1072 3584 1716 3584 
Q 2034 3584 2315 3537 
Q 2597 3491 2834 3397 
z
" transform="scale(0.015625)"/>
       <path id="DejaVuSans-69" d="M 603 3500 
L 1178 3500 
L 1178 0 
L 603 0 
L 603 3500 
z
M 603 4863 
L 1178 4863 
L 1178 4134 
L 603 4134 
L 603 4863 
z
" transform="scale(0.015625)"/>
       <path id="DejaVuSans-6d" d="M 3328 2828 
Q 3544 3216 3844 3400 
Q 4144 3584 4550 3584 
Q 5097 3584 5394 3201 
Q 5691 2819 5691 2113 
L 5691 0 
L 5113 0 
L 5113 2094 
Q 5113 2597 4934 2840 
Q 4756 3084 4391 3084 
Q 3944 3084 3684 2787 
Q 3425 2491 3425 1978 
L 3425 0 
L 2847 0 
L 2847 2094 
Q 2847 2600 2669 2842 
Q 2491 3084 2119 3084 
Q 1678 3084 1418 2786 
Q 1159 2488 1159 1978 
L 1159 0 
L 581 0 
L 581 3500 
L 1159 3500 
L 1159 2956 
Q 1356 3278 1631 3431 
Q 1906 3584 2284 3584 
Q 2666 3584 2933 3390 
Q 3200 3197 3328 2828 
z
" transform="scale(0.015625)"/>
       <path id="DejaVuSans-61" d="M 2194 1759 
Q 1497 1759 1228 1600 
Q 959 1441 959 1056 
Q 959 750 1161 570 
Q 1363 391 1709 391 
Q 2188 391 2477 730 
Q 2766 1069 2766 1631 
L 2766 1759 
L 2194 1759 
z
M 3341 1997 
L 3341 0 
L 2766 0 
L 2766 531 
Q 2569 213 2275 61 
Q 1981 -91 1556 -91 
Q 1019 -91 701 211 
Q 384 513 384 1019 
Q 384 1609 779 1909 
Q 1175 2209 1959 2209 
L 2766 2209 
L 2766 2266 
Q 2766 2663 2505 2880 
Q 2244 3097 1772 3097 
Q 1472 3097 1187 3025 
Q 903 2953 641 2809 
L 641 3341 
Q 956 3463 1253 3523 
Q 1550 3584 1831 3584 
Q 2591 3584 2966 3190 
Q 3341 2797 3341 1997 
z
" transform="scale(0.015625)"/>
       <path id="DejaVuSans-6c" d="M 603 4863 
L 1178 4863 
L 1178 0 
L 603 0 
L 603 4863 
z
" transform="scale(0.015625)"/>
       <path id="DejaVuSans-3a" d="M 750 794 
L 1409 794 
L 1409 0 
L 750 0 
L 750 794 
z
M 750 3309 
L 1409 3309 
L 1409 2516 
L 750 2516 
L 750 3309 
z
" transform="scale(0.015625)"/>
       <path id="DejaVuSans-35" d="M 691 4666 
L 3169 4666 
L 3169 4134 
L 1269 4134 
L 1269 2991 
Q 1406 3038 1543 3061 
Q 1681 3084 1819 3084 
Q 2600 3084 3056 2656 
Q 3513 2228 3513 1497 
Q 3513 744 3044 326 
Q 2575 -91 1722 -91 
Q 1428 -91 1123 -41 
Q 819 9 494 109 
L 494 744 
Q 775 591 1075 516 
Q 1375 441 1709 441 
Q 2250 441 2565 725 
Q 2881 1009 2881 1497 
Q 2881 1984 2565 2268 
Q 2250 2553 1709 2553 
Q 1456 2553 1204 2497 
Q 953 2441 691 2322 
L 691 4666 
z
" transform="scale(0.015625)"/>
       <path id="DejaVuSans-67" d="M 2906 1791 
Q 2906 2416 2648 2759 
Q 2391 3103 1925 3103 
Q 1463 3103 1205 2759 
Q 947 2416 947 1791 
Q 947 1169 1205 825 
Q 1463 481 1925 481 
Q 2391 481 2648 825 
Q 2906 1169 2906 1791 
z
M 3481 434 
Q 3481 -459 3084 -895 
Q 2688 -1331 1869 -1331 
Q 1566 -1331 1297 -1286 
Q 1028 -1241 775 -1147 
L 775 -588 
Q 1028 -725 1275 -790 
Q 1522 -856 1778 -856 
Q 2344 -856 2625 -561 
Q 2906 -266 2906 331 
L 2906 616 
Q 2728 306 2450 153 
Q 2172 0 1784 0 
Q 1141 0 747 490 
Q 353 981 353 1791 
Q 353 2603 747 3093 
Q 1141 3584 1784 3584 
Q 2172 3584 2450 3431 
Q 2728 3278 2906 2969 
L 2906 3500 
L 3481 3500 
L 3481 434 
z
" transform="scale(0.015625)"/>
       <path id="DejaVuSans-50" d="M 1259 4147 
L 1259 2394 
L 2053 2394 
Q 2494 2394 2734 2622 
Q 2975 2850 2975 3272 
Q 2975 3691 2734 3919 
Q 2494 4147 2053 4147 
L 1259 4147 
z
M 628 4666 
L 2053 4666 
Q 2838 4666 3239 4311 
Q 3641 3956 3641 3272 
Q 3641 2581 3239 2228 
Q 2838 1875 2053 1875 
L 1259 1875 
L 1259 0 
L 628 0 
L 628 4666 
z
" transform="scale(0.015625)"/>
       <path id="DejaVuSans-4f" d="M 2522 4238 
Q 1834 4238 1429 3725 
Q 1025 3213 1025 2328 
Q 1025 1447 1429 934 
Q 1834 422 2522 422 
Q 3209 422 3611 934 
Q 4013 1447 4013 2328 
Q 4013 3213 3611 3725 
Q 3209 4238 2522 4238 
z
M 2522 4750 
Q 3503 4750 4090 4092 
Q 4678 3434 4678 2328 
Q 4678 1225 4090 567 
Q 3503 -91 2522 -91 
Q 1538 -91 948 565 
Q 359 1222 359 2328 
Q 359 3434 948 4092 
Q 1538 4750 2522 4750 
z
" transform="scale(0.015625)"/>
      </defs>
      <use xlink:href="#DejaVuSans-43"/>
      <use xlink:href="#DejaVuSans-48" transform="translate(69.824219 0)"/>
      <use xlink:href="#DejaVuSans-46" transform="translate(145.019531 0)"/>
      <use xlink:href="#DejaVuSans-20" transform="translate(202.539062 0)"/>
      <use xlink:href="#DejaVuSans-73" transform="translate(234.326172 0)"/>
      <use xlink:href="#DejaVuSans-69" transform="translate(286.425781 0)"/>
      <use xlink:href="#DejaVuSans-6d" transform="translate(314.208984 0)"/>
      <use xlink:href="#DejaVuSans-20" transform="translate(411.621094 0)"/>
      <use xlink:href="#DejaVuSans-61" transform="translate(443.408203 0)"/>
      <use xlink:href="#DejaVuSans-6c" transform="translate(504.6875 0)"/>
      <use xlink:href="#DejaVuSans-6c" transform="translate(532.470703 0)"/>
      <use xlink:href="#DejaVuSans-3a" transform="translate(560.253906 0)"/>
      <use xlink:href="#DejaVuSans-20" transform="translate(593.945312 0)"/>
      <use xlink:href="#DejaVuSans-32" transform="translate(625.732422 0)"/>
      <use xlink:href="#DejaVuSans-35" transform="translate(689.355469 0)"/>
      <use xlink:href="#DejaVuSans-6d" transform="translate(752.978516 0)"/>
      <use xlink:href="#DejaVuSans-67" transform="translate(850.390625 0)"/>
      <use xlink:href="#DejaVuSans-20" transform="translate(913.867188 0)"/>
      <use xlink:href="#DejaVuSans-50" transform="translate(945.654297 0)"/>
      <use xlink:href="#DejaVuSans-4f" transform="translate(1005.957031 0)"/>
     </g>
    </g>
    <g id="line2d_21">
     <path d="M 277.535312 76.016562 
L 297.535312 76.016562 
" style="fill: none; stroke: #338dff; stroke-width: 2; stroke-linecap: square"/>
    </g>
    <g id="line2d_22"/>
    <g id="text_16">
     <!-- CHF sim I1: 25mg PO -->
     <g transform="translate(305.535312 79.516562) scale(0.1 -0.1)">
      <defs>
       <path id="DejaVuSans-49" d="M 628 4666 
L 1259 4666 
L 1259 0 
L 628 0 
L 628 4666 
z
" transform="scale(0.015625)"/>
      </defs>
      <use xlink:href="#DejaVuSans-43"/>
      <use xlink:href="#DejaVuSans-48" transform="translate(69.824219 0)"/>
      <use xlink:href="#DejaVuSans-46" transform="translate(145.019531 0)"/>
      <use xlink:href="#DejaVuSans-20" transform="translate(202.539062 0)"/>
      <use xlink:href="#DejaVuSans-73" transform="translate(234.326172 0)"/>
      <use xlink:href="#DejaVuSans-69" transform="translate(286.425781 0)"/>
      <use xlink:href="#DejaVuSans-6d" transform="translate(314.208984 0)"/>
      <use xlink:href="#DejaVuSans-20" transform="translate(411.621094 0)"/>
      <use xlink:href="#DejaVuSans-49" transform="translate(443.408203 0)"/>
      <use xlink:href="#DejaVuSans-31" transform="translate(472.900391 0)"/>
      <use xlink:href="#DejaVuSans-3a" transform="translate(536.523438 0)"/>
      <use xlink:href="#DejaVuSans-20" transform="translate(570.214844 0)"/>
      <use xlink:href="#DejaVuSans-32" transform="translate(602.001953 0)"/>
      <use xlink:href="#DejaVuSans-35" transform="translate(665.625 0)"/>
      <use xlink:href="#DejaVuSans-6d" transform="translate(729.248047 0)"/>
      <use xlink:href="#DejaVuSans-67" transform="translate(826.660156 0)"/>
      <use xlink:href="#DejaVuSans-20" transform="translate(890.136719 0)"/>
      <use xlink:href="#DejaVuSans-50" transform="translate(921.923828 0)"/>
      <use xlink:href="#DejaVuSans-4f" transform="translate(982.226562 0)"/>
     </g>
    </g>
    <g id="line2d_23">
     <path d="M 277.535312 90.694687 
L 297.535312 90.694687 
" style="fill: none; stroke: #9333ff; stroke-width: 2; stroke-linecap: square"/>
    </g>
    <g id="line2d_24"/>
    <g id="text_17">
     <!-- CHF sim I2: 25mg PO -->
     <g transform="translate(305.535312 94.194687) scale(0.1 -0.1)">
      <use xlink:href="#DejaVuSans-43"/>
      <use xlink:href="#DejaVuSans-48" transform="translate(69.824219 0)"/>
      <use xlink:href="#DejaVuSans-46" transform="translate(145.019531 0)"/>
      <use xlink:href="#DejaVuSans-20" transform="translate(202.539062 0)"/>
      <use xlink:href="#DejaVuSans-73" transform="translate(234.326172 0)"/>
      <use xlink:href="#DejaVuSans-69" transform="translate(286.425781 0)"/>
      <use xlink:href="#DejaVuSans-6d" transform="translate(314.208984 0)"/>
      <use xlink:href="#DejaVuSans-20" transform="translate(411.621094 0)"/>
      <use xlink:href="#DejaVuSans-49" transform="translate(443.408203 0)"/>
      <use xlink:href="#DejaVuSans-32" transform="translate(472.900391 0)"/>
      <use xlink:href="#DejaVuSans-3a" transform="translate(536.523438 0)"/>
      <use xlink:href="#DejaVuSans-20" transform="translate(570.214844 0)"/>
      <use xlink:href="#DejaVuSans-32" transform="translate(602.001953 0)"/>
      <use xlink:href="#DejaVuSans-35" transform="translate(665.625 0)"/>
      <use xlink:href="#DejaVuSans-6d" transform="translate(729.248047 0)"/>
      <use xlink:href="#DejaVuSans-67" transform="translate(826.660156 0)"/>
      <use xlink:href="#DejaVuSans-20" transform="translate(890.136719 0)"/>
      <use xlink:href="#DejaVuSans-50" transform="translate(921.923828 0)"/>
      <use xlink:href="#DejaVuSans-4f" transform="translate(982.226562 0)"/>
     </g>
    </g>
    <g id="line2d_25">
     <path d="M 277.535312 105.372812 
L 297.535312 105.372812 
" style="fill: none; stroke-dasharray: 3.7,1.6; stroke-dashoffset: 0; stroke: #338dff"/>
    </g>
    <g id="line2d_26">
     <g>
      <use xlink:href="#me3a43cce47" x="287.535312" y="105.372812" style="fill: #338dff; stroke: #000000; stroke-linejoin: miter"/>
     </g>
    </g>
    <g id="text_18">
     <!-- CHF exp I1: 25mg PO (n=1) -->
     <g transform="translate(305.535312 108.872812) scale(0.1 -0.1)">
      <defs>
       <path id="DejaVuSans-65" d="M 3597 1894 
L 3597 1613 
L 953 1613 
Q 991 1019 1311 708 
Q 1631 397 2203 397 
Q 2534 397 2845 478 
Q 3156 559 3463 722 
L 3463 178 
Q 3153 47 2828 -22 
Q 2503 -91 2169 -91 
Q 1331 -91 842 396 
Q 353 884 353 1716 
Q 353 2575 817 3079 
Q 1281 3584 2069 3584 
Q 2775 3584 3186 3129 
Q 3597 2675 3597 1894 
z
M 3022 2063 
Q 3016 2534 2758 2815 
Q 2500 3097 2075 3097 
Q 1594 3097 1305 2825 
Q 1016 2553 972 2059 
L 3022 2063 
z
" transform="scale(0.015625)"/>
       <path id="DejaVuSans-78" d="M 3513 3500 
L 2247 1797 
L 3578 0 
L 2900 0 
L 1881 1375 
L 863 0 
L 184 0 
L 1544 1831 
L 300 3500 
L 978 3500 
L 1906 2253 
L 2834 3500 
L 3513 3500 
z
" transform="scale(0.015625)"/>
       <path id="DejaVuSans-70" d="M 1159 525 
L 1159 -1331 
L 581 -1331 
L 581 3500 
L 1159 3500 
L 1159 2969 
Q 1341 3281 1617 3432 
Q 1894 3584 2278 3584 
Q 2916 3584 3314 3078 
Q 3713 2572 3713 1747 
Q 3713 922 3314 415 
Q 2916 -91 2278 -91 
Q 1894 -91 1617 61 
Q 1341 213 1159 525 
z
M 3116 1747 
Q 3116 2381 2855 2742 
Q 2594 3103 2138 3103 
Q 1681 3103 1420 2742 
Q 1159 2381 1159 1747 
Q 1159 1113 1420 752 
Q 1681 391 2138 391 
Q 2594 391 2855 752 
Q 3116 1113 3116 1747 
z
" transform="scale(0.015625)"/>
       <path id="DejaVuSans-28" d="M 1984 4856 
Q 1566 4138 1362 3434 
Q 1159 2731 1159 2009 
Q 1159 1288 1364 580 
Q 1569 -128 1984 -844 
L 1484 -844 
Q 1016 -109 783 600 
Q 550 1309 550 2009 
Q 550 2706 781 3412 
Q 1013 4119 1484 4856 
L 1984 4856 
z
" transform="scale(0.015625)"/>
       <path id="DejaVuSans-6e" d="M 3513 2113 
L 3513 0 
L 2938 0 
L 2938 2094 
Q 2938 2591 2744 2837 
Q 2550 3084 2163 3084 
Q 1697 3084 1428 2787 
Q 1159 2491 1159 1978 
L 1159 0 
L 581 0 
L 581 3500 
L 1159 3500 
L 1159 2956 
Q 1366 3272 1645 3428 
Q 1925 3584 2291 3584 
Q 2894 3584 3203 3211 
Q 3513 2838 3513 2113 
z
" transform="scale(0.015625)"/>
       <path id="DejaVuSans-3d" d="M 678 2906 
L 4684 2906 
L 4684 2381 
L 678 2381 
L 678 2906 
z
M 678 1631 
L 4684 1631 
L 4684 1100 
L 678 1100 
L 678 1631 
z
" transform="scale(0.015625)"/>
       <path id="DejaVuSans-29" d="M 513 4856 
L 1013 4856 
Q 1481 4119 1714 3412 
Q 1947 2706 1947 2009 
Q 1947 1309 1714 600 
Q 1481 -109 1013 -844 
L 513 -844 
Q 928 -128 1133 580 
Q 1338 1288 1338 2009 
Q 1338 2731 1133 3434 
Q 928 4138 513 4856 
z
" transform="scale(0.015625)"/>
      </defs>
      <use xlink:href="#DejaVuSans-43"/>
      <use xlink:href="#DejaVuSans-48" transform="translate(69.824219 0)"/>
      <use xlink:href="#DejaVuSans-46" transform="translate(145.019531 0)"/>
      <use xlink:href="#DejaVuSans-20" transform="translate(202.539062 0)"/>
      <use xlink:href="#DejaVuSans-65" transform="translate(234.326172 0)"/>
      <use xlink:href="#DejaVuSans-78" transform="translate(294.099609 0)"/>
      <use xlink:href="#DejaVuSans-70" transform="translate(353.279297 0)"/>
      <use xlink:href="#DejaVuSans-20" transform="translate(416.755859 0)"/>
      <use xlink:href="#DejaVuSans-49" transform="translate(448.542969 0)"/>
      <use xlink:href="#DejaVuSans-31" transform="translate(478.035156 0)"/>
      <use xlink:href="#DejaVuSans-3a" transform="translate(541.658203 0)"/>
      <use xlink:href="#DejaVuSans-20" transform="translate(575.349609 0)"/>
      <use xlink:href="#DejaVuSans-32" transform="translate(607.136719 0)"/>
      <use xlink:href="#DejaVuSans-35" transform="translate(670.759766 0)"/>
      <use xlink:href="#DejaVuSans-6d" transform="translate(734.382812 0)"/>
      <use xlink:href="#DejaVuSans-67" transform="translate(831.794922 0)"/>
      <use xlink:href="#DejaVuSans-20" transform="translate(895.271484 0)"/>
      <use xlink:href="#DejaVuSans-50" transform="translate(927.058594 0)"/>
      <use xlink:href="#DejaVuSans-4f" transform="translate(987.361328 0)"/>
      <use xlink:href="#DejaVuSans-20" transform="translate(1066.072266 0)"/>
      <use xlink:href="#DejaVuSans-28" transform="translate(1097.859375 0)"/>
      <use xlink:href="#DejaVuSans-6e" transform="translate(1136.873047 0)"/>
      <use xlink:href="#DejaVuSans-3d" transform="translate(1200.251953 0)"/>
      <use xlink:href="#DejaVuSans-31" transform="translate(1284.041016 0)"/>
      <use xlink:href="#DejaVuSans-29" transform="translate(1347.664062 0)"/>
     </g>
    </g>
    <g id="line2d_27">
     <path d="M 277.535312 120.050937 
L 297.535312 120.050937 
" style="fill: none; stroke-dasharray: 3.7,1.6; stroke-dashoffset: 0; stroke: #9333ff"/>
    </g>
    <g id="line2d_28">
     <g>
      <use xlink:href="#md26fbabe35" x="287.535312" y="120.050937" style="fill: #9333ff; stroke: #000000; stroke-linejoin: miter"/>
     </g>
    </g>
    <g id="text_19">
     <!-- CHF exp I2: 25mg PO (n=1) -->
     <g transform="translate(305.535312 123.550937) scale(0.1 -0.1)">
      <use xlink:href="#DejaVuSans-43"/>
      <use xlink:href="#DejaVuSans-48" transform="translate(69.824219 0)"/>
      <use xlink:href="#DejaVuSans-46" transform="translate(145.019531 0)"/>
      <use xlink:href="#DejaVuSans-20" transform="translate(202.539062 0)"/>
      <use xlink:href="#DejaVuSans-65" transform="translate(234.326172 0)"/>
      <use xlink:href="#DejaVuSans-78" transform="translate(294.099609 0)"/>
      <use xlink:href="#DejaVuSans-70" transform="translate(353.279297 0)"/>
      <use xlink:href="#DejaVuSans-20" transform="translate(416.755859 0)"/>
      <use xlink:href="#DejaVuSans-49" transform="translate(448.542969 0)"/>
      <use xlink:href="#DejaVuSans-32" transform="translate(478.035156 0)"/>
      <use xlink:href="#DejaVuSans-3a" transform="translate(541.658203 0)"/>
      <use xlink:href="#DejaVuSans-20" transform="translate(575.349609 0)"/>
      <use xlink:href="#DejaVuSans-32" transform="translate(607.136719 0)"/>
      <use xlink:href="#DejaVuSans-35" transform="translate(670.759766 0)"/>
      <use xlink:href="#DejaVuSans-6d" transform="translate(734.382812 0)"/>
      <use xlink:href="#DejaVuSans-67" transform="translate(831.794922 0)"/>
      <use xlink:href="#DejaVuSans-20" transform="translate(895.271484 0)"/>
      <use xlink:href="#DejaVuSans-50" transform="translate(927.058594 0)"/>
      <use xlink:href="#DejaVuSans-4f" transform="translate(987.361328 0)"/>
      <use xlink:href="#DejaVuSans-20" transform="translate(1066.072266 0)"/>
      <use xlink:href="#DejaVuSans-28" transform="translate(1097.859375 0)"/>
      <use xlink:href="#DejaVuSans-6e" transform="translate(1136.873047 0)"/>
      <use xlink:href="#DejaVuSans-3d" transform="translate(1200.251953 0)"/>
      <use xlink:href="#DejaVuSans-31" transform="translate(1284.041016 0)"/>
      <use xlink:href="#DejaVuSans-29" transform="translate(1347.664062 0)"/>
     </g>
    </g>
    <g id="LineCollection_2">
     <path d="M 287.535312 139.729062 
L 287.535312 129.729062 
" style="fill: none; stroke: #000000"/>
    </g>
    <g id="line2d_29">
     <path d="M 277.535312 134.729062 
L 297.535312 134.729062 
" style="fill: none; stroke-dasharray: 3.7,1.6; stroke-dashoffset: 0; stroke: #000000"/>
    </g>
    <g id="line2d_30">
     <g>
      <use xlink:href="#m05990a9bac" x="287.535312" y="134.729062" style="stroke: #000000; stroke-linejoin: miter"/>
     </g>
    </g>
    <g id="text_20">
     <!-- CHF exp all: 25mg PO±SD (n=12) -->
     <g transform="translate(305.535312 138.229062) scale(0.1 -0.1)">
      <defs>
       <path id="DejaVuSans-b1" d="M 2944 4013 
L 2944 2803 
L 4684 2803 
L 4684 2272 
L 2944 2272 
L 2944 1063 
L 2419 1063 
L 2419 2272 
L 678 2272 
L 678 2803 
L 2419 2803 
L 2419 4013 
L 2944 4013 
z
M 678 531 
L 4684 531 
L 4684 0 
L 678 0 
L 678 531 
z
" transform="scale(0.015625)"/>
       <path id="DejaVuSans-53" d="M 3425 4513 
L 3425 3897 
Q 3066 4069 2747 4153 
Q 2428 4238 2131 4238 
Q 1616 4238 1336 4038 
Q 1056 3838 1056 3469 
Q 1056 3159 1242 3001 
Q 1428 2844 1947 2747 
L 2328 2669 
Q 3034 2534 3370 2195 
Q 3706 1856 3706 1288 
Q 3706 609 3251 259 
Q 2797 -91 1919 -91 
Q 1588 -91 1214 -16 
Q 841 59 441 206 
L 441 856 
Q 825 641 1194 531 
Q 1563 422 1919 422 
Q 2459 422 2753 634 
Q 3047 847 3047 1241 
Q 3047 1584 2836 1778 
Q 2625 1972 2144 2069 
L 1759 2144 
Q 1053 2284 737 2584 
Q 422 2884 422 3419 
Q 422 4038 858 4394 
Q 1294 4750 2059 4750 
Q 2388 4750 2728 4690 
Q 3069 4631 3425 4513 
z
" transform="scale(0.015625)"/>
       <path id="DejaVuSans-44" d="M 1259 4147 
L 1259 519 
L 2022 519 
Q 2988 519 3436 956 
Q 3884 1394 3884 2338 
Q 3884 3275 3436 3711 
Q 2988 4147 2022 4147 
L 1259 4147 
z
M 628 4666 
L 1925 4666 
Q 3281 4666 3915 4102 
Q 4550 3538 4550 2338 
Q 4550 1131 3912 565 
Q 3275 0 1925 0 
L 628 0 
L 628 4666 
z
" transform="scale(0.015625)"/>
      </defs>
      <use xlink:href="#DejaVuSans-43"/>
      <use xlink:href="#DejaVuSans-48" transform="translate(69.824219 0)"/>
      <use xlink:href="#DejaVuSans-46" transform="translate(145.019531 0)"/>
      <use xlink:href="#DejaVuSans-20" transform="translate(202.539062 0)"/>
      <use xlink:href="#DejaVuSans-65" transform="translate(234.326172 0)"/>
      <use xlink:href="#DejaVuSans-78" transform="translate(294.099609 0)"/>
      <use xlink:href="#DejaVuSans-70" transform="translate(353.279297 0)"/>
      <use xlink:href="#DejaVuSans-20" transform="translate(416.755859 0)"/>
      <use xlink:href="#DejaVuSans-61" transform="translate(448.542969 0)"/>
      <use xlink:href="#DejaVuSans-6c" transform="translate(509.822266 0)"/>
      <use xlink:href="#DejaVuSans-6c" transform="translate(537.605469 0)"/>
      <use xlink:href="#DejaVuSans-3a" transform="translate(565.388672 0)"/>
      <use xlink:href="#DejaVuSans-20" transform="translate(599.080078 0)"/>
      <use xlink:href="#DejaVuSans-32" transform="translate(630.867188 0)"/>
      <use xlink:href="#DejaVuSans-35" transform="translate(694.490234 0)"/>
      <use xlink:href="#DejaVuSans-6d" transform="translate(758.113281 0)"/>
      <use xlink:href="#DejaVuSans-67" transform="translate(855.525391 0)"/>
      <use xlink:href="#DejaVuSans-20" transform="translate(919.001953 0)"/>
      <use xlink:href="#DejaVuSans-50" transform="translate(950.789062 0)"/>
      <use xlink:href="#DejaVuSans-4f" transform="translate(1011.091797 0)"/>
      <use xlink:href="#DejaVuSans-b1" transform="translate(1089.802734 0)"/>
      <use xlink:href="#DejaVuSans-53" transform="translate(1173.591797 0)"/>
      <use xlink:href="#DejaVuSans-44" transform="translate(1237.068359 0)"/>
      <use xlink:href="#DejaVuSans-20" transform="translate(1314.070312 0)"/>
      <use xlink:href="#DejaVuSans-28" transform="translate(1345.857422 0)"/>
      <use xlink:href="#DejaVuSans-6e" transform="translate(1384.871094 0)"/>
      <use xlink:href="#DejaVuSans-3d" transform="translate(1448.25 0)"/>
      <use xlink:href="#DejaVuSans-31" transform="translate(1532.039062 0)"/>
      <use xlink:href="#DejaVuSans-32" transform="translate(1595.662109 0)"/>
      <use xlink:href="#DejaVuSans-29" transform="translate(1659.285156 0)"/>
     </g>
    </g>
   </g>
  </g>
  <g id="text_21">
   <!-- Cody1982 -->
   <g transform="translate(192.961641 26.196094) scale(0.25 -0.25)">
    <defs>
     <path id="DejaVuSans-Bold-43" d="M 4288 256 
Q 3956 84 3597 -3 
Q 3238 -91 2847 -91 
Q 1681 -91 1000 561 
Q 319 1213 319 2328 
Q 319 3447 1000 4098 
Q 1681 4750 2847 4750 
Q 3238 4750 3597 4662 
Q 3956 4575 4288 4403 
L 4288 3438 
Q 3953 3666 3628 3772 
Q 3303 3878 2944 3878 
Q 2300 3878 1931 3465 
Q 1563 3053 1563 2328 
Q 1563 1606 1931 1193 
Q 2300 781 2944 781 
Q 3303 781 3628 887 
Q 3953 994 4288 1222 
L 4288 256 
z
" transform="scale(0.015625)"/>
     <path id="DejaVuSans-Bold-6f" d="M 2203 2784 
Q 1831 2784 1636 2517 
Q 1441 2250 1441 1747 
Q 1441 1244 1636 976 
Q 1831 709 2203 709 
Q 2569 709 2762 976 
Q 2956 1244 2956 1747 
Q 2956 2250 2762 2517 
Q 2569 2784 2203 2784 
z
M 2203 3584 
Q 3106 3584 3614 3096 
Q 4122 2609 4122 1747 
Q 4122 884 3614 396 
Q 3106 -91 2203 -91 
Q 1297 -91 786 396 
Q 275 884 275 1747 
Q 275 2609 786 3096 
Q 1297 3584 2203 3584 
z
" transform="scale(0.015625)"/>
     <path id="DejaVuSans-Bold-64" d="M 2919 2988 
L 2919 4863 
L 4044 4863 
L 4044 0 
L 2919 0 
L 2919 506 
Q 2688 197 2409 53 
Q 2131 -91 1766 -91 
Q 1119 -91 703 423 
Q 288 938 288 1747 
Q 288 2556 703 3070 
Q 1119 3584 1766 3584 
Q 2128 3584 2408 3439 
Q 2688 3294 2919 2988 
z
M 2181 722 
Q 2541 722 2730 984 
Q 2919 1247 2919 1747 
Q 2919 2247 2730 2509 
Q 2541 2772 2181 2772 
Q 1825 2772 1636 2509 
Q 1447 2247 1447 1747 
Q 1447 1247 1636 984 
Q 1825 722 2181 722 
z
" transform="scale(0.015625)"/>
     <path id="DejaVuSans-Bold-79" d="M 78 3500 
L 1197 3500 
L 2138 1125 
L 2938 3500 
L 4056 3500 
L 2584 -331 
Q 2363 -916 2067 -1148 
Q 1772 -1381 1288 -1381 
L 641 -1381 
L 641 -647 
L 991 -647 
Q 1275 -647 1404 -556 
Q 1534 -466 1606 -231 
L 1638 -134 
L 78 3500 
z
" transform="scale(0.015625)"/>
     <path id="DejaVuSans-Bold-31" d="M 750 831 
L 1813 831 
L 1813 3847 
L 722 3622 
L 722 4441 
L 1806 4666 
L 2950 4666 
L 2950 831 
L 4013 831 
L 4013 0 
L 750 0 
L 750 831 
z
" transform="scale(0.015625)"/>
     <path id="DejaVuSans-Bold-39" d="M 641 103 
L 641 966 
Q 928 831 1190 764 
Q 1453 697 1709 697 
Q 2247 697 2547 995 
Q 2847 1294 2900 1881 
Q 2688 1725 2447 1647 
Q 2206 1569 1925 1569 
Q 1209 1569 770 1986 
Q 331 2403 331 3084 
Q 331 3838 820 4291 
Q 1309 4744 2131 4744 
Q 3044 4744 3544 4128 
Q 4044 3513 4044 2388 
Q 4044 1231 3459 570 
Q 2875 -91 1856 -91 
Q 1528 -91 1228 -42 
Q 928 6 641 103 
z
M 2125 2350 
Q 2441 2350 2600 2554 
Q 2759 2759 2759 3169 
Q 2759 3575 2600 3781 
Q 2441 3988 2125 3988 
Q 1809 3988 1650 3781 
Q 1491 3575 1491 3169 
Q 1491 2759 1650 2554 
Q 1809 2350 2125 2350 
z
" transform="scale(0.015625)"/>
     <path id="DejaVuSans-Bold-38" d="M 2228 2088 
Q 1891 2088 1709 1903 
Q 1528 1719 1528 1375 
Q 1528 1031 1709 848 
Q 1891 666 2228 666 
Q 2563 666 2741 848 
Q 2919 1031 2919 1375 
Q 2919 1722 2741 1905 
Q 2563 2088 2228 2088 
z
M 1350 2484 
Q 925 2613 709 2878 
Q 494 3144 494 3541 
Q 494 4131 934 4440 
Q 1375 4750 2228 4750 
Q 3075 4750 3515 4442 
Q 3956 4134 3956 3541 
Q 3956 3144 3739 2878 
Q 3522 2613 3097 2484 
Q 3572 2353 3814 2058 
Q 4056 1763 4056 1313 
Q 4056 619 3595 264 
Q 3134 -91 2228 -91 
Q 1319 -91 855 264 
Q 391 619 391 1313 
Q 391 1763 633 2058 
Q 875 2353 1350 2484 
z
M 1631 3419 
Q 1631 3141 1786 2991 
Q 1941 2841 2228 2841 
Q 2509 2841 2662 2991 
Q 2816 3141 2816 3419 
Q 2816 3697 2662 3845 
Q 2509 3994 2228 3994 
Q 1941 3994 1786 3844 
Q 1631 3694 1631 3419 
z
" transform="scale(0.015625)"/>
     <path id="DejaVuSans-Bold-32" d="M 1844 884 
L 3897 884 
L 3897 0 
L 506 0 
L 506 884 
L 2209 2388 
Q 2438 2594 2547 2791 
Q 2656 2988 2656 3200 
Q 2656 3528 2436 3728 
Q 2216 3928 1850 3928 
Q 1569 3928 1234 3808 
Q 900 3688 519 3450 
L 519 4475 
Q 925 4609 1322 4679 
Q 1719 4750 2100 4750 
Q 2938 4750 3402 4381 
Q 3866 4013 3866 3353 
Q 3866 2972 3669 2642 
Q 3472 2313 2841 1759 
L 1844 884 
z
" transform="scale(0.015625)"/>
    </defs>
    <use xlink:href="#DejaVuSans-Bold-43"/>
    <use xlink:href="#DejaVuSans-Bold-6f" transform="translate(73.388672 0)"/>
    <use xlink:href="#DejaVuSans-Bold-64" transform="translate(142.089844 0)"/>
    <use xlink:href="#DejaVuSans-Bold-79" transform="translate(213.671875 0)"/>
    <use xlink:href="#DejaVuSans-Bold-31" transform="translate(278.857422 0)"/>
    <use xlink:href="#DejaVuSans-Bold-39" transform="translate(348.4375 0)"/>
    <use xlink:href="#DejaVuSans-Bold-38" transform="translate(418.017578 0)"/>
    <use xlink:href="#DejaVuSans-Bold-32" transform="translate(487.597656 0)"/>
   </g>
  </g>
 </g>
 <defs>
  <clipPath id="p91f89630f7">
   <rect x="54.708125" y="48.24" width="429.66" height="316.008"/>
  </clipPath>
 </defs>
</svg>
