<?xml version="1.0" encoding="utf-8" standalone="no"?>
<!DOCTYPE svg PUBLIC "-//W3C//DTD SVG 1.1//EN"
  "http://www.w3.org/Graphics/SVG/1.1/DTD/svg11.dtd">
<svg xmlns:xlink="http://www.w3.org/1999/xlink" width="924.273594pt" height="414.385812pt" viewBox="0 0 924.273594 414.385812" xmlns="http://www.w3.org/2000/svg" version="1.1">
 <metadata>
  <rdf:RDF xmlns:dc="http://purl.org/dc/elements/1.1/" xmlns:cc="http://creativecommons.org/ns#" xmlns:rdf="http://www.w3.org/1999/02/22-rdf-syntax-ns#">
   <cc:Work>
    <dc:type rdf:resource="http://purl.org/dc/dcmitype/StillImage"/>
    <dc:date>2025-09-10T13:16:55.635581</dc:date>
    <dc:format>image/svg+xml</dc:format>
    <dc:creator>
     <cc:Agent>
      <dc:title>Matplotlib v3.10.6, https://matplotlib.org/</dc:title>
     </cc:Agent>
    </dc:creator>
   </cc:Work>
  </rdf:RDF>
 </metadata>
 <defs>
  <style type="text/css">*{stroke-linejoin: round; stroke-linecap: butt}</style>
 </defs>
 <g id="figure_1">
  <g id="patch_1">
   <path d="M 0 414.385812 
L 924.273594 414.385812 
L 924.273594 -0 
L 0 -0 
z
" style="fill: #ffffff"/>
  </g>
  <g id="axes_1">
   <g id="patch_2">
    <path d="M 57.753594 364.248 
L 431.370985 364.248 
L 431.370985 48.24 
L 57.753594 48.24 
z
" style="fill: #ffffff"/>
   </g>
   <g id="matplotlib.axis_1">
    <g id="xtick_1">
     <g id="line2d_1">
      <defs>
       <path id="mf8309d6a05" d="M 0 0 
L 0 3.5 
" style="stroke: #000000; stroke-width: 0.8"/>
      </defs>
      <g>
       <use xlink:href="#mf8309d6a05" x="74.736202" y="364.248" style="stroke: #000000; stroke-width: 0.8"/>
      </g>
     </g>
     <g id="text_1">
      <!-- 0 -->
      <g transform="translate(69.964327 382.645656) scale(0.15 -0.15)">
       <defs>
        <path id="DejaVuSans-30" d="M 2034 4250 
Q 1547 4250 1301 3770 
Q 1056 3291 1056 2328 
Q 1056 1369 1301 889 
Q 1547 409 2034 409 
Q 2525 409 2770 889 
Q 3016 1369 3016 2328 
Q 3016 3291 2770 3770 
Q 2525 4250 2034 4250 
z
M 2034 4750 
Q 2819 4750 3233 4129 
Q 3647 3509 3647 2328 
Q 3647 1150 3233 529 
Q 2819 -91 2034 -91 
Q 1250 -91 836 529 
Q 422 1150 422 2328 
Q 422 3509 836 4129 
Q 1250 4750 2034 4750 
z
" transform="scale(0.015625)"/>
       </defs>
       <use xlink:href="#DejaVuSans-30"/>
      </g>
     </g>
    </g>
    <g id="xtick_2">
     <g id="line2d_2">
      <g>
       <use xlink:href="#mf8309d6a05" x="150.214463" y="364.248" style="stroke: #000000; stroke-width: 0.8"/>
      </g>
     </g>
     <g id="text_2">
      <!-- 2 -->
      <g transform="translate(145.442588 382.645656) scale(0.15 -0.15)">
       <defs>
        <path id="DejaVuSans-32" d="M 1228 531 
L 3431 531 
L 3431 0 
L 469 0 
L 469 531 
Q 828 903 1448 1529 
Q 2069 2156 2228 2338 
Q 2531 2678 2651 2914 
Q 2772 3150 2772 3378 
Q 2772 3750 2511 3984 
Q 2250 4219 1831 4219 
Q 1534 4219 1204 4116 
Q 875 4013 500 3803 
L 500 4441 
Q 881 4594 1212 4672 
Q 1544 4750 1819 4750 
Q 2544 4750 2975 4387 
Q 3406 4025 3406 3419 
Q 3406 3131 3298 2873 
Q 3191 2616 2906 2266 
Q 2828 2175 2409 1742 
Q 1991 1309 1228 531 
z
" transform="scale(0.015625)"/>
       </defs>
       <use xlink:href="#DejaVuSans-32"/>
      </g>
     </g>
    </g>
    <g id="xtick_3">
     <g id="line2d_3">
      <g>
       <use xlink:href="#mf8309d6a05" x="225.692724" y="364.248" style="stroke: #000000; stroke-width: 0.8"/>
      </g>
     </g>
     <g id="text_3">
      <!-- 4 -->
      <g transform="translate(220.920849 382.645656) scale(0.15 -0.15)">
       <defs>
        <path id="DejaVuSans-34" d="M 2419 4116 
L 825 1625 
L 2419 1625 
L 2419 4116 
z
M 2253 4666 
L 3047 4666 
L 3047 1625 
L 3713 1625 
L 3713 1100 
L 3047 1100 
L 3047 0 
L 2419 0 
L 2419 1100 
L 313 1100 
L 313 1709 
L 2253 4666 
z
" transform="scale(0.015625)"/>
       </defs>
       <use xlink:href="#DejaVuSans-34"/>
      </g>
     </g>
    </g>
    <g id="xtick_4">
     <g id="line2d_4">
      <g>
       <use xlink:href="#mf8309d6a05" x="301.170985" y="364.248" style="stroke: #000000; stroke-width: 0.8"/>
      </g>
     </g>
     <g id="text_4">
      <!-- 6 -->
      <g transform="translate(296.39911 382.645656) scale(0.15 -0.15)">
       <defs>
        <path id="DejaVuSans-36" d="M 2113 2584 
Q 1688 2584 1439 2293 
Q 1191 2003 1191 1497 
Q 1191 994 1439 701 
Q 1688 409 2113 409 
Q 2538 409 2786 701 
Q 3034 994 3034 1497 
Q 3034 2003 2786 2293 
Q 2538 2584 2113 2584 
z
M 3366 4563 
L 3366 3988 
Q 3128 4100 2886 4159 
Q 2644 4219 2406 4219 
Q 1781 4219 1451 3797 
Q 1122 3375 1075 2522 
Q 1259 2794 1537 2939 
Q 1816 3084 2150 3084 
Q 2853 3084 3261 2657 
Q 3669 2231 3669 1497 
Q 3669 778 3244 343 
Q 2819 -91 2113 -91 
Q 1303 -91 875 529 
Q 447 1150 447 2328 
Q 447 3434 972 4092 
Q 1497 4750 2381 4750 
Q 2619 4750 2861 4703 
Q 3103 4656 3366 4563 
z
" transform="scale(0.015625)"/>
       </defs>
       <use xlink:href="#DejaVuSans-36"/>
      </g>
     </g>
    </g>
    <g id="xtick_5">
     <g id="line2d_5">
      <g>
       <use xlink:href="#mf8309d6a05" x="376.649246" y="364.248" style="stroke: #000000; stroke-width: 0.8"/>
      </g>
     </g>
     <g id="text_5">
      <!-- 8 -->
      <g transform="translate(371.877371 382.645656) scale(0.15 -0.15)">
       <defs>
        <path id="DejaVuSans-38" d="M 2034 2216 
Q 1584 2216 1326 1975 
Q 1069 1734 1069 1313 
Q 1069 891 1326 650 
Q 1584 409 2034 409 
Q 2484 409 2743 651 
Q 3003 894 3003 1313 
Q 3003 1734 2745 1975 
Q 2488 2216 2034 2216 
z
M 1403 2484 
Q 997 2584 770 2862 
Q 544 3141 544 3541 
Q 544 4100 942 4425 
Q 1341 4750 2034 4750 
Q 2731 4750 3128 4425 
Q 3525 4100 3525 3541 
Q 3525 3141 3298 2862 
Q 3072 2584 2669 2484 
Q 3125 2378 3379 2068 
Q 3634 1759 3634 1313 
Q 3634 634 3220 271 
Q 2806 -91 2034 -91 
Q 1263 -91 848 271 
Q 434 634 434 1313 
Q 434 1759 690 2068 
Q 947 2378 1403 2484 
z
M 1172 3481 
Q 1172 3119 1398 2916 
Q 1625 2713 2034 2713 
Q 2441 2713 2670 2916 
Q 2900 3119 2900 3481 
Q 2900 3844 2670 4047 
Q 2441 4250 2034 4250 
Q 1625 4250 1398 4047 
Q 1172 3844 1172 3481 
z
" transform="scale(0.015625)"/>
       </defs>
       <use xlink:href="#DejaVuSans-38"/>
      </g>
     </g>
    </g>
    <g id="text_6">
     <!-- time [hr] -->
     <g transform="translate(199.487758 403.442375) scale(0.18 -0.18)">
      <defs>
       <path id="DejaVuSans-Bold-74" d="M 1759 4494 
L 1759 3500 
L 2913 3500 
L 2913 2700 
L 1759 2700 
L 1759 1216 
Q 1759 972 1856 886 
Q 1953 800 2241 800 
L 2816 800 
L 2816 0 
L 1856 0 
Q 1194 0 917 276 
Q 641 553 641 1216 
L 641 2700 
L 84 2700 
L 84 3500 
L 641 3500 
L 641 4494 
L 1759 4494 
z
" transform="scale(0.015625)"/>
       <path id="DejaVuSans-Bold-69" d="M 538 3500 
L 1656 3500 
L 1656 0 
L 538 0 
L 538 3500 
z
M 538 4863 
L 1656 4863 
L 1656 3950 
L 538 3950 
L 538 4863 
z
" transform="scale(0.015625)"/>
       <path id="DejaVuSans-Bold-6d" d="M 3781 2919 
Q 3994 3244 4286 3414 
Q 4578 3584 4928 3584 
Q 5531 3584 5847 3212 
Q 6163 2841 6163 2131 
L 6163 0 
L 5038 0 
L 5038 1825 
Q 5041 1866 5042 1909 
Q 5044 1953 5044 2034 
Q 5044 2406 4934 2573 
Q 4825 2741 4581 2741 
Q 4263 2741 4089 2478 
Q 3916 2216 3909 1719 
L 3909 0 
L 2784 0 
L 2784 1825 
Q 2784 2406 2684 2573 
Q 2584 2741 2328 2741 
Q 2006 2741 1831 2477 
Q 1656 2213 1656 1722 
L 1656 0 
L 531 0 
L 531 3500 
L 1656 3500 
L 1656 2988 
Q 1863 3284 2130 3434 
Q 2397 3584 2719 3584 
Q 3081 3584 3359 3409 
Q 3638 3234 3781 2919 
z
" transform="scale(0.015625)"/>
       <path id="DejaVuSans-Bold-65" d="M 4031 1759 
L 4031 1441 
L 1416 1441 
Q 1456 1047 1700 850 
Q 1944 653 2381 653 
Q 2734 653 3104 758 
Q 3475 863 3866 1075 
L 3866 213 
Q 3469 63 3072 -14 
Q 2675 -91 2278 -91 
Q 1328 -91 801 392 
Q 275 875 275 1747 
Q 275 2603 792 3093 
Q 1309 3584 2216 3584 
Q 3041 3584 3536 3087 
Q 4031 2591 4031 1759 
z
M 2881 2131 
Q 2881 2450 2695 2645 
Q 2509 2841 2209 2841 
Q 1884 2841 1681 2658 
Q 1478 2475 1428 2131 
L 2881 2131 
z
" transform="scale(0.015625)"/>
       <path id="DejaVuSans-Bold-20" transform="scale(0.015625)"/>
       <path id="DejaVuSans-Bold-5b" d="M 550 4863 
L 2491 4863 
L 2491 4159 
L 1613 4159 
L 1613 -141 
L 2491 -141 
L 2491 -844 
L 550 -844 
L 550 4863 
z
" transform="scale(0.015625)"/>
       <path id="DejaVuSans-Bold-68" d="M 4056 2131 
L 4056 0 
L 2931 0 
L 2931 347 
L 2931 1625 
Q 2931 2084 2911 2256 
Q 2891 2428 2841 2509 
Q 2775 2619 2662 2680 
Q 2550 2741 2406 2741 
Q 2056 2741 1856 2470 
Q 1656 2200 1656 1722 
L 1656 0 
L 538 0 
L 538 4863 
L 1656 4863 
L 1656 2988 
Q 1909 3294 2193 3439 
Q 2478 3584 2822 3584 
Q 3428 3584 3742 3212 
Q 4056 2841 4056 2131 
z
" transform="scale(0.015625)"/>
       <path id="DejaVuSans-Bold-72" d="M 3138 2547 
Q 2991 2616 2845 2648 
Q 2700 2681 2553 2681 
Q 2122 2681 1889 2404 
Q 1656 2128 1656 1613 
L 1656 0 
L 538 0 
L 538 3500 
L 1656 3500 
L 1656 2925 
Q 1872 3269 2151 3426 
Q 2431 3584 2822 3584 
Q 2878 3584 2943 3579 
Q 3009 3575 3134 3559 
L 3138 2547 
z
" transform="scale(0.015625)"/>
       <path id="DejaVuSans-Bold-5d" d="M 2375 -844 
L 434 -844 
L 434 -141 
L 1313 -141 
L 1313 4159 
L 434 4159 
L 434 4863 
L 2375 4863 
L 2375 -844 
z
" transform="scale(0.015625)"/>
      </defs>
      <use xlink:href="#DejaVuSans-Bold-74"/>
      <use xlink:href="#DejaVuSans-Bold-69" transform="translate(47.802734 0)"/>
      <use xlink:href="#DejaVuSans-Bold-6d" transform="translate(82.080078 0)"/>
      <use xlink:href="#DejaVuSans-Bold-65" transform="translate(186.279297 0)"/>
      <use xlink:href="#DejaVuSans-Bold-20" transform="translate(254.101562 0)"/>
      <use xlink:href="#DejaVuSans-Bold-5b" transform="translate(288.916016 0)"/>
      <use xlink:href="#DejaVuSans-Bold-68" transform="translate(334.619141 0)"/>
      <use xlink:href="#DejaVuSans-Bold-72" transform="translate(405.810547 0)"/>
      <use xlink:href="#DejaVuSans-Bold-5d" transform="translate(455.126953 0)"/>
     </g>
    </g>
   </g>
   <g id="matplotlib.axis_2">
    <g id="ytick_1">
     <g id="line2d_6">
      <defs>
       <path id="m8de1ee2d31" d="M 0 0 
L -3.5 0 
" style="stroke: #000000; stroke-width: 0.8"/>
      </defs>
      <g>
       <use xlink:href="#m8de1ee2d31" x="57.753594" y="345.219828" style="stroke: #000000; stroke-width: 0.8"/>
      </g>
     </g>
     <g id="text_7">
      <!-- −1 -->
      <g transform="translate(28.640313 350.918657) scale(0.15 -0.15)">
       <defs>
        <path id="DejaVuSans-2212" d="M 678 2272 
L 4684 2272 
L 4684 1741 
L 678 1741 
L 678 2272 
z
" transform="scale(0.015625)"/>
        <path id="DejaVuSans-31" d="M 794 531 
L 1825 531 
L 1825 4091 
L 703 3866 
L 703 4441 
L 1819 4666 
L 2450 4666 
L 2450 531 
L 3481 531 
L 3481 0 
L 794 0 
L 794 531 
z
" transform="scale(0.015625)"/>
       </defs>
       <use xlink:href="#DejaVuSans-2212"/>
       <use xlink:href="#DejaVuSans-31" transform="translate(83.789062 0)"/>
      </g>
     </g>
    </g>
    <g id="ytick_2">
     <g id="line2d_7">
      <g>
       <use xlink:href="#m8de1ee2d31" x="57.753594" y="297.663976" style="stroke: #000000; stroke-width: 0.8"/>
      </g>
     </g>
     <g id="text_8">
      <!-- 0 -->
      <g transform="translate(41.209844 303.362804) scale(0.15 -0.15)">
       <use xlink:href="#DejaVuSans-30"/>
      </g>
     </g>
    </g>
    <g id="ytick_3">
     <g id="line2d_8">
      <g>
       <use xlink:href="#m8de1ee2d31" x="57.753594" y="250.108123" style="stroke: #000000; stroke-width: 0.8"/>
      </g>
     </g>
     <g id="text_9">
      <!-- 1 -->
      <g transform="translate(41.209844 255.806951) scale(0.15 -0.15)">
       <use xlink:href="#DejaVuSans-31"/>
      </g>
     </g>
    </g>
    <g id="ytick_4">
     <g id="line2d_9">
      <g>
       <use xlink:href="#m8de1ee2d31" x="57.753594" y="202.552271" style="stroke: #000000; stroke-width: 0.8"/>
      </g>
     </g>
     <g id="text_10">
      <!-- 2 -->
      <g transform="translate(41.209844 208.251099) scale(0.15 -0.15)">
       <use xlink:href="#DejaVuSans-32"/>
      </g>
     </g>
    </g>
    <g id="ytick_5">
     <g id="line2d_10">
      <g>
       <use xlink:href="#m8de1ee2d31" x="57.753594" y="154.996418" style="stroke: #000000; stroke-width: 0.8"/>
      </g>
     </g>
     <g id="text_11">
      <!-- 3 -->
      <g transform="translate(41.209844 160.695246) scale(0.15 -0.15)">
       <defs>
        <path id="DejaVuSans-33" d="M 2597 2516 
Q 3050 2419 3304 2112 
Q 3559 1806 3559 1356 
Q 3559 666 3084 287 
Q 2609 -91 1734 -91 
Q 1441 -91 1130 -33 
Q 819 25 488 141 
L 488 750 
Q 750 597 1062 519 
Q 1375 441 1716 441 
Q 2309 441 2620 675 
Q 2931 909 2931 1356 
Q 2931 1769 2642 2001 
Q 2353 2234 1838 2234 
L 1294 2234 
L 1294 2753 
L 1863 2753 
Q 2328 2753 2575 2939 
Q 2822 3125 2822 3475 
Q 2822 3834 2567 4026 
Q 2313 4219 1838 4219 
Q 1578 4219 1281 4162 
Q 984 4106 628 3988 
L 628 4550 
Q 988 4650 1302 4700 
Q 1616 4750 1894 4750 
Q 2613 4750 3031 4423 
Q 3450 4097 3450 3541 
Q 3450 3153 3228 2886 
Q 3006 2619 2597 2516 
z
" transform="scale(0.015625)"/>
       </defs>
       <use xlink:href="#DejaVuSans-33"/>
      </g>
     </g>
    </g>
    <g id="ytick_6">
     <g id="line2d_11">
      <g>
       <use xlink:href="#m8de1ee2d31" x="57.753594" y="107.440566" style="stroke: #000000; stroke-width: 0.8"/>
      </g>
     </g>
     <g id="text_12">
      <!-- 4 -->
      <g transform="translate(41.209844 113.139394) scale(0.15 -0.15)">
       <use xlink:href="#DejaVuSans-34"/>
      </g>
     </g>
    </g>
    <g id="ytick_7">
     <g id="line2d_12">
      <g>
       <use xlink:href="#m8de1ee2d31" x="57.753594" y="59.884713" style="stroke: #000000; stroke-width: 0.8"/>
      </g>
     </g>
     <g id="text_13">
      <!-- 5 -->
      <g transform="translate(41.209844 65.583541) scale(0.15 -0.15)">
       <defs>
        <path id="DejaVuSans-35" d="M 691 4666 
L 3169 4666 
L 3169 4134 
L 1269 4134 
L 1269 2991 
Q 1406 3038 1543 3061 
Q 1681 3084 1819 3084 
Q 2600 3084 3056 2656 
Q 3513 2228 3513 1497 
Q 3513 744 3044 326 
Q 2575 -91 1722 -91 
Q 1428 -91 1123 -41 
Q 819 9 494 109 
L 494 744 
Q 775 591 1075 516 
Q 1375 441 1709 441 
Q 2250 441 2565 725 
Q 2881 1009 2881 1497 
Q 2881 1984 2565 2268 
Q 2250 2553 1709 2553 
Q 1456 2553 1204 2497 
Q 953 2441 691 2322 
L 691 4666 
z
" transform="scale(0.015625)"/>
       </defs>
       <use xlink:href="#DejaVuSans-35"/>
      </g>
     </g>
    </g>
    <g id="text_14">
     <!-- captopril [µM] -->
     <g transform="translate(20.877188 278.568844) rotate(-90) scale(0.18 -0.18)">
      <defs>
       <path id="DejaVuSans-Bold-63" d="M 3366 3391 
L 3366 2478 
Q 3138 2634 2908 2709 
Q 2678 2784 2431 2784 
Q 1963 2784 1702 2511 
Q 1441 2238 1441 1747 
Q 1441 1256 1702 982 
Q 1963 709 2431 709 
Q 2694 709 2930 787 
Q 3166 866 3366 1019 
L 3366 103 
Q 3103 6 2833 -42 
Q 2563 -91 2291 -91 
Q 1344 -91 809 395 
Q 275 881 275 1747 
Q 275 2613 809 3098 
Q 1344 3584 2291 3584 
Q 2566 3584 2833 3536 
Q 3100 3488 3366 3391 
z
" transform="scale(0.015625)"/>
       <path id="DejaVuSans-Bold-61" d="M 2106 1575 
Q 1756 1575 1579 1456 
Q 1403 1338 1403 1106 
Q 1403 894 1545 773 
Q 1688 653 1941 653 
Q 2256 653 2472 879 
Q 2688 1106 2688 1447 
L 2688 1575 
L 2106 1575 
z
M 3816 1997 
L 3816 0 
L 2688 0 
L 2688 519 
Q 2463 200 2181 54 
Q 1900 -91 1497 -91 
Q 953 -91 614 226 
Q 275 544 275 1050 
Q 275 1666 698 1953 
Q 1122 2241 2028 2241 
L 2688 2241 
L 2688 2328 
Q 2688 2594 2478 2717 
Q 2269 2841 1825 2841 
Q 1466 2841 1156 2769 
Q 847 2697 581 2553 
L 581 3406 
Q 941 3494 1303 3539 
Q 1666 3584 2028 3584 
Q 2975 3584 3395 3211 
Q 3816 2838 3816 1997 
z
" transform="scale(0.015625)"/>
       <path id="DejaVuSans-Bold-70" d="M 1656 506 
L 1656 -1331 
L 538 -1331 
L 538 3500 
L 1656 3500 
L 1656 2988 
Q 1888 3294 2169 3439 
Q 2450 3584 2816 3584 
Q 3463 3584 3878 3070 
Q 4294 2556 4294 1747 
Q 4294 938 3878 423 
Q 3463 -91 2816 -91 
Q 2450 -91 2169 54 
Q 1888 200 1656 506 
z
M 2400 2772 
Q 2041 2772 1848 2508 
Q 1656 2244 1656 1747 
Q 1656 1250 1848 986 
Q 2041 722 2400 722 
Q 2759 722 2948 984 
Q 3138 1247 3138 1747 
Q 3138 2247 2948 2509 
Q 2759 2772 2400 2772 
z
" transform="scale(0.015625)"/>
       <path id="DejaVuSans-Bold-6f" d="M 2203 2784 
Q 1831 2784 1636 2517 
Q 1441 2250 1441 1747 
Q 1441 1244 1636 976 
Q 1831 709 2203 709 
Q 2569 709 2762 976 
Q 2956 1244 2956 1747 
Q 2956 2250 2762 2517 
Q 2569 2784 2203 2784 
z
M 2203 3584 
Q 3106 3584 3614 3096 
Q 4122 2609 4122 1747 
Q 4122 884 3614 396 
Q 3106 -91 2203 -91 
Q 1297 -91 786 396 
Q 275 884 275 1747 
Q 275 2609 786 3096 
Q 1297 3584 2203 3584 
z
" transform="scale(0.015625)"/>
       <path id="DejaVuSans-Bold-6c" d="M 538 4863 
L 1656 4863 
L 1656 0 
L 538 0 
L 538 4863 
z
" transform="scale(0.015625)"/>
       <path id="DejaVuSans-Bold-b5" d="M 544 -1338 
L 544 3500 
L 1672 3500 
L 1672 1466 
Q 1672 1103 1828 926 
Q 1984 750 2303 750 
Q 2625 750 2781 926 
Q 2938 1103 2938 1466 
L 2938 3500 
L 4063 3500 
L 4063 1159 
Q 4063 938 4114 850 
Q 4166 763 4288 763 
Q 4344 763 4395 778 
Q 4447 794 4506 831 
L 4506 50 
Q 4341 -22 4195 -56 
Q 4050 -91 3909 -91 
Q 3631 -91 3454 26 
Q 3278 144 3169 403 
Q 3022 156 2811 32 
Q 2600 -91 2322 -91 
Q 2091 -91 1928 -17 
Q 1766 56 1672 206 
L 1672 -1338 
L 544 -1338 
z
" transform="scale(0.015625)"/>
       <path id="DejaVuSans-Bold-4d" d="M 588 4666 
L 2119 4666 
L 3181 2169 
L 4250 4666 
L 5778 4666 
L 5778 0 
L 4641 0 
L 4641 3413 
L 3566 897 
L 2803 897 
L 1728 3413 
L 1728 0 
L 588 0 
L 588 4666 
z
" transform="scale(0.015625)"/>
      </defs>
      <use xlink:href="#DejaVuSans-Bold-63"/>
      <use xlink:href="#DejaVuSans-Bold-61" transform="translate(59.277344 0)"/>
      <use xlink:href="#DejaVuSans-Bold-70" transform="translate(126.757812 0)"/>
      <use xlink:href="#DejaVuSans-Bold-74" transform="translate(198.339844 0)"/>
      <use xlink:href="#DejaVuSans-Bold-6f" transform="translate(246.142578 0)"/>
      <use xlink:href="#DejaVuSans-Bold-70" transform="translate(314.84375 0)"/>
      <use xlink:href="#DejaVuSans-Bold-72" transform="translate(386.425781 0)"/>
      <use xlink:href="#DejaVuSans-Bold-69" transform="translate(435.742188 0)"/>
      <use xlink:href="#DejaVuSans-Bold-6c" transform="translate(470.019531 0)"/>
      <use xlink:href="#DejaVuSans-Bold-20" transform="translate(504.296875 0)"/>
      <use xlink:href="#DejaVuSans-Bold-5b" transform="translate(539.111328 0)"/>
      <use xlink:href="#DejaVuSans-Bold-b5" transform="translate(584.814453 0)"/>
      <use xlink:href="#DejaVuSans-Bold-4d" transform="translate(658.398438 0)"/>
      <use xlink:href="#DejaVuSans-Bold-5d" transform="translate(757.910156 0)"/>
     </g>
    </g>
   </g>
   <g id="LineCollection_1">
    <path d="M 84.170985 302.428374 
L 84.170985 273.5236 
" clip-path="url(#p9f7bbfb3c6)" style="fill: none; stroke: #000000"/>
    <path d="M 93.605768 293.828686 
L 93.605768 250.446885 
" clip-path="url(#p9f7bbfb3c6)" style="fill: none; stroke: #000000"/>
    <path d="M 103.04055 283.649523 
L 103.04055 254.646191 
" clip-path="url(#p9f7bbfb3c6)" style="fill: none; stroke: #000000"/>
    <path d="M 112.475333 274.160045 
L 112.475333 245.255271 
" clip-path="url(#p9f7bbfb3c6)" style="fill: none; stroke: #000000"/>
    <path d="M 131.344898 287.187515 
L 131.344898 254.712762 
" clip-path="url(#p9f7bbfb3c6)" style="fill: none; stroke: #000000"/>
    <path d="M 150.214463 295.346974 
L 150.214463 262.675107 
" clip-path="url(#p9f7bbfb3c6)" style="fill: none; stroke: #000000"/>
    <path d="M 187.953594 296.618476 
L 187.953594 264.094445 
" clip-path="url(#p9f7bbfb3c6)" style="fill: none; stroke: #000000"/>
    <path d="M 225.692724 299.723236 
L 225.692724 259.911413 
" clip-path="url(#p9f7bbfb3c6)" style="fill: none; stroke: #000000"/>
    <path d="M 301.170985 302.105087 
L 301.170985 273.200312 
" clip-path="url(#p9f7bbfb3c6)" style="fill: none; stroke: #000000"/>
   </g>
   <g id="LineCollection_2">
    <path d="M 93.605768 290.242059 
L 93.605768 184.039539 
" clip-path="url(#p9f7bbfb3c6)" style="fill: none; stroke: #338dff"/>
    <path d="M 103.04055 304.956807 
L 103.04055 192.587443 
" clip-path="url(#p9f7bbfb3c6)" style="fill: none; stroke: #338dff"/>
    <path d="M 112.475333 310.754975 
L 112.475333 192.180819 
" clip-path="url(#p9f7bbfb3c6)" style="fill: none; stroke: #338dff"/>
    <path d="M 131.344898 346.306997 
L 131.344898 121.56827 
" clip-path="url(#p9f7bbfb3c6)" style="fill: none; stroke: #338dff"/>
    <path d="M 150.214463 349.884 
L 150.214463 62.604 
" clip-path="url(#p9f7bbfb3c6)" style="fill: none; stroke: #338dff"/>
    <path d="M 187.953594 326.403654 
L 187.953594 176.539886 
" clip-path="url(#p9f7bbfb3c6)" style="fill: none; stroke: #338dff"/>
    <path d="M 225.692724 307.32827 
L 225.692724 219.853977 
" clip-path="url(#p9f7bbfb3c6)" style="fill: none; stroke: #338dff"/>
    <path d="M 301.170985 318.174569 
L 301.170985 237.018918 
" clip-path="url(#p9f7bbfb3c6)" style="fill: none; stroke: #338dff"/>
    <path d="M 376.725383 321.364484 
L 376.725383 233.852241 
" clip-path="url(#p9f7bbfb3c6)" style="fill: none; stroke: #338dff"/>
   </g>
   <g id="line2d_13">
    <path d="M 74.736202 297.663976 
L 76.434463 228.698792 
L 77.283594 204.234749 
L 78.132724 185.826022 
L 78.981855 171.662919 
L 79.830985 160.552237 
L 80.680115 151.698981 
L 81.529246 144.565824 
L 82.378376 138.782877 
L 83.227507 134.089697 
L 84.076637 130.297961 
L 84.925768 127.267397 
L 85.774898 124.890204 
L 86.624029 123.080937 
L 87.473159 121.769897 
L 88.322289 120.898775 
L 89.17142 120.417751 
L 90.02055 120.28354 
L 90.869681 120.458044 
L 91.718811 120.907403 
L 92.567942 121.601312 
L 93.417072 122.512512 
L 95.115333 124.890705 
L 96.813594 127.871766 
L 98.511855 131.315748 
L 101.059246 137.10331 
L 104.455768 145.526573 
L 116.343594 175.784108 
L 120.589246 185.711478 
L 123.985768 193.134079 
L 127.382289 200.071914 
L 130.778811 206.524483 
L 134.175333 212.503676 
L 137.571855 218.029073 
L 140.968376 223.124714 
L 144.364898 227.816909 
L 147.76142 232.132769 
L 151.157942 236.099234 
L 154.554463 239.742455 
L 157.950985 243.087412 
L 161.347507 246.157702 
L 164.744029 248.975432 
L 168.989681 252.173658 
L 173.235333 255.046256 
L 177.480985 257.626673 
L 181.726637 259.945084 
L 185.972289 262.028646 
L 191.067072 264.253097 
L 196.161855 266.211813 
L 201.256637 267.937634 
L 207.20055 269.694925 
L 213.144463 271.213854 
L 219.937507 272.70119 
L 226.73055 273.96426 
L 234.372724 275.161657 
L 242.864029 276.263685 
L 252.204463 277.25213 
L 263.243159 278.183218 
L 275.980115 279.015413 
L 290.415333 279.729821 
L 308.247072 280.379501 
L 330.324463 280.952073 
L 360.044029 281.484642 
L 402.50055 282.003073 
L 414.388376 282.120022 
L 414.388376 282.120022 
" clip-path="url(#p9f7bbfb3c6)" style="fill: none; stroke: #000000; stroke-width: 2; stroke-linecap: square"/>
   </g>
   <g id="line2d_14">
    <path d="M 84.170985 287.975987 
L 93.605768 272.137786 
L 103.04055 269.147857 
L 112.475333 259.707658 
L 131.344898 270.950139 
L 150.214463 279.011041 
L 187.953594 280.35646 
L 225.692724 279.817324 
L 301.170985 287.652699 
" clip-path="url(#p9f7bbfb3c6)" style="fill: none; stroke-dasharray: 3.7,1.6; stroke-dashoffset: 0; stroke: #000000"/>
    <defs>
     <path id="m4e76c19a35" d="M -3 3 
L 3 3 
L 3 -3 
L -3 -3 
z
" style="stroke: #000000; stroke-linejoin: miter"/>
    </defs>
    <g clip-path="url(#p9f7bbfb3c6)">
     <use xlink:href="#m4e76c19a35" x="84.170985" y="287.975987" style="stroke: #000000; stroke-linejoin: miter"/>
     <use xlink:href="#m4e76c19a35" x="93.605768" y="272.137786" style="stroke: #000000; stroke-linejoin: miter"/>
     <use xlink:href="#m4e76c19a35" x="103.04055" y="269.147857" style="stroke: #000000; stroke-linejoin: miter"/>
     <use xlink:href="#m4e76c19a35" x="112.475333" y="259.707658" style="stroke: #000000; stroke-linejoin: miter"/>
     <use xlink:href="#m4e76c19a35" x="131.344898" y="270.950139" style="stroke: #000000; stroke-linejoin: miter"/>
     <use xlink:href="#m4e76c19a35" x="150.214463" y="279.011041" style="stroke: #000000; stroke-linejoin: miter"/>
     <use xlink:href="#m4e76c19a35" x="187.953594" y="280.35646" style="stroke: #000000; stroke-linejoin: miter"/>
     <use xlink:href="#m4e76c19a35" x="225.692724" y="279.817324" style="stroke: #000000; stroke-linejoin: miter"/>
     <use xlink:href="#m4e76c19a35" x="301.170985" y="287.652699" style="stroke: #000000; stroke-linejoin: miter"/>
    </g>
   </g>
   <g id="line2d_15">
    <path d="M 74.736202 297.663976 
L 76.434463 227.505575 
L 77.283594 201.751804 
L 78.132724 181.902603 
L 78.981855 166.262747 
L 79.830985 153.699353 
L 80.680115 143.447723 
L 81.529246 134.984552 
L 82.378376 127.945396 
L 83.227507 122.070911 
L 84.076637 117.171791 
L 84.925768 113.105861 
L 85.774898 109.763067 
L 86.624029 107.055619 
L 87.473159 104.911477 
L 88.322289 103.270024 
L 89.17142 102.079162 
L 90.02055 101.293343 
L 90.869681 100.87221 
L 91.718811 100.779647 
L 92.567942 100.983086 
L 93.417072 101.453006 
L 94.266202 102.162544 
L 95.115333 103.08719 
L 96.813594 105.494116 
L 98.511855 108.516413 
L 100.210115 112.02211 
L 102.757507 117.949927 
L 106.154029 126.655863 
L 112.947072 145.0584 
L 118.041855 158.594197 
L 122.287507 169.269818 
L 125.684029 177.30741 
L 129.08055 184.860017 
L 132.477072 191.916702 
L 135.873594 198.481599 
L 139.270115 204.568801 
L 142.666637 210.198721 
L 146.063159 215.395513 
L 149.459681 220.185269 
L 152.856202 224.59477 
L 156.252724 228.650637 
L 159.649246 232.378768 
L 163.045768 235.803979 
L 166.442289 238.94979 
L 169.838811 241.838313 
L 174.084463 245.118492 
L 178.330115 248.066022 
L 182.575768 250.714684 
L 186.82142 253.095045 
L 191.067072 255.234683 
L 195.312724 257.158424 
L 200.407507 259.213184 
L 205.502289 261.023329 
L 210.597072 262.61893 
L 216.540985 264.244295 
L 222.484898 265.649718 
L 229.277942 267.026318 
L 236.920115 268.328837 
L 245.41142 269.524388 
L 254.751855 270.592684 
L 264.94142 271.525 
L 276.829246 272.375968 
L 290.415333 273.115659 
L 306.548811 273.763767 
L 326.078811 274.321936 
L 351.552724 274.816771 
L 386.367072 275.25388 
L 414.388376 275.497257 
L 414.388376 275.497257 
" clip-path="url(#p9f7bbfb3c6)" style="fill: none; stroke: #338dff; stroke-width: 2; stroke-linecap: square"/>
   </g>
   <g id="line2d_16">
    <path d="M 93.605768 237.140799 
L 103.04055 248.772125 
L 112.475333 251.467897 
L 131.344898 233.937633 
L 150.214463 206.244 
L 187.953594 251.47177 
L 225.692724 263.591124 
L 301.170985 277.596743 
L 376.725383 277.608363 
" clip-path="url(#p9f7bbfb3c6)" style="fill: none; stroke-dasharray: 3.7,1.6; stroke-dashoffset: 0; stroke: #338dff"/>
    <defs>
     <path id="m02c54a3aa9" d="M -3 3 
L 3 3 
L 3 -3 
L -3 -3 
z
" style="stroke: #000000; stroke-linejoin: miter"/>
    </defs>
    <g clip-path="url(#p9f7bbfb3c6)">
     <use xlink:href="#m02c54a3aa9" x="93.605768" y="237.140799" style="fill: #338dff; stroke: #000000; stroke-linejoin: miter"/>
     <use xlink:href="#m02c54a3aa9" x="103.04055" y="248.772125" style="fill: #338dff; stroke: #000000; stroke-linejoin: miter"/>
     <use xlink:href="#m02c54a3aa9" x="112.475333" y="251.467897" style="fill: #338dff; stroke: #000000; stroke-linejoin: miter"/>
     <use xlink:href="#m02c54a3aa9" x="131.344898" y="233.937633" style="fill: #338dff; stroke: #000000; stroke-linejoin: miter"/>
     <use xlink:href="#m02c54a3aa9" x="150.214463" y="206.244" style="fill: #338dff; stroke: #000000; stroke-linejoin: miter"/>
     <use xlink:href="#m02c54a3aa9" x="187.953594" y="251.47177" style="fill: #338dff; stroke: #000000; stroke-linejoin: miter"/>
     <use xlink:href="#m02c54a3aa9" x="225.692724" y="263.591124" style="fill: #338dff; stroke: #000000; stroke-linejoin: miter"/>
     <use xlink:href="#m02c54a3aa9" x="301.170985" y="277.596743" style="fill: #338dff; stroke: #000000; stroke-linejoin: miter"/>
     <use xlink:href="#m02c54a3aa9" x="376.725383" y="277.608363" style="fill: #338dff; stroke: #000000; stroke-linejoin: miter"/>
    </g>
   </g>
   <g id="patch_3">
    <path d="M 57.753594 364.248 
L 57.753594 48.24 
" style="fill: none; stroke: #000000; stroke-width: 0.8; stroke-linejoin: miter; stroke-linecap: square"/>
   </g>
   <g id="patch_4">
    <path d="M 431.370985 364.248 
L 431.370985 48.24 
" style="fill: none; stroke: #000000; stroke-width: 0.8; stroke-linejoin: miter; stroke-linecap: square"/>
   </g>
   <g id="patch_5">
    <path d="M 57.753594 364.248 
L 431.370985 364.248 
" style="fill: none; stroke: #000000; stroke-width: 0.8; stroke-linejoin: miter; stroke-linecap: square"/>
   </g>
   <g id="patch_6">
    <path d="M 57.753594 48.24 
L 431.370985 48.24 
" style="fill: none; stroke: #000000; stroke-width: 0.8; stroke-linejoin: miter; stroke-linecap: square"/>
   </g>
   <g id="legend_1">
    <g id="patch_7">
     <path d="M 247.770985 114.9525 
L 424.370985 114.9525 
Q 426.370985 114.9525 426.370985 112.9525 
L 426.370985 55.24 
Q 426.370985 53.24 424.370985 53.24 
L 247.770985 53.24 
Q 245.770985 53.24 245.770985 55.24 
L 245.770985 112.9525 
Q 245.770985 114.9525 247.770985 114.9525 
z
" style="fill: #ffffff; opacity: 0.8; stroke: #cccccc; stroke-linejoin: miter"/>
    </g>
    <g id="line2d_17">
     <path d="M 249.770985 61.338437 
L 269.770985 61.338437 
" style="fill: none; stroke: #000000; stroke-width: 2; stroke-linecap: square"/>
    </g>
    <g id="line2d_18"/>
    <g id="text_15">
     <!-- sim: 50mg PO -->
     <g transform="translate(277.770985 64.838437) scale(0.1 -0.1)">
      <defs>
       <path id="DejaVuSans-73" d="M 2834 3397 
L 2834 2853 
Q 2591 2978 2328 3040 
Q 2066 3103 1784 3103 
Q 1356 3103 1142 2972 
Q 928 2841 928 2578 
Q 928 2378 1081 2264 
Q 1234 2150 1697 2047 
L 1894 2003 
Q 2506 1872 2764 1633 
Q 3022 1394 3022 966 
Q 3022 478 2636 193 
Q 2250 -91 1575 -91 
Q 1294 -91 989 -36 
Q 684 19 347 128 
L 347 722 
Q 666 556 975 473 
Q 1284 391 1588 391 
Q 1994 391 2212 530 
Q 2431 669 2431 922 
Q 2431 1156 2273 1281 
Q 2116 1406 1581 1522 
L 1381 1569 
Q 847 1681 609 1914 
Q 372 2147 372 2553 
Q 372 3047 722 3315 
Q 1072 3584 1716 3584 
Q 2034 3584 2315 3537 
Q 2597 3491 2834 3397 
z
" transform="scale(0.015625)"/>
       <path id="DejaVuSans-69" d="M 603 3500 
L 1178 3500 
L 1178 0 
L 603 0 
L 603 3500 
z
M 603 4863 
L 1178 4863 
L 1178 4134 
L 603 4134 
L 603 4863 
z
" transform="scale(0.015625)"/>
       <path id="DejaVuSans-6d" d="M 3328 2828 
Q 3544 3216 3844 3400 
Q 4144 3584 4550 3584 
Q 5097 3584 5394 3201 
Q 5691 2819 5691 2113 
L 5691 0 
L 5113 0 
L 5113 2094 
Q 5113 2597 4934 2840 
Q 4756 3084 4391 3084 
Q 3944 3084 3684 2787 
Q 3425 2491 3425 1978 
L 3425 0 
L 2847 0 
L 2847 2094 
Q 2847 2600 2669 2842 
Q 2491 3084 2119 3084 
Q 1678 3084 1418 2786 
Q 1159 2488 1159 1978 
L 1159 0 
L 581 0 
L 581 3500 
L 1159 3500 
L 1159 2956 
Q 1356 3278 1631 3431 
Q 1906 3584 2284 3584 
Q 2666 3584 2933 3390 
Q 3200 3197 3328 2828 
z
" transform="scale(0.015625)"/>
       <path id="DejaVuSans-3a" d="M 750 794 
L 1409 794 
L 1409 0 
L 750 0 
L 750 794 
z
M 750 3309 
L 1409 3309 
L 1409 2516 
L 750 2516 
L 750 3309 
z
" transform="scale(0.015625)"/>
       <path id="DejaVuSans-20" transform="scale(0.015625)"/>
       <path id="DejaVuSans-67" d="M 2906 1791 
Q 2906 2416 2648 2759 
Q 2391 3103 1925 3103 
Q 1463 3103 1205 2759 
Q 947 2416 947 1791 
Q 947 1169 1205 825 
Q 1463 481 1925 481 
Q 2391 481 2648 825 
Q 2906 1169 2906 1791 
z
M 3481 434 
Q 3481 -459 3084 -895 
Q 2688 -1331 1869 -1331 
Q 1566 -1331 1297 -1286 
Q 1028 -1241 775 -1147 
L 775 -588 
Q 1028 -725 1275 -790 
Q 1522 -856 1778 -856 
Q 2344 -856 2625 -561 
Q 2906 -266 2906 331 
L 2906 616 
Q 2728 306 2450 153 
Q 2172 0 1784 0 
Q 1141 0 747 490 
Q 353 981 353 1791 
Q 353 2603 747 3093 
Q 1141 3584 1784 3584 
Q 2172 3584 2450 3431 
Q 2728 3278 2906 2969 
L 2906 3500 
L 3481 3500 
L 3481 434 
z
" transform="scale(0.015625)"/>
       <path id="DejaVuSans-50" d="M 1259 4147 
L 1259 2394 
L 2053 2394 
Q 2494 2394 2734 2622 
Q 2975 2850 2975 3272 
Q 2975 3691 2734 3919 
Q 2494 4147 2053 4147 
L 1259 4147 
z
M 628 4666 
L 2053 4666 
Q 2838 4666 3239 4311 
Q 3641 3956 3641 3272 
Q 3641 2581 3239 2228 
Q 2838 1875 2053 1875 
L 1259 1875 
L 1259 0 
L 628 0 
L 628 4666 
z
" transform="scale(0.015625)"/>
       <path id="DejaVuSans-4f" d="M 2522 4238 
Q 1834 4238 1429 3725 
Q 1025 3213 1025 2328 
Q 1025 1447 1429 934 
Q 1834 422 2522 422 
Q 3209 422 3611 934 
Q 4013 1447 4013 2328 
Q 4013 3213 3611 3725 
Q 3209 4238 2522 4238 
z
M 2522 4750 
Q 3503 4750 4090 4092 
Q 4678 3434 4678 2328 
Q 4678 1225 4090 567 
Q 3503 -91 2522 -91 
Q 1538 -91 948 565 
Q 359 1222 359 2328 
Q 359 3434 948 4092 
Q 1538 4750 2522 4750 
z
" transform="scale(0.015625)"/>
      </defs>
      <use xlink:href="#DejaVuSans-73"/>
      <use xlink:href="#DejaVuSans-69" transform="translate(52.099609 0)"/>
      <use xlink:href="#DejaVuSans-6d" transform="translate(79.882812 0)"/>
      <use xlink:href="#DejaVuSans-3a" transform="translate(177.294922 0)"/>
      <use xlink:href="#DejaVuSans-20" transform="translate(210.986328 0)"/>
      <use xlink:href="#DejaVuSans-35" transform="translate(242.773438 0)"/>
      <use xlink:href="#DejaVuSans-30" transform="translate(306.396484 0)"/>
      <use xlink:href="#DejaVuSans-6d" transform="translate(370.019531 0)"/>
      <use xlink:href="#DejaVuSans-67" transform="translate(467.431641 0)"/>
      <use xlink:href="#DejaVuSans-20" transform="translate(530.908203 0)"/>
      <use xlink:href="#DejaVuSans-50" transform="translate(562.695312 0)"/>
      <use xlink:href="#DejaVuSans-4f" transform="translate(622.998047 0)"/>
     </g>
    </g>
    <g id="LineCollection_3">
     <path d="M 259.770985 81.016562 
L 259.770985 71.016562 
" style="fill: none; stroke: #000000"/>
    </g>
    <g id="line2d_19">
     <path d="M 249.770985 76.016562 
L 269.770985 76.016562 
" style="fill: none; stroke-dasharray: 3.7,1.6; stroke-dashoffset: 0; stroke: #000000"/>
    </g>
    <g id="line2d_20">
     <g>
      <use xlink:href="#m4e76c19a35" x="259.770985" y="76.016562" style="stroke: #000000; stroke-linejoin: miter"/>
     </g>
    </g>
    <g id="text_16">
     <!-- exp: 50mg PO±SD (n=8) -->
     <g transform="translate(277.770985 79.516562) scale(0.1 -0.1)">
      <defs>
       <path id="DejaVuSans-65" d="M 3597 1894 
L 3597 1613 
L 953 1613 
Q 991 1019 1311 708 
Q 1631 397 2203 397 
Q 2534 397 2845 478 
Q 3156 559 3463 722 
L 3463 178 
Q 3153 47 2828 -22 
Q 2503 -91 2169 -91 
Q 1331 -91 842 396 
Q 353 884 353 1716 
Q 353 2575 817 3079 
Q 1281 3584 2069 3584 
Q 2775 3584 3186 3129 
Q 3597 2675 3597 1894 
z
M 3022 2063 
Q 3016 2534 2758 2815 
Q 2500 3097 2075 3097 
Q 1594 3097 1305 2825 
Q 1016 2553 972 2059 
L 3022 2063 
z
" transform="scale(0.015625)"/>
       <path id="DejaVuSans-78" d="M 3513 3500 
L 2247 1797 
L 3578 0 
L 2900 0 
L 1881 1375 
L 863 0 
L 184 0 
L 1544 1831 
L 300 3500 
L 978 3500 
L 1906 2253 
L 2834 3500 
L 3513 3500 
z
" transform="scale(0.015625)"/>
       <path id="DejaVuSans-70" d="M 1159 525 
L 1159 -1331 
L 581 -1331 
L 581 3500 
L 1159 3500 
L 1159 2969 
Q 1341 3281 1617 3432 
Q 1894 3584 2278 3584 
Q 2916 3584 3314 3078 
Q 3713 2572 3713 1747 
Q 3713 922 3314 415 
Q 2916 -91 2278 -91 
Q 1894 -91 1617 61 
Q 1341 213 1159 525 
z
M 3116 1747 
Q 3116 2381 2855 2742 
Q 2594 3103 2138 3103 
Q 1681 3103 1420 2742 
Q 1159 2381 1159 1747 
Q 1159 1113 1420 752 
Q 1681 391 2138 391 
Q 2594 391 2855 752 
Q 3116 1113 3116 1747 
z
" transform="scale(0.015625)"/>
       <path id="DejaVuSans-b1" d="M 2944 4013 
L 2944 2803 
L 4684 2803 
L 4684 2272 
L 2944 2272 
L 2944 1063 
L 2419 1063 
L 2419 2272 
L 678 2272 
L 678 2803 
L 2419 2803 
L 2419 4013 
L 2944 4013 
z
M 678 531 
L 4684 531 
L 4684 0 
L 678 0 
L 678 531 
z
" transform="scale(0.015625)"/>
       <path id="DejaVuSans-53" d="M 3425 4513 
L 3425 3897 
Q 3066 4069 2747 4153 
Q 2428 4238 2131 4238 
Q 1616 4238 1336 4038 
Q 1056 3838 1056 3469 
Q 1056 3159 1242 3001 
Q 1428 2844 1947 2747 
L 2328 2669 
Q 3034 2534 3370 2195 
Q 3706 1856 3706 1288 
Q 3706 609 3251 259 
Q 2797 -91 1919 -91 
Q 1588 -91 1214 -16 
Q 841 59 441 206 
L 441 856 
Q 825 641 1194 531 
Q 1563 422 1919 422 
Q 2459 422 2753 634 
Q 3047 847 3047 1241 
Q 3047 1584 2836 1778 
Q 2625 1972 2144 2069 
L 1759 2144 
Q 1053 2284 737 2584 
Q 422 2884 422 3419 
Q 422 4038 858 4394 
Q 1294 4750 2059 4750 
Q 2388 4750 2728 4690 
Q 3069 4631 3425 4513 
z
" transform="scale(0.015625)"/>
       <path id="DejaVuSans-44" d="M 1259 4147 
L 1259 519 
L 2022 519 
Q 2988 519 3436 956 
Q 3884 1394 3884 2338 
Q 3884 3275 3436 3711 
Q 2988 4147 2022 4147 
L 1259 4147 
z
M 628 4666 
L 1925 4666 
Q 3281 4666 3915 4102 
Q 4550 3538 4550 2338 
Q 4550 1131 3912 565 
Q 3275 0 1925 0 
L 628 0 
L 628 4666 
z
" transform="scale(0.015625)"/>
       <path id="DejaVuSans-28" d="M 1984 4856 
Q 1566 4138 1362 3434 
Q 1159 2731 1159 2009 
Q 1159 1288 1364 580 
Q 1569 -128 1984 -844 
L 1484 -844 
Q 1016 -109 783 600 
Q 550 1309 550 2009 
Q 550 2706 781 3412 
Q 1013 4119 1484 4856 
L 1984 4856 
z
" transform="scale(0.015625)"/>
       <path id="DejaVuSans-6e" d="M 3513 2113 
L 3513 0 
L 2938 0 
L 2938 2094 
Q 2938 2591 2744 2837 
Q 2550 3084 2163 3084 
Q 1697 3084 1428 2787 
Q 1159 2491 1159 1978 
L 1159 0 
L 581 0 
L 581 3500 
L 1159 3500 
L 1159 2956 
Q 1366 3272 1645 3428 
Q 1925 3584 2291 3584 
Q 2894 3584 3203 3211 
Q 3513 2838 3513 2113 
z
" transform="scale(0.015625)"/>
       <path id="DejaVuSans-3d" d="M 678 2906 
L 4684 2906 
L 4684 2381 
L 678 2381 
L 678 2906 
z
M 678 1631 
L 4684 1631 
L 4684 1100 
L 678 1100 
L 678 1631 
z
" transform="scale(0.015625)"/>
       <path id="DejaVuSans-29" d="M 513 4856 
L 1013 4856 
Q 1481 4119 1714 3412 
Q 1947 2706 1947 2009 
Q 1947 1309 1714 600 
Q 1481 -109 1013 -844 
L 513 -844 
Q 928 -128 1133 580 
Q 1338 1288 1338 2009 
Q 1338 2731 1133 3434 
Q 928 4138 513 4856 
z
" transform="scale(0.015625)"/>
      </defs>
      <use xlink:href="#DejaVuSans-65"/>
      <use xlink:href="#DejaVuSans-78" transform="translate(59.773438 0)"/>
      <use xlink:href="#DejaVuSans-70" transform="translate(118.953125 0)"/>
      <use xlink:href="#DejaVuSans-3a" transform="translate(182.429688 0)"/>
      <use xlink:href="#DejaVuSans-20" transform="translate(216.121094 0)"/>
      <use xlink:href="#DejaVuSans-35" transform="translate(247.908203 0)"/>
      <use xlink:href="#DejaVuSans-30" transform="translate(311.53125 0)"/>
      <use xlink:href="#DejaVuSans-6d" transform="translate(375.154297 0)"/>
      <use xlink:href="#DejaVuSans-67" transform="translate(472.566406 0)"/>
      <use xlink:href="#DejaVuSans-20" transform="translate(536.042969 0)"/>
      <use xlink:href="#DejaVuSans-50" transform="translate(567.830078 0)"/>
      <use xlink:href="#DejaVuSans-4f" transform="translate(628.132812 0)"/>
      <use xlink:href="#DejaVuSans-b1" transform="translate(706.84375 0)"/>
      <use xlink:href="#DejaVuSans-53" transform="translate(790.632812 0)"/>
      <use xlink:href="#DejaVuSans-44" transform="translate(854.109375 0)"/>
      <use xlink:href="#DejaVuSans-20" transform="translate(931.111328 0)"/>
      <use xlink:href="#DejaVuSans-28" transform="translate(962.898438 0)"/>
      <use xlink:href="#DejaVuSans-6e" transform="translate(1001.912109 0)"/>
      <use xlink:href="#DejaVuSans-3d" transform="translate(1065.291016 0)"/>
      <use xlink:href="#DejaVuSans-38" transform="translate(1149.080078 0)"/>
      <use xlink:href="#DejaVuSans-29" transform="translate(1212.703125 0)"/>
     </g>
    </g>
    <g id="line2d_21">
     <path d="M 249.770985 90.694687 
L 269.770985 90.694687 
" style="fill: none; stroke: #338dff; stroke-width: 2; stroke-linecap: square"/>
    </g>
    <g id="line2d_22"/>
    <g id="text_17">
     <!-- SRI sim: 50mg PO -->
     <g transform="translate(277.770985 94.194687) scale(0.1 -0.1)">
      <defs>
       <path id="DejaVuSans-52" d="M 2841 2188 
Q 3044 2119 3236 1894 
Q 3428 1669 3622 1275 
L 4263 0 
L 3584 0 
L 2988 1197 
Q 2756 1666 2539 1819 
Q 2322 1972 1947 1972 
L 1259 1972 
L 1259 0 
L 628 0 
L 628 4666 
L 2053 4666 
Q 2853 4666 3247 4331 
Q 3641 3997 3641 3322 
Q 3641 2881 3436 2590 
Q 3231 2300 2841 2188 
z
M 1259 4147 
L 1259 2491 
L 2053 2491 
Q 2509 2491 2742 2702 
Q 2975 2913 2975 3322 
Q 2975 3731 2742 3939 
Q 2509 4147 2053 4147 
L 1259 4147 
z
" transform="scale(0.015625)"/>
       <path id="DejaVuSans-49" d="M 628 4666 
L 1259 4666 
L 1259 0 
L 628 0 
L 628 4666 
z
" transform="scale(0.015625)"/>
      </defs>
      <use xlink:href="#DejaVuSans-53"/>
      <use xlink:href="#DejaVuSans-52" transform="translate(63.476562 0)"/>
      <use xlink:href="#DejaVuSans-49" transform="translate(132.958984 0)"/>
      <use xlink:href="#DejaVuSans-20" transform="translate(162.451172 0)"/>
      <use xlink:href="#DejaVuSans-73" transform="translate(194.238281 0)"/>
      <use xlink:href="#DejaVuSans-69" transform="translate(246.337891 0)"/>
      <use xlink:href="#DejaVuSans-6d" transform="translate(274.121094 0)"/>
      <use xlink:href="#DejaVuSans-3a" transform="translate(371.533203 0)"/>
      <use xlink:href="#DejaVuSans-20" transform="translate(405.224609 0)"/>
      <use xlink:href="#DejaVuSans-35" transform="translate(437.011719 0)"/>
      <use xlink:href="#DejaVuSans-30" transform="translate(500.634766 0)"/>
      <use xlink:href="#DejaVuSans-6d" transform="translate(564.257812 0)"/>
      <use xlink:href="#DejaVuSans-67" transform="translate(661.669922 0)"/>
      <use xlink:href="#DejaVuSans-20" transform="translate(725.146484 0)"/>
      <use xlink:href="#DejaVuSans-50" transform="translate(756.933594 0)"/>
      <use xlink:href="#DejaVuSans-4f" transform="translate(817.236328 0)"/>
     </g>
    </g>
    <g id="LineCollection_4">
     <path d="M 259.770985 110.372812 
L 259.770985 100.372812 
" style="fill: none; stroke: #338dff"/>
    </g>
    <g id="line2d_23">
     <path d="M 249.770985 105.372812 
L 269.770985 105.372812 
" style="fill: none; stroke-dasharray: 3.7,1.6; stroke-dashoffset: 0; stroke: #338dff"/>
    </g>
    <g id="line2d_24">
     <g>
      <use xlink:href="#m02c54a3aa9" x="259.770985" y="105.372812" style="fill: #338dff; stroke: #000000; stroke-linejoin: miter"/>
     </g>
    </g>
    <g id="text_18">
     <!-- SRI exp: 50mg PO±SD (n=6) -->
     <g transform="translate(277.770985 108.872812) scale(0.1 -0.1)">
      <use xlink:href="#DejaVuSans-53"/>
      <use xlink:href="#DejaVuSans-52" transform="translate(63.476562 0)"/>
      <use xlink:href="#DejaVuSans-49" transform="translate(132.958984 0)"/>
      <use xlink:href="#DejaVuSans-20" transform="translate(162.451172 0)"/>
      <use xlink:href="#DejaVuSans-65" transform="translate(194.238281 0)"/>
      <use xlink:href="#DejaVuSans-78" transform="translate(254.011719 0)"/>
      <use xlink:href="#DejaVuSans-70" transform="translate(313.191406 0)"/>
      <use xlink:href="#DejaVuSans-3a" transform="translate(376.667969 0)"/>
      <use xlink:href="#DejaVuSans-20" transform="translate(410.359375 0)"/>
      <use xlink:href="#DejaVuSans-35" transform="translate(442.146484 0)"/>
      <use xlink:href="#DejaVuSans-30" transform="translate(505.769531 0)"/>
      <use xlink:href="#DejaVuSans-6d" transform="translate(569.392578 0)"/>
      <use xlink:href="#DejaVuSans-67" transform="translate(666.804688 0)"/>
      <use xlink:href="#DejaVuSans-20" transform="translate(730.28125 0)"/>
      <use xlink:href="#DejaVuSans-50" transform="translate(762.068359 0)"/>
      <use xlink:href="#DejaVuSans-4f" transform="translate(822.371094 0)"/>
      <use xlink:href="#DejaVuSans-b1" transform="translate(901.082031 0)"/>
      <use xlink:href="#DejaVuSans-53" transform="translate(984.871094 0)"/>
      <use xlink:href="#DejaVuSans-44" transform="translate(1048.347656 0)"/>
      <use xlink:href="#DejaVuSans-20" transform="translate(1125.349609 0)"/>
      <use xlink:href="#DejaVuSans-28" transform="translate(1157.136719 0)"/>
      <use xlink:href="#DejaVuSans-6e" transform="translate(1196.150391 0)"/>
      <use xlink:href="#DejaVuSans-3d" transform="translate(1259.529297 0)"/>
      <use xlink:href="#DejaVuSans-36" transform="translate(1343.318359 0)"/>
      <use xlink:href="#DejaVuSans-29" transform="translate(1406.941406 0)"/>
     </g>
    </g>
   </g>
  </g>
  <g id="axes_2">
   <g id="patch_8">
    <path d="M 543.456202 364.248 
L 917.073594 364.248 
L 917.073594 48.24 
L 543.456202 48.24 
z
" style="fill: #ffffff"/>
   </g>
   <g id="matplotlib.axis_3">
    <g id="xtick_6">
     <g id="line2d_25">
      <g>
       <use xlink:href="#mf8309d6a05" x="560.438811" y="364.248" style="stroke: #000000; stroke-width: 0.8"/>
      </g>
     </g>
     <g id="text_19">
      <!-- 0 -->
      <g transform="translate(555.666936 382.645656) scale(0.15 -0.15)">
       <use xlink:href="#DejaVuSans-30"/>
      </g>
     </g>
    </g>
    <g id="xtick_7">
     <g id="line2d_26">
      <g>
       <use xlink:href="#mf8309d6a05" x="635.917072" y="364.248" style="stroke: #000000; stroke-width: 0.8"/>
      </g>
     </g>
     <g id="text_20">
      <!-- 2 -->
      <g transform="translate(631.145197 382.645656) scale(0.15 -0.15)">
       <use xlink:href="#DejaVuSans-32"/>
      </g>
     </g>
    </g>
    <g id="xtick_8">
     <g id="line2d_27">
      <g>
       <use xlink:href="#mf8309d6a05" x="711.395333" y="364.248" style="stroke: #000000; stroke-width: 0.8"/>
      </g>
     </g>
     <g id="text_21">
      <!-- 4 -->
      <g transform="translate(706.623458 382.645656) scale(0.15 -0.15)">
       <use xlink:href="#DejaVuSans-34"/>
      </g>
     </g>
    </g>
    <g id="xtick_9">
     <g id="line2d_28">
      <g>
       <use xlink:href="#mf8309d6a05" x="786.873594" y="364.248" style="stroke: #000000; stroke-width: 0.8"/>
      </g>
     </g>
     <g id="text_22">
      <!-- 6 -->
      <g transform="translate(782.101719 382.645656) scale(0.15 -0.15)">
       <use xlink:href="#DejaVuSans-36"/>
      </g>
     </g>
    </g>
    <g id="xtick_10">
     <g id="line2d_29">
      <g>
       <use xlink:href="#mf8309d6a05" x="862.351855" y="364.248" style="stroke: #000000; stroke-width: 0.8"/>
      </g>
     </g>
     <g id="text_23">
      <!-- 8 -->
      <g transform="translate(857.57998 382.645656) scale(0.15 -0.15)">
       <use xlink:href="#DejaVuSans-38"/>
      </g>
     </g>
    </g>
    <g id="text_24">
     <!-- time [hr] -->
     <g transform="translate(685.190367 403.442375) scale(0.18 -0.18)">
      <use xlink:href="#DejaVuSans-Bold-74"/>
      <use xlink:href="#DejaVuSans-Bold-69" transform="translate(47.802734 0)"/>
      <use xlink:href="#DejaVuSans-Bold-6d" transform="translate(82.080078 0)"/>
      <use xlink:href="#DejaVuSans-Bold-65" transform="translate(186.279297 0)"/>
      <use xlink:href="#DejaVuSans-Bold-20" transform="translate(254.101562 0)"/>
      <use xlink:href="#DejaVuSans-Bold-5b" transform="translate(288.916016 0)"/>
      <use xlink:href="#DejaVuSans-Bold-68" transform="translate(334.619141 0)"/>
      <use xlink:href="#DejaVuSans-Bold-72" transform="translate(405.810547 0)"/>
      <use xlink:href="#DejaVuSans-Bold-5d" transform="translate(455.126953 0)"/>
     </g>
    </g>
   </g>
   <g id="matplotlib.axis_4">
    <g id="ytick_8">
     <g id="line2d_30">
      <g>
       <use xlink:href="#m8de1ee2d31" x="543.456202" y="332.618049" style="stroke: #000000; stroke-width: 0.8"/>
      </g>
     </g>
     <g id="text_25">
      <!-- 0 -->
      <g transform="translate(526.912452 338.316877) scale(0.15 -0.15)">
       <use xlink:href="#DejaVuSans-30"/>
      </g>
     </g>
    </g>
    <g id="ytick_9">
     <g id="line2d_31">
      <g>
       <use xlink:href="#m8de1ee2d31" x="543.456202" y="263.583717" style="stroke: #000000; stroke-width: 0.8"/>
      </g>
     </g>
     <g id="text_26">
      <!-- 5 -->
      <g transform="translate(526.912452 269.282545) scale(0.15 -0.15)">
       <use xlink:href="#DejaVuSans-35"/>
      </g>
     </g>
    </g>
    <g id="ytick_10">
     <g id="line2d_32">
      <g>
       <use xlink:href="#m8de1ee2d31" x="543.456202" y="194.549385" style="stroke: #000000; stroke-width: 0.8"/>
      </g>
     </g>
     <g id="text_27">
      <!-- 10 -->
      <g transform="translate(517.368702 200.248213) scale(0.15 -0.15)">
       <use xlink:href="#DejaVuSans-31"/>
       <use xlink:href="#DejaVuSans-30" transform="translate(63.623047 0)"/>
      </g>
     </g>
    </g>
    <g id="ytick_11">
     <g id="line2d_33">
      <g>
       <use xlink:href="#m8de1ee2d31" x="543.456202" y="125.515053" style="stroke: #000000; stroke-width: 0.8"/>
      </g>
     </g>
     <g id="text_28">
      <!-- 15 -->
      <g transform="translate(517.368702 131.213881) scale(0.15 -0.15)">
       <use xlink:href="#DejaVuSans-31"/>
       <use xlink:href="#DejaVuSans-35" transform="translate(63.623047 0)"/>
      </g>
     </g>
    </g>
    <g id="ytick_12">
     <g id="line2d_34">
      <g>
       <use xlink:href="#m8de1ee2d31" x="543.456202" y="56.480721" style="stroke: #000000; stroke-width: 0.8"/>
      </g>
     </g>
     <g id="text_29">
      <!-- 20 -->
      <g transform="translate(517.368702 62.179549) scale(0.15 -0.15)">
       <use xlink:href="#DejaVuSans-32"/>
       <use xlink:href="#DejaVuSans-30" transform="translate(63.623047 0)"/>
      </g>
     </g>
    </g>
    <g id="text_30">
     <!-- captopril + capss [µM] -->
     <g transform="translate(509.605577 320.940562) rotate(-90) scale(0.18 -0.18)">
      <defs>
       <path id="DejaVuSans-Bold-2b" d="M 3053 4013 
L 3053 2375 
L 4684 2375 
L 4684 1638 
L 3053 1638 
L 3053 0 
L 2309 0 
L 2309 1638 
L 678 1638 
L 678 2375 
L 2309 2375 
L 2309 4013 
L 3053 4013 
z
" transform="scale(0.015625)"/>
       <path id="DejaVuSans-Bold-73" d="M 3272 3391 
L 3272 2541 
Q 2913 2691 2578 2766 
Q 2244 2841 1947 2841 
Q 1628 2841 1473 2761 
Q 1319 2681 1319 2516 
Q 1319 2381 1436 2309 
Q 1553 2238 1856 2203 
L 2053 2175 
Q 2913 2066 3209 1816 
Q 3506 1566 3506 1031 
Q 3506 472 3093 190 
Q 2681 -91 1863 -91 
Q 1516 -91 1145 -36 
Q 775 19 384 128 
L 384 978 
Q 719 816 1070 734 
Q 1422 653 1784 653 
Q 2113 653 2278 743 
Q 2444 834 2444 1013 
Q 2444 1163 2330 1236 
Q 2216 1309 1875 1350 
L 1678 1375 
Q 931 1469 631 1722 
Q 331 1975 331 2491 
Q 331 3047 712 3315 
Q 1094 3584 1881 3584 
Q 2191 3584 2531 3537 
Q 2872 3491 3272 3391 
z
" transform="scale(0.015625)"/>
      </defs>
      <use xlink:href="#DejaVuSans-Bold-63"/>
      <use xlink:href="#DejaVuSans-Bold-61" transform="translate(59.277344 0)"/>
      <use xlink:href="#DejaVuSans-Bold-70" transform="translate(126.757812 0)"/>
      <use xlink:href="#DejaVuSans-Bold-74" transform="translate(198.339844 0)"/>
      <use xlink:href="#DejaVuSans-Bold-6f" transform="translate(246.142578 0)"/>
      <use xlink:href="#DejaVuSans-Bold-70" transform="translate(314.84375 0)"/>
      <use xlink:href="#DejaVuSans-Bold-72" transform="translate(386.425781 0)"/>
      <use xlink:href="#DejaVuSans-Bold-69" transform="translate(435.742188 0)"/>
      <use xlink:href="#DejaVuSans-Bold-6c" transform="translate(470.019531 0)"/>
      <use xlink:href="#DejaVuSans-Bold-20" transform="translate(504.296875 0)"/>
      <use xlink:href="#DejaVuSans-Bold-2b" transform="translate(539.111328 0)"/>
      <use xlink:href="#DejaVuSans-Bold-20" transform="translate(622.900391 0)"/>
      <use xlink:href="#DejaVuSans-Bold-63" transform="translate(657.714844 0)"/>
      <use xlink:href="#DejaVuSans-Bold-61" transform="translate(716.992188 0)"/>
      <use xlink:href="#DejaVuSans-Bold-70" transform="translate(784.472656 0)"/>
      <use xlink:href="#DejaVuSans-Bold-73" transform="translate(856.054688 0)"/>
      <use xlink:href="#DejaVuSans-Bold-73" transform="translate(915.576172 0)"/>
      <use xlink:href="#DejaVuSans-Bold-20" transform="translate(975.097656 0)"/>
      <use xlink:href="#DejaVuSans-Bold-5b" transform="translate(1009.912109 0)"/>
      <use xlink:href="#DejaVuSans-Bold-b5" transform="translate(1055.615234 0)"/>
      <use xlink:href="#DejaVuSans-Bold-4d" transform="translate(1129.199219 0)"/>
      <use xlink:href="#DejaVuSans-Bold-5d" transform="translate(1228.710938 0)"/>
     </g>
    </g>
   </g>
   <g id="LineCollection_5">
    <path d="M 569.873594 326.948713 
L 569.873594 312.904371 
" clip-path="url(#p479caa090b)" style="fill: none; stroke: #000000"/>
    <path d="M 579.308376 331.410086 
L 579.308376 282.914528 
" clip-path="url(#p479caa090b)" style="fill: none; stroke: #000000"/>
    <path d="M 588.743159 313.59996 
L 588.743159 274.961275 
" clip-path="url(#p479caa090b)" style="fill: none; stroke: #000000"/>
    <path d="M 598.177942 317.749096 
L 598.177942 279.081708 
" clip-path="url(#p479caa090b)" style="fill: none; stroke: #000000"/>
    <path d="M 617.047507 322.666332 
L 617.047507 267.836947 
" clip-path="url(#p479caa090b)" style="fill: none; stroke: #000000"/>
    <path d="M 635.917072 349.884 
L 635.917072 252.199757 
" clip-path="url(#p479caa090b)" style="fill: none; stroke: #000000"/>
    <path d="M 673.656202 325.434534 
L 673.656202 289.597064 
" clip-path="url(#p479caa090b)" style="fill: none; stroke: #000000"/>
    <path d="M 711.395333 325.860149 
L 711.395333 299.148153 
" clip-path="url(#p479caa090b)" style="fill: none; stroke: #000000"/>
    <path d="M 786.873594 343.563684 
L 786.873594 292.940905 
" clip-path="url(#p479caa090b)" style="fill: none; stroke: #000000"/>
    <path d="M 862.351855 331.857966 
L 862.351855 320.614838 
" clip-path="url(#p479caa090b)" style="fill: none; stroke: #000000"/>
   </g>
   <g id="LineCollection_6">
    <path d="M 569.873594 335.31377 
L 569.873594 315.939011 
" clip-path="url(#p479caa090b)" style="fill: none; stroke: #338dff"/>
    <path d="M 579.308376 326.637115 
L 579.308376 278.84049 
" clip-path="url(#p479caa090b)" style="fill: none; stroke: #338dff"/>
    <path d="M 588.743159 323.011253 
L 588.743159 251.987821 
" clip-path="url(#p479caa090b)" style="fill: none; stroke: #338dff"/>
    <path d="M 598.177942 322.884577 
L 598.177942 236.380077 
" clip-path="url(#p479caa090b)" style="fill: none; stroke: #338dff"/>
    <path d="M 617.047507 305.384847 
L 617.047507 200.806955 
" clip-path="url(#p479caa090b)" style="fill: none; stroke: #338dff"/>
    <path d="M 635.917072 297.124378 
L 635.917072 148.633141 
" clip-path="url(#p479caa090b)" style="fill: none; stroke: #338dff"/>
    <path d="M 673.656202 283.989958 
L 673.656202 101.996317 
" clip-path="url(#p479caa090b)" style="fill: none; stroke: #338dff"/>
    <path d="M 711.395333 285.270928 
L 711.395333 105.807145 
" clip-path="url(#p479caa090b)" style="fill: none; stroke: #338dff"/>
    <path d="M 786.873594 300.150417 
L 786.873594 62.604 
" clip-path="url(#p479caa090b)" style="fill: none; stroke: #338dff"/>
    <path d="M 862.351855 290.378643 
L 862.351855 70.926439 
" clip-path="url(#p479caa090b)" style="fill: none; stroke: #338dff"/>
   </g>
   <g id="line2d_35">
    <path d="M 560.438811 332.618049 
L 562.137072 312.388562 
L 562.986202 305.054137 
L 563.835333 299.42221 
L 564.684463 294.981663 
L 565.533594 291.396248 
L 566.382724 288.442595 
L 567.231855 285.970299 
L 568.080985 283.876308 
L 569.779246 280.55489 
L 571.477507 278.106162 
L 573.175768 276.315768 
L 574.874029 275.044093 
L 576.572289 274.190579 
L 578.27055 273.677736 
L 579.968811 273.443456 
L 581.667072 273.436905 
L 583.365333 273.616039 
L 585.912724 274.158083 
L 588.460115 274.946332 
L 591.856637 276.258939 
L 596.102289 278.153513 
L 605.442724 282.662804 
L 613.934029 286.664682 
L 620.727072 289.64102 
L 627.520115 292.383248 
L 634.313159 294.892256 
L 641.106202 297.181342 
L 648.748376 299.515901 
L 656.39055 301.621104 
L 664.881855 303.721563 
L 673.373159 305.600495 
L 682.713594 307.443451 
L 692.903159 309.221296 
L 703.941855 310.911147 
L 715.829681 312.496094 
L 728.566637 313.964704 
L 742.152724 315.310385 
L 757.437072 316.596553 
L 774.419681 317.792233 
L 793.10055 318.876921 
L 814.328811 319.875618 
L 838.104463 320.763414 
L 865.276637 321.55114 
L 897.543594 322.2561 
L 900.090985 322.303336 
L 900.090985 322.303336 
" clip-path="url(#p479caa090b)" style="fill: none; stroke: #000000; stroke-width: 2; stroke-linecap: square"/>
   </g>
   <g id="line2d_36">
    <path d="M 569.873594 319.926542 
L 579.308376 307.162307 
L 588.743159 294.280617 
L 598.177942 298.415402 
L 617.047507 295.251639 
L 635.917072 301.041879 
L 673.656202 307.515799 
L 711.395333 312.504151 
L 786.873594 318.252295 
L 862.351855 326.236402 
" clip-path="url(#p479caa090b)" style="fill: none; stroke-dasharray: 3.7,1.6; stroke-dashoffset: 0; stroke: #000000"/>
    <g clip-path="url(#p479caa090b)">
     <use xlink:href="#m4e76c19a35" x="569.873594" y="319.926542" style="stroke: #000000; stroke-linejoin: miter"/>
     <use xlink:href="#m4e76c19a35" x="579.308376" y="307.162307" style="stroke: #000000; stroke-linejoin: miter"/>
     <use xlink:href="#m4e76c19a35" x="588.743159" y="294.280617" style="stroke: #000000; stroke-linejoin: miter"/>
     <use xlink:href="#m4e76c19a35" x="598.177942" y="298.415402" style="stroke: #000000; stroke-linejoin: miter"/>
     <use xlink:href="#m4e76c19a35" x="617.047507" y="295.251639" style="stroke: #000000; stroke-linejoin: miter"/>
     <use xlink:href="#m4e76c19a35" x="635.917072" y="301.041879" style="stroke: #000000; stroke-linejoin: miter"/>
     <use xlink:href="#m4e76c19a35" x="673.656202" y="307.515799" style="stroke: #000000; stroke-linejoin: miter"/>
     <use xlink:href="#m4e76c19a35" x="711.395333" y="312.504151" style="stroke: #000000; stroke-linejoin: miter"/>
     <use xlink:href="#m4e76c19a35" x="786.873594" y="318.252295" style="stroke: #000000; stroke-linejoin: miter"/>
     <use xlink:href="#m4e76c19a35" x="862.351855" y="326.236402" style="stroke: #000000; stroke-linejoin: miter"/>
    </g>
   </g>
   <g id="line2d_37">
    <path d="M 560.438811 332.618049 
L 562.137072 312.039766 
L 562.986202 304.325536 
L 563.835333 298.266192 
L 564.684463 293.383669 
L 565.533594 289.359274 
L 566.382724 285.97859 
L 567.231855 283.095498 
L 568.930115 278.446771 
L 570.628376 274.902626 
L 572.326637 272.182272 
L 574.024898 270.111471 
L 575.723159 268.569192 
L 577.42142 267.46389 
L 579.119681 266.72248 
L 580.817942 266.284793 
L 582.516202 266.100496 
L 584.214463 266.127139 
L 585.912724 266.328793 
L 588.460115 266.894073 
L 591.007507 267.701669 
L 594.404029 269.044275 
L 598.649681 270.992403 
L 606.291855 274.825018 
L 617.33055 280.332964 
L 624.123594 283.48378 
L 630.916637 286.399718 
L 637.709681 289.076601 
L 644.502724 291.524686 
L 652.144898 294.025721 
L 659.787072 296.283756 
L 667.429246 298.324156 
L 675.92055 300.364411 
L 685.260985 302.36573 
L 694.60142 304.144441 
L 704.790985 305.864048 
L 715.829681 307.50183 
L 727.717507 309.040631 
L 740.454463 310.468474 
L 754.889681 311.853368 
L 770.174029 313.093624 
L 787.156637 314.246299 
L 805.837507 315.290497 
L 827.065768 316.248993 
L 850.84142 317.096425 
L 878.013594 317.841572 
L 900.090985 318.313261 
L 900.090985 318.313261 
" clip-path="url(#p479caa090b)" style="fill: none; stroke: #338dff; stroke-width: 2; stroke-linecap: square"/>
   </g>
   <g id="line2d_38">
    <path d="M 569.873594 325.626391 
L 579.308376 302.738803 
L 588.743159 287.499537 
L 598.177942 279.632327 
L 617.047507 253.095901 
L 635.917072 222.87876 
L 673.656202 192.993138 
L 711.395333 195.539036 
L 786.873594 181.377209 
L 862.351855 180.652541 
" clip-path="url(#p479caa090b)" style="fill: none; stroke-dasharray: 3.7,1.6; stroke-dashoffset: 0; stroke: #338dff"/>
    <g clip-path="url(#p479caa090b)">
     <use xlink:href="#m02c54a3aa9" x="569.873594" y="325.626391" style="fill: #338dff; stroke: #000000; stroke-linejoin: miter"/>
     <use xlink:href="#m02c54a3aa9" x="579.308376" y="302.738803" style="fill: #338dff; stroke: #000000; stroke-linejoin: miter"/>
     <use xlink:href="#m02c54a3aa9" x="588.743159" y="287.499537" style="fill: #338dff; stroke: #000000; stroke-linejoin: miter"/>
     <use xlink:href="#m02c54a3aa9" x="598.177942" y="279.632327" style="fill: #338dff; stroke: #000000; stroke-linejoin: miter"/>
     <use xlink:href="#m02c54a3aa9" x="617.047507" y="253.095901" style="fill: #338dff; stroke: #000000; stroke-linejoin: miter"/>
     <use xlink:href="#m02c54a3aa9" x="635.917072" y="222.87876" style="fill: #338dff; stroke: #000000; stroke-linejoin: miter"/>
     <use xlink:href="#m02c54a3aa9" x="673.656202" y="192.993138" style="fill: #338dff; stroke: #000000; stroke-linejoin: miter"/>
     <use xlink:href="#m02c54a3aa9" x="711.395333" y="195.539036" style="fill: #338dff; stroke: #000000; stroke-linejoin: miter"/>
     <use xlink:href="#m02c54a3aa9" x="786.873594" y="181.377209" style="fill: #338dff; stroke: #000000; stroke-linejoin: miter"/>
     <use xlink:href="#m02c54a3aa9" x="862.351855" y="180.652541" style="fill: #338dff; stroke: #000000; stroke-linejoin: miter"/>
    </g>
   </g>
   <g id="patch_9">
    <path d="M 543.456202 364.248 
L 543.456202 48.24 
" style="fill: none; stroke: #000000; stroke-width: 0.8; stroke-linejoin: miter; stroke-linecap: square"/>
   </g>
   <g id="patch_10">
    <path d="M 917.073594 364.248 
L 917.073594 48.24 
" style="fill: none; stroke: #000000; stroke-width: 0.8; stroke-linejoin: miter; stroke-linecap: square"/>
   </g>
   <g id="patch_11">
    <path d="M 543.456202 364.248 
L 917.073594 364.248 
" style="fill: none; stroke: #000000; stroke-width: 0.8; stroke-linejoin: miter; stroke-linecap: square"/>
   </g>
   <g id="patch_12">
    <path d="M 543.456202 48.24 
L 917.073594 48.24 
" style="fill: none; stroke: #000000; stroke-width: 0.8; stroke-linejoin: miter; stroke-linecap: square"/>
   </g>
   <g id="legend_2">
    <g id="patch_13">
     <path d="M 733.473594 114.9525 
L 910.073594 114.9525 
Q 912.073594 114.9525 912.073594 112.9525 
L 912.073594 55.24 
Q 912.073594 53.24 910.073594 53.24 
L 733.473594 53.24 
Q 731.473594 53.24 731.473594 55.24 
L 731.473594 112.9525 
Q 731.473594 114.9525 733.473594 114.9525 
z
" style="fill: #ffffff; opacity: 0.8; stroke: #cccccc; stroke-linejoin: miter"/>
    </g>
    <g id="line2d_39">
     <path d="M 735.473594 61.338437 
L 755.473594 61.338437 
" style="fill: none; stroke: #000000; stroke-width: 2; stroke-linecap: square"/>
    </g>
    <g id="line2d_40"/>
    <g id="text_31">
     <!-- sim: 50mg PO -->
     <g transform="translate(763.473594 64.838437) scale(0.1 -0.1)">
      <use xlink:href="#DejaVuSans-73"/>
      <use xlink:href="#DejaVuSans-69" transform="translate(52.099609 0)"/>
      <use xlink:href="#DejaVuSans-6d" transform="translate(79.882812 0)"/>
      <use xlink:href="#DejaVuSans-3a" transform="translate(177.294922 0)"/>
      <use xlink:href="#DejaVuSans-20" transform="translate(210.986328 0)"/>
      <use xlink:href="#DejaVuSans-35" transform="translate(242.773438 0)"/>
      <use xlink:href="#DejaVuSans-30" transform="translate(306.396484 0)"/>
      <use xlink:href="#DejaVuSans-6d" transform="translate(370.019531 0)"/>
      <use xlink:href="#DejaVuSans-67" transform="translate(467.431641 0)"/>
      <use xlink:href="#DejaVuSans-20" transform="translate(530.908203 0)"/>
      <use xlink:href="#DejaVuSans-50" transform="translate(562.695312 0)"/>
      <use xlink:href="#DejaVuSans-4f" transform="translate(622.998047 0)"/>
     </g>
    </g>
    <g id="LineCollection_7">
     <path d="M 745.473594 81.016562 
L 745.473594 71.016562 
" style="fill: none; stroke: #000000"/>
    </g>
    <g id="line2d_41">
     <path d="M 735.473594 76.016562 
L 755.473594 76.016562 
" style="fill: none; stroke-dasharray: 3.7,1.6; stroke-dashoffset: 0; stroke: #000000"/>
    </g>
    <g id="line2d_42">
     <g>
      <use xlink:href="#m4e76c19a35" x="745.473594" y="76.016562" style="stroke: #000000; stroke-linejoin: miter"/>
     </g>
    </g>
    <g id="text_32">
     <!-- exp: 50mg PO±SD (n=8) -->
     <g transform="translate(763.473594 79.516562) scale(0.1 -0.1)">
      <use xlink:href="#DejaVuSans-65"/>
      <use xlink:href="#DejaVuSans-78" transform="translate(59.773438 0)"/>
      <use xlink:href="#DejaVuSans-70" transform="translate(118.953125 0)"/>
      <use xlink:href="#DejaVuSans-3a" transform="translate(182.429688 0)"/>
      <use xlink:href="#DejaVuSans-20" transform="translate(216.121094 0)"/>
      <use xlink:href="#DejaVuSans-35" transform="translate(247.908203 0)"/>
      <use xlink:href="#DejaVuSans-30" transform="translate(311.53125 0)"/>
      <use xlink:href="#DejaVuSans-6d" transform="translate(375.154297 0)"/>
      <use xlink:href="#DejaVuSans-67" transform="translate(472.566406 0)"/>
      <use xlink:href="#DejaVuSans-20" transform="translate(536.042969 0)"/>
      <use xlink:href="#DejaVuSans-50" transform="translate(567.830078 0)"/>
      <use xlink:href="#DejaVuSans-4f" transform="translate(628.132812 0)"/>
      <use xlink:href="#DejaVuSans-b1" transform="translate(706.84375 0)"/>
      <use xlink:href="#DejaVuSans-53" transform="translate(790.632812 0)"/>
      <use xlink:href="#DejaVuSans-44" transform="translate(854.109375 0)"/>
      <use xlink:href="#DejaVuSans-20" transform="translate(931.111328 0)"/>
      <use xlink:href="#DejaVuSans-28" transform="translate(962.898438 0)"/>
      <use xlink:href="#DejaVuSans-6e" transform="translate(1001.912109 0)"/>
      <use xlink:href="#DejaVuSans-3d" transform="translate(1065.291016 0)"/>
      <use xlink:href="#DejaVuSans-38" transform="translate(1149.080078 0)"/>
      <use xlink:href="#DejaVuSans-29" transform="translate(1212.703125 0)"/>
     </g>
    </g>
    <g id="line2d_43">
     <path d="M 735.473594 90.694687 
L 755.473594 90.694687 
" style="fill: none; stroke: #338dff; stroke-width: 2; stroke-linecap: square"/>
    </g>
    <g id="line2d_44"/>
    <g id="text_33">
     <!-- SRI sim: 50mg PO -->
     <g transform="translate(763.473594 94.194687) scale(0.1 -0.1)">
      <use xlink:href="#DejaVuSans-53"/>
      <use xlink:href="#DejaVuSans-52" transform="translate(63.476562 0)"/>
      <use xlink:href="#DejaVuSans-49" transform="translate(132.958984 0)"/>
      <use xlink:href="#DejaVuSans-20" transform="translate(162.451172 0)"/>
      <use xlink:href="#DejaVuSans-73" transform="translate(194.238281 0)"/>
      <use xlink:href="#DejaVuSans-69" transform="translate(246.337891 0)"/>
      <use xlink:href="#DejaVuSans-6d" transform="translate(274.121094 0)"/>
      <use xlink:href="#DejaVuSans-3a" transform="translate(371.533203 0)"/>
      <use xlink:href="#DejaVuSans-20" transform="translate(405.224609 0)"/>
      <use xlink:href="#DejaVuSans-35" transform="translate(437.011719 0)"/>
      <use xlink:href="#DejaVuSans-30" transform="translate(500.634766 0)"/>
      <use xlink:href="#DejaVuSans-6d" transform="translate(564.257812 0)"/>
      <use xlink:href="#DejaVuSans-67" transform="translate(661.669922 0)"/>
      <use xlink:href="#DejaVuSans-20" transform="translate(725.146484 0)"/>
      <use xlink:href="#DejaVuSans-50" transform="translate(756.933594 0)"/>
      <use xlink:href="#DejaVuSans-4f" transform="translate(817.236328 0)"/>
     </g>
    </g>
    <g id="LineCollection_8">
     <path d="M 745.473594 110.372812 
L 745.473594 100.372812 
" style="fill: none; stroke: #338dff"/>
    </g>
    <g id="line2d_45">
     <path d="M 735.473594 105.372812 
L 755.473594 105.372812 
" style="fill: none; stroke-dasharray: 3.7,1.6; stroke-dashoffset: 0; stroke: #338dff"/>
    </g>
    <g id="line2d_46">
     <g>
      <use xlink:href="#m02c54a3aa9" x="745.473594" y="105.372812" style="fill: #338dff; stroke: #000000; stroke-linejoin: miter"/>
     </g>
    </g>
    <g id="text_34">
     <!-- SRI exp: 50mg PO±SD (n=6) -->
     <g transform="translate(763.473594 108.872812) scale(0.1 -0.1)">
      <use xlink:href="#DejaVuSans-53"/>
      <use xlink:href="#DejaVuSans-52" transform="translate(63.476562 0)"/>
      <use xlink:href="#DejaVuSans-49" transform="translate(132.958984 0)"/>
      <use xlink:href="#DejaVuSans-20" transform="translate(162.451172 0)"/>
      <use xlink:href="#DejaVuSans-65" transform="translate(194.238281 0)"/>
      <use xlink:href="#DejaVuSans-78" transform="translate(254.011719 0)"/>
      <use xlink:href="#DejaVuSans-70" transform="translate(313.191406 0)"/>
      <use xlink:href="#DejaVuSans-3a" transform="translate(376.667969 0)"/>
      <use xlink:href="#DejaVuSans-20" transform="translate(410.359375 0)"/>
      <use xlink:href="#DejaVuSans-35" transform="translate(442.146484 0)"/>
      <use xlink:href="#DejaVuSans-30" transform="translate(505.769531 0)"/>
      <use xlink:href="#DejaVuSans-6d" transform="translate(569.392578 0)"/>
      <use xlink:href="#DejaVuSans-67" transform="translate(666.804688 0)"/>
      <use xlink:href="#DejaVuSans-20" transform="translate(730.28125 0)"/>
      <use xlink:href="#DejaVuSans-50" transform="translate(762.068359 0)"/>
      <use xlink:href="#DejaVuSans-4f" transform="translate(822.371094 0)"/>
      <use xlink:href="#DejaVuSans-b1" transform="translate(901.082031 0)"/>
      <use xlink:href="#DejaVuSans-53" transform="translate(984.871094 0)"/>
      <use xlink:href="#DejaVuSans-44" transform="translate(1048.347656 0)"/>
      <use xlink:href="#DejaVuSans-20" transform="translate(1125.349609 0)"/>
      <use xlink:href="#DejaVuSans-28" transform="translate(1157.136719 0)"/>
      <use xlink:href="#DejaVuSans-6e" transform="translate(1196.150391 0)"/>
      <use xlink:href="#DejaVuSans-3d" transform="translate(1259.529297 0)"/>
      <use xlink:href="#DejaVuSans-36" transform="translate(1343.318359 0)"/>
      <use xlink:href="#DejaVuSans-29" transform="translate(1406.941406 0)"/>
     </g>
    </g>
   </g>
  </g>
  <g id="text_35">
   <!-- Drummer1987 -->
   <g transform="translate(372.631719 26.196094) scale(0.25 -0.25)">
    <defs>
     <path id="DejaVuSans-Bold-44" d="M 1791 3756 
L 1791 909 
L 2222 909 
Q 2959 909 3348 1275 
Q 3738 1641 3738 2338 
Q 3738 3031 3350 3393 
Q 2963 3756 2222 3756 
L 1791 3756 
z
M 588 4666 
L 1856 4666 
Q 2919 4666 3439 4514 
Q 3959 4363 4331 4000 
Q 4659 3684 4818 3271 
Q 4978 2859 4978 2338 
Q 4978 1809 4818 1395 
Q 4659 981 4331 666 
Q 3956 303 3431 151 
Q 2906 0 1856 0 
L 588 0 
L 588 4666 
z
" transform="scale(0.015625)"/>
     <path id="DejaVuSans-Bold-75" d="M 500 1363 
L 500 3500 
L 1625 3500 
L 1625 3150 
Q 1625 2866 1622 2436 
Q 1619 2006 1619 1863 
Q 1619 1441 1641 1255 
Q 1663 1069 1716 984 
Q 1784 875 1895 815 
Q 2006 756 2150 756 
Q 2500 756 2700 1025 
Q 2900 1294 2900 1772 
L 2900 3500 
L 4019 3500 
L 4019 0 
L 2900 0 
L 2900 506 
Q 2647 200 2364 54 
Q 2081 -91 1741 -91 
Q 1134 -91 817 281 
Q 500 653 500 1363 
z
" transform="scale(0.015625)"/>
     <path id="DejaVuSans-Bold-31" d="M 750 831 
L 1813 831 
L 1813 3847 
L 722 3622 
L 722 4441 
L 1806 4666 
L 2950 4666 
L 2950 831 
L 4013 831 
L 4013 0 
L 750 0 
L 750 831 
z
" transform="scale(0.015625)"/>
     <path id="DejaVuSans-Bold-39" d="M 641 103 
L 641 966 
Q 928 831 1190 764 
Q 1453 697 1709 697 
Q 2247 697 2547 995 
Q 2847 1294 2900 1881 
Q 2688 1725 2447 1647 
Q 2206 1569 1925 1569 
Q 1209 1569 770 1986 
Q 331 2403 331 3084 
Q 331 3838 820 4291 
Q 1309 4744 2131 4744 
Q 3044 4744 3544 4128 
Q 4044 3513 4044 2388 
Q 4044 1231 3459 570 
Q 2875 -91 1856 -91 
Q 1528 -91 1228 -42 
Q 928 6 641 103 
z
M 2125 2350 
Q 2441 2350 2600 2554 
Q 2759 2759 2759 3169 
Q 2759 3575 2600 3781 
Q 2441 3988 2125 3988 
Q 1809 3988 1650 3781 
Q 1491 3575 1491 3169 
Q 1491 2759 1650 2554 
Q 1809 2350 2125 2350 
z
" transform="scale(0.015625)"/>
     <path id="DejaVuSans-Bold-38" d="M 2228 2088 
Q 1891 2088 1709 1903 
Q 1528 1719 1528 1375 
Q 1528 1031 1709 848 
Q 1891 666 2228 666 
Q 2563 666 2741 848 
Q 2919 1031 2919 1375 
Q 2919 1722 2741 1905 
Q 2563 2088 2228 2088 
z
M 1350 2484 
Q 925 2613 709 2878 
Q 494 3144 494 3541 
Q 494 4131 934 4440 
Q 1375 4750 2228 4750 
Q 3075 4750 3515 4442 
Q 3956 4134 3956 3541 
Q 3956 3144 3739 2878 
Q 3522 2613 3097 2484 
Q 3572 2353 3814 2058 
Q 4056 1763 4056 1313 
Q 4056 619 3595 264 
Q 3134 -91 2228 -91 
Q 1319 -91 855 264 
Q 391 619 391 1313 
Q 391 1763 633 2058 
Q 875 2353 1350 2484 
z
M 1631 3419 
Q 1631 3141 1786 2991 
Q 1941 2841 2228 2841 
Q 2509 2841 2662 2991 
Q 2816 3141 2816 3419 
Q 2816 3697 2662 3845 
Q 2509 3994 2228 3994 
Q 1941 3994 1786 3844 
Q 1631 3694 1631 3419 
z
" transform="scale(0.015625)"/>
     <path id="DejaVuSans-Bold-37" d="M 428 4666 
L 3944 4666 
L 3944 3988 
L 2125 0 
L 953 0 
L 2675 3781 
L 428 3781 
L 428 4666 
z
" transform="scale(0.015625)"/>
    </defs>
    <use xlink:href="#DejaVuSans-Bold-44"/>
    <use xlink:href="#DejaVuSans-Bold-72" transform="translate(83.007812 0)"/>
    <use xlink:href="#DejaVuSans-Bold-75" transform="translate(132.324219 0)"/>
    <use xlink:href="#DejaVuSans-Bold-6d" transform="translate(203.515625 0)"/>
    <use xlink:href="#DejaVuSans-Bold-6d" transform="translate(307.714844 0)"/>
    <use xlink:href="#DejaVuSans-Bold-65" transform="translate(411.914062 0)"/>
    <use xlink:href="#DejaVuSans-Bold-72" transform="translate(479.736328 0)"/>
    <use xlink:href="#DejaVuSans-Bold-31" transform="translate(529.052734 0)"/>
    <use xlink:href="#DejaVuSans-Bold-39" transform="translate(598.632812 0)"/>
    <use xlink:href="#DejaVuSans-Bold-38" transform="translate(668.212891 0)"/>
    <use xlink:href="#DejaVuSans-Bold-37" transform="translate(737.792969 0)"/>
   </g>
  </g>
 </g>
 <defs>
  <clipPath id="p9f7bbfb3c6">
   <rect x="57.753594" y="48.24" width="373.617391" height="316.008"/>
  </clipPath>
  <clipPath id="p479caa090b">
   <rect x="543.456202" y="48.24" width="373.617391" height="316.008"/>
  </clipPath>
 </defs>
</svg>
