<?xml version="1.0" encoding="utf-8" standalone="no"?>
<!DOCTYPE svg PUBLIC "-//W3C//DTD SVG 1.1//EN"
  "http://www.w3.org/Graphics/SVG/1.1/DTD/svg11.dtd">
<svg xmlns:xlink="http://www.w3.org/1999/xlink" width="954.094344pt" height="414.385812pt" viewBox="0 0 954.094344 414.385812" xmlns="http://www.w3.org/2000/svg" version="1.1">
 <metadata>
  <rdf:RDF xmlns:dc="http://purl.org/dc/elements/1.1/" xmlns:cc="http://creativecommons.org/ns#" xmlns:rdf="http://www.w3.org/1999/02/22-rdf-syntax-ns#">
   <cc:Work>
    <dc:type rdf:resource="http://purl.org/dc/dcmitype/StillImage"/>
    <dc:date>2025-09-10T13:16:55.761996</dc:date>
    <dc:format>image/svg+xml</dc:format>
    <dc:creator>
     <cc:Agent>
      <dc:title>Matplotlib v3.10.6, https://matplotlib.org/</dc:title>
     </cc:Agent>
    </dc:creator>
   </cc:Work>
  </rdf:RDF>
 </metadata>
 <defs>
  <style type="text/css">*{stroke-linejoin: round; stroke-linecap: butt}</style>
 </defs>
 <g id="figure_1">
  <g id="patch_1">
   <path d="M 0 414.385812 
L 954.094344 414.385812 
L 954.094344 -0 
L 0 -0 
z
" style="fill: #ffffff"/>
  </g>
  <g id="axes_1">
   <g id="patch_2">
    <path d="M 87.574344 364.248 
L 461.191735 364.248 
L 461.191735 48.24 
L 87.574344 48.24 
z
" style="fill: #ffffff"/>
   </g>
   <g id="matplotlib.axis_1">
    <g id="xtick_1">
     <g id="line2d_1">
      <defs>
       <path id="m5c4b470042" d="M 0 0 
L 0 3.5 
" style="stroke: #000000; stroke-width: 0.8"/>
      </defs>
      <g>
       <use xlink:href="#m5c4b470042" x="104.556952" y="364.248" style="stroke: #000000; stroke-width: 0.8"/>
      </g>
     </g>
     <g id="text_1">
      <!-- 0 -->
      <g transform="translate(99.785077 382.645656) scale(0.15 -0.15)">
       <defs>
        <path id="DejaVuSans-30" d="M 2034 4250 
Q 1547 4250 1301 3770 
Q 1056 3291 1056 2328 
Q 1056 1369 1301 889 
Q 1547 409 2034 409 
Q 2525 409 2770 889 
Q 3016 1369 3016 2328 
Q 3016 3291 2770 3770 
Q 2525 4250 2034 4250 
z
M 2034 4750 
Q 2819 4750 3233 4129 
Q 3647 3509 3647 2328 
Q 3647 1150 3233 529 
Q 2819 -91 2034 -91 
Q 1250 -91 836 529 
Q 422 1150 422 2328 
Q 422 3509 836 4129 
Q 1250 4750 2034 4750 
z
" transform="scale(0.015625)"/>
       </defs>
       <use xlink:href="#DejaVuSans-30"/>
      </g>
     </g>
    </g>
    <g id="xtick_2">
     <g id="line2d_2">
      <g>
       <use xlink:href="#m5c4b470042" x="180.035213" y="364.248" style="stroke: #000000; stroke-width: 0.8"/>
      </g>
     </g>
     <g id="text_2">
      <!-- 2 -->
      <g transform="translate(175.263338 382.645656) scale(0.15 -0.15)">
       <defs>
        <path id="DejaVuSans-32" d="M 1228 531 
L 3431 531 
L 3431 0 
L 469 0 
L 469 531 
Q 828 903 1448 1529 
Q 2069 2156 2228 2338 
Q 2531 2678 2651 2914 
Q 2772 3150 2772 3378 
Q 2772 3750 2511 3984 
Q 2250 4219 1831 4219 
Q 1534 4219 1204 4116 
Q 875 4013 500 3803 
L 500 4441 
Q 881 4594 1212 4672 
Q 1544 4750 1819 4750 
Q 2544 4750 2975 4387 
Q 3406 4025 3406 3419 
Q 3406 3131 3298 2873 
Q 3191 2616 2906 2266 
Q 2828 2175 2409 1742 
Q 1991 1309 1228 531 
z
" transform="scale(0.015625)"/>
       </defs>
       <use xlink:href="#DejaVuSans-32"/>
      </g>
     </g>
    </g>
    <g id="xtick_3">
     <g id="line2d_3">
      <g>
       <use xlink:href="#m5c4b470042" x="255.513474" y="364.248" style="stroke: #000000; stroke-width: 0.8"/>
      </g>
     </g>
     <g id="text_3">
      <!-- 4 -->
      <g transform="translate(250.741599 382.645656) scale(0.15 -0.15)">
       <defs>
        <path id="DejaVuSans-34" d="M 2419 4116 
L 825 1625 
L 2419 1625 
L 2419 4116 
z
M 2253 4666 
L 3047 4666 
L 3047 1625 
L 3713 1625 
L 3713 1100 
L 3047 1100 
L 3047 0 
L 2419 0 
L 2419 1100 
L 313 1100 
L 313 1709 
L 2253 4666 
z
" transform="scale(0.015625)"/>
       </defs>
       <use xlink:href="#DejaVuSans-34"/>
      </g>
     </g>
    </g>
    <g id="xtick_4">
     <g id="line2d_4">
      <g>
       <use xlink:href="#m5c4b470042" x="330.991735" y="364.248" style="stroke: #000000; stroke-width: 0.8"/>
      </g>
     </g>
     <g id="text_4">
      <!-- 6 -->
      <g transform="translate(326.21986 382.645656) scale(0.15 -0.15)">
       <defs>
        <path id="DejaVuSans-36" d="M 2113 2584 
Q 1688 2584 1439 2293 
Q 1191 2003 1191 1497 
Q 1191 994 1439 701 
Q 1688 409 2113 409 
Q 2538 409 2786 701 
Q 3034 994 3034 1497 
Q 3034 2003 2786 2293 
Q 2538 2584 2113 2584 
z
M 3366 4563 
L 3366 3988 
Q 3128 4100 2886 4159 
Q 2644 4219 2406 4219 
Q 1781 4219 1451 3797 
Q 1122 3375 1075 2522 
Q 1259 2794 1537 2939 
Q 1816 3084 2150 3084 
Q 2853 3084 3261 2657 
Q 3669 2231 3669 1497 
Q 3669 778 3244 343 
Q 2819 -91 2113 -91 
Q 1303 -91 875 529 
Q 447 1150 447 2328 
Q 447 3434 972 4092 
Q 1497 4750 2381 4750 
Q 2619 4750 2861 4703 
Q 3103 4656 3366 4563 
z
" transform="scale(0.015625)"/>
       </defs>
       <use xlink:href="#DejaVuSans-36"/>
      </g>
     </g>
    </g>
    <g id="xtick_5">
     <g id="line2d_5">
      <g>
       <use xlink:href="#m5c4b470042" x="406.469996" y="364.248" style="stroke: #000000; stroke-width: 0.8"/>
      </g>
     </g>
     <g id="text_5">
      <!-- 8 -->
      <g transform="translate(401.698121 382.645656) scale(0.15 -0.15)">
       <defs>
        <path id="DejaVuSans-38" d="M 2034 2216 
Q 1584 2216 1326 1975 
Q 1069 1734 1069 1313 
Q 1069 891 1326 650 
Q 1584 409 2034 409 
Q 2484 409 2743 651 
Q 3003 894 3003 1313 
Q 3003 1734 2745 1975 
Q 2488 2216 2034 2216 
z
M 1403 2484 
Q 997 2584 770 2862 
Q 544 3141 544 3541 
Q 544 4100 942 4425 
Q 1341 4750 2034 4750 
Q 2731 4750 3128 4425 
Q 3525 4100 3525 3541 
Q 3525 3141 3298 2862 
Q 3072 2584 2669 2484 
Q 3125 2378 3379 2068 
Q 3634 1759 3634 1313 
Q 3634 634 3220 271 
Q 2806 -91 2034 -91 
Q 1263 -91 848 271 
Q 434 634 434 1313 
Q 434 1759 690 2068 
Q 947 2378 1403 2484 
z
M 1172 3481 
Q 1172 3119 1398 2916 
Q 1625 2713 2034 2713 
Q 2441 2713 2670 2916 
Q 2900 3119 2900 3481 
Q 2900 3844 2670 4047 
Q 2441 4250 2034 4250 
Q 1625 4250 1398 4047 
Q 1172 3844 1172 3481 
z
" transform="scale(0.015625)"/>
       </defs>
       <use xlink:href="#DejaVuSans-38"/>
      </g>
     </g>
    </g>
    <g id="text_6">
     <!-- time [hr] -->
     <g transform="translate(229.308508 403.442375) scale(0.18 -0.18)">
      <defs>
       <path id="DejaVuSans-Bold-74" d="M 1759 4494 
L 1759 3500 
L 2913 3500 
L 2913 2700 
L 1759 2700 
L 1759 1216 
Q 1759 972 1856 886 
Q 1953 800 2241 800 
L 2816 800 
L 2816 0 
L 1856 0 
Q 1194 0 917 276 
Q 641 553 641 1216 
L 641 2700 
L 84 2700 
L 84 3500 
L 641 3500 
L 641 4494 
L 1759 4494 
z
" transform="scale(0.015625)"/>
       <path id="DejaVuSans-Bold-69" d="M 538 3500 
L 1656 3500 
L 1656 0 
L 538 0 
L 538 3500 
z
M 538 4863 
L 1656 4863 
L 1656 3950 
L 538 3950 
L 538 4863 
z
" transform="scale(0.015625)"/>
       <path id="DejaVuSans-Bold-6d" d="M 3781 2919 
Q 3994 3244 4286 3414 
Q 4578 3584 4928 3584 
Q 5531 3584 5847 3212 
Q 6163 2841 6163 2131 
L 6163 0 
L 5038 0 
L 5038 1825 
Q 5041 1866 5042 1909 
Q 5044 1953 5044 2034 
Q 5044 2406 4934 2573 
Q 4825 2741 4581 2741 
Q 4263 2741 4089 2478 
Q 3916 2216 3909 1719 
L 3909 0 
L 2784 0 
L 2784 1825 
Q 2784 2406 2684 2573 
Q 2584 2741 2328 2741 
Q 2006 2741 1831 2477 
Q 1656 2213 1656 1722 
L 1656 0 
L 531 0 
L 531 3500 
L 1656 3500 
L 1656 2988 
Q 1863 3284 2130 3434 
Q 2397 3584 2719 3584 
Q 3081 3584 3359 3409 
Q 3638 3234 3781 2919 
z
" transform="scale(0.015625)"/>
       <path id="DejaVuSans-Bold-65" d="M 4031 1759 
L 4031 1441 
L 1416 1441 
Q 1456 1047 1700 850 
Q 1944 653 2381 653 
Q 2734 653 3104 758 
Q 3475 863 3866 1075 
L 3866 213 
Q 3469 63 3072 -14 
Q 2675 -91 2278 -91 
Q 1328 -91 801 392 
Q 275 875 275 1747 
Q 275 2603 792 3093 
Q 1309 3584 2216 3584 
Q 3041 3584 3536 3087 
Q 4031 2591 4031 1759 
z
M 2881 2131 
Q 2881 2450 2695 2645 
Q 2509 2841 2209 2841 
Q 1884 2841 1681 2658 
Q 1478 2475 1428 2131 
L 2881 2131 
z
" transform="scale(0.015625)"/>
       <path id="DejaVuSans-Bold-20" transform="scale(0.015625)"/>
       <path id="DejaVuSans-Bold-5b" d="M 550 4863 
L 2491 4863 
L 2491 4159 
L 1613 4159 
L 1613 -141 
L 2491 -141 
L 2491 -844 
L 550 -844 
L 550 4863 
z
" transform="scale(0.015625)"/>
       <path id="DejaVuSans-Bold-68" d="M 4056 2131 
L 4056 0 
L 2931 0 
L 2931 347 
L 2931 1625 
Q 2931 2084 2911 2256 
Q 2891 2428 2841 2509 
Q 2775 2619 2662 2680 
Q 2550 2741 2406 2741 
Q 2056 2741 1856 2470 
Q 1656 2200 1656 1722 
L 1656 0 
L 538 0 
L 538 4863 
L 1656 4863 
L 1656 2988 
Q 1909 3294 2193 3439 
Q 2478 3584 2822 3584 
Q 3428 3584 3742 3212 
Q 4056 2841 4056 2131 
z
" transform="scale(0.015625)"/>
       <path id="DejaVuSans-Bold-72" d="M 3138 2547 
Q 2991 2616 2845 2648 
Q 2700 2681 2553 2681 
Q 2122 2681 1889 2404 
Q 1656 2128 1656 1613 
L 1656 0 
L 538 0 
L 538 3500 
L 1656 3500 
L 1656 2925 
Q 1872 3269 2151 3426 
Q 2431 3584 2822 3584 
Q 2878 3584 2943 3579 
Q 3009 3575 3134 3559 
L 3138 2547 
z
" transform="scale(0.015625)"/>
       <path id="DejaVuSans-Bold-5d" d="M 2375 -844 
L 434 -844 
L 434 -141 
L 1313 -141 
L 1313 4159 
L 434 4159 
L 434 4863 
L 2375 4863 
L 2375 -844 
z
" transform="scale(0.015625)"/>
      </defs>
      <use xlink:href="#DejaVuSans-Bold-74"/>
      <use xlink:href="#DejaVuSans-Bold-69" transform="translate(47.802734 0)"/>
      <use xlink:href="#DejaVuSans-Bold-6d" transform="translate(82.080078 0)"/>
      <use xlink:href="#DejaVuSans-Bold-65" transform="translate(186.279297 0)"/>
      <use xlink:href="#DejaVuSans-Bold-20" transform="translate(254.101562 0)"/>
      <use xlink:href="#DejaVuSans-Bold-5b" transform="translate(288.916016 0)"/>
      <use xlink:href="#DejaVuSans-Bold-68" transform="translate(334.619141 0)"/>
      <use xlink:href="#DejaVuSans-Bold-72" transform="translate(405.810547 0)"/>
      <use xlink:href="#DejaVuSans-Bold-5d" transform="translate(455.126953 0)"/>
     </g>
    </g>
   </g>
   <g id="matplotlib.axis_2">
    <g id="ytick_1">
     <g id="line2d_6">
      <defs>
       <path id="m6629b94731" d="M 0 0 
L -3.5 0 
" style="stroke: #000000; stroke-width: 0.8"/>
      </defs>
      <g>
       <use xlink:href="#m6629b94731" x="87.574344" y="353.157495" style="stroke: #000000; stroke-width: 0.8"/>
      </g>
     </g>
     <g id="text_7">
      <!-- −60 -->
      <g transform="translate(48.917312 358.856323) scale(0.15 -0.15)">
       <defs>
        <path id="DejaVuSans-2212" d="M 678 2272 
L 4684 2272 
L 4684 1741 
L 678 1741 
L 678 2272 
z
" transform="scale(0.015625)"/>
       </defs>
       <use xlink:href="#DejaVuSans-2212"/>
       <use xlink:href="#DejaVuSans-36" transform="translate(83.789062 0)"/>
       <use xlink:href="#DejaVuSans-30" transform="translate(147.412109 0)"/>
      </g>
     </g>
    </g>
    <g id="ytick_2">
     <g id="line2d_7">
      <g>
       <use xlink:href="#m6629b94731" x="87.574344" y="287.687595" style="stroke: #000000; stroke-width: 0.8"/>
      </g>
     </g>
     <g id="text_8">
      <!-- −40 -->
      <g transform="translate(48.917312 293.386423) scale(0.15 -0.15)">
       <use xlink:href="#DejaVuSans-2212"/>
       <use xlink:href="#DejaVuSans-34" transform="translate(83.789062 0)"/>
       <use xlink:href="#DejaVuSans-30" transform="translate(147.412109 0)"/>
      </g>
     </g>
    </g>
    <g id="ytick_3">
     <g id="line2d_8">
      <g>
       <use xlink:href="#m6629b94731" x="87.574344" y="222.217695" style="stroke: #000000; stroke-width: 0.8"/>
      </g>
     </g>
     <g id="text_9">
      <!-- −20 -->
      <g transform="translate(48.917312 227.916523) scale(0.15 -0.15)">
       <use xlink:href="#DejaVuSans-2212"/>
       <use xlink:href="#DejaVuSans-32" transform="translate(83.789062 0)"/>
       <use xlink:href="#DejaVuSans-30" transform="translate(147.412109 0)"/>
      </g>
     </g>
    </g>
    <g id="ytick_4">
     <g id="line2d_9">
      <g>
       <use xlink:href="#m6629b94731" x="87.574344" y="156.747796" style="stroke: #000000; stroke-width: 0.8"/>
      </g>
     </g>
     <g id="text_10">
      <!-- 0 -->
      <g transform="translate(71.030594 162.446624) scale(0.15 -0.15)">
       <use xlink:href="#DejaVuSans-30"/>
      </g>
     </g>
    </g>
    <g id="ytick_5">
     <g id="line2d_10">
      <g>
       <use xlink:href="#m6629b94731" x="87.574344" y="91.277896" style="stroke: #000000; stroke-width: 0.8"/>
      </g>
     </g>
     <g id="text_11">
      <!-- 20 -->
      <g transform="translate(61.486844 96.976724) scale(0.15 -0.15)">
       <use xlink:href="#DejaVuSans-32"/>
       <use xlink:href="#DejaVuSans-30" transform="translate(63.623047 0)"/>
      </g>
     </g>
    </g>
    <g id="text_12">
     <!-- SBP -->
     <g transform="translate(20.877187 226.181812) rotate(-90) scale(0.18 -0.18)">
      <defs>
       <path id="DejaVuSans-Bold-53" d="M 3834 4519 
L 3834 3531 
Q 3450 3703 3084 3790 
Q 2719 3878 2394 3878 
Q 1963 3878 1756 3759 
Q 1550 3641 1550 3391 
Q 1550 3203 1689 3098 
Q 1828 2994 2194 2919 
L 2706 2816 
Q 3484 2659 3812 2340 
Q 4141 2022 4141 1434 
Q 4141 663 3683 286 
Q 3225 -91 2284 -91 
Q 1841 -91 1394 -6 
Q 947 78 500 244 
L 500 1259 
Q 947 1022 1364 901 
Q 1781 781 2169 781 
Q 2563 781 2772 912 
Q 2981 1044 2981 1288 
Q 2981 1506 2839 1625 
Q 2697 1744 2272 1838 
L 1806 1941 
Q 1106 2091 782 2419 
Q 459 2747 459 3303 
Q 459 4000 909 4375 
Q 1359 4750 2203 4750 
Q 2588 4750 2994 4692 
Q 3400 4634 3834 4519 
z
" transform="scale(0.015625)"/>
       <path id="DejaVuSans-Bold-42" d="M 2456 2859 
Q 2741 2859 2887 2984 
Q 3034 3109 3034 3353 
Q 3034 3594 2887 3720 
Q 2741 3847 2456 3847 
L 1791 3847 
L 1791 2859 
L 2456 2859 
z
M 2497 819 
Q 2859 819 3042 972 
Q 3225 1125 3225 1434 
Q 3225 1738 3044 1889 
Q 2863 2041 2497 2041 
L 1791 2041 
L 1791 819 
L 2497 819 
z
M 3616 2497 
Q 4003 2384 4215 2081 
Q 4428 1778 4428 1338 
Q 4428 663 3972 331 
Q 3516 0 2584 0 
L 588 0 
L 588 4666 
L 2394 4666 
Q 3366 4666 3802 4372 
Q 4238 4078 4238 3431 
Q 4238 3091 4078 2852 
Q 3919 2613 3616 2497 
z
" transform="scale(0.015625)"/>
       <path id="DejaVuSans-Bold-50" d="M 588 4666 
L 2584 4666 
Q 3475 4666 3951 4270 
Q 4428 3875 4428 3144 
Q 4428 2409 3951 2014 
Q 3475 1619 2584 1619 
L 1791 1619 
L 1791 0 
L 588 0 
L 588 4666 
z
M 1791 3794 
L 1791 2491 
L 2456 2491 
Q 2806 2491 2997 2661 
Q 3188 2831 3188 3144 
Q 3188 3456 2997 3625 
Q 2806 3794 2456 3794 
L 1791 3794 
z
" transform="scale(0.015625)"/>
      </defs>
      <use xlink:href="#DejaVuSans-Bold-53"/>
      <use xlink:href="#DejaVuSans-Bold-42" transform="translate(72.021484 0)"/>
      <use xlink:href="#DejaVuSans-Bold-50" transform="translate(148.242188 0)"/>
     </g>
     <!-- change [mmHg] -->
     <g transform="translate(41.03325 287.103375) rotate(-90) scale(0.18 -0.18)">
      <defs>
       <path id="DejaVuSans-Bold-63" d="M 3366 3391 
L 3366 2478 
Q 3138 2634 2908 2709 
Q 2678 2784 2431 2784 
Q 1963 2784 1702 2511 
Q 1441 2238 1441 1747 
Q 1441 1256 1702 982 
Q 1963 709 2431 709 
Q 2694 709 2930 787 
Q 3166 866 3366 1019 
L 3366 103 
Q 3103 6 2833 -42 
Q 2563 -91 2291 -91 
Q 1344 -91 809 395 
Q 275 881 275 1747 
Q 275 2613 809 3098 
Q 1344 3584 2291 3584 
Q 2566 3584 2833 3536 
Q 3100 3488 3366 3391 
z
" transform="scale(0.015625)"/>
       <path id="DejaVuSans-Bold-61" d="M 2106 1575 
Q 1756 1575 1579 1456 
Q 1403 1338 1403 1106 
Q 1403 894 1545 773 
Q 1688 653 1941 653 
Q 2256 653 2472 879 
Q 2688 1106 2688 1447 
L 2688 1575 
L 2106 1575 
z
M 3816 1997 
L 3816 0 
L 2688 0 
L 2688 519 
Q 2463 200 2181 54 
Q 1900 -91 1497 -91 
Q 953 -91 614 226 
Q 275 544 275 1050 
Q 275 1666 698 1953 
Q 1122 2241 2028 2241 
L 2688 2241 
L 2688 2328 
Q 2688 2594 2478 2717 
Q 2269 2841 1825 2841 
Q 1466 2841 1156 2769 
Q 847 2697 581 2553 
L 581 3406 
Q 941 3494 1303 3539 
Q 1666 3584 2028 3584 
Q 2975 3584 3395 3211 
Q 3816 2838 3816 1997 
z
" transform="scale(0.015625)"/>
       <path id="DejaVuSans-Bold-6e" d="M 4056 2131 
L 4056 0 
L 2931 0 
L 2931 347 
L 2931 1631 
Q 2931 2084 2911 2256 
Q 2891 2428 2841 2509 
Q 2775 2619 2662 2680 
Q 2550 2741 2406 2741 
Q 2056 2741 1856 2470 
Q 1656 2200 1656 1722 
L 1656 0 
L 538 0 
L 538 3500 
L 1656 3500 
L 1656 2988 
Q 1909 3294 2193 3439 
Q 2478 3584 2822 3584 
Q 3428 3584 3742 3212 
Q 4056 2841 4056 2131 
z
" transform="scale(0.015625)"/>
       <path id="DejaVuSans-Bold-67" d="M 2919 594 
Q 2688 288 2409 144 
Q 2131 0 1766 0 
Q 1125 0 706 504 
Q 288 1009 288 1791 
Q 288 2575 706 3076 
Q 1125 3578 1766 3578 
Q 2131 3578 2409 3434 
Q 2688 3291 2919 2981 
L 2919 3500 
L 4044 3500 
L 4044 353 
Q 4044 -491 3511 -936 
Q 2978 -1381 1966 -1381 
Q 1638 -1381 1331 -1331 
Q 1025 -1281 716 -1178 
L 716 -306 
Q 1009 -475 1290 -558 
Q 1572 -641 1856 -641 
Q 2406 -641 2662 -400 
Q 2919 -159 2919 353 
L 2919 594 
z
M 2181 2772 
Q 1834 2772 1640 2515 
Q 1447 2259 1447 1791 
Q 1447 1309 1634 1061 
Q 1822 813 2181 813 
Q 2531 813 2725 1069 
Q 2919 1325 2919 1791 
Q 2919 2259 2725 2515 
Q 2531 2772 2181 2772 
z
" transform="scale(0.015625)"/>
       <path id="DejaVuSans-Bold-48" d="M 588 4666 
L 1791 4666 
L 1791 2888 
L 3566 2888 
L 3566 4666 
L 4769 4666 
L 4769 0 
L 3566 0 
L 3566 1978 
L 1791 1978 
L 1791 0 
L 588 0 
L 588 4666 
z
" transform="scale(0.015625)"/>
      </defs>
      <use xlink:href="#DejaVuSans-Bold-63"/>
      <use xlink:href="#DejaVuSans-Bold-68" transform="translate(59.277344 0)"/>
      <use xlink:href="#DejaVuSans-Bold-61" transform="translate(130.46875 0)"/>
      <use xlink:href="#DejaVuSans-Bold-6e" transform="translate(197.949219 0)"/>
      <use xlink:href="#DejaVuSans-Bold-67" transform="translate(269.140625 0)"/>
      <use xlink:href="#DejaVuSans-Bold-65" transform="translate(340.722656 0)"/>
      <use xlink:href="#DejaVuSans-Bold-20" transform="translate(408.544922 0)"/>
      <use xlink:href="#DejaVuSans-Bold-5b" transform="translate(443.359375 0)"/>
      <use xlink:href="#DejaVuSans-Bold-6d" transform="translate(489.0625 0)"/>
      <use xlink:href="#DejaVuSans-Bold-6d" transform="translate(593.261719 0)"/>
      <use xlink:href="#DejaVuSans-Bold-48" transform="translate(697.460938 0)"/>
      <use xlink:href="#DejaVuSans-Bold-67" transform="translate(781.152344 0)"/>
      <use xlink:href="#DejaVuSans-Bold-5d" transform="translate(852.734375 0)"/>
     </g>
    </g>
   </g>
   <g id="LineCollection_1">
    <path d="M 330.991735 349.884 
L 330.991735 208.469016 
" clip-path="url(#p2350106321)" style="fill: none; stroke: #338dff"/>
   </g>
   <g id="LineCollection_2">
    <path d="M 123.426518 247.74765 
L 123.426518 118.123861 
" clip-path="url(#p2350106321)" style="fill: none; stroke: #000000"/>
   </g>
   <g id="line2d_11">
    <path d="M 104.556952 156.747796 
L 105.406083 157.797821 
L 106.255213 161.032493 
L 108.802605 173.894277 
L 111.349996 186.428973 
L 113.897387 197.841141 
L 116.444779 208.157504 
L 118.99217 217.458585 
L 121.539561 225.826378 
L 124.086952 233.337461 
L 126.634344 240.061497 
L 129.181735 246.060981 
L 131.729126 251.391406 
L 134.276518 256.101593 
L 136.823909 260.234095 
L 139.3713 263.825644 
L 141.918692 266.907644 
L 144.466083 269.506715 
L 146.164344 270.982366 
L 147.862605 272.259175 
L 149.560865 273.342291 
L 151.259126 274.236364 
L 152.957387 274.945643 
L 154.655648 275.474082 
L 156.353909 275.825438 
L 158.05217 276.003365 
L 159.750431 276.011496 
L 161.448692 275.85352 
L 163.146952 275.533233 
L 164.845213 275.05458 
L 167.392605 274.048735 
L 169.939996 272.710589 
L 172.487387 271.055739 
L 175.034779 269.10055 
L 177.58217 266.86196 
L 180.129561 264.357278 
L 183.526083 260.634014 
L 186.922605 256.510233 
L 190.319126 252.026958 
L 194.564779 245.978637 
L 198.810431 239.508297 
L 203.905213 231.291626 
L 209.849126 221.238911 
L 218.340431 206.364408 
L 232.775648 181.011415 
L 239.568692 169.578094 
L 245.512605 160.048058 
L 250.607387 152.314796 
L 254.853039 146.218336 
L 259.098692 140.464504 
L 263.344344 135.072261 
L 267.589996 130.0553 
L 271.835648 125.422314 
L 276.0813 121.177338 
L 279.477822 118.060711 
L 282.874344 115.190454 
L 286.270865 112.563267 
L 289.667387 110.174596 
L 293.063909 108.018785 
L 296.460431 106.089229 
L 299.856952 104.378519 
L 303.253474 102.878584 
L 306.649996 101.580822 
L 310.046518 100.476221 
L 314.29217 99.352905 
L 318.537822 98.498267 
L 322.783474 97.893534 
L 327.029126 97.519975 
L 331.274779 97.359105 
L 335.520431 97.392854 
L 340.615213 97.665629 
L 345.709996 98.164459 
L 351.653909 98.995612 
L 357.597822 100.056501 
L 364.390865 101.502452 
L 372.033039 103.366943 
L 381.373474 105.89934 
L 393.2613 109.381749 
L 442.510865 124.107825 
L 444.209126 124.57875 
L 444.209126 124.57875 
" clip-path="url(#p2350106321)" style="fill: none; stroke: #338dff; stroke-width: 2; stroke-linecap: square"/>
   </g>
   <g id="line2d_12">
    <path d="M 330.991735 279.176508 
" clip-path="url(#p2350106321)" style="fill: none; stroke-dasharray: 3.7,1.6; stroke-dashoffset: 0; stroke: #338dff"/>
    <defs>
     <path id="mc0b1a8ce91" d="M -3 3 
L 3 3 
L 3 -3 
L -3 -3 
z
" style="stroke: #000000; stroke-linejoin: miter"/>
    </defs>
    <g clip-path="url(#p2350106321)">
     <use xlink:href="#mc0b1a8ce91" x="330.991735" y="279.176508" style="fill: #338dff; stroke: #000000; stroke-linejoin: miter"/>
    </g>
   </g>
   <g id="line2d_13">
    <path d="M 104.556952 156.747796 
L 105.406083 158.063094 
L 106.255213 162.113727 
L 108.802605 178.212924 
L 111.349996 193.893685 
L 113.897387 208.161412 
L 116.444779 221.049917 
L 118.99217 232.659696 
L 121.539561 243.092648 
L 124.086952 252.443573 
L 126.634344 260.798352 
L 129.181735 268.233667 
L 131.729126 274.817225 
L 134.276518 280.608191 
L 136.823909 285.657722 
L 139.3713 290.00957 
L 141.069561 292.541745 
L 142.767822 294.789891 
L 144.466083 296.762413 
L 146.164344 298.466768 
L 147.862605 299.909599 
L 149.560865 301.096866 
L 151.259126 302.033988 
L 152.957387 302.725984 
L 154.655648 303.17761 
L 156.353909 303.393489 
L 158.05217 303.378226 
L 159.750431 303.136508 
L 161.448692 302.673184 
L 163.146952 301.993323 
L 164.845213 301.102246 
L 166.543474 300.005543 
L 168.241735 298.709073 
L 170.789126 296.403219 
L 173.336518 293.683175 
L 175.883909 290.571287 
L 178.4313 287.090471 
L 180.978692 283.263947 
L 184.375213 277.664441 
L 187.771735 271.546814 
L 191.168257 264.965475 
L 195.413909 256.168267 
L 199.659561 246.832951 
L 204.754344 235.062008 
L 210.698257 220.760422 
L 220.887822 195.543529 
L 231.077387 170.517169 
L 237.0213 156.460341 
L 242.116083 144.917424 
L 247.210865 133.953725 
L 251.456518 125.324874 
L 255.70217 117.20349 
L 259.947822 109.623914 
L 263.344344 103.968093 
L 266.740865 98.685363 
L 270.137387 93.782063 
L 273.533909 89.261491 
L 276.930431 85.124085 
L 280.326952 81.367644 
L 283.723474 77.987553 
L 287.119996 74.977025 
L 290.516518 72.327353 
L 293.913039 70.028148 
L 297.309561 68.06759 
L 300.706083 66.432657 
L 304.102605 65.109355 
L 307.499126 64.082925 
L 310.895648 63.338042 
L 314.29217 62.858997 
L 317.688692 62.629858 
L 321.085213 62.634618 
L 324.481735 62.85733 
L 327.878257 63.282216 
L 332.123909 64.074039 
L 336.369561 65.128065 
L 340.615213 66.415876 
L 345.709996 68.231668 
L 350.804779 70.300663 
L 356.748692 72.979486 
L 363.541735 76.317068 
L 371.183909 80.328024 
L 382.222605 86.407777 
L 409.394779 101.496512 
L 419.584344 106.84185 
L 428.924779 111.485547 
L 437.416083 115.463815 
L 444.209126 118.467742 
L 444.209126 118.467742 
" clip-path="url(#p2350106321)" style="fill: none; stroke: #000000; stroke-width: 2; stroke-linecap: square"/>
   </g>
   <g id="line2d_14">
    <path d="M 123.426518 182.935755 
" clip-path="url(#p2350106321)" style="fill: none; stroke-dasharray: 3.7,1.6; stroke-dashoffset: 0; stroke: #000000"/>
    <defs>
     <path id="mdb15047077" d="M -3 3 
L 3 3 
L 3 -3 
L -3 -3 
z
" style="stroke: #000000; stroke-linejoin: miter"/>
    </defs>
    <g clip-path="url(#p2350106321)">
     <use xlink:href="#mdb15047077" x="123.426518" y="182.935755" style="stroke: #000000; stroke-linejoin: miter"/>
    </g>
   </g>
   <g id="patch_3">
    <path d="M 87.574344 364.248 
L 87.574344 48.24 
" style="fill: none; stroke: #000000; stroke-width: 0.8; stroke-linejoin: miter; stroke-linecap: square"/>
   </g>
   <g id="patch_4">
    <path d="M 461.191735 364.248 
L 461.191735 48.24 
" style="fill: none; stroke: #000000; stroke-width: 0.8; stroke-linejoin: miter; stroke-linecap: square"/>
   </g>
   <g id="patch_5">
    <path d="M 87.574344 364.248 
L 461.191735 364.248 
" style="fill: none; stroke: #000000; stroke-width: 0.8; stroke-linejoin: miter; stroke-linecap: square"/>
   </g>
   <g id="patch_6">
    <path d="M 87.574344 48.24 
L 461.191735 48.24 
" style="fill: none; stroke: #000000; stroke-width: 0.8; stroke-linejoin: miter; stroke-linecap: square"/>
   </g>
   <g id="legend_1">
    <g id="patch_7">
     <path d="M 291.493298 359.248 
L 454.191735 359.248 
Q 456.191735 359.248 456.191735 357.248 
L 456.191735 299.5355 
Q 456.191735 297.5355 454.191735 297.5355 
L 291.493298 297.5355 
Q 289.493298 297.5355 289.493298 299.5355 
L 289.493298 357.248 
Q 289.493298 359.248 291.493298 359.248 
z
" style="fill: #ffffff; opacity: 0.8; stroke: #cccccc; stroke-linejoin: miter"/>
    </g>
    <g id="line2d_15">
     <path d="M 293.493298 305.633937 
L 313.493298 305.633937 
" style="fill: none; stroke: #338dff; stroke-width: 2; stroke-linecap: square"/>
    </g>
    <g id="line2d_16"/>
    <g id="text_13">
     <!-- SRI sim: 50 mg -->
     <g transform="translate(321.493298 309.133937) scale(0.1 -0.1)">
      <defs>
       <path id="DejaVuSans-53" d="M 3425 4513 
L 3425 3897 
Q 3066 4069 2747 4153 
Q 2428 4238 2131 4238 
Q 1616 4238 1336 4038 
Q 1056 3838 1056 3469 
Q 1056 3159 1242 3001 
Q 1428 2844 1947 2747 
L 2328 2669 
Q 3034 2534 3370 2195 
Q 3706 1856 3706 1288 
Q 3706 609 3251 259 
Q 2797 -91 1919 -91 
Q 1588 -91 1214 -16 
Q 841 59 441 206 
L 441 856 
Q 825 641 1194 531 
Q 1563 422 1919 422 
Q 2459 422 2753 634 
Q 3047 847 3047 1241 
Q 3047 1584 2836 1778 
Q 2625 1972 2144 2069 
L 1759 2144 
Q 1053 2284 737 2584 
Q 422 2884 422 3419 
Q 422 4038 858 4394 
Q 1294 4750 2059 4750 
Q 2388 4750 2728 4690 
Q 3069 4631 3425 4513 
z
" transform="scale(0.015625)"/>
       <path id="DejaVuSans-52" d="M 2841 2188 
Q 3044 2119 3236 1894 
Q 3428 1669 3622 1275 
L 4263 0 
L 3584 0 
L 2988 1197 
Q 2756 1666 2539 1819 
Q 2322 1972 1947 1972 
L 1259 1972 
L 1259 0 
L 628 0 
L 628 4666 
L 2053 4666 
Q 2853 4666 3247 4331 
Q 3641 3997 3641 3322 
Q 3641 2881 3436 2590 
Q 3231 2300 2841 2188 
z
M 1259 4147 
L 1259 2491 
L 2053 2491 
Q 2509 2491 2742 2702 
Q 2975 2913 2975 3322 
Q 2975 3731 2742 3939 
Q 2509 4147 2053 4147 
L 1259 4147 
z
" transform="scale(0.015625)"/>
       <path id="DejaVuSans-49" d="M 628 4666 
L 1259 4666 
L 1259 0 
L 628 0 
L 628 4666 
z
" transform="scale(0.015625)"/>
       <path id="DejaVuSans-20" transform="scale(0.015625)"/>
       <path id="DejaVuSans-73" d="M 2834 3397 
L 2834 2853 
Q 2591 2978 2328 3040 
Q 2066 3103 1784 3103 
Q 1356 3103 1142 2972 
Q 928 2841 928 2578 
Q 928 2378 1081 2264 
Q 1234 2150 1697 2047 
L 1894 2003 
Q 2506 1872 2764 1633 
Q 3022 1394 3022 966 
Q 3022 478 2636 193 
Q 2250 -91 1575 -91 
Q 1294 -91 989 -36 
Q 684 19 347 128 
L 347 722 
Q 666 556 975 473 
Q 1284 391 1588 391 
Q 1994 391 2212 530 
Q 2431 669 2431 922 
Q 2431 1156 2273 1281 
Q 2116 1406 1581 1522 
L 1381 1569 
Q 847 1681 609 1914 
Q 372 2147 372 2553 
Q 372 3047 722 3315 
Q 1072 3584 1716 3584 
Q 2034 3584 2315 3537 
Q 2597 3491 2834 3397 
z
" transform="scale(0.015625)"/>
       <path id="DejaVuSans-69" d="M 603 3500 
L 1178 3500 
L 1178 0 
L 603 0 
L 603 3500 
z
M 603 4863 
L 1178 4863 
L 1178 4134 
L 603 4134 
L 603 4863 
z
" transform="scale(0.015625)"/>
       <path id="DejaVuSans-6d" d="M 3328 2828 
Q 3544 3216 3844 3400 
Q 4144 3584 4550 3584 
Q 5097 3584 5394 3201 
Q 5691 2819 5691 2113 
L 5691 0 
L 5113 0 
L 5113 2094 
Q 5113 2597 4934 2840 
Q 4756 3084 4391 3084 
Q 3944 3084 3684 2787 
Q 3425 2491 3425 1978 
L 3425 0 
L 2847 0 
L 2847 2094 
Q 2847 2600 2669 2842 
Q 2491 3084 2119 3084 
Q 1678 3084 1418 2786 
Q 1159 2488 1159 1978 
L 1159 0 
L 581 0 
L 581 3500 
L 1159 3500 
L 1159 2956 
Q 1356 3278 1631 3431 
Q 1906 3584 2284 3584 
Q 2666 3584 2933 3390 
Q 3200 3197 3328 2828 
z
" transform="scale(0.015625)"/>
       <path id="DejaVuSans-3a" d="M 750 794 
L 1409 794 
L 1409 0 
L 750 0 
L 750 794 
z
M 750 3309 
L 1409 3309 
L 1409 2516 
L 750 2516 
L 750 3309 
z
" transform="scale(0.015625)"/>
       <path id="DejaVuSans-35" d="M 691 4666 
L 3169 4666 
L 3169 4134 
L 1269 4134 
L 1269 2991 
Q 1406 3038 1543 3061 
Q 1681 3084 1819 3084 
Q 2600 3084 3056 2656 
Q 3513 2228 3513 1497 
Q 3513 744 3044 326 
Q 2575 -91 1722 -91 
Q 1428 -91 1123 -41 
Q 819 9 494 109 
L 494 744 
Q 775 591 1075 516 
Q 1375 441 1709 441 
Q 2250 441 2565 725 
Q 2881 1009 2881 1497 
Q 2881 1984 2565 2268 
Q 2250 2553 1709 2553 
Q 1456 2553 1204 2497 
Q 953 2441 691 2322 
L 691 4666 
z
" transform="scale(0.015625)"/>
       <path id="DejaVuSans-67" d="M 2906 1791 
Q 2906 2416 2648 2759 
Q 2391 3103 1925 3103 
Q 1463 3103 1205 2759 
Q 947 2416 947 1791 
Q 947 1169 1205 825 
Q 1463 481 1925 481 
Q 2391 481 2648 825 
Q 2906 1169 2906 1791 
z
M 3481 434 
Q 3481 -459 3084 -895 
Q 2688 -1331 1869 -1331 
Q 1566 -1331 1297 -1286 
Q 1028 -1241 775 -1147 
L 775 -588 
Q 1028 -725 1275 -790 
Q 1522 -856 1778 -856 
Q 2344 -856 2625 -561 
Q 2906 -266 2906 331 
L 2906 616 
Q 2728 306 2450 153 
Q 2172 0 1784 0 
Q 1141 0 747 490 
Q 353 981 353 1791 
Q 353 2603 747 3093 
Q 1141 3584 1784 3584 
Q 2172 3584 2450 3431 
Q 2728 3278 2906 2969 
L 2906 3500 
L 3481 3500 
L 3481 434 
z
" transform="scale(0.015625)"/>
      </defs>
      <use xlink:href="#DejaVuSans-53"/>
      <use xlink:href="#DejaVuSans-52" transform="translate(63.476562 0)"/>
      <use xlink:href="#DejaVuSans-49" transform="translate(132.958984 0)"/>
      <use xlink:href="#DejaVuSans-20" transform="translate(162.451172 0)"/>
      <use xlink:href="#DejaVuSans-73" transform="translate(194.238281 0)"/>
      <use xlink:href="#DejaVuSans-69" transform="translate(246.337891 0)"/>
      <use xlink:href="#DejaVuSans-6d" transform="translate(274.121094 0)"/>
      <use xlink:href="#DejaVuSans-3a" transform="translate(371.533203 0)"/>
      <use xlink:href="#DejaVuSans-20" transform="translate(405.224609 0)"/>
      <use xlink:href="#DejaVuSans-35" transform="translate(437.011719 0)"/>
      <use xlink:href="#DejaVuSans-30" transform="translate(500.634766 0)"/>
      <use xlink:href="#DejaVuSans-20" transform="translate(564.257812 0)"/>
      <use xlink:href="#DejaVuSans-6d" transform="translate(596.044922 0)"/>
      <use xlink:href="#DejaVuSans-67" transform="translate(693.457031 0)"/>
     </g>
    </g>
    <g id="LineCollection_3">
     <path d="M 303.493298 325.312062 
L 303.493298 315.312062 
" style="fill: none; stroke: #338dff"/>
    </g>
    <g id="line2d_17">
     <path d="M 293.493298 320.312062 
L 313.493298 320.312062 
" style="fill: none; stroke-dasharray: 3.7,1.6; stroke-dashoffset: 0; stroke: #338dff"/>
    </g>
    <g id="line2d_18">
     <g>
      <use xlink:href="#mc0b1a8ce91" x="303.493298" y="320.312062" style="fill: #338dff; stroke: #000000; stroke-linejoin: miter"/>
     </g>
    </g>
    <g id="text_14">
     <!-- SRI exp: 50 mg±SD (n=9) -->
     <g transform="translate(321.493298 323.812062) scale(0.1 -0.1)">
      <defs>
       <path id="DejaVuSans-65" d="M 3597 1894 
L 3597 1613 
L 953 1613 
Q 991 1019 1311 708 
Q 1631 397 2203 397 
Q 2534 397 2845 478 
Q 3156 559 3463 722 
L 3463 178 
Q 3153 47 2828 -22 
Q 2503 -91 2169 -91 
Q 1331 -91 842 396 
Q 353 884 353 1716 
Q 353 2575 817 3079 
Q 1281 3584 2069 3584 
Q 2775 3584 3186 3129 
Q 3597 2675 3597 1894 
z
M 3022 2063 
Q 3016 2534 2758 2815 
Q 2500 3097 2075 3097 
Q 1594 3097 1305 2825 
Q 1016 2553 972 2059 
L 3022 2063 
z
" transform="scale(0.015625)"/>
       <path id="DejaVuSans-78" d="M 3513 3500 
L 2247 1797 
L 3578 0 
L 2900 0 
L 1881 1375 
L 863 0 
L 184 0 
L 1544 1831 
L 300 3500 
L 978 3500 
L 1906 2253 
L 2834 3500 
L 3513 3500 
z
" transform="scale(0.015625)"/>
       <path id="DejaVuSans-70" d="M 1159 525 
L 1159 -1331 
L 581 -1331 
L 581 3500 
L 1159 3500 
L 1159 2969 
Q 1341 3281 1617 3432 
Q 1894 3584 2278 3584 
Q 2916 3584 3314 3078 
Q 3713 2572 3713 1747 
Q 3713 922 3314 415 
Q 2916 -91 2278 -91 
Q 1894 -91 1617 61 
Q 1341 213 1159 525 
z
M 3116 1747 
Q 3116 2381 2855 2742 
Q 2594 3103 2138 3103 
Q 1681 3103 1420 2742 
Q 1159 2381 1159 1747 
Q 1159 1113 1420 752 
Q 1681 391 2138 391 
Q 2594 391 2855 752 
Q 3116 1113 3116 1747 
z
" transform="scale(0.015625)"/>
       <path id="DejaVuSans-b1" d="M 2944 4013 
L 2944 2803 
L 4684 2803 
L 4684 2272 
L 2944 2272 
L 2944 1063 
L 2419 1063 
L 2419 2272 
L 678 2272 
L 678 2803 
L 2419 2803 
L 2419 4013 
L 2944 4013 
z
M 678 531 
L 4684 531 
L 4684 0 
L 678 0 
L 678 531 
z
" transform="scale(0.015625)"/>
       <path id="DejaVuSans-44" d="M 1259 4147 
L 1259 519 
L 2022 519 
Q 2988 519 3436 956 
Q 3884 1394 3884 2338 
Q 3884 3275 3436 3711 
Q 2988 4147 2022 4147 
L 1259 4147 
z
M 628 4666 
L 1925 4666 
Q 3281 4666 3915 4102 
Q 4550 3538 4550 2338 
Q 4550 1131 3912 565 
Q 3275 0 1925 0 
L 628 0 
L 628 4666 
z
" transform="scale(0.015625)"/>
       <path id="DejaVuSans-28" d="M 1984 4856 
Q 1566 4138 1362 3434 
Q 1159 2731 1159 2009 
Q 1159 1288 1364 580 
Q 1569 -128 1984 -844 
L 1484 -844 
Q 1016 -109 783 600 
Q 550 1309 550 2009 
Q 550 2706 781 3412 
Q 1013 4119 1484 4856 
L 1984 4856 
z
" transform="scale(0.015625)"/>
       <path id="DejaVuSans-6e" d="M 3513 2113 
L 3513 0 
L 2938 0 
L 2938 2094 
Q 2938 2591 2744 2837 
Q 2550 3084 2163 3084 
Q 1697 3084 1428 2787 
Q 1159 2491 1159 1978 
L 1159 0 
L 581 0 
L 581 3500 
L 1159 3500 
L 1159 2956 
Q 1366 3272 1645 3428 
Q 1925 3584 2291 3584 
Q 2894 3584 3203 3211 
Q 3513 2838 3513 2113 
z
" transform="scale(0.015625)"/>
       <path id="DejaVuSans-3d" d="M 678 2906 
L 4684 2906 
L 4684 2381 
L 678 2381 
L 678 2906 
z
M 678 1631 
L 4684 1631 
L 4684 1100 
L 678 1100 
L 678 1631 
z
" transform="scale(0.015625)"/>
       <path id="DejaVuSans-39" d="M 703 97 
L 703 672 
Q 941 559 1184 500 
Q 1428 441 1663 441 
Q 2288 441 2617 861 
Q 2947 1281 2994 2138 
Q 2813 1869 2534 1725 
Q 2256 1581 1919 1581 
Q 1219 1581 811 2004 
Q 403 2428 403 3163 
Q 403 3881 828 4315 
Q 1253 4750 1959 4750 
Q 2769 4750 3195 4129 
Q 3622 3509 3622 2328 
Q 3622 1225 3098 567 
Q 2575 -91 1691 -91 
Q 1453 -91 1209 -44 
Q 966 3 703 97 
z
M 1959 2075 
Q 2384 2075 2632 2365 
Q 2881 2656 2881 3163 
Q 2881 3666 2632 3958 
Q 2384 4250 1959 4250 
Q 1534 4250 1286 3958 
Q 1038 3666 1038 3163 
Q 1038 2656 1286 2365 
Q 1534 2075 1959 2075 
z
" transform="scale(0.015625)"/>
       <path id="DejaVuSans-29" d="M 513 4856 
L 1013 4856 
Q 1481 4119 1714 3412 
Q 1947 2706 1947 2009 
Q 1947 1309 1714 600 
Q 1481 -109 1013 -844 
L 513 -844 
Q 928 -128 1133 580 
Q 1338 1288 1338 2009 
Q 1338 2731 1133 3434 
Q 928 4138 513 4856 
z
" transform="scale(0.015625)"/>
      </defs>
      <use xlink:href="#DejaVuSans-53"/>
      <use xlink:href="#DejaVuSans-52" transform="translate(63.476562 0)"/>
      <use xlink:href="#DejaVuSans-49" transform="translate(132.958984 0)"/>
      <use xlink:href="#DejaVuSans-20" transform="translate(162.451172 0)"/>
      <use xlink:href="#DejaVuSans-65" transform="translate(194.238281 0)"/>
      <use xlink:href="#DejaVuSans-78" transform="translate(254.011719 0)"/>
      <use xlink:href="#DejaVuSans-70" transform="translate(313.191406 0)"/>
      <use xlink:href="#DejaVuSans-3a" transform="translate(376.667969 0)"/>
      <use xlink:href="#DejaVuSans-20" transform="translate(410.359375 0)"/>
      <use xlink:href="#DejaVuSans-35" transform="translate(442.146484 0)"/>
      <use xlink:href="#DejaVuSans-30" transform="translate(505.769531 0)"/>
      <use xlink:href="#DejaVuSans-20" transform="translate(569.392578 0)"/>
      <use xlink:href="#DejaVuSans-6d" transform="translate(601.179688 0)"/>
      <use xlink:href="#DejaVuSans-67" transform="translate(698.591797 0)"/>
      <use xlink:href="#DejaVuSans-b1" transform="translate(762.068359 0)"/>
      <use xlink:href="#DejaVuSans-53" transform="translate(845.857422 0)"/>
      <use xlink:href="#DejaVuSans-44" transform="translate(909.333984 0)"/>
      <use xlink:href="#DejaVuSans-20" transform="translate(986.335938 0)"/>
      <use xlink:href="#DejaVuSans-28" transform="translate(1018.123047 0)"/>
      <use xlink:href="#DejaVuSans-6e" transform="translate(1057.136719 0)"/>
      <use xlink:href="#DejaVuSans-3d" transform="translate(1120.515625 0)"/>
      <use xlink:href="#DejaVuSans-39" transform="translate(1204.304688 0)"/>
      <use xlink:href="#DejaVuSans-29" transform="translate(1267.927734 0)"/>
     </g>
    </g>
    <g id="line2d_19">
     <path d="M 293.493298 334.990187 
L 313.493298 334.990187 
" style="fill: none; stroke: #000000; stroke-width: 2; stroke-linecap: square"/>
    </g>
    <g id="line2d_20"/>
    <g id="text_15">
     <!-- sim: 50 mg -->
     <g transform="translate(321.493298 338.490187) scale(0.1 -0.1)">
      <use xlink:href="#DejaVuSans-73"/>
      <use xlink:href="#DejaVuSans-69" transform="translate(52.099609 0)"/>
      <use xlink:href="#DejaVuSans-6d" transform="translate(79.882812 0)"/>
      <use xlink:href="#DejaVuSans-3a" transform="translate(177.294922 0)"/>
      <use xlink:href="#DejaVuSans-20" transform="translate(210.986328 0)"/>
      <use xlink:href="#DejaVuSans-35" transform="translate(242.773438 0)"/>
      <use xlink:href="#DejaVuSans-30" transform="translate(306.396484 0)"/>
      <use xlink:href="#DejaVuSans-20" transform="translate(370.019531 0)"/>
      <use xlink:href="#DejaVuSans-6d" transform="translate(401.806641 0)"/>
      <use xlink:href="#DejaVuSans-67" transform="translate(499.21875 0)"/>
     </g>
    </g>
    <g id="LineCollection_4">
     <path d="M 303.493298 354.668312 
L 303.493298 344.668312 
" style="fill: none; stroke: #000000"/>
    </g>
    <g id="line2d_21">
     <path d="M 293.493298 349.668312 
L 313.493298 349.668312 
" style="fill: none; stroke-dasharray: 3.7,1.6; stroke-dashoffset: 0; stroke: #000000"/>
    </g>
    <g id="line2d_22">
     <g>
      <use xlink:href="#mdb15047077" x="303.493298" y="349.668312" style="stroke: #000000; stroke-linejoin: miter"/>
     </g>
    </g>
    <g id="text_16">
     <!-- exp: 50 mg±SD (n=8) -->
     <g transform="translate(321.493298 353.168312) scale(0.1 -0.1)">
      <use xlink:href="#DejaVuSans-65"/>
      <use xlink:href="#DejaVuSans-78" transform="translate(59.773438 0)"/>
      <use xlink:href="#DejaVuSans-70" transform="translate(118.953125 0)"/>
      <use xlink:href="#DejaVuSans-3a" transform="translate(182.429688 0)"/>
      <use xlink:href="#DejaVuSans-20" transform="translate(216.121094 0)"/>
      <use xlink:href="#DejaVuSans-35" transform="translate(247.908203 0)"/>
      <use xlink:href="#DejaVuSans-30" transform="translate(311.53125 0)"/>
      <use xlink:href="#DejaVuSans-20" transform="translate(375.154297 0)"/>
      <use xlink:href="#DejaVuSans-6d" transform="translate(406.941406 0)"/>
      <use xlink:href="#DejaVuSans-67" transform="translate(504.353516 0)"/>
      <use xlink:href="#DejaVuSans-b1" transform="translate(567.830078 0)"/>
      <use xlink:href="#DejaVuSans-53" transform="translate(651.619141 0)"/>
      <use xlink:href="#DejaVuSans-44" transform="translate(715.095703 0)"/>
      <use xlink:href="#DejaVuSans-20" transform="translate(792.097656 0)"/>
      <use xlink:href="#DejaVuSans-28" transform="translate(823.884766 0)"/>
      <use xlink:href="#DejaVuSans-6e" transform="translate(862.898438 0)"/>
      <use xlink:href="#DejaVuSans-3d" transform="translate(926.277344 0)"/>
      <use xlink:href="#DejaVuSans-38" transform="translate(1010.066406 0)"/>
      <use xlink:href="#DejaVuSans-29" transform="translate(1073.689453 0)"/>
     </g>
    </g>
   </g>
  </g>
  <g id="axes_2">
   <g id="patch_8">
    <path d="M 573.276952 364.248 
L 946.894344 364.248 
L 946.894344 48.24 
L 573.276952 48.24 
z
" style="fill: #ffffff"/>
   </g>
   <g id="matplotlib.axis_3">
    <g id="xtick_6">
     <g id="line2d_23">
      <g>
       <use xlink:href="#m5c4b470042" x="590.259561" y="364.248" style="stroke: #000000; stroke-width: 0.8"/>
      </g>
     </g>
     <g id="text_17">
      <!-- 0 -->
      <g transform="translate(585.487686 382.645656) scale(0.15 -0.15)">
       <use xlink:href="#DejaVuSans-30"/>
      </g>
     </g>
    </g>
    <g id="xtick_7">
     <g id="line2d_24">
      <g>
       <use xlink:href="#m5c4b470042" x="665.737822" y="364.248" style="stroke: #000000; stroke-width: 0.8"/>
      </g>
     </g>
     <g id="text_18">
      <!-- 2 -->
      <g transform="translate(660.965947 382.645656) scale(0.15 -0.15)">
       <use xlink:href="#DejaVuSans-32"/>
      </g>
     </g>
    </g>
    <g id="xtick_8">
     <g id="line2d_25">
      <g>
       <use xlink:href="#m5c4b470042" x="741.216083" y="364.248" style="stroke: #000000; stroke-width: 0.8"/>
      </g>
     </g>
     <g id="text_19">
      <!-- 4 -->
      <g transform="translate(736.444208 382.645656) scale(0.15 -0.15)">
       <use xlink:href="#DejaVuSans-34"/>
      </g>
     </g>
    </g>
    <g id="xtick_9">
     <g id="line2d_26">
      <g>
       <use xlink:href="#m5c4b470042" x="816.694344" y="364.248" style="stroke: #000000; stroke-width: 0.8"/>
      </g>
     </g>
     <g id="text_20">
      <!-- 6 -->
      <g transform="translate(811.922469 382.645656) scale(0.15 -0.15)">
       <use xlink:href="#DejaVuSans-36"/>
      </g>
     </g>
    </g>
    <g id="xtick_10">
     <g id="line2d_27">
      <g>
       <use xlink:href="#m5c4b470042" x="892.172605" y="364.248" style="stroke: #000000; stroke-width: 0.8"/>
      </g>
     </g>
     <g id="text_21">
      <!-- 8 -->
      <g transform="translate(887.40073 382.645656) scale(0.15 -0.15)">
       <use xlink:href="#DejaVuSans-38"/>
      </g>
     </g>
    </g>
    <g id="text_22">
     <!-- time [hr] -->
     <g transform="translate(715.011117 403.442375) scale(0.18 -0.18)">
      <use xlink:href="#DejaVuSans-Bold-74"/>
      <use xlink:href="#DejaVuSans-Bold-69" transform="translate(47.802734 0)"/>
      <use xlink:href="#DejaVuSans-Bold-6d" transform="translate(82.080078 0)"/>
      <use xlink:href="#DejaVuSans-Bold-65" transform="translate(186.279297 0)"/>
      <use xlink:href="#DejaVuSans-Bold-20" transform="translate(254.101562 0)"/>
      <use xlink:href="#DejaVuSans-Bold-5b" transform="translate(288.916016 0)"/>
      <use xlink:href="#DejaVuSans-Bold-68" transform="translate(334.619141 0)"/>
      <use xlink:href="#DejaVuSans-Bold-72" transform="translate(405.810547 0)"/>
      <use xlink:href="#DejaVuSans-Bold-5d" transform="translate(455.126953 0)"/>
     </g>
    </g>
   </g>
   <g id="matplotlib.axis_4">
    <g id="ytick_6">
     <g id="line2d_28">
      <g>
       <use xlink:href="#m6629b94731" x="573.276952" y="340.666691" style="stroke: #000000; stroke-width: 0.8"/>
      </g>
     </g>
     <g id="text_23">
      <!-- −50 -->
      <g transform="translate(534.619921 346.36552) scale(0.15 -0.15)">
       <use xlink:href="#DejaVuSans-2212"/>
       <use xlink:href="#DejaVuSans-35" transform="translate(83.789062 0)"/>
       <use xlink:href="#DejaVuSans-30" transform="translate(147.412109 0)"/>
      </g>
     </g>
    </g>
    <g id="ytick_7">
     <g id="line2d_29">
      <g>
       <use xlink:href="#m6629b94731" x="573.276952" y="298.769835" style="stroke: #000000; stroke-width: 0.8"/>
      </g>
     </g>
     <g id="text_24">
      <!-- −40 -->
      <g transform="translate(534.619921 304.468663) scale(0.15 -0.15)">
       <use xlink:href="#DejaVuSans-2212"/>
       <use xlink:href="#DejaVuSans-34" transform="translate(83.789062 0)"/>
       <use xlink:href="#DejaVuSans-30" transform="translate(147.412109 0)"/>
      </g>
     </g>
    </g>
    <g id="ytick_8">
     <g id="line2d_30">
      <g>
       <use xlink:href="#m6629b94731" x="573.276952" y="256.872978" style="stroke: #000000; stroke-width: 0.8"/>
      </g>
     </g>
     <g id="text_25">
      <!-- −30 -->
      <g transform="translate(534.619921 262.571806) scale(0.15 -0.15)">
       <defs>
        <path id="DejaVuSans-33" d="M 2597 2516 
Q 3050 2419 3304 2112 
Q 3559 1806 3559 1356 
Q 3559 666 3084 287 
Q 2609 -91 1734 -91 
Q 1441 -91 1130 -33 
Q 819 25 488 141 
L 488 750 
Q 750 597 1062 519 
Q 1375 441 1716 441 
Q 2309 441 2620 675 
Q 2931 909 2931 1356 
Q 2931 1769 2642 2001 
Q 2353 2234 1838 2234 
L 1294 2234 
L 1294 2753 
L 1863 2753 
Q 2328 2753 2575 2939 
Q 2822 3125 2822 3475 
Q 2822 3834 2567 4026 
Q 2313 4219 1838 4219 
Q 1578 4219 1281 4162 
Q 984 4106 628 3988 
L 628 4550 
Q 988 4650 1302 4700 
Q 1616 4750 1894 4750 
Q 2613 4750 3031 4423 
Q 3450 4097 3450 3541 
Q 3450 3153 3228 2886 
Q 3006 2619 2597 2516 
z
" transform="scale(0.015625)"/>
       </defs>
       <use xlink:href="#DejaVuSans-2212"/>
       <use xlink:href="#DejaVuSans-33" transform="translate(83.789062 0)"/>
       <use xlink:href="#DejaVuSans-30" transform="translate(147.412109 0)"/>
      </g>
     </g>
    </g>
    <g id="ytick_9">
     <g id="line2d_31">
      <g>
       <use xlink:href="#m6629b94731" x="573.276952" y="214.976121" style="stroke: #000000; stroke-width: 0.8"/>
      </g>
     </g>
     <g id="text_26">
      <!-- −20 -->
      <g transform="translate(534.619921 220.674949) scale(0.15 -0.15)">
       <use xlink:href="#DejaVuSans-2212"/>
       <use xlink:href="#DejaVuSans-32" transform="translate(83.789062 0)"/>
       <use xlink:href="#DejaVuSans-30" transform="translate(147.412109 0)"/>
      </g>
     </g>
    </g>
    <g id="ytick_10">
     <g id="line2d_32">
      <g>
       <use xlink:href="#m6629b94731" x="573.276952" y="173.079264" style="stroke: #000000; stroke-width: 0.8"/>
      </g>
     </g>
     <g id="text_27">
      <!-- −10 -->
      <g transform="translate(534.619921 178.778092) scale(0.15 -0.15)">
       <defs>
        <path id="DejaVuSans-31" d="M 794 531 
L 1825 531 
L 1825 4091 
L 703 3866 
L 703 4441 
L 1819 4666 
L 2450 4666 
L 2450 531 
L 3481 531 
L 3481 0 
L 794 0 
L 794 531 
z
" transform="scale(0.015625)"/>
       </defs>
       <use xlink:href="#DejaVuSans-2212"/>
       <use xlink:href="#DejaVuSans-31" transform="translate(83.789062 0)"/>
       <use xlink:href="#DejaVuSans-30" transform="translate(147.412109 0)"/>
      </g>
     </g>
    </g>
    <g id="ytick_11">
     <g id="line2d_33">
      <g>
       <use xlink:href="#m6629b94731" x="573.276952" y="131.182407" style="stroke: #000000; stroke-width: 0.8"/>
      </g>
     </g>
     <g id="text_28">
      <!-- 0 -->
      <g transform="translate(556.733202 136.881235) scale(0.15 -0.15)">
       <use xlink:href="#DejaVuSans-30"/>
      </g>
     </g>
    </g>
    <g id="ytick_12">
     <g id="line2d_34">
      <g>
       <use xlink:href="#m6629b94731" x="573.276952" y="89.28555" style="stroke: #000000; stroke-width: 0.8"/>
      </g>
     </g>
     <g id="text_29">
      <!-- 10 -->
      <g transform="translate(547.189452 94.984379) scale(0.15 -0.15)">
       <use xlink:href="#DejaVuSans-31"/>
       <use xlink:href="#DejaVuSans-30" transform="translate(63.623047 0)"/>
      </g>
     </g>
    </g>
    <g id="text_30">
     <!-- DBP -->
     <g transform="translate(506.579796 227.171812) rotate(-90) scale(0.18 -0.18)">
      <defs>
       <path id="DejaVuSans-Bold-44" d="M 1791 3756 
L 1791 909 
L 2222 909 
Q 2959 909 3348 1275 
Q 3738 1641 3738 2338 
Q 3738 3031 3350 3393 
Q 2963 3756 2222 3756 
L 1791 3756 
z
M 588 4666 
L 1856 4666 
Q 2919 4666 3439 4514 
Q 3959 4363 4331 4000 
Q 4659 3684 4818 3271 
Q 4978 2859 4978 2338 
Q 4978 1809 4818 1395 
Q 4659 981 4331 666 
Q 3956 303 3431 151 
Q 2906 0 1856 0 
L 588 0 
L 588 4666 
z
" transform="scale(0.015625)"/>
      </defs>
      <use xlink:href="#DejaVuSans-Bold-44"/>
      <use xlink:href="#DejaVuSans-Bold-42" transform="translate(83.007812 0)"/>
      <use xlink:href="#DejaVuSans-Bold-50" transform="translate(159.228516 0)"/>
     </g>
     <!-- change [mmHg] -->
     <g transform="translate(526.735859 287.103375) rotate(-90) scale(0.18 -0.18)">
      <use xlink:href="#DejaVuSans-Bold-63"/>
      <use xlink:href="#DejaVuSans-Bold-68" transform="translate(59.277344 0)"/>
      <use xlink:href="#DejaVuSans-Bold-61" transform="translate(130.46875 0)"/>
      <use xlink:href="#DejaVuSans-Bold-6e" transform="translate(197.949219 0)"/>
      <use xlink:href="#DejaVuSans-Bold-67" transform="translate(269.140625 0)"/>
      <use xlink:href="#DejaVuSans-Bold-65" transform="translate(340.722656 0)"/>
      <use xlink:href="#DejaVuSans-Bold-20" transform="translate(408.544922 0)"/>
      <use xlink:href="#DejaVuSans-Bold-5b" transform="translate(443.359375 0)"/>
      <use xlink:href="#DejaVuSans-Bold-6d" transform="translate(489.0625 0)"/>
      <use xlink:href="#DejaVuSans-Bold-6d" transform="translate(593.261719 0)"/>
      <use xlink:href="#DejaVuSans-Bold-48" transform="translate(697.460938 0)"/>
      <use xlink:href="#DejaVuSans-Bold-67" transform="translate(781.152344 0)"/>
      <use xlink:href="#DejaVuSans-Bold-5d" transform="translate(852.734375 0)"/>
     </g>
    </g>
   </g>
   <g id="LineCollection_5">
    <path d="M 816.694344 349.884 
L 816.694344 113.585727 
" clip-path="url(#pfa7b37f2c9)" style="fill: none; stroke: #338dff"/>
   </g>
   <g id="LineCollection_6">
    <path d="M 609.129126 176.550113 
L 609.129126 152.849672 
" clip-path="url(#pfa7b37f2c9)" style="fill: none; stroke: #000000"/>
   </g>
   <g id="line2d_35">
    <path d="M 590.259561 131.182407 
L 591.108692 131.965457 
L 591.957822 134.377696 
L 594.505213 143.969298 
L 597.052605 153.316976 
L 599.599996 161.827535 
L 602.147387 169.520904 
L 604.694779 176.457132 
L 607.24217 182.697365 
L 609.789561 188.298713 
L 612.336952 193.313125 
L 614.884344 197.787205 
L 617.431735 201.762339 
L 619.979126 205.274934 
L 622.526518 208.356724 
L 625.073909 211.035101 
L 627.6213 213.333485 
L 630.168692 215.271727 
L 632.716083 216.866558 
L 635.263474 218.132086 
L 637.810865 219.080344 
L 640.358257 219.721857 
L 642.905648 220.06622 
L 645.453039 220.122631 
L 648.000431 219.900344 
L 650.547822 219.409016 
L 653.095213 218.658913 
L 655.642605 217.660998 
L 658.189996 216.426903 
L 660.737387 214.968832 
L 663.284779 213.299416 
L 666.6813 210.767103 
L 670.077822 207.912939 
L 673.474344 204.76778 
L 677.719996 200.473492 
L 681.965648 195.830325 
L 687.060431 189.877578 
L 693.004344 182.526691 
L 700.646518 172.65419 
L 721.874779 144.967262 
L 727.818692 137.658931 
L 733.762605 130.719607 
L 738.857387 125.118949 
L 743.95217 119.876236 
L 748.197822 115.80013 
L 752.443474 112.002153 
L 756.689126 108.489513 
L 760.934779 105.265891 
L 765.180431 102.331735 
L 769.426083 99.684578 
L 773.671735 97.319391 
L 777.917387 95.228925 
L 782.163039 93.40407 
L 786.408692 91.834185 
L 790.654344 90.507419 
L 794.899996 89.411012 
L 799.145648 88.531561 
L 803.3913 87.855264 
L 808.486083 87.292178 
L 813.580865 86.977352 
L 818.675648 86.887023 
L 823.770431 86.99811 
L 829.714344 87.352776 
L 835.658257 87.91819 
L 842.4513 88.782771 
L 850.093474 89.983508 
L 858.584779 91.538025 
L 869.623474 93.804492 
L 884.907822 97.203758 
L 921.420431 105.408257 
L 929.911735 107.192526 
L 929.911735 107.192526 
" clip-path="url(#pfa7b37f2c9)" style="fill: none; stroke: #338dff; stroke-width: 2; stroke-linecap: square"/>
   </g>
   <g id="line2d_36">
    <path d="M 816.694344 231.734864 
" clip-path="url(#pfa7b37f2c9)" style="fill: none; stroke-dasharray: 3.7,1.6; stroke-dashoffset: 0; stroke: #338dff"/>
    <g clip-path="url(#pfa7b37f2c9)">
     <use xlink:href="#mc0b1a8ce91" x="816.694344" y="231.734864" style="fill: #338dff; stroke: #000000; stroke-linejoin: miter"/>
    </g>
   </g>
   <g id="line2d_37">
    <path d="M 590.259561 131.182407 
L 591.108692 132.140527 
L 591.957822 135.091184 
L 594.505213 146.818534 
L 597.052605 158.241077 
L 599.599996 168.634306 
L 602.147387 178.02285 
L 604.694779 186.479914 
L 607.24217 194.079727 
L 609.789561 200.891345 
L 612.336952 206.977327 
L 614.884344 212.393531 
L 617.431735 217.18928 
L 619.979126 221.40767 
L 622.526518 225.085966 
L 625.073909 228.25604 
L 627.6213 230.944872 
L 630.168692 233.175103 
L 631.866952 234.416629 
L 633.565213 235.467649 
L 635.263474 236.332505 
L 636.961735 237.015145 
L 638.659996 237.519225 
L 640.358257 237.848209 
L 642.056518 238.005465 
L 643.754779 237.994347 
L 645.453039 237.818269 
L 647.1513 237.480764 
L 648.849561 236.985523 
L 651.396952 235.955443 
L 653.944344 234.593134 
L 656.491735 232.91345 
L 659.039126 230.932053 
L 661.586518 228.665219 
L 664.133909 226.129642 
L 667.530431 222.360076 
L 670.926952 218.183054 
L 674.323474 213.63857 
L 677.719996 208.766116 
L 681.965648 202.273513 
L 687.060431 193.99096 
L 693.004344 183.809498 
L 700.646518 170.198378 
L 717.629126 139.726238 
L 723.573039 129.545449 
L 728.667822 121.202369 
L 733.762605 113.29293 
L 738.008257 107.078939 
L 742.253909 101.240102 
L 746.499561 95.800211 
L 750.745213 90.776994 
L 754.141735 87.066586 
L 757.538257 83.634042 
L 760.934779 80.480703 
L 764.3313 77.605908 
L 767.727822 75.007152 
L 771.124344 72.68026 
L 774.520865 70.619567 
L 777.917387 68.818094 
L 781.313909 67.267731 
L 784.710431 65.959409 
L 788.106952 64.883269 
L 791.503474 64.028818 
L 794.899996 63.385084 
L 798.296518 62.940746 
L 801.693039 62.684267 
L 805.938692 62.6101 
L 810.184344 62.788537 
L 814.429996 63.197101 
L 818.675648 63.813794 
L 823.770431 64.798571 
L 828.865213 66.01706 
L 834.809126 67.689613 
L 840.753039 69.585619 
L 848.395213 72.27949 
L 856.886518 75.514945 
L 869.623474 80.636704 
L 895.097387 90.934986 
L 906.985213 95.458028 
L 917.174779 99.099255 
L 926.515213 102.218257 
L 929.911735 103.297563 
L 929.911735 103.297563 
" clip-path="url(#pfa7b37f2c9)" style="fill: none; stroke: #000000; stroke-width: 2; stroke-linecap: square"/>
   </g>
   <g id="line2d_38">
    <path d="M 609.129126 164.699893 
" clip-path="url(#pfa7b37f2c9)" style="fill: none; stroke-dasharray: 3.7,1.6; stroke-dashoffset: 0; stroke: #000000"/>
    <g clip-path="url(#pfa7b37f2c9)">
     <use xlink:href="#mdb15047077" x="609.129126" y="164.699893" style="stroke: #000000; stroke-linejoin: miter"/>
    </g>
   </g>
   <g id="patch_9">
    <path d="M 573.276952 364.248 
L 573.276952 48.24 
" style="fill: none; stroke: #000000; stroke-width: 0.8; stroke-linejoin: miter; stroke-linecap: square"/>
   </g>
   <g id="patch_10">
    <path d="M 946.894344 364.248 
L 946.894344 48.24 
" style="fill: none; stroke: #000000; stroke-width: 0.8; stroke-linejoin: miter; stroke-linecap: square"/>
   </g>
   <g id="patch_11">
    <path d="M 573.276952 364.248 
L 946.894344 364.248 
" style="fill: none; stroke: #000000; stroke-width: 0.8; stroke-linejoin: miter; stroke-linecap: square"/>
   </g>
   <g id="patch_12">
    <path d="M 573.276952 48.24 
L 946.894344 48.24 
" style="fill: none; stroke: #000000; stroke-width: 0.8; stroke-linejoin: miter; stroke-linecap: square"/>
   </g>
   <g id="legend_2">
    <g id="patch_13">
     <path d="M 580.276952 359.248 
L 742.97539 359.248 
Q 744.97539 359.248 744.97539 357.248 
L 744.97539 299.5355 
Q 744.97539 297.5355 742.97539 297.5355 
L 580.276952 297.5355 
Q 578.276952 297.5355 578.276952 299.5355 
L 578.276952 357.248 
Q 578.276952 359.248 580.276952 359.248 
z
" style="fill: #ffffff; opacity: 0.8; stroke: #cccccc; stroke-linejoin: miter"/>
    </g>
    <g id="line2d_39">
     <path d="M 582.276952 305.633937 
L 602.276952 305.633937 
" style="fill: none; stroke: #338dff; stroke-width: 2; stroke-linecap: square"/>
    </g>
    <g id="line2d_40"/>
    <g id="text_31">
     <!-- SRI sim: 50 mg -->
     <g transform="translate(610.276952 309.133937) scale(0.1 -0.1)">
      <use xlink:href="#DejaVuSans-53"/>
      <use xlink:href="#DejaVuSans-52" transform="translate(63.476562 0)"/>
      <use xlink:href="#DejaVuSans-49" transform="translate(132.958984 0)"/>
      <use xlink:href="#DejaVuSans-20" transform="translate(162.451172 0)"/>
      <use xlink:href="#DejaVuSans-73" transform="translate(194.238281 0)"/>
      <use xlink:href="#DejaVuSans-69" transform="translate(246.337891 0)"/>
      <use xlink:href="#DejaVuSans-6d" transform="translate(274.121094 0)"/>
      <use xlink:href="#DejaVuSans-3a" transform="translate(371.533203 0)"/>
      <use xlink:href="#DejaVuSans-20" transform="translate(405.224609 0)"/>
      <use xlink:href="#DejaVuSans-35" transform="translate(437.011719 0)"/>
      <use xlink:href="#DejaVuSans-30" transform="translate(500.634766 0)"/>
      <use xlink:href="#DejaVuSans-20" transform="translate(564.257812 0)"/>
      <use xlink:href="#DejaVuSans-6d" transform="translate(596.044922 0)"/>
      <use xlink:href="#DejaVuSans-67" transform="translate(693.457031 0)"/>
     </g>
    </g>
    <g id="LineCollection_7">
     <path d="M 592.276952 325.312062 
L 592.276952 315.312062 
" style="fill: none; stroke: #338dff"/>
    </g>
    <g id="line2d_41">
     <path d="M 582.276952 320.312062 
L 602.276952 320.312062 
" style="fill: none; stroke-dasharray: 3.7,1.6; stroke-dashoffset: 0; stroke: #338dff"/>
    </g>
    <g id="line2d_42">
     <g>
      <use xlink:href="#mc0b1a8ce91" x="592.276952" y="320.312062" style="fill: #338dff; stroke: #000000; stroke-linejoin: miter"/>
     </g>
    </g>
    <g id="text_32">
     <!-- SRI exp: 50 mg±SD (n=9) -->
     <g transform="translate(610.276952 323.812062) scale(0.1 -0.1)">
      <use xlink:href="#DejaVuSans-53"/>
      <use xlink:href="#DejaVuSans-52" transform="translate(63.476562 0)"/>
      <use xlink:href="#DejaVuSans-49" transform="translate(132.958984 0)"/>
      <use xlink:href="#DejaVuSans-20" transform="translate(162.451172 0)"/>
      <use xlink:href="#DejaVuSans-65" transform="translate(194.238281 0)"/>
      <use xlink:href="#DejaVuSans-78" transform="translate(254.011719 0)"/>
      <use xlink:href="#DejaVuSans-70" transform="translate(313.191406 0)"/>
      <use xlink:href="#DejaVuSans-3a" transform="translate(376.667969 0)"/>
      <use xlink:href="#DejaVuSans-20" transform="translate(410.359375 0)"/>
      <use xlink:href="#DejaVuSans-35" transform="translate(442.146484 0)"/>
      <use xlink:href="#DejaVuSans-30" transform="translate(505.769531 0)"/>
      <use xlink:href="#DejaVuSans-20" transform="translate(569.392578 0)"/>
      <use xlink:href="#DejaVuSans-6d" transform="translate(601.179688 0)"/>
      <use xlink:href="#DejaVuSans-67" transform="translate(698.591797 0)"/>
      <use xlink:href="#DejaVuSans-b1" transform="translate(762.068359 0)"/>
      <use xlink:href="#DejaVuSans-53" transform="translate(845.857422 0)"/>
      <use xlink:href="#DejaVuSans-44" transform="translate(909.333984 0)"/>
      <use xlink:href="#DejaVuSans-20" transform="translate(986.335938 0)"/>
      <use xlink:href="#DejaVuSans-28" transform="translate(1018.123047 0)"/>
      <use xlink:href="#DejaVuSans-6e" transform="translate(1057.136719 0)"/>
      <use xlink:href="#DejaVuSans-3d" transform="translate(1120.515625 0)"/>
      <use xlink:href="#DejaVuSans-39" transform="translate(1204.304688 0)"/>
      <use xlink:href="#DejaVuSans-29" transform="translate(1267.927734 0)"/>
     </g>
    </g>
    <g id="line2d_43">
     <path d="M 582.276952 334.990187 
L 602.276952 334.990187 
" style="fill: none; stroke: #000000; stroke-width: 2; stroke-linecap: square"/>
    </g>
    <g id="line2d_44"/>
    <g id="text_33">
     <!-- sim: 50 mg -->
     <g transform="translate(610.276952 338.490187) scale(0.1 -0.1)">
      <use xlink:href="#DejaVuSans-73"/>
      <use xlink:href="#DejaVuSans-69" transform="translate(52.099609 0)"/>
      <use xlink:href="#DejaVuSans-6d" transform="translate(79.882812 0)"/>
      <use xlink:href="#DejaVuSans-3a" transform="translate(177.294922 0)"/>
      <use xlink:href="#DejaVuSans-20" transform="translate(210.986328 0)"/>
      <use xlink:href="#DejaVuSans-35" transform="translate(242.773438 0)"/>
      <use xlink:href="#DejaVuSans-30" transform="translate(306.396484 0)"/>
      <use xlink:href="#DejaVuSans-20" transform="translate(370.019531 0)"/>
      <use xlink:href="#DejaVuSans-6d" transform="translate(401.806641 0)"/>
      <use xlink:href="#DejaVuSans-67" transform="translate(499.21875 0)"/>
     </g>
    </g>
    <g id="LineCollection_8">
     <path d="M 592.276952 354.668312 
L 592.276952 344.668312 
" style="fill: none; stroke: #000000"/>
    </g>
    <g id="line2d_45">
     <path d="M 582.276952 349.668312 
L 602.276952 349.668312 
" style="fill: none; stroke-dasharray: 3.7,1.6; stroke-dashoffset: 0; stroke: #000000"/>
    </g>
    <g id="line2d_46">
     <g>
      <use xlink:href="#mdb15047077" x="592.276952" y="349.668312" style="stroke: #000000; stroke-linejoin: miter"/>
     </g>
    </g>
    <g id="text_34">
     <!-- exp: 50 mg±SD (n=8) -->
     <g transform="translate(610.276952 353.168312) scale(0.1 -0.1)">
      <use xlink:href="#DejaVuSans-65"/>
      <use xlink:href="#DejaVuSans-78" transform="translate(59.773438 0)"/>
      <use xlink:href="#DejaVuSans-70" transform="translate(118.953125 0)"/>
      <use xlink:href="#DejaVuSans-3a" transform="translate(182.429688 0)"/>
      <use xlink:href="#DejaVuSans-20" transform="translate(216.121094 0)"/>
      <use xlink:href="#DejaVuSans-35" transform="translate(247.908203 0)"/>
      <use xlink:href="#DejaVuSans-30" transform="translate(311.53125 0)"/>
      <use xlink:href="#DejaVuSans-20" transform="translate(375.154297 0)"/>
      <use xlink:href="#DejaVuSans-6d" transform="translate(406.941406 0)"/>
      <use xlink:href="#DejaVuSans-67" transform="translate(504.353516 0)"/>
      <use xlink:href="#DejaVuSans-b1" transform="translate(567.830078 0)"/>
      <use xlink:href="#DejaVuSans-53" transform="translate(651.619141 0)"/>
      <use xlink:href="#DejaVuSans-44" transform="translate(715.095703 0)"/>
      <use xlink:href="#DejaVuSans-20" transform="translate(792.097656 0)"/>
      <use xlink:href="#DejaVuSans-28" transform="translate(823.884766 0)"/>
      <use xlink:href="#DejaVuSans-6e" transform="translate(862.898438 0)"/>
      <use xlink:href="#DejaVuSans-3d" transform="translate(926.277344 0)"/>
      <use xlink:href="#DejaVuSans-38" transform="translate(1010.066406 0)"/>
      <use xlink:href="#DejaVuSans-29" transform="translate(1073.689453 0)"/>
     </g>
    </g>
   </g>
  </g>
  <g id="text_35">
   <!-- Drummer1987 -->
   <g transform="translate(402.452469 26.196094) scale(0.25 -0.25)">
    <defs>
     <path id="DejaVuSans-Bold-75" d="M 500 1363 
L 500 3500 
L 1625 3500 
L 1625 3150 
Q 1625 2866 1622 2436 
Q 1619 2006 1619 1863 
Q 1619 1441 1641 1255 
Q 1663 1069 1716 984 
Q 1784 875 1895 815 
Q 2006 756 2150 756 
Q 2500 756 2700 1025 
Q 2900 1294 2900 1772 
L 2900 3500 
L 4019 3500 
L 4019 0 
L 2900 0 
L 2900 506 
Q 2647 200 2364 54 
Q 2081 -91 1741 -91 
Q 1134 -91 817 281 
Q 500 653 500 1363 
z
" transform="scale(0.015625)"/>
     <path id="DejaVuSans-Bold-31" d="M 750 831 
L 1813 831 
L 1813 3847 
L 722 3622 
L 722 4441 
L 1806 4666 
L 2950 4666 
L 2950 831 
L 4013 831 
L 4013 0 
L 750 0 
L 750 831 
z
" transform="scale(0.015625)"/>
     <path id="DejaVuSans-Bold-39" d="M 641 103 
L 641 966 
Q 928 831 1190 764 
Q 1453 697 1709 697 
Q 2247 697 2547 995 
Q 2847 1294 2900 1881 
Q 2688 1725 2447 1647 
Q 2206 1569 1925 1569 
Q 1209 1569 770 1986 
Q 331 2403 331 3084 
Q 331 3838 820 4291 
Q 1309 4744 2131 4744 
Q 3044 4744 3544 4128 
Q 4044 3513 4044 2388 
Q 4044 1231 3459 570 
Q 2875 -91 1856 -91 
Q 1528 -91 1228 -42 
Q 928 6 641 103 
z
M 2125 2350 
Q 2441 2350 2600 2554 
Q 2759 2759 2759 3169 
Q 2759 3575 2600 3781 
Q 2441 3988 2125 3988 
Q 1809 3988 1650 3781 
Q 1491 3575 1491 3169 
Q 1491 2759 1650 2554 
Q 1809 2350 2125 2350 
z
" transform="scale(0.015625)"/>
     <path id="DejaVuSans-Bold-38" d="M 2228 2088 
Q 1891 2088 1709 1903 
Q 1528 1719 1528 1375 
Q 1528 1031 1709 848 
Q 1891 666 2228 666 
Q 2563 666 2741 848 
Q 2919 1031 2919 1375 
Q 2919 1722 2741 1905 
Q 2563 2088 2228 2088 
z
M 1350 2484 
Q 925 2613 709 2878 
Q 494 3144 494 3541 
Q 494 4131 934 4440 
Q 1375 4750 2228 4750 
Q 3075 4750 3515 4442 
Q 3956 4134 3956 3541 
Q 3956 3144 3739 2878 
Q 3522 2613 3097 2484 
Q 3572 2353 3814 2058 
Q 4056 1763 4056 1313 
Q 4056 619 3595 264 
Q 3134 -91 2228 -91 
Q 1319 -91 855 264 
Q 391 619 391 1313 
Q 391 1763 633 2058 
Q 875 2353 1350 2484 
z
M 1631 3419 
Q 1631 3141 1786 2991 
Q 1941 2841 2228 2841 
Q 2509 2841 2662 2991 
Q 2816 3141 2816 3419 
Q 2816 3697 2662 3845 
Q 2509 3994 2228 3994 
Q 1941 3994 1786 3844 
Q 1631 3694 1631 3419 
z
" transform="scale(0.015625)"/>
     <path id="DejaVuSans-Bold-37" d="M 428 4666 
L 3944 4666 
L 3944 3988 
L 2125 0 
L 953 0 
L 2675 3781 
L 428 3781 
L 428 4666 
z
" transform="scale(0.015625)"/>
    </defs>
    <use xlink:href="#DejaVuSans-Bold-44"/>
    <use xlink:href="#DejaVuSans-Bold-72" transform="translate(83.007812 0)"/>
    <use xlink:href="#DejaVuSans-Bold-75" transform="translate(132.324219 0)"/>
    <use xlink:href="#DejaVuSans-Bold-6d" transform="translate(203.515625 0)"/>
    <use xlink:href="#DejaVuSans-Bold-6d" transform="translate(307.714844 0)"/>
    <use xlink:href="#DejaVuSans-Bold-65" transform="translate(411.914062 0)"/>
    <use xlink:href="#DejaVuSans-Bold-72" transform="translate(479.736328 0)"/>
    <use xlink:href="#DejaVuSans-Bold-31" transform="translate(529.052734 0)"/>
    <use xlink:href="#DejaVuSans-Bold-39" transform="translate(598.632812 0)"/>
    <use xlink:href="#DejaVuSans-Bold-38" transform="translate(668.212891 0)"/>
    <use xlink:href="#DejaVuSans-Bold-37" transform="translate(737.792969 0)"/>
   </g>
  </g>
 </g>
 <defs>
  <clipPath id="p2350106321">
   <rect x="87.574344" y="48.24" width="373.617391" height="316.008"/>
  </clipPath>
  <clipPath id="pfa7b37f2c9">
   <rect x="573.276952" y="48.24" width="373.617391" height="316.008"/>
  </clipPath>
 </defs>
</svg>
