<?xml version="1.0" encoding="utf-8" standalone="no"?>
<!DOCTYPE svg PUBLIC "-//W3C//DTD SVG 1.1//EN"
  "http://www.w3.org/Graphics/SVG/1.1/DTD/svg11.dtd">
<svg xmlns:xlink="http://www.w3.org/1999/xlink" width="1341.364063pt" height="414.385812pt" viewBox="0 0 1341.364063 414.385812" xmlns="http://www.w3.org/2000/svg" version="1.1">
 <metadata>
  <rdf:RDF xmlns:dc="http://purl.org/dc/elements/1.1/" xmlns:cc="http://creativecommons.org/ns#" xmlns:rdf="http://www.w3.org/1999/02/22-rdf-syntax-ns#">
   <cc:Work>
    <dc:type rdf:resource="http://purl.org/dc/dcmitype/StillImage"/>
    <dc:date>2025-09-10T13:16:41.948417</dc:date>
    <dc:format>image/svg+xml</dc:format>
    <dc:creator>
     <cc:Agent>
      <dc:title>Matplotlib v3.10.6, https://matplotlib.org/</dc:title>
     </cc:Agent>
    </dc:creator>
   </cc:Work>
  </rdf:RDF>
 </metadata>
 <defs>
  <style type="text/css">*{stroke-linejoin: round; stroke-linecap: butt}</style>
 </defs>
 <g id="figure_1">
  <g id="patch_1">
   <path d="M 0 414.385812 
L 1341.364063 414.385812 
L 1341.364063 -0 
L 0 -0 
z
" style="fill: #ffffff"/>
  </g>
  <g id="axes_1">
   <g id="patch_2">
    <path d="M 45.184063 364.248 
L 403.234063 364.248 
L 403.234063 48.24 
L 45.184063 48.24 
z
" style="fill: #ffffff"/>
   </g>
   <g id="matplotlib.axis_1">
    <g id="xtick_1">
     <g id="line2d_1">
      <defs>
       <path id="meda7461c96" d="M 0 0 
L 0 3.5 
" style="stroke: #000000; stroke-width: 0.8"/>
      </defs>
      <g>
       <use xlink:href="#meda7461c96" x="62.234063" y="364.248" style="stroke: #000000; stroke-width: 0.8"/>
      </g>
     </g>
     <g id="text_1">
      <!-- 0 -->
      <g transform="translate(57.462188 382.645656) scale(0.15 -0.15)">
       <defs>
        <path id="DejaVuSans-30" d="M 2034 4250 
Q 1547 4250 1301 3770 
Q 1056 3291 1056 2328 
Q 1056 1369 1301 889 
Q 1547 409 2034 409 
Q 2525 409 2770 889 
Q 3016 1369 3016 2328 
Q 3016 3291 2770 3770 
Q 2525 4250 2034 4250 
z
M 2034 4750 
Q 2819 4750 3233 4129 
Q 3647 3509 3647 2328 
Q 3647 1150 3233 529 
Q 2819 -91 2034 -91 
Q 1250 -91 836 529 
Q 422 1150 422 2328 
Q 422 3509 836 4129 
Q 1250 4750 2034 4750 
z
" transform="scale(0.015625)"/>
       </defs>
       <use xlink:href="#DejaVuSans-30"/>
      </g>
     </g>
    </g>
    <g id="xtick_2">
     <g id="line2d_2">
      <g>
       <use xlink:href="#meda7461c96" x="127.810986" y="364.248" style="stroke: #000000; stroke-width: 0.8"/>
      </g>
     </g>
     <g id="text_2">
      <!-- 5 -->
      <g transform="translate(123.039111 382.645656) scale(0.15 -0.15)">
       <defs>
        <path id="DejaVuSans-35" d="M 691 4666 
L 3169 4666 
L 3169 4134 
L 1269 4134 
L 1269 2991 
Q 1406 3038 1543 3061 
Q 1681 3084 1819 3084 
Q 2600 3084 3056 2656 
Q 3513 2228 3513 1497 
Q 3513 744 3044 326 
Q 2575 -91 1722 -91 
Q 1428 -91 1123 -41 
Q 819 9 494 109 
L 494 744 
Q 775 591 1075 516 
Q 1375 441 1709 441 
Q 2250 441 2565 725 
Q 2881 1009 2881 1497 
Q 2881 1984 2565 2268 
Q 2250 2553 1709 2553 
Q 1456 2553 1204 2497 
Q 953 2441 691 2322 
L 691 4666 
z
" transform="scale(0.015625)"/>
       </defs>
       <use xlink:href="#DejaVuSans-35"/>
      </g>
     </g>
    </g>
    <g id="xtick_3">
     <g id="line2d_3">
      <g>
       <use xlink:href="#meda7461c96" x="193.387909" y="364.248" style="stroke: #000000; stroke-width: 0.8"/>
      </g>
     </g>
     <g id="text_3">
      <!-- 10 -->
      <g transform="translate(183.844159 382.645656) scale(0.15 -0.15)">
       <defs>
        <path id="DejaVuSans-31" d="M 794 531 
L 1825 531 
L 1825 4091 
L 703 3866 
L 703 4441 
L 1819 4666 
L 2450 4666 
L 2450 531 
L 3481 531 
L 3481 0 
L 794 0 
L 794 531 
z
" transform="scale(0.015625)"/>
       </defs>
       <use xlink:href="#DejaVuSans-31"/>
       <use xlink:href="#DejaVuSans-30" transform="translate(63.623047 0)"/>
      </g>
     </g>
    </g>
    <g id="xtick_4">
     <g id="line2d_4">
      <g>
       <use xlink:href="#meda7461c96" x="258.964832" y="364.248" style="stroke: #000000; stroke-width: 0.8"/>
      </g>
     </g>
     <g id="text_4">
      <!-- 15 -->
      <g transform="translate(249.421082 382.645656) scale(0.15 -0.15)">
       <use xlink:href="#DejaVuSans-31"/>
       <use xlink:href="#DejaVuSans-35" transform="translate(63.623047 0)"/>
      </g>
     </g>
    </g>
    <g id="xtick_5">
     <g id="line2d_5">
      <g>
       <use xlink:href="#meda7461c96" x="324.541755" y="364.248" style="stroke: #000000; stroke-width: 0.8"/>
      </g>
     </g>
     <g id="text_5">
      <!-- 20 -->
      <g transform="translate(314.998005 382.645656) scale(0.15 -0.15)">
       <defs>
        <path id="DejaVuSans-32" d="M 1228 531 
L 3431 531 
L 3431 0 
L 469 0 
L 469 531 
Q 828 903 1448 1529 
Q 2069 2156 2228 2338 
Q 2531 2678 2651 2914 
Q 2772 3150 2772 3378 
Q 2772 3750 2511 3984 
Q 2250 4219 1831 4219 
Q 1534 4219 1204 4116 
Q 875 4013 500 3803 
L 500 4441 
Q 881 4594 1212 4672 
Q 1544 4750 1819 4750 
Q 2544 4750 2975 4387 
Q 3406 4025 3406 3419 
Q 3406 3131 3298 2873 
Q 3191 2616 2906 2266 
Q 2828 2175 2409 1742 
Q 1991 1309 1228 531 
z
" transform="scale(0.015625)"/>
       </defs>
       <use xlink:href="#DejaVuSans-32"/>
       <use xlink:href="#DejaVuSans-30" transform="translate(63.623047 0)"/>
      </g>
     </g>
    </g>
    <g id="xtick_6">
     <g id="line2d_6">
      <g>
       <use xlink:href="#meda7461c96" x="390.118678" y="364.248" style="stroke: #000000; stroke-width: 0.8"/>
      </g>
     </g>
     <g id="text_6">
      <!-- 25 -->
      <g transform="translate(380.574928 382.645656) scale(0.15 -0.15)">
       <use xlink:href="#DejaVuSans-32"/>
       <use xlink:href="#DejaVuSans-35" transform="translate(63.623047 0)"/>
      </g>
     </g>
    </g>
    <g id="text_7">
     <!-- time [hr] -->
     <g transform="translate(179.134531 403.442375) scale(0.18 -0.18)">
      <defs>
       <path id="DejaVuSans-Bold-74" d="M 1759 4494 
L 1759 3500 
L 2913 3500 
L 2913 2700 
L 1759 2700 
L 1759 1216 
Q 1759 972 1856 886 
Q 1953 800 2241 800 
L 2816 800 
L 2816 0 
L 1856 0 
Q 1194 0 917 276 
Q 641 553 641 1216 
L 641 2700 
L 84 2700 
L 84 3500 
L 641 3500 
L 641 4494 
L 1759 4494 
z
" transform="scale(0.015625)"/>
       <path id="DejaVuSans-Bold-69" d="M 538 3500 
L 1656 3500 
L 1656 0 
L 538 0 
L 538 3500 
z
M 538 4863 
L 1656 4863 
L 1656 3950 
L 538 3950 
L 538 4863 
z
" transform="scale(0.015625)"/>
       <path id="DejaVuSans-Bold-6d" d="M 3781 2919 
Q 3994 3244 4286 3414 
Q 4578 3584 4928 3584 
Q 5531 3584 5847 3212 
Q 6163 2841 6163 2131 
L 6163 0 
L 5038 0 
L 5038 1825 
Q 5041 1866 5042 1909 
Q 5044 1953 5044 2034 
Q 5044 2406 4934 2573 
Q 4825 2741 4581 2741 
Q 4263 2741 4089 2478 
Q 3916 2216 3909 1719 
L 3909 0 
L 2784 0 
L 2784 1825 
Q 2784 2406 2684 2573 
Q 2584 2741 2328 2741 
Q 2006 2741 1831 2477 
Q 1656 2213 1656 1722 
L 1656 0 
L 531 0 
L 531 3500 
L 1656 3500 
L 1656 2988 
Q 1863 3284 2130 3434 
Q 2397 3584 2719 3584 
Q 3081 3584 3359 3409 
Q 3638 3234 3781 2919 
z
" transform="scale(0.015625)"/>
       <path id="DejaVuSans-Bold-65" d="M 4031 1759 
L 4031 1441 
L 1416 1441 
Q 1456 1047 1700 850 
Q 1944 653 2381 653 
Q 2734 653 3104 758 
Q 3475 863 3866 1075 
L 3866 213 
Q 3469 63 3072 -14 
Q 2675 -91 2278 -91 
Q 1328 -91 801 392 
Q 275 875 275 1747 
Q 275 2603 792 3093 
Q 1309 3584 2216 3584 
Q 3041 3584 3536 3087 
Q 4031 2591 4031 1759 
z
M 2881 2131 
Q 2881 2450 2695 2645 
Q 2509 2841 2209 2841 
Q 1884 2841 1681 2658 
Q 1478 2475 1428 2131 
L 2881 2131 
z
" transform="scale(0.015625)"/>
       <path id="DejaVuSans-Bold-20" transform="scale(0.015625)"/>
       <path id="DejaVuSans-Bold-5b" d="M 550 4863 
L 2491 4863 
L 2491 4159 
L 1613 4159 
L 1613 -141 
L 2491 -141 
L 2491 -844 
L 550 -844 
L 550 4863 
z
" transform="scale(0.015625)"/>
       <path id="DejaVuSans-Bold-68" d="M 4056 2131 
L 4056 0 
L 2931 0 
L 2931 347 
L 2931 1625 
Q 2931 2084 2911 2256 
Q 2891 2428 2841 2509 
Q 2775 2619 2662 2680 
Q 2550 2741 2406 2741 
Q 2056 2741 1856 2470 
Q 1656 2200 1656 1722 
L 1656 0 
L 538 0 
L 538 4863 
L 1656 4863 
L 1656 2988 
Q 1909 3294 2193 3439 
Q 2478 3584 2822 3584 
Q 3428 3584 3742 3212 
Q 4056 2841 4056 2131 
z
" transform="scale(0.015625)"/>
       <path id="DejaVuSans-Bold-72" d="M 3138 2547 
Q 2991 2616 2845 2648 
Q 2700 2681 2553 2681 
Q 2122 2681 1889 2404 
Q 1656 2128 1656 1613 
L 1656 0 
L 538 0 
L 538 3500 
L 1656 3500 
L 1656 2925 
Q 1872 3269 2151 3426 
Q 2431 3584 2822 3584 
Q 2878 3584 2943 3579 
Q 3009 3575 3134 3559 
L 3138 2547 
z
" transform="scale(0.015625)"/>
       <path id="DejaVuSans-Bold-5d" d="M 2375 -844 
L 434 -844 
L 434 -141 
L 1313 -141 
L 1313 4159 
L 434 4159 
L 434 4863 
L 2375 4863 
L 2375 -844 
z
" transform="scale(0.015625)"/>
      </defs>
      <use xlink:href="#DejaVuSans-Bold-74"/>
      <use xlink:href="#DejaVuSans-Bold-69" transform="translate(47.802734 0)"/>
      <use xlink:href="#DejaVuSans-Bold-6d" transform="translate(82.080078 0)"/>
      <use xlink:href="#DejaVuSans-Bold-65" transform="translate(186.279297 0)"/>
      <use xlink:href="#DejaVuSans-Bold-20" transform="translate(254.101562 0)"/>
      <use xlink:href="#DejaVuSans-Bold-5b" transform="translate(288.916016 0)"/>
      <use xlink:href="#DejaVuSans-Bold-68" transform="translate(334.619141 0)"/>
      <use xlink:href="#DejaVuSans-Bold-72" transform="translate(405.810547 0)"/>
      <use xlink:href="#DejaVuSans-Bold-5d" transform="translate(455.126953 0)"/>
     </g>
    </g>
   </g>
   <g id="matplotlib.axis_2">
    <g id="ytick_1">
     <g id="line2d_7">
      <defs>
       <path id="m1aed9c88a3" d="M 0 0 
L -3.5 0 
" style="stroke: #000000; stroke-width: 0.8"/>
      </defs>
      <g>
       <use xlink:href="#m1aed9c88a3" x="45.184063" y="349.884" style="stroke: #000000; stroke-width: 0.8"/>
      </g>
     </g>
     <g id="text_8">
      <!-- 0 -->
      <g transform="translate(28.640313 355.582828) scale(0.15 -0.15)">
       <use xlink:href="#DejaVuSans-30"/>
      </g>
     </g>
    </g>
    <g id="ytick_2">
     <g id="line2d_8">
      <g>
       <use xlink:href="#m1aed9c88a3" x="45.184063" y="310.935215" style="stroke: #000000; stroke-width: 0.8"/>
      </g>
     </g>
     <g id="text_9">
      <!-- 1 -->
      <g transform="translate(28.640313 316.634044) scale(0.15 -0.15)">
       <use xlink:href="#DejaVuSans-31"/>
      </g>
     </g>
    </g>
    <g id="ytick_3">
     <g id="line2d_9">
      <g>
       <use xlink:href="#m1aed9c88a3" x="45.184063" y="271.986431" style="stroke: #000000; stroke-width: 0.8"/>
      </g>
     </g>
     <g id="text_10">
      <!-- 2 -->
      <g transform="translate(28.640313 277.685259) scale(0.15 -0.15)">
       <use xlink:href="#DejaVuSans-32"/>
      </g>
     </g>
    </g>
    <g id="ytick_4">
     <g id="line2d_10">
      <g>
       <use xlink:href="#m1aed9c88a3" x="45.184063" y="233.037646" style="stroke: #000000; stroke-width: 0.8"/>
      </g>
     </g>
     <g id="text_11">
      <!-- 3 -->
      <g transform="translate(28.640313 238.736474) scale(0.15 -0.15)">
       <defs>
        <path id="DejaVuSans-33" d="M 2597 2516 
Q 3050 2419 3304 2112 
Q 3559 1806 3559 1356 
Q 3559 666 3084 287 
Q 2609 -91 1734 -91 
Q 1441 -91 1130 -33 
Q 819 25 488 141 
L 488 750 
Q 750 597 1062 519 
Q 1375 441 1716 441 
Q 2309 441 2620 675 
Q 2931 909 2931 1356 
Q 2931 1769 2642 2001 
Q 2353 2234 1838 2234 
L 1294 2234 
L 1294 2753 
L 1863 2753 
Q 2328 2753 2575 2939 
Q 2822 3125 2822 3475 
Q 2822 3834 2567 4026 
Q 2313 4219 1838 4219 
Q 1578 4219 1281 4162 
Q 984 4106 628 3988 
L 628 4550 
Q 988 4650 1302 4700 
Q 1616 4750 1894 4750 
Q 2613 4750 3031 4423 
Q 3450 4097 3450 3541 
Q 3450 3153 3228 2886 
Q 3006 2619 2597 2516 
z
" transform="scale(0.015625)"/>
       </defs>
       <use xlink:href="#DejaVuSans-33"/>
      </g>
     </g>
    </g>
    <g id="ytick_5">
     <g id="line2d_11">
      <g>
       <use xlink:href="#m1aed9c88a3" x="45.184063" y="194.088862" style="stroke: #000000; stroke-width: 0.8"/>
      </g>
     </g>
     <g id="text_12">
      <!-- 4 -->
      <g transform="translate(28.640313 199.78769) scale(0.15 -0.15)">
       <defs>
        <path id="DejaVuSans-34" d="M 2419 4116 
L 825 1625 
L 2419 1625 
L 2419 4116 
z
M 2253 4666 
L 3047 4666 
L 3047 1625 
L 3713 1625 
L 3713 1100 
L 3047 1100 
L 3047 0 
L 2419 0 
L 2419 1100 
L 313 1100 
L 313 1709 
L 2253 4666 
z
" transform="scale(0.015625)"/>
       </defs>
       <use xlink:href="#DejaVuSans-34"/>
      </g>
     </g>
    </g>
    <g id="ytick_6">
     <g id="line2d_12">
      <g>
       <use xlink:href="#m1aed9c88a3" x="45.184063" y="155.140077" style="stroke: #000000; stroke-width: 0.8"/>
      </g>
     </g>
     <g id="text_13">
      <!-- 5 -->
      <g transform="translate(28.640313 160.838905) scale(0.15 -0.15)">
       <use xlink:href="#DejaVuSans-35"/>
      </g>
     </g>
    </g>
    <g id="ytick_7">
     <g id="line2d_13">
      <g>
       <use xlink:href="#m1aed9c88a3" x="45.184063" y="116.191293" style="stroke: #000000; stroke-width: 0.8"/>
      </g>
     </g>
     <g id="text_14">
      <!-- 6 -->
      <g transform="translate(28.640313 121.890121) scale(0.15 -0.15)">
       <defs>
        <path id="DejaVuSans-36" d="M 2113 2584 
Q 1688 2584 1439 2293 
Q 1191 2003 1191 1497 
Q 1191 994 1439 701 
Q 1688 409 2113 409 
Q 2538 409 2786 701 
Q 3034 994 3034 1497 
Q 3034 2003 2786 2293 
Q 2538 2584 2113 2584 
z
M 3366 4563 
L 3366 3988 
Q 3128 4100 2886 4159 
Q 2644 4219 2406 4219 
Q 1781 4219 1451 3797 
Q 1122 3375 1075 2522 
Q 1259 2794 1537 2939 
Q 1816 3084 2150 3084 
Q 2853 3084 3261 2657 
Q 3669 2231 3669 1497 
Q 3669 778 3244 343 
Q 2819 -91 2113 -91 
Q 1303 -91 875 529 
Q 447 1150 447 2328 
Q 447 3434 972 4092 
Q 1497 4750 2381 4750 
Q 2619 4750 2861 4703 
Q 3103 4656 3366 4563 
z
" transform="scale(0.015625)"/>
       </defs>
       <use xlink:href="#DejaVuSans-36"/>
      </g>
     </g>
    </g>
    <g id="ytick_8">
     <g id="line2d_14">
      <g>
       <use xlink:href="#m1aed9c88a3" x="45.184063" y="77.242508" style="stroke: #000000; stroke-width: 0.8"/>
      </g>
     </g>
     <g id="text_15">
      <!-- 7 -->
      <g transform="translate(28.640313 82.941336) scale(0.15 -0.15)">
       <defs>
        <path id="DejaVuSans-37" d="M 525 4666 
L 3525 4666 
L 3525 4397 
L 1831 0 
L 1172 0 
L 2766 4134 
L 525 4134 
L 525 4666 
z
" transform="scale(0.015625)"/>
       </defs>
       <use xlink:href="#DejaVuSans-37"/>
      </g>
     </g>
    </g>
    <g id="text_16">
     <!-- captopril [µM] -->
     <g transform="translate(20.877188 278.568844) rotate(-90) scale(0.18 -0.18)">
      <defs>
       <path id="DejaVuSans-Bold-63" d="M 3366 3391 
L 3366 2478 
Q 3138 2634 2908 2709 
Q 2678 2784 2431 2784 
Q 1963 2784 1702 2511 
Q 1441 2238 1441 1747 
Q 1441 1256 1702 982 
Q 1963 709 2431 709 
Q 2694 709 2930 787 
Q 3166 866 3366 1019 
L 3366 103 
Q 3103 6 2833 -42 
Q 2563 -91 2291 -91 
Q 1344 -91 809 395 
Q 275 881 275 1747 
Q 275 2613 809 3098 
Q 1344 3584 2291 3584 
Q 2566 3584 2833 3536 
Q 3100 3488 3366 3391 
z
" transform="scale(0.015625)"/>
       <path id="DejaVuSans-Bold-61" d="M 2106 1575 
Q 1756 1575 1579 1456 
Q 1403 1338 1403 1106 
Q 1403 894 1545 773 
Q 1688 653 1941 653 
Q 2256 653 2472 879 
Q 2688 1106 2688 1447 
L 2688 1575 
L 2106 1575 
z
M 3816 1997 
L 3816 0 
L 2688 0 
L 2688 519 
Q 2463 200 2181 54 
Q 1900 -91 1497 -91 
Q 953 -91 614 226 
Q 275 544 275 1050 
Q 275 1666 698 1953 
Q 1122 2241 2028 2241 
L 2688 2241 
L 2688 2328 
Q 2688 2594 2478 2717 
Q 2269 2841 1825 2841 
Q 1466 2841 1156 2769 
Q 847 2697 581 2553 
L 581 3406 
Q 941 3494 1303 3539 
Q 1666 3584 2028 3584 
Q 2975 3584 3395 3211 
Q 3816 2838 3816 1997 
z
" transform="scale(0.015625)"/>
       <path id="DejaVuSans-Bold-70" d="M 1656 506 
L 1656 -1331 
L 538 -1331 
L 538 3500 
L 1656 3500 
L 1656 2988 
Q 1888 3294 2169 3439 
Q 2450 3584 2816 3584 
Q 3463 3584 3878 3070 
Q 4294 2556 4294 1747 
Q 4294 938 3878 423 
Q 3463 -91 2816 -91 
Q 2450 -91 2169 54 
Q 1888 200 1656 506 
z
M 2400 2772 
Q 2041 2772 1848 2508 
Q 1656 2244 1656 1747 
Q 1656 1250 1848 986 
Q 2041 722 2400 722 
Q 2759 722 2948 984 
Q 3138 1247 3138 1747 
Q 3138 2247 2948 2509 
Q 2759 2772 2400 2772 
z
" transform="scale(0.015625)"/>
       <path id="DejaVuSans-Bold-6f" d="M 2203 2784 
Q 1831 2784 1636 2517 
Q 1441 2250 1441 1747 
Q 1441 1244 1636 976 
Q 1831 709 2203 709 
Q 2569 709 2762 976 
Q 2956 1244 2956 1747 
Q 2956 2250 2762 2517 
Q 2569 2784 2203 2784 
z
M 2203 3584 
Q 3106 3584 3614 3096 
Q 4122 2609 4122 1747 
Q 4122 884 3614 396 
Q 3106 -91 2203 -91 
Q 1297 -91 786 396 
Q 275 884 275 1747 
Q 275 2609 786 3096 
Q 1297 3584 2203 3584 
z
" transform="scale(0.015625)"/>
       <path id="DejaVuSans-Bold-6c" d="M 538 4863 
L 1656 4863 
L 1656 0 
L 538 0 
L 538 4863 
z
" transform="scale(0.015625)"/>
       <path id="DejaVuSans-Bold-b5" d="M 544 -1338 
L 544 3500 
L 1672 3500 
L 1672 1466 
Q 1672 1103 1828 926 
Q 1984 750 2303 750 
Q 2625 750 2781 926 
Q 2938 1103 2938 1466 
L 2938 3500 
L 4063 3500 
L 4063 1159 
Q 4063 938 4114 850 
Q 4166 763 4288 763 
Q 4344 763 4395 778 
Q 4447 794 4506 831 
L 4506 50 
Q 4341 -22 4195 -56 
Q 4050 -91 3909 -91 
Q 3631 -91 3454 26 
Q 3278 144 3169 403 
Q 3022 156 2811 32 
Q 2600 -91 2322 -91 
Q 2091 -91 1928 -17 
Q 1766 56 1672 206 
L 1672 -1338 
L 544 -1338 
z
" transform="scale(0.015625)"/>
       <path id="DejaVuSans-Bold-4d" d="M 588 4666 
L 2119 4666 
L 3181 2169 
L 4250 4666 
L 5778 4666 
L 5778 0 
L 4641 0 
L 4641 3413 
L 3566 897 
L 2803 897 
L 1728 3413 
L 1728 0 
L 588 0 
L 588 4666 
z
" transform="scale(0.015625)"/>
      </defs>
      <use xlink:href="#DejaVuSans-Bold-63"/>
      <use xlink:href="#DejaVuSans-Bold-61" transform="translate(59.277344 0)"/>
      <use xlink:href="#DejaVuSans-Bold-70" transform="translate(126.757812 0)"/>
      <use xlink:href="#DejaVuSans-Bold-74" transform="translate(198.339844 0)"/>
      <use xlink:href="#DejaVuSans-Bold-6f" transform="translate(246.142578 0)"/>
      <use xlink:href="#DejaVuSans-Bold-70" transform="translate(314.84375 0)"/>
      <use xlink:href="#DejaVuSans-Bold-72" transform="translate(386.425781 0)"/>
      <use xlink:href="#DejaVuSans-Bold-69" transform="translate(435.742188 0)"/>
      <use xlink:href="#DejaVuSans-Bold-6c" transform="translate(470.019531 0)"/>
      <use xlink:href="#DejaVuSans-Bold-20" transform="translate(504.296875 0)"/>
      <use xlink:href="#DejaVuSans-Bold-5b" transform="translate(539.111328 0)"/>
      <use xlink:href="#DejaVuSans-Bold-b5" transform="translate(584.814453 0)"/>
      <use xlink:href="#DejaVuSans-Bold-4d" transform="translate(658.398438 0)"/>
      <use xlink:href="#DejaVuSans-Bold-5d" transform="translate(757.910156 0)"/>
     </g>
    </g>
   </g>
   <g id="LineCollection_1">
    <path d="M 66.562139 265.277026 
L 66.562139 236.536945 
" clip-path="url(#p8a12464409)" style="fill: none; stroke: #000000"/>
    <path d="M 71.02137 158.890927 
L 71.02137 101.171762 
" clip-path="url(#p8a12464409)" style="fill: none; stroke: #000000"/>
    <path d="M 75.349447 168.212034 
L 75.349447 130.330098 
" clip-path="url(#p8a12464409)" style="fill: none; stroke: #000000"/>
    <path d="M 88.464832 267.696929 
L 88.464832 246.186681 
" clip-path="url(#p8a12464409)" style="fill: none; stroke: #000000"/>
    <path d="M 101.580216 316.543116 
L 101.580216 308.895028 
" clip-path="url(#p8a12464409)" style="fill: none; stroke: #000000"/>
    <path d="M 114.695601 335.006079 
L 114.695601 330.704029 
" clip-path="url(#p8a12464409)" style="fill: none; stroke: #000000"/>
    <path d="M 140.92637 343.162048 
L 140.92637 341.787782 
" clip-path="url(#p8a12464409)" style="fill: none; stroke: #000000"/>
    <path d="M 167.157139 346.597712 
L 167.157139 345.820953 
" clip-path="url(#p8a12464409)" style="fill: none; stroke: #000000"/>
   </g>
   <g id="line2d_15">
    <path d="M 62.234063 349.884 
L 63.086563 203.725223 
L 63.939063 132.505416 
L 64.791563 96.165235 
L 65.644063 76.365408 
L 66.496563 66.252206 
L 67.349063 62.604 
L 68.201563 63.521092 
L 69.054063 67.705803 
L 69.906563 74.207773 
L 71.611563 91.478197 
L 75.021563 131.947641 
L 77.579063 161.192181 
L 79.284063 178.940501 
L 80.989063 195.077046 
L 82.694063 209.596548 
L 84.399063 222.572649 
L 86.104063 234.117711 
L 87.809063 244.359485 
L 89.514063 253.427891 
L 91.219063 261.447844 
L 92.924063 268.535654 
L 94.629063 274.797511 
L 96.334063 280.329153 
L 98.039063 285.216189 
L 99.744063 289.53475 
L 101.449063 293.352288 
L 103.154063 296.728419 
L 104.859063 299.715742 
L 106.564063 302.360615 
L 108.269063 304.703865 
L 109.974063 306.781425 
L 112.531563 309.46772 
L 115.089063 311.717642 
L 117.646563 313.606417 
L 120.204063 315.196116 
L 122.761563 316.537967 
L 125.319063 317.674256 
L 128.729063 318.929002 
L 132.139063 319.946158 
L 136.401563 320.960906 
L 141.516563 321.899462 
L 147.484063 322.724176 
L 154.304063 323.428627 
L 162.829063 324.084385 
L 174.764063 324.761701 
L 191.814063 325.484981 
L 219.094063 326.390359 
L 264.276563 327.641479 
L 337.591563 329.431183 
L 403.234063 330.894368 
L 403.234063 330.894368 
" clip-path="url(#p8a12464409)" style="fill: none; stroke: #000000; stroke-width: 2; stroke-linecap: square"/>
   </g>
   <g id="line2d_16">
    <path d="M 66.562139 290.730819 
L 71.02137 179.893293 
L 75.349447 117.453825 
L 88.464832 304.772231 
L 101.580216 310.448546 
L 114.695601 338.381993 
L 167.157139 347.912227 
" clip-path="url(#p8a12464409)" style="fill: none; stroke-dasharray: 3.7,1.6; stroke-dashoffset: 0; stroke: #000000"/>
    <defs>
     <path id="me3c93179df" d="M -0 3 
L 3 -3 
L -3 -3 
z
" style="stroke: #000000; stroke-linejoin: miter"/>
    </defs>
    <g clip-path="url(#p8a12464409)">
     <use xlink:href="#me3c93179df" x="66.562139" y="290.730819" style="stroke: #000000; stroke-linejoin: miter"/>
     <use xlink:href="#me3c93179df" x="71.02137" y="179.893293" style="stroke: #000000; stroke-linejoin: miter"/>
     <use xlink:href="#me3c93179df" x="75.349447" y="117.453825" style="stroke: #000000; stroke-linejoin: miter"/>
     <use xlink:href="#me3c93179df" x="88.464832" y="304.772231" style="stroke: #000000; stroke-linejoin: miter"/>
     <use xlink:href="#me3c93179df" x="101.580216" y="310.448546" style="stroke: #000000; stroke-linejoin: miter"/>
     <use xlink:href="#me3c93179df" x="114.695601" y="338.381993" style="stroke: #000000; stroke-linejoin: miter"/>
     <use xlink:href="#me3c93179df" x="167.157139" y="347.912227" style="stroke: #000000; stroke-linejoin: miter"/>
    </g>
   </g>
   <g id="line2d_17">
    <path d="M 66.562139 231.876392 
L 71.02137 114.46629 
L 75.349447 99.827372 
L 88.464832 249.204091 
L 101.580216 313.734834 
L 114.695601 336.440095 
L 140.92637 343.311424 
L 167.157139 345.253322 
" clip-path="url(#p8a12464409)" style="fill: none; stroke-dasharray: 3.7,1.6; stroke-dashoffset: 0; stroke: #000000"/>
    <defs>
     <path id="m73d2bab897" d="M 0 -3 
L -0.673542 -0.927051 
L -2.85317 -0.927051 
L -1.089814 0.354102 
L -1.763356 2.427051 
L -0 1.145898 
L 1.763356 2.427051 
L 1.089814 0.354102 
L 2.85317 -0.927051 
L 0.673542 -0.927051 
z
" style="stroke: #000000; stroke-linejoin: bevel"/>
    </defs>
    <g clip-path="url(#p8a12464409)">
     <use xlink:href="#m73d2bab897" x="66.562139" y="231.876392" style="stroke: #000000; stroke-linejoin: bevel"/>
     <use xlink:href="#m73d2bab897" x="71.02137" y="114.46629" style="stroke: #000000; stroke-linejoin: bevel"/>
     <use xlink:href="#m73d2bab897" x="75.349447" y="99.827372" style="stroke: #000000; stroke-linejoin: bevel"/>
     <use xlink:href="#m73d2bab897" x="88.464832" y="249.204091" style="stroke: #000000; stroke-linejoin: bevel"/>
     <use xlink:href="#m73d2bab897" x="101.580216" y="313.734834" style="stroke: #000000; stroke-linejoin: bevel"/>
     <use xlink:href="#m73d2bab897" x="114.695601" y="336.440095" style="stroke: #000000; stroke-linejoin: bevel"/>
     <use xlink:href="#m73d2bab897" x="140.92637" y="343.311424" style="stroke: #000000; stroke-linejoin: bevel"/>
     <use xlink:href="#m73d2bab897" x="167.157139" y="345.253322" style="stroke: #000000; stroke-linejoin: bevel"/>
    </g>
   </g>
   <g id="line2d_18">
    <path d="M 66.562139 250.906986 
L 71.02137 130.031344 
L 75.349447 149.271066 
L 88.464832 256.941805 
L 101.580216 312.719072 
L 114.695601 332.855054 
L 140.92637 342.474915 
L 167.157139 346.209333 
" clip-path="url(#p8a12464409)" style="fill: none; stroke-dasharray: 3.7,1.6; stroke-dashoffset: 0; stroke: #000000"/>
    <defs>
     <path id="m0ec3b02bf4" d="M -3 3 
L 3 3 
L 3 -3 
L -3 -3 
z
" style="stroke: #000000; stroke-linejoin: miter"/>
    </defs>
    <g clip-path="url(#p8a12464409)">
     <use xlink:href="#m0ec3b02bf4" x="66.562139" y="250.906986" style="stroke: #000000; stroke-linejoin: miter"/>
     <use xlink:href="#m0ec3b02bf4" x="71.02137" y="130.031344" style="stroke: #000000; stroke-linejoin: miter"/>
     <use xlink:href="#m0ec3b02bf4" x="75.349447" y="149.271066" style="stroke: #000000; stroke-linejoin: miter"/>
     <use xlink:href="#m0ec3b02bf4" x="88.464832" y="256.941805" style="stroke: #000000; stroke-linejoin: miter"/>
     <use xlink:href="#m0ec3b02bf4" x="101.580216" y="312.719072" style="stroke: #000000; stroke-linejoin: miter"/>
     <use xlink:href="#m0ec3b02bf4" x="114.695601" y="332.855054" style="stroke: #000000; stroke-linejoin: miter"/>
     <use xlink:href="#m0ec3b02bf4" x="140.92637" y="342.474915" style="stroke: #000000; stroke-linejoin: miter"/>
     <use xlink:href="#m0ec3b02bf4" x="167.157139" y="346.209333" style="stroke: #000000; stroke-linejoin: miter"/>
    </g>
   </g>
   <g id="patch_3">
    <path d="M 45.184063 364.248 
L 45.184063 48.24 
" style="fill: none; stroke: #000000; stroke-width: 0.8; stroke-linejoin: miter; stroke-linecap: square"/>
   </g>
   <g id="patch_4">
    <path d="M 403.234063 364.248 
L 403.234063 48.24 
" style="fill: none; stroke: #000000; stroke-width: 0.8; stroke-linejoin: miter; stroke-linecap: square"/>
   </g>
   <g id="patch_5">
    <path d="M 45.184063 364.248 
L 403.234063 364.248 
" style="fill: none; stroke: #000000; stroke-width: 0.8; stroke-linejoin: miter; stroke-linecap: square"/>
   </g>
   <g id="patch_6">
    <path d="M 45.184063 48.24 
L 403.234063 48.24 
" style="fill: none; stroke: #000000; stroke-width: 0.8; stroke-linejoin: miter; stroke-linecap: square"/>
   </g>
   <g id="legend_1">
    <g id="patch_7">
     <path d="M 211.471563 114.9525 
L 396.234063 114.9525 
Q 398.234063 114.9525 398.234063 112.9525 
L 398.234063 55.24 
Q 398.234063 53.24 396.234063 53.24 
L 211.471563 53.24 
Q 209.471563 53.24 209.471563 55.24 
L 209.471563 112.9525 
Q 209.471563 114.9525 211.471563 114.9525 
z
" style="fill: #ffffff; opacity: 0.8; stroke: #cccccc; stroke-linejoin: miter"/>
    </g>
    <g id="line2d_19">
     <path d="M 213.471563 61.338437 
L 233.471563 61.338437 
" style="fill: none; stroke: #000000; stroke-width: 2; stroke-linecap: square"/>
    </g>
    <g id="line2d_20"/>
    <g id="text_17">
     <!-- sim all: 100mg PO -->
     <g transform="translate(241.471563 64.838437) scale(0.1 -0.1)">
      <defs>
       <path id="DejaVuSans-73" d="M 2834 3397 
L 2834 2853 
Q 2591 2978 2328 3040 
Q 2066 3103 1784 3103 
Q 1356 3103 1142 2972 
Q 928 2841 928 2578 
Q 928 2378 1081 2264 
Q 1234 2150 1697 2047 
L 1894 2003 
Q 2506 1872 2764 1633 
Q 3022 1394 3022 966 
Q 3022 478 2636 193 
Q 2250 -91 1575 -91 
Q 1294 -91 989 -36 
Q 684 19 347 128 
L 347 722 
Q 666 556 975 473 
Q 1284 391 1588 391 
Q 1994 391 2212 530 
Q 2431 669 2431 922 
Q 2431 1156 2273 1281 
Q 2116 1406 1581 1522 
L 1381 1569 
Q 847 1681 609 1914 
Q 372 2147 372 2553 
Q 372 3047 722 3315 
Q 1072 3584 1716 3584 
Q 2034 3584 2315 3537 
Q 2597 3491 2834 3397 
z
" transform="scale(0.015625)"/>
       <path id="DejaVuSans-69" d="M 603 3500 
L 1178 3500 
L 1178 0 
L 603 0 
L 603 3500 
z
M 603 4863 
L 1178 4863 
L 1178 4134 
L 603 4134 
L 603 4863 
z
" transform="scale(0.015625)"/>
       <path id="DejaVuSans-6d" d="M 3328 2828 
Q 3544 3216 3844 3400 
Q 4144 3584 4550 3584 
Q 5097 3584 5394 3201 
Q 5691 2819 5691 2113 
L 5691 0 
L 5113 0 
L 5113 2094 
Q 5113 2597 4934 2840 
Q 4756 3084 4391 3084 
Q 3944 3084 3684 2787 
Q 3425 2491 3425 1978 
L 3425 0 
L 2847 0 
L 2847 2094 
Q 2847 2600 2669 2842 
Q 2491 3084 2119 3084 
Q 1678 3084 1418 2786 
Q 1159 2488 1159 1978 
L 1159 0 
L 581 0 
L 581 3500 
L 1159 3500 
L 1159 2956 
Q 1356 3278 1631 3431 
Q 1906 3584 2284 3584 
Q 2666 3584 2933 3390 
Q 3200 3197 3328 2828 
z
" transform="scale(0.015625)"/>
       <path id="DejaVuSans-20" transform="scale(0.015625)"/>
       <path id="DejaVuSans-61" d="M 2194 1759 
Q 1497 1759 1228 1600 
Q 959 1441 959 1056 
Q 959 750 1161 570 
Q 1363 391 1709 391 
Q 2188 391 2477 730 
Q 2766 1069 2766 1631 
L 2766 1759 
L 2194 1759 
z
M 3341 1997 
L 3341 0 
L 2766 0 
L 2766 531 
Q 2569 213 2275 61 
Q 1981 -91 1556 -91 
Q 1019 -91 701 211 
Q 384 513 384 1019 
Q 384 1609 779 1909 
Q 1175 2209 1959 2209 
L 2766 2209 
L 2766 2266 
Q 2766 2663 2505 2880 
Q 2244 3097 1772 3097 
Q 1472 3097 1187 3025 
Q 903 2953 641 2809 
L 641 3341 
Q 956 3463 1253 3523 
Q 1550 3584 1831 3584 
Q 2591 3584 2966 3190 
Q 3341 2797 3341 1997 
z
" transform="scale(0.015625)"/>
       <path id="DejaVuSans-6c" d="M 603 4863 
L 1178 4863 
L 1178 0 
L 603 0 
L 603 4863 
z
" transform="scale(0.015625)"/>
       <path id="DejaVuSans-3a" d="M 750 794 
L 1409 794 
L 1409 0 
L 750 0 
L 750 794 
z
M 750 3309 
L 1409 3309 
L 1409 2516 
L 750 2516 
L 750 3309 
z
" transform="scale(0.015625)"/>
       <path id="DejaVuSans-67" d="M 2906 1791 
Q 2906 2416 2648 2759 
Q 2391 3103 1925 3103 
Q 1463 3103 1205 2759 
Q 947 2416 947 1791 
Q 947 1169 1205 825 
Q 1463 481 1925 481 
Q 2391 481 2648 825 
Q 2906 1169 2906 1791 
z
M 3481 434 
Q 3481 -459 3084 -895 
Q 2688 -1331 1869 -1331 
Q 1566 -1331 1297 -1286 
Q 1028 -1241 775 -1147 
L 775 -588 
Q 1028 -725 1275 -790 
Q 1522 -856 1778 -856 
Q 2344 -856 2625 -561 
Q 2906 -266 2906 331 
L 2906 616 
Q 2728 306 2450 153 
Q 2172 0 1784 0 
Q 1141 0 747 490 
Q 353 981 353 1791 
Q 353 2603 747 3093 
Q 1141 3584 1784 3584 
Q 2172 3584 2450 3431 
Q 2728 3278 2906 2969 
L 2906 3500 
L 3481 3500 
L 3481 434 
z
" transform="scale(0.015625)"/>
       <path id="DejaVuSans-50" d="M 1259 4147 
L 1259 2394 
L 2053 2394 
Q 2494 2394 2734 2622 
Q 2975 2850 2975 3272 
Q 2975 3691 2734 3919 
Q 2494 4147 2053 4147 
L 1259 4147 
z
M 628 4666 
L 2053 4666 
Q 2838 4666 3239 4311 
Q 3641 3956 3641 3272 
Q 3641 2581 3239 2228 
Q 2838 1875 2053 1875 
L 1259 1875 
L 1259 0 
L 628 0 
L 628 4666 
z
" transform="scale(0.015625)"/>
       <path id="DejaVuSans-4f" d="M 2522 4238 
Q 1834 4238 1429 3725 
Q 1025 3213 1025 2328 
Q 1025 1447 1429 934 
Q 1834 422 2522 422 
Q 3209 422 3611 934 
Q 4013 1447 4013 2328 
Q 4013 3213 3611 3725 
Q 3209 4238 2522 4238 
z
M 2522 4750 
Q 3503 4750 4090 4092 
Q 4678 3434 4678 2328 
Q 4678 1225 4090 567 
Q 3503 -91 2522 -91 
Q 1538 -91 948 565 
Q 359 1222 359 2328 
Q 359 3434 948 4092 
Q 1538 4750 2522 4750 
z
" transform="scale(0.015625)"/>
      </defs>
      <use xlink:href="#DejaVuSans-73"/>
      <use xlink:href="#DejaVuSans-69" transform="translate(52.099609 0)"/>
      <use xlink:href="#DejaVuSans-6d" transform="translate(79.882812 0)"/>
      <use xlink:href="#DejaVuSans-20" transform="translate(177.294922 0)"/>
      <use xlink:href="#DejaVuSans-61" transform="translate(209.082031 0)"/>
      <use xlink:href="#DejaVuSans-6c" transform="translate(270.361328 0)"/>
      <use xlink:href="#DejaVuSans-6c" transform="translate(298.144531 0)"/>
      <use xlink:href="#DejaVuSans-3a" transform="translate(325.927734 0)"/>
      <use xlink:href="#DejaVuSans-20" transform="translate(359.619141 0)"/>
      <use xlink:href="#DejaVuSans-31" transform="translate(391.40625 0)"/>
      <use xlink:href="#DejaVuSans-30" transform="translate(455.029297 0)"/>
      <use xlink:href="#DejaVuSans-30" transform="translate(518.652344 0)"/>
      <use xlink:href="#DejaVuSans-6d" transform="translate(582.275391 0)"/>
      <use xlink:href="#DejaVuSans-67" transform="translate(679.6875 0)"/>
      <use xlink:href="#DejaVuSans-20" transform="translate(743.164062 0)"/>
      <use xlink:href="#DejaVuSans-50" transform="translate(774.951172 0)"/>
      <use xlink:href="#DejaVuSans-4f" transform="translate(835.253906 0)"/>
     </g>
    </g>
    <g id="line2d_21">
     <path d="M 213.471563 76.016562 
L 233.471563 76.016562 
" style="fill: none; stroke-dasharray: 3.7,1.6; stroke-dashoffset: 0; stroke: #000000"/>
    </g>
    <g id="line2d_22">
     <g>
      <use xlink:href="#me3c93179df" x="223.471563" y="76.016562" style="stroke: #000000; stroke-linejoin: miter"/>
     </g>
    </g>
    <g id="text_18">
     <!-- exp I1: 100mg PO (n=1) -->
     <g transform="translate(241.471563 79.516562) scale(0.1 -0.1)">
      <defs>
       <path id="DejaVuSans-65" d="M 3597 1894 
L 3597 1613 
L 953 1613 
Q 991 1019 1311 708 
Q 1631 397 2203 397 
Q 2534 397 2845 478 
Q 3156 559 3463 722 
L 3463 178 
Q 3153 47 2828 -22 
Q 2503 -91 2169 -91 
Q 1331 -91 842 396 
Q 353 884 353 1716 
Q 353 2575 817 3079 
Q 1281 3584 2069 3584 
Q 2775 3584 3186 3129 
Q 3597 2675 3597 1894 
z
M 3022 2063 
Q 3016 2534 2758 2815 
Q 2500 3097 2075 3097 
Q 1594 3097 1305 2825 
Q 1016 2553 972 2059 
L 3022 2063 
z
" transform="scale(0.015625)"/>
       <path id="DejaVuSans-78" d="M 3513 3500 
L 2247 1797 
L 3578 0 
L 2900 0 
L 1881 1375 
L 863 0 
L 184 0 
L 1544 1831 
L 300 3500 
L 978 3500 
L 1906 2253 
L 2834 3500 
L 3513 3500 
z
" transform="scale(0.015625)"/>
       <path id="DejaVuSans-70" d="M 1159 525 
L 1159 -1331 
L 581 -1331 
L 581 3500 
L 1159 3500 
L 1159 2969 
Q 1341 3281 1617 3432 
Q 1894 3584 2278 3584 
Q 2916 3584 3314 3078 
Q 3713 2572 3713 1747 
Q 3713 922 3314 415 
Q 2916 -91 2278 -91 
Q 1894 -91 1617 61 
Q 1341 213 1159 525 
z
M 3116 1747 
Q 3116 2381 2855 2742 
Q 2594 3103 2138 3103 
Q 1681 3103 1420 2742 
Q 1159 2381 1159 1747 
Q 1159 1113 1420 752 
Q 1681 391 2138 391 
Q 2594 391 2855 752 
Q 3116 1113 3116 1747 
z
" transform="scale(0.015625)"/>
       <path id="DejaVuSans-49" d="M 628 4666 
L 1259 4666 
L 1259 0 
L 628 0 
L 628 4666 
z
" transform="scale(0.015625)"/>
       <path id="DejaVuSans-28" d="M 1984 4856 
Q 1566 4138 1362 3434 
Q 1159 2731 1159 2009 
Q 1159 1288 1364 580 
Q 1569 -128 1984 -844 
L 1484 -844 
Q 1016 -109 783 600 
Q 550 1309 550 2009 
Q 550 2706 781 3412 
Q 1013 4119 1484 4856 
L 1984 4856 
z
" transform="scale(0.015625)"/>
       <path id="DejaVuSans-6e" d="M 3513 2113 
L 3513 0 
L 2938 0 
L 2938 2094 
Q 2938 2591 2744 2837 
Q 2550 3084 2163 3084 
Q 1697 3084 1428 2787 
Q 1159 2491 1159 1978 
L 1159 0 
L 581 0 
L 581 3500 
L 1159 3500 
L 1159 2956 
Q 1366 3272 1645 3428 
Q 1925 3584 2291 3584 
Q 2894 3584 3203 3211 
Q 3513 2838 3513 2113 
z
" transform="scale(0.015625)"/>
       <path id="DejaVuSans-3d" d="M 678 2906 
L 4684 2906 
L 4684 2381 
L 678 2381 
L 678 2906 
z
M 678 1631 
L 4684 1631 
L 4684 1100 
L 678 1100 
L 678 1631 
z
" transform="scale(0.015625)"/>
       <path id="DejaVuSans-29" d="M 513 4856 
L 1013 4856 
Q 1481 4119 1714 3412 
Q 1947 2706 1947 2009 
Q 1947 1309 1714 600 
Q 1481 -109 1013 -844 
L 513 -844 
Q 928 -128 1133 580 
Q 1338 1288 1338 2009 
Q 1338 2731 1133 3434 
Q 928 4138 513 4856 
z
" transform="scale(0.015625)"/>
      </defs>
      <use xlink:href="#DejaVuSans-65"/>
      <use xlink:href="#DejaVuSans-78" transform="translate(59.773438 0)"/>
      <use xlink:href="#DejaVuSans-70" transform="translate(118.953125 0)"/>
      <use xlink:href="#DejaVuSans-20" transform="translate(182.429688 0)"/>
      <use xlink:href="#DejaVuSans-49" transform="translate(214.216797 0)"/>
      <use xlink:href="#DejaVuSans-31" transform="translate(243.708984 0)"/>
      <use xlink:href="#DejaVuSans-3a" transform="translate(307.332031 0)"/>
      <use xlink:href="#DejaVuSans-20" transform="translate(341.023438 0)"/>
      <use xlink:href="#DejaVuSans-31" transform="translate(372.810547 0)"/>
      <use xlink:href="#DejaVuSans-30" transform="translate(436.433594 0)"/>
      <use xlink:href="#DejaVuSans-30" transform="translate(500.056641 0)"/>
      <use xlink:href="#DejaVuSans-6d" transform="translate(563.679688 0)"/>
      <use xlink:href="#DejaVuSans-67" transform="translate(661.091797 0)"/>
      <use xlink:href="#DejaVuSans-20" transform="translate(724.568359 0)"/>
      <use xlink:href="#DejaVuSans-50" transform="translate(756.355469 0)"/>
      <use xlink:href="#DejaVuSans-4f" transform="translate(816.658203 0)"/>
      <use xlink:href="#DejaVuSans-20" transform="translate(895.369141 0)"/>
      <use xlink:href="#DejaVuSans-28" transform="translate(927.15625 0)"/>
      <use xlink:href="#DejaVuSans-6e" transform="translate(966.169922 0)"/>
      <use xlink:href="#DejaVuSans-3d" transform="translate(1029.548828 0)"/>
      <use xlink:href="#DejaVuSans-31" transform="translate(1113.337891 0)"/>
      <use xlink:href="#DejaVuSans-29" transform="translate(1176.960938 0)"/>
     </g>
    </g>
    <g id="line2d_23">
     <path d="M 213.471563 90.694687 
L 233.471563 90.694687 
" style="fill: none; stroke-dasharray: 3.7,1.6; stroke-dashoffset: 0; stroke: #000000"/>
    </g>
    <g id="line2d_24">
     <g>
      <use xlink:href="#m73d2bab897" x="223.471563" y="90.694687" style="stroke: #000000; stroke-linejoin: bevel"/>
     </g>
    </g>
    <g id="text_19">
     <!-- exp I5: 100mg PO (n=1) -->
     <g transform="translate(241.471563 94.194687) scale(0.1 -0.1)">
      <use xlink:href="#DejaVuSans-65"/>
      <use xlink:href="#DejaVuSans-78" transform="translate(59.773438 0)"/>
      <use xlink:href="#DejaVuSans-70" transform="translate(118.953125 0)"/>
      <use xlink:href="#DejaVuSans-20" transform="translate(182.429688 0)"/>
      <use xlink:href="#DejaVuSans-49" transform="translate(214.216797 0)"/>
      <use xlink:href="#DejaVuSans-35" transform="translate(243.708984 0)"/>
      <use xlink:href="#DejaVuSans-3a" transform="translate(307.332031 0)"/>
      <use xlink:href="#DejaVuSans-20" transform="translate(341.023438 0)"/>
      <use xlink:href="#DejaVuSans-31" transform="translate(372.810547 0)"/>
      <use xlink:href="#DejaVuSans-30" transform="translate(436.433594 0)"/>
      <use xlink:href="#DejaVuSans-30" transform="translate(500.056641 0)"/>
      <use xlink:href="#DejaVuSans-6d" transform="translate(563.679688 0)"/>
      <use xlink:href="#DejaVuSans-67" transform="translate(661.091797 0)"/>
      <use xlink:href="#DejaVuSans-20" transform="translate(724.568359 0)"/>
      <use xlink:href="#DejaVuSans-50" transform="translate(756.355469 0)"/>
      <use xlink:href="#DejaVuSans-4f" transform="translate(816.658203 0)"/>
      <use xlink:href="#DejaVuSans-20" transform="translate(895.369141 0)"/>
      <use xlink:href="#DejaVuSans-28" transform="translate(927.15625 0)"/>
      <use xlink:href="#DejaVuSans-6e" transform="translate(966.169922 0)"/>
      <use xlink:href="#DejaVuSans-3d" transform="translate(1029.548828 0)"/>
      <use xlink:href="#DejaVuSans-31" transform="translate(1113.337891 0)"/>
      <use xlink:href="#DejaVuSans-29" transform="translate(1176.960938 0)"/>
     </g>
    </g>
    <g id="LineCollection_2">
     <path d="M 223.471563 110.372812 
L 223.471563 100.372812 
" style="fill: none; stroke: #000000"/>
    </g>
    <g id="line2d_25">
     <path d="M 213.471563 105.372812 
L 233.471563 105.372812 
" style="fill: none; stroke-dasharray: 3.7,1.6; stroke-dashoffset: 0; stroke: #000000"/>
    </g>
    <g id="line2d_26">
     <g>
      <use xlink:href="#m0ec3b02bf4" x="223.471563" y="105.372812" style="stroke: #000000; stroke-linejoin: miter"/>
     </g>
    </g>
    <g id="text_20">
     <!-- exp all: 100mg PO±SD (n=12) -->
     <g transform="translate(241.471563 108.872812) scale(0.1 -0.1)">
      <defs>
       <path id="DejaVuSans-b1" d="M 2944 4013 
L 2944 2803 
L 4684 2803 
L 4684 2272 
L 2944 2272 
L 2944 1063 
L 2419 1063 
L 2419 2272 
L 678 2272 
L 678 2803 
L 2419 2803 
L 2419 4013 
L 2944 4013 
z
M 678 531 
L 4684 531 
L 4684 0 
L 678 0 
L 678 531 
z
" transform="scale(0.015625)"/>
       <path id="DejaVuSans-53" d="M 3425 4513 
L 3425 3897 
Q 3066 4069 2747 4153 
Q 2428 4238 2131 4238 
Q 1616 4238 1336 4038 
Q 1056 3838 1056 3469 
Q 1056 3159 1242 3001 
Q 1428 2844 1947 2747 
L 2328 2669 
Q 3034 2534 3370 2195 
Q 3706 1856 3706 1288 
Q 3706 609 3251 259 
Q 2797 -91 1919 -91 
Q 1588 -91 1214 -16 
Q 841 59 441 206 
L 441 856 
Q 825 641 1194 531 
Q 1563 422 1919 422 
Q 2459 422 2753 634 
Q 3047 847 3047 1241 
Q 3047 1584 2836 1778 
Q 2625 1972 2144 2069 
L 1759 2144 
Q 1053 2284 737 2584 
Q 422 2884 422 3419 
Q 422 4038 858 4394 
Q 1294 4750 2059 4750 
Q 2388 4750 2728 4690 
Q 3069 4631 3425 4513 
z
" transform="scale(0.015625)"/>
       <path id="DejaVuSans-44" d="M 1259 4147 
L 1259 519 
L 2022 519 
Q 2988 519 3436 956 
Q 3884 1394 3884 2338 
Q 3884 3275 3436 3711 
Q 2988 4147 2022 4147 
L 1259 4147 
z
M 628 4666 
L 1925 4666 
Q 3281 4666 3915 4102 
Q 4550 3538 4550 2338 
Q 4550 1131 3912 565 
Q 3275 0 1925 0 
L 628 0 
L 628 4666 
z
" transform="scale(0.015625)"/>
      </defs>
      <use xlink:href="#DejaVuSans-65"/>
      <use xlink:href="#DejaVuSans-78" transform="translate(59.773438 0)"/>
      <use xlink:href="#DejaVuSans-70" transform="translate(118.953125 0)"/>
      <use xlink:href="#DejaVuSans-20" transform="translate(182.429688 0)"/>
      <use xlink:href="#DejaVuSans-61" transform="translate(214.216797 0)"/>
      <use xlink:href="#DejaVuSans-6c" transform="translate(275.496094 0)"/>
      <use xlink:href="#DejaVuSans-6c" transform="translate(303.279297 0)"/>
      <use xlink:href="#DejaVuSans-3a" transform="translate(331.0625 0)"/>
      <use xlink:href="#DejaVuSans-20" transform="translate(364.753906 0)"/>
      <use xlink:href="#DejaVuSans-31" transform="translate(396.541016 0)"/>
      <use xlink:href="#DejaVuSans-30" transform="translate(460.164062 0)"/>
      <use xlink:href="#DejaVuSans-30" transform="translate(523.787109 0)"/>
      <use xlink:href="#DejaVuSans-6d" transform="translate(587.410156 0)"/>
      <use xlink:href="#DejaVuSans-67" transform="translate(684.822266 0)"/>
      <use xlink:href="#DejaVuSans-20" transform="translate(748.298828 0)"/>
      <use xlink:href="#DejaVuSans-50" transform="translate(780.085938 0)"/>
      <use xlink:href="#DejaVuSans-4f" transform="translate(840.388672 0)"/>
      <use xlink:href="#DejaVuSans-b1" transform="translate(919.099609 0)"/>
      <use xlink:href="#DejaVuSans-53" transform="translate(1002.888672 0)"/>
      <use xlink:href="#DejaVuSans-44" transform="translate(1066.365234 0)"/>
      <use xlink:href="#DejaVuSans-20" transform="translate(1143.367188 0)"/>
      <use xlink:href="#DejaVuSans-28" transform="translate(1175.154297 0)"/>
      <use xlink:href="#DejaVuSans-6e" transform="translate(1214.167969 0)"/>
      <use xlink:href="#DejaVuSans-3d" transform="translate(1277.546875 0)"/>
      <use xlink:href="#DejaVuSans-31" transform="translate(1361.335938 0)"/>
      <use xlink:href="#DejaVuSans-32" transform="translate(1424.958984 0)"/>
      <use xlink:href="#DejaVuSans-29" transform="translate(1488.582031 0)"/>
     </g>
    </g>
   </g>
  </g>
  <g id="axes_2">
   <g id="patch_8">
    <path d="M 510.649063 364.248 
L 868.699063 364.248 
L 868.699063 48.24 
L 510.649063 48.24 
z
" style="fill: #ffffff"/>
   </g>
   <g id="matplotlib.axis_3">
    <g id="xtick_7">
     <g id="line2d_27">
      <g>
       <use xlink:href="#meda7461c96" x="527.699063" y="364.248" style="stroke: #000000; stroke-width: 0.8"/>
      </g>
     </g>
     <g id="text_21">
      <!-- 0 -->
      <g transform="translate(522.927188 382.645656) scale(0.15 -0.15)">
       <use xlink:href="#DejaVuSans-30"/>
      </g>
     </g>
    </g>
    <g id="xtick_8">
     <g id="line2d_28">
      <g>
       <use xlink:href="#meda7461c96" x="593.275986" y="364.248" style="stroke: #000000; stroke-width: 0.8"/>
      </g>
     </g>
     <g id="text_22">
      <!-- 5 -->
      <g transform="translate(588.504111 382.645656) scale(0.15 -0.15)">
       <use xlink:href="#DejaVuSans-35"/>
      </g>
     </g>
    </g>
    <g id="xtick_9">
     <g id="line2d_29">
      <g>
       <use xlink:href="#meda7461c96" x="658.852909" y="364.248" style="stroke: #000000; stroke-width: 0.8"/>
      </g>
     </g>
     <g id="text_23">
      <!-- 10 -->
      <g transform="translate(649.309159 382.645656) scale(0.15 -0.15)">
       <use xlink:href="#DejaVuSans-31"/>
       <use xlink:href="#DejaVuSans-30" transform="translate(63.623047 0)"/>
      </g>
     </g>
    </g>
    <g id="xtick_10">
     <g id="line2d_30">
      <g>
       <use xlink:href="#meda7461c96" x="724.429832" y="364.248" style="stroke: #000000; stroke-width: 0.8"/>
      </g>
     </g>
     <g id="text_24">
      <!-- 15 -->
      <g transform="translate(714.886082 382.645656) scale(0.15 -0.15)">
       <use xlink:href="#DejaVuSans-31"/>
       <use xlink:href="#DejaVuSans-35" transform="translate(63.623047 0)"/>
      </g>
     </g>
    </g>
    <g id="xtick_11">
     <g id="line2d_31">
      <g>
       <use xlink:href="#meda7461c96" x="790.006755" y="364.248" style="stroke: #000000; stroke-width: 0.8"/>
      </g>
     </g>
     <g id="text_25">
      <!-- 20 -->
      <g transform="translate(780.463005 382.645656) scale(0.15 -0.15)">
       <use xlink:href="#DejaVuSans-32"/>
       <use xlink:href="#DejaVuSans-30" transform="translate(63.623047 0)"/>
      </g>
     </g>
    </g>
    <g id="xtick_12">
     <g id="line2d_32">
      <g>
       <use xlink:href="#meda7461c96" x="855.583678" y="364.248" style="stroke: #000000; stroke-width: 0.8"/>
      </g>
     </g>
     <g id="text_26">
      <!-- 25 -->
      <g transform="translate(846.039928 382.645656) scale(0.15 -0.15)">
       <use xlink:href="#DejaVuSans-32"/>
       <use xlink:href="#DejaVuSans-35" transform="translate(63.623047 0)"/>
      </g>
     </g>
    </g>
    <g id="text_27">
     <!-- time [hr] -->
     <g transform="translate(644.599531 403.442375) scale(0.18 -0.18)">
      <use xlink:href="#DejaVuSans-Bold-74"/>
      <use xlink:href="#DejaVuSans-Bold-69" transform="translate(47.802734 0)"/>
      <use xlink:href="#DejaVuSans-Bold-6d" transform="translate(82.080078 0)"/>
      <use xlink:href="#DejaVuSans-Bold-65" transform="translate(186.279297 0)"/>
      <use xlink:href="#DejaVuSans-Bold-20" transform="translate(254.101562 0)"/>
      <use xlink:href="#DejaVuSans-Bold-5b" transform="translate(288.916016 0)"/>
      <use xlink:href="#DejaVuSans-Bold-68" transform="translate(334.619141 0)"/>
      <use xlink:href="#DejaVuSans-Bold-72" transform="translate(405.810547 0)"/>
      <use xlink:href="#DejaVuSans-Bold-5d" transform="translate(455.126953 0)"/>
     </g>
    </g>
   </g>
   <g id="matplotlib.axis_4">
    <g id="ytick_9">
     <g id="line2d_33">
      <g>
       <use xlink:href="#m1aed9c88a3" x="510.649063" y="349.884" style="stroke: #000000; stroke-width: 0.8"/>
      </g>
     </g>
     <g id="text_28">
      <!-- 0 -->
      <g transform="translate(494.105313 355.582828) scale(0.15 -0.15)">
       <use xlink:href="#DejaVuSans-30"/>
      </g>
     </g>
    </g>
    <g id="ytick_10">
     <g id="line2d_34">
      <g>
       <use xlink:href="#m1aed9c88a3" x="510.649063" y="305.750525" style="stroke: #000000; stroke-width: 0.8"/>
      </g>
     </g>
     <g id="text_29">
      <!-- 2 -->
      <g transform="translate(494.105313 311.449353) scale(0.15 -0.15)">
       <use xlink:href="#DejaVuSans-32"/>
      </g>
     </g>
    </g>
    <g id="ytick_11">
     <g id="line2d_35">
      <g>
       <use xlink:href="#m1aed9c88a3" x="510.649063" y="261.61705" style="stroke: #000000; stroke-width: 0.8"/>
      </g>
     </g>
     <g id="text_30">
      <!-- 4 -->
      <g transform="translate(494.105313 267.315878) scale(0.15 -0.15)">
       <use xlink:href="#DejaVuSans-34"/>
      </g>
     </g>
    </g>
    <g id="ytick_12">
     <g id="line2d_36">
      <g>
       <use xlink:href="#m1aed9c88a3" x="510.649063" y="217.483575" style="stroke: #000000; stroke-width: 0.8"/>
      </g>
     </g>
     <g id="text_31">
      <!-- 6 -->
      <g transform="translate(494.105313 223.182403) scale(0.15 -0.15)">
       <use xlink:href="#DejaVuSans-36"/>
      </g>
     </g>
    </g>
    <g id="ytick_13">
     <g id="line2d_37">
      <g>
       <use xlink:href="#m1aed9c88a3" x="510.649063" y="173.3501" style="stroke: #000000; stroke-width: 0.8"/>
      </g>
     </g>
     <g id="text_32">
      <!-- 8 -->
      <g transform="translate(494.105313 179.048929) scale(0.15 -0.15)">
       <defs>
        <path id="DejaVuSans-38" d="M 2034 2216 
Q 1584 2216 1326 1975 
Q 1069 1734 1069 1313 
Q 1069 891 1326 650 
Q 1584 409 2034 409 
Q 2484 409 2743 651 
Q 3003 894 3003 1313 
Q 3003 1734 2745 1975 
Q 2488 2216 2034 2216 
z
M 1403 2484 
Q 997 2584 770 2862 
Q 544 3141 544 3541 
Q 544 4100 942 4425 
Q 1341 4750 2034 4750 
Q 2731 4750 3128 4425 
Q 3525 4100 3525 3541 
Q 3525 3141 3298 2862 
Q 3072 2584 2669 2484 
Q 3125 2378 3379 2068 
Q 3634 1759 3634 1313 
Q 3634 634 3220 271 
Q 2806 -91 2034 -91 
Q 1263 -91 848 271 
Q 434 634 434 1313 
Q 434 1759 690 2068 
Q 947 2378 1403 2484 
z
M 1172 3481 
Q 1172 3119 1398 2916 
Q 1625 2713 2034 2713 
Q 2441 2713 2670 2916 
Q 2900 3119 2900 3481 
Q 2900 3844 2670 4047 
Q 2441 4250 2034 4250 
Q 1625 4250 1398 4047 
Q 1172 3844 1172 3481 
z
" transform="scale(0.015625)"/>
       </defs>
       <use xlink:href="#DejaVuSans-38"/>
      </g>
     </g>
    </g>
    <g id="ytick_14">
     <g id="line2d_38">
      <g>
       <use xlink:href="#m1aed9c88a3" x="510.649063" y="129.216626" style="stroke: #000000; stroke-width: 0.8"/>
      </g>
     </g>
     <g id="text_33">
      <!-- 10 -->
      <g transform="translate(484.561563 134.915454) scale(0.15 -0.15)">
       <use xlink:href="#DejaVuSans-31"/>
       <use xlink:href="#DejaVuSans-30" transform="translate(63.623047 0)"/>
      </g>
     </g>
    </g>
    <g id="ytick_15">
     <g id="line2d_39">
      <g>
       <use xlink:href="#m1aed9c88a3" x="510.649063" y="85.083151" style="stroke: #000000; stroke-width: 0.8"/>
      </g>
     </g>
     <g id="text_34">
      <!-- 12 -->
      <g transform="translate(484.561563 90.781979) scale(0.15 -0.15)">
       <use xlink:href="#DejaVuSans-31"/>
       <use xlink:href="#DejaVuSans-32" transform="translate(63.623047 0)"/>
      </g>
     </g>
    </g>
    <g id="text_35">
     <!-- captopril + capss [µM] -->
     <g transform="translate(476.798438 320.940562) rotate(-90) scale(0.18 -0.18)">
      <defs>
       <path id="DejaVuSans-Bold-2b" d="M 3053 4013 
L 3053 2375 
L 4684 2375 
L 4684 1638 
L 3053 1638 
L 3053 0 
L 2309 0 
L 2309 1638 
L 678 1638 
L 678 2375 
L 2309 2375 
L 2309 4013 
L 3053 4013 
z
" transform="scale(0.015625)"/>
       <path id="DejaVuSans-Bold-73" d="M 3272 3391 
L 3272 2541 
Q 2913 2691 2578 2766 
Q 2244 2841 1947 2841 
Q 1628 2841 1473 2761 
Q 1319 2681 1319 2516 
Q 1319 2381 1436 2309 
Q 1553 2238 1856 2203 
L 2053 2175 
Q 2913 2066 3209 1816 
Q 3506 1566 3506 1031 
Q 3506 472 3093 190 
Q 2681 -91 1863 -91 
Q 1516 -91 1145 -36 
Q 775 19 384 128 
L 384 978 
Q 719 816 1070 734 
Q 1422 653 1784 653 
Q 2113 653 2278 743 
Q 2444 834 2444 1013 
Q 2444 1163 2330 1236 
Q 2216 1309 1875 1350 
L 1678 1375 
Q 931 1469 631 1722 
Q 331 1975 331 2491 
Q 331 3047 712 3315 
Q 1094 3584 1881 3584 
Q 2191 3584 2531 3537 
Q 2872 3491 3272 3391 
z
" transform="scale(0.015625)"/>
      </defs>
      <use xlink:href="#DejaVuSans-Bold-63"/>
      <use xlink:href="#DejaVuSans-Bold-61" transform="translate(59.277344 0)"/>
      <use xlink:href="#DejaVuSans-Bold-70" transform="translate(126.757812 0)"/>
      <use xlink:href="#DejaVuSans-Bold-74" transform="translate(198.339844 0)"/>
      <use xlink:href="#DejaVuSans-Bold-6f" transform="translate(246.142578 0)"/>
      <use xlink:href="#DejaVuSans-Bold-70" transform="translate(314.84375 0)"/>
      <use xlink:href="#DejaVuSans-Bold-72" transform="translate(386.425781 0)"/>
      <use xlink:href="#DejaVuSans-Bold-69" transform="translate(435.742188 0)"/>
      <use xlink:href="#DejaVuSans-Bold-6c" transform="translate(470.019531 0)"/>
      <use xlink:href="#DejaVuSans-Bold-20" transform="translate(504.296875 0)"/>
      <use xlink:href="#DejaVuSans-Bold-2b" transform="translate(539.111328 0)"/>
      <use xlink:href="#DejaVuSans-Bold-20" transform="translate(622.900391 0)"/>
      <use xlink:href="#DejaVuSans-Bold-63" transform="translate(657.714844 0)"/>
      <use xlink:href="#DejaVuSans-Bold-61" transform="translate(716.992188 0)"/>
      <use xlink:href="#DejaVuSans-Bold-70" transform="translate(784.472656 0)"/>
      <use xlink:href="#DejaVuSans-Bold-73" transform="translate(856.054688 0)"/>
      <use xlink:href="#DejaVuSans-Bold-73" transform="translate(915.576172 0)"/>
      <use xlink:href="#DejaVuSans-Bold-20" transform="translate(975.097656 0)"/>
      <use xlink:href="#DejaVuSans-Bold-5b" transform="translate(1009.912109 0)"/>
      <use xlink:href="#DejaVuSans-Bold-b5" transform="translate(1055.615234 0)"/>
      <use xlink:href="#DejaVuSans-Bold-4d" transform="translate(1129.199219 0)"/>
      <use xlink:href="#DejaVuSans-Bold-5d" transform="translate(1228.710938 0)"/>
     </g>
    </g>
   </g>
   <g id="LineCollection_3">
    <path d="M 532.027139 288.380272 
L 532.027139 265.900443 
" clip-path="url(#pdef922d08c)" style="fill: none; stroke: #000000"/>
    <path d="M 536.48637 210.536221 
L 536.48637 172.965702 
" clip-path="url(#pdef922d08c)" style="fill: none; stroke: #000000"/>
    <path d="M 540.814447 175.172936 
L 540.814447 135.42914 
" clip-path="url(#pdef922d08c)" style="fill: none; stroke: #000000"/>
    <path d="M 553.929832 162.337021 
L 553.929832 132.549549 
" clip-path="url(#pdef922d08c)" style="fill: none; stroke: #000000"/>
    <path d="M 567.045216 223.684545 
L 567.045216 209.517498 
" clip-path="url(#pdef922d08c)" style="fill: none; stroke: #000000"/>
    <path d="M 580.160601 251.943932 
L 580.160601 232.832681 
" clip-path="url(#pdef922d08c)" style="fill: none; stroke: #000000"/>
    <path d="M 606.39137 287.36834 
L 606.39137 274.872 
" clip-path="url(#pdef922d08c)" style="fill: none; stroke: #000000"/>
    <path d="M 632.622139 312.503643 
L 632.622139 302.696732 
" clip-path="url(#pdef922d08c)" style="fill: none; stroke: #000000"/>
    <path d="M 685.083678 326.71823 
L 685.083678 321.244289 
" clip-path="url(#pdef922d08c)" style="fill: none; stroke: #000000"/>
    <path d="M 737.545216 337.272204 
L 737.545216 333.97154 
" clip-path="url(#pdef922d08c)" style="fill: none; stroke: #000000"/>
    <path d="M 842.468293 344.878672 
L 842.468293 343.357379 
" clip-path="url(#pdef922d08c)" style="fill: none; stroke: #000000"/>
   </g>
   <g id="line2d_40">
    <path d="M 527.699063 349.884 
L 528.551563 265.805696 
L 529.404063 222.584421 
L 530.256563 198.429416 
L 531.109063 183.332336 
L 531.961563 173.610135 
L 532.814063 167.561127 
L 533.666563 164.191826 
L 534.519063 162.823673 
L 535.371563 162.956351 
L 536.224063 164.209399 
L 537.076563 166.290345 
L 537.929063 168.973722 
L 539.634063 175.493002 
L 543.044063 190.357286 
L 546.454063 205.033366 
L 549.011563 215.186687 
L 551.569063 224.4678 
L 554.126563 232.88821 
L 556.684063 240.506697 
L 559.241563 247.397041 
L 561.799063 253.63385 
L 564.356563 259.286804 
L 566.914063 264.41873 
L 569.471563 269.085367 
L 572.029063 273.335824 
L 574.586563 277.213274 
L 577.144063 280.755681 
L 579.701563 283.996487 
L 583.111563 287.898937 
L 586.521563 291.378125 
L 589.931563 294.486003 
L 593.341563 297.26716 
L 596.751563 299.760049 
L 600.161563 301.997983 
L 603.571563 304.009938 
L 607.834063 306.245334 
L 612.096563 308.209597 
L 616.359063 309.939057 
L 621.474063 311.747903 
L 626.589063 313.308616 
L 632.556563 314.866216 
L 638.524063 316.187612 
L 645.344063 317.460725 
L 653.016563 318.649154 
L 661.541563 319.73142 
L 670.919063 320.699655 
L 682.001563 321.620933 
L 695.641563 322.520027 
L 712.691563 323.403698 
L 734.856563 324.31386 
L 766.399063 325.366969 
L 814.991563 326.746742 
L 868.699063 328.121837 
L 868.699063 328.121837 
" clip-path="url(#pdef922d08c)" style="fill: none; stroke: #000000; stroke-width: 2; stroke-linecap: square"/>
   </g>
   <g id="line2d_41">
    <path d="M 532.027139 315.994468 
L 536.48637 226.958043 
L 540.814447 168.551234 
L 553.929832 213.375064 
L 567.045216 254.124 
L 580.160601 280.610809 
L 606.39137 311.376255 
L 632.622139 323.668851 
L 737.545216 340.783404 
L 842.468293 346.55617 
" clip-path="url(#pdef922d08c)" style="fill: none; stroke-dasharray: 3.7,1.6; stroke-dashoffset: 0; stroke: #000000"/>
    <g clip-path="url(#pdef922d08c)">
     <use xlink:href="#me3c93179df" x="532.027139" y="315.994468" style="stroke: #000000; stroke-linejoin: miter"/>
     <use xlink:href="#me3c93179df" x="536.48637" y="226.958043" style="stroke: #000000; stroke-linejoin: miter"/>
     <use xlink:href="#me3c93179df" x="540.814447" y="168.551234" style="stroke: #000000; stroke-linejoin: miter"/>
     <use xlink:href="#me3c93179df" x="553.929832" y="213.375064" style="stroke: #000000; stroke-linejoin: miter"/>
     <use xlink:href="#me3c93179df" x="567.045216" y="254.124" style="stroke: #000000; stroke-linejoin: miter"/>
     <use xlink:href="#me3c93179df" x="580.160601" y="280.610809" style="stroke: #000000; stroke-linejoin: miter"/>
     <use xlink:href="#me3c93179df" x="606.39137" y="311.376255" style="stroke: #000000; stroke-linejoin: miter"/>
     <use xlink:href="#me3c93179df" x="632.622139" y="323.668851" style="stroke: #000000; stroke-linejoin: miter"/>
     <use xlink:href="#me3c93179df" x="737.545216" y="340.783404" style="stroke: #000000; stroke-linejoin: miter"/>
     <use xlink:href="#me3c93179df" x="842.468293" y="346.55617" style="stroke: #000000; stroke-linejoin: miter"/>
    </g>
   </g>
   <g id="line2d_42">
    <path d="M 532.027139 270.423574 
L 536.48637 144.781021 
L 540.814447 62.604 
L 553.929832 120.33166 
L 567.045216 188.246553 
L 580.160601 220.845702 
L 606.39137 266.348681 
L 632.622139 324.07634 
L 685.083678 325.502553 
L 737.545216 329.577447 
L 842.468293 341.122979 
" clip-path="url(#pdef922d08c)" style="fill: none; stroke-dasharray: 3.7,1.6; stroke-dashoffset: 0; stroke: #000000"/>
    <g clip-path="url(#pdef922d08c)">
     <use xlink:href="#m73d2bab897" x="532.027139" y="270.423574" style="stroke: #000000; stroke-linejoin: bevel"/>
     <use xlink:href="#m73d2bab897" x="536.48637" y="144.781021" style="stroke: #000000; stroke-linejoin: bevel"/>
     <use xlink:href="#m73d2bab897" x="540.814447" y="62.604" style="stroke: #000000; stroke-linejoin: bevel"/>
     <use xlink:href="#m73d2bab897" x="553.929832" y="120.33166" style="stroke: #000000; stroke-linejoin: bevel"/>
     <use xlink:href="#m73d2bab897" x="567.045216" y="188.246553" style="stroke: #000000; stroke-linejoin: bevel"/>
     <use xlink:href="#m73d2bab897" x="580.160601" y="220.845702" style="stroke: #000000; stroke-linejoin: bevel"/>
     <use xlink:href="#m73d2bab897" x="606.39137" y="266.348681" style="stroke: #000000; stroke-linejoin: bevel"/>
     <use xlink:href="#m73d2bab897" x="632.622139" y="324.07634" style="stroke: #000000; stroke-linejoin: bevel"/>
     <use xlink:href="#m73d2bab897" x="685.083678" y="325.502553" style="stroke: #000000; stroke-linejoin: bevel"/>
     <use xlink:href="#m73d2bab897" x="737.545216" y="329.577447" style="stroke: #000000; stroke-linejoin: bevel"/>
     <use xlink:href="#m73d2bab897" x="842.468293" y="341.122979" style="stroke: #000000; stroke-linejoin: bevel"/>
    </g>
   </g>
   <g id="line2d_43">
    <path d="M 532.027139 277.140357 
L 536.48637 191.750962 
L 540.814447 155.301038 
L 553.929832 147.443285 
L 567.045216 216.601021 
L 580.160601 242.388306 
L 606.39137 281.12017 
L 632.622139 307.600187 
L 685.083678 323.98126 
L 737.545216 335.621872 
L 842.468293 344.118026 
" clip-path="url(#pdef922d08c)" style="fill: none; stroke-dasharray: 3.7,1.6; stroke-dashoffset: 0; stroke: #000000"/>
    <g clip-path="url(#pdef922d08c)">
     <use xlink:href="#m0ec3b02bf4" x="532.027139" y="277.140357" style="stroke: #000000; stroke-linejoin: miter"/>
     <use xlink:href="#m0ec3b02bf4" x="536.48637" y="191.750962" style="stroke: #000000; stroke-linejoin: miter"/>
     <use xlink:href="#m0ec3b02bf4" x="540.814447" y="155.301038" style="stroke: #000000; stroke-linejoin: miter"/>
     <use xlink:href="#m0ec3b02bf4" x="553.929832" y="147.443285" style="stroke: #000000; stroke-linejoin: miter"/>
     <use xlink:href="#m0ec3b02bf4" x="567.045216" y="216.601021" style="stroke: #000000; stroke-linejoin: miter"/>
     <use xlink:href="#m0ec3b02bf4" x="580.160601" y="242.388306" style="stroke: #000000; stroke-linejoin: miter"/>
     <use xlink:href="#m0ec3b02bf4" x="606.39137" y="281.12017" style="stroke: #000000; stroke-linejoin: miter"/>
     <use xlink:href="#m0ec3b02bf4" x="632.622139" y="307.600187" style="stroke: #000000; stroke-linejoin: miter"/>
     <use xlink:href="#m0ec3b02bf4" x="685.083678" y="323.98126" style="stroke: #000000; stroke-linejoin: miter"/>
     <use xlink:href="#m0ec3b02bf4" x="737.545216" y="335.621872" style="stroke: #000000; stroke-linejoin: miter"/>
     <use xlink:href="#m0ec3b02bf4" x="842.468293" y="344.118026" style="stroke: #000000; stroke-linejoin: miter"/>
    </g>
   </g>
   <g id="patch_9">
    <path d="M 510.649063 364.248 
L 510.649063 48.24 
" style="fill: none; stroke: #000000; stroke-width: 0.8; stroke-linejoin: miter; stroke-linecap: square"/>
   </g>
   <g id="patch_10">
    <path d="M 868.699063 364.248 
L 868.699063 48.24 
" style="fill: none; stroke: #000000; stroke-width: 0.8; stroke-linejoin: miter; stroke-linecap: square"/>
   </g>
   <g id="patch_11">
    <path d="M 510.649063 364.248 
L 868.699063 364.248 
" style="fill: none; stroke: #000000; stroke-width: 0.8; stroke-linejoin: miter; stroke-linecap: square"/>
   </g>
   <g id="patch_12">
    <path d="M 510.649063 48.24 
L 868.699063 48.24 
" style="fill: none; stroke: #000000; stroke-width: 0.8; stroke-linejoin: miter; stroke-linecap: square"/>
   </g>
   <g id="legend_2">
    <g id="patch_13">
     <path d="M 676.936563 114.9525 
L 861.699063 114.9525 
Q 863.699063 114.9525 863.699063 112.9525 
L 863.699063 55.24 
Q 863.699063 53.24 861.699063 53.24 
L 676.936563 53.24 
Q 674.936563 53.24 674.936563 55.24 
L 674.936563 112.9525 
Q 674.936563 114.9525 676.936563 114.9525 
z
" style="fill: #ffffff; opacity: 0.8; stroke: #cccccc; stroke-linejoin: miter"/>
    </g>
    <g id="line2d_44">
     <path d="M 678.936563 61.338437 
L 698.936563 61.338437 
" style="fill: none; stroke: #000000; stroke-width: 2; stroke-linecap: square"/>
    </g>
    <g id="line2d_45"/>
    <g id="text_36">
     <!-- sim all: 100mg PO -->
     <g transform="translate(706.936563 64.838437) scale(0.1 -0.1)">
      <use xlink:href="#DejaVuSans-73"/>
      <use xlink:href="#DejaVuSans-69" transform="translate(52.099609 0)"/>
      <use xlink:href="#DejaVuSans-6d" transform="translate(79.882812 0)"/>
      <use xlink:href="#DejaVuSans-20" transform="translate(177.294922 0)"/>
      <use xlink:href="#DejaVuSans-61" transform="translate(209.082031 0)"/>
      <use xlink:href="#DejaVuSans-6c" transform="translate(270.361328 0)"/>
      <use xlink:href="#DejaVuSans-6c" transform="translate(298.144531 0)"/>
      <use xlink:href="#DejaVuSans-3a" transform="translate(325.927734 0)"/>
      <use xlink:href="#DejaVuSans-20" transform="translate(359.619141 0)"/>
      <use xlink:href="#DejaVuSans-31" transform="translate(391.40625 0)"/>
      <use xlink:href="#DejaVuSans-30" transform="translate(455.029297 0)"/>
      <use xlink:href="#DejaVuSans-30" transform="translate(518.652344 0)"/>
      <use xlink:href="#DejaVuSans-6d" transform="translate(582.275391 0)"/>
      <use xlink:href="#DejaVuSans-67" transform="translate(679.6875 0)"/>
      <use xlink:href="#DejaVuSans-20" transform="translate(743.164062 0)"/>
      <use xlink:href="#DejaVuSans-50" transform="translate(774.951172 0)"/>
      <use xlink:href="#DejaVuSans-4f" transform="translate(835.253906 0)"/>
     </g>
    </g>
    <g id="line2d_46">
     <path d="M 678.936563 76.016562 
L 698.936563 76.016562 
" style="fill: none; stroke-dasharray: 3.7,1.6; stroke-dashoffset: 0; stroke: #000000"/>
    </g>
    <g id="line2d_47">
     <g>
      <use xlink:href="#me3c93179df" x="688.936563" y="76.016562" style="stroke: #000000; stroke-linejoin: miter"/>
     </g>
    </g>
    <g id="text_37">
     <!-- exp I1: 100mg PO (n=1) -->
     <g transform="translate(706.936563 79.516562) scale(0.1 -0.1)">
      <use xlink:href="#DejaVuSans-65"/>
      <use xlink:href="#DejaVuSans-78" transform="translate(59.773438 0)"/>
      <use xlink:href="#DejaVuSans-70" transform="translate(118.953125 0)"/>
      <use xlink:href="#DejaVuSans-20" transform="translate(182.429688 0)"/>
      <use xlink:href="#DejaVuSans-49" transform="translate(214.216797 0)"/>
      <use xlink:href="#DejaVuSans-31" transform="translate(243.708984 0)"/>
      <use xlink:href="#DejaVuSans-3a" transform="translate(307.332031 0)"/>
      <use xlink:href="#DejaVuSans-20" transform="translate(341.023438 0)"/>
      <use xlink:href="#DejaVuSans-31" transform="translate(372.810547 0)"/>
      <use xlink:href="#DejaVuSans-30" transform="translate(436.433594 0)"/>
      <use xlink:href="#DejaVuSans-30" transform="translate(500.056641 0)"/>
      <use xlink:href="#DejaVuSans-6d" transform="translate(563.679688 0)"/>
      <use xlink:href="#DejaVuSans-67" transform="translate(661.091797 0)"/>
      <use xlink:href="#DejaVuSans-20" transform="translate(724.568359 0)"/>
      <use xlink:href="#DejaVuSans-50" transform="translate(756.355469 0)"/>
      <use xlink:href="#DejaVuSans-4f" transform="translate(816.658203 0)"/>
      <use xlink:href="#DejaVuSans-20" transform="translate(895.369141 0)"/>
      <use xlink:href="#DejaVuSans-28" transform="translate(927.15625 0)"/>
      <use xlink:href="#DejaVuSans-6e" transform="translate(966.169922 0)"/>
      <use xlink:href="#DejaVuSans-3d" transform="translate(1029.548828 0)"/>
      <use xlink:href="#DejaVuSans-31" transform="translate(1113.337891 0)"/>
      <use xlink:href="#DejaVuSans-29" transform="translate(1176.960938 0)"/>
     </g>
    </g>
    <g id="line2d_48">
     <path d="M 678.936563 90.694687 
L 698.936563 90.694687 
" style="fill: none; stroke-dasharray: 3.7,1.6; stroke-dashoffset: 0; stroke: #000000"/>
    </g>
    <g id="line2d_49">
     <g>
      <use xlink:href="#m73d2bab897" x="688.936563" y="90.694687" style="stroke: #000000; stroke-linejoin: bevel"/>
     </g>
    </g>
    <g id="text_38">
     <!-- exp I5: 100mg PO (n=1) -->
     <g transform="translate(706.936563 94.194687) scale(0.1 -0.1)">
      <use xlink:href="#DejaVuSans-65"/>
      <use xlink:href="#DejaVuSans-78" transform="translate(59.773438 0)"/>
      <use xlink:href="#DejaVuSans-70" transform="translate(118.953125 0)"/>
      <use xlink:href="#DejaVuSans-20" transform="translate(182.429688 0)"/>
      <use xlink:href="#DejaVuSans-49" transform="translate(214.216797 0)"/>
      <use xlink:href="#DejaVuSans-35" transform="translate(243.708984 0)"/>
      <use xlink:href="#DejaVuSans-3a" transform="translate(307.332031 0)"/>
      <use xlink:href="#DejaVuSans-20" transform="translate(341.023438 0)"/>
      <use xlink:href="#DejaVuSans-31" transform="translate(372.810547 0)"/>
      <use xlink:href="#DejaVuSans-30" transform="translate(436.433594 0)"/>
      <use xlink:href="#DejaVuSans-30" transform="translate(500.056641 0)"/>
      <use xlink:href="#DejaVuSans-6d" transform="translate(563.679688 0)"/>
      <use xlink:href="#DejaVuSans-67" transform="translate(661.091797 0)"/>
      <use xlink:href="#DejaVuSans-20" transform="translate(724.568359 0)"/>
      <use xlink:href="#DejaVuSans-50" transform="translate(756.355469 0)"/>
      <use xlink:href="#DejaVuSans-4f" transform="translate(816.658203 0)"/>
      <use xlink:href="#DejaVuSans-20" transform="translate(895.369141 0)"/>
      <use xlink:href="#DejaVuSans-28" transform="translate(927.15625 0)"/>
      <use xlink:href="#DejaVuSans-6e" transform="translate(966.169922 0)"/>
      <use xlink:href="#DejaVuSans-3d" transform="translate(1029.548828 0)"/>
      <use xlink:href="#DejaVuSans-31" transform="translate(1113.337891 0)"/>
      <use xlink:href="#DejaVuSans-29" transform="translate(1176.960938 0)"/>
     </g>
    </g>
    <g id="LineCollection_4">
     <path d="M 688.936563 110.372812 
L 688.936563 100.372812 
" style="fill: none; stroke: #000000"/>
    </g>
    <g id="line2d_50">
     <path d="M 678.936563 105.372812 
L 698.936563 105.372812 
" style="fill: none; stroke-dasharray: 3.7,1.6; stroke-dashoffset: 0; stroke: #000000"/>
    </g>
    <g id="line2d_51">
     <g>
      <use xlink:href="#m0ec3b02bf4" x="688.936563" y="105.372812" style="stroke: #000000; stroke-linejoin: miter"/>
     </g>
    </g>
    <g id="text_39">
     <!-- exp all: 100mg PO±SD (n=12) -->
     <g transform="translate(706.936563 108.872812) scale(0.1 -0.1)">
      <use xlink:href="#DejaVuSans-65"/>
      <use xlink:href="#DejaVuSans-78" transform="translate(59.773438 0)"/>
      <use xlink:href="#DejaVuSans-70" transform="translate(118.953125 0)"/>
      <use xlink:href="#DejaVuSans-20" transform="translate(182.429688 0)"/>
      <use xlink:href="#DejaVuSans-61" transform="translate(214.216797 0)"/>
      <use xlink:href="#DejaVuSans-6c" transform="translate(275.496094 0)"/>
      <use xlink:href="#DejaVuSans-6c" transform="translate(303.279297 0)"/>
      <use xlink:href="#DejaVuSans-3a" transform="translate(331.0625 0)"/>
      <use xlink:href="#DejaVuSans-20" transform="translate(364.753906 0)"/>
      <use xlink:href="#DejaVuSans-31" transform="translate(396.541016 0)"/>
      <use xlink:href="#DejaVuSans-30" transform="translate(460.164062 0)"/>
      <use xlink:href="#DejaVuSans-30" transform="translate(523.787109 0)"/>
      <use xlink:href="#DejaVuSans-6d" transform="translate(587.410156 0)"/>
      <use xlink:href="#DejaVuSans-67" transform="translate(684.822266 0)"/>
      <use xlink:href="#DejaVuSans-20" transform="translate(748.298828 0)"/>
      <use xlink:href="#DejaVuSans-50" transform="translate(780.085938 0)"/>
      <use xlink:href="#DejaVuSans-4f" transform="translate(840.388672 0)"/>
      <use xlink:href="#DejaVuSans-b1" transform="translate(919.099609 0)"/>
      <use xlink:href="#DejaVuSans-53" transform="translate(1002.888672 0)"/>
      <use xlink:href="#DejaVuSans-44" transform="translate(1066.365234 0)"/>
      <use xlink:href="#DejaVuSans-20" transform="translate(1143.367188 0)"/>
      <use xlink:href="#DejaVuSans-28" transform="translate(1175.154297 0)"/>
      <use xlink:href="#DejaVuSans-6e" transform="translate(1214.167969 0)"/>
      <use xlink:href="#DejaVuSans-3d" transform="translate(1277.546875 0)"/>
      <use xlink:href="#DejaVuSans-31" transform="translate(1361.335938 0)"/>
      <use xlink:href="#DejaVuSans-32" transform="translate(1424.958984 0)"/>
      <use xlink:href="#DejaVuSans-29" transform="translate(1488.582031 0)"/>
     </g>
    </g>
   </g>
  </g>
  <g id="axes_3">
   <g id="patch_14">
    <path d="M 976.114063 364.248 
L 1334.164063 364.248 
L 1334.164063 48.24 
L 976.114063 48.24 
z
" style="fill: #ffffff"/>
   </g>
   <g id="matplotlib.axis_5">
    <g id="xtick_13">
     <g id="line2d_52">
      <g>
       <use xlink:href="#meda7461c96" x="993.164063" y="364.248" style="stroke: #000000; stroke-width: 0.8"/>
      </g>
     </g>
     <g id="text_40">
      <!-- 0 -->
      <g transform="translate(988.392188 382.645656) scale(0.15 -0.15)">
       <use xlink:href="#DejaVuSans-30"/>
      </g>
     </g>
    </g>
    <g id="xtick_14">
     <g id="line2d_53">
      <g>
       <use xlink:href="#meda7461c96" x="1058.740986" y="364.248" style="stroke: #000000; stroke-width: 0.8"/>
      </g>
     </g>
     <g id="text_41">
      <!-- 5 -->
      <g transform="translate(1053.969111 382.645656) scale(0.15 -0.15)">
       <use xlink:href="#DejaVuSans-35"/>
      </g>
     </g>
    </g>
    <g id="xtick_15">
     <g id="line2d_54">
      <g>
       <use xlink:href="#meda7461c96" x="1124.317909" y="364.248" style="stroke: #000000; stroke-width: 0.8"/>
      </g>
     </g>
     <g id="text_42">
      <!-- 10 -->
      <g transform="translate(1114.774159 382.645656) scale(0.15 -0.15)">
       <use xlink:href="#DejaVuSans-31"/>
       <use xlink:href="#DejaVuSans-30" transform="translate(63.623047 0)"/>
      </g>
     </g>
    </g>
    <g id="xtick_16">
     <g id="line2d_55">
      <g>
       <use xlink:href="#meda7461c96" x="1189.894832" y="364.248" style="stroke: #000000; stroke-width: 0.8"/>
      </g>
     </g>
     <g id="text_43">
      <!-- 15 -->
      <g transform="translate(1180.351082 382.645656) scale(0.15 -0.15)">
       <use xlink:href="#DejaVuSans-31"/>
       <use xlink:href="#DejaVuSans-35" transform="translate(63.623047 0)"/>
      </g>
     </g>
    </g>
    <g id="xtick_17">
     <g id="line2d_56">
      <g>
       <use xlink:href="#meda7461c96" x="1255.471755" y="364.248" style="stroke: #000000; stroke-width: 0.8"/>
      </g>
     </g>
     <g id="text_44">
      <!-- 20 -->
      <g transform="translate(1245.928005 382.645656) scale(0.15 -0.15)">
       <use xlink:href="#DejaVuSans-32"/>
       <use xlink:href="#DejaVuSans-30" transform="translate(63.623047 0)"/>
      </g>
     </g>
    </g>
    <g id="xtick_18">
     <g id="line2d_57">
      <g>
       <use xlink:href="#meda7461c96" x="1321.048678" y="364.248" style="stroke: #000000; stroke-width: 0.8"/>
      </g>
     </g>
     <g id="text_45">
      <!-- 25 -->
      <g transform="translate(1311.504928 382.645656) scale(0.15 -0.15)">
       <use xlink:href="#DejaVuSans-32"/>
       <use xlink:href="#DejaVuSans-35" transform="translate(63.623047 0)"/>
      </g>
     </g>
    </g>
    <g id="text_46">
     <!-- time [hr] -->
     <g transform="translate(1110.064531 403.442375) scale(0.18 -0.18)">
      <use xlink:href="#DejaVuSans-Bold-74"/>
      <use xlink:href="#DejaVuSans-Bold-69" transform="translate(47.802734 0)"/>
      <use xlink:href="#DejaVuSans-Bold-6d" transform="translate(82.080078 0)"/>
      <use xlink:href="#DejaVuSans-Bold-65" transform="translate(186.279297 0)"/>
      <use xlink:href="#DejaVuSans-Bold-20" transform="translate(254.101562 0)"/>
      <use xlink:href="#DejaVuSans-Bold-5b" transform="translate(288.916016 0)"/>
      <use xlink:href="#DejaVuSans-Bold-68" transform="translate(334.619141 0)"/>
      <use xlink:href="#DejaVuSans-Bold-72" transform="translate(405.810547 0)"/>
      <use xlink:href="#DejaVuSans-Bold-5d" transform="translate(455.126953 0)"/>
     </g>
    </g>
   </g>
   <g id="matplotlib.axis_6">
    <g id="ytick_16">
     <g id="line2d_58">
      <g>
       <use xlink:href="#m1aed9c88a3" x="976.114063" y="349.884" style="stroke: #000000; stroke-width: 0.8"/>
      </g>
     </g>
     <g id="text_47">
      <!-- 0.0 -->
      <g transform="translate(945.259375 355.582828) scale(0.15 -0.15)">
       <defs>
        <path id="DejaVuSans-2e" d="M 684 794 
L 1344 794 
L 1344 0 
L 684 0 
L 684 794 
z
" transform="scale(0.015625)"/>
       </defs>
       <use xlink:href="#DejaVuSans-30"/>
       <use xlink:href="#DejaVuSans-2e" transform="translate(63.623047 0)"/>
       <use xlink:href="#DejaVuSans-30" transform="translate(95.410156 0)"/>
      </g>
     </g>
    </g>
    <g id="ytick_17">
     <g id="line2d_59">
      <g>
       <use xlink:href="#m1aed9c88a3" x="976.114063" y="308.697236" style="stroke: #000000; stroke-width: 0.8"/>
      </g>
     </g>
     <g id="text_48">
      <!-- 0.2 -->
      <g transform="translate(945.259375 314.396064) scale(0.15 -0.15)">
       <use xlink:href="#DejaVuSans-30"/>
       <use xlink:href="#DejaVuSans-2e" transform="translate(63.623047 0)"/>
       <use xlink:href="#DejaVuSans-32" transform="translate(95.410156 0)"/>
      </g>
     </g>
    </g>
    <g id="ytick_18">
     <g id="line2d_60">
      <g>
       <use xlink:href="#m1aed9c88a3" x="976.114063" y="267.510473" style="stroke: #000000; stroke-width: 0.8"/>
      </g>
     </g>
     <g id="text_49">
      <!-- 0.4 -->
      <g transform="translate(945.259375 273.209301) scale(0.15 -0.15)">
       <use xlink:href="#DejaVuSans-30"/>
       <use xlink:href="#DejaVuSans-2e" transform="translate(63.623047 0)"/>
       <use xlink:href="#DejaVuSans-34" transform="translate(95.410156 0)"/>
      </g>
     </g>
    </g>
    <g id="ytick_19">
     <g id="line2d_61">
      <g>
       <use xlink:href="#m1aed9c88a3" x="976.114063" y="226.323709" style="stroke: #000000; stroke-width: 0.8"/>
      </g>
     </g>
     <g id="text_50">
      <!-- 0.6 -->
      <g transform="translate(945.259375 232.022537) scale(0.15 -0.15)">
       <use xlink:href="#DejaVuSans-30"/>
       <use xlink:href="#DejaVuSans-2e" transform="translate(63.623047 0)"/>
       <use xlink:href="#DejaVuSans-36" transform="translate(95.410156 0)"/>
      </g>
     </g>
    </g>
    <g id="ytick_20">
     <g id="line2d_62">
      <g>
       <use xlink:href="#m1aed9c88a3" x="976.114063" y="185.136945" style="stroke: #000000; stroke-width: 0.8"/>
      </g>
     </g>
     <g id="text_51">
      <!-- 0.8 -->
      <g transform="translate(945.259375 190.835773) scale(0.15 -0.15)">
       <use xlink:href="#DejaVuSans-30"/>
       <use xlink:href="#DejaVuSans-2e" transform="translate(63.623047 0)"/>
       <use xlink:href="#DejaVuSans-38" transform="translate(95.410156 0)"/>
      </g>
     </g>
    </g>
    <g id="ytick_21">
     <g id="line2d_63">
      <g>
       <use xlink:href="#m1aed9c88a3" x="976.114063" y="143.950182" style="stroke: #000000; stroke-width: 0.8"/>
      </g>
     </g>
     <g id="text_52">
      <!-- 1.0 -->
      <g transform="translate(945.259375 149.64901) scale(0.15 -0.15)">
       <use xlink:href="#DejaVuSans-31"/>
       <use xlink:href="#DejaVuSans-2e" transform="translate(63.623047 0)"/>
       <use xlink:href="#DejaVuSans-30" transform="translate(95.410156 0)"/>
      </g>
     </g>
    </g>
    <g id="ytick_22">
     <g id="line2d_64">
      <g>
       <use xlink:href="#m1aed9c88a3" x="976.114063" y="102.763418" style="stroke: #000000; stroke-width: 0.8"/>
      </g>
     </g>
     <g id="text_53">
      <!-- 1.2 -->
      <g transform="translate(945.259375 108.462246) scale(0.15 -0.15)">
       <use xlink:href="#DejaVuSans-31"/>
       <use xlink:href="#DejaVuSans-2e" transform="translate(63.623047 0)"/>
       <use xlink:href="#DejaVuSans-32" transform="translate(95.410156 0)"/>
      </g>
     </g>
    </g>
    <g id="ytick_23">
     <g id="line2d_65">
      <g>
       <use xlink:href="#m1aed9c88a3" x="976.114063" y="61.576654" style="stroke: #000000; stroke-width: 0.8"/>
      </g>
     </g>
     <g id="text_54">
      <!-- 1.4 -->
      <g transform="translate(945.259375 67.275482) scale(0.15 -0.15)">
       <use xlink:href="#DejaVuSans-31"/>
       <use xlink:href="#DejaVuSans-2e" transform="translate(63.623047 0)"/>
       <use xlink:href="#DejaVuSans-34" transform="translate(95.410156 0)"/>
      </g>
     </g>
    </g>
    <g id="text_55">
     <!-- s-methyl captopril [µM] -->
     <g transform="translate(937.375313 325.936969) rotate(-90) scale(0.18 -0.18)">
      <defs>
       <path id="DejaVuSans-Bold-2d" d="M 347 2297 
L 2309 2297 
L 2309 1388 
L 347 1388 
L 347 2297 
z
" transform="scale(0.015625)"/>
       <path id="DejaVuSans-Bold-79" d="M 78 3500 
L 1197 3500 
L 2138 1125 
L 2938 3500 
L 4056 3500 
L 2584 -331 
Q 2363 -916 2067 -1148 
Q 1772 -1381 1288 -1381 
L 641 -1381 
L 641 -647 
L 991 -647 
Q 1275 -647 1404 -556 
Q 1534 -466 1606 -231 
L 1638 -134 
L 78 3500 
z
" transform="scale(0.015625)"/>
      </defs>
      <use xlink:href="#DejaVuSans-Bold-73"/>
      <use xlink:href="#DejaVuSans-Bold-2d" transform="translate(59.521484 0)"/>
      <use xlink:href="#DejaVuSans-Bold-6d" transform="translate(101.025391 0)"/>
      <use xlink:href="#DejaVuSans-Bold-65" transform="translate(205.224609 0)"/>
      <use xlink:href="#DejaVuSans-Bold-74" transform="translate(273.046875 0)"/>
      <use xlink:href="#DejaVuSans-Bold-68" transform="translate(320.849609 0)"/>
      <use xlink:href="#DejaVuSans-Bold-79" transform="translate(392.041016 0)"/>
      <use xlink:href="#DejaVuSans-Bold-6c" transform="translate(457.226562 0)"/>
      <use xlink:href="#DejaVuSans-Bold-20" transform="translate(491.503906 0)"/>
      <use xlink:href="#DejaVuSans-Bold-63" transform="translate(526.318359 0)"/>
      <use xlink:href="#DejaVuSans-Bold-61" transform="translate(585.595703 0)"/>
      <use xlink:href="#DejaVuSans-Bold-70" transform="translate(653.076172 0)"/>
      <use xlink:href="#DejaVuSans-Bold-74" transform="translate(724.658203 0)"/>
      <use xlink:href="#DejaVuSans-Bold-6f" transform="translate(772.460938 0)"/>
      <use xlink:href="#DejaVuSans-Bold-70" transform="translate(841.162109 0)"/>
      <use xlink:href="#DejaVuSans-Bold-72" transform="translate(912.744141 0)"/>
      <use xlink:href="#DejaVuSans-Bold-69" transform="translate(962.060547 0)"/>
      <use xlink:href="#DejaVuSans-Bold-6c" transform="translate(996.337891 0)"/>
      <use xlink:href="#DejaVuSans-Bold-20" transform="translate(1030.615234 0)"/>
      <use xlink:href="#DejaVuSans-Bold-5b" transform="translate(1065.429688 0)"/>
      <use xlink:href="#DejaVuSans-Bold-b5" transform="translate(1111.132812 0)"/>
      <use xlink:href="#DejaVuSans-Bold-4d" transform="translate(1184.716797 0)"/>
      <use xlink:href="#DejaVuSans-Bold-5d" transform="translate(1284.228516 0)"/>
     </g>
    </g>
   </g>
   <g id="line2d_66">
    <path d="M 993.164063 349.884 
L 994.016563 344.029101 
L 994.869063 330.781882 
L 996.574063 296.326598 
L 999.984063 223.617626 
L 1001.689063 191.227263 
L 1003.394063 162.854466 
L 1005.099063 138.68258 
L 1006.804063 118.577122 
L 1008.509063 102.241626 
L 1010.214063 89.308549 
L 1011.066563 83.996931 
L 1011.919063 79.391202 
L 1012.771563 75.44471 
L 1013.624063 72.11238 
L 1014.476563 69.350956 
L 1015.329063 67.119154 
L 1016.181563 65.377744 
L 1017.034063 64.089578 
L 1017.886563 63.219587 
L 1018.739063 62.734742 
L 1019.591563 62.604 
L 1020.444063 62.79824 
L 1021.296563 63.290179 
L 1022.149063 64.054296 
L 1023.001563 65.06674 
L 1023.854063 66.305248 
L 1025.559063 69.378821 
L 1027.264063 73.125415 
L 1028.969063 77.415534 
L 1031.526563 84.629645 
L 1034.936563 95.232989 
L 1040.051563 112.155833 
L 1047.724063 137.50836 
L 1051.986563 150.830409 
L 1056.249063 163.343924 
L 1059.659063 172.708765 
L 1063.069063 181.47854 
L 1066.479063 189.653186 
L 1069.889063 197.245073 
L 1073.299063 204.275031 
L 1076.709063 210.76939 
L 1080.119063 216.757787 
L 1083.529063 222.271558 
L 1086.939063 227.342582 
L 1090.349063 232.002449 
L 1093.759063 236.281892 
L 1097.169063 240.210397 
L 1100.579063 243.815967 
L 1103.989063 247.124975 
L 1107.399063 250.162104 
L 1110.809063 252.950335 
L 1115.071563 256.117919 
L 1119.334063 258.96786 
L 1123.596563 261.534515 
L 1127.859063 263.848778 
L 1132.121563 265.938353 
L 1137.236563 268.183967 
L 1142.351563 270.179437 
L 1147.466563 271.957753 
L 1153.434063 273.79608 
L 1159.401563 275.416945 
L 1166.221563 277.045469 
L 1173.894063 278.641187 
L 1182.419063 280.17674 
L 1191.796563 281.637547 
L 1202.879063 283.127157 
L 1215.666563 284.609662 
L 1231.011563 286.152502 
L 1249.766563 287.80422 
L 1273.636563 289.673897 
L 1305.179063 291.911752 
L 1334.164063 293.828317 
L 1334.164063 293.828317 
" clip-path="url(#p05e3e74612)" style="fill: none; stroke: #000000; stroke-width: 2; stroke-linecap: square"/>
   </g>
   <g id="line2d_67">
    <path d="M 997.492139 345.076207 
L 1001.95137 313.113284 
L 1006.279447 301.271866 
L 1019.394832 307.504191 
L 1032.510216 325.399867 
L 1045.625601 328.694096 
L 1071.85637 340.624546 
L 1098.087139 342.40521 
L 1150.548678 347.569136 
L 1307.933293 343.028443 
" clip-path="url(#p05e3e74612)" style="fill: none; stroke-dasharray: 3.7,1.6; stroke-dashoffset: 0; stroke: #000000"/>
    <g clip-path="url(#p05e3e74612)">
     <use xlink:href="#me3c93179df" x="997.492139" y="345.076207" style="stroke: #000000; stroke-linejoin: miter"/>
     <use xlink:href="#me3c93179df" x="1001.95137" y="313.113284" style="stroke: #000000; stroke-linejoin: miter"/>
     <use xlink:href="#me3c93179df" x="1006.279447" y="301.271866" style="stroke: #000000; stroke-linejoin: miter"/>
     <use xlink:href="#me3c93179df" x="1019.394832" y="307.504191" style="stroke: #000000; stroke-linejoin: miter"/>
     <use xlink:href="#me3c93179df" x="1032.510216" y="325.399867" style="stroke: #000000; stroke-linejoin: miter"/>
     <use xlink:href="#me3c93179df" x="1045.625601" y="328.694096" style="stroke: #000000; stroke-linejoin: miter"/>
     <use xlink:href="#me3c93179df" x="1071.85637" y="340.624546" style="stroke: #000000; stroke-linejoin: miter"/>
     <use xlink:href="#me3c93179df" x="1098.087139" y="342.40521" style="stroke: #000000; stroke-linejoin: miter"/>
     <use xlink:href="#me3c93179df" x="1150.548678" y="347.569136" style="stroke: #000000; stroke-linejoin: miter"/>
     <use xlink:href="#me3c93179df" x="1307.933293" y="343.028443" style="stroke: #000000; stroke-linejoin: miter"/>
    </g>
   </g>
   <g id="line2d_68">
    <path d="M 997.492139 335.549653 
L 1001.95137 317.475911 
L 1006.279447 280.438095 
L 1019.394832 283.287158 
L 1032.510216 308.750656 
L 1045.625601 318.54431 
L 1071.85637 328.694096 
L 1098.087139 341.158745 
L 1150.548678 342.939409 
L 1307.933293 349.884 
" clip-path="url(#p05e3e74612)" style="fill: none; stroke-dasharray: 3.7,1.6; stroke-dashoffset: 0; stroke: #000000"/>
    <g clip-path="url(#p05e3e74612)">
     <use xlink:href="#m73d2bab897" x="997.492139" y="335.549653" style="stroke: #000000; stroke-linejoin: bevel"/>
     <use xlink:href="#m73d2bab897" x="1001.95137" y="317.475911" style="stroke: #000000; stroke-linejoin: bevel"/>
     <use xlink:href="#m73d2bab897" x="1006.279447" y="280.438095" style="stroke: #000000; stroke-linejoin: bevel"/>
     <use xlink:href="#m73d2bab897" x="1019.394832" y="283.287158" style="stroke: #000000; stroke-linejoin: bevel"/>
     <use xlink:href="#m73d2bab897" x="1032.510216" y="308.750656" style="stroke: #000000; stroke-linejoin: bevel"/>
     <use xlink:href="#m73d2bab897" x="1045.625601" y="318.54431" style="stroke: #000000; stroke-linejoin: bevel"/>
     <use xlink:href="#m73d2bab897" x="1071.85637" y="328.694096" style="stroke: #000000; stroke-linejoin: bevel"/>
     <use xlink:href="#m73d2bab897" x="1098.087139" y="341.158745" style="stroke: #000000; stroke-linejoin: bevel"/>
     <use xlink:href="#m73d2bab897" x="1150.548678" y="342.939409" style="stroke: #000000; stroke-linejoin: bevel"/>
     <use xlink:href="#m73d2bab897" x="1307.933293" y="349.884" style="stroke: #000000; stroke-linejoin: bevel"/>
    </g>
   </g>
   <g id="patch_15">
    <path d="M 976.114063 364.248 
L 976.114063 48.24 
" style="fill: none; stroke: #000000; stroke-width: 0.8; stroke-linejoin: miter; stroke-linecap: square"/>
   </g>
   <g id="patch_16">
    <path d="M 1334.164063 364.248 
L 1334.164063 48.24 
" style="fill: none; stroke: #000000; stroke-width: 0.8; stroke-linejoin: miter; stroke-linecap: square"/>
   </g>
   <g id="patch_17">
    <path d="M 976.114063 364.248 
L 1334.164063 364.248 
" style="fill: none; stroke: #000000; stroke-width: 0.8; stroke-linejoin: miter; stroke-linecap: square"/>
   </g>
   <g id="patch_18">
    <path d="M 976.114063 48.24 
L 1334.164063 48.24 
" style="fill: none; stroke: #000000; stroke-width: 0.8; stroke-linejoin: miter; stroke-linecap: square"/>
   </g>
   <g id="legend_3">
    <g id="patch_19">
     <path d="M 1173.564063 100.274375 
L 1327.164063 100.274375 
Q 1329.164063 100.274375 1329.164063 98.274375 
L 1329.164063 55.24 
Q 1329.164063 53.24 1327.164063 53.24 
L 1173.564063 53.24 
Q 1171.564063 53.24 1171.564063 55.24 
L 1171.564063 98.274375 
Q 1171.564063 100.274375 1173.564063 100.274375 
z
" style="fill: #ffffff; opacity: 0.8; stroke: #cccccc; stroke-linejoin: miter"/>
    </g>
    <g id="line2d_69">
     <path d="M 1175.564063 61.338437 
L 1195.564063 61.338437 
" style="fill: none; stroke: #000000; stroke-width: 2; stroke-linecap: square"/>
    </g>
    <g id="line2d_70"/>
    <g id="text_56">
     <!-- sim all: 100mg PO -->
     <g transform="translate(1203.564063 64.838437) scale(0.1 -0.1)">
      <use xlink:href="#DejaVuSans-73"/>
      <use xlink:href="#DejaVuSans-69" transform="translate(52.099609 0)"/>
      <use xlink:href="#DejaVuSans-6d" transform="translate(79.882812 0)"/>
      <use xlink:href="#DejaVuSans-20" transform="translate(177.294922 0)"/>
      <use xlink:href="#DejaVuSans-61" transform="translate(209.082031 0)"/>
      <use xlink:href="#DejaVuSans-6c" transform="translate(270.361328 0)"/>
      <use xlink:href="#DejaVuSans-6c" transform="translate(298.144531 0)"/>
      <use xlink:href="#DejaVuSans-3a" transform="translate(325.927734 0)"/>
      <use xlink:href="#DejaVuSans-20" transform="translate(359.619141 0)"/>
      <use xlink:href="#DejaVuSans-31" transform="translate(391.40625 0)"/>
      <use xlink:href="#DejaVuSans-30" transform="translate(455.029297 0)"/>
      <use xlink:href="#DejaVuSans-30" transform="translate(518.652344 0)"/>
      <use xlink:href="#DejaVuSans-6d" transform="translate(582.275391 0)"/>
      <use xlink:href="#DejaVuSans-67" transform="translate(679.6875 0)"/>
      <use xlink:href="#DejaVuSans-20" transform="translate(743.164062 0)"/>
      <use xlink:href="#DejaVuSans-50" transform="translate(774.951172 0)"/>
      <use xlink:href="#DejaVuSans-4f" transform="translate(835.253906 0)"/>
     </g>
    </g>
    <g id="line2d_71">
     <path d="M 1175.564063 76.016562 
L 1195.564063 76.016562 
" style="fill: none; stroke-dasharray: 3.7,1.6; stroke-dashoffset: 0; stroke: #000000"/>
    </g>
    <g id="line2d_72">
     <g>
      <use xlink:href="#me3c93179df" x="1185.564063" y="76.016562" style="stroke: #000000; stroke-linejoin: miter"/>
     </g>
    </g>
    <g id="text_57">
     <!-- exp I1: 100mg PO (n=1) -->
     <g transform="translate(1203.564063 79.516562) scale(0.1 -0.1)">
      <use xlink:href="#DejaVuSans-65"/>
      <use xlink:href="#DejaVuSans-78" transform="translate(59.773438 0)"/>
      <use xlink:href="#DejaVuSans-70" transform="translate(118.953125 0)"/>
      <use xlink:href="#DejaVuSans-20" transform="translate(182.429688 0)"/>
      <use xlink:href="#DejaVuSans-49" transform="translate(214.216797 0)"/>
      <use xlink:href="#DejaVuSans-31" transform="translate(243.708984 0)"/>
      <use xlink:href="#DejaVuSans-3a" transform="translate(307.332031 0)"/>
      <use xlink:href="#DejaVuSans-20" transform="translate(341.023438 0)"/>
      <use xlink:href="#DejaVuSans-31" transform="translate(372.810547 0)"/>
      <use xlink:href="#DejaVuSans-30" transform="translate(436.433594 0)"/>
      <use xlink:href="#DejaVuSans-30" transform="translate(500.056641 0)"/>
      <use xlink:href="#DejaVuSans-6d" transform="translate(563.679688 0)"/>
      <use xlink:href="#DejaVuSans-67" transform="translate(661.091797 0)"/>
      <use xlink:href="#DejaVuSans-20" transform="translate(724.568359 0)"/>
      <use xlink:href="#DejaVuSans-50" transform="translate(756.355469 0)"/>
      <use xlink:href="#DejaVuSans-4f" transform="translate(816.658203 0)"/>
      <use xlink:href="#DejaVuSans-20" transform="translate(895.369141 0)"/>
      <use xlink:href="#DejaVuSans-28" transform="translate(927.15625 0)"/>
      <use xlink:href="#DejaVuSans-6e" transform="translate(966.169922 0)"/>
      <use xlink:href="#DejaVuSans-3d" transform="translate(1029.548828 0)"/>
      <use xlink:href="#DejaVuSans-31" transform="translate(1113.337891 0)"/>
      <use xlink:href="#DejaVuSans-29" transform="translate(1176.960938 0)"/>
     </g>
    </g>
    <g id="line2d_73">
     <path d="M 1175.564063 90.694687 
L 1195.564063 90.694687 
" style="fill: none; stroke-dasharray: 3.7,1.6; stroke-dashoffset: 0; stroke: #000000"/>
    </g>
    <g id="line2d_74">
     <g>
      <use xlink:href="#m73d2bab897" x="1185.564063" y="90.694687" style="stroke: #000000; stroke-linejoin: bevel"/>
     </g>
    </g>
    <g id="text_58">
     <!-- exp I5: 100mg PO (n=1) -->
     <g transform="translate(1203.564063 94.194687) scale(0.1 -0.1)">
      <use xlink:href="#DejaVuSans-65"/>
      <use xlink:href="#DejaVuSans-78" transform="translate(59.773438 0)"/>
      <use xlink:href="#DejaVuSans-70" transform="translate(118.953125 0)"/>
      <use xlink:href="#DejaVuSans-20" transform="translate(182.429688 0)"/>
      <use xlink:href="#DejaVuSans-49" transform="translate(214.216797 0)"/>
      <use xlink:href="#DejaVuSans-35" transform="translate(243.708984 0)"/>
      <use xlink:href="#DejaVuSans-3a" transform="translate(307.332031 0)"/>
      <use xlink:href="#DejaVuSans-20" transform="translate(341.023438 0)"/>
      <use xlink:href="#DejaVuSans-31" transform="translate(372.810547 0)"/>
      <use xlink:href="#DejaVuSans-30" transform="translate(436.433594 0)"/>
      <use xlink:href="#DejaVuSans-30" transform="translate(500.056641 0)"/>
      <use xlink:href="#DejaVuSans-6d" transform="translate(563.679688 0)"/>
      <use xlink:href="#DejaVuSans-67" transform="translate(661.091797 0)"/>
      <use xlink:href="#DejaVuSans-20" transform="translate(724.568359 0)"/>
      <use xlink:href="#DejaVuSans-50" transform="translate(756.355469 0)"/>
      <use xlink:href="#DejaVuSans-4f" transform="translate(816.658203 0)"/>
      <use xlink:href="#DejaVuSans-20" transform="translate(895.369141 0)"/>
      <use xlink:href="#DejaVuSans-28" transform="translate(927.15625 0)"/>
      <use xlink:href="#DejaVuSans-6e" transform="translate(966.169922 0)"/>
      <use xlink:href="#DejaVuSans-3d" transform="translate(1029.548828 0)"/>
      <use xlink:href="#DejaVuSans-31" transform="translate(1113.337891 0)"/>
      <use xlink:href="#DejaVuSans-29" transform="translate(1176.960938 0)"/>
     </g>
    </g>
   </g>
  </g>
  <g id="text_59">
   <!-- Creasey1986 -->
   <g transform="translate(577.776641 26.000781) scale(0.25 -0.25)">
    <defs>
     <path id="DejaVuSans-Bold-43" d="M 4288 256 
Q 3956 84 3597 -3 
Q 3238 -91 2847 -91 
Q 1681 -91 1000 561 
Q 319 1213 319 2328 
Q 319 3447 1000 4098 
Q 1681 4750 2847 4750 
Q 3238 4750 3597 4662 
Q 3956 4575 4288 4403 
L 4288 3438 
Q 3953 3666 3628 3772 
Q 3303 3878 2944 3878 
Q 2300 3878 1931 3465 
Q 1563 3053 1563 2328 
Q 1563 1606 1931 1193 
Q 2300 781 2944 781 
Q 3303 781 3628 887 
Q 3953 994 4288 1222 
L 4288 256 
z
" transform="scale(0.015625)"/>
     <path id="DejaVuSans-Bold-31" d="M 750 831 
L 1813 831 
L 1813 3847 
L 722 3622 
L 722 4441 
L 1806 4666 
L 2950 4666 
L 2950 831 
L 4013 831 
L 4013 0 
L 750 0 
L 750 831 
z
" transform="scale(0.015625)"/>
     <path id="DejaVuSans-Bold-39" d="M 641 103 
L 641 966 
Q 928 831 1190 764 
Q 1453 697 1709 697 
Q 2247 697 2547 995 
Q 2847 1294 2900 1881 
Q 2688 1725 2447 1647 
Q 2206 1569 1925 1569 
Q 1209 1569 770 1986 
Q 331 2403 331 3084 
Q 331 3838 820 4291 
Q 1309 4744 2131 4744 
Q 3044 4744 3544 4128 
Q 4044 3513 4044 2388 
Q 4044 1231 3459 570 
Q 2875 -91 1856 -91 
Q 1528 -91 1228 -42 
Q 928 6 641 103 
z
M 2125 2350 
Q 2441 2350 2600 2554 
Q 2759 2759 2759 3169 
Q 2759 3575 2600 3781 
Q 2441 3988 2125 3988 
Q 1809 3988 1650 3781 
Q 1491 3575 1491 3169 
Q 1491 2759 1650 2554 
Q 1809 2350 2125 2350 
z
" transform="scale(0.015625)"/>
     <path id="DejaVuSans-Bold-38" d="M 2228 2088 
Q 1891 2088 1709 1903 
Q 1528 1719 1528 1375 
Q 1528 1031 1709 848 
Q 1891 666 2228 666 
Q 2563 666 2741 848 
Q 2919 1031 2919 1375 
Q 2919 1722 2741 1905 
Q 2563 2088 2228 2088 
z
M 1350 2484 
Q 925 2613 709 2878 
Q 494 3144 494 3541 
Q 494 4131 934 4440 
Q 1375 4750 2228 4750 
Q 3075 4750 3515 4442 
Q 3956 4134 3956 3541 
Q 3956 3144 3739 2878 
Q 3522 2613 3097 2484 
Q 3572 2353 3814 2058 
Q 4056 1763 4056 1313 
Q 4056 619 3595 264 
Q 3134 -91 2228 -91 
Q 1319 -91 855 264 
Q 391 619 391 1313 
Q 391 1763 633 2058 
Q 875 2353 1350 2484 
z
M 1631 3419 
Q 1631 3141 1786 2991 
Q 1941 2841 2228 2841 
Q 2509 2841 2662 2991 
Q 2816 3141 2816 3419 
Q 2816 3697 2662 3845 
Q 2509 3994 2228 3994 
Q 1941 3994 1786 3844 
Q 1631 3694 1631 3419 
z
" transform="scale(0.015625)"/>
     <path id="DejaVuSans-Bold-36" d="M 2316 2303 
Q 2000 2303 1842 2098 
Q 1684 1894 1684 1484 
Q 1684 1075 1842 870 
Q 2000 666 2316 666 
Q 2634 666 2792 870 
Q 2950 1075 2950 1484 
Q 2950 1894 2792 2098 
Q 2634 2303 2316 2303 
z
M 3803 4544 
L 3803 3681 
Q 3506 3822 3243 3889 
Q 2981 3956 2731 3956 
Q 2194 3956 1894 3657 
Q 1594 3359 1544 2772 
Q 1750 2925 1990 3001 
Q 2231 3078 2516 3078 
Q 3231 3078 3670 2659 
Q 4109 2241 4109 1563 
Q 4109 813 3618 361 
Q 3128 -91 2303 -91 
Q 1394 -91 895 523 
Q 397 1138 397 2266 
Q 397 3422 980 4083 
Q 1563 4744 2578 4744 
Q 2900 4744 3203 4694 
Q 3506 4644 3803 4544 
z
" transform="scale(0.015625)"/>
    </defs>
    <use xlink:href="#DejaVuSans-Bold-43"/>
    <use xlink:href="#DejaVuSans-Bold-72" transform="translate(73.388672 0)"/>
    <use xlink:href="#DejaVuSans-Bold-65" transform="translate(122.705078 0)"/>
    <use xlink:href="#DejaVuSans-Bold-61" transform="translate(190.527344 0)"/>
    <use xlink:href="#DejaVuSans-Bold-73" transform="translate(258.007812 0)"/>
    <use xlink:href="#DejaVuSans-Bold-65" transform="translate(317.529297 0)"/>
    <use xlink:href="#DejaVuSans-Bold-79" transform="translate(385.351562 0)"/>
    <use xlink:href="#DejaVuSans-Bold-31" transform="translate(450.537109 0)"/>
    <use xlink:href="#DejaVuSans-Bold-39" transform="translate(520.117188 0)"/>
    <use xlink:href="#DejaVuSans-Bold-38" transform="translate(589.697266 0)"/>
    <use xlink:href="#DejaVuSans-Bold-36" transform="translate(659.277344 0)"/>
   </g>
  </g>
 </g>
 <defs>
  <clipPath id="p8a12464409">
   <rect x="45.184063" y="48.24" width="358.05" height="316.008"/>
  </clipPath>
  <clipPath id="pdef922d08c">
   <rect x="510.649063" y="48.24" width="358.05" height="316.008"/>
  </clipPath>
  <clipPath id="p05e3e74612">
   <rect x="976.114063" y="48.24" width="358.05" height="316.008"/>
  </clipPath>
 </defs>
</svg>
