<?xml version="1.0" encoding="utf-8" standalone="no"?>
<!DOCTYPE svg PUBLIC "-//W3C//DTD SVG 1.1//EN"
  "http://www.w3.org/Graphics/SVG/1.1/DTD/svg11.dtd">
<svg xmlns:xlink="http://www.w3.org/1999/xlink" width="1353.913906pt" height="414.385812pt" viewBox="0 0 1353.913906 414.385812" xmlns="http://www.w3.org/2000/svg" version="1.1">
 <metadata>
  <rdf:RDF xmlns:dc="http://purl.org/dc/elements/1.1/" xmlns:cc="http://creativecommons.org/ns#" xmlns:rdf="http://www.w3.org/1999/02/22-rdf-syntax-ns#">
   <cc:Work>
    <dc:type rdf:resource="http://purl.org/dc/dcmitype/StillImage"/>
    <dc:date>2025-09-10T13:16:38.705635</dc:date>
    <dc:format>image/svg+xml</dc:format>
    <dc:creator>
     <cc:Agent>
      <dc:title>Matplotlib v3.10.6, https://matplotlib.org/</dc:title>
     </cc:Agent>
    </dc:creator>
   </cc:Work>
  </rdf:RDF>
 </metadata>
 <defs>
  <style type="text/css">*{stroke-linejoin: round; stroke-linecap: butt}</style>
 </defs>
 <g id="figure_1">
  <g id="patch_1">
   <path d="M 0 414.385812 
L 1353.913906 414.385812 
L 1353.913906 -0 
L 0 -0 
z
" style="fill: #ffffff"/>
  </g>
  <g id="axes_1">
   <g id="patch_2">
    <path d="M 57.733906 364.248 
L 415.783906 364.248 
L 415.783906 48.24 
L 57.733906 48.24 
z
" style="fill: #ffffff"/>
   </g>
   <g id="matplotlib.axis_1">
    <g id="xtick_1">
     <g id="line2d_1">
      <defs>
       <path id="m075a8de616" d="M 0 0 
L 0 3.5 
" style="stroke: #000000; stroke-width: 0.8"/>
      </defs>
      <g>
       <use xlink:href="#m075a8de616" x="74.008906" y="364.248" style="stroke: #000000; stroke-width: 0.8"/>
      </g>
     </g>
     <g id="text_1">
      <!-- 0 -->
      <g transform="translate(69.237031 382.645656) scale(0.15 -0.15)">
       <defs>
        <path id="DejaVuSans-30" d="M 2034 4250 
Q 1547 4250 1301 3770 
Q 1056 3291 1056 2328 
Q 1056 1369 1301 889 
Q 1547 409 2034 409 
Q 2525 409 2770 889 
Q 3016 1369 3016 2328 
Q 3016 3291 2770 3770 
Q 2525 4250 2034 4250 
z
M 2034 4750 
Q 2819 4750 3233 4129 
Q 3647 3509 3647 2328 
Q 3647 1150 3233 529 
Q 2819 -91 2034 -91 
Q 1250 -91 836 529 
Q 422 1150 422 2328 
Q 422 3509 836 4129 
Q 1250 4750 2034 4750 
z
" transform="scale(0.015625)"/>
       </defs>
       <use xlink:href="#DejaVuSans-30"/>
      </g>
     </g>
    </g>
    <g id="xtick_2">
     <g id="line2d_2">
      <g>
       <use xlink:href="#m075a8de616" x="167.008906" y="364.248" style="stroke: #000000; stroke-width: 0.8"/>
      </g>
     </g>
     <g id="text_2">
      <!-- 1 -->
      <g transform="translate(162.237031 382.645656) scale(0.15 -0.15)">
       <defs>
        <path id="DejaVuSans-31" d="M 794 531 
L 1825 531 
L 1825 4091 
L 703 3866 
L 703 4441 
L 1819 4666 
L 2450 4666 
L 2450 531 
L 3481 531 
L 3481 0 
L 794 0 
L 794 531 
z
" transform="scale(0.015625)"/>
       </defs>
       <use xlink:href="#DejaVuSans-31"/>
      </g>
     </g>
    </g>
    <g id="xtick_3">
     <g id="line2d_3">
      <g>
       <use xlink:href="#m075a8de616" x="260.008906" y="364.248" style="stroke: #000000; stroke-width: 0.8"/>
      </g>
     </g>
     <g id="text_3">
      <!-- 2 -->
      <g transform="translate(255.237031 382.645656) scale(0.15 -0.15)">
       <defs>
        <path id="DejaVuSans-32" d="M 1228 531 
L 3431 531 
L 3431 0 
L 469 0 
L 469 531 
Q 828 903 1448 1529 
Q 2069 2156 2228 2338 
Q 2531 2678 2651 2914 
Q 2772 3150 2772 3378 
Q 2772 3750 2511 3984 
Q 2250 4219 1831 4219 
Q 1534 4219 1204 4116 
Q 875 4013 500 3803 
L 500 4441 
Q 881 4594 1212 4672 
Q 1544 4750 1819 4750 
Q 2544 4750 2975 4387 
Q 3406 4025 3406 3419 
Q 3406 3131 3298 2873 
Q 3191 2616 2906 2266 
Q 2828 2175 2409 1742 
Q 1991 1309 1228 531 
z
" transform="scale(0.015625)"/>
       </defs>
       <use xlink:href="#DejaVuSans-32"/>
      </g>
     </g>
    </g>
    <g id="xtick_4">
     <g id="line2d_4">
      <g>
       <use xlink:href="#m075a8de616" x="353.008906" y="364.248" style="stroke: #000000; stroke-width: 0.8"/>
      </g>
     </g>
     <g id="text_4">
      <!-- 3 -->
      <g transform="translate(348.237031 382.645656) scale(0.15 -0.15)">
       <defs>
        <path id="DejaVuSans-33" d="M 2597 2516 
Q 3050 2419 3304 2112 
Q 3559 1806 3559 1356 
Q 3559 666 3084 287 
Q 2609 -91 1734 -91 
Q 1441 -91 1130 -33 
Q 819 25 488 141 
L 488 750 
Q 750 597 1062 519 
Q 1375 441 1716 441 
Q 2309 441 2620 675 
Q 2931 909 2931 1356 
Q 2931 1769 2642 2001 
Q 2353 2234 1838 2234 
L 1294 2234 
L 1294 2753 
L 1863 2753 
Q 2328 2753 2575 2939 
Q 2822 3125 2822 3475 
Q 2822 3834 2567 4026 
Q 2313 4219 1838 4219 
Q 1578 4219 1281 4162 
Q 984 4106 628 3988 
L 628 4550 
Q 988 4650 1302 4700 
Q 1616 4750 1894 4750 
Q 2613 4750 3031 4423 
Q 3450 4097 3450 3541 
Q 3450 3153 3228 2886 
Q 3006 2619 2597 2516 
z
" transform="scale(0.015625)"/>
       </defs>
       <use xlink:href="#DejaVuSans-33"/>
      </g>
     </g>
    </g>
    <g id="text_5">
     <!-- time [hr] -->
     <g transform="translate(191.684375 403.442375) scale(0.18 -0.18)">
      <defs>
       <path id="DejaVuSans-Bold-74" d="M 1759 4494 
L 1759 3500 
L 2913 3500 
L 2913 2700 
L 1759 2700 
L 1759 1216 
Q 1759 972 1856 886 
Q 1953 800 2241 800 
L 2816 800 
L 2816 0 
L 1856 0 
Q 1194 0 917 276 
Q 641 553 641 1216 
L 641 2700 
L 84 2700 
L 84 3500 
L 641 3500 
L 641 4494 
L 1759 4494 
z
" transform="scale(0.015625)"/>
       <path id="DejaVuSans-Bold-69" d="M 538 3500 
L 1656 3500 
L 1656 0 
L 538 0 
L 538 3500 
z
M 538 4863 
L 1656 4863 
L 1656 3950 
L 538 3950 
L 538 4863 
z
" transform="scale(0.015625)"/>
       <path id="DejaVuSans-Bold-6d" d="M 3781 2919 
Q 3994 3244 4286 3414 
Q 4578 3584 4928 3584 
Q 5531 3584 5847 3212 
Q 6163 2841 6163 2131 
L 6163 0 
L 5038 0 
L 5038 1825 
Q 5041 1866 5042 1909 
Q 5044 1953 5044 2034 
Q 5044 2406 4934 2573 
Q 4825 2741 4581 2741 
Q 4263 2741 4089 2478 
Q 3916 2216 3909 1719 
L 3909 0 
L 2784 0 
L 2784 1825 
Q 2784 2406 2684 2573 
Q 2584 2741 2328 2741 
Q 2006 2741 1831 2477 
Q 1656 2213 1656 1722 
L 1656 0 
L 531 0 
L 531 3500 
L 1656 3500 
L 1656 2988 
Q 1863 3284 2130 3434 
Q 2397 3584 2719 3584 
Q 3081 3584 3359 3409 
Q 3638 3234 3781 2919 
z
" transform="scale(0.015625)"/>
       <path id="DejaVuSans-Bold-65" d="M 4031 1759 
L 4031 1441 
L 1416 1441 
Q 1456 1047 1700 850 
Q 1944 653 2381 653 
Q 2734 653 3104 758 
Q 3475 863 3866 1075 
L 3866 213 
Q 3469 63 3072 -14 
Q 2675 -91 2278 -91 
Q 1328 -91 801 392 
Q 275 875 275 1747 
Q 275 2603 792 3093 
Q 1309 3584 2216 3584 
Q 3041 3584 3536 3087 
Q 4031 2591 4031 1759 
z
M 2881 2131 
Q 2881 2450 2695 2645 
Q 2509 2841 2209 2841 
Q 1884 2841 1681 2658 
Q 1478 2475 1428 2131 
L 2881 2131 
z
" transform="scale(0.015625)"/>
       <path id="DejaVuSans-Bold-20" transform="scale(0.015625)"/>
       <path id="DejaVuSans-Bold-5b" d="M 550 4863 
L 2491 4863 
L 2491 4159 
L 1613 4159 
L 1613 -141 
L 2491 -141 
L 2491 -844 
L 550 -844 
L 550 4863 
z
" transform="scale(0.015625)"/>
       <path id="DejaVuSans-Bold-68" d="M 4056 2131 
L 4056 0 
L 2931 0 
L 2931 347 
L 2931 1625 
Q 2931 2084 2911 2256 
Q 2891 2428 2841 2509 
Q 2775 2619 2662 2680 
Q 2550 2741 2406 2741 
Q 2056 2741 1856 2470 
Q 1656 2200 1656 1722 
L 1656 0 
L 538 0 
L 538 4863 
L 1656 4863 
L 1656 2988 
Q 1909 3294 2193 3439 
Q 2478 3584 2822 3584 
Q 3428 3584 3742 3212 
Q 4056 2841 4056 2131 
z
" transform="scale(0.015625)"/>
       <path id="DejaVuSans-Bold-72" d="M 3138 2547 
Q 2991 2616 2845 2648 
Q 2700 2681 2553 2681 
Q 2122 2681 1889 2404 
Q 1656 2128 1656 1613 
L 1656 0 
L 538 0 
L 538 3500 
L 1656 3500 
L 1656 2925 
Q 1872 3269 2151 3426 
Q 2431 3584 2822 3584 
Q 2878 3584 2943 3579 
Q 3009 3575 3134 3559 
L 3138 2547 
z
" transform="scale(0.015625)"/>
       <path id="DejaVuSans-Bold-5d" d="M 2375 -844 
L 434 -844 
L 434 -141 
L 1313 -141 
L 1313 4159 
L 434 4159 
L 434 4863 
L 2375 4863 
L 2375 -844 
z
" transform="scale(0.015625)"/>
      </defs>
      <use xlink:href="#DejaVuSans-Bold-74"/>
      <use xlink:href="#DejaVuSans-Bold-69" transform="translate(47.802734 0)"/>
      <use xlink:href="#DejaVuSans-Bold-6d" transform="translate(82.080078 0)"/>
      <use xlink:href="#DejaVuSans-Bold-65" transform="translate(186.279297 0)"/>
      <use xlink:href="#DejaVuSans-Bold-20" transform="translate(254.101562 0)"/>
      <use xlink:href="#DejaVuSans-Bold-5b" transform="translate(288.916016 0)"/>
      <use xlink:href="#DejaVuSans-Bold-68" transform="translate(334.619141 0)"/>
      <use xlink:href="#DejaVuSans-Bold-72" transform="translate(405.810547 0)"/>
      <use xlink:href="#DejaVuSans-Bold-5d" transform="translate(455.126953 0)"/>
     </g>
    </g>
   </g>
   <g id="matplotlib.axis_2">
    <g id="ytick_1">
     <g id="line2d_5">
      <defs>
       <path id="m089debc7a2" d="M 0 0 
L -3.5 0 
" style="stroke: #000000; stroke-width: 0.8"/>
      </defs>
      <g>
       <use xlink:href="#m089debc7a2" x="57.733906" y="361.427452" style="stroke: #000000; stroke-width: 0.8"/>
      </g>
     </g>
     <g id="text_6">
      <!-- −1 -->
      <g transform="translate(28.620625 367.12628) scale(0.15 -0.15)">
       <defs>
        <path id="DejaVuSans-2212" d="M 678 2272 
L 4684 2272 
L 4684 1741 
L 678 1741 
L 678 2272 
z
" transform="scale(0.015625)"/>
       </defs>
       <use xlink:href="#DejaVuSans-2212"/>
       <use xlink:href="#DejaVuSans-31" transform="translate(83.789062 0)"/>
      </g>
     </g>
    </g>
    <g id="ytick_2">
     <g id="line2d_6">
      <g>
       <use xlink:href="#m089debc7a2" x="57.733906" y="301.808716" style="stroke: #000000; stroke-width: 0.8"/>
      </g>
     </g>
     <g id="text_7">
      <!-- 0 -->
      <g transform="translate(41.190156 307.507544) scale(0.15 -0.15)">
       <use xlink:href="#DejaVuSans-30"/>
      </g>
     </g>
    </g>
    <g id="ytick_3">
     <g id="line2d_7">
      <g>
       <use xlink:href="#m089debc7a2" x="57.733906" y="242.18998" style="stroke: #000000; stroke-width: 0.8"/>
      </g>
     </g>
     <g id="text_8">
      <!-- 1 -->
      <g transform="translate(41.190156 247.888808) scale(0.15 -0.15)">
       <use xlink:href="#DejaVuSans-31"/>
      </g>
     </g>
    </g>
    <g id="ytick_4">
     <g id="line2d_8">
      <g>
       <use xlink:href="#m089debc7a2" x="57.733906" y="182.571243" style="stroke: #000000; stroke-width: 0.8"/>
      </g>
     </g>
     <g id="text_9">
      <!-- 2 -->
      <g transform="translate(41.190156 188.270072) scale(0.15 -0.15)">
       <use xlink:href="#DejaVuSans-32"/>
      </g>
     </g>
    </g>
    <g id="ytick_5">
     <g id="line2d_9">
      <g>
       <use xlink:href="#m089debc7a2" x="57.733906" y="122.952507" style="stroke: #000000; stroke-width: 0.8"/>
      </g>
     </g>
     <g id="text_10">
      <!-- 3 -->
      <g transform="translate(41.190156 128.651335) scale(0.15 -0.15)">
       <use xlink:href="#DejaVuSans-33"/>
      </g>
     </g>
    </g>
    <g id="ytick_6">
     <g id="line2d_10">
      <g>
       <use xlink:href="#m089debc7a2" x="57.733906" y="63.333771" style="stroke: #000000; stroke-width: 0.8"/>
      </g>
     </g>
     <g id="text_11">
      <!-- 4 -->
      <g transform="translate(41.190156 69.032599) scale(0.15 -0.15)">
       <defs>
        <path id="DejaVuSans-34" d="M 2419 4116 
L 825 1625 
L 2419 1625 
L 2419 4116 
z
M 2253 4666 
L 3047 4666 
L 3047 1625 
L 3713 1625 
L 3713 1100 
L 3047 1100 
L 3047 0 
L 2419 0 
L 2419 1100 
L 313 1100 
L 313 1709 
L 2253 4666 
z
" transform="scale(0.015625)"/>
       </defs>
       <use xlink:href="#DejaVuSans-34"/>
      </g>
     </g>
    </g>
    <g id="text_12">
     <!-- renin [pM] -->
     <g transform="translate(20.877188 259.443844) rotate(-90) scale(0.18 -0.18)">
      <defs>
       <path id="DejaVuSans-Bold-6e" d="M 4056 2131 
L 4056 0 
L 2931 0 
L 2931 347 
L 2931 1631 
Q 2931 2084 2911 2256 
Q 2891 2428 2841 2509 
Q 2775 2619 2662 2680 
Q 2550 2741 2406 2741 
Q 2056 2741 1856 2470 
Q 1656 2200 1656 1722 
L 1656 0 
L 538 0 
L 538 3500 
L 1656 3500 
L 1656 2988 
Q 1909 3294 2193 3439 
Q 2478 3584 2822 3584 
Q 3428 3584 3742 3212 
Q 4056 2841 4056 2131 
z
" transform="scale(0.015625)"/>
       <path id="DejaVuSans-Bold-70" d="M 1656 506 
L 1656 -1331 
L 538 -1331 
L 538 3500 
L 1656 3500 
L 1656 2988 
Q 1888 3294 2169 3439 
Q 2450 3584 2816 3584 
Q 3463 3584 3878 3070 
Q 4294 2556 4294 1747 
Q 4294 938 3878 423 
Q 3463 -91 2816 -91 
Q 2450 -91 2169 54 
Q 1888 200 1656 506 
z
M 2400 2772 
Q 2041 2772 1848 2508 
Q 1656 2244 1656 1747 
Q 1656 1250 1848 986 
Q 2041 722 2400 722 
Q 2759 722 2948 984 
Q 3138 1247 3138 1747 
Q 3138 2247 2948 2509 
Q 2759 2772 2400 2772 
z
" transform="scale(0.015625)"/>
       <path id="DejaVuSans-Bold-4d" d="M 588 4666 
L 2119 4666 
L 3181 2169 
L 4250 4666 
L 5778 4666 
L 5778 0 
L 4641 0 
L 4641 3413 
L 3566 897 
L 2803 897 
L 1728 3413 
L 1728 0 
L 588 0 
L 588 4666 
z
" transform="scale(0.015625)"/>
      </defs>
      <use xlink:href="#DejaVuSans-Bold-72"/>
      <use xlink:href="#DejaVuSans-Bold-65" transform="translate(49.316406 0)"/>
      <use xlink:href="#DejaVuSans-Bold-6e" transform="translate(117.138672 0)"/>
      <use xlink:href="#DejaVuSans-Bold-69" transform="translate(188.330078 0)"/>
      <use xlink:href="#DejaVuSans-Bold-6e" transform="translate(222.607422 0)"/>
      <use xlink:href="#DejaVuSans-Bold-20" transform="translate(293.798828 0)"/>
      <use xlink:href="#DejaVuSans-Bold-5b" transform="translate(328.613281 0)"/>
      <use xlink:href="#DejaVuSans-Bold-70" transform="translate(374.316406 0)"/>
      <use xlink:href="#DejaVuSans-Bold-4d" transform="translate(445.898438 0)"/>
      <use xlink:href="#DejaVuSans-Bold-5d" transform="translate(545.410156 0)"/>
     </g>
    </g>
   </g>
   <g id="LineCollection_1">
    <path d="M 74.008906 292.42854 
L 74.008906 267.35205 
" clip-path="url(#p60c6a4febb)" style="fill: none; stroke: #000000"/>
    <path d="M 89.508906 294.271973 
L 89.508906 265.016068 
" clip-path="url(#p60c6a4febb)" style="fill: none; stroke: #000000"/>
    <path d="M 105.008906 320.38907 
L 105.008906 210.331142 
" clip-path="url(#p60c6a4febb)" style="fill: none; stroke: #000000"/>
    <path d="M 120.508906 349.884 
L 120.508906 172.955432 
" clip-path="url(#p60c6a4febb)" style="fill: none; stroke: #000000"/>
    <path d="M 167.008906 281.448718 
L 167.008906 137.95547 
" clip-path="url(#p60c6a4febb)" style="fill: none; stroke: #000000"/>
    <path d="M 260.008906 254.253522 
L 260.008906 131.657349 
" clip-path="url(#p60c6a4febb)" style="fill: none; stroke: #000000"/>
    <path d="M 353.008906 272.231553 
L 353.008906 149.635379 
" clip-path="url(#p60c6a4febb)" style="fill: none; stroke: #000000"/>
   </g>
   <g id="LineCollection_2">
    <path d="M 74.008906 294.588256 
L 74.008906 251.400968 
" clip-path="url(#p60c6a4febb)" style="fill: none; stroke: #3c33ff"/>
    <path d="M 89.508906 294.018449 
L 89.508906 256.403714 
" clip-path="url(#p60c6a4febb)" style="fill: none; stroke: #3c33ff"/>
    <path d="M 105.008906 302.855329 
L 105.008906 231.805274 
" clip-path="url(#p60c6a4febb)" style="fill: none; stroke: #3c33ff"/>
    <path d="M 120.508906 298.138623 
L 120.508906 136.534577 
" clip-path="url(#p60c6a4febb)" style="fill: none; stroke: #3c33ff"/>
    <path d="M 167.008906 263.21592 
L 167.008906 62.604 
" clip-path="url(#p60c6a4febb)" style="fill: none; stroke: #3c33ff"/>
    <path d="M 260.008906 247.975906 
L 260.008906 80.799306 
" clip-path="url(#p60c6a4febb)" style="fill: none; stroke: #3c33ff"/>
    <path d="M 353.008906 270.514881 
L 353.008906 156.277538 
" clip-path="url(#p60c6a4febb)" style="fill: none; stroke: #3c33ff"/>
   </g>
   <g id="line2d_11">
    <path d="M 74.008906 279.896776 
L 74.822656 279.829658 
L 77.263906 279.167082 
L 82.146406 277.527149 
L 88.656406 275.082869 
L 95.166406 272.394159 
L 101.676406 269.467885 
L 108.186406 266.308372 
L 115.510156 262.489099 
L 122.833906 258.421764 
L 132.598906 252.718995 
L 148.873906 243.163029 
L 154.570156 240.074464 
L 159.452656 237.651393 
L 163.521406 235.839589 
L 167.590156 234.254999 
L 171.658906 232.930732 
L 174.913906 232.0779 
L 178.168906 231.421263 
L 181.423906 230.969022 
L 184.678906 230.725797 
L 187.933906 230.692431 
L 191.188906 230.865953 
L 194.443906 231.239731 
L 197.698906 231.803779 
L 201.767656 232.75653 
L 205.836406 233.95606 
L 209.905156 235.368286 
L 214.787656 237.292872 
L 220.483906 239.776338 
L 228.621406 243.593605 
L 248.965156 253.259397 
L 257.102656 256.828485 
L 264.426406 259.812358 
L 271.750156 262.564143 
L 279.073906 265.082617 
L 286.397656 267.375235 
L 294.535156 269.673103 
L 302.672656 271.7287 
L 310.810156 273.564326 
L 319.761406 275.355652 
L 329.526406 277.068813 
L 339.291406 278.561789 
L 349.870156 279.963581 
L 361.262656 281.257123 
L 374.282656 282.501968 
L 388.116406 283.594828 
L 399.508906 284.344406 
L 399.508906 284.344406 
" clip-path="url(#p60c6a4febb)" style="fill: none; stroke: #000000; stroke-width: 2; stroke-linecap: square"/>
   </g>
   <g id="line2d_12">
    <path d="M 74.008906 272.989752 
L 75.636406 272.681831 
L 78.891406 271.620037 
L 83.773906 269.722984 
L 90.283906 266.913694 
L 97.607656 263.475251 
L 105.745156 259.374183 
L 115.510156 254.163017 
L 139.108906 241.393156 
L 145.618906 238.198837 
L 151.315156 235.658613 
L 156.197656 233.718629 
L 161.080156 232.033394 
L 165.148906 230.843818 
L 169.217656 229.862603 
L 173.286406 229.097747 
L 177.355156 228.552888 
L 181.423906 228.227252 
L 185.492656 228.115826 
L 189.561406 228.209731 
L 193.630156 228.496753 
L 198.512656 229.074962 
L 203.395156 229.880307 
L 209.091406 231.06454 
L 215.601406 232.677584 
L 222.925156 234.735083 
L 232.690156 237.721927 
L 263.612656 247.343524 
L 274.191406 250.336121 
L 284.770156 253.098752 
L 295.348906 255.623982 
L 305.927656 257.91786 
L 316.506406 259.993904 
L 327.898906 262.005644 
L 340.105156 263.928533 
L 353.125156 265.744517 
L 366.958906 267.441517 
L 381.606406 269.01257 
L 397.881406 270.525201 
L 399.508906 270.664425 
L 399.508906 270.664425 
" clip-path="url(#p60c6a4febb)" style="fill: none; stroke: #3c33ff; stroke-width: 2; stroke-linecap: square"/>
   </g>
   <g id="line2d_13">
    <path d="M 74.008906 279.890295 
L 89.508906 279.644021 
L 105.008906 265.360106 
L 120.508906 261.419716 
L 167.008906 209.702094 
L 260.008906 192.955435 
L 353.008906 210.933466 
" clip-path="url(#p60c6a4febb)" style="fill: none; stroke-dasharray: 3.7,1.6; stroke-dashoffset: 0; stroke: #000000"/>
    <defs>
     <path id="mdd28a05c3d" d="M -3 3 
L 3 3 
L 3 -3 
L -3 -3 
z
" style="stroke: #000000; stroke-linejoin: miter"/>
    </defs>
    <g clip-path="url(#p60c6a4febb)">
     <use xlink:href="#mdd28a05c3d" x="74.008906" y="279.890295" style="stroke: #000000; stroke-linejoin: miter"/>
     <use xlink:href="#mdd28a05c3d" x="89.508906" y="279.644021" style="stroke: #000000; stroke-linejoin: miter"/>
     <use xlink:href="#mdd28a05c3d" x="105.008906" y="265.360106" style="stroke: #000000; stroke-linejoin: miter"/>
     <use xlink:href="#mdd28a05c3d" x="120.508906" y="261.419716" style="stroke: #000000; stroke-linejoin: miter"/>
     <use xlink:href="#mdd28a05c3d" x="167.008906" y="209.702094" style="stroke: #000000; stroke-linejoin: miter"/>
     <use xlink:href="#mdd28a05c3d" x="260.008906" y="192.955435" style="stroke: #000000; stroke-linejoin: miter"/>
     <use xlink:href="#mdd28a05c3d" x="353.008906" y="210.933466" style="stroke: #000000; stroke-linejoin: miter"/>
    </g>
   </g>
   <g id="line2d_14">
    <path d="M 74.008906 272.994612 
L 89.508906 275.211082 
L 105.008906 267.330301 
L 120.508906 217.3366 
L 167.008906 162.90996 
L 260.008906 164.387606 
L 353.008906 213.39621 
" clip-path="url(#p60c6a4febb)" style="fill: none; stroke-dasharray: 3.7,1.6; stroke-dashoffset: 0; stroke: #3c33ff"/>
    <defs>
     <path id="m2e2dd4ab88" d="M -3 3 
L 3 3 
L 3 -3 
L -3 -3 
z
" style="stroke: #000000; stroke-linejoin: miter"/>
    </defs>
    <g clip-path="url(#p60c6a4febb)">
     <use xlink:href="#m2e2dd4ab88" x="74.008906" y="272.994612" style="fill: #3c33ff; stroke: #000000; stroke-linejoin: miter"/>
     <use xlink:href="#m2e2dd4ab88" x="89.508906" y="275.211082" style="fill: #3c33ff; stroke: #000000; stroke-linejoin: miter"/>
     <use xlink:href="#m2e2dd4ab88" x="105.008906" y="267.330301" style="fill: #3c33ff; stroke: #000000; stroke-linejoin: miter"/>
     <use xlink:href="#m2e2dd4ab88" x="120.508906" y="217.3366" style="fill: #3c33ff; stroke: #000000; stroke-linejoin: miter"/>
     <use xlink:href="#m2e2dd4ab88" x="167.008906" y="162.90996" style="fill: #3c33ff; stroke: #000000; stroke-linejoin: miter"/>
     <use xlink:href="#m2e2dd4ab88" x="260.008906" y="164.387606" style="fill: #3c33ff; stroke: #000000; stroke-linejoin: miter"/>
     <use xlink:href="#m2e2dd4ab88" x="353.008906" y="213.39621" style="fill: #3c33ff; stroke: #000000; stroke-linejoin: miter"/>
    </g>
   </g>
   <g id="patch_3">
    <path d="M 57.733906 364.248 
L 57.733906 48.24 
" style="fill: none; stroke: #000000; stroke-width: 0.8; stroke-linejoin: miter; stroke-linecap: square"/>
   </g>
   <g id="patch_4">
    <path d="M 415.783906 364.248 
L 415.783906 48.24 
" style="fill: none; stroke: #000000; stroke-width: 0.8; stroke-linejoin: miter; stroke-linecap: square"/>
   </g>
   <g id="patch_5">
    <path d="M 57.733906 364.248 
L 415.783906 364.248 
" style="fill: none; stroke: #000000; stroke-width: 0.8; stroke-linejoin: miter; stroke-linecap: square"/>
   </g>
   <g id="patch_6">
    <path d="M 57.733906 48.24 
L 415.783906 48.24 
" style="fill: none; stroke: #000000; stroke-width: 0.8; stroke-linejoin: miter; stroke-linecap: square"/>
   </g>
   <g id="legend_1">
    <g id="patch_7">
     <path d="M 251.608906 114.9525 
L 408.783906 114.9525 
Q 410.783906 114.9525 410.783906 112.9525 
L 410.783906 55.24 
Q 410.783906 53.24 408.783906 53.24 
L 251.608906 53.24 
Q 249.608906 53.24 249.608906 55.24 
L 249.608906 112.9525 
Q 249.608906 114.9525 251.608906 114.9525 
z
" style="fill: #ffffff; opacity: 0.8; stroke: #cccccc; stroke-linejoin: miter"/>
    </g>
    <g id="line2d_15">
     <path d="M 253.608906 61.338437 
L 273.608906 61.338437 
" style="fill: none; stroke: #000000; stroke-width: 2; stroke-linecap: square"/>
    </g>
    <g id="line2d_16"/>
    <g id="text_13">
     <!-- sim: 25mg PO -->
     <g transform="translate(281.608906 64.838437) scale(0.1 -0.1)">
      <defs>
       <path id="DejaVuSans-73" d="M 2834 3397 
L 2834 2853 
Q 2591 2978 2328 3040 
Q 2066 3103 1784 3103 
Q 1356 3103 1142 2972 
Q 928 2841 928 2578 
Q 928 2378 1081 2264 
Q 1234 2150 1697 2047 
L 1894 2003 
Q 2506 1872 2764 1633 
Q 3022 1394 3022 966 
Q 3022 478 2636 193 
Q 2250 -91 1575 -91 
Q 1294 -91 989 -36 
Q 684 19 347 128 
L 347 722 
Q 666 556 975 473 
Q 1284 391 1588 391 
Q 1994 391 2212 530 
Q 2431 669 2431 922 
Q 2431 1156 2273 1281 
Q 2116 1406 1581 1522 
L 1381 1569 
Q 847 1681 609 1914 
Q 372 2147 372 2553 
Q 372 3047 722 3315 
Q 1072 3584 1716 3584 
Q 2034 3584 2315 3537 
Q 2597 3491 2834 3397 
z
" transform="scale(0.015625)"/>
       <path id="DejaVuSans-69" d="M 603 3500 
L 1178 3500 
L 1178 0 
L 603 0 
L 603 3500 
z
M 603 4863 
L 1178 4863 
L 1178 4134 
L 603 4134 
L 603 4863 
z
" transform="scale(0.015625)"/>
       <path id="DejaVuSans-6d" d="M 3328 2828 
Q 3544 3216 3844 3400 
Q 4144 3584 4550 3584 
Q 5097 3584 5394 3201 
Q 5691 2819 5691 2113 
L 5691 0 
L 5113 0 
L 5113 2094 
Q 5113 2597 4934 2840 
Q 4756 3084 4391 3084 
Q 3944 3084 3684 2787 
Q 3425 2491 3425 1978 
L 3425 0 
L 2847 0 
L 2847 2094 
Q 2847 2600 2669 2842 
Q 2491 3084 2119 3084 
Q 1678 3084 1418 2786 
Q 1159 2488 1159 1978 
L 1159 0 
L 581 0 
L 581 3500 
L 1159 3500 
L 1159 2956 
Q 1356 3278 1631 3431 
Q 1906 3584 2284 3584 
Q 2666 3584 2933 3390 
Q 3200 3197 3328 2828 
z
" transform="scale(0.015625)"/>
       <path id="DejaVuSans-3a" d="M 750 794 
L 1409 794 
L 1409 0 
L 750 0 
L 750 794 
z
M 750 3309 
L 1409 3309 
L 1409 2516 
L 750 2516 
L 750 3309 
z
" transform="scale(0.015625)"/>
       <path id="DejaVuSans-20" transform="scale(0.015625)"/>
       <path id="DejaVuSans-35" d="M 691 4666 
L 3169 4666 
L 3169 4134 
L 1269 4134 
L 1269 2991 
Q 1406 3038 1543 3061 
Q 1681 3084 1819 3084 
Q 2600 3084 3056 2656 
Q 3513 2228 3513 1497 
Q 3513 744 3044 326 
Q 2575 -91 1722 -91 
Q 1428 -91 1123 -41 
Q 819 9 494 109 
L 494 744 
Q 775 591 1075 516 
Q 1375 441 1709 441 
Q 2250 441 2565 725 
Q 2881 1009 2881 1497 
Q 2881 1984 2565 2268 
Q 2250 2553 1709 2553 
Q 1456 2553 1204 2497 
Q 953 2441 691 2322 
L 691 4666 
z
" transform="scale(0.015625)"/>
       <path id="DejaVuSans-67" d="M 2906 1791 
Q 2906 2416 2648 2759 
Q 2391 3103 1925 3103 
Q 1463 3103 1205 2759 
Q 947 2416 947 1791 
Q 947 1169 1205 825 
Q 1463 481 1925 481 
Q 2391 481 2648 825 
Q 2906 1169 2906 1791 
z
M 3481 434 
Q 3481 -459 3084 -895 
Q 2688 -1331 1869 -1331 
Q 1566 -1331 1297 -1286 
Q 1028 -1241 775 -1147 
L 775 -588 
Q 1028 -725 1275 -790 
Q 1522 -856 1778 -856 
Q 2344 -856 2625 -561 
Q 2906 -266 2906 331 
L 2906 616 
Q 2728 306 2450 153 
Q 2172 0 1784 0 
Q 1141 0 747 490 
Q 353 981 353 1791 
Q 353 2603 747 3093 
Q 1141 3584 1784 3584 
Q 2172 3584 2450 3431 
Q 2728 3278 2906 2969 
L 2906 3500 
L 3481 3500 
L 3481 434 
z
" transform="scale(0.015625)"/>
       <path id="DejaVuSans-50" d="M 1259 4147 
L 1259 2394 
L 2053 2394 
Q 2494 2394 2734 2622 
Q 2975 2850 2975 3272 
Q 2975 3691 2734 3919 
Q 2494 4147 2053 4147 
L 1259 4147 
z
M 628 4666 
L 2053 4666 
Q 2838 4666 3239 4311 
Q 3641 3956 3641 3272 
Q 3641 2581 3239 2228 
Q 2838 1875 2053 1875 
L 1259 1875 
L 1259 0 
L 628 0 
L 628 4666 
z
" transform="scale(0.015625)"/>
       <path id="DejaVuSans-4f" d="M 2522 4238 
Q 1834 4238 1429 3725 
Q 1025 3213 1025 2328 
Q 1025 1447 1429 934 
Q 1834 422 2522 422 
Q 3209 422 3611 934 
Q 4013 1447 4013 2328 
Q 4013 3213 3611 3725 
Q 3209 4238 2522 4238 
z
M 2522 4750 
Q 3503 4750 4090 4092 
Q 4678 3434 4678 2328 
Q 4678 1225 4090 567 
Q 3503 -91 2522 -91 
Q 1538 -91 948 565 
Q 359 1222 359 2328 
Q 359 3434 948 4092 
Q 1538 4750 2522 4750 
z
" transform="scale(0.015625)"/>
      </defs>
      <use xlink:href="#DejaVuSans-73"/>
      <use xlink:href="#DejaVuSans-69" transform="translate(52.099609 0)"/>
      <use xlink:href="#DejaVuSans-6d" transform="translate(79.882812 0)"/>
      <use xlink:href="#DejaVuSans-3a" transform="translate(177.294922 0)"/>
      <use xlink:href="#DejaVuSans-20" transform="translate(210.986328 0)"/>
      <use xlink:href="#DejaVuSans-32" transform="translate(242.773438 0)"/>
      <use xlink:href="#DejaVuSans-35" transform="translate(306.396484 0)"/>
      <use xlink:href="#DejaVuSans-6d" transform="translate(370.019531 0)"/>
      <use xlink:href="#DejaVuSans-67" transform="translate(467.431641 0)"/>
      <use xlink:href="#DejaVuSans-20" transform="translate(530.908203 0)"/>
      <use xlink:href="#DejaVuSans-50" transform="translate(562.695312 0)"/>
      <use xlink:href="#DejaVuSans-4f" transform="translate(622.998047 0)"/>
     </g>
    </g>
    <g id="line2d_17">
     <path d="M 253.608906 76.016562 
L 273.608906 76.016562 
" style="fill: none; stroke: #3c33ff; stroke-width: 2; stroke-linecap: square"/>
    </g>
    <g id="line2d_18"/>
    <g id="text_14">
     <!-- sim: 25mg SL -->
     <g transform="translate(281.608906 79.516562) scale(0.1 -0.1)">
      <defs>
       <path id="DejaVuSans-53" d="M 3425 4513 
L 3425 3897 
Q 3066 4069 2747 4153 
Q 2428 4238 2131 4238 
Q 1616 4238 1336 4038 
Q 1056 3838 1056 3469 
Q 1056 3159 1242 3001 
Q 1428 2844 1947 2747 
L 2328 2669 
Q 3034 2534 3370 2195 
Q 3706 1856 3706 1288 
Q 3706 609 3251 259 
Q 2797 -91 1919 -91 
Q 1588 -91 1214 -16 
Q 841 59 441 206 
L 441 856 
Q 825 641 1194 531 
Q 1563 422 1919 422 
Q 2459 422 2753 634 
Q 3047 847 3047 1241 
Q 3047 1584 2836 1778 
Q 2625 1972 2144 2069 
L 1759 2144 
Q 1053 2284 737 2584 
Q 422 2884 422 3419 
Q 422 4038 858 4394 
Q 1294 4750 2059 4750 
Q 2388 4750 2728 4690 
Q 3069 4631 3425 4513 
z
" transform="scale(0.015625)"/>
       <path id="DejaVuSans-4c" d="M 628 4666 
L 1259 4666 
L 1259 531 
L 3531 531 
L 3531 0 
L 628 0 
L 628 4666 
z
" transform="scale(0.015625)"/>
      </defs>
      <use xlink:href="#DejaVuSans-73"/>
      <use xlink:href="#DejaVuSans-69" transform="translate(52.099609 0)"/>
      <use xlink:href="#DejaVuSans-6d" transform="translate(79.882812 0)"/>
      <use xlink:href="#DejaVuSans-3a" transform="translate(177.294922 0)"/>
      <use xlink:href="#DejaVuSans-20" transform="translate(210.986328 0)"/>
      <use xlink:href="#DejaVuSans-32" transform="translate(242.773438 0)"/>
      <use xlink:href="#DejaVuSans-35" transform="translate(306.396484 0)"/>
      <use xlink:href="#DejaVuSans-6d" transform="translate(370.019531 0)"/>
      <use xlink:href="#DejaVuSans-67" transform="translate(467.431641 0)"/>
      <use xlink:href="#DejaVuSans-20" transform="translate(530.908203 0)"/>
      <use xlink:href="#DejaVuSans-53" transform="translate(562.695312 0)"/>
      <use xlink:href="#DejaVuSans-4c" transform="translate(626.171875 0)"/>
     </g>
    </g>
    <g id="LineCollection_3">
     <path d="M 263.608906 95.694687 
L 263.608906 85.694687 
" style="fill: none; stroke: #000000"/>
    </g>
    <g id="line2d_19">
     <path d="M 253.608906 90.694687 
L 273.608906 90.694687 
" style="fill: none; stroke-dasharray: 3.7,1.6; stroke-dashoffset: 0; stroke: #000000"/>
    </g>
    <g id="line2d_20">
     <g>
      <use xlink:href="#mdd28a05c3d" x="263.608906" y="90.694687" style="stroke: #000000; stroke-linejoin: miter"/>
     </g>
    </g>
    <g id="text_15">
     <!-- exp: 25mg PO±SD (n=8) -->
     <g transform="translate(281.608906 94.194687) scale(0.1 -0.1)">
      <defs>
       <path id="DejaVuSans-65" d="M 3597 1894 
L 3597 1613 
L 953 1613 
Q 991 1019 1311 708 
Q 1631 397 2203 397 
Q 2534 397 2845 478 
Q 3156 559 3463 722 
L 3463 178 
Q 3153 47 2828 -22 
Q 2503 -91 2169 -91 
Q 1331 -91 842 396 
Q 353 884 353 1716 
Q 353 2575 817 3079 
Q 1281 3584 2069 3584 
Q 2775 3584 3186 3129 
Q 3597 2675 3597 1894 
z
M 3022 2063 
Q 3016 2534 2758 2815 
Q 2500 3097 2075 3097 
Q 1594 3097 1305 2825 
Q 1016 2553 972 2059 
L 3022 2063 
z
" transform="scale(0.015625)"/>
       <path id="DejaVuSans-78" d="M 3513 3500 
L 2247 1797 
L 3578 0 
L 2900 0 
L 1881 1375 
L 863 0 
L 184 0 
L 1544 1831 
L 300 3500 
L 978 3500 
L 1906 2253 
L 2834 3500 
L 3513 3500 
z
" transform="scale(0.015625)"/>
       <path id="DejaVuSans-70" d="M 1159 525 
L 1159 -1331 
L 581 -1331 
L 581 3500 
L 1159 3500 
L 1159 2969 
Q 1341 3281 1617 3432 
Q 1894 3584 2278 3584 
Q 2916 3584 3314 3078 
Q 3713 2572 3713 1747 
Q 3713 922 3314 415 
Q 2916 -91 2278 -91 
Q 1894 -91 1617 61 
Q 1341 213 1159 525 
z
M 3116 1747 
Q 3116 2381 2855 2742 
Q 2594 3103 2138 3103 
Q 1681 3103 1420 2742 
Q 1159 2381 1159 1747 
Q 1159 1113 1420 752 
Q 1681 391 2138 391 
Q 2594 391 2855 752 
Q 3116 1113 3116 1747 
z
" transform="scale(0.015625)"/>
       <path id="DejaVuSans-b1" d="M 2944 4013 
L 2944 2803 
L 4684 2803 
L 4684 2272 
L 2944 2272 
L 2944 1063 
L 2419 1063 
L 2419 2272 
L 678 2272 
L 678 2803 
L 2419 2803 
L 2419 4013 
L 2944 4013 
z
M 678 531 
L 4684 531 
L 4684 0 
L 678 0 
L 678 531 
z
" transform="scale(0.015625)"/>
       <path id="DejaVuSans-44" d="M 1259 4147 
L 1259 519 
L 2022 519 
Q 2988 519 3436 956 
Q 3884 1394 3884 2338 
Q 3884 3275 3436 3711 
Q 2988 4147 2022 4147 
L 1259 4147 
z
M 628 4666 
L 1925 4666 
Q 3281 4666 3915 4102 
Q 4550 3538 4550 2338 
Q 4550 1131 3912 565 
Q 3275 0 1925 0 
L 628 0 
L 628 4666 
z
" transform="scale(0.015625)"/>
       <path id="DejaVuSans-28" d="M 1984 4856 
Q 1566 4138 1362 3434 
Q 1159 2731 1159 2009 
Q 1159 1288 1364 580 
Q 1569 -128 1984 -844 
L 1484 -844 
Q 1016 -109 783 600 
Q 550 1309 550 2009 
Q 550 2706 781 3412 
Q 1013 4119 1484 4856 
L 1984 4856 
z
" transform="scale(0.015625)"/>
       <path id="DejaVuSans-6e" d="M 3513 2113 
L 3513 0 
L 2938 0 
L 2938 2094 
Q 2938 2591 2744 2837 
Q 2550 3084 2163 3084 
Q 1697 3084 1428 2787 
Q 1159 2491 1159 1978 
L 1159 0 
L 581 0 
L 581 3500 
L 1159 3500 
L 1159 2956 
Q 1366 3272 1645 3428 
Q 1925 3584 2291 3584 
Q 2894 3584 3203 3211 
Q 3513 2838 3513 2113 
z
" transform="scale(0.015625)"/>
       <path id="DejaVuSans-3d" d="M 678 2906 
L 4684 2906 
L 4684 2381 
L 678 2381 
L 678 2906 
z
M 678 1631 
L 4684 1631 
L 4684 1100 
L 678 1100 
L 678 1631 
z
" transform="scale(0.015625)"/>
       <path id="DejaVuSans-38" d="M 2034 2216 
Q 1584 2216 1326 1975 
Q 1069 1734 1069 1313 
Q 1069 891 1326 650 
Q 1584 409 2034 409 
Q 2484 409 2743 651 
Q 3003 894 3003 1313 
Q 3003 1734 2745 1975 
Q 2488 2216 2034 2216 
z
M 1403 2484 
Q 997 2584 770 2862 
Q 544 3141 544 3541 
Q 544 4100 942 4425 
Q 1341 4750 2034 4750 
Q 2731 4750 3128 4425 
Q 3525 4100 3525 3541 
Q 3525 3141 3298 2862 
Q 3072 2584 2669 2484 
Q 3125 2378 3379 2068 
Q 3634 1759 3634 1313 
Q 3634 634 3220 271 
Q 2806 -91 2034 -91 
Q 1263 -91 848 271 
Q 434 634 434 1313 
Q 434 1759 690 2068 
Q 947 2378 1403 2484 
z
M 1172 3481 
Q 1172 3119 1398 2916 
Q 1625 2713 2034 2713 
Q 2441 2713 2670 2916 
Q 2900 3119 2900 3481 
Q 2900 3844 2670 4047 
Q 2441 4250 2034 4250 
Q 1625 4250 1398 4047 
Q 1172 3844 1172 3481 
z
" transform="scale(0.015625)"/>
       <path id="DejaVuSans-29" d="M 513 4856 
L 1013 4856 
Q 1481 4119 1714 3412 
Q 1947 2706 1947 2009 
Q 1947 1309 1714 600 
Q 1481 -109 1013 -844 
L 513 -844 
Q 928 -128 1133 580 
Q 1338 1288 1338 2009 
Q 1338 2731 1133 3434 
Q 928 4138 513 4856 
z
" transform="scale(0.015625)"/>
      </defs>
      <use xlink:href="#DejaVuSans-65"/>
      <use xlink:href="#DejaVuSans-78" transform="translate(59.773438 0)"/>
      <use xlink:href="#DejaVuSans-70" transform="translate(118.953125 0)"/>
      <use xlink:href="#DejaVuSans-3a" transform="translate(182.429688 0)"/>
      <use xlink:href="#DejaVuSans-20" transform="translate(216.121094 0)"/>
      <use xlink:href="#DejaVuSans-32" transform="translate(247.908203 0)"/>
      <use xlink:href="#DejaVuSans-35" transform="translate(311.53125 0)"/>
      <use xlink:href="#DejaVuSans-6d" transform="translate(375.154297 0)"/>
      <use xlink:href="#DejaVuSans-67" transform="translate(472.566406 0)"/>
      <use xlink:href="#DejaVuSans-20" transform="translate(536.042969 0)"/>
      <use xlink:href="#DejaVuSans-50" transform="translate(567.830078 0)"/>
      <use xlink:href="#DejaVuSans-4f" transform="translate(628.132812 0)"/>
      <use xlink:href="#DejaVuSans-b1" transform="translate(706.84375 0)"/>
      <use xlink:href="#DejaVuSans-53" transform="translate(790.632812 0)"/>
      <use xlink:href="#DejaVuSans-44" transform="translate(854.109375 0)"/>
      <use xlink:href="#DejaVuSans-20" transform="translate(931.111328 0)"/>
      <use xlink:href="#DejaVuSans-28" transform="translate(962.898438 0)"/>
      <use xlink:href="#DejaVuSans-6e" transform="translate(1001.912109 0)"/>
      <use xlink:href="#DejaVuSans-3d" transform="translate(1065.291016 0)"/>
      <use xlink:href="#DejaVuSans-38" transform="translate(1149.080078 0)"/>
      <use xlink:href="#DejaVuSans-29" transform="translate(1212.703125 0)"/>
     </g>
    </g>
    <g id="LineCollection_4">
     <path d="M 263.608906 110.372812 
L 263.608906 100.372812 
" style="fill: none; stroke: #3c33ff"/>
    </g>
    <g id="line2d_21">
     <path d="M 253.608906 105.372812 
L 273.608906 105.372812 
" style="fill: none; stroke-dasharray: 3.7,1.6; stroke-dashoffset: 0; stroke: #3c33ff"/>
    </g>
    <g id="line2d_22">
     <g>
      <use xlink:href="#m2e2dd4ab88" x="263.608906" y="105.372812" style="fill: #3c33ff; stroke: #000000; stroke-linejoin: miter"/>
     </g>
    </g>
    <g id="text_16">
     <!-- exp: 25mg SL±SD (n=8) -->
     <g transform="translate(281.608906 108.872812) scale(0.1 -0.1)">
      <use xlink:href="#DejaVuSans-65"/>
      <use xlink:href="#DejaVuSans-78" transform="translate(59.773438 0)"/>
      <use xlink:href="#DejaVuSans-70" transform="translate(118.953125 0)"/>
      <use xlink:href="#DejaVuSans-3a" transform="translate(182.429688 0)"/>
      <use xlink:href="#DejaVuSans-20" transform="translate(216.121094 0)"/>
      <use xlink:href="#DejaVuSans-32" transform="translate(247.908203 0)"/>
      <use xlink:href="#DejaVuSans-35" transform="translate(311.53125 0)"/>
      <use xlink:href="#DejaVuSans-6d" transform="translate(375.154297 0)"/>
      <use xlink:href="#DejaVuSans-67" transform="translate(472.566406 0)"/>
      <use xlink:href="#DejaVuSans-20" transform="translate(536.042969 0)"/>
      <use xlink:href="#DejaVuSans-53" transform="translate(567.830078 0)"/>
      <use xlink:href="#DejaVuSans-4c" transform="translate(631.306641 0)"/>
      <use xlink:href="#DejaVuSans-b1" transform="translate(687.019531 0)"/>
      <use xlink:href="#DejaVuSans-53" transform="translate(770.808594 0)"/>
      <use xlink:href="#DejaVuSans-44" transform="translate(834.285156 0)"/>
      <use xlink:href="#DejaVuSans-20" transform="translate(911.287109 0)"/>
      <use xlink:href="#DejaVuSans-28" transform="translate(943.074219 0)"/>
      <use xlink:href="#DejaVuSans-6e" transform="translate(982.087891 0)"/>
      <use xlink:href="#DejaVuSans-3d" transform="translate(1045.466797 0)"/>
      <use xlink:href="#DejaVuSans-38" transform="translate(1129.255859 0)"/>
      <use xlink:href="#DejaVuSans-29" transform="translate(1192.878906 0)"/>
     </g>
    </g>
   </g>
  </g>
  <g id="axes_2">
   <g id="patch_8">
    <path d="M 523.198906 364.248 
L 881.248906 364.248 
L 881.248906 48.24 
L 523.198906 48.24 
z
" style="fill: #ffffff"/>
   </g>
   <g id="matplotlib.axis_3">
    <g id="xtick_5">
     <g id="line2d_23">
      <g>
       <use xlink:href="#m075a8de616" x="539.473906" y="364.248" style="stroke: #000000; stroke-width: 0.8"/>
      </g>
     </g>
     <g id="text_17">
      <!-- 0 -->
      <g transform="translate(534.702031 382.645656) scale(0.15 -0.15)">
       <use xlink:href="#DejaVuSans-30"/>
      </g>
     </g>
    </g>
    <g id="xtick_6">
     <g id="line2d_24">
      <g>
       <use xlink:href="#m075a8de616" x="632.473906" y="364.248" style="stroke: #000000; stroke-width: 0.8"/>
      </g>
     </g>
     <g id="text_18">
      <!-- 1 -->
      <g transform="translate(627.702031 382.645656) scale(0.15 -0.15)">
       <use xlink:href="#DejaVuSans-31"/>
      </g>
     </g>
    </g>
    <g id="xtick_7">
     <g id="line2d_25">
      <g>
       <use xlink:href="#m075a8de616" x="725.473906" y="364.248" style="stroke: #000000; stroke-width: 0.8"/>
      </g>
     </g>
     <g id="text_19">
      <!-- 2 -->
      <g transform="translate(720.702031 382.645656) scale(0.15 -0.15)">
       <use xlink:href="#DejaVuSans-32"/>
      </g>
     </g>
    </g>
    <g id="xtick_8">
     <g id="line2d_26">
      <g>
       <use xlink:href="#m075a8de616" x="818.473906" y="364.248" style="stroke: #000000; stroke-width: 0.8"/>
      </g>
     </g>
     <g id="text_20">
      <!-- 3 -->
      <g transform="translate(813.702031 382.645656) scale(0.15 -0.15)">
       <use xlink:href="#DejaVuSans-33"/>
      </g>
     </g>
    </g>
    <g id="text_21">
     <!-- time [hr] -->
     <g transform="translate(657.149375 403.442375) scale(0.18 -0.18)">
      <use xlink:href="#DejaVuSans-Bold-74"/>
      <use xlink:href="#DejaVuSans-Bold-69" transform="translate(47.802734 0)"/>
      <use xlink:href="#DejaVuSans-Bold-6d" transform="translate(82.080078 0)"/>
      <use xlink:href="#DejaVuSans-Bold-65" transform="translate(186.279297 0)"/>
      <use xlink:href="#DejaVuSans-Bold-20" transform="translate(254.101562 0)"/>
      <use xlink:href="#DejaVuSans-Bold-5b" transform="translate(288.916016 0)"/>
      <use xlink:href="#DejaVuSans-Bold-68" transform="translate(334.619141 0)"/>
      <use xlink:href="#DejaVuSans-Bold-72" transform="translate(405.810547 0)"/>
      <use xlink:href="#DejaVuSans-Bold-5d" transform="translate(455.126953 0)"/>
     </g>
    </g>
   </g>
   <g id="matplotlib.axis_4">
    <g id="ytick_7">
     <g id="line2d_27">
      <g>
       <use xlink:href="#m089debc7a2" x="523.198906" y="313.667077" style="stroke: #000000; stroke-width: 0.8"/>
      </g>
     </g>
     <g id="text_22">
      <!-- 90 -->
      <g transform="translate(497.111406 319.365905) scale(0.15 -0.15)">
       <defs>
        <path id="DejaVuSans-39" d="M 703 97 
L 703 672 
Q 941 559 1184 500 
Q 1428 441 1663 441 
Q 2288 441 2617 861 
Q 2947 1281 2994 2138 
Q 2813 1869 2534 1725 
Q 2256 1581 1919 1581 
Q 1219 1581 811 2004 
Q 403 2428 403 3163 
Q 403 3881 828 4315 
Q 1253 4750 1959 4750 
Q 2769 4750 3195 4129 
Q 3622 3509 3622 2328 
Q 3622 1225 3098 567 
Q 2575 -91 1691 -91 
Q 1453 -91 1209 -44 
Q 966 3 703 97 
z
M 1959 2075 
Q 2384 2075 2632 2365 
Q 2881 2656 2881 3163 
Q 2881 3666 2632 3958 
Q 2384 4250 1959 4250 
Q 1534 4250 1286 3958 
Q 1038 3666 1038 3163 
Q 1038 2656 1286 2365 
Q 1534 2075 1959 2075 
z
" transform="scale(0.015625)"/>
       </defs>
       <use xlink:href="#DejaVuSans-39"/>
       <use xlink:href="#DejaVuSans-30" transform="translate(63.623047 0)"/>
      </g>
     </g>
    </g>
    <g id="ytick_8">
     <g id="line2d_28">
      <g>
       <use xlink:href="#m089debc7a2" x="523.198906" y="252.282462" style="stroke: #000000; stroke-width: 0.8"/>
      </g>
     </g>
     <g id="text_23">
      <!-- 100 -->
      <g transform="translate(487.567656 257.98129) scale(0.15 -0.15)">
       <use xlink:href="#DejaVuSans-31"/>
       <use xlink:href="#DejaVuSans-30" transform="translate(63.623047 0)"/>
       <use xlink:href="#DejaVuSans-30" transform="translate(127.246094 0)"/>
      </g>
     </g>
    </g>
    <g id="ytick_9">
     <g id="line2d_29">
      <g>
       <use xlink:href="#m089debc7a2" x="523.198906" y="190.897846" style="stroke: #000000; stroke-width: 0.8"/>
      </g>
     </g>
     <g id="text_24">
      <!-- 110 -->
      <g transform="translate(487.567656 196.596674) scale(0.15 -0.15)">
       <use xlink:href="#DejaVuSans-31"/>
       <use xlink:href="#DejaVuSans-31" transform="translate(63.623047 0)"/>
       <use xlink:href="#DejaVuSans-30" transform="translate(127.246094 0)"/>
      </g>
     </g>
    </g>
    <g id="ytick_10">
     <g id="line2d_30">
      <g>
       <use xlink:href="#m089debc7a2" x="523.198906" y="129.513231" style="stroke: #000000; stroke-width: 0.8"/>
      </g>
     </g>
     <g id="text_25">
      <!-- 120 -->
      <g transform="translate(487.567656 135.212059) scale(0.15 -0.15)">
       <use xlink:href="#DejaVuSans-31"/>
       <use xlink:href="#DejaVuSans-32" transform="translate(63.623047 0)"/>
       <use xlink:href="#DejaVuSans-30" transform="translate(127.246094 0)"/>
      </g>
     </g>
    </g>
    <g id="ytick_11">
     <g id="line2d_31">
      <g>
       <use xlink:href="#m089debc7a2" x="523.198906" y="68.128615" style="stroke: #000000; stroke-width: 0.8"/>
      </g>
     </g>
     <g id="text_26">
      <!-- 130 -->
      <g transform="translate(487.567656 73.827444) scale(0.15 -0.15)">
       <use xlink:href="#DejaVuSans-31"/>
       <use xlink:href="#DejaVuSans-33" transform="translate(63.623047 0)"/>
       <use xlink:href="#DejaVuSans-30" transform="translate(127.246094 0)"/>
      </g>
     </g>
    </g>
    <g id="text_27">
     <!-- SBP [mmHg] -->
     <g transform="translate(479.683594 270.271969) rotate(-90) scale(0.18 -0.18)">
      <defs>
       <path id="DejaVuSans-Bold-53" d="M 3834 4519 
L 3834 3531 
Q 3450 3703 3084 3790 
Q 2719 3878 2394 3878 
Q 1963 3878 1756 3759 
Q 1550 3641 1550 3391 
Q 1550 3203 1689 3098 
Q 1828 2994 2194 2919 
L 2706 2816 
Q 3484 2659 3812 2340 
Q 4141 2022 4141 1434 
Q 4141 663 3683 286 
Q 3225 -91 2284 -91 
Q 1841 -91 1394 -6 
Q 947 78 500 244 
L 500 1259 
Q 947 1022 1364 901 
Q 1781 781 2169 781 
Q 2563 781 2772 912 
Q 2981 1044 2981 1288 
Q 2981 1506 2839 1625 
Q 2697 1744 2272 1838 
L 1806 1941 
Q 1106 2091 782 2419 
Q 459 2747 459 3303 
Q 459 4000 909 4375 
Q 1359 4750 2203 4750 
Q 2588 4750 2994 4692 
Q 3400 4634 3834 4519 
z
" transform="scale(0.015625)"/>
       <path id="DejaVuSans-Bold-42" d="M 2456 2859 
Q 2741 2859 2887 2984 
Q 3034 3109 3034 3353 
Q 3034 3594 2887 3720 
Q 2741 3847 2456 3847 
L 1791 3847 
L 1791 2859 
L 2456 2859 
z
M 2497 819 
Q 2859 819 3042 972 
Q 3225 1125 3225 1434 
Q 3225 1738 3044 1889 
Q 2863 2041 2497 2041 
L 1791 2041 
L 1791 819 
L 2497 819 
z
M 3616 2497 
Q 4003 2384 4215 2081 
Q 4428 1778 4428 1338 
Q 4428 663 3972 331 
Q 3516 0 2584 0 
L 588 0 
L 588 4666 
L 2394 4666 
Q 3366 4666 3802 4372 
Q 4238 4078 4238 3431 
Q 4238 3091 4078 2852 
Q 3919 2613 3616 2497 
z
" transform="scale(0.015625)"/>
       <path id="DejaVuSans-Bold-50" d="M 588 4666 
L 2584 4666 
Q 3475 4666 3951 4270 
Q 4428 3875 4428 3144 
Q 4428 2409 3951 2014 
Q 3475 1619 2584 1619 
L 1791 1619 
L 1791 0 
L 588 0 
L 588 4666 
z
M 1791 3794 
L 1791 2491 
L 2456 2491 
Q 2806 2491 2997 2661 
Q 3188 2831 3188 3144 
Q 3188 3456 2997 3625 
Q 2806 3794 2456 3794 
L 1791 3794 
z
" transform="scale(0.015625)"/>
       <path id="DejaVuSans-Bold-48" d="M 588 4666 
L 1791 4666 
L 1791 2888 
L 3566 2888 
L 3566 4666 
L 4769 4666 
L 4769 0 
L 3566 0 
L 3566 1978 
L 1791 1978 
L 1791 0 
L 588 0 
L 588 4666 
z
" transform="scale(0.015625)"/>
       <path id="DejaVuSans-Bold-67" d="M 2919 594 
Q 2688 288 2409 144 
Q 2131 0 1766 0 
Q 1125 0 706 504 
Q 288 1009 288 1791 
Q 288 2575 706 3076 
Q 1125 3578 1766 3578 
Q 2131 3578 2409 3434 
Q 2688 3291 2919 2981 
L 2919 3500 
L 4044 3500 
L 4044 353 
Q 4044 -491 3511 -936 
Q 2978 -1381 1966 -1381 
Q 1638 -1381 1331 -1331 
Q 1025 -1281 716 -1178 
L 716 -306 
Q 1009 -475 1290 -558 
Q 1572 -641 1856 -641 
Q 2406 -641 2662 -400 
Q 2919 -159 2919 353 
L 2919 594 
z
M 2181 2772 
Q 1834 2772 1640 2515 
Q 1447 2259 1447 1791 
Q 1447 1309 1634 1061 
Q 1822 813 2181 813 
Q 2531 813 2725 1069 
Q 2919 1325 2919 1791 
Q 2919 2259 2725 2515 
Q 2531 2772 2181 2772 
z
" transform="scale(0.015625)"/>
      </defs>
      <use xlink:href="#DejaVuSans-Bold-53"/>
      <use xlink:href="#DejaVuSans-Bold-42" transform="translate(72.021484 0)"/>
      <use xlink:href="#DejaVuSans-Bold-50" transform="translate(148.242188 0)"/>
      <use xlink:href="#DejaVuSans-Bold-20" transform="translate(221.533203 0)"/>
      <use xlink:href="#DejaVuSans-Bold-5b" transform="translate(256.347656 0)"/>
      <use xlink:href="#DejaVuSans-Bold-6d" transform="translate(302.050781 0)"/>
      <use xlink:href="#DejaVuSans-Bold-6d" transform="translate(406.25 0)"/>
      <use xlink:href="#DejaVuSans-Bold-48" transform="translate(510.449219 0)"/>
      <use xlink:href="#DejaVuSans-Bold-67" transform="translate(594.140625 0)"/>
      <use xlink:href="#DejaVuSans-Bold-5d" transform="translate(665.722656 0)"/>
     </g>
    </g>
   </g>
   <g id="LineCollection_5">
    <path d="M 539.473906 230.184 
L 539.473906 65.673231 
" clip-path="url(#p76fce39652)" style="fill: none; stroke: #000000"/>
    <path d="M 547.223906 220.976308 
L 547.223906 62.604 
" clip-path="url(#p76fce39652)" style="fill: none; stroke: #000000"/>
    <path d="M 554.973906 280.519385 
L 554.973906 76.722462 
" clip-path="url(#p76fce39652)" style="fill: none; stroke: #000000"/>
    <path d="M 562.723906 306.300923 
L 562.723906 87.771692 
" clip-path="url(#p76fce39652)" style="fill: none; stroke: #000000"/>
    <path d="M 570.473906 308.142462 
L 570.473906 98.207077 
" clip-path="url(#p76fce39652)" style="fill: none; stroke: #000000"/>
    <path d="M 578.223906 324.102462 
L 578.223906 94.524 
" clip-path="url(#p76fce39652)" style="fill: none; stroke: #000000"/>
    <path d="M 585.973906 315.508615 
L 585.973906 127.671692 
" clip-path="url(#p76fce39652)" style="fill: none; stroke: #000000"/>
    <path d="M 601.473906 309.984 
L 601.473906 120.919385 
" clip-path="url(#p76fce39652)" style="fill: none; stroke: #000000"/>
    <path d="M 632.473906 276.222462 
L 632.473906 130.127077 
" clip-path="url(#p76fce39652)" style="fill: none; stroke: #000000"/>
    <path d="M 678.973906 277.450154 
L 678.973906 153.453231 
" clip-path="url(#p76fce39652)" style="fill: none; stroke: #000000"/>
    <path d="M 725.473906 325.944 
L 725.473906 201.947077 
" clip-path="url(#p76fce39652)" style="fill: none; stroke: #000000"/>
    <path d="M 818.473906 349.884 
L 818.473906 180.462462 
" clip-path="url(#p76fce39652)" style="fill: none; stroke: #000000"/>
   </g>
   <g id="LineCollection_6">
    <path d="M 539.473906 225.887077 
L 539.473906 119.077846 
" clip-path="url(#p76fce39652)" style="fill: none; stroke: #3c33ff"/>
    <path d="M 547.223906 232.025538 
L 547.223906 125.216308 
" clip-path="url(#p76fce39652)" style="fill: none; stroke: #3c33ff"/>
    <path d="M 554.973906 265.173231 
L 554.973906 141.176308 
" clip-path="url(#p76fce39652)" style="fill: none; stroke: #3c33ff"/>
    <path d="M 562.723906 293.410154 
L 562.723906 137.493231 
" clip-path="url(#p76fce39652)" style="fill: none; stroke: #3c33ff"/>
    <path d="M 570.473906 307.528615 
L 570.473906 172.482462 
" clip-path="url(#p76fce39652)" style="fill: none; stroke: #3c33ff"/>
    <path d="M 578.223906 300.162462 
L 578.223906 155.294769 
" clip-path="url(#p76fce39652)" style="fill: none; stroke: #3c33ff"/>
    <path d="M 585.973906 325.944 
L 585.973906 178.620923 
" clip-path="url(#p76fce39652)" style="fill: none; stroke: #3c33ff"/>
    <path d="M 601.473906 313.667077 
L 601.473906 166.344 
" clip-path="url(#p76fce39652)" style="fill: none; stroke: #3c33ff"/>
    <path d="M 632.473906 340.062462 
L 632.473906 180.462462 
" clip-path="url(#p76fce39652)" style="fill: none; stroke: #3c33ff"/>
    <path d="M 678.973906 339.448615 
L 678.973906 179.848615 
" clip-path="url(#p76fce39652)" style="fill: none; stroke: #3c33ff"/>
    <path d="M 725.473906 331.468615 
L 725.473906 179.234769 
" clip-path="url(#p76fce39652)" style="fill: none; stroke: #3c33ff"/>
    <path d="M 818.473906 313.667077 
L 818.473906 129.513231 
" clip-path="url(#p76fce39652)" style="fill: none; stroke: #3c33ff"/>
   </g>
   <g id="line2d_32">
    <path d="M 539.473906 147.928615 
L 540.287656 148.003371 
L 541.101406 148.549702 
L 541.915156 149.64154 
L 542.728906 151.161882 
L 544.356406 155.032897 
L 546.797656 161.830997 
L 554.935156 185.203861 
L 559.003906 196.078618 
L 563.072656 206.286213 
L 567.141406 215.837157 
L 571.210156 224.754268 
L 575.278906 233.063799 
L 579.347656 240.792484 
L 583.416406 247.966327 
L 587.485156 254.610041 
L 591.553906 260.74679 
L 595.622656 266.398062 
L 599.691406 271.583639 
L 602.946406 275.409012 
L 606.201406 278.95645 
L 609.456406 282.233802 
L 612.711406 285.248298 
L 615.966406 288.006579 
L 619.221406 290.514738 
L 622.476406 292.778365 
L 625.731406 294.80259 
L 628.986406 296.592134 
L 632.241406 298.151365 
L 635.496406 299.484348 
L 638.751406 300.594906 
L 642.006406 301.486674 
L 645.261406 302.163154 
L 648.516406 302.627772 
L 651.771406 302.883923 
L 655.026406 302.935023 
L 658.281406 302.784543 
L 661.536406 302.436049 
L 664.791406 301.893227 
L 668.046406 301.159902 
L 671.301406 300.240056 
L 675.370156 298.834278 
L 679.438906 297.151995 
L 683.507656 295.202044 
L 687.576406 292.993621 
L 691.645156 290.536243 
L 695.713906 287.839705 
L 700.596406 284.302293 
L 705.478906 280.452592 
L 710.361406 276.308532 
L 715.243906 271.888213 
L 720.940156 266.406281 
L 726.636406 260.602002 
L 733.146406 253.610823 
L 739.656406 246.279088 
L 746.980156 237.676626 
L 755.117656 227.748391 
L 764.068906 216.470681 
L 775.461406 201.738106 
L 817.776406 146.587837 
L 827.541406 134.450615 
L 835.678906 124.670665 
L 843.816406 115.250023 
L 851.140156 107.117222 
L 857.650156 100.188596 
L 864.160156 93.562479 
L 864.973906 92.756331 
L 864.973906 92.756331 
" clip-path="url(#p76fce39652)" style="fill: none; stroke: #000000; stroke-width: 2; stroke-linecap: square"/>
   </g>
   <g id="line2d_33">
    <path d="M 539.473906 172.482462 
L 540.287656 172.602343 
L 541.101406 173.106383 
L 541.915156 173.995942 
L 542.728906 175.202549 
L 544.356406 178.28492 
L 546.797656 183.824973 
L 559.817656 215.000843 
L 563.886406 223.835209 
L 567.955156 232.119591 
L 572.023906 239.856876 
L 576.092656 247.05862 
L 580.161406 253.740395 
L 584.230156 259.9196 
L 588.298906 265.614334 
L 592.367656 270.842765 
L 595.622656 274.701809 
L 598.877656 278.282824 
L 602.132656 281.594527 
L 605.387656 284.64539 
L 608.642656 287.443635 
L 611.897656 289.997243 
L 615.152656 292.313965 
L 618.407656 294.401339 
L 621.662656 296.266711 
L 624.917656 297.917255 
L 628.172656 299.359994 
L 631.427656 300.601825 
L 634.682656 301.649533 
L 638.751406 302.696375 
L 642.820156 303.463268 
L 646.888906 303.962974 
L 650.957656 304.208132 
L 655.026406 304.211265 
L 659.095156 303.984789 
L 663.163906 303.540998 
L 667.232656 302.892047 
L 672.115156 301.859371 
L 676.997656 300.568882 
L 681.880156 299.040457 
L 686.762656 297.293411 
L 692.458906 295.003764 
L 698.155156 292.470388 
L 704.665156 289.31124 
L 711.175156 285.906866 
L 718.498906 281.827527 
L 726.636406 277.038821 
L 736.401406 271.013336 
L 747.793906 263.706451 
L 763.255156 253.507023 
L 803.942656 226.546906 
L 818.590156 217.169343 
L 831.610156 209.085565 
L 843.816406 201.757036 
L 856.022656 194.694498 
L 864.973906 189.69494 
L 864.973906 189.69494 
" clip-path="url(#p76fce39652)" style="fill: none; stroke: #3c33ff; stroke-width: 2; stroke-linecap: square"/>
   </g>
   <g id="line2d_34">
    <path d="M 539.473906 147.928615 
L 547.223906 141.790154 
L 554.973906 178.620923 
L 562.723906 197.036308 
L 570.473906 203.174769 
L 578.223906 209.313231 
L 585.973906 221.590154 
L 601.473906 215.451692 
L 632.473906 203.174769 
L 678.973906 215.451692 
L 725.473906 263.945538 
L 818.473906 265.173231 
" clip-path="url(#p76fce39652)" style="fill: none; stroke-dasharray: 3.7,1.6; stroke-dashoffset: 0; stroke: #000000"/>
    <g clip-path="url(#p76fce39652)">
     <use xlink:href="#mdd28a05c3d" x="539.473906" y="147.928615" style="stroke: #000000; stroke-linejoin: miter"/>
     <use xlink:href="#mdd28a05c3d" x="547.223906" y="141.790154" style="stroke: #000000; stroke-linejoin: miter"/>
     <use xlink:href="#mdd28a05c3d" x="554.973906" y="178.620923" style="stroke: #000000; stroke-linejoin: miter"/>
     <use xlink:href="#mdd28a05c3d" x="562.723906" y="197.036308" style="stroke: #000000; stroke-linejoin: miter"/>
     <use xlink:href="#mdd28a05c3d" x="570.473906" y="203.174769" style="stroke: #000000; stroke-linejoin: miter"/>
     <use xlink:href="#mdd28a05c3d" x="578.223906" y="209.313231" style="stroke: #000000; stroke-linejoin: miter"/>
     <use xlink:href="#mdd28a05c3d" x="585.973906" y="221.590154" style="stroke: #000000; stroke-linejoin: miter"/>
     <use xlink:href="#mdd28a05c3d" x="601.473906" y="215.451692" style="stroke: #000000; stroke-linejoin: miter"/>
     <use xlink:href="#mdd28a05c3d" x="632.473906" y="203.174769" style="stroke: #000000; stroke-linejoin: miter"/>
     <use xlink:href="#mdd28a05c3d" x="678.973906" y="215.451692" style="stroke: #000000; stroke-linejoin: miter"/>
     <use xlink:href="#mdd28a05c3d" x="725.473906" y="263.945538" style="stroke: #000000; stroke-linejoin: miter"/>
     <use xlink:href="#mdd28a05c3d" x="818.473906" y="265.173231" style="stroke: #000000; stroke-linejoin: miter"/>
    </g>
   </g>
   <g id="line2d_35">
    <path d="M 539.473906 172.482462 
L 547.223906 178.620923 
L 554.973906 203.174769 
L 562.723906 215.451692 
L 570.473906 240.005538 
L 578.223906 227.728615 
L 585.973906 252.282462 
L 601.473906 240.005538 
L 632.473906 260.262462 
L 678.973906 259.648615 
L 725.473906 255.351692 
L 818.473906 221.590154 
" clip-path="url(#p76fce39652)" style="fill: none; stroke-dasharray: 3.7,1.6; stroke-dashoffset: 0; stroke: #3c33ff"/>
    <g clip-path="url(#p76fce39652)">
     <use xlink:href="#m2e2dd4ab88" x="539.473906" y="172.482462" style="fill: #3c33ff; stroke: #000000; stroke-linejoin: miter"/>
     <use xlink:href="#m2e2dd4ab88" x="547.223906" y="178.620923" style="fill: #3c33ff; stroke: #000000; stroke-linejoin: miter"/>
     <use xlink:href="#m2e2dd4ab88" x="554.973906" y="203.174769" style="fill: #3c33ff; stroke: #000000; stroke-linejoin: miter"/>
     <use xlink:href="#m2e2dd4ab88" x="562.723906" y="215.451692" style="fill: #3c33ff; stroke: #000000; stroke-linejoin: miter"/>
     <use xlink:href="#m2e2dd4ab88" x="570.473906" y="240.005538" style="fill: #3c33ff; stroke: #000000; stroke-linejoin: miter"/>
     <use xlink:href="#m2e2dd4ab88" x="578.223906" y="227.728615" style="fill: #3c33ff; stroke: #000000; stroke-linejoin: miter"/>
     <use xlink:href="#m2e2dd4ab88" x="585.973906" y="252.282462" style="fill: #3c33ff; stroke: #000000; stroke-linejoin: miter"/>
     <use xlink:href="#m2e2dd4ab88" x="601.473906" y="240.005538" style="fill: #3c33ff; stroke: #000000; stroke-linejoin: miter"/>
     <use xlink:href="#m2e2dd4ab88" x="632.473906" y="260.262462" style="fill: #3c33ff; stroke: #000000; stroke-linejoin: miter"/>
     <use xlink:href="#m2e2dd4ab88" x="678.973906" y="259.648615" style="fill: #3c33ff; stroke: #000000; stroke-linejoin: miter"/>
     <use xlink:href="#m2e2dd4ab88" x="725.473906" y="255.351692" style="fill: #3c33ff; stroke: #000000; stroke-linejoin: miter"/>
     <use xlink:href="#m2e2dd4ab88" x="818.473906" y="221.590154" style="fill: #3c33ff; stroke: #000000; stroke-linejoin: miter"/>
    </g>
   </g>
   <g id="patch_9">
    <path d="M 523.198906 364.248 
L 523.198906 48.24 
" style="fill: none; stroke: #000000; stroke-width: 0.8; stroke-linejoin: miter; stroke-linecap: square"/>
   </g>
   <g id="patch_10">
    <path d="M 881.248906 364.248 
L 881.248906 48.24 
" style="fill: none; stroke: #000000; stroke-width: 0.8; stroke-linejoin: miter; stroke-linecap: square"/>
   </g>
   <g id="patch_11">
    <path d="M 523.198906 364.248 
L 881.248906 364.248 
" style="fill: none; stroke: #000000; stroke-width: 0.8; stroke-linejoin: miter; stroke-linecap: square"/>
   </g>
   <g id="patch_12">
    <path d="M 523.198906 48.24 
L 881.248906 48.24 
" style="fill: none; stroke: #000000; stroke-width: 0.8; stroke-linejoin: miter; stroke-linecap: square"/>
   </g>
   <g id="legend_2">
    <g id="patch_13">
     <path d="M 530.198906 114.9525 
L 687.373906 114.9525 
Q 689.373906 114.9525 689.373906 112.9525 
L 689.373906 55.24 
Q 689.373906 53.24 687.373906 53.24 
L 530.198906 53.24 
Q 528.198906 53.24 528.198906 55.24 
L 528.198906 112.9525 
Q 528.198906 114.9525 530.198906 114.9525 
z
" style="fill: #ffffff; opacity: 0.8; stroke: #cccccc; stroke-linejoin: miter"/>
    </g>
    <g id="line2d_36">
     <path d="M 532.198906 61.338437 
L 552.198906 61.338437 
" style="fill: none; stroke: #000000; stroke-width: 2; stroke-linecap: square"/>
    </g>
    <g id="line2d_37"/>
    <g id="text_28">
     <!-- sim: 25mg PO -->
     <g transform="translate(560.198906 64.838437) scale(0.1 -0.1)">
      <use xlink:href="#DejaVuSans-73"/>
      <use xlink:href="#DejaVuSans-69" transform="translate(52.099609 0)"/>
      <use xlink:href="#DejaVuSans-6d" transform="translate(79.882812 0)"/>
      <use xlink:href="#DejaVuSans-3a" transform="translate(177.294922 0)"/>
      <use xlink:href="#DejaVuSans-20" transform="translate(210.986328 0)"/>
      <use xlink:href="#DejaVuSans-32" transform="translate(242.773438 0)"/>
      <use xlink:href="#DejaVuSans-35" transform="translate(306.396484 0)"/>
      <use xlink:href="#DejaVuSans-6d" transform="translate(370.019531 0)"/>
      <use xlink:href="#DejaVuSans-67" transform="translate(467.431641 0)"/>
      <use xlink:href="#DejaVuSans-20" transform="translate(530.908203 0)"/>
      <use xlink:href="#DejaVuSans-50" transform="translate(562.695312 0)"/>
      <use xlink:href="#DejaVuSans-4f" transform="translate(622.998047 0)"/>
     </g>
    </g>
    <g id="line2d_38">
     <path d="M 532.198906 76.016562 
L 552.198906 76.016562 
" style="fill: none; stroke: #3c33ff; stroke-width: 2; stroke-linecap: square"/>
    </g>
    <g id="line2d_39"/>
    <g id="text_29">
     <!-- sim: 25mg SL -->
     <g transform="translate(560.198906 79.516562) scale(0.1 -0.1)">
      <use xlink:href="#DejaVuSans-73"/>
      <use xlink:href="#DejaVuSans-69" transform="translate(52.099609 0)"/>
      <use xlink:href="#DejaVuSans-6d" transform="translate(79.882812 0)"/>
      <use xlink:href="#DejaVuSans-3a" transform="translate(177.294922 0)"/>
      <use xlink:href="#DejaVuSans-20" transform="translate(210.986328 0)"/>
      <use xlink:href="#DejaVuSans-32" transform="translate(242.773438 0)"/>
      <use xlink:href="#DejaVuSans-35" transform="translate(306.396484 0)"/>
      <use xlink:href="#DejaVuSans-6d" transform="translate(370.019531 0)"/>
      <use xlink:href="#DejaVuSans-67" transform="translate(467.431641 0)"/>
      <use xlink:href="#DejaVuSans-20" transform="translate(530.908203 0)"/>
      <use xlink:href="#DejaVuSans-53" transform="translate(562.695312 0)"/>
      <use xlink:href="#DejaVuSans-4c" transform="translate(626.171875 0)"/>
     </g>
    </g>
    <g id="LineCollection_7">
     <path d="M 542.198906 95.694687 
L 542.198906 85.694687 
" style="fill: none; stroke: #000000"/>
    </g>
    <g id="line2d_40">
     <path d="M 532.198906 90.694687 
L 552.198906 90.694687 
" style="fill: none; stroke-dasharray: 3.7,1.6; stroke-dashoffset: 0; stroke: #000000"/>
    </g>
    <g id="line2d_41">
     <g>
      <use xlink:href="#mdd28a05c3d" x="542.198906" y="90.694687" style="stroke: #000000; stroke-linejoin: miter"/>
     </g>
    </g>
    <g id="text_30">
     <!-- exp: 25mg PO±SD (n=8) -->
     <g transform="translate(560.198906 94.194687) scale(0.1 -0.1)">
      <use xlink:href="#DejaVuSans-65"/>
      <use xlink:href="#DejaVuSans-78" transform="translate(59.773438 0)"/>
      <use xlink:href="#DejaVuSans-70" transform="translate(118.953125 0)"/>
      <use xlink:href="#DejaVuSans-3a" transform="translate(182.429688 0)"/>
      <use xlink:href="#DejaVuSans-20" transform="translate(216.121094 0)"/>
      <use xlink:href="#DejaVuSans-32" transform="translate(247.908203 0)"/>
      <use xlink:href="#DejaVuSans-35" transform="translate(311.53125 0)"/>
      <use xlink:href="#DejaVuSans-6d" transform="translate(375.154297 0)"/>
      <use xlink:href="#DejaVuSans-67" transform="translate(472.566406 0)"/>
      <use xlink:href="#DejaVuSans-20" transform="translate(536.042969 0)"/>
      <use xlink:href="#DejaVuSans-50" transform="translate(567.830078 0)"/>
      <use xlink:href="#DejaVuSans-4f" transform="translate(628.132812 0)"/>
      <use xlink:href="#DejaVuSans-b1" transform="translate(706.84375 0)"/>
      <use xlink:href="#DejaVuSans-53" transform="translate(790.632812 0)"/>
      <use xlink:href="#DejaVuSans-44" transform="translate(854.109375 0)"/>
      <use xlink:href="#DejaVuSans-20" transform="translate(931.111328 0)"/>
      <use xlink:href="#DejaVuSans-28" transform="translate(962.898438 0)"/>
      <use xlink:href="#DejaVuSans-6e" transform="translate(1001.912109 0)"/>
      <use xlink:href="#DejaVuSans-3d" transform="translate(1065.291016 0)"/>
      <use xlink:href="#DejaVuSans-38" transform="translate(1149.080078 0)"/>
      <use xlink:href="#DejaVuSans-29" transform="translate(1212.703125 0)"/>
     </g>
    </g>
    <g id="LineCollection_8">
     <path d="M 542.198906 110.372812 
L 542.198906 100.372812 
" style="fill: none; stroke: #3c33ff"/>
    </g>
    <g id="line2d_42">
     <path d="M 532.198906 105.372812 
L 552.198906 105.372812 
" style="fill: none; stroke-dasharray: 3.7,1.6; stroke-dashoffset: 0; stroke: #3c33ff"/>
    </g>
    <g id="line2d_43">
     <g>
      <use xlink:href="#m2e2dd4ab88" x="542.198906" y="105.372812" style="fill: #3c33ff; stroke: #000000; stroke-linejoin: miter"/>
     </g>
    </g>
    <g id="text_31">
     <!-- exp: 25mg SL±SD (n=8) -->
     <g transform="translate(560.198906 108.872812) scale(0.1 -0.1)">
      <use xlink:href="#DejaVuSans-65"/>
      <use xlink:href="#DejaVuSans-78" transform="translate(59.773438 0)"/>
      <use xlink:href="#DejaVuSans-70" transform="translate(118.953125 0)"/>
      <use xlink:href="#DejaVuSans-3a" transform="translate(182.429688 0)"/>
      <use xlink:href="#DejaVuSans-20" transform="translate(216.121094 0)"/>
      <use xlink:href="#DejaVuSans-32" transform="translate(247.908203 0)"/>
      <use xlink:href="#DejaVuSans-35" transform="translate(311.53125 0)"/>
      <use xlink:href="#DejaVuSans-6d" transform="translate(375.154297 0)"/>
      <use xlink:href="#DejaVuSans-67" transform="translate(472.566406 0)"/>
      <use xlink:href="#DejaVuSans-20" transform="translate(536.042969 0)"/>
      <use xlink:href="#DejaVuSans-53" transform="translate(567.830078 0)"/>
      <use xlink:href="#DejaVuSans-4c" transform="translate(631.306641 0)"/>
      <use xlink:href="#DejaVuSans-b1" transform="translate(687.019531 0)"/>
      <use xlink:href="#DejaVuSans-53" transform="translate(770.808594 0)"/>
      <use xlink:href="#DejaVuSans-44" transform="translate(834.285156 0)"/>
      <use xlink:href="#DejaVuSans-20" transform="translate(911.287109 0)"/>
      <use xlink:href="#DejaVuSans-28" transform="translate(943.074219 0)"/>
      <use xlink:href="#DejaVuSans-6e" transform="translate(982.087891 0)"/>
      <use xlink:href="#DejaVuSans-3d" transform="translate(1045.466797 0)"/>
      <use xlink:href="#DejaVuSans-38" transform="translate(1129.255859 0)"/>
      <use xlink:href="#DejaVuSans-29" transform="translate(1192.878906 0)"/>
     </g>
    </g>
   </g>
  </g>
  <g id="axes_3">
   <g id="patch_14">
    <path d="M 988.663906 364.248 
L 1346.713906 364.248 
L 1346.713906 48.24 
L 988.663906 48.24 
z
" style="fill: #ffffff"/>
   </g>
   <g id="matplotlib.axis_5">
    <g id="xtick_9">
     <g id="line2d_44">
      <g>
       <use xlink:href="#m075a8de616" x="1004.938906" y="364.248" style="stroke: #000000; stroke-width: 0.8"/>
      </g>
     </g>
     <g id="text_32">
      <!-- 0 -->
      <g transform="translate(1000.167031 382.645656) scale(0.15 -0.15)">
       <use xlink:href="#DejaVuSans-30"/>
      </g>
     </g>
    </g>
    <g id="xtick_10">
     <g id="line2d_45">
      <g>
       <use xlink:href="#m075a8de616" x="1097.938906" y="364.248" style="stroke: #000000; stroke-width: 0.8"/>
      </g>
     </g>
     <g id="text_33">
      <!-- 1 -->
      <g transform="translate(1093.167031 382.645656) scale(0.15 -0.15)">
       <use xlink:href="#DejaVuSans-31"/>
      </g>
     </g>
    </g>
    <g id="xtick_11">
     <g id="line2d_46">
      <g>
       <use xlink:href="#m075a8de616" x="1190.938906" y="364.248" style="stroke: #000000; stroke-width: 0.8"/>
      </g>
     </g>
     <g id="text_34">
      <!-- 2 -->
      <g transform="translate(1186.167031 382.645656) scale(0.15 -0.15)">
       <use xlink:href="#DejaVuSans-32"/>
      </g>
     </g>
    </g>
    <g id="xtick_12">
     <g id="line2d_47">
      <g>
       <use xlink:href="#m075a8de616" x="1283.938906" y="364.248" style="stroke: #000000; stroke-width: 0.8"/>
      </g>
     </g>
     <g id="text_35">
      <!-- 3 -->
      <g transform="translate(1279.167031 382.645656) scale(0.15 -0.15)">
       <use xlink:href="#DejaVuSans-33"/>
      </g>
     </g>
    </g>
    <g id="text_36">
     <!-- time [hr] -->
     <g transform="translate(1122.614375 403.442375) scale(0.18 -0.18)">
      <use xlink:href="#DejaVuSans-Bold-74"/>
      <use xlink:href="#DejaVuSans-Bold-69" transform="translate(47.802734 0)"/>
      <use xlink:href="#DejaVuSans-Bold-6d" transform="translate(82.080078 0)"/>
      <use xlink:href="#DejaVuSans-Bold-65" transform="translate(186.279297 0)"/>
      <use xlink:href="#DejaVuSans-Bold-20" transform="translate(254.101562 0)"/>
      <use xlink:href="#DejaVuSans-Bold-5b" transform="translate(288.916016 0)"/>
      <use xlink:href="#DejaVuSans-Bold-68" transform="translate(334.619141 0)"/>
      <use xlink:href="#DejaVuSans-Bold-72" transform="translate(405.810547 0)"/>
      <use xlink:href="#DejaVuSans-Bold-5d" transform="translate(455.126953 0)"/>
     </g>
    </g>
   </g>
   <g id="matplotlib.axis_6">
    <g id="ytick_12">
     <g id="line2d_48">
      <g>
       <use xlink:href="#m089debc7a2" x="988.663906" y="333.673843" style="stroke: #000000; stroke-width: 0.8"/>
      </g>
     </g>
     <g id="text_37">
      <!-- 55 -->
      <g transform="translate(962.576406 339.372671) scale(0.15 -0.15)">
       <use xlink:href="#DejaVuSans-35"/>
       <use xlink:href="#DejaVuSans-35" transform="translate(63.623047 0)"/>
      </g>
     </g>
    </g>
    <g id="ytick_13">
     <g id="line2d_49">
      <g>
       <use xlink:href="#m089debc7a2" x="988.663906" y="288.64563" style="stroke: #000000; stroke-width: 0.8"/>
      </g>
     </g>
     <g id="text_38">
      <!-- 60 -->
      <g transform="translate(962.576406 294.344458) scale(0.15 -0.15)">
       <defs>
        <path id="DejaVuSans-36" d="M 2113 2584 
Q 1688 2584 1439 2293 
Q 1191 2003 1191 1497 
Q 1191 994 1439 701 
Q 1688 409 2113 409 
Q 2538 409 2786 701 
Q 3034 994 3034 1497 
Q 3034 2003 2786 2293 
Q 2538 2584 2113 2584 
z
M 3366 4563 
L 3366 3988 
Q 3128 4100 2886 4159 
Q 2644 4219 2406 4219 
Q 1781 4219 1451 3797 
Q 1122 3375 1075 2522 
Q 1259 2794 1537 2939 
Q 1816 3084 2150 3084 
Q 2853 3084 3261 2657 
Q 3669 2231 3669 1497 
Q 3669 778 3244 343 
Q 2819 -91 2113 -91 
Q 1303 -91 875 529 
Q 447 1150 447 2328 
Q 447 3434 972 4092 
Q 1497 4750 2381 4750 
Q 2619 4750 2861 4703 
Q 3103 4656 3366 4563 
z
" transform="scale(0.015625)"/>
       </defs>
       <use xlink:href="#DejaVuSans-36"/>
       <use xlink:href="#DejaVuSans-30" transform="translate(63.623047 0)"/>
      </g>
     </g>
    </g>
    <g id="ytick_14">
     <g id="line2d_50">
      <g>
       <use xlink:href="#m089debc7a2" x="988.663906" y="243.617417" style="stroke: #000000; stroke-width: 0.8"/>
      </g>
     </g>
     <g id="text_39">
      <!-- 65 -->
      <g transform="translate(962.576406 249.316245) scale(0.15 -0.15)">
       <use xlink:href="#DejaVuSans-36"/>
       <use xlink:href="#DejaVuSans-35" transform="translate(63.623047 0)"/>
      </g>
     </g>
    </g>
    <g id="ytick_15">
     <g id="line2d_51">
      <g>
       <use xlink:href="#m089debc7a2" x="988.663906" y="198.589204" style="stroke: #000000; stroke-width: 0.8"/>
      </g>
     </g>
     <g id="text_40">
      <!-- 70 -->
      <g transform="translate(962.576406 204.288032) scale(0.15 -0.15)">
       <defs>
        <path id="DejaVuSans-37" d="M 525 4666 
L 3525 4666 
L 3525 4397 
L 1831 0 
L 1172 0 
L 2766 4134 
L 525 4134 
L 525 4666 
z
" transform="scale(0.015625)"/>
       </defs>
       <use xlink:href="#DejaVuSans-37"/>
       <use xlink:href="#DejaVuSans-30" transform="translate(63.623047 0)"/>
      </g>
     </g>
    </g>
    <g id="ytick_16">
     <g id="line2d_52">
      <g>
       <use xlink:href="#m089debc7a2" x="988.663906" y="153.560991" style="stroke: #000000; stroke-width: 0.8"/>
      </g>
     </g>
     <g id="text_41">
      <!-- 75 -->
      <g transform="translate(962.576406 159.259819) scale(0.15 -0.15)">
       <use xlink:href="#DejaVuSans-37"/>
       <use xlink:href="#DejaVuSans-35" transform="translate(63.623047 0)"/>
      </g>
     </g>
    </g>
    <g id="ytick_17">
     <g id="line2d_53">
      <g>
       <use xlink:href="#m089debc7a2" x="988.663906" y="108.532777" style="stroke: #000000; stroke-width: 0.8"/>
      </g>
     </g>
     <g id="text_42">
      <!-- 80 -->
      <g transform="translate(962.576406 114.231606) scale(0.15 -0.15)">
       <use xlink:href="#DejaVuSans-38"/>
       <use xlink:href="#DejaVuSans-30" transform="translate(63.623047 0)"/>
      </g>
     </g>
    </g>
    <g id="ytick_18">
     <g id="line2d_54">
      <g>
       <use xlink:href="#m089debc7a2" x="988.663906" y="63.504564" style="stroke: #000000; stroke-width: 0.8"/>
      </g>
     </g>
     <g id="text_43">
      <!-- 85 -->
      <g transform="translate(962.576406 69.203392) scale(0.15 -0.15)">
       <use xlink:href="#DejaVuSans-38"/>
       <use xlink:href="#DejaVuSans-35" transform="translate(63.623047 0)"/>
      </g>
     </g>
    </g>
    <g id="text_44">
     <!-- DBP [mmHg] -->
     <g transform="translate(954.692344 271.261969) rotate(-90) scale(0.18 -0.18)">
      <defs>
       <path id="DejaVuSans-Bold-44" d="M 1791 3756 
L 1791 909 
L 2222 909 
Q 2959 909 3348 1275 
Q 3738 1641 3738 2338 
Q 3738 3031 3350 3393 
Q 2963 3756 2222 3756 
L 1791 3756 
z
M 588 4666 
L 1856 4666 
Q 2919 4666 3439 4514 
Q 3959 4363 4331 4000 
Q 4659 3684 4818 3271 
Q 4978 2859 4978 2338 
Q 4978 1809 4818 1395 
Q 4659 981 4331 666 
Q 3956 303 3431 151 
Q 2906 0 1856 0 
L 588 0 
L 588 4666 
z
" transform="scale(0.015625)"/>
      </defs>
      <use xlink:href="#DejaVuSans-Bold-44"/>
      <use xlink:href="#DejaVuSans-Bold-42" transform="translate(83.007812 0)"/>
      <use xlink:href="#DejaVuSans-Bold-50" transform="translate(159.228516 0)"/>
      <use xlink:href="#DejaVuSans-Bold-20" transform="translate(232.519531 0)"/>
      <use xlink:href="#DejaVuSans-Bold-5b" transform="translate(267.333984 0)"/>
      <use xlink:href="#DejaVuSans-Bold-6d" transform="translate(313.037109 0)"/>
      <use xlink:href="#DejaVuSans-Bold-6d" transform="translate(417.236328 0)"/>
      <use xlink:href="#DejaVuSans-Bold-48" transform="translate(521.435547 0)"/>
      <use xlink:href="#DejaVuSans-Bold-67" transform="translate(605.126953 0)"/>
      <use xlink:href="#DejaVuSans-Bold-5d" transform="translate(676.708984 0)"/>
     </g>
    </g>
   </g>
   <g id="LineCollection_9">
    <path d="M 1004.938906 232.810646 
L 1004.938906 85.118107 
" clip-path="url(#p45c6beab85)" style="fill: none; stroke: #000000"/>
    <path d="M 1012.688906 267.032088 
L 1012.688906 113.936163 
" clip-path="url(#p45c6beab85)" style="fill: none; stroke: #000000"/>
    <path d="M 1020.438906 330.071586 
L 1020.438906 85.118107 
" clip-path="url(#p45c6beab85)" style="fill: none; stroke: #000000"/>
    <path d="M 1028.188906 340.878357 
L 1028.188906 94.123749 
" clip-path="url(#p45c6beab85)" style="fill: none; stroke: #000000"/>
    <path d="M 1035.938906 311.159737 
L 1035.938906 95.024313 
" clip-path="url(#p45c6beab85)" style="fill: none; stroke: #000000"/>
    <path d="M 1043.688906 270.634345 
L 1043.688906 131.947448 
" clip-path="url(#p45c6beab85)" style="fill: none; stroke: #000000"/>
    <path d="M 1051.438906 315.662558 
L 1051.438906 137.350834 
" clip-path="url(#p45c6beab85)" style="fill: none; stroke: #000000"/>
    <path d="M 1066.938906 274.236602 
L 1066.938906 140.953091 
" clip-path="url(#p45c6beab85)" style="fill: none; stroke: #000000"/>
    <path d="M 1097.938906 270.634345 
L 1097.938906 142.754219 
" clip-path="url(#p45c6beab85)" style="fill: none; stroke: #000000"/>
    <path d="M 1144.438906 278.739423 
L 1144.438906 143.654784 
" clip-path="url(#p45c6beab85)" style="fill: none; stroke: #000000"/>
    <path d="M 1190.938906 299.452401 
L 1190.938906 166.16889 
" clip-path="url(#p45c6beab85)" style="fill: none; stroke: #000000"/>
    <path d="M 1283.938906 304.855787 
L 1283.938906 99.527135 
" clip-path="url(#p45c6beab85)" style="fill: none; stroke: #000000"/>
   </g>
   <g id="LineCollection_10">
    <path d="M 1004.938906 226.506696 
L 1004.938906 62.604 
" clip-path="url(#p45c6beab85)" style="fill: none; stroke: #3c33ff"/>
    <path d="M 1012.688906 226.506696 
L 1012.688906 80.615285 
" clip-path="url(#p45c6beab85)" style="fill: none; stroke: #3c33ff"/>
    <path d="M 1020.438906 253.523624 
L 1020.438906 64.405129 
" clip-path="url(#p45c6beab85)" style="fill: none; stroke: #3c33ff"/>
    <path d="M 1028.188906 266.131524 
L 1028.188906 77.013028 
" clip-path="url(#p45c6beab85)" style="fill: none; stroke: #3c33ff"/>
    <path d="M 1035.938906 276.938295 
L 1035.938906 109.433342 
" clip-path="url(#p45c6beab85)" style="fill: none; stroke: #3c33ff"/>
    <path d="M 1043.688906 279.639987 
L 1043.688906 137.350834 
" clip-path="url(#p45c6beab85)" style="fill: none; stroke: #3c33ff"/>
    <path d="M 1051.438906 282.34168 
L 1051.438906 170.671712 
" clip-path="url(#p45c6beab85)" style="fill: none; stroke: #3c33ff"/>
    <path d="M 1066.938906 302.154094 
L 1066.938906 140.052527 
" clip-path="url(#p45c6beab85)" style="fill: none; stroke: #3c33ff"/>
    <path d="M 1097.938906 333.673843 
L 1097.938906 149.958734 
" clip-path="url(#p45c6beab85)" style="fill: none; stroke: #3c33ff"/>
    <path d="M 1144.438906 349.884 
L 1144.438906 70.709078 
" clip-path="url(#p45c6beab85)" style="fill: none; stroke: #3c33ff"/>
    <path d="M 1190.938906 251.722495 
L 1190.938906 114.836727 
" clip-path="url(#p45c6beab85)" style="fill: none; stroke: #3c33ff"/>
    <path d="M 1283.938906 290.446759 
L 1283.938906 153.560991 
" clip-path="url(#p45c6beab85)" style="fill: none; stroke: #3c33ff"/>
   </g>
   <g id="line2d_55">
    <path d="M 1004.938906 158.964376 
L 1005.752656 159.034117 
L 1006.566406 159.543797 
L 1007.380156 160.56239 
L 1008.193906 161.98074 
L 1009.821406 165.59207 
L 1012.262656 171.934122 
L 1020.400156 193.739026 
L 1024.468906 203.884253 
L 1028.537656 213.407075 
L 1032.606406 222.317298 
L 1036.675156 230.636208 
L 1040.743906 238.388297 
L 1044.812656 245.598506 
L 1048.881406 252.291094 
L 1052.950156 258.489117 
L 1057.018906 264.214184 
L 1061.087656 269.486342 
L 1065.156406 274.324047 
L 1069.225156 278.744174 
L 1073.293906 282.762063 
L 1076.548906 285.696136 
L 1079.803906 288.38815 
L 1083.058906 290.844041 
L 1086.313906 293.069254 
L 1089.568906 295.068782 
L 1092.823906 296.847215 
L 1096.078906 298.408787 
L 1099.333906 299.757423 
L 1102.588906 300.896798 
L 1105.843906 301.830384 
L 1109.098906 302.561502 
L 1112.353906 303.093379 
L 1115.608906 303.429191 
L 1118.863906 303.57211 
L 1122.118906 303.525344 
L 1125.373906 303.292172 
L 1128.628906 302.875973 
L 1132.697656 302.103691 
L 1136.766406 301.058058 
L 1140.835156 299.746587 
L 1144.903906 298.177159 
L 1148.972656 296.35802 
L 1153.041406 294.297749 
L 1157.110156 292.005223 
L 1161.178906 289.48958 
L 1166.061406 286.189474 
L 1170.943906 282.59803 
L 1175.826406 278.731973 
L 1180.708906 274.608189 
L 1186.405156 269.494011 
L 1192.101406 264.07911 
L 1198.611406 257.556931 
L 1205.121406 250.717043 
L 1212.445156 242.691673 
L 1220.582656 233.429471 
L 1229.533906 222.908322 
L 1240.926406 209.164077 
L 1283.241406 157.713543 
L 1293.006406 146.390543 
L 1301.143906 137.266677 
L 1309.281406 128.478016 
L 1316.605156 120.8908 
L 1323.928906 113.638508 
L 1330.438906 107.493304 
L 1330.438906 107.493304 
" clip-path="url(#p45c6beab85)" style="fill: none; stroke: #000000; stroke-width: 2; stroke-linecap: square"/>
   </g>
   <g id="line2d_56">
    <path d="M 1004.938906 144.555348 
L 1005.752656 144.673637 
L 1006.566406 145.170978 
L 1007.380156 146.048717 
L 1008.193906 147.23929 
L 1009.821406 150.280702 
L 1012.262656 155.747138 
L 1025.282656 186.508736 
L 1029.351406 195.22571 
L 1033.420156 203.400007 
L 1037.488906 211.034477 
L 1041.557656 218.140523 
L 1045.626406 224.733509 
L 1049.695156 230.830604 
L 1053.763906 236.449665 
L 1057.832656 241.608619 
L 1061.087656 245.416383 
L 1064.342656 248.949813 
L 1067.597656 252.21751 
L 1070.852656 255.227832 
L 1074.107656 257.988893 
L 1077.362656 260.508568 
L 1080.617656 262.794505 
L 1083.872656 264.854142 
L 1087.127656 266.694726 
L 1090.382656 268.323338 
L 1093.637656 269.746906 
L 1096.892656 270.972235 
L 1100.147656 272.006021 
L 1104.216406 273.038952 
L 1108.285156 273.795655 
L 1112.353906 274.288721 
L 1116.422656 274.53062 
L 1120.491406 274.533712 
L 1124.560156 274.310245 
L 1128.628906 273.872351 
L 1132.697656 273.232024 
L 1137.580156 272.213071 
L 1142.462656 270.93973 
L 1147.345156 269.431614 
L 1152.227656 267.707784 
L 1157.923906 265.448562 
L 1163.620156 262.94885 
L 1170.130156 259.831681 
L 1176.640156 256.472545 
L 1183.963906 252.447413 
L 1192.101406 247.722341 
L 1201.866406 241.776923 
L 1213.258906 234.567134 
L 1229.533906 223.968608 
L 1268.593906 198.422879 
L 1283.241406 189.155203 
L 1296.261406 181.16294 
L 1308.467656 173.915052 
L 1320.673906 166.92826 
L 1330.438906 161.539104 
L 1330.438906 161.539104 
" clip-path="url(#p45c6beab85)" style="fill: none; stroke: #3c33ff; stroke-width: 2; stroke-linecap: square"/>
   </g>
   <g id="line2d_57">
    <path d="M 1004.938906 158.964376 
L 1012.688906 190.484125 
L 1020.438906 207.594846 
L 1028.188906 217.501053 
L 1035.938906 203.092025 
L 1043.688906 201.290897 
L 1051.438906 226.506696 
L 1066.938906 207.594846 
L 1097.938906 206.694282 
L 1144.438906 211.197103 
L 1190.938906 232.810646 
L 1283.938906 202.191461 
" clip-path="url(#p45c6beab85)" style="fill: none; stroke-dasharray: 3.7,1.6; stroke-dashoffset: 0; stroke: #000000"/>
    <g clip-path="url(#p45c6beab85)">
     <use xlink:href="#mdd28a05c3d" x="1004.938906" y="158.964376" style="stroke: #000000; stroke-linejoin: miter"/>
     <use xlink:href="#mdd28a05c3d" x="1012.688906" y="190.484125" style="stroke: #000000; stroke-linejoin: miter"/>
     <use xlink:href="#mdd28a05c3d" x="1020.438906" y="207.594846" style="stroke: #000000; stroke-linejoin: miter"/>
     <use xlink:href="#mdd28a05c3d" x="1028.188906" y="217.501053" style="stroke: #000000; stroke-linejoin: miter"/>
     <use xlink:href="#mdd28a05c3d" x="1035.938906" y="203.092025" style="stroke: #000000; stroke-linejoin: miter"/>
     <use xlink:href="#mdd28a05c3d" x="1043.688906" y="201.290897" style="stroke: #000000; stroke-linejoin: miter"/>
     <use xlink:href="#mdd28a05c3d" x="1051.438906" y="226.506696" style="stroke: #000000; stroke-linejoin: miter"/>
     <use xlink:href="#mdd28a05c3d" x="1066.938906" y="207.594846" style="stroke: #000000; stroke-linejoin: miter"/>
     <use xlink:href="#mdd28a05c3d" x="1097.938906" y="206.694282" style="stroke: #000000; stroke-linejoin: miter"/>
     <use xlink:href="#mdd28a05c3d" x="1144.438906" y="211.197103" style="stroke: #000000; stroke-linejoin: miter"/>
     <use xlink:href="#mdd28a05c3d" x="1190.938906" y="232.810646" style="stroke: #000000; stroke-linejoin: miter"/>
     <use xlink:href="#mdd28a05c3d" x="1283.938906" y="202.191461" style="stroke: #000000; stroke-linejoin: miter"/>
    </g>
   </g>
   <g id="line2d_58">
    <path d="M 1004.938906 144.555348 
L 1012.688906 153.560991 
L 1020.438906 158.964376 
L 1028.188906 171.572276 
L 1035.938906 193.185818 
L 1043.688906 208.495411 
L 1051.438906 226.506696 
L 1066.938906 221.10331 
L 1097.938906 241.816288 
L 1144.438906 210.296539 
L 1190.938906 183.279611 
L 1283.938906 222.003875 
" clip-path="url(#p45c6beab85)" style="fill: none; stroke-dasharray: 3.7,1.6; stroke-dashoffset: 0; stroke: #3c33ff"/>
    <g clip-path="url(#p45c6beab85)">
     <use xlink:href="#m2e2dd4ab88" x="1004.938906" y="144.555348" style="fill: #3c33ff; stroke: #000000; stroke-linejoin: miter"/>
     <use xlink:href="#m2e2dd4ab88" x="1012.688906" y="153.560991" style="fill: #3c33ff; stroke: #000000; stroke-linejoin: miter"/>
     <use xlink:href="#m2e2dd4ab88" x="1020.438906" y="158.964376" style="fill: #3c33ff; stroke: #000000; stroke-linejoin: miter"/>
     <use xlink:href="#m2e2dd4ab88" x="1028.188906" y="171.572276" style="fill: #3c33ff; stroke: #000000; stroke-linejoin: miter"/>
     <use xlink:href="#m2e2dd4ab88" x="1035.938906" y="193.185818" style="fill: #3c33ff; stroke: #000000; stroke-linejoin: miter"/>
     <use xlink:href="#m2e2dd4ab88" x="1043.688906" y="208.495411" style="fill: #3c33ff; stroke: #000000; stroke-linejoin: miter"/>
     <use xlink:href="#m2e2dd4ab88" x="1051.438906" y="226.506696" style="fill: #3c33ff; stroke: #000000; stroke-linejoin: miter"/>
     <use xlink:href="#m2e2dd4ab88" x="1066.938906" y="221.10331" style="fill: #3c33ff; stroke: #000000; stroke-linejoin: miter"/>
     <use xlink:href="#m2e2dd4ab88" x="1097.938906" y="241.816288" style="fill: #3c33ff; stroke: #000000; stroke-linejoin: miter"/>
     <use xlink:href="#m2e2dd4ab88" x="1144.438906" y="210.296539" style="fill: #3c33ff; stroke: #000000; stroke-linejoin: miter"/>
     <use xlink:href="#m2e2dd4ab88" x="1190.938906" y="183.279611" style="fill: #3c33ff; stroke: #000000; stroke-linejoin: miter"/>
     <use xlink:href="#m2e2dd4ab88" x="1283.938906" y="222.003875" style="fill: #3c33ff; stroke: #000000; stroke-linejoin: miter"/>
    </g>
   </g>
   <g id="patch_15">
    <path d="M 988.663906 364.248 
L 988.663906 48.24 
" style="fill: none; stroke: #000000; stroke-width: 0.8; stroke-linejoin: miter; stroke-linecap: square"/>
   </g>
   <g id="patch_16">
    <path d="M 1346.713906 364.248 
L 1346.713906 48.24 
" style="fill: none; stroke: #000000; stroke-width: 0.8; stroke-linejoin: miter; stroke-linecap: square"/>
   </g>
   <g id="patch_17">
    <path d="M 988.663906 364.248 
L 1346.713906 364.248 
" style="fill: none; stroke: #000000; stroke-width: 0.8; stroke-linejoin: miter; stroke-linecap: square"/>
   </g>
   <g id="patch_18">
    <path d="M 988.663906 48.24 
L 1346.713906 48.24 
" style="fill: none; stroke: #000000; stroke-width: 0.8; stroke-linejoin: miter; stroke-linecap: square"/>
   </g>
   <g id="legend_3">
    <g id="patch_19">
     <path d="M 995.663906 114.9525 
L 1152.838906 114.9525 
Q 1154.838906 114.9525 1154.838906 112.9525 
L 1154.838906 55.24 
Q 1154.838906 53.24 1152.838906 53.24 
L 995.663906 53.24 
Q 993.663906 53.24 993.663906 55.24 
L 993.663906 112.9525 
Q 993.663906 114.9525 995.663906 114.9525 
z
" style="fill: #ffffff; opacity: 0.8; stroke: #cccccc; stroke-linejoin: miter"/>
    </g>
    <g id="line2d_59">
     <path d="M 997.663906 61.338437 
L 1017.663906 61.338437 
" style="fill: none; stroke: #000000; stroke-width: 2; stroke-linecap: square"/>
    </g>
    <g id="line2d_60"/>
    <g id="text_45">
     <!-- sim: 25mg PO -->
     <g transform="translate(1025.663906 64.838437) scale(0.1 -0.1)">
      <use xlink:href="#DejaVuSans-73"/>
      <use xlink:href="#DejaVuSans-69" transform="translate(52.099609 0)"/>
      <use xlink:href="#DejaVuSans-6d" transform="translate(79.882812 0)"/>
      <use xlink:href="#DejaVuSans-3a" transform="translate(177.294922 0)"/>
      <use xlink:href="#DejaVuSans-20" transform="translate(210.986328 0)"/>
      <use xlink:href="#DejaVuSans-32" transform="translate(242.773438 0)"/>
      <use xlink:href="#DejaVuSans-35" transform="translate(306.396484 0)"/>
      <use xlink:href="#DejaVuSans-6d" transform="translate(370.019531 0)"/>
      <use xlink:href="#DejaVuSans-67" transform="translate(467.431641 0)"/>
      <use xlink:href="#DejaVuSans-20" transform="translate(530.908203 0)"/>
      <use xlink:href="#DejaVuSans-50" transform="translate(562.695312 0)"/>
      <use xlink:href="#DejaVuSans-4f" transform="translate(622.998047 0)"/>
     </g>
    </g>
    <g id="line2d_61">
     <path d="M 997.663906 76.016562 
L 1017.663906 76.016562 
" style="fill: none; stroke: #3c33ff; stroke-width: 2; stroke-linecap: square"/>
    </g>
    <g id="line2d_62"/>
    <g id="text_46">
     <!-- sim: 25mg SL -->
     <g transform="translate(1025.663906 79.516562) scale(0.1 -0.1)">
      <use xlink:href="#DejaVuSans-73"/>
      <use xlink:href="#DejaVuSans-69" transform="translate(52.099609 0)"/>
      <use xlink:href="#DejaVuSans-6d" transform="translate(79.882812 0)"/>
      <use xlink:href="#DejaVuSans-3a" transform="translate(177.294922 0)"/>
      <use xlink:href="#DejaVuSans-20" transform="translate(210.986328 0)"/>
      <use xlink:href="#DejaVuSans-32" transform="translate(242.773438 0)"/>
      <use xlink:href="#DejaVuSans-35" transform="translate(306.396484 0)"/>
      <use xlink:href="#DejaVuSans-6d" transform="translate(370.019531 0)"/>
      <use xlink:href="#DejaVuSans-67" transform="translate(467.431641 0)"/>
      <use xlink:href="#DejaVuSans-20" transform="translate(530.908203 0)"/>
      <use xlink:href="#DejaVuSans-53" transform="translate(562.695312 0)"/>
      <use xlink:href="#DejaVuSans-4c" transform="translate(626.171875 0)"/>
     </g>
    </g>
    <g id="LineCollection_11">
     <path d="M 1007.663906 95.694687 
L 1007.663906 85.694687 
" style="fill: none; stroke: #000000"/>
    </g>
    <g id="line2d_63">
     <path d="M 997.663906 90.694687 
L 1017.663906 90.694687 
" style="fill: none; stroke-dasharray: 3.7,1.6; stroke-dashoffset: 0; stroke: #000000"/>
    </g>
    <g id="line2d_64">
     <g>
      <use xlink:href="#mdd28a05c3d" x="1007.663906" y="90.694687" style="stroke: #000000; stroke-linejoin: miter"/>
     </g>
    </g>
    <g id="text_47">
     <!-- exp: 25mg PO±SD (n=8) -->
     <g transform="translate(1025.663906 94.194687) scale(0.1 -0.1)">
      <use xlink:href="#DejaVuSans-65"/>
      <use xlink:href="#DejaVuSans-78" transform="translate(59.773438 0)"/>
      <use xlink:href="#DejaVuSans-70" transform="translate(118.953125 0)"/>
      <use xlink:href="#DejaVuSans-3a" transform="translate(182.429688 0)"/>
      <use xlink:href="#DejaVuSans-20" transform="translate(216.121094 0)"/>
      <use xlink:href="#DejaVuSans-32" transform="translate(247.908203 0)"/>
      <use xlink:href="#DejaVuSans-35" transform="translate(311.53125 0)"/>
      <use xlink:href="#DejaVuSans-6d" transform="translate(375.154297 0)"/>
      <use xlink:href="#DejaVuSans-67" transform="translate(472.566406 0)"/>
      <use xlink:href="#DejaVuSans-20" transform="translate(536.042969 0)"/>
      <use xlink:href="#DejaVuSans-50" transform="translate(567.830078 0)"/>
      <use xlink:href="#DejaVuSans-4f" transform="translate(628.132812 0)"/>
      <use xlink:href="#DejaVuSans-b1" transform="translate(706.84375 0)"/>
      <use xlink:href="#DejaVuSans-53" transform="translate(790.632812 0)"/>
      <use xlink:href="#DejaVuSans-44" transform="translate(854.109375 0)"/>
      <use xlink:href="#DejaVuSans-20" transform="translate(931.111328 0)"/>
      <use xlink:href="#DejaVuSans-28" transform="translate(962.898438 0)"/>
      <use xlink:href="#DejaVuSans-6e" transform="translate(1001.912109 0)"/>
      <use xlink:href="#DejaVuSans-3d" transform="translate(1065.291016 0)"/>
      <use xlink:href="#DejaVuSans-38" transform="translate(1149.080078 0)"/>
      <use xlink:href="#DejaVuSans-29" transform="translate(1212.703125 0)"/>
     </g>
    </g>
    <g id="LineCollection_12">
     <path d="M 1007.663906 110.372812 
L 1007.663906 100.372812 
" style="fill: none; stroke: #3c33ff"/>
    </g>
    <g id="line2d_65">
     <path d="M 997.663906 105.372812 
L 1017.663906 105.372812 
" style="fill: none; stroke-dasharray: 3.7,1.6; stroke-dashoffset: 0; stroke: #3c33ff"/>
    </g>
    <g id="line2d_66">
     <g>
      <use xlink:href="#m2e2dd4ab88" x="1007.663906" y="105.372812" style="fill: #3c33ff; stroke: #000000; stroke-linejoin: miter"/>
     </g>
    </g>
    <g id="text_48">
     <!-- exp: 25mg SL±SD (n=8) -->
     <g transform="translate(1025.663906 108.872812) scale(0.1 -0.1)">
      <use xlink:href="#DejaVuSans-65"/>
      <use xlink:href="#DejaVuSans-78" transform="translate(59.773438 0)"/>
      <use xlink:href="#DejaVuSans-70" transform="translate(118.953125 0)"/>
      <use xlink:href="#DejaVuSans-3a" transform="translate(182.429688 0)"/>
      <use xlink:href="#DejaVuSans-20" transform="translate(216.121094 0)"/>
      <use xlink:href="#DejaVuSans-32" transform="translate(247.908203 0)"/>
      <use xlink:href="#DejaVuSans-35" transform="translate(311.53125 0)"/>
      <use xlink:href="#DejaVuSans-6d" transform="translate(375.154297 0)"/>
      <use xlink:href="#DejaVuSans-67" transform="translate(472.566406 0)"/>
      <use xlink:href="#DejaVuSans-20" transform="translate(536.042969 0)"/>
      <use xlink:href="#DejaVuSans-53" transform="translate(567.830078 0)"/>
      <use xlink:href="#DejaVuSans-4c" transform="translate(631.306641 0)"/>
      <use xlink:href="#DejaVuSans-b1" transform="translate(687.019531 0)"/>
      <use xlink:href="#DejaVuSans-53" transform="translate(770.808594 0)"/>
      <use xlink:href="#DejaVuSans-44" transform="translate(834.285156 0)"/>
      <use xlink:href="#DejaVuSans-20" transform="translate(911.287109 0)"/>
      <use xlink:href="#DejaVuSans-28" transform="translate(943.074219 0)"/>
      <use xlink:href="#DejaVuSans-6e" transform="translate(982.087891 0)"/>
      <use xlink:href="#DejaVuSans-3d" transform="translate(1045.466797 0)"/>
      <use xlink:href="#DejaVuSans-38" transform="translate(1129.255859 0)"/>
      <use xlink:href="#DejaVuSans-29" transform="translate(1192.878906 0)"/>
     </g>
    </g>
   </g>
  </g>
  <g id="text_49">
   <!-- AlFuraih1991 -->
   <g transform="translate(588.090156 26.196094) scale(0.25 -0.25)">
    <defs>
     <path id="DejaVuSans-Bold-41" d="M 3419 850 
L 1538 850 
L 1241 0 
L 31 0 
L 1759 4666 
L 3194 4666 
L 4922 0 
L 3713 0 
L 3419 850 
z
M 1838 1716 
L 3116 1716 
L 2478 3572 
L 1838 1716 
z
" transform="scale(0.015625)"/>
     <path id="DejaVuSans-Bold-6c" d="M 538 4863 
L 1656 4863 
L 1656 0 
L 538 0 
L 538 4863 
z
" transform="scale(0.015625)"/>
     <path id="DejaVuSans-Bold-46" d="M 588 4666 
L 3834 4666 
L 3834 3756 
L 1791 3756 
L 1791 2888 
L 3713 2888 
L 3713 1978 
L 1791 1978 
L 1791 0 
L 588 0 
L 588 4666 
z
" transform="scale(0.015625)"/>
     <path id="DejaVuSans-Bold-75" d="M 500 1363 
L 500 3500 
L 1625 3500 
L 1625 3150 
Q 1625 2866 1622 2436 
Q 1619 2006 1619 1863 
Q 1619 1441 1641 1255 
Q 1663 1069 1716 984 
Q 1784 875 1895 815 
Q 2006 756 2150 756 
Q 2500 756 2700 1025 
Q 2900 1294 2900 1772 
L 2900 3500 
L 4019 3500 
L 4019 0 
L 2900 0 
L 2900 506 
Q 2647 200 2364 54 
Q 2081 -91 1741 -91 
Q 1134 -91 817 281 
Q 500 653 500 1363 
z
" transform="scale(0.015625)"/>
     <path id="DejaVuSans-Bold-61" d="M 2106 1575 
Q 1756 1575 1579 1456 
Q 1403 1338 1403 1106 
Q 1403 894 1545 773 
Q 1688 653 1941 653 
Q 2256 653 2472 879 
Q 2688 1106 2688 1447 
L 2688 1575 
L 2106 1575 
z
M 3816 1997 
L 3816 0 
L 2688 0 
L 2688 519 
Q 2463 200 2181 54 
Q 1900 -91 1497 -91 
Q 953 -91 614 226 
Q 275 544 275 1050 
Q 275 1666 698 1953 
Q 1122 2241 2028 2241 
L 2688 2241 
L 2688 2328 
Q 2688 2594 2478 2717 
Q 2269 2841 1825 2841 
Q 1466 2841 1156 2769 
Q 847 2697 581 2553 
L 581 3406 
Q 941 3494 1303 3539 
Q 1666 3584 2028 3584 
Q 2975 3584 3395 3211 
Q 3816 2838 3816 1997 
z
" transform="scale(0.015625)"/>
     <path id="DejaVuSans-Bold-31" d="M 750 831 
L 1813 831 
L 1813 3847 
L 722 3622 
L 722 4441 
L 1806 4666 
L 2950 4666 
L 2950 831 
L 4013 831 
L 4013 0 
L 750 0 
L 750 831 
z
" transform="scale(0.015625)"/>
     <path id="DejaVuSans-Bold-39" d="M 641 103 
L 641 966 
Q 928 831 1190 764 
Q 1453 697 1709 697 
Q 2247 697 2547 995 
Q 2847 1294 2900 1881 
Q 2688 1725 2447 1647 
Q 2206 1569 1925 1569 
Q 1209 1569 770 1986 
Q 331 2403 331 3084 
Q 331 3838 820 4291 
Q 1309 4744 2131 4744 
Q 3044 4744 3544 4128 
Q 4044 3513 4044 2388 
Q 4044 1231 3459 570 
Q 2875 -91 1856 -91 
Q 1528 -91 1228 -42 
Q 928 6 641 103 
z
M 2125 2350 
Q 2441 2350 2600 2554 
Q 2759 2759 2759 3169 
Q 2759 3575 2600 3781 
Q 2441 3988 2125 3988 
Q 1809 3988 1650 3781 
Q 1491 3575 1491 3169 
Q 1491 2759 1650 2554 
Q 1809 2350 2125 2350 
z
" transform="scale(0.015625)"/>
    </defs>
    <use xlink:href="#DejaVuSans-Bold-41"/>
    <use xlink:href="#DejaVuSans-Bold-6c" transform="translate(77.392578 0)"/>
    <use xlink:href="#DejaVuSans-Bold-46" transform="translate(111.669922 0)"/>
    <use xlink:href="#DejaVuSans-Bold-75" transform="translate(174.980469 0)"/>
    <use xlink:href="#DejaVuSans-Bold-72" transform="translate(246.171875 0)"/>
    <use xlink:href="#DejaVuSans-Bold-61" transform="translate(295.488281 0)"/>
    <use xlink:href="#DejaVuSans-Bold-69" transform="translate(362.96875 0)"/>
    <use xlink:href="#DejaVuSans-Bold-68" transform="translate(397.246094 0)"/>
    <use xlink:href="#DejaVuSans-Bold-31" transform="translate(468.4375 0)"/>
    <use xlink:href="#DejaVuSans-Bold-39" transform="translate(538.017578 0)"/>
    <use xlink:href="#DejaVuSans-Bold-39" transform="translate(607.597656 0)"/>
    <use xlink:href="#DejaVuSans-Bold-31" transform="translate(677.177734 0)"/>
   </g>
  </g>
 </g>
 <defs>
  <clipPath id="p60c6a4febb">
   <rect x="57.733906" y="48.24" width="358.05" height="316.008"/>
  </clipPath>
  <clipPath id="p76fce39652">
   <rect x="523.198906" y="48.24" width="358.05" height="316.008"/>
  </clipPath>
  <clipPath id="p45c6beab85">
   <rect x="988.663906" y="48.24" width="358.05" height="316.008"/>
  </clipPath>
 </defs>
</svg>
