<?xml version="1.0" encoding="utf-8" standalone="no"?>
<!DOCTYPE svg PUBLIC "-//W3C//DTD SVG 1.1//EN"
  "http://www.w3.org/Graphics/SVG/1.1/DTD/svg11.dtd">
<svg xmlns:xlink="http://www.w3.org/1999/xlink" width="508.282344pt" height="414.385812pt" viewBox="0 0 508.282344 414.385812" xmlns="http://www.w3.org/2000/svg" version="1.1">
 <metadata>
  <rdf:RDF xmlns:dc="http://purl.org/dc/elements/1.1/" xmlns:cc="http://creativecommons.org/ns#" xmlns:rdf="http://www.w3.org/1999/02/22-rdf-syntax-ns#">
   <cc:Work>
    <dc:type rdf:resource="http://purl.org/dc/dcmitype/StillImage"/>
    <dc:date>2025-09-10T13:17:08.462051</dc:date>
    <dc:format>image/svg+xml</dc:format>
    <dc:creator>
     <cc:Agent>
      <dc:title>Matplotlib v3.10.6, https://matplotlib.org/</dc:title>
     </cc:Agent>
    </dc:creator>
   </cc:Work>
  </rdf:RDF>
 </metadata>
 <defs>
  <style type="text/css">*{stroke-linejoin: round; stroke-linecap: butt}</style>
 </defs>
 <g id="figure_1">
  <g id="patch_1">
   <path d="M 0 414.385812 
L 508.282344 414.385812 
L 508.282344 -0 
L 0 -0 
z
" style="fill: #ffffff"/>
  </g>
  <g id="axes_1">
   <g id="patch_2">
    <path d="M 59.495 364.248 
L 489.155 364.248 
L 489.155 48.24 
L 59.495 48.24 
z
" style="fill: #ffffff"/>
   </g>
   <g id="matplotlib.axis_1">
    <g id="xtick_1">
     <g id="line2d_1">
      <defs>
       <path id="mc51d17b395" d="M 0 0 
L 0 3.5 
" style="stroke: #000000; stroke-width: 0.8"/>
      </defs>
      <g>
       <use xlink:href="#mc51d17b395" x="79.025" y="364.248" style="stroke: #000000; stroke-width: 0.8"/>
      </g>
     </g>
     <g id="text_1">
      <!-- 0.0 -->
      <g transform="translate(67.097656 382.645656) scale(0.15 -0.15)">
       <defs>
        <path id="DejaVuSans-30" d="M 2034 4250 
Q 1547 4250 1301 3770 
Q 1056 3291 1056 2328 
Q 1056 1369 1301 889 
Q 1547 409 2034 409 
Q 2525 409 2770 889 
Q 3016 1369 3016 2328 
Q 3016 3291 2770 3770 
Q 2525 4250 2034 4250 
z
M 2034 4750 
Q 2819 4750 3233 4129 
Q 3647 3509 3647 2328 
Q 3647 1150 3233 529 
Q 2819 -91 2034 -91 
Q 1250 -91 836 529 
Q 422 1150 422 2328 
Q 422 3509 836 4129 
Q 1250 4750 2034 4750 
z
" transform="scale(0.015625)"/>
        <path id="DejaVuSans-2e" d="M 684 794 
L 1344 794 
L 1344 0 
L 684 0 
L 684 794 
z
" transform="scale(0.015625)"/>
       </defs>
       <use xlink:href="#DejaVuSans-30"/>
       <use xlink:href="#DejaVuSans-2e" transform="translate(63.623047 0)"/>
       <use xlink:href="#DejaVuSans-30" transform="translate(95.410156 0)"/>
      </g>
     </g>
    </g>
    <g id="xtick_2">
     <g id="line2d_2">
      <g>
       <use xlink:href="#mc51d17b395" x="137.615" y="364.248" style="stroke: #000000; stroke-width: 0.8"/>
      </g>
     </g>
     <g id="text_2">
      <!-- 0.5 -->
      <g transform="translate(125.687656 382.645656) scale(0.15 -0.15)">
       <defs>
        <path id="DejaVuSans-35" d="M 691 4666 
L 3169 4666 
L 3169 4134 
L 1269 4134 
L 1269 2991 
Q 1406 3038 1543 3061 
Q 1681 3084 1819 3084 
Q 2600 3084 3056 2656 
Q 3513 2228 3513 1497 
Q 3513 744 3044 326 
Q 2575 -91 1722 -91 
Q 1428 -91 1123 -41 
Q 819 9 494 109 
L 494 744 
Q 775 591 1075 516 
Q 1375 441 1709 441 
Q 2250 441 2565 725 
Q 2881 1009 2881 1497 
Q 2881 1984 2565 2268 
Q 2250 2553 1709 2553 
Q 1456 2553 1204 2497 
Q 953 2441 691 2322 
L 691 4666 
z
" transform="scale(0.015625)"/>
       </defs>
       <use xlink:href="#DejaVuSans-30"/>
       <use xlink:href="#DejaVuSans-2e" transform="translate(63.623047 0)"/>
       <use xlink:href="#DejaVuSans-35" transform="translate(95.410156 0)"/>
      </g>
     </g>
    </g>
    <g id="xtick_3">
     <g id="line2d_3">
      <g>
       <use xlink:href="#mc51d17b395" x="196.205" y="364.248" style="stroke: #000000; stroke-width: 0.8"/>
      </g>
     </g>
     <g id="text_3">
      <!-- 1.0 -->
      <g transform="translate(184.277656 382.645656) scale(0.15 -0.15)">
       <defs>
        <path id="DejaVuSans-31" d="M 794 531 
L 1825 531 
L 1825 4091 
L 703 3866 
L 703 4441 
L 1819 4666 
L 2450 4666 
L 2450 531 
L 3481 531 
L 3481 0 
L 794 0 
L 794 531 
z
" transform="scale(0.015625)"/>
       </defs>
       <use xlink:href="#DejaVuSans-31"/>
       <use xlink:href="#DejaVuSans-2e" transform="translate(63.623047 0)"/>
       <use xlink:href="#DejaVuSans-30" transform="translate(95.410156 0)"/>
      </g>
     </g>
    </g>
    <g id="xtick_4">
     <g id="line2d_4">
      <g>
       <use xlink:href="#mc51d17b395" x="254.795" y="364.248" style="stroke: #000000; stroke-width: 0.8"/>
      </g>
     </g>
     <g id="text_4">
      <!-- 1.5 -->
      <g transform="translate(242.867656 382.645656) scale(0.15 -0.15)">
       <use xlink:href="#DejaVuSans-31"/>
       <use xlink:href="#DejaVuSans-2e" transform="translate(63.623047 0)"/>
       <use xlink:href="#DejaVuSans-35" transform="translate(95.410156 0)"/>
      </g>
     </g>
    </g>
    <g id="xtick_5">
     <g id="line2d_5">
      <g>
       <use xlink:href="#mc51d17b395" x="313.385" y="364.248" style="stroke: #000000; stroke-width: 0.8"/>
      </g>
     </g>
     <g id="text_5">
      <!-- 2.0 -->
      <g transform="translate(301.457656 382.645656) scale(0.15 -0.15)">
       <defs>
        <path id="DejaVuSans-32" d="M 1228 531 
L 3431 531 
L 3431 0 
L 469 0 
L 469 531 
Q 828 903 1448 1529 
Q 2069 2156 2228 2338 
Q 2531 2678 2651 2914 
Q 2772 3150 2772 3378 
Q 2772 3750 2511 3984 
Q 2250 4219 1831 4219 
Q 1534 4219 1204 4116 
Q 875 4013 500 3803 
L 500 4441 
Q 881 4594 1212 4672 
Q 1544 4750 1819 4750 
Q 2544 4750 2975 4387 
Q 3406 4025 3406 3419 
Q 3406 3131 3298 2873 
Q 3191 2616 2906 2266 
Q 2828 2175 2409 1742 
Q 1991 1309 1228 531 
z
" transform="scale(0.015625)"/>
       </defs>
       <use xlink:href="#DejaVuSans-32"/>
       <use xlink:href="#DejaVuSans-2e" transform="translate(63.623047 0)"/>
       <use xlink:href="#DejaVuSans-30" transform="translate(95.410156 0)"/>
      </g>
     </g>
    </g>
    <g id="xtick_6">
     <g id="line2d_6">
      <g>
       <use xlink:href="#mc51d17b395" x="371.975" y="364.248" style="stroke: #000000; stroke-width: 0.8"/>
      </g>
     </g>
     <g id="text_6">
      <!-- 2.5 -->
      <g transform="translate(360.047656 382.645656) scale(0.15 -0.15)">
       <use xlink:href="#DejaVuSans-32"/>
       <use xlink:href="#DejaVuSans-2e" transform="translate(63.623047 0)"/>
       <use xlink:href="#DejaVuSans-35" transform="translate(95.410156 0)"/>
      </g>
     </g>
    </g>
    <g id="xtick_7">
     <g id="line2d_7">
      <g>
       <use xlink:href="#mc51d17b395" x="430.565" y="364.248" style="stroke: #000000; stroke-width: 0.8"/>
      </g>
     </g>
     <g id="text_7">
      <!-- 3.0 -->
      <g transform="translate(418.637656 382.645656) scale(0.15 -0.15)">
       <defs>
        <path id="DejaVuSans-33" d="M 2597 2516 
Q 3050 2419 3304 2112 
Q 3559 1806 3559 1356 
Q 3559 666 3084 287 
Q 2609 -91 1734 -91 
Q 1441 -91 1130 -33 
Q 819 25 488 141 
L 488 750 
Q 750 597 1062 519 
Q 1375 441 1716 441 
Q 2309 441 2620 675 
Q 2931 909 2931 1356 
Q 2931 1769 2642 2001 
Q 2353 2234 1838 2234 
L 1294 2234 
L 1294 2753 
L 1863 2753 
Q 2328 2753 2575 2939 
Q 2822 3125 2822 3475 
Q 2822 3834 2567 4026 
Q 2313 4219 1838 4219 
Q 1578 4219 1281 4162 
Q 984 4106 628 3988 
L 628 4550 
Q 988 4650 1302 4700 
Q 1616 4750 1894 4750 
Q 2613 4750 3031 4423 
Q 3450 4097 3450 3541 
Q 3450 3153 3228 2886 
Q 3006 2619 2597 2516 
z
" transform="scale(0.015625)"/>
       </defs>
       <use xlink:href="#DejaVuSans-33"/>
       <use xlink:href="#DejaVuSans-2e" transform="translate(63.623047 0)"/>
       <use xlink:href="#DejaVuSans-30" transform="translate(95.410156 0)"/>
      </g>
     </g>
    </g>
    <g id="xtick_8">
     <g id="line2d_8">
      <g>
       <use xlink:href="#mc51d17b395" x="489.155" y="364.248" style="stroke: #000000; stroke-width: 0.8"/>
      </g>
     </g>
     <g id="text_8">
      <!-- 3.5 -->
      <g transform="translate(477.227656 382.645656) scale(0.15 -0.15)">
       <use xlink:href="#DejaVuSans-33"/>
       <use xlink:href="#DejaVuSans-2e" transform="translate(63.623047 0)"/>
       <use xlink:href="#DejaVuSans-35" transform="translate(95.410156 0)"/>
      </g>
     </g>
    </g>
    <g id="text_9">
     <!-- time [hr] -->
     <g transform="translate(229.250469 403.442375) scale(0.18 -0.18)">
      <defs>
       <path id="DejaVuSans-Bold-74" d="M 1759 4494 
L 1759 3500 
L 2913 3500 
L 2913 2700 
L 1759 2700 
L 1759 1216 
Q 1759 972 1856 886 
Q 1953 800 2241 800 
L 2816 800 
L 2816 0 
L 1856 0 
Q 1194 0 917 276 
Q 641 553 641 1216 
L 641 2700 
L 84 2700 
L 84 3500 
L 641 3500 
L 641 4494 
L 1759 4494 
z
" transform="scale(0.015625)"/>
       <path id="DejaVuSans-Bold-69" d="M 538 3500 
L 1656 3500 
L 1656 0 
L 538 0 
L 538 3500 
z
M 538 4863 
L 1656 4863 
L 1656 3950 
L 538 3950 
L 538 4863 
z
" transform="scale(0.015625)"/>
       <path id="DejaVuSans-Bold-6d" d="M 3781 2919 
Q 3994 3244 4286 3414 
Q 4578 3584 4928 3584 
Q 5531 3584 5847 3212 
Q 6163 2841 6163 2131 
L 6163 0 
L 5038 0 
L 5038 1825 
Q 5041 1866 5042 1909 
Q 5044 1953 5044 2034 
Q 5044 2406 4934 2573 
Q 4825 2741 4581 2741 
Q 4263 2741 4089 2478 
Q 3916 2216 3909 1719 
L 3909 0 
L 2784 0 
L 2784 1825 
Q 2784 2406 2684 2573 
Q 2584 2741 2328 2741 
Q 2006 2741 1831 2477 
Q 1656 2213 1656 1722 
L 1656 0 
L 531 0 
L 531 3500 
L 1656 3500 
L 1656 2988 
Q 1863 3284 2130 3434 
Q 2397 3584 2719 3584 
Q 3081 3584 3359 3409 
Q 3638 3234 3781 2919 
z
" transform="scale(0.015625)"/>
       <path id="DejaVuSans-Bold-65" d="M 4031 1759 
L 4031 1441 
L 1416 1441 
Q 1456 1047 1700 850 
Q 1944 653 2381 653 
Q 2734 653 3104 758 
Q 3475 863 3866 1075 
L 3866 213 
Q 3469 63 3072 -14 
Q 2675 -91 2278 -91 
Q 1328 -91 801 392 
Q 275 875 275 1747 
Q 275 2603 792 3093 
Q 1309 3584 2216 3584 
Q 3041 3584 3536 3087 
Q 4031 2591 4031 1759 
z
M 2881 2131 
Q 2881 2450 2695 2645 
Q 2509 2841 2209 2841 
Q 1884 2841 1681 2658 
Q 1478 2475 1428 2131 
L 2881 2131 
z
" transform="scale(0.015625)"/>
       <path id="DejaVuSans-Bold-20" transform="scale(0.015625)"/>
       <path id="DejaVuSans-Bold-5b" d="M 550 4863 
L 2491 4863 
L 2491 4159 
L 1613 4159 
L 1613 -141 
L 2491 -141 
L 2491 -844 
L 550 -844 
L 550 4863 
z
" transform="scale(0.015625)"/>
       <path id="DejaVuSans-Bold-68" d="M 4056 2131 
L 4056 0 
L 2931 0 
L 2931 347 
L 2931 1625 
Q 2931 2084 2911 2256 
Q 2891 2428 2841 2509 
Q 2775 2619 2662 2680 
Q 2550 2741 2406 2741 
Q 2056 2741 1856 2470 
Q 1656 2200 1656 1722 
L 1656 0 
L 538 0 
L 538 4863 
L 1656 4863 
L 1656 2988 
Q 1909 3294 2193 3439 
Q 2478 3584 2822 3584 
Q 3428 3584 3742 3212 
Q 4056 2841 4056 2131 
z
" transform="scale(0.015625)"/>
       <path id="DejaVuSans-Bold-72" d="M 3138 2547 
Q 2991 2616 2845 2648 
Q 2700 2681 2553 2681 
Q 2122 2681 1889 2404 
Q 1656 2128 1656 1613 
L 1656 0 
L 538 0 
L 538 3500 
L 1656 3500 
L 1656 2925 
Q 1872 3269 2151 3426 
Q 2431 3584 2822 3584 
Q 2878 3584 2943 3579 
Q 3009 3575 3134 3559 
L 3138 2547 
z
" transform="scale(0.015625)"/>
       <path id="DejaVuSans-Bold-5d" d="M 2375 -844 
L 434 -844 
L 434 -141 
L 1313 -141 
L 1313 4159 
L 434 4159 
L 434 4863 
L 2375 4863 
L 2375 -844 
z
" transform="scale(0.015625)"/>
      </defs>
      <use xlink:href="#DejaVuSans-Bold-74"/>
      <use xlink:href="#DejaVuSans-Bold-69" transform="translate(47.802734 0)"/>
      <use xlink:href="#DejaVuSans-Bold-6d" transform="translate(82.080078 0)"/>
      <use xlink:href="#DejaVuSans-Bold-65" transform="translate(186.279297 0)"/>
      <use xlink:href="#DejaVuSans-Bold-20" transform="translate(254.101562 0)"/>
      <use xlink:href="#DejaVuSans-Bold-5b" transform="translate(288.916016 0)"/>
      <use xlink:href="#DejaVuSans-Bold-68" transform="translate(334.619141 0)"/>
      <use xlink:href="#DejaVuSans-Bold-72" transform="translate(405.810547 0)"/>
      <use xlink:href="#DejaVuSans-Bold-5d" transform="translate(455.126953 0)"/>
     </g>
    </g>
   </g>
   <g id="matplotlib.axis_2">
    <g id="ytick_1">
     <g id="line2d_9">
      <defs>
       <path id="mf9bef5588e" d="M 0 0 
L -3.5 0 
" style="stroke: #000000; stroke-width: 0.8"/>
      </defs>
      <g>
       <use xlink:href="#mf9bef5588e" x="59.495" y="338.110937" style="stroke: #000000; stroke-width: 0.8"/>
      </g>
     </g>
     <g id="text_10">
      <!-- 0.0 -->
      <g transform="translate(28.640313 343.809766) scale(0.15 -0.15)">
       <use xlink:href="#DejaVuSans-30"/>
       <use xlink:href="#DejaVuSans-2e" transform="translate(63.623047 0)"/>
       <use xlink:href="#DejaVuSans-30" transform="translate(95.410156 0)"/>
      </g>
     </g>
    </g>
    <g id="ytick_2">
     <g id="line2d_10">
      <g>
       <use xlink:href="#mf9bef5588e" x="59.495" y="278.912387" style="stroke: #000000; stroke-width: 0.8"/>
      </g>
     </g>
     <g id="text_11">
      <!-- 0.2 -->
      <g transform="translate(28.640313 284.611215) scale(0.15 -0.15)">
       <use xlink:href="#DejaVuSans-30"/>
       <use xlink:href="#DejaVuSans-2e" transform="translate(63.623047 0)"/>
       <use xlink:href="#DejaVuSans-32" transform="translate(95.410156 0)"/>
      </g>
     </g>
    </g>
    <g id="ytick_3">
     <g id="line2d_11">
      <g>
       <use xlink:href="#mf9bef5588e" x="59.495" y="219.713836" style="stroke: #000000; stroke-width: 0.8"/>
      </g>
     </g>
     <g id="text_12">
      <!-- 0.4 -->
      <g transform="translate(28.640313 225.412664) scale(0.15 -0.15)">
       <defs>
        <path id="DejaVuSans-34" d="M 2419 4116 
L 825 1625 
L 2419 1625 
L 2419 4116 
z
M 2253 4666 
L 3047 4666 
L 3047 1625 
L 3713 1625 
L 3713 1100 
L 3047 1100 
L 3047 0 
L 2419 0 
L 2419 1100 
L 313 1100 
L 313 1709 
L 2253 4666 
z
" transform="scale(0.015625)"/>
       </defs>
       <use xlink:href="#DejaVuSans-30"/>
       <use xlink:href="#DejaVuSans-2e" transform="translate(63.623047 0)"/>
       <use xlink:href="#DejaVuSans-34" transform="translate(95.410156 0)"/>
      </g>
     </g>
    </g>
    <g id="ytick_4">
     <g id="line2d_12">
      <g>
       <use xlink:href="#mf9bef5588e" x="59.495" y="160.515285" style="stroke: #000000; stroke-width: 0.8"/>
      </g>
     </g>
     <g id="text_13">
      <!-- 0.6 -->
      <g transform="translate(28.640313 166.214113) scale(0.15 -0.15)">
       <defs>
        <path id="DejaVuSans-36" d="M 2113 2584 
Q 1688 2584 1439 2293 
Q 1191 2003 1191 1497 
Q 1191 994 1439 701 
Q 1688 409 2113 409 
Q 2538 409 2786 701 
Q 3034 994 3034 1497 
Q 3034 2003 2786 2293 
Q 2538 2584 2113 2584 
z
M 3366 4563 
L 3366 3988 
Q 3128 4100 2886 4159 
Q 2644 4219 2406 4219 
Q 1781 4219 1451 3797 
Q 1122 3375 1075 2522 
Q 1259 2794 1537 2939 
Q 1816 3084 2150 3084 
Q 2853 3084 3261 2657 
Q 3669 2231 3669 1497 
Q 3669 778 3244 343 
Q 2819 -91 2113 -91 
Q 1303 -91 875 529 
Q 447 1150 447 2328 
Q 447 3434 972 4092 
Q 1497 4750 2381 4750 
Q 2619 4750 2861 4703 
Q 3103 4656 3366 4563 
z
" transform="scale(0.015625)"/>
       </defs>
       <use xlink:href="#DejaVuSans-30"/>
       <use xlink:href="#DejaVuSans-2e" transform="translate(63.623047 0)"/>
       <use xlink:href="#DejaVuSans-36" transform="translate(95.410156 0)"/>
      </g>
     </g>
    </g>
    <g id="ytick_5">
     <g id="line2d_13">
      <g>
       <use xlink:href="#mf9bef5588e" x="59.495" y="101.316735" style="stroke: #000000; stroke-width: 0.8"/>
      </g>
     </g>
     <g id="text_14">
      <!-- 0.8 -->
      <g transform="translate(28.640313 107.015563) scale(0.15 -0.15)">
       <defs>
        <path id="DejaVuSans-38" d="M 2034 2216 
Q 1584 2216 1326 1975 
Q 1069 1734 1069 1313 
Q 1069 891 1326 650 
Q 1584 409 2034 409 
Q 2484 409 2743 651 
Q 3003 894 3003 1313 
Q 3003 1734 2745 1975 
Q 2488 2216 2034 2216 
z
M 1403 2484 
Q 997 2584 770 2862 
Q 544 3141 544 3541 
Q 544 4100 942 4425 
Q 1341 4750 2034 4750 
Q 2731 4750 3128 4425 
Q 3525 4100 3525 3541 
Q 3525 3141 3298 2862 
Q 3072 2584 2669 2484 
Q 3125 2378 3379 2068 
Q 3634 1759 3634 1313 
Q 3634 634 3220 271 
Q 2806 -91 2034 -91 
Q 1263 -91 848 271 
Q 434 634 434 1313 
Q 434 1759 690 2068 
Q 947 2378 1403 2484 
z
M 1172 3481 
Q 1172 3119 1398 2916 
Q 1625 2713 2034 2713 
Q 2441 2713 2670 2916 
Q 2900 3119 2900 3481 
Q 2900 3844 2670 4047 
Q 2441 4250 2034 4250 
Q 1625 4250 1398 4047 
Q 1172 3844 1172 3481 
z
" transform="scale(0.015625)"/>
       </defs>
       <use xlink:href="#DejaVuSans-30"/>
       <use xlink:href="#DejaVuSans-2e" transform="translate(63.623047 0)"/>
       <use xlink:href="#DejaVuSans-38" transform="translate(95.410156 0)"/>
      </g>
     </g>
    </g>
    <g id="text_15">
     <!-- captopril [µM] -->
     <g transform="translate(20.877187 278.568844) rotate(-90) scale(0.18 -0.18)">
      <defs>
       <path id="DejaVuSans-Bold-63" d="M 3366 3391 
L 3366 2478 
Q 3138 2634 2908 2709 
Q 2678 2784 2431 2784 
Q 1963 2784 1702 2511 
Q 1441 2238 1441 1747 
Q 1441 1256 1702 982 
Q 1963 709 2431 709 
Q 2694 709 2930 787 
Q 3166 866 3366 1019 
L 3366 103 
Q 3103 6 2833 -42 
Q 2563 -91 2291 -91 
Q 1344 -91 809 395 
Q 275 881 275 1747 
Q 275 2613 809 3098 
Q 1344 3584 2291 3584 
Q 2566 3584 2833 3536 
Q 3100 3488 3366 3391 
z
" transform="scale(0.015625)"/>
       <path id="DejaVuSans-Bold-61" d="M 2106 1575 
Q 1756 1575 1579 1456 
Q 1403 1338 1403 1106 
Q 1403 894 1545 773 
Q 1688 653 1941 653 
Q 2256 653 2472 879 
Q 2688 1106 2688 1447 
L 2688 1575 
L 2106 1575 
z
M 3816 1997 
L 3816 0 
L 2688 0 
L 2688 519 
Q 2463 200 2181 54 
Q 1900 -91 1497 -91 
Q 953 -91 614 226 
Q 275 544 275 1050 
Q 275 1666 698 1953 
Q 1122 2241 2028 2241 
L 2688 2241 
L 2688 2328 
Q 2688 2594 2478 2717 
Q 2269 2841 1825 2841 
Q 1466 2841 1156 2769 
Q 847 2697 581 2553 
L 581 3406 
Q 941 3494 1303 3539 
Q 1666 3584 2028 3584 
Q 2975 3584 3395 3211 
Q 3816 2838 3816 1997 
z
" transform="scale(0.015625)"/>
       <path id="DejaVuSans-Bold-70" d="M 1656 506 
L 1656 -1331 
L 538 -1331 
L 538 3500 
L 1656 3500 
L 1656 2988 
Q 1888 3294 2169 3439 
Q 2450 3584 2816 3584 
Q 3463 3584 3878 3070 
Q 4294 2556 4294 1747 
Q 4294 938 3878 423 
Q 3463 -91 2816 -91 
Q 2450 -91 2169 54 
Q 1888 200 1656 506 
z
M 2400 2772 
Q 2041 2772 1848 2508 
Q 1656 2244 1656 1747 
Q 1656 1250 1848 986 
Q 2041 722 2400 722 
Q 2759 722 2948 984 
Q 3138 1247 3138 1747 
Q 3138 2247 2948 2509 
Q 2759 2772 2400 2772 
z
" transform="scale(0.015625)"/>
       <path id="DejaVuSans-Bold-6f" d="M 2203 2784 
Q 1831 2784 1636 2517 
Q 1441 2250 1441 1747 
Q 1441 1244 1636 976 
Q 1831 709 2203 709 
Q 2569 709 2762 976 
Q 2956 1244 2956 1747 
Q 2956 2250 2762 2517 
Q 2569 2784 2203 2784 
z
M 2203 3584 
Q 3106 3584 3614 3096 
Q 4122 2609 4122 1747 
Q 4122 884 3614 396 
Q 3106 -91 2203 -91 
Q 1297 -91 786 396 
Q 275 884 275 1747 
Q 275 2609 786 3096 
Q 1297 3584 2203 3584 
z
" transform="scale(0.015625)"/>
       <path id="DejaVuSans-Bold-6c" d="M 538 4863 
L 1656 4863 
L 1656 0 
L 538 0 
L 538 4863 
z
" transform="scale(0.015625)"/>
       <path id="DejaVuSans-Bold-b5" d="M 544 -1338 
L 544 3500 
L 1672 3500 
L 1672 1466 
Q 1672 1103 1828 926 
Q 1984 750 2303 750 
Q 2625 750 2781 926 
Q 2938 1103 2938 1466 
L 2938 3500 
L 4063 3500 
L 4063 1159 
Q 4063 938 4114 850 
Q 4166 763 4288 763 
Q 4344 763 4395 778 
Q 4447 794 4506 831 
L 4506 50 
Q 4341 -22 4195 -56 
Q 4050 -91 3909 -91 
Q 3631 -91 3454 26 
Q 3278 144 3169 403 
Q 3022 156 2811 32 
Q 2600 -91 2322 -91 
Q 2091 -91 1928 -17 
Q 1766 56 1672 206 
L 1672 -1338 
L 544 -1338 
z
" transform="scale(0.015625)"/>
       <path id="DejaVuSans-Bold-4d" d="M 588 4666 
L 2119 4666 
L 3181 2169 
L 4250 4666 
L 5778 4666 
L 5778 0 
L 4641 0 
L 4641 3413 
L 3566 897 
L 2803 897 
L 1728 3413 
L 1728 0 
L 588 0 
L 588 4666 
z
" transform="scale(0.015625)"/>
      </defs>
      <use xlink:href="#DejaVuSans-Bold-63"/>
      <use xlink:href="#DejaVuSans-Bold-61" transform="translate(59.277344 0)"/>
      <use xlink:href="#DejaVuSans-Bold-70" transform="translate(126.757812 0)"/>
      <use xlink:href="#DejaVuSans-Bold-74" transform="translate(198.339844 0)"/>
      <use xlink:href="#DejaVuSans-Bold-6f" transform="translate(246.142578 0)"/>
      <use xlink:href="#DejaVuSans-Bold-70" transform="translate(314.84375 0)"/>
      <use xlink:href="#DejaVuSans-Bold-72" transform="translate(386.425781 0)"/>
      <use xlink:href="#DejaVuSans-Bold-69" transform="translate(435.742188 0)"/>
      <use xlink:href="#DejaVuSans-Bold-6c" transform="translate(470.019531 0)"/>
      <use xlink:href="#DejaVuSans-Bold-20" transform="translate(504.296875 0)"/>
      <use xlink:href="#DejaVuSans-Bold-5b" transform="translate(539.111328 0)"/>
      <use xlink:href="#DejaVuSans-Bold-b5" transform="translate(584.814453 0)"/>
      <use xlink:href="#DejaVuSans-Bold-4d" transform="translate(658.398438 0)"/>
      <use xlink:href="#DejaVuSans-Bold-5d" transform="translate(757.910156 0)"/>
     </g>
    </g>
   </g>
   <g id="LineCollection_1">
    <path d="M 88.79 344.195703 
L 88.79 332.026172 
" clip-path="url(#p8c7af7bcef)" style="fill: none; stroke: #000000"/>
    <path d="M 98.555 343.550459 
L 98.555 332.671416 
" clip-path="url(#p8c7af7bcef)" style="fill: none; stroke: #000000"/>
    <path d="M 108.32 342.905215 
L 108.32 333.31666 
" clip-path="url(#p8c7af7bcef)" style="fill: none; stroke: #000000"/>
    <path d="M 118.085 342.28177 
L 118.085 333.940105 
" clip-path="url(#p8c7af7bcef)" style="fill: none; stroke: #000000"/>
    <path d="M 127.85 349.884 
L 127.85 307.732813 
" clip-path="url(#p8c7af7bcef)" style="fill: none; stroke: #000000"/>
    <path d="M 137.615 321.01447 
L 137.615 269.56216 
" clip-path="url(#p8c7af7bcef)" style="fill: none; stroke: #000000"/>
    <path d="M 157.145 280.271089 
L 157.145 235.8973 
" clip-path="url(#p8c7af7bcef)" style="fill: none; stroke: #000000"/>
    <path d="M 196.205 252.812436 
L 196.205 206.463657 
" clip-path="url(#p8c7af7bcef)" style="fill: none; stroke: #000000"/>
    <path d="M 254.795 236.424238 
L 254.795 201.744344 
" clip-path="url(#p8c7af7bcef)" style="fill: none; stroke: #000000"/>
    <path d="M 313.385 262.14212 
L 313.385 233.463918 
" clip-path="url(#p8c7af7bcef)" style="fill: none; stroke: #000000"/>
    <path d="M 430.565 298.018776 
L 430.565 288.694907 
" clip-path="url(#p8c7af7bcef)" style="fill: none; stroke: #000000"/>
   </g>
   <g id="LineCollection_2">
    <path d="M 88.79 343.867242 
L 88.79 332.354633 
" clip-path="url(#p8c7af7bcef)" style="fill: none; stroke: #000000"/>
    <path d="M 98.555 343.246872 
L 98.555 332.975003 
" clip-path="url(#p8c7af7bcef)" style="fill: none; stroke: #000000"/>
    <path d="M 108.32 343.324906 
L 108.32 332.896969 
" clip-path="url(#p8c7af7bcef)" style="fill: none; stroke: #000000"/>
    <path d="M 118.085 332.006935 
L 118.085 286.90591 
" clip-path="url(#p8c7af7bcef)" style="fill: none; stroke: #000000"/>
    <path d="M 127.85 295.092239 
L 127.85 247.197599 
" clip-path="url(#p8c7af7bcef)" style="fill: none; stroke: #000000"/>
    <path d="M 137.615 260.493958 
L 137.615 209.766685 
" clip-path="url(#p8c7af7bcef)" style="fill: none; stroke: #000000"/>
    <path d="M 157.145 224.889651 
L 157.145 162.896876 
" clip-path="url(#p8c7af7bcef)" style="fill: none; stroke: #000000"/>
    <path d="M 196.205 227.571525 
L 196.205 216.306023 
" clip-path="url(#p8c7af7bcef)" style="fill: none; stroke: #000000"/>
    <path d="M 254.795 273.081094 
L 254.795 246.307644 
" clip-path="url(#p8c7af7bcef)" style="fill: none; stroke: #000000"/>
    <path d="M 313.385 299.479918 
L 313.385 274.103276 
" clip-path="url(#p8c7af7bcef)" style="fill: none; stroke: #000000"/>
    <path d="M 430.565 335.919072 
L 430.565 303.467351 
" clip-path="url(#p8c7af7bcef)" style="fill: none; stroke: #000000"/>
   </g>
   <g id="line2d_14">
    <path d="M 79.025 338.110937 
L 80.0015 323.047246 
L 81.9545 276.020034 
L 83.9075 237.637597 
L 85.8605 207.110911 
L 87.8135 182.553732 
L 89.7665 162.546182 
L 91.7195 146.048651 
L 93.6725 132.297473 
L 95.6255 120.728376 
L 97.5785 110.921363 
L 99.5315 102.561034 
L 101.4845 95.408031 
L 103.4375 89.278446 
L 105.3905 84.028993 
L 107.3435 79.546288 
L 109.2965 75.739112 
L 111.2495 72.532806 
L 113.2025 69.865199 
L 115.1555 67.683652 
L 117.1085 65.942893 
L 119.0615 64.603433 
L 121.0145 63.630393 
L 122.9675 62.992632 
L 124.9205 62.662101 
L 126.8735 62.613341 
L 128.8265 62.82311 
L 130.7795 63.270087 
L 132.7325 63.934635 
L 134.6855 64.798621 
L 136.6385 65.845261 
L 139.568 67.723955 
L 142.4975 69.930936 
L 145.427 72.423256 
L 148.3565 75.162383 
L 152.2625 79.139209 
L 156.1685 83.421358 
L 161.051 89.108811 
L 166.91 96.289964 
L 174.722 106.23451 
L 201.0875 140.092734 
L 208.8995 149.671659 
L 216.7115 158.904935 
L 223.547 166.670615 
L 230.3825 174.127812 
L 237.218 181.268834 
L 244.0535 188.091496 
L 250.889 194.597784 
L 257.7245 200.792797 
L 264.56 206.683919 
L 271.3955 212.280166 
L 278.231 217.59168 
L 285.0665 222.629334 
L 291.902 227.404427 
L 298.7375 231.928447 
L 305.573 236.212896 
L 313.385 240.830644 
L 321.197 245.166957 
L 329.009 249.237942 
L 336.821 253.059094 
L 344.633 256.645246 
L 353.4215 260.416337 
L 362.21 263.926917 
L 370.9985 267.194898 
L 379.787 270.237078 
L 389.552 273.371536 
L 399.317 276.266687 
L 409.082 278.941119 
L 419.8235 281.648536 
L 430.565 284.130705 
L 442.283 286.604241 
L 454.001 288.855441 
L 466.6955 291.067301 
L 469.625 291.54668 
L 469.625 291.54668 
" clip-path="url(#p8c7af7bcef)" style="fill: none; stroke: #000000; stroke-width: 2; stroke-linecap: square"/>
   </g>
   <g id="line2d_15">
    <path d="M 88.79 338.110937 
L 98.555 338.110937 
L 108.32 338.110937 
L 118.085 338.110937 
L 127.85 328.808407 
L 137.615 295.288315 
L 157.145 258.084195 
L 196.205 229.638047 
L 254.795 219.084291 
L 313.385 247.803019 
L 430.565 293.356842 
" clip-path="url(#p8c7af7bcef)" style="fill: none; stroke-dasharray: 3.7,1.6; stroke-dashoffset: 0; stroke: #000000"/>
    <defs>
     <path id="m2523b7457a" d="M -3 3 
L 3 3 
L 3 -3 
L -3 -3 
z
" style="stroke: #000000; stroke-linejoin: miter"/>
    </defs>
    <g clip-path="url(#p8c7af7bcef)">
     <use xlink:href="#m2523b7457a" x="88.79" y="338.110937" style="stroke: #000000; stroke-linejoin: miter"/>
     <use xlink:href="#m2523b7457a" x="98.555" y="338.110937" style="stroke: #000000; stroke-linejoin: miter"/>
     <use xlink:href="#m2523b7457a" x="108.32" y="338.110937" style="stroke: #000000; stroke-linejoin: miter"/>
     <use xlink:href="#m2523b7457a" x="118.085" y="338.110937" style="stroke: #000000; stroke-linejoin: miter"/>
     <use xlink:href="#m2523b7457a" x="127.85" y="328.808407" style="stroke: #000000; stroke-linejoin: miter"/>
     <use xlink:href="#m2523b7457a" x="137.615" y="295.288315" style="stroke: #000000; stroke-linejoin: miter"/>
     <use xlink:href="#m2523b7457a" x="157.145" y="258.084195" style="stroke: #000000; stroke-linejoin: miter"/>
     <use xlink:href="#m2523b7457a" x="196.205" y="229.638047" style="stroke: #000000; stroke-linejoin: miter"/>
     <use xlink:href="#m2523b7457a" x="254.795" y="219.084291" style="stroke: #000000; stroke-linejoin: miter"/>
     <use xlink:href="#m2523b7457a" x="313.385" y="247.803019" style="stroke: #000000; stroke-linejoin: miter"/>
     <use xlink:href="#m2523b7457a" x="430.565" y="293.356842" style="stroke: #000000; stroke-linejoin: miter"/>
    </g>
   </g>
   <g id="line2d_16">
    <path d="M 79.025 338.110937 
L 80.0015 326.744059 
L 81.9545 310.949218 
L 83.9075 298.337267 
L 85.8605 288.085422 
L 87.8135 279.614623 
L 89.7665 272.503423 
L 91.7195 266.443965 
L 93.6725 261.210318 
L 95.6255 256.63571 
L 97.5785 252.596149 
L 99.5315 248.998638 
L 101.4845 245.772698 
L 103.4375 242.864252 
L 106.367 239.007333 
L 109.2965 235.664989 
L 112.226 232.75912 
L 115.1555 230.230527 
L 118.085 228.032598 
L 121.0145 226.127368 
L 123.944 224.483023 
L 126.8735 223.072303 
L 129.803 221.871453 
L 132.7325 220.859515 
L 136.6385 219.772181 
L 140.5445 218.948824 
L 144.4505 218.355615 
L 148.3565 217.963037 
L 153.239 217.715427 
L 158.1215 217.69768 
L 163.9805 217.928215 
L 169.8395 218.383506 
L 176.675 219.140673 
L 184.487 220.236069 
L 194.252 221.856027 
L 205.97 224.044615 
L 222.5705 227.397517 
L 288.9725 241.048221 
L 311.432 245.334494 
L 333.8915 249.393246 
L 356.351 253.224367 
L 378.8105 256.83487 
L 402.2465 260.377954 
L 426.659 263.838294 
L 451.0715 267.077649 
L 469.625 269.400311 
L 469.625 269.400311 
" clip-path="url(#p8c7af7bcef)" style="fill: none; stroke: #000000; stroke-width: 2; stroke-linecap: square"/>
   </g>
   <g id="line2d_17">
    <path d="M 88.79 338.110937 
L 98.555 338.110937 
L 108.32 338.110937 
L 118.085 309.456422 
L 127.85 271.144919 
L 137.615 235.130322 
L 157.145 193.893263 
L 196.205 221.938774 
L 254.795 259.694369 
L 313.385 286.791597 
L 430.565 319.693212 
" clip-path="url(#p8c7af7bcef)" style="fill: none; stroke-dasharray: 3.7,1.6; stroke-dashoffset: 0; stroke: #000000"/>
    <defs>
     <path id="mb39dc79c35" d="M 0 3 
C 0.795609 3 1.55874 2.683901 2.12132 2.12132 
C 2.683901 1.55874 3 0.795609 3 0 
C 3 -0.795609 2.683901 -1.55874 2.12132 -2.12132 
C 1.55874 -2.683901 0.795609 -3 0 -3 
C -0.795609 -3 -1.55874 -2.683901 -2.12132 -2.12132 
C -2.683901 -1.55874 -3 -0.795609 -3 0 
C -3 0.795609 -2.683901 1.55874 -2.12132 2.12132 
C -1.55874 2.683901 -0.795609 3 0 3 
z
" style="stroke: #000000"/>
    </defs>
    <g clip-path="url(#p8c7af7bcef)">
     <use xlink:href="#mb39dc79c35" x="88.79" y="338.110937" style="stroke: #000000"/>
     <use xlink:href="#mb39dc79c35" x="98.555" y="338.110937" style="stroke: #000000"/>
     <use xlink:href="#mb39dc79c35" x="108.32" y="338.110937" style="stroke: #000000"/>
     <use xlink:href="#mb39dc79c35" x="118.085" y="309.456422" style="stroke: #000000"/>
     <use xlink:href="#mb39dc79c35" x="127.85" y="271.144919" style="stroke: #000000"/>
     <use xlink:href="#mb39dc79c35" x="137.615" y="235.130322" style="stroke: #000000"/>
     <use xlink:href="#mb39dc79c35" x="157.145" y="193.893263" style="stroke: #000000"/>
     <use xlink:href="#mb39dc79c35" x="196.205" y="221.938774" style="stroke: #000000"/>
     <use xlink:href="#mb39dc79c35" x="254.795" y="259.694369" style="stroke: #000000"/>
     <use xlink:href="#mb39dc79c35" x="313.385" y="286.791597" style="stroke: #000000"/>
     <use xlink:href="#mb39dc79c35" x="430.565" y="319.693212" style="stroke: #000000"/>
    </g>
   </g>
   <g id="patch_3">
    <path d="M 59.495 364.248 
L 59.495 48.24 
" style="fill: none; stroke: #000000; stroke-width: 0.8; stroke-linejoin: miter; stroke-linecap: square"/>
   </g>
   <g id="patch_4">
    <path d="M 489.155 364.248 
L 489.155 48.24 
" style="fill: none; stroke: #000000; stroke-width: 0.8; stroke-linejoin: miter; stroke-linecap: square"/>
   </g>
   <g id="patch_5">
    <path d="M 59.495 364.248 
L 489.155 364.248 
" style="fill: none; stroke: #000000; stroke-width: 0.8; stroke-linejoin: miter; stroke-linecap: square"/>
   </g>
   <g id="patch_6">
    <path d="M 59.495 48.24 
L 489.155 48.24 
" style="fill: none; stroke: #000000; stroke-width: 0.8; stroke-linejoin: miter; stroke-linecap: square"/>
   </g>
   <g id="legend_1">
    <g id="patch_7">
     <path d="M 259.947187 114.9525 
L 482.155 114.9525 
Q 484.155 114.9525 484.155 112.9525 
L 484.155 55.24 
Q 484.155 53.24 482.155 53.24 
L 259.947187 53.24 
Q 257.947187 53.24 257.947187 55.24 
L 257.947187 112.9525 
Q 257.947187 114.9525 259.947187 114.9525 
z
" style="fill: #ffffff; opacity: 0.8; stroke: #cccccc; stroke-linejoin: miter"/>
    </g>
    <g id="line2d_18">
     <path d="M 261.947187 61.338437 
L 281.947187 61.338437 
" style="fill: none; stroke: #000000; stroke-width: 2; stroke-linecap: square"/>
    </g>
    <g id="line2d_19"/>
    <g id="text_16">
     <!-- CHF unbuf sim: 12.5mg PO -->
     <g transform="translate(289.947187 64.838437) scale(0.1 -0.1)">
      <defs>
       <path id="DejaVuSans-43" d="M 4122 4306 
L 4122 3641 
Q 3803 3938 3442 4084 
Q 3081 4231 2675 4231 
Q 1875 4231 1450 3742 
Q 1025 3253 1025 2328 
Q 1025 1406 1450 917 
Q 1875 428 2675 428 
Q 3081 428 3442 575 
Q 3803 722 4122 1019 
L 4122 359 
Q 3791 134 3420 21 
Q 3050 -91 2638 -91 
Q 1578 -91 968 557 
Q 359 1206 359 2328 
Q 359 3453 968 4101 
Q 1578 4750 2638 4750 
Q 3056 4750 3426 4639 
Q 3797 4528 4122 4306 
z
" transform="scale(0.015625)"/>
       <path id="DejaVuSans-48" d="M 628 4666 
L 1259 4666 
L 1259 2753 
L 3553 2753 
L 3553 4666 
L 4184 4666 
L 4184 0 
L 3553 0 
L 3553 2222 
L 1259 2222 
L 1259 0 
L 628 0 
L 628 4666 
z
" transform="scale(0.015625)"/>
       <path id="DejaVuSans-46" d="M 628 4666 
L 3309 4666 
L 3309 4134 
L 1259 4134 
L 1259 2759 
L 3109 2759 
L 3109 2228 
L 1259 2228 
L 1259 0 
L 628 0 
L 628 4666 
z
" transform="scale(0.015625)"/>
       <path id="DejaVuSans-20" transform="scale(0.015625)"/>
       <path id="DejaVuSans-75" d="M 544 1381 
L 544 3500 
L 1119 3500 
L 1119 1403 
Q 1119 906 1312 657 
Q 1506 409 1894 409 
Q 2359 409 2629 706 
Q 2900 1003 2900 1516 
L 2900 3500 
L 3475 3500 
L 3475 0 
L 2900 0 
L 2900 538 
Q 2691 219 2414 64 
Q 2138 -91 1772 -91 
Q 1169 -91 856 284 
Q 544 659 544 1381 
z
M 1991 3584 
L 1991 3584 
z
" transform="scale(0.015625)"/>
       <path id="DejaVuSans-6e" d="M 3513 2113 
L 3513 0 
L 2938 0 
L 2938 2094 
Q 2938 2591 2744 2837 
Q 2550 3084 2163 3084 
Q 1697 3084 1428 2787 
Q 1159 2491 1159 1978 
L 1159 0 
L 581 0 
L 581 3500 
L 1159 3500 
L 1159 2956 
Q 1366 3272 1645 3428 
Q 1925 3584 2291 3584 
Q 2894 3584 3203 3211 
Q 3513 2838 3513 2113 
z
" transform="scale(0.015625)"/>
       <path id="DejaVuSans-62" d="M 3116 1747 
Q 3116 2381 2855 2742 
Q 2594 3103 2138 3103 
Q 1681 3103 1420 2742 
Q 1159 2381 1159 1747 
Q 1159 1113 1420 752 
Q 1681 391 2138 391 
Q 2594 391 2855 752 
Q 3116 1113 3116 1747 
z
M 1159 2969 
Q 1341 3281 1617 3432 
Q 1894 3584 2278 3584 
Q 2916 3584 3314 3078 
Q 3713 2572 3713 1747 
Q 3713 922 3314 415 
Q 2916 -91 2278 -91 
Q 1894 -91 1617 61 
Q 1341 213 1159 525 
L 1159 0 
L 581 0 
L 581 4863 
L 1159 4863 
L 1159 2969 
z
" transform="scale(0.015625)"/>
       <path id="DejaVuSans-66" d="M 2375 4863 
L 2375 4384 
L 1825 4384 
Q 1516 4384 1395 4259 
Q 1275 4134 1275 3809 
L 1275 3500 
L 2222 3500 
L 2222 3053 
L 1275 3053 
L 1275 0 
L 697 0 
L 697 3053 
L 147 3053 
L 147 3500 
L 697 3500 
L 697 3744 
Q 697 4328 969 4595 
Q 1241 4863 1831 4863 
L 2375 4863 
z
" transform="scale(0.015625)"/>
       <path id="DejaVuSans-73" d="M 2834 3397 
L 2834 2853 
Q 2591 2978 2328 3040 
Q 2066 3103 1784 3103 
Q 1356 3103 1142 2972 
Q 928 2841 928 2578 
Q 928 2378 1081 2264 
Q 1234 2150 1697 2047 
L 1894 2003 
Q 2506 1872 2764 1633 
Q 3022 1394 3022 966 
Q 3022 478 2636 193 
Q 2250 -91 1575 -91 
Q 1294 -91 989 -36 
Q 684 19 347 128 
L 347 722 
Q 666 556 975 473 
Q 1284 391 1588 391 
Q 1994 391 2212 530 
Q 2431 669 2431 922 
Q 2431 1156 2273 1281 
Q 2116 1406 1581 1522 
L 1381 1569 
Q 847 1681 609 1914 
Q 372 2147 372 2553 
Q 372 3047 722 3315 
Q 1072 3584 1716 3584 
Q 2034 3584 2315 3537 
Q 2597 3491 2834 3397 
z
" transform="scale(0.015625)"/>
       <path id="DejaVuSans-69" d="M 603 3500 
L 1178 3500 
L 1178 0 
L 603 0 
L 603 3500 
z
M 603 4863 
L 1178 4863 
L 1178 4134 
L 603 4134 
L 603 4863 
z
" transform="scale(0.015625)"/>
       <path id="DejaVuSans-6d" d="M 3328 2828 
Q 3544 3216 3844 3400 
Q 4144 3584 4550 3584 
Q 5097 3584 5394 3201 
Q 5691 2819 5691 2113 
L 5691 0 
L 5113 0 
L 5113 2094 
Q 5113 2597 4934 2840 
Q 4756 3084 4391 3084 
Q 3944 3084 3684 2787 
Q 3425 2491 3425 1978 
L 3425 0 
L 2847 0 
L 2847 2094 
Q 2847 2600 2669 2842 
Q 2491 3084 2119 3084 
Q 1678 3084 1418 2786 
Q 1159 2488 1159 1978 
L 1159 0 
L 581 0 
L 581 3500 
L 1159 3500 
L 1159 2956 
Q 1356 3278 1631 3431 
Q 1906 3584 2284 3584 
Q 2666 3584 2933 3390 
Q 3200 3197 3328 2828 
z
" transform="scale(0.015625)"/>
       <path id="DejaVuSans-3a" d="M 750 794 
L 1409 794 
L 1409 0 
L 750 0 
L 750 794 
z
M 750 3309 
L 1409 3309 
L 1409 2516 
L 750 2516 
L 750 3309 
z
" transform="scale(0.015625)"/>
       <path id="DejaVuSans-67" d="M 2906 1791 
Q 2906 2416 2648 2759 
Q 2391 3103 1925 3103 
Q 1463 3103 1205 2759 
Q 947 2416 947 1791 
Q 947 1169 1205 825 
Q 1463 481 1925 481 
Q 2391 481 2648 825 
Q 2906 1169 2906 1791 
z
M 3481 434 
Q 3481 -459 3084 -895 
Q 2688 -1331 1869 -1331 
Q 1566 -1331 1297 -1286 
Q 1028 -1241 775 -1147 
L 775 -588 
Q 1028 -725 1275 -790 
Q 1522 -856 1778 -856 
Q 2344 -856 2625 -561 
Q 2906 -266 2906 331 
L 2906 616 
Q 2728 306 2450 153 
Q 2172 0 1784 0 
Q 1141 0 747 490 
Q 353 981 353 1791 
Q 353 2603 747 3093 
Q 1141 3584 1784 3584 
Q 2172 3584 2450 3431 
Q 2728 3278 2906 2969 
L 2906 3500 
L 3481 3500 
L 3481 434 
z
" transform="scale(0.015625)"/>
       <path id="DejaVuSans-50" d="M 1259 4147 
L 1259 2394 
L 2053 2394 
Q 2494 2394 2734 2622 
Q 2975 2850 2975 3272 
Q 2975 3691 2734 3919 
Q 2494 4147 2053 4147 
L 1259 4147 
z
M 628 4666 
L 2053 4666 
Q 2838 4666 3239 4311 
Q 3641 3956 3641 3272 
Q 3641 2581 3239 2228 
Q 2838 1875 2053 1875 
L 1259 1875 
L 1259 0 
L 628 0 
L 628 4666 
z
" transform="scale(0.015625)"/>
       <path id="DejaVuSans-4f" d="M 2522 4238 
Q 1834 4238 1429 3725 
Q 1025 3213 1025 2328 
Q 1025 1447 1429 934 
Q 1834 422 2522 422 
Q 3209 422 3611 934 
Q 4013 1447 4013 2328 
Q 4013 3213 3611 3725 
Q 3209 4238 2522 4238 
z
M 2522 4750 
Q 3503 4750 4090 4092 
Q 4678 3434 4678 2328 
Q 4678 1225 4090 567 
Q 3503 -91 2522 -91 
Q 1538 -91 948 565 
Q 359 1222 359 2328 
Q 359 3434 948 4092 
Q 1538 4750 2522 4750 
z
" transform="scale(0.015625)"/>
      </defs>
      <use xlink:href="#DejaVuSans-43"/>
      <use xlink:href="#DejaVuSans-48" transform="translate(69.824219 0)"/>
      <use xlink:href="#DejaVuSans-46" transform="translate(145.019531 0)"/>
      <use xlink:href="#DejaVuSans-20" transform="translate(202.539062 0)"/>
      <use xlink:href="#DejaVuSans-75" transform="translate(234.326172 0)"/>
      <use xlink:href="#DejaVuSans-6e" transform="translate(297.705078 0)"/>
      <use xlink:href="#DejaVuSans-62" transform="translate(361.083984 0)"/>
      <use xlink:href="#DejaVuSans-75" transform="translate(424.560547 0)"/>
      <use xlink:href="#DejaVuSans-66" transform="translate(487.939453 0)"/>
      <use xlink:href="#DejaVuSans-20" transform="translate(523.144531 0)"/>
      <use xlink:href="#DejaVuSans-73" transform="translate(554.931641 0)"/>
      <use xlink:href="#DejaVuSans-69" transform="translate(607.03125 0)"/>
      <use xlink:href="#DejaVuSans-6d" transform="translate(634.814453 0)"/>
      <use xlink:href="#DejaVuSans-3a" transform="translate(732.226562 0)"/>
      <use xlink:href="#DejaVuSans-20" transform="translate(765.917969 0)"/>
      <use xlink:href="#DejaVuSans-31" transform="translate(797.705078 0)"/>
      <use xlink:href="#DejaVuSans-32" transform="translate(861.328125 0)"/>
      <use xlink:href="#DejaVuSans-2e" transform="translate(924.951172 0)"/>
      <use xlink:href="#DejaVuSans-35" transform="translate(956.738281 0)"/>
      <use xlink:href="#DejaVuSans-6d" transform="translate(1020.361328 0)"/>
      <use xlink:href="#DejaVuSans-67" transform="translate(1117.773438 0)"/>
      <use xlink:href="#DejaVuSans-20" transform="translate(1181.25 0)"/>
      <use xlink:href="#DejaVuSans-50" transform="translate(1213.037109 0)"/>
      <use xlink:href="#DejaVuSans-4f" transform="translate(1273.339844 0)"/>
     </g>
    </g>
    <g id="LineCollection_3">
     <path d="M 271.947187 81.016562 
L 271.947187 71.016562 
" style="fill: none; stroke: #000000"/>
    </g>
    <g id="line2d_20">
     <path d="M 261.947187 76.016562 
L 281.947187 76.016562 
" style="fill: none; stroke-dasharray: 3.7,1.6; stroke-dashoffset: 0; stroke: #000000"/>
    </g>
    <g id="line2d_21">
     <g>
      <use xlink:href="#m2523b7457a" x="271.947187" y="76.016562" style="stroke: #000000; stroke-linejoin: miter"/>
     </g>
    </g>
    <g id="text_17">
     <!-- CHF unbuf exp: 12.5mg PO±SD (n=6) -->
     <g transform="translate(289.947187 79.516562) scale(0.1 -0.1)">
      <defs>
       <path id="DejaVuSans-65" d="M 3597 1894 
L 3597 1613 
L 953 1613 
Q 991 1019 1311 708 
Q 1631 397 2203 397 
Q 2534 397 2845 478 
Q 3156 559 3463 722 
L 3463 178 
Q 3153 47 2828 -22 
Q 2503 -91 2169 -91 
Q 1331 -91 842 396 
Q 353 884 353 1716 
Q 353 2575 817 3079 
Q 1281 3584 2069 3584 
Q 2775 3584 3186 3129 
Q 3597 2675 3597 1894 
z
M 3022 2063 
Q 3016 2534 2758 2815 
Q 2500 3097 2075 3097 
Q 1594 3097 1305 2825 
Q 1016 2553 972 2059 
L 3022 2063 
z
" transform="scale(0.015625)"/>
       <path id="DejaVuSans-78" d="M 3513 3500 
L 2247 1797 
L 3578 0 
L 2900 0 
L 1881 1375 
L 863 0 
L 184 0 
L 1544 1831 
L 300 3500 
L 978 3500 
L 1906 2253 
L 2834 3500 
L 3513 3500 
z
" transform="scale(0.015625)"/>
       <path id="DejaVuSans-70" d="M 1159 525 
L 1159 -1331 
L 581 -1331 
L 581 3500 
L 1159 3500 
L 1159 2969 
Q 1341 3281 1617 3432 
Q 1894 3584 2278 3584 
Q 2916 3584 3314 3078 
Q 3713 2572 3713 1747 
Q 3713 922 3314 415 
Q 2916 -91 2278 -91 
Q 1894 -91 1617 61 
Q 1341 213 1159 525 
z
M 3116 1747 
Q 3116 2381 2855 2742 
Q 2594 3103 2138 3103 
Q 1681 3103 1420 2742 
Q 1159 2381 1159 1747 
Q 1159 1113 1420 752 
Q 1681 391 2138 391 
Q 2594 391 2855 752 
Q 3116 1113 3116 1747 
z
" transform="scale(0.015625)"/>
       <path id="DejaVuSans-b1" d="M 2944 4013 
L 2944 2803 
L 4684 2803 
L 4684 2272 
L 2944 2272 
L 2944 1063 
L 2419 1063 
L 2419 2272 
L 678 2272 
L 678 2803 
L 2419 2803 
L 2419 4013 
L 2944 4013 
z
M 678 531 
L 4684 531 
L 4684 0 
L 678 0 
L 678 531 
z
" transform="scale(0.015625)"/>
       <path id="DejaVuSans-53" d="M 3425 4513 
L 3425 3897 
Q 3066 4069 2747 4153 
Q 2428 4238 2131 4238 
Q 1616 4238 1336 4038 
Q 1056 3838 1056 3469 
Q 1056 3159 1242 3001 
Q 1428 2844 1947 2747 
L 2328 2669 
Q 3034 2534 3370 2195 
Q 3706 1856 3706 1288 
Q 3706 609 3251 259 
Q 2797 -91 1919 -91 
Q 1588 -91 1214 -16 
Q 841 59 441 206 
L 441 856 
Q 825 641 1194 531 
Q 1563 422 1919 422 
Q 2459 422 2753 634 
Q 3047 847 3047 1241 
Q 3047 1584 2836 1778 
Q 2625 1972 2144 2069 
L 1759 2144 
Q 1053 2284 737 2584 
Q 422 2884 422 3419 
Q 422 4038 858 4394 
Q 1294 4750 2059 4750 
Q 2388 4750 2728 4690 
Q 3069 4631 3425 4513 
z
" transform="scale(0.015625)"/>
       <path id="DejaVuSans-44" d="M 1259 4147 
L 1259 519 
L 2022 519 
Q 2988 519 3436 956 
Q 3884 1394 3884 2338 
Q 3884 3275 3436 3711 
Q 2988 4147 2022 4147 
L 1259 4147 
z
M 628 4666 
L 1925 4666 
Q 3281 4666 3915 4102 
Q 4550 3538 4550 2338 
Q 4550 1131 3912 565 
Q 3275 0 1925 0 
L 628 0 
L 628 4666 
z
" transform="scale(0.015625)"/>
       <path id="DejaVuSans-28" d="M 1984 4856 
Q 1566 4138 1362 3434 
Q 1159 2731 1159 2009 
Q 1159 1288 1364 580 
Q 1569 -128 1984 -844 
L 1484 -844 
Q 1016 -109 783 600 
Q 550 1309 550 2009 
Q 550 2706 781 3412 
Q 1013 4119 1484 4856 
L 1984 4856 
z
" transform="scale(0.015625)"/>
       <path id="DejaVuSans-3d" d="M 678 2906 
L 4684 2906 
L 4684 2381 
L 678 2381 
L 678 2906 
z
M 678 1631 
L 4684 1631 
L 4684 1100 
L 678 1100 
L 678 1631 
z
" transform="scale(0.015625)"/>
       <path id="DejaVuSans-29" d="M 513 4856 
L 1013 4856 
Q 1481 4119 1714 3412 
Q 1947 2706 1947 2009 
Q 1947 1309 1714 600 
Q 1481 -109 1013 -844 
L 513 -844 
Q 928 -128 1133 580 
Q 1338 1288 1338 2009 
Q 1338 2731 1133 3434 
Q 928 4138 513 4856 
z
" transform="scale(0.015625)"/>
      </defs>
      <use xlink:href="#DejaVuSans-43"/>
      <use xlink:href="#DejaVuSans-48" transform="translate(69.824219 0)"/>
      <use xlink:href="#DejaVuSans-46" transform="translate(145.019531 0)"/>
      <use xlink:href="#DejaVuSans-20" transform="translate(202.539062 0)"/>
      <use xlink:href="#DejaVuSans-75" transform="translate(234.326172 0)"/>
      <use xlink:href="#DejaVuSans-6e" transform="translate(297.705078 0)"/>
      <use xlink:href="#DejaVuSans-62" transform="translate(361.083984 0)"/>
      <use xlink:href="#DejaVuSans-75" transform="translate(424.560547 0)"/>
      <use xlink:href="#DejaVuSans-66" transform="translate(487.939453 0)"/>
      <use xlink:href="#DejaVuSans-20" transform="translate(523.144531 0)"/>
      <use xlink:href="#DejaVuSans-65" transform="translate(554.931641 0)"/>
      <use xlink:href="#DejaVuSans-78" transform="translate(614.705078 0)"/>
      <use xlink:href="#DejaVuSans-70" transform="translate(673.884766 0)"/>
      <use xlink:href="#DejaVuSans-3a" transform="translate(737.361328 0)"/>
      <use xlink:href="#DejaVuSans-20" transform="translate(771.052734 0)"/>
      <use xlink:href="#DejaVuSans-31" transform="translate(802.839844 0)"/>
      <use xlink:href="#DejaVuSans-32" transform="translate(866.462891 0)"/>
      <use xlink:href="#DejaVuSans-2e" transform="translate(930.085938 0)"/>
      <use xlink:href="#DejaVuSans-35" transform="translate(961.873047 0)"/>
      <use xlink:href="#DejaVuSans-6d" transform="translate(1025.496094 0)"/>
      <use xlink:href="#DejaVuSans-67" transform="translate(1122.908203 0)"/>
      <use xlink:href="#DejaVuSans-20" transform="translate(1186.384766 0)"/>
      <use xlink:href="#DejaVuSans-50" transform="translate(1218.171875 0)"/>
      <use xlink:href="#DejaVuSans-4f" transform="translate(1278.474609 0)"/>
      <use xlink:href="#DejaVuSans-b1" transform="translate(1357.185547 0)"/>
      <use xlink:href="#DejaVuSans-53" transform="translate(1440.974609 0)"/>
      <use xlink:href="#DejaVuSans-44" transform="translate(1504.451172 0)"/>
      <use xlink:href="#DejaVuSans-20" transform="translate(1581.453125 0)"/>
      <use xlink:href="#DejaVuSans-28" transform="translate(1613.240234 0)"/>
      <use xlink:href="#DejaVuSans-6e" transform="translate(1652.253906 0)"/>
      <use xlink:href="#DejaVuSans-3d" transform="translate(1715.632812 0)"/>
      <use xlink:href="#DejaVuSans-36" transform="translate(1799.421875 0)"/>
      <use xlink:href="#DejaVuSans-29" transform="translate(1863.044922 0)"/>
     </g>
    </g>
    <g id="line2d_22">
     <path d="M 261.947187 90.694687 
L 281.947187 90.694687 
" style="fill: none; stroke: #000000; stroke-width: 2; stroke-linecap: square"/>
    </g>
    <g id="line2d_23"/>
    <g id="text_18">
     <!-- CHF buf sim: 12.5mg SL -->
     <g transform="translate(289.947187 94.194687) scale(0.1 -0.1)">
      <defs>
       <path id="DejaVuSans-4c" d="M 628 4666 
L 1259 4666 
L 1259 531 
L 3531 531 
L 3531 0 
L 628 0 
L 628 4666 
z
" transform="scale(0.015625)"/>
      </defs>
      <use xlink:href="#DejaVuSans-43"/>
      <use xlink:href="#DejaVuSans-48" transform="translate(69.824219 0)"/>
      <use xlink:href="#DejaVuSans-46" transform="translate(145.019531 0)"/>
      <use xlink:href="#DejaVuSans-20" transform="translate(202.539062 0)"/>
      <use xlink:href="#DejaVuSans-62" transform="translate(234.326172 0)"/>
      <use xlink:href="#DejaVuSans-75" transform="translate(297.802734 0)"/>
      <use xlink:href="#DejaVuSans-66" transform="translate(361.181641 0)"/>
      <use xlink:href="#DejaVuSans-20" transform="translate(396.386719 0)"/>
      <use xlink:href="#DejaVuSans-73" transform="translate(428.173828 0)"/>
      <use xlink:href="#DejaVuSans-69" transform="translate(480.273438 0)"/>
      <use xlink:href="#DejaVuSans-6d" transform="translate(508.056641 0)"/>
      <use xlink:href="#DejaVuSans-3a" transform="translate(605.46875 0)"/>
      <use xlink:href="#DejaVuSans-20" transform="translate(639.160156 0)"/>
      <use xlink:href="#DejaVuSans-31" transform="translate(670.947266 0)"/>
      <use xlink:href="#DejaVuSans-32" transform="translate(734.570312 0)"/>
      <use xlink:href="#DejaVuSans-2e" transform="translate(798.193359 0)"/>
      <use xlink:href="#DejaVuSans-35" transform="translate(829.980469 0)"/>
      <use xlink:href="#DejaVuSans-6d" transform="translate(893.603516 0)"/>
      <use xlink:href="#DejaVuSans-67" transform="translate(991.015625 0)"/>
      <use xlink:href="#DejaVuSans-20" transform="translate(1054.492188 0)"/>
      <use xlink:href="#DejaVuSans-53" transform="translate(1086.279297 0)"/>
      <use xlink:href="#DejaVuSans-4c" transform="translate(1149.755859 0)"/>
     </g>
    </g>
    <g id="LineCollection_4">
     <path d="M 271.947187 110.372812 
L 271.947187 100.372812 
" style="fill: none; stroke: #000000"/>
    </g>
    <g id="line2d_24">
     <path d="M 261.947187 105.372812 
L 281.947187 105.372812 
" style="fill: none; stroke-dasharray: 3.7,1.6; stroke-dashoffset: 0; stroke: #000000"/>
    </g>
    <g id="line2d_25">
     <g>
      <use xlink:href="#mb39dc79c35" x="271.947187" y="105.372812" style="stroke: #000000"/>
     </g>
    </g>
    <g id="text_19">
     <!-- CHF buf exp: 12.5mg SL±SD (n=6) -->
     <g transform="translate(289.947187 108.872812) scale(0.1 -0.1)">
      <use xlink:href="#DejaVuSans-43"/>
      <use xlink:href="#DejaVuSans-48" transform="translate(69.824219 0)"/>
      <use xlink:href="#DejaVuSans-46" transform="translate(145.019531 0)"/>
      <use xlink:href="#DejaVuSans-20" transform="translate(202.539062 0)"/>
      <use xlink:href="#DejaVuSans-62" transform="translate(234.326172 0)"/>
      <use xlink:href="#DejaVuSans-75" transform="translate(297.802734 0)"/>
      <use xlink:href="#DejaVuSans-66" transform="translate(361.181641 0)"/>
      <use xlink:href="#DejaVuSans-20" transform="translate(396.386719 0)"/>
      <use xlink:href="#DejaVuSans-65" transform="translate(428.173828 0)"/>
      <use xlink:href="#DejaVuSans-78" transform="translate(487.947266 0)"/>
      <use xlink:href="#DejaVuSans-70" transform="translate(547.126953 0)"/>
      <use xlink:href="#DejaVuSans-3a" transform="translate(610.603516 0)"/>
      <use xlink:href="#DejaVuSans-20" transform="translate(644.294922 0)"/>
      <use xlink:href="#DejaVuSans-31" transform="translate(676.082031 0)"/>
      <use xlink:href="#DejaVuSans-32" transform="translate(739.705078 0)"/>
      <use xlink:href="#DejaVuSans-2e" transform="translate(803.328125 0)"/>
      <use xlink:href="#DejaVuSans-35" transform="translate(835.115234 0)"/>
      <use xlink:href="#DejaVuSans-6d" transform="translate(898.738281 0)"/>
      <use xlink:href="#DejaVuSans-67" transform="translate(996.150391 0)"/>
      <use xlink:href="#DejaVuSans-20" transform="translate(1059.626953 0)"/>
      <use xlink:href="#DejaVuSans-53" transform="translate(1091.414062 0)"/>
      <use xlink:href="#DejaVuSans-4c" transform="translate(1154.890625 0)"/>
      <use xlink:href="#DejaVuSans-b1" transform="translate(1210.603516 0)"/>
      <use xlink:href="#DejaVuSans-53" transform="translate(1294.392578 0)"/>
      <use xlink:href="#DejaVuSans-44" transform="translate(1357.869141 0)"/>
      <use xlink:href="#DejaVuSans-20" transform="translate(1434.871094 0)"/>
      <use xlink:href="#DejaVuSans-28" transform="translate(1466.658203 0)"/>
      <use xlink:href="#DejaVuSans-6e" transform="translate(1505.671875 0)"/>
      <use xlink:href="#DejaVuSans-3d" transform="translate(1569.050781 0)"/>
      <use xlink:href="#DejaVuSans-36" transform="translate(1652.839844 0)"/>
      <use xlink:href="#DejaVuSans-29" transform="translate(1716.462891 0)"/>
     </g>
    </g>
   </g>
  </g>
  <g id="text_20">
   <!-- McElnay1996 -->
   <g transform="translate(174.840312 26.196094) scale(0.25 -0.25)">
    <defs>
     <path id="DejaVuSans-Bold-45" d="M 588 4666 
L 3834 4666 
L 3834 3756 
L 1791 3756 
L 1791 2888 
L 3713 2888 
L 3713 1978 
L 1791 1978 
L 1791 909 
L 3903 909 
L 3903 0 
L 588 0 
L 588 4666 
z
" transform="scale(0.015625)"/>
     <path id="DejaVuSans-Bold-6e" d="M 4056 2131 
L 4056 0 
L 2931 0 
L 2931 347 
L 2931 1631 
Q 2931 2084 2911 2256 
Q 2891 2428 2841 2509 
Q 2775 2619 2662 2680 
Q 2550 2741 2406 2741 
Q 2056 2741 1856 2470 
Q 1656 2200 1656 1722 
L 1656 0 
L 538 0 
L 538 3500 
L 1656 3500 
L 1656 2988 
Q 1909 3294 2193 3439 
Q 2478 3584 2822 3584 
Q 3428 3584 3742 3212 
Q 4056 2841 4056 2131 
z
" transform="scale(0.015625)"/>
     <path id="DejaVuSans-Bold-79" d="M 78 3500 
L 1197 3500 
L 2138 1125 
L 2938 3500 
L 4056 3500 
L 2584 -331 
Q 2363 -916 2067 -1148 
Q 1772 -1381 1288 -1381 
L 641 -1381 
L 641 -647 
L 991 -647 
Q 1275 -647 1404 -556 
Q 1534 -466 1606 -231 
L 1638 -134 
L 78 3500 
z
" transform="scale(0.015625)"/>
     <path id="DejaVuSans-Bold-31" d="M 750 831 
L 1813 831 
L 1813 3847 
L 722 3622 
L 722 4441 
L 1806 4666 
L 2950 4666 
L 2950 831 
L 4013 831 
L 4013 0 
L 750 0 
L 750 831 
z
" transform="scale(0.015625)"/>
     <path id="DejaVuSans-Bold-39" d="M 641 103 
L 641 966 
Q 928 831 1190 764 
Q 1453 697 1709 697 
Q 2247 697 2547 995 
Q 2847 1294 2900 1881 
Q 2688 1725 2447 1647 
Q 2206 1569 1925 1569 
Q 1209 1569 770 1986 
Q 331 2403 331 3084 
Q 331 3838 820 4291 
Q 1309 4744 2131 4744 
Q 3044 4744 3544 4128 
Q 4044 3513 4044 2388 
Q 4044 1231 3459 570 
Q 2875 -91 1856 -91 
Q 1528 -91 1228 -42 
Q 928 6 641 103 
z
M 2125 2350 
Q 2441 2350 2600 2554 
Q 2759 2759 2759 3169 
Q 2759 3575 2600 3781 
Q 2441 3988 2125 3988 
Q 1809 3988 1650 3781 
Q 1491 3575 1491 3169 
Q 1491 2759 1650 2554 
Q 1809 2350 2125 2350 
z
" transform="scale(0.015625)"/>
     <path id="DejaVuSans-Bold-36" d="M 2316 2303 
Q 2000 2303 1842 2098 
Q 1684 1894 1684 1484 
Q 1684 1075 1842 870 
Q 2000 666 2316 666 
Q 2634 666 2792 870 
Q 2950 1075 2950 1484 
Q 2950 1894 2792 2098 
Q 2634 2303 2316 2303 
z
M 3803 4544 
L 3803 3681 
Q 3506 3822 3243 3889 
Q 2981 3956 2731 3956 
Q 2194 3956 1894 3657 
Q 1594 3359 1544 2772 
Q 1750 2925 1990 3001 
Q 2231 3078 2516 3078 
Q 3231 3078 3670 2659 
Q 4109 2241 4109 1563 
Q 4109 813 3618 361 
Q 3128 -91 2303 -91 
Q 1394 -91 895 523 
Q 397 1138 397 2266 
Q 397 3422 980 4083 
Q 1563 4744 2578 4744 
Q 2900 4744 3203 4694 
Q 3506 4644 3803 4544 
z
" transform="scale(0.015625)"/>
    </defs>
    <use xlink:href="#DejaVuSans-Bold-4d"/>
    <use xlink:href="#DejaVuSans-Bold-63" transform="translate(99.511719 0)"/>
    <use xlink:href="#DejaVuSans-Bold-45" transform="translate(158.789062 0)"/>
    <use xlink:href="#DejaVuSans-Bold-6c" transform="translate(227.099609 0)"/>
    <use xlink:href="#DejaVuSans-Bold-6e" transform="translate(261.376953 0)"/>
    <use xlink:href="#DejaVuSans-Bold-61" transform="translate(332.568359 0)"/>
    <use xlink:href="#DejaVuSans-Bold-79" transform="translate(396.923828 0)"/>
    <use xlink:href="#DejaVuSans-Bold-31" transform="translate(462.109375 0)"/>
    <use xlink:href="#DejaVuSans-Bold-39" transform="translate(531.689453 0)"/>
    <use xlink:href="#DejaVuSans-Bold-39" transform="translate(601.269531 0)"/>
    <use xlink:href="#DejaVuSans-Bold-36" transform="translate(670.849609 0)"/>
   </g>
  </g>
 </g>
 <defs>
  <clipPath id="p8c7af7bcef">
   <rect x="59.495" y="48.24" width="429.66" height="316.008"/>
  </clipPath>
 </defs>
</svg>
