<?xml version="1.0" encoding="utf-8" standalone="no"?>
<!DOCTYPE svg PUBLIC "-//W3C//DTD SVG 1.1//EN"
  "http://www.w3.org/Graphics/SVG/1.1/DTD/svg11.dtd">
<svg xmlns:xlink="http://www.w3.org/1999/xlink" width="923.611719pt" height="414.385812pt" viewBox="0 0 923.611719 414.385812" xmlns="http://www.w3.org/2000/svg" version="1.1">
 <metadata>
  <rdf:RDF xmlns:dc="http://purl.org/dc/elements/1.1/" xmlns:cc="http://creativecommons.org/ns#" xmlns:rdf="http://www.w3.org/1999/02/22-rdf-syntax-ns#">
   <cc:Work>
    <dc:type rdf:resource="http://purl.org/dc/dcmitype/StillImage"/>
    <dc:date>2025-09-10T13:17:08.550612</dc:date>
    <dc:format>image/svg+xml</dc:format>
    <dc:creator>
     <cc:Agent>
      <dc:title>Matplotlib v3.10.6, https://matplotlib.org/</dc:title>
     </cc:Agent>
    </dc:creator>
   </cc:Work>
  </rdf:RDF>
 </metadata>
 <defs>
  <style type="text/css">*{stroke-linejoin: round; stroke-linecap: butt}</style>
 </defs>
 <g id="figure_1">
  <g id="patch_1">
   <path d="M 0 414.385812 
L 923.611719 414.385812 
L 923.611719 -0 
L 0 -0 
z
" style="fill: #ffffff"/>
  </g>
  <g id="axes_1">
   <g id="patch_2">
    <path d="M 45.164375 364.248 
L 418.781766 364.248 
L 418.781766 48.24 
L 45.164375 48.24 
z
" style="fill: #ffffff"/>
   </g>
   <g id="matplotlib.axis_1">
    <g id="xtick_1">
     <g id="line2d_1">
      <defs>
       <path id="m0598fb1042" d="M 0 0 
L 0 3.5 
" style="stroke: #000000; stroke-width: 0.8"/>
      </defs>
      <g>
       <use xlink:href="#m0598fb1042" x="62.146984" y="364.248" style="stroke: #000000; stroke-width: 0.8"/>
      </g>
     </g>
     <g id="text_1">
      <!-- 0.0 -->
      <g transform="translate(50.21964 382.645656) scale(0.15 -0.15)">
       <defs>
        <path id="DejaVuSans-30" d="M 2034 4250 
Q 1547 4250 1301 3770 
Q 1056 3291 1056 2328 
Q 1056 1369 1301 889 
Q 1547 409 2034 409 
Q 2525 409 2770 889 
Q 3016 1369 3016 2328 
Q 3016 3291 2770 3770 
Q 2525 4250 2034 4250 
z
M 2034 4750 
Q 2819 4750 3233 4129 
Q 3647 3509 3647 2328 
Q 3647 1150 3233 529 
Q 2819 -91 2034 -91 
Q 1250 -91 836 529 
Q 422 1150 422 2328 
Q 422 3509 836 4129 
Q 1250 4750 2034 4750 
z
" transform="scale(0.015625)"/>
        <path id="DejaVuSans-2e" d="M 684 794 
L 1344 794 
L 1344 0 
L 684 0 
L 684 794 
z
" transform="scale(0.015625)"/>
       </defs>
       <use xlink:href="#DejaVuSans-30"/>
       <use xlink:href="#DejaVuSans-2e" transform="translate(63.623047 0)"/>
       <use xlink:href="#DejaVuSans-30" transform="translate(95.410156 0)"/>
      </g>
     </g>
    </g>
    <g id="xtick_2">
     <g id="line2d_2">
      <g>
       <use xlink:href="#m0598fb1042" x="113.09481" y="364.248" style="stroke: #000000; stroke-width: 0.8"/>
      </g>
     </g>
     <g id="text_2">
      <!-- 0.5 -->
      <g transform="translate(101.167466 382.645656) scale(0.15 -0.15)">
       <defs>
        <path id="DejaVuSans-35" d="M 691 4666 
L 3169 4666 
L 3169 4134 
L 1269 4134 
L 1269 2991 
Q 1406 3038 1543 3061 
Q 1681 3084 1819 3084 
Q 2600 3084 3056 2656 
Q 3513 2228 3513 1497 
Q 3513 744 3044 326 
Q 2575 -91 1722 -91 
Q 1428 -91 1123 -41 
Q 819 9 494 109 
L 494 744 
Q 775 591 1075 516 
Q 1375 441 1709 441 
Q 2250 441 2565 725 
Q 2881 1009 2881 1497 
Q 2881 1984 2565 2268 
Q 2250 2553 1709 2553 
Q 1456 2553 1204 2497 
Q 953 2441 691 2322 
L 691 4666 
z
" transform="scale(0.015625)"/>
       </defs>
       <use xlink:href="#DejaVuSans-30"/>
       <use xlink:href="#DejaVuSans-2e" transform="translate(63.623047 0)"/>
       <use xlink:href="#DejaVuSans-35" transform="translate(95.410156 0)"/>
      </g>
     </g>
    </g>
    <g id="xtick_3">
     <g id="line2d_3">
      <g>
       <use xlink:href="#m0598fb1042" x="164.042636" y="364.248" style="stroke: #000000; stroke-width: 0.8"/>
      </g>
     </g>
     <g id="text_3">
      <!-- 1.0 -->
      <g transform="translate(152.115292 382.645656) scale(0.15 -0.15)">
       <defs>
        <path id="DejaVuSans-31" d="M 794 531 
L 1825 531 
L 1825 4091 
L 703 3866 
L 703 4441 
L 1819 4666 
L 2450 4666 
L 2450 531 
L 3481 531 
L 3481 0 
L 794 0 
L 794 531 
z
" transform="scale(0.015625)"/>
       </defs>
       <use xlink:href="#DejaVuSans-31"/>
       <use xlink:href="#DejaVuSans-2e" transform="translate(63.623047 0)"/>
       <use xlink:href="#DejaVuSans-30" transform="translate(95.410156 0)"/>
      </g>
     </g>
    </g>
    <g id="xtick_4">
     <g id="line2d_4">
      <g>
       <use xlink:href="#m0598fb1042" x="214.990462" y="364.248" style="stroke: #000000; stroke-width: 0.8"/>
      </g>
     </g>
     <g id="text_4">
      <!-- 1.5 -->
      <g transform="translate(203.063118 382.645656) scale(0.15 -0.15)">
       <use xlink:href="#DejaVuSans-31"/>
       <use xlink:href="#DejaVuSans-2e" transform="translate(63.623047 0)"/>
       <use xlink:href="#DejaVuSans-35" transform="translate(95.410156 0)"/>
      </g>
     </g>
    </g>
    <g id="xtick_5">
     <g id="line2d_5">
      <g>
       <use xlink:href="#m0598fb1042" x="265.938288" y="364.248" style="stroke: #000000; stroke-width: 0.8"/>
      </g>
     </g>
     <g id="text_5">
      <!-- 2.0 -->
      <g transform="translate(254.010944 382.645656) scale(0.15 -0.15)">
       <defs>
        <path id="DejaVuSans-32" d="M 1228 531 
L 3431 531 
L 3431 0 
L 469 0 
L 469 531 
Q 828 903 1448 1529 
Q 2069 2156 2228 2338 
Q 2531 2678 2651 2914 
Q 2772 3150 2772 3378 
Q 2772 3750 2511 3984 
Q 2250 4219 1831 4219 
Q 1534 4219 1204 4116 
Q 875 4013 500 3803 
L 500 4441 
Q 881 4594 1212 4672 
Q 1544 4750 1819 4750 
Q 2544 4750 2975 4387 
Q 3406 4025 3406 3419 
Q 3406 3131 3298 2873 
Q 3191 2616 2906 2266 
Q 2828 2175 2409 1742 
Q 1991 1309 1228 531 
z
" transform="scale(0.015625)"/>
       </defs>
       <use xlink:href="#DejaVuSans-32"/>
       <use xlink:href="#DejaVuSans-2e" transform="translate(63.623047 0)"/>
       <use xlink:href="#DejaVuSans-30" transform="translate(95.410156 0)"/>
      </g>
     </g>
    </g>
    <g id="xtick_6">
     <g id="line2d_6">
      <g>
       <use xlink:href="#m0598fb1042" x="316.886114" y="364.248" style="stroke: #000000; stroke-width: 0.8"/>
      </g>
     </g>
     <g id="text_6">
      <!-- 2.5 -->
      <g transform="translate(304.95877 382.645656) scale(0.15 -0.15)">
       <use xlink:href="#DejaVuSans-32"/>
       <use xlink:href="#DejaVuSans-2e" transform="translate(63.623047 0)"/>
       <use xlink:href="#DejaVuSans-35" transform="translate(95.410156 0)"/>
      </g>
     </g>
    </g>
    <g id="xtick_7">
     <g id="line2d_7">
      <g>
       <use xlink:href="#m0598fb1042" x="367.83394" y="364.248" style="stroke: #000000; stroke-width: 0.8"/>
      </g>
     </g>
     <g id="text_7">
      <!-- 3.0 -->
      <g transform="translate(355.906596 382.645656) scale(0.15 -0.15)">
       <defs>
        <path id="DejaVuSans-33" d="M 2597 2516 
Q 3050 2419 3304 2112 
Q 3559 1806 3559 1356 
Q 3559 666 3084 287 
Q 2609 -91 1734 -91 
Q 1441 -91 1130 -33 
Q 819 25 488 141 
L 488 750 
Q 750 597 1062 519 
Q 1375 441 1716 441 
Q 2309 441 2620 675 
Q 2931 909 2931 1356 
Q 2931 1769 2642 2001 
Q 2353 2234 1838 2234 
L 1294 2234 
L 1294 2753 
L 1863 2753 
Q 2328 2753 2575 2939 
Q 2822 3125 2822 3475 
Q 2822 3834 2567 4026 
Q 2313 4219 1838 4219 
Q 1578 4219 1281 4162 
Q 984 4106 628 3988 
L 628 4550 
Q 988 4650 1302 4700 
Q 1616 4750 1894 4750 
Q 2613 4750 3031 4423 
Q 3450 4097 3450 3541 
Q 3450 3153 3228 2886 
Q 3006 2619 2597 2516 
z
" transform="scale(0.015625)"/>
       </defs>
       <use xlink:href="#DejaVuSans-33"/>
       <use xlink:href="#DejaVuSans-2e" transform="translate(63.623047 0)"/>
       <use xlink:href="#DejaVuSans-30" transform="translate(95.410156 0)"/>
      </g>
     </g>
    </g>
    <g id="xtick_8">
     <g id="line2d_8">
      <g>
       <use xlink:href="#m0598fb1042" x="418.781766" y="364.248" style="stroke: #000000; stroke-width: 0.8"/>
      </g>
     </g>
     <g id="text_8">
      <!-- 3.5 -->
      <g transform="translate(406.854423 382.645656) scale(0.15 -0.15)">
       <use xlink:href="#DejaVuSans-33"/>
       <use xlink:href="#DejaVuSans-2e" transform="translate(63.623047 0)"/>
       <use xlink:href="#DejaVuSans-35" transform="translate(95.410156 0)"/>
      </g>
     </g>
    </g>
    <g id="text_9">
     <!-- time [hr] -->
     <g transform="translate(186.898539 403.442375) scale(0.18 -0.18)">
      <defs>
       <path id="DejaVuSans-Bold-74" d="M 1759 4494 
L 1759 3500 
L 2913 3500 
L 2913 2700 
L 1759 2700 
L 1759 1216 
Q 1759 972 1856 886 
Q 1953 800 2241 800 
L 2816 800 
L 2816 0 
L 1856 0 
Q 1194 0 917 276 
Q 641 553 641 1216 
L 641 2700 
L 84 2700 
L 84 3500 
L 641 3500 
L 641 4494 
L 1759 4494 
z
" transform="scale(0.015625)"/>
       <path id="DejaVuSans-Bold-69" d="M 538 3500 
L 1656 3500 
L 1656 0 
L 538 0 
L 538 3500 
z
M 538 4863 
L 1656 4863 
L 1656 3950 
L 538 3950 
L 538 4863 
z
" transform="scale(0.015625)"/>
       <path id="DejaVuSans-Bold-6d" d="M 3781 2919 
Q 3994 3244 4286 3414 
Q 4578 3584 4928 3584 
Q 5531 3584 5847 3212 
Q 6163 2841 6163 2131 
L 6163 0 
L 5038 0 
L 5038 1825 
Q 5041 1866 5042 1909 
Q 5044 1953 5044 2034 
Q 5044 2406 4934 2573 
Q 4825 2741 4581 2741 
Q 4263 2741 4089 2478 
Q 3916 2216 3909 1719 
L 3909 0 
L 2784 0 
L 2784 1825 
Q 2784 2406 2684 2573 
Q 2584 2741 2328 2741 
Q 2006 2741 1831 2477 
Q 1656 2213 1656 1722 
L 1656 0 
L 531 0 
L 531 3500 
L 1656 3500 
L 1656 2988 
Q 1863 3284 2130 3434 
Q 2397 3584 2719 3584 
Q 3081 3584 3359 3409 
Q 3638 3234 3781 2919 
z
" transform="scale(0.015625)"/>
       <path id="DejaVuSans-Bold-65" d="M 4031 1759 
L 4031 1441 
L 1416 1441 
Q 1456 1047 1700 850 
Q 1944 653 2381 653 
Q 2734 653 3104 758 
Q 3475 863 3866 1075 
L 3866 213 
Q 3469 63 3072 -14 
Q 2675 -91 2278 -91 
Q 1328 -91 801 392 
Q 275 875 275 1747 
Q 275 2603 792 3093 
Q 1309 3584 2216 3584 
Q 3041 3584 3536 3087 
Q 4031 2591 4031 1759 
z
M 2881 2131 
Q 2881 2450 2695 2645 
Q 2509 2841 2209 2841 
Q 1884 2841 1681 2658 
Q 1478 2475 1428 2131 
L 2881 2131 
z
" transform="scale(0.015625)"/>
       <path id="DejaVuSans-Bold-20" transform="scale(0.015625)"/>
       <path id="DejaVuSans-Bold-5b" d="M 550 4863 
L 2491 4863 
L 2491 4159 
L 1613 4159 
L 1613 -141 
L 2491 -141 
L 2491 -844 
L 550 -844 
L 550 4863 
z
" transform="scale(0.015625)"/>
       <path id="DejaVuSans-Bold-68" d="M 4056 2131 
L 4056 0 
L 2931 0 
L 2931 347 
L 2931 1625 
Q 2931 2084 2911 2256 
Q 2891 2428 2841 2509 
Q 2775 2619 2662 2680 
Q 2550 2741 2406 2741 
Q 2056 2741 1856 2470 
Q 1656 2200 1656 1722 
L 1656 0 
L 538 0 
L 538 4863 
L 1656 4863 
L 1656 2988 
Q 1909 3294 2193 3439 
Q 2478 3584 2822 3584 
Q 3428 3584 3742 3212 
Q 4056 2841 4056 2131 
z
" transform="scale(0.015625)"/>
       <path id="DejaVuSans-Bold-72" d="M 3138 2547 
Q 2991 2616 2845 2648 
Q 2700 2681 2553 2681 
Q 2122 2681 1889 2404 
Q 1656 2128 1656 1613 
L 1656 0 
L 538 0 
L 538 3500 
L 1656 3500 
L 1656 2925 
Q 1872 3269 2151 3426 
Q 2431 3584 2822 3584 
Q 2878 3584 2943 3579 
Q 3009 3575 3134 3559 
L 3138 2547 
z
" transform="scale(0.015625)"/>
       <path id="DejaVuSans-Bold-5d" d="M 2375 -844 
L 434 -844 
L 434 -141 
L 1313 -141 
L 1313 4159 
L 434 4159 
L 434 4863 
L 2375 4863 
L 2375 -844 
z
" transform="scale(0.015625)"/>
      </defs>
      <use xlink:href="#DejaVuSans-Bold-74"/>
      <use xlink:href="#DejaVuSans-Bold-69" transform="translate(47.802734 0)"/>
      <use xlink:href="#DejaVuSans-Bold-6d" transform="translate(82.080078 0)"/>
      <use xlink:href="#DejaVuSans-Bold-65" transform="translate(186.279297 0)"/>
      <use xlink:href="#DejaVuSans-Bold-20" transform="translate(254.101562 0)"/>
      <use xlink:href="#DejaVuSans-Bold-5b" transform="translate(288.916016 0)"/>
      <use xlink:href="#DejaVuSans-Bold-68" transform="translate(334.619141 0)"/>
      <use xlink:href="#DejaVuSans-Bold-72" transform="translate(405.810547 0)"/>
      <use xlink:href="#DejaVuSans-Bold-5d" transform="translate(455.126953 0)"/>
     </g>
    </g>
   </g>
   <g id="matplotlib.axis_2">
    <g id="ytick_1">
     <g id="line2d_9">
      <defs>
       <path id="mda4c70b3b1" d="M 0 0 
L -3.5 0 
" style="stroke: #000000; stroke-width: 0.8"/>
      </defs>
      <g>
       <use xlink:href="#mda4c70b3b1" x="45.164375" y="339.846458" style="stroke: #000000; stroke-width: 0.8"/>
      </g>
     </g>
     <g id="text_10">
      <!-- 0 -->
      <g transform="translate(28.620625 345.545287) scale(0.15 -0.15)">
       <use xlink:href="#DejaVuSans-30"/>
      </g>
     </g>
    </g>
    <g id="ytick_2">
     <g id="line2d_10">
      <g>
       <use xlink:href="#mda4c70b3b1" x="45.164375" y="288.437834" style="stroke: #000000; stroke-width: 0.8"/>
      </g>
     </g>
     <g id="text_11">
      <!-- 1 -->
      <g transform="translate(28.620625 294.136662) scale(0.15 -0.15)">
       <use xlink:href="#DejaVuSans-31"/>
      </g>
     </g>
    </g>
    <g id="ytick_3">
     <g id="line2d_11">
      <g>
       <use xlink:href="#mda4c70b3b1" x="45.164375" y="237.029209" style="stroke: #000000; stroke-width: 0.8"/>
      </g>
     </g>
     <g id="text_12">
      <!-- 2 -->
      <g transform="translate(28.620625 242.728037) scale(0.15 -0.15)">
       <use xlink:href="#DejaVuSans-32"/>
      </g>
     </g>
    </g>
    <g id="ytick_4">
     <g id="line2d_12">
      <g>
       <use xlink:href="#mda4c70b3b1" x="45.164375" y="185.620584" style="stroke: #000000; stroke-width: 0.8"/>
      </g>
     </g>
     <g id="text_13">
      <!-- 3 -->
      <g transform="translate(28.620625 191.319412) scale(0.15 -0.15)">
       <use xlink:href="#DejaVuSans-33"/>
      </g>
     </g>
    </g>
    <g id="ytick_5">
     <g id="line2d_13">
      <g>
       <use xlink:href="#mda4c70b3b1" x="45.164375" y="134.211959" style="stroke: #000000; stroke-width: 0.8"/>
      </g>
     </g>
     <g id="text_14">
      <!-- 4 -->
      <g transform="translate(28.620625 139.910787) scale(0.15 -0.15)">
       <defs>
        <path id="DejaVuSans-34" d="M 2419 4116 
L 825 1625 
L 2419 1625 
L 2419 4116 
z
M 2253 4666 
L 3047 4666 
L 3047 1625 
L 3713 1625 
L 3713 1100 
L 3047 1100 
L 3047 0 
L 2419 0 
L 2419 1100 
L 313 1100 
L 313 1709 
L 2253 4666 
z
" transform="scale(0.015625)"/>
       </defs>
       <use xlink:href="#DejaVuSans-34"/>
      </g>
     </g>
    </g>
    <g id="ytick_6">
     <g id="line2d_14">
      <g>
       <use xlink:href="#mda4c70b3b1" x="45.164375" y="82.803334" style="stroke: #000000; stroke-width: 0.8"/>
      </g>
     </g>
     <g id="text_15">
      <!-- 5 -->
      <g transform="translate(28.620625 88.502162) scale(0.15 -0.15)">
       <use xlink:href="#DejaVuSans-35"/>
      </g>
     </g>
    </g>
    <g id="text_16">
     <!-- renin [pM] -->
     <g transform="translate(20.877188 259.443844) rotate(-90) scale(0.18 -0.18)">
      <defs>
       <path id="DejaVuSans-Bold-6e" d="M 4056 2131 
L 4056 0 
L 2931 0 
L 2931 347 
L 2931 1631 
Q 2931 2084 2911 2256 
Q 2891 2428 2841 2509 
Q 2775 2619 2662 2680 
Q 2550 2741 2406 2741 
Q 2056 2741 1856 2470 
Q 1656 2200 1656 1722 
L 1656 0 
L 538 0 
L 538 3500 
L 1656 3500 
L 1656 2988 
Q 1909 3294 2193 3439 
Q 2478 3584 2822 3584 
Q 3428 3584 3742 3212 
Q 4056 2841 4056 2131 
z
" transform="scale(0.015625)"/>
       <path id="DejaVuSans-Bold-70" d="M 1656 506 
L 1656 -1331 
L 538 -1331 
L 538 3500 
L 1656 3500 
L 1656 2988 
Q 1888 3294 2169 3439 
Q 2450 3584 2816 3584 
Q 3463 3584 3878 3070 
Q 4294 2556 4294 1747 
Q 4294 938 3878 423 
Q 3463 -91 2816 -91 
Q 2450 -91 2169 54 
Q 1888 200 1656 506 
z
M 2400 2772 
Q 2041 2772 1848 2508 
Q 1656 2244 1656 1747 
Q 1656 1250 1848 986 
Q 2041 722 2400 722 
Q 2759 722 2948 984 
Q 3138 1247 3138 1747 
Q 3138 2247 2948 2509 
Q 2759 2772 2400 2772 
z
" transform="scale(0.015625)"/>
       <path id="DejaVuSans-Bold-4d" d="M 588 4666 
L 2119 4666 
L 3181 2169 
L 4250 4666 
L 5778 4666 
L 5778 0 
L 4641 0 
L 4641 3413 
L 3566 897 
L 2803 897 
L 1728 3413 
L 1728 0 
L 588 0 
L 588 4666 
z
" transform="scale(0.015625)"/>
      </defs>
      <use xlink:href="#DejaVuSans-Bold-72"/>
      <use xlink:href="#DejaVuSans-Bold-65" transform="translate(49.316406 0)"/>
      <use xlink:href="#DejaVuSans-Bold-6e" transform="translate(117.138672 0)"/>
      <use xlink:href="#DejaVuSans-Bold-69" transform="translate(188.330078 0)"/>
      <use xlink:href="#DejaVuSans-Bold-6e" transform="translate(222.607422 0)"/>
      <use xlink:href="#DejaVuSans-Bold-20" transform="translate(293.798828 0)"/>
      <use xlink:href="#DejaVuSans-Bold-5b" transform="translate(328.613281 0)"/>
      <use xlink:href="#DejaVuSans-Bold-70" transform="translate(374.316406 0)"/>
      <use xlink:href="#DejaVuSans-Bold-4d" transform="translate(445.898438 0)"/>
      <use xlink:href="#DejaVuSans-Bold-5d" transform="translate(545.410156 0)"/>
     </g>
    </g>
   </g>
   <g id="LineCollection_1">
    <path clip-path="url(#p29c6b445b7)" style="fill: none; stroke: #000000"/>
    <path clip-path="url(#p29c6b445b7)" style="fill: none; stroke: #000000"/>
    <path clip-path="url(#p29c6b445b7)" style="fill: none; stroke: #000000"/>
    <path clip-path="url(#p29c6b445b7)" style="fill: none; stroke: #000000"/>
    <path d="M 164.042636 296.24853 
L 164.042636 62.604 
" clip-path="url(#p29c6b445b7)" style="fill: none; stroke: #000000"/>
    <path clip-path="url(#p29c6b445b7)" style="fill: none; stroke: #000000"/>
    <path clip-path="url(#p29c6b445b7)" style="fill: none; stroke: #000000"/>
   </g>
   <g id="LineCollection_2">
    <path clip-path="url(#p29c6b445b7)" style="fill: none; stroke: #000000"/>
    <path clip-path="url(#p29c6b445b7)" style="fill: none; stroke: #000000"/>
    <path clip-path="url(#p29c6b445b7)" style="fill: none; stroke: #000000"/>
    <path clip-path="url(#p29c6b445b7)" style="fill: none; stroke: #000000"/>
    <path d="M 164.042636 349.884 
L 164.042636 145.976047 
" clip-path="url(#p29c6b445b7)" style="fill: none; stroke: #000000"/>
    <path clip-path="url(#p29c6b445b7)" style="fill: none; stroke: #000000"/>
    <path clip-path="url(#p29c6b445b7)" style="fill: none; stroke: #000000"/>
   </g>
   <g id="line2d_15">
    <path d="M 62.146984 279.671771 
L 62.996114 279.569248 
L 63.845245 279.215109 
L 65.543505 278.202613 
L 68.090897 276.397449 
L 72.336549 273.055515 
L 77.431332 268.709732 
L 82.526114 264.077752 
L 88.470027 258.35828 
L 94.41394 252.338345 
L 101.206984 245.150956 
L 110.547418 234.902482 
L 124.982636 219.018902 
L 130.926549 212.827078 
L 136.021332 207.857767 
L 140.266984 204.03626 
L 143.663505 201.232665 
L 147.060027 198.687501 
L 150.456549 196.429173 
L 153.853071 194.483228 
L 156.400462 193.242077 
L 158.947853 192.196628 
L 161.495245 191.352914 
L 164.042636 190.715277 
L 166.590027 190.286276 
L 169.137418 190.066634 
L 171.68481 190.055231 
L 174.232201 190.249132 
L 176.779592 190.64366 
L 179.326984 191.2325 
L 181.874375 192.007845 
L 185.270897 193.315793 
L 188.667418 194.91421 
L 192.06394 196.775634 
L 195.460462 198.870739 
L 199.706114 201.771995 
L 203.951766 204.931477 
L 209.046549 208.98241 
L 215.839592 214.672295 
L 239.615245 234.851633 
L 246.408288 240.224586 
L 253.201332 245.307408 
L 259.145245 249.496575 
L 265.089158 253.43686 
L 271.033071 257.127857 
L 276.976984 260.574039 
L 282.920897 263.783261 
L 288.86481 266.765606 
L 295.657853 269.910874 
L 302.450897 272.792828 
L 309.24394 275.429806 
L 316.036984 277.8398 
L 323.679158 280.301167 
L 331.321332 282.520136 
L 338.963505 284.51802 
L 347.45481 286.502237 
L 355.946114 288.261669 
L 365.286549 289.963078 
L 374.626984 291.443918 
L 384.816549 292.833907 
L 395.855245 294.102464 
L 401.799158 294.692824 
L 401.799158 294.692824 
" clip-path="url(#p29c6b445b7)" style="fill: none; stroke: #000000; stroke-width: 2; stroke-linecap: square"/>
   </g>
   <g id="line2d_16">
    <path d="M 62.146984 279.670198 
L 79.129592 272.381769 
L 96.112201 279.109549 
L 113.09481 255.001668 
L 164.042636 179.426265 
L 265.938288 226.4086 
L 367.83394 240.985459 
" clip-path="url(#p29c6b445b7)" style="fill: none; stroke-dasharray: 3.7,1.6; stroke-dashoffset: 0; stroke: #000000"/>
    <defs>
     <path id="m358b46087b" d="M -3 3 
L 3 3 
L 3 -3 
L -3 -3 
z
" style="stroke: #000000; stroke-linejoin: miter"/>
    </defs>
    <g clip-path="url(#p29c6b445b7)">
     <use xlink:href="#m358b46087b" x="62.146984" y="279.670198" style="stroke: #000000; stroke-linejoin: miter"/>
     <use xlink:href="#m358b46087b" x="79.129592" y="272.381769" style="stroke: #000000; stroke-linejoin: miter"/>
     <use xlink:href="#m358b46087b" x="96.112201" y="279.109549" style="stroke: #000000; stroke-linejoin: miter"/>
     <use xlink:href="#m358b46087b" x="113.09481" y="255.001668" style="stroke: #000000; stroke-linejoin: miter"/>
     <use xlink:href="#m358b46087b" x="164.042636" y="179.426265" style="stroke: #000000; stroke-linejoin: miter"/>
     <use xlink:href="#m358b46087b" x="265.938288" y="226.4086" style="stroke: #000000; stroke-linejoin: miter"/>
     <use xlink:href="#m358b46087b" x="367.83394" y="240.985459" style="stroke: #000000; stroke-linejoin: miter"/>
    </g>
   </g>
   <g id="line2d_17">
    <path d="M 62.146984 278.930142 
L 62.996114 278.802448 
L 64.694375 278.208901 
L 67.241766 276.961336 
L 70.638288 274.994868 
L 75.733071 271.718809 
L 81.676984 267.610168 
L 89.319158 262.050306 
L 104.603505 250.560313 
L 113.94394 243.700114 
L 120.736984 238.992669 
L 125.831766 235.697722 
L 130.926549 232.657976 
L 135.172201 230.351885 
L 139.417853 228.276687 
L 143.663505 226.451879 
L 147.909158 224.892997 
L 152.15481 223.611131 
L 156.400462 222.612618 
L 159.796984 222.018973 
L 163.193505 221.606253 
L 167.439158 221.339549 
L 171.68481 221.339959 
L 175.930462 221.593533 
L 180.176114 222.083262 
L 184.421766 222.789785 
L 189.516549 223.894135 
L 194.611332 225.242401 
L 200.555245 227.072476 
L 207.348288 229.430699 
L 214.990462 232.326122 
L 226.029158 236.764252 
L 249.80481 246.38949 
L 260.843505 250.584454 
L 271.033071 254.214161 
L 280.373505 257.316786 
L 289.71394 260.19926 
L 299.054375 262.864324 
L 309.24394 265.532808 
L 319.433505 267.965601 
L 329.623071 270.178661 
L 340.661766 272.347485 
L 352.549592 274.440534 
L 364.437418 276.306134 
L 377.174375 278.078498 
L 390.760462 279.738628 
L 401.799158 280.930847 
L 401.799158 280.930847 
" clip-path="url(#p29c6b445b7)" style="fill: none; stroke: #000000; stroke-width: 2; stroke-linecap: square"/>
   </g>
   <g id="line2d_18">
    <path d="M 62.146984 278.92923 
L 79.129592 271.527434 
L 96.112201 278.868468 
L 113.09481 254.61515 
L 164.042636 247.930023 
L 265.938288 225.914903 
L 367.83394 239.957838 
" clip-path="url(#p29c6b445b7)" style="fill: none; stroke-dasharray: 3.7,1.6; stroke-dashoffset: 0; stroke: #000000"/>
    <defs>
     <path id="mbbd797e793" d="M 0 3 
C 0.795609 3 1.55874 2.683901 2.12132 2.12132 
C 2.683901 1.55874 3 0.795609 3 0 
C 3 -0.795609 2.683901 -1.55874 2.12132 -2.12132 
C 1.55874 -2.683901 0.795609 -3 0 -3 
C -0.795609 -3 -1.55874 -2.683901 -2.12132 -2.12132 
C -2.683901 -1.55874 -3 -0.795609 -3 0 
C -3 0.795609 -2.683901 1.55874 -2.12132 2.12132 
C -1.55874 2.683901 -0.795609 3 0 3 
z
" style="stroke: #000000"/>
    </defs>
    <g clip-path="url(#p29c6b445b7)">
     <use xlink:href="#mbbd797e793" x="62.146984" y="278.92923" style="stroke: #000000"/>
     <use xlink:href="#mbbd797e793" x="79.129592" y="271.527434" style="stroke: #000000"/>
     <use xlink:href="#mbbd797e793" x="96.112201" y="278.868468" style="stroke: #000000"/>
     <use xlink:href="#mbbd797e793" x="113.09481" y="254.61515" style="stroke: #000000"/>
     <use xlink:href="#mbbd797e793" x="164.042636" y="247.930023" style="stroke: #000000"/>
     <use xlink:href="#mbbd797e793" x="265.938288" y="225.914903" style="stroke: #000000"/>
     <use xlink:href="#mbbd797e793" x="367.83394" y="239.957838" style="stroke: #000000"/>
    </g>
   </g>
   <g id="patch_3">
    <path d="M 45.164375 364.248 
L 45.164375 48.24 
" style="fill: none; stroke: #000000; stroke-width: 0.8; stroke-linejoin: miter; stroke-linecap: square"/>
   </g>
   <g id="patch_4">
    <path d="M 418.781766 364.248 
L 418.781766 48.24 
" style="fill: none; stroke: #000000; stroke-width: 0.8; stroke-linejoin: miter; stroke-linecap: square"/>
   </g>
   <g id="patch_5">
    <path d="M 45.164375 364.248 
L 418.781766 364.248 
" style="fill: none; stroke: #000000; stroke-width: 0.8; stroke-linejoin: miter; stroke-linecap: square"/>
   </g>
   <g id="patch_6">
    <path d="M 45.164375 48.24 
L 418.781766 48.24 
" style="fill: none; stroke: #000000; stroke-width: 0.8; stroke-linejoin: miter; stroke-linecap: square"/>
   </g>
   <g id="legend_1">
    <g id="patch_7">
     <path d="M 186.395829 114.9525 
L 411.781766 114.9525 
Q 413.781766 114.9525 413.781766 112.9525 
L 413.781766 55.24 
Q 413.781766 53.24 411.781766 53.24 
L 186.395829 53.24 
Q 184.395829 53.24 184.395829 55.24 
L 184.395829 112.9525 
Q 184.395829 114.9525 186.395829 114.9525 
z
" style="fill: #ffffff; opacity: 0.8; stroke: #cccccc; stroke-linejoin: miter"/>
    </g>
    <g id="line2d_19">
     <path d="M 188.395829 61.338437 
L 208.395829 61.338437 
" style="fill: none; stroke: #000000; stroke-width: 2; stroke-linecap: square"/>
    </g>
    <g id="line2d_20"/>
    <g id="text_17">
     <!-- CHF unbuf sim: PO 12.5 mg -->
     <g transform="translate(216.395829 64.838437) scale(0.1 -0.1)">
      <defs>
       <path id="DejaVuSans-43" d="M 4122 4306 
L 4122 3641 
Q 3803 3938 3442 4084 
Q 3081 4231 2675 4231 
Q 1875 4231 1450 3742 
Q 1025 3253 1025 2328 
Q 1025 1406 1450 917 
Q 1875 428 2675 428 
Q 3081 428 3442 575 
Q 3803 722 4122 1019 
L 4122 359 
Q 3791 134 3420 21 
Q 3050 -91 2638 -91 
Q 1578 -91 968 557 
Q 359 1206 359 2328 
Q 359 3453 968 4101 
Q 1578 4750 2638 4750 
Q 3056 4750 3426 4639 
Q 3797 4528 4122 4306 
z
" transform="scale(0.015625)"/>
       <path id="DejaVuSans-48" d="M 628 4666 
L 1259 4666 
L 1259 2753 
L 3553 2753 
L 3553 4666 
L 4184 4666 
L 4184 0 
L 3553 0 
L 3553 2222 
L 1259 2222 
L 1259 0 
L 628 0 
L 628 4666 
z
" transform="scale(0.015625)"/>
       <path id="DejaVuSans-46" d="M 628 4666 
L 3309 4666 
L 3309 4134 
L 1259 4134 
L 1259 2759 
L 3109 2759 
L 3109 2228 
L 1259 2228 
L 1259 0 
L 628 0 
L 628 4666 
z
" transform="scale(0.015625)"/>
       <path id="DejaVuSans-20" transform="scale(0.015625)"/>
       <path id="DejaVuSans-75" d="M 544 1381 
L 544 3500 
L 1119 3500 
L 1119 1403 
Q 1119 906 1312 657 
Q 1506 409 1894 409 
Q 2359 409 2629 706 
Q 2900 1003 2900 1516 
L 2900 3500 
L 3475 3500 
L 3475 0 
L 2900 0 
L 2900 538 
Q 2691 219 2414 64 
Q 2138 -91 1772 -91 
Q 1169 -91 856 284 
Q 544 659 544 1381 
z
M 1991 3584 
L 1991 3584 
z
" transform="scale(0.015625)"/>
       <path id="DejaVuSans-6e" d="M 3513 2113 
L 3513 0 
L 2938 0 
L 2938 2094 
Q 2938 2591 2744 2837 
Q 2550 3084 2163 3084 
Q 1697 3084 1428 2787 
Q 1159 2491 1159 1978 
L 1159 0 
L 581 0 
L 581 3500 
L 1159 3500 
L 1159 2956 
Q 1366 3272 1645 3428 
Q 1925 3584 2291 3584 
Q 2894 3584 3203 3211 
Q 3513 2838 3513 2113 
z
" transform="scale(0.015625)"/>
       <path id="DejaVuSans-62" d="M 3116 1747 
Q 3116 2381 2855 2742 
Q 2594 3103 2138 3103 
Q 1681 3103 1420 2742 
Q 1159 2381 1159 1747 
Q 1159 1113 1420 752 
Q 1681 391 2138 391 
Q 2594 391 2855 752 
Q 3116 1113 3116 1747 
z
M 1159 2969 
Q 1341 3281 1617 3432 
Q 1894 3584 2278 3584 
Q 2916 3584 3314 3078 
Q 3713 2572 3713 1747 
Q 3713 922 3314 415 
Q 2916 -91 2278 -91 
Q 1894 -91 1617 61 
Q 1341 213 1159 525 
L 1159 0 
L 581 0 
L 581 4863 
L 1159 4863 
L 1159 2969 
z
" transform="scale(0.015625)"/>
       <path id="DejaVuSans-66" d="M 2375 4863 
L 2375 4384 
L 1825 4384 
Q 1516 4384 1395 4259 
Q 1275 4134 1275 3809 
L 1275 3500 
L 2222 3500 
L 2222 3053 
L 1275 3053 
L 1275 0 
L 697 0 
L 697 3053 
L 147 3053 
L 147 3500 
L 697 3500 
L 697 3744 
Q 697 4328 969 4595 
Q 1241 4863 1831 4863 
L 2375 4863 
z
" transform="scale(0.015625)"/>
       <path id="DejaVuSans-73" d="M 2834 3397 
L 2834 2853 
Q 2591 2978 2328 3040 
Q 2066 3103 1784 3103 
Q 1356 3103 1142 2972 
Q 928 2841 928 2578 
Q 928 2378 1081 2264 
Q 1234 2150 1697 2047 
L 1894 2003 
Q 2506 1872 2764 1633 
Q 3022 1394 3022 966 
Q 3022 478 2636 193 
Q 2250 -91 1575 -91 
Q 1294 -91 989 -36 
Q 684 19 347 128 
L 347 722 
Q 666 556 975 473 
Q 1284 391 1588 391 
Q 1994 391 2212 530 
Q 2431 669 2431 922 
Q 2431 1156 2273 1281 
Q 2116 1406 1581 1522 
L 1381 1569 
Q 847 1681 609 1914 
Q 372 2147 372 2553 
Q 372 3047 722 3315 
Q 1072 3584 1716 3584 
Q 2034 3584 2315 3537 
Q 2597 3491 2834 3397 
z
" transform="scale(0.015625)"/>
       <path id="DejaVuSans-69" d="M 603 3500 
L 1178 3500 
L 1178 0 
L 603 0 
L 603 3500 
z
M 603 4863 
L 1178 4863 
L 1178 4134 
L 603 4134 
L 603 4863 
z
" transform="scale(0.015625)"/>
       <path id="DejaVuSans-6d" d="M 3328 2828 
Q 3544 3216 3844 3400 
Q 4144 3584 4550 3584 
Q 5097 3584 5394 3201 
Q 5691 2819 5691 2113 
L 5691 0 
L 5113 0 
L 5113 2094 
Q 5113 2597 4934 2840 
Q 4756 3084 4391 3084 
Q 3944 3084 3684 2787 
Q 3425 2491 3425 1978 
L 3425 0 
L 2847 0 
L 2847 2094 
Q 2847 2600 2669 2842 
Q 2491 3084 2119 3084 
Q 1678 3084 1418 2786 
Q 1159 2488 1159 1978 
L 1159 0 
L 581 0 
L 581 3500 
L 1159 3500 
L 1159 2956 
Q 1356 3278 1631 3431 
Q 1906 3584 2284 3584 
Q 2666 3584 2933 3390 
Q 3200 3197 3328 2828 
z
" transform="scale(0.015625)"/>
       <path id="DejaVuSans-3a" d="M 750 794 
L 1409 794 
L 1409 0 
L 750 0 
L 750 794 
z
M 750 3309 
L 1409 3309 
L 1409 2516 
L 750 2516 
L 750 3309 
z
" transform="scale(0.015625)"/>
       <path id="DejaVuSans-50" d="M 1259 4147 
L 1259 2394 
L 2053 2394 
Q 2494 2394 2734 2622 
Q 2975 2850 2975 3272 
Q 2975 3691 2734 3919 
Q 2494 4147 2053 4147 
L 1259 4147 
z
M 628 4666 
L 2053 4666 
Q 2838 4666 3239 4311 
Q 3641 3956 3641 3272 
Q 3641 2581 3239 2228 
Q 2838 1875 2053 1875 
L 1259 1875 
L 1259 0 
L 628 0 
L 628 4666 
z
" transform="scale(0.015625)"/>
       <path id="DejaVuSans-4f" d="M 2522 4238 
Q 1834 4238 1429 3725 
Q 1025 3213 1025 2328 
Q 1025 1447 1429 934 
Q 1834 422 2522 422 
Q 3209 422 3611 934 
Q 4013 1447 4013 2328 
Q 4013 3213 3611 3725 
Q 3209 4238 2522 4238 
z
M 2522 4750 
Q 3503 4750 4090 4092 
Q 4678 3434 4678 2328 
Q 4678 1225 4090 567 
Q 3503 -91 2522 -91 
Q 1538 -91 948 565 
Q 359 1222 359 2328 
Q 359 3434 948 4092 
Q 1538 4750 2522 4750 
z
" transform="scale(0.015625)"/>
       <path id="DejaVuSans-67" d="M 2906 1791 
Q 2906 2416 2648 2759 
Q 2391 3103 1925 3103 
Q 1463 3103 1205 2759 
Q 947 2416 947 1791 
Q 947 1169 1205 825 
Q 1463 481 1925 481 
Q 2391 481 2648 825 
Q 2906 1169 2906 1791 
z
M 3481 434 
Q 3481 -459 3084 -895 
Q 2688 -1331 1869 -1331 
Q 1566 -1331 1297 -1286 
Q 1028 -1241 775 -1147 
L 775 -588 
Q 1028 -725 1275 -790 
Q 1522 -856 1778 -856 
Q 2344 -856 2625 -561 
Q 2906 -266 2906 331 
L 2906 616 
Q 2728 306 2450 153 
Q 2172 0 1784 0 
Q 1141 0 747 490 
Q 353 981 353 1791 
Q 353 2603 747 3093 
Q 1141 3584 1784 3584 
Q 2172 3584 2450 3431 
Q 2728 3278 2906 2969 
L 2906 3500 
L 3481 3500 
L 3481 434 
z
" transform="scale(0.015625)"/>
      </defs>
      <use xlink:href="#DejaVuSans-43"/>
      <use xlink:href="#DejaVuSans-48" transform="translate(69.824219 0)"/>
      <use xlink:href="#DejaVuSans-46" transform="translate(145.019531 0)"/>
      <use xlink:href="#DejaVuSans-20" transform="translate(202.539062 0)"/>
      <use xlink:href="#DejaVuSans-75" transform="translate(234.326172 0)"/>
      <use xlink:href="#DejaVuSans-6e" transform="translate(297.705078 0)"/>
      <use xlink:href="#DejaVuSans-62" transform="translate(361.083984 0)"/>
      <use xlink:href="#DejaVuSans-75" transform="translate(424.560547 0)"/>
      <use xlink:href="#DejaVuSans-66" transform="translate(487.939453 0)"/>
      <use xlink:href="#DejaVuSans-20" transform="translate(523.144531 0)"/>
      <use xlink:href="#DejaVuSans-73" transform="translate(554.931641 0)"/>
      <use xlink:href="#DejaVuSans-69" transform="translate(607.03125 0)"/>
      <use xlink:href="#DejaVuSans-6d" transform="translate(634.814453 0)"/>
      <use xlink:href="#DejaVuSans-3a" transform="translate(732.226562 0)"/>
      <use xlink:href="#DejaVuSans-20" transform="translate(765.917969 0)"/>
      <use xlink:href="#DejaVuSans-50" transform="translate(797.705078 0)"/>
      <use xlink:href="#DejaVuSans-4f" transform="translate(858.007812 0)"/>
      <use xlink:href="#DejaVuSans-20" transform="translate(936.71875 0)"/>
      <use xlink:href="#DejaVuSans-31" transform="translate(968.505859 0)"/>
      <use xlink:href="#DejaVuSans-32" transform="translate(1032.128906 0)"/>
      <use xlink:href="#DejaVuSans-2e" transform="translate(1095.751953 0)"/>
      <use xlink:href="#DejaVuSans-35" transform="translate(1127.539062 0)"/>
      <use xlink:href="#DejaVuSans-20" transform="translate(1191.162109 0)"/>
      <use xlink:href="#DejaVuSans-6d" transform="translate(1222.949219 0)"/>
      <use xlink:href="#DejaVuSans-67" transform="translate(1320.361328 0)"/>
     </g>
    </g>
    <g id="LineCollection_3">
     <path d="M 198.395829 81.016562 
L 198.395829 71.016562 
" style="fill: none; stroke: #000000"/>
    </g>
    <g id="line2d_21">
     <path d="M 188.395829 76.016562 
L 208.395829 76.016562 
" style="fill: none; stroke-dasharray: 3.7,1.6; stroke-dashoffset: 0; stroke: #000000"/>
    </g>
    <g id="line2d_22">
     <g>
      <use xlink:href="#m358b46087b" x="198.395829" y="76.016562" style="stroke: #000000; stroke-linejoin: miter"/>
     </g>
    </g>
    <g id="text_18">
     <!-- CHF unbuf exp: PO 12.5 mg±SD (n=6) -->
     <g transform="translate(216.395829 79.516562) scale(0.1 -0.1)">
      <defs>
       <path id="DejaVuSans-65" d="M 3597 1894 
L 3597 1613 
L 953 1613 
Q 991 1019 1311 708 
Q 1631 397 2203 397 
Q 2534 397 2845 478 
Q 3156 559 3463 722 
L 3463 178 
Q 3153 47 2828 -22 
Q 2503 -91 2169 -91 
Q 1331 -91 842 396 
Q 353 884 353 1716 
Q 353 2575 817 3079 
Q 1281 3584 2069 3584 
Q 2775 3584 3186 3129 
Q 3597 2675 3597 1894 
z
M 3022 2063 
Q 3016 2534 2758 2815 
Q 2500 3097 2075 3097 
Q 1594 3097 1305 2825 
Q 1016 2553 972 2059 
L 3022 2063 
z
" transform="scale(0.015625)"/>
       <path id="DejaVuSans-78" d="M 3513 3500 
L 2247 1797 
L 3578 0 
L 2900 0 
L 1881 1375 
L 863 0 
L 184 0 
L 1544 1831 
L 300 3500 
L 978 3500 
L 1906 2253 
L 2834 3500 
L 3513 3500 
z
" transform="scale(0.015625)"/>
       <path id="DejaVuSans-70" d="M 1159 525 
L 1159 -1331 
L 581 -1331 
L 581 3500 
L 1159 3500 
L 1159 2969 
Q 1341 3281 1617 3432 
Q 1894 3584 2278 3584 
Q 2916 3584 3314 3078 
Q 3713 2572 3713 1747 
Q 3713 922 3314 415 
Q 2916 -91 2278 -91 
Q 1894 -91 1617 61 
Q 1341 213 1159 525 
z
M 3116 1747 
Q 3116 2381 2855 2742 
Q 2594 3103 2138 3103 
Q 1681 3103 1420 2742 
Q 1159 2381 1159 1747 
Q 1159 1113 1420 752 
Q 1681 391 2138 391 
Q 2594 391 2855 752 
Q 3116 1113 3116 1747 
z
" transform="scale(0.015625)"/>
       <path id="DejaVuSans-b1" d="M 2944 4013 
L 2944 2803 
L 4684 2803 
L 4684 2272 
L 2944 2272 
L 2944 1063 
L 2419 1063 
L 2419 2272 
L 678 2272 
L 678 2803 
L 2419 2803 
L 2419 4013 
L 2944 4013 
z
M 678 531 
L 4684 531 
L 4684 0 
L 678 0 
L 678 531 
z
" transform="scale(0.015625)"/>
       <path id="DejaVuSans-53" d="M 3425 4513 
L 3425 3897 
Q 3066 4069 2747 4153 
Q 2428 4238 2131 4238 
Q 1616 4238 1336 4038 
Q 1056 3838 1056 3469 
Q 1056 3159 1242 3001 
Q 1428 2844 1947 2747 
L 2328 2669 
Q 3034 2534 3370 2195 
Q 3706 1856 3706 1288 
Q 3706 609 3251 259 
Q 2797 -91 1919 -91 
Q 1588 -91 1214 -16 
Q 841 59 441 206 
L 441 856 
Q 825 641 1194 531 
Q 1563 422 1919 422 
Q 2459 422 2753 634 
Q 3047 847 3047 1241 
Q 3047 1584 2836 1778 
Q 2625 1972 2144 2069 
L 1759 2144 
Q 1053 2284 737 2584 
Q 422 2884 422 3419 
Q 422 4038 858 4394 
Q 1294 4750 2059 4750 
Q 2388 4750 2728 4690 
Q 3069 4631 3425 4513 
z
" transform="scale(0.015625)"/>
       <path id="DejaVuSans-44" d="M 1259 4147 
L 1259 519 
L 2022 519 
Q 2988 519 3436 956 
Q 3884 1394 3884 2338 
Q 3884 3275 3436 3711 
Q 2988 4147 2022 4147 
L 1259 4147 
z
M 628 4666 
L 1925 4666 
Q 3281 4666 3915 4102 
Q 4550 3538 4550 2338 
Q 4550 1131 3912 565 
Q 3275 0 1925 0 
L 628 0 
L 628 4666 
z
" transform="scale(0.015625)"/>
       <path id="DejaVuSans-28" d="M 1984 4856 
Q 1566 4138 1362 3434 
Q 1159 2731 1159 2009 
Q 1159 1288 1364 580 
Q 1569 -128 1984 -844 
L 1484 -844 
Q 1016 -109 783 600 
Q 550 1309 550 2009 
Q 550 2706 781 3412 
Q 1013 4119 1484 4856 
L 1984 4856 
z
" transform="scale(0.015625)"/>
       <path id="DejaVuSans-3d" d="M 678 2906 
L 4684 2906 
L 4684 2381 
L 678 2381 
L 678 2906 
z
M 678 1631 
L 4684 1631 
L 4684 1100 
L 678 1100 
L 678 1631 
z
" transform="scale(0.015625)"/>
       <path id="DejaVuSans-36" d="M 2113 2584 
Q 1688 2584 1439 2293 
Q 1191 2003 1191 1497 
Q 1191 994 1439 701 
Q 1688 409 2113 409 
Q 2538 409 2786 701 
Q 3034 994 3034 1497 
Q 3034 2003 2786 2293 
Q 2538 2584 2113 2584 
z
M 3366 4563 
L 3366 3988 
Q 3128 4100 2886 4159 
Q 2644 4219 2406 4219 
Q 1781 4219 1451 3797 
Q 1122 3375 1075 2522 
Q 1259 2794 1537 2939 
Q 1816 3084 2150 3084 
Q 2853 3084 3261 2657 
Q 3669 2231 3669 1497 
Q 3669 778 3244 343 
Q 2819 -91 2113 -91 
Q 1303 -91 875 529 
Q 447 1150 447 2328 
Q 447 3434 972 4092 
Q 1497 4750 2381 4750 
Q 2619 4750 2861 4703 
Q 3103 4656 3366 4563 
z
" transform="scale(0.015625)"/>
       <path id="DejaVuSans-29" d="M 513 4856 
L 1013 4856 
Q 1481 4119 1714 3412 
Q 1947 2706 1947 2009 
Q 1947 1309 1714 600 
Q 1481 -109 1013 -844 
L 513 -844 
Q 928 -128 1133 580 
Q 1338 1288 1338 2009 
Q 1338 2731 1133 3434 
Q 928 4138 513 4856 
z
" transform="scale(0.015625)"/>
      </defs>
      <use xlink:href="#DejaVuSans-43"/>
      <use xlink:href="#DejaVuSans-48" transform="translate(69.824219 0)"/>
      <use xlink:href="#DejaVuSans-46" transform="translate(145.019531 0)"/>
      <use xlink:href="#DejaVuSans-20" transform="translate(202.539062 0)"/>
      <use xlink:href="#DejaVuSans-75" transform="translate(234.326172 0)"/>
      <use xlink:href="#DejaVuSans-6e" transform="translate(297.705078 0)"/>
      <use xlink:href="#DejaVuSans-62" transform="translate(361.083984 0)"/>
      <use xlink:href="#DejaVuSans-75" transform="translate(424.560547 0)"/>
      <use xlink:href="#DejaVuSans-66" transform="translate(487.939453 0)"/>
      <use xlink:href="#DejaVuSans-20" transform="translate(523.144531 0)"/>
      <use xlink:href="#DejaVuSans-65" transform="translate(554.931641 0)"/>
      <use xlink:href="#DejaVuSans-78" transform="translate(614.705078 0)"/>
      <use xlink:href="#DejaVuSans-70" transform="translate(673.884766 0)"/>
      <use xlink:href="#DejaVuSans-3a" transform="translate(737.361328 0)"/>
      <use xlink:href="#DejaVuSans-20" transform="translate(771.052734 0)"/>
      <use xlink:href="#DejaVuSans-50" transform="translate(802.839844 0)"/>
      <use xlink:href="#DejaVuSans-4f" transform="translate(863.142578 0)"/>
      <use xlink:href="#DejaVuSans-20" transform="translate(941.853516 0)"/>
      <use xlink:href="#DejaVuSans-31" transform="translate(973.640625 0)"/>
      <use xlink:href="#DejaVuSans-32" transform="translate(1037.263672 0)"/>
      <use xlink:href="#DejaVuSans-2e" transform="translate(1100.886719 0)"/>
      <use xlink:href="#DejaVuSans-35" transform="translate(1132.673828 0)"/>
      <use xlink:href="#DejaVuSans-20" transform="translate(1196.296875 0)"/>
      <use xlink:href="#DejaVuSans-6d" transform="translate(1228.083984 0)"/>
      <use xlink:href="#DejaVuSans-67" transform="translate(1325.496094 0)"/>
      <use xlink:href="#DejaVuSans-b1" transform="translate(1388.972656 0)"/>
      <use xlink:href="#DejaVuSans-53" transform="translate(1472.761719 0)"/>
      <use xlink:href="#DejaVuSans-44" transform="translate(1536.238281 0)"/>
      <use xlink:href="#DejaVuSans-20" transform="translate(1613.240234 0)"/>
      <use xlink:href="#DejaVuSans-28" transform="translate(1645.027344 0)"/>
      <use xlink:href="#DejaVuSans-6e" transform="translate(1684.041016 0)"/>
      <use xlink:href="#DejaVuSans-3d" transform="translate(1747.419922 0)"/>
      <use xlink:href="#DejaVuSans-36" transform="translate(1831.208984 0)"/>
      <use xlink:href="#DejaVuSans-29" transform="translate(1894.832031 0)"/>
     </g>
    </g>
    <g id="line2d_23">
     <path d="M 188.395829 90.694687 
L 208.395829 90.694687 
" style="fill: none; stroke: #000000; stroke-width: 2; stroke-linecap: square"/>
    </g>
    <g id="line2d_24"/>
    <g id="text_19">
     <!-- CHF buf sim: SL 12.5 mg -->
     <g transform="translate(216.395829 94.194687) scale(0.1 -0.1)">
      <defs>
       <path id="DejaVuSans-4c" d="M 628 4666 
L 1259 4666 
L 1259 531 
L 3531 531 
L 3531 0 
L 628 0 
L 628 4666 
z
" transform="scale(0.015625)"/>
      </defs>
      <use xlink:href="#DejaVuSans-43"/>
      <use xlink:href="#DejaVuSans-48" transform="translate(69.824219 0)"/>
      <use xlink:href="#DejaVuSans-46" transform="translate(145.019531 0)"/>
      <use xlink:href="#DejaVuSans-20" transform="translate(202.539062 0)"/>
      <use xlink:href="#DejaVuSans-62" transform="translate(234.326172 0)"/>
      <use xlink:href="#DejaVuSans-75" transform="translate(297.802734 0)"/>
      <use xlink:href="#DejaVuSans-66" transform="translate(361.181641 0)"/>
      <use xlink:href="#DejaVuSans-20" transform="translate(396.386719 0)"/>
      <use xlink:href="#DejaVuSans-73" transform="translate(428.173828 0)"/>
      <use xlink:href="#DejaVuSans-69" transform="translate(480.273438 0)"/>
      <use xlink:href="#DejaVuSans-6d" transform="translate(508.056641 0)"/>
      <use xlink:href="#DejaVuSans-3a" transform="translate(605.46875 0)"/>
      <use xlink:href="#DejaVuSans-20" transform="translate(639.160156 0)"/>
      <use xlink:href="#DejaVuSans-53" transform="translate(670.947266 0)"/>
      <use xlink:href="#DejaVuSans-4c" transform="translate(734.423828 0)"/>
      <use xlink:href="#DejaVuSans-20" transform="translate(790.136719 0)"/>
      <use xlink:href="#DejaVuSans-31" transform="translate(821.923828 0)"/>
      <use xlink:href="#DejaVuSans-32" transform="translate(885.546875 0)"/>
      <use xlink:href="#DejaVuSans-2e" transform="translate(949.169922 0)"/>
      <use xlink:href="#DejaVuSans-35" transform="translate(980.957031 0)"/>
      <use xlink:href="#DejaVuSans-20" transform="translate(1044.580078 0)"/>
      <use xlink:href="#DejaVuSans-6d" transform="translate(1076.367188 0)"/>
      <use xlink:href="#DejaVuSans-67" transform="translate(1173.779297 0)"/>
     </g>
    </g>
    <g id="LineCollection_4">
     <path d="M 198.395829 110.372812 
L 198.395829 100.372812 
" style="fill: none; stroke: #000000"/>
    </g>
    <g id="line2d_25">
     <path d="M 188.395829 105.372812 
L 208.395829 105.372812 
" style="fill: none; stroke-dasharray: 3.7,1.6; stroke-dashoffset: 0; stroke: #000000"/>
    </g>
    <g id="line2d_26">
     <g>
      <use xlink:href="#mbbd797e793" x="198.395829" y="105.372812" style="stroke: #000000"/>
     </g>
    </g>
    <g id="text_20">
     <!-- CHF buf exp: SL 12.5 mg±SD (n=6) -->
     <g transform="translate(216.395829 108.872812) scale(0.1 -0.1)">
      <use xlink:href="#DejaVuSans-43"/>
      <use xlink:href="#DejaVuSans-48" transform="translate(69.824219 0)"/>
      <use xlink:href="#DejaVuSans-46" transform="translate(145.019531 0)"/>
      <use xlink:href="#DejaVuSans-20" transform="translate(202.539062 0)"/>
      <use xlink:href="#DejaVuSans-62" transform="translate(234.326172 0)"/>
      <use xlink:href="#DejaVuSans-75" transform="translate(297.802734 0)"/>
      <use xlink:href="#DejaVuSans-66" transform="translate(361.181641 0)"/>
      <use xlink:href="#DejaVuSans-20" transform="translate(396.386719 0)"/>
      <use xlink:href="#DejaVuSans-65" transform="translate(428.173828 0)"/>
      <use xlink:href="#DejaVuSans-78" transform="translate(487.947266 0)"/>
      <use xlink:href="#DejaVuSans-70" transform="translate(547.126953 0)"/>
      <use xlink:href="#DejaVuSans-3a" transform="translate(610.603516 0)"/>
      <use xlink:href="#DejaVuSans-20" transform="translate(644.294922 0)"/>
      <use xlink:href="#DejaVuSans-53" transform="translate(676.082031 0)"/>
      <use xlink:href="#DejaVuSans-4c" transform="translate(739.558594 0)"/>
      <use xlink:href="#DejaVuSans-20" transform="translate(795.271484 0)"/>
      <use xlink:href="#DejaVuSans-31" transform="translate(827.058594 0)"/>
      <use xlink:href="#DejaVuSans-32" transform="translate(890.681641 0)"/>
      <use xlink:href="#DejaVuSans-2e" transform="translate(954.304688 0)"/>
      <use xlink:href="#DejaVuSans-35" transform="translate(986.091797 0)"/>
      <use xlink:href="#DejaVuSans-20" transform="translate(1049.714844 0)"/>
      <use xlink:href="#DejaVuSans-6d" transform="translate(1081.501953 0)"/>
      <use xlink:href="#DejaVuSans-67" transform="translate(1178.914062 0)"/>
      <use xlink:href="#DejaVuSans-b1" transform="translate(1242.390625 0)"/>
      <use xlink:href="#DejaVuSans-53" transform="translate(1326.179688 0)"/>
      <use xlink:href="#DejaVuSans-44" transform="translate(1389.65625 0)"/>
      <use xlink:href="#DejaVuSans-20" transform="translate(1466.658203 0)"/>
      <use xlink:href="#DejaVuSans-28" transform="translate(1498.445312 0)"/>
      <use xlink:href="#DejaVuSans-6e" transform="translate(1537.458984 0)"/>
      <use xlink:href="#DejaVuSans-3d" transform="translate(1600.837891 0)"/>
      <use xlink:href="#DejaVuSans-36" transform="translate(1684.626953 0)"/>
      <use xlink:href="#DejaVuSans-29" transform="translate(1748.25 0)"/>
     </g>
    </g>
   </g>
  </g>
  <g id="axes_2">
   <g id="patch_8">
    <path d="M 530.866984 364.248 
L 904.484375 364.248 
L 904.484375 48.24 
L 530.866984 48.24 
z
" style="fill: #ffffff"/>
   </g>
   <g id="matplotlib.axis_3">
    <g id="xtick_9">
     <g id="line2d_27">
      <g>
       <use xlink:href="#m0598fb1042" x="547.849592" y="364.248" style="stroke: #000000; stroke-width: 0.8"/>
      </g>
     </g>
     <g id="text_21">
      <!-- 0.0 -->
      <g transform="translate(535.922249 382.645656) scale(0.15 -0.15)">
       <use xlink:href="#DejaVuSans-30"/>
       <use xlink:href="#DejaVuSans-2e" transform="translate(63.623047 0)"/>
       <use xlink:href="#DejaVuSans-30" transform="translate(95.410156 0)"/>
      </g>
     </g>
    </g>
    <g id="xtick_10">
     <g id="line2d_28">
      <g>
       <use xlink:href="#m0598fb1042" x="598.797418" y="364.248" style="stroke: #000000; stroke-width: 0.8"/>
      </g>
     </g>
     <g id="text_22">
      <!-- 0.5 -->
      <g transform="translate(586.870075 382.645656) scale(0.15 -0.15)">
       <use xlink:href="#DejaVuSans-30"/>
       <use xlink:href="#DejaVuSans-2e" transform="translate(63.623047 0)"/>
       <use xlink:href="#DejaVuSans-35" transform="translate(95.410156 0)"/>
      </g>
     </g>
    </g>
    <g id="xtick_11">
     <g id="line2d_29">
      <g>
       <use xlink:href="#m0598fb1042" x="649.745245" y="364.248" style="stroke: #000000; stroke-width: 0.8"/>
      </g>
     </g>
     <g id="text_23">
      <!-- 1.0 -->
      <g transform="translate(637.817901 382.645656) scale(0.15 -0.15)">
       <use xlink:href="#DejaVuSans-31"/>
       <use xlink:href="#DejaVuSans-2e" transform="translate(63.623047 0)"/>
       <use xlink:href="#DejaVuSans-30" transform="translate(95.410156 0)"/>
      </g>
     </g>
    </g>
    <g id="xtick_12">
     <g id="line2d_30">
      <g>
       <use xlink:href="#m0598fb1042" x="700.693071" y="364.248" style="stroke: #000000; stroke-width: 0.8"/>
      </g>
     </g>
     <g id="text_24">
      <!-- 1.5 -->
      <g transform="translate(688.765727 382.645656) scale(0.15 -0.15)">
       <use xlink:href="#DejaVuSans-31"/>
       <use xlink:href="#DejaVuSans-2e" transform="translate(63.623047 0)"/>
       <use xlink:href="#DejaVuSans-35" transform="translate(95.410156 0)"/>
      </g>
     </g>
    </g>
    <g id="xtick_13">
     <g id="line2d_31">
      <g>
       <use xlink:href="#m0598fb1042" x="751.640897" y="364.248" style="stroke: #000000; stroke-width: 0.8"/>
      </g>
     </g>
     <g id="text_25">
      <!-- 2.0 -->
      <g transform="translate(739.713553 382.645656) scale(0.15 -0.15)">
       <use xlink:href="#DejaVuSans-32"/>
       <use xlink:href="#DejaVuSans-2e" transform="translate(63.623047 0)"/>
       <use xlink:href="#DejaVuSans-30" transform="translate(95.410156 0)"/>
      </g>
     </g>
    </g>
    <g id="xtick_14">
     <g id="line2d_32">
      <g>
       <use xlink:href="#m0598fb1042" x="802.588723" y="364.248" style="stroke: #000000; stroke-width: 0.8"/>
      </g>
     </g>
     <g id="text_26">
      <!-- 2.5 -->
      <g transform="translate(790.661379 382.645656) scale(0.15 -0.15)">
       <use xlink:href="#DejaVuSans-32"/>
       <use xlink:href="#DejaVuSans-2e" transform="translate(63.623047 0)"/>
       <use xlink:href="#DejaVuSans-35" transform="translate(95.410156 0)"/>
      </g>
     </g>
    </g>
    <g id="xtick_15">
     <g id="line2d_33">
      <g>
       <use xlink:href="#m0598fb1042" x="853.536549" y="364.248" style="stroke: #000000; stroke-width: 0.8"/>
      </g>
     </g>
     <g id="text_27">
      <!-- 3.0 -->
      <g transform="translate(841.609205 382.645656) scale(0.15 -0.15)">
       <use xlink:href="#DejaVuSans-33"/>
       <use xlink:href="#DejaVuSans-2e" transform="translate(63.623047 0)"/>
       <use xlink:href="#DejaVuSans-30" transform="translate(95.410156 0)"/>
      </g>
     </g>
    </g>
    <g id="xtick_16">
     <g id="line2d_34">
      <g>
       <use xlink:href="#m0598fb1042" x="904.484375" y="364.248" style="stroke: #000000; stroke-width: 0.8"/>
      </g>
     </g>
     <g id="text_28">
      <!-- 3.5 -->
      <g transform="translate(892.557031 382.645656) scale(0.15 -0.15)">
       <use xlink:href="#DejaVuSans-33"/>
       <use xlink:href="#DejaVuSans-2e" transform="translate(63.623047 0)"/>
       <use xlink:href="#DejaVuSans-35" transform="translate(95.410156 0)"/>
      </g>
     </g>
    </g>
    <g id="text_29">
     <!-- time [hr] -->
     <g transform="translate(672.601148 403.442375) scale(0.18 -0.18)">
      <use xlink:href="#DejaVuSans-Bold-74"/>
      <use xlink:href="#DejaVuSans-Bold-69" transform="translate(47.802734 0)"/>
      <use xlink:href="#DejaVuSans-Bold-6d" transform="translate(82.080078 0)"/>
      <use xlink:href="#DejaVuSans-Bold-65" transform="translate(186.279297 0)"/>
      <use xlink:href="#DejaVuSans-Bold-20" transform="translate(254.101562 0)"/>
      <use xlink:href="#DejaVuSans-Bold-5b" transform="translate(288.916016 0)"/>
      <use xlink:href="#DejaVuSans-Bold-68" transform="translate(334.619141 0)"/>
      <use xlink:href="#DejaVuSans-Bold-72" transform="translate(405.810547 0)"/>
      <use xlink:href="#DejaVuSans-Bold-5d" transform="translate(455.126953 0)"/>
     </g>
    </g>
   </g>
   <g id="matplotlib.axis_4">
    <g id="ytick_7">
     <g id="line2d_35">
      <g>
       <use xlink:href="#mda4c70b3b1" x="530.866984" y="341.567657" style="stroke: #000000; stroke-width: 0.8"/>
      </g>
     </g>
     <g id="text_30">
      <!-- 95 -->
      <g transform="translate(504.779484 347.266485) scale(0.15 -0.15)">
       <defs>
        <path id="DejaVuSans-39" d="M 703 97 
L 703 672 
Q 941 559 1184 500 
Q 1428 441 1663 441 
Q 2288 441 2617 861 
Q 2947 1281 2994 2138 
Q 2813 1869 2534 1725 
Q 2256 1581 1919 1581 
Q 1219 1581 811 2004 
Q 403 2428 403 3163 
Q 403 3881 828 4315 
Q 1253 4750 1959 4750 
Q 2769 4750 3195 4129 
Q 3622 3509 3622 2328 
Q 3622 1225 3098 567 
Q 2575 -91 1691 -91 
Q 1453 -91 1209 -44 
Q 966 3 703 97 
z
M 1959 2075 
Q 2384 2075 2632 2365 
Q 2881 2656 2881 3163 
Q 2881 3666 2632 3958 
Q 2384 4250 1959 4250 
Q 1534 4250 1286 3958 
Q 1038 3666 1038 3163 
Q 1038 2656 1286 2365 
Q 1534 2075 1959 2075 
z
" transform="scale(0.015625)"/>
       </defs>
       <use xlink:href="#DejaVuSans-39"/>
       <use xlink:href="#DejaVuSans-35" transform="translate(63.623047 0)"/>
      </g>
     </g>
    </g>
    <g id="ytick_8">
     <g id="line2d_36">
      <g>
       <use xlink:href="#mda4c70b3b1" x="530.866984" y="306.02773" style="stroke: #000000; stroke-width: 0.8"/>
      </g>
     </g>
     <g id="text_31">
      <!-- 100 -->
      <g transform="translate(495.235734 311.726558) scale(0.15 -0.15)">
       <use xlink:href="#DejaVuSans-31"/>
       <use xlink:href="#DejaVuSans-30" transform="translate(63.623047 0)"/>
       <use xlink:href="#DejaVuSans-30" transform="translate(127.246094 0)"/>
      </g>
     </g>
    </g>
    <g id="ytick_9">
     <g id="line2d_37">
      <g>
       <use xlink:href="#mda4c70b3b1" x="530.866984" y="270.487803" style="stroke: #000000; stroke-width: 0.8"/>
      </g>
     </g>
     <g id="text_32">
      <!-- 105 -->
      <g transform="translate(495.235734 276.186631) scale(0.15 -0.15)">
       <use xlink:href="#DejaVuSans-31"/>
       <use xlink:href="#DejaVuSans-30" transform="translate(63.623047 0)"/>
       <use xlink:href="#DejaVuSans-35" transform="translate(127.246094 0)"/>
      </g>
     </g>
    </g>
    <g id="ytick_10">
     <g id="line2d_38">
      <g>
       <use xlink:href="#mda4c70b3b1" x="530.866984" y="234.947876" style="stroke: #000000; stroke-width: 0.8"/>
      </g>
     </g>
     <g id="text_33">
      <!-- 110 -->
      <g transform="translate(495.235734 240.646704) scale(0.15 -0.15)">
       <use xlink:href="#DejaVuSans-31"/>
       <use xlink:href="#DejaVuSans-31" transform="translate(63.623047 0)"/>
       <use xlink:href="#DejaVuSans-30" transform="translate(127.246094 0)"/>
      </g>
     </g>
    </g>
    <g id="ytick_11">
     <g id="line2d_39">
      <g>
       <use xlink:href="#mda4c70b3b1" x="530.866984" y="199.407949" style="stroke: #000000; stroke-width: 0.8"/>
      </g>
     </g>
     <g id="text_34">
      <!-- 115 -->
      <g transform="translate(495.235734 205.106777) scale(0.15 -0.15)">
       <use xlink:href="#DejaVuSans-31"/>
       <use xlink:href="#DejaVuSans-31" transform="translate(63.623047 0)"/>
       <use xlink:href="#DejaVuSans-35" transform="translate(127.246094 0)"/>
      </g>
     </g>
    </g>
    <g id="ytick_12">
     <g id="line2d_40">
      <g>
       <use xlink:href="#mda4c70b3b1" x="530.866984" y="163.868022" style="stroke: #000000; stroke-width: 0.8"/>
      </g>
     </g>
     <g id="text_35">
      <!-- 120 -->
      <g transform="translate(495.235734 169.566851) scale(0.15 -0.15)">
       <use xlink:href="#DejaVuSans-31"/>
       <use xlink:href="#DejaVuSans-32" transform="translate(63.623047 0)"/>
       <use xlink:href="#DejaVuSans-30" transform="translate(127.246094 0)"/>
      </g>
     </g>
    </g>
    <g id="ytick_13">
     <g id="line2d_41">
      <g>
       <use xlink:href="#mda4c70b3b1" x="530.866984" y="128.328095" style="stroke: #000000; stroke-width: 0.8"/>
      </g>
     </g>
     <g id="text_36">
      <!-- 125 -->
      <g transform="translate(495.235734 134.026924) scale(0.15 -0.15)">
       <use xlink:href="#DejaVuSans-31"/>
       <use xlink:href="#DejaVuSans-32" transform="translate(63.623047 0)"/>
       <use xlink:href="#DejaVuSans-35" transform="translate(127.246094 0)"/>
      </g>
     </g>
    </g>
    <g id="ytick_14">
     <g id="line2d_42">
      <g>
       <use xlink:href="#mda4c70b3b1" x="530.866984" y="92.788169" style="stroke: #000000; stroke-width: 0.8"/>
      </g>
     </g>
     <g id="text_37">
      <!-- 130 -->
      <g transform="translate(495.235734 98.486997) scale(0.15 -0.15)">
       <use xlink:href="#DejaVuSans-31"/>
       <use xlink:href="#DejaVuSans-33" transform="translate(63.623047 0)"/>
       <use xlink:href="#DejaVuSans-30" transform="translate(127.246094 0)"/>
      </g>
     </g>
    </g>
    <g id="ytick_15">
     <g id="line2d_43">
      <g>
       <use xlink:href="#mda4c70b3b1" x="530.866984" y="57.248242" style="stroke: #000000; stroke-width: 0.8"/>
      </g>
     </g>
     <g id="text_38">
      <!-- 135 -->
      <g transform="translate(495.235734 62.94707) scale(0.15 -0.15)">
       <use xlink:href="#DejaVuSans-31"/>
       <use xlink:href="#DejaVuSans-33" transform="translate(63.623047 0)"/>
       <use xlink:href="#DejaVuSans-35" transform="translate(127.246094 0)"/>
      </g>
     </g>
    </g>
    <g id="text_39">
     <!-- SBP [mmHg] -->
     <g transform="translate(487.351671 270.271969) rotate(-90) scale(0.18 -0.18)">
      <defs>
       <path id="DejaVuSans-Bold-53" d="M 3834 4519 
L 3834 3531 
Q 3450 3703 3084 3790 
Q 2719 3878 2394 3878 
Q 1963 3878 1756 3759 
Q 1550 3641 1550 3391 
Q 1550 3203 1689 3098 
Q 1828 2994 2194 2919 
L 2706 2816 
Q 3484 2659 3812 2340 
Q 4141 2022 4141 1434 
Q 4141 663 3683 286 
Q 3225 -91 2284 -91 
Q 1841 -91 1394 -6 
Q 947 78 500 244 
L 500 1259 
Q 947 1022 1364 901 
Q 1781 781 2169 781 
Q 2563 781 2772 912 
Q 2981 1044 2981 1288 
Q 2981 1506 2839 1625 
Q 2697 1744 2272 1838 
L 1806 1941 
Q 1106 2091 782 2419 
Q 459 2747 459 3303 
Q 459 4000 909 4375 
Q 1359 4750 2203 4750 
Q 2588 4750 2994 4692 
Q 3400 4634 3834 4519 
z
" transform="scale(0.015625)"/>
       <path id="DejaVuSans-Bold-42" d="M 2456 2859 
Q 2741 2859 2887 2984 
Q 3034 3109 3034 3353 
Q 3034 3594 2887 3720 
Q 2741 3847 2456 3847 
L 1791 3847 
L 1791 2859 
L 2456 2859 
z
M 2497 819 
Q 2859 819 3042 972 
Q 3225 1125 3225 1434 
Q 3225 1738 3044 1889 
Q 2863 2041 2497 2041 
L 1791 2041 
L 1791 819 
L 2497 819 
z
M 3616 2497 
Q 4003 2384 4215 2081 
Q 4428 1778 4428 1338 
Q 4428 663 3972 331 
Q 3516 0 2584 0 
L 588 0 
L 588 4666 
L 2394 4666 
Q 3366 4666 3802 4372 
Q 4238 4078 4238 3431 
Q 4238 3091 4078 2852 
Q 3919 2613 3616 2497 
z
" transform="scale(0.015625)"/>
       <path id="DejaVuSans-Bold-50" d="M 588 4666 
L 2584 4666 
Q 3475 4666 3951 4270 
Q 4428 3875 4428 3144 
Q 4428 2409 3951 2014 
Q 3475 1619 2584 1619 
L 1791 1619 
L 1791 0 
L 588 0 
L 588 4666 
z
M 1791 3794 
L 1791 2491 
L 2456 2491 
Q 2806 2491 2997 2661 
Q 3188 2831 3188 3144 
Q 3188 3456 2997 3625 
Q 2806 3794 2456 3794 
L 1791 3794 
z
" transform="scale(0.015625)"/>
       <path id="DejaVuSans-Bold-48" d="M 588 4666 
L 1791 4666 
L 1791 2888 
L 3566 2888 
L 3566 4666 
L 4769 4666 
L 4769 0 
L 3566 0 
L 3566 1978 
L 1791 1978 
L 1791 0 
L 588 0 
L 588 4666 
z
" transform="scale(0.015625)"/>
       <path id="DejaVuSans-Bold-67" d="M 2919 594 
Q 2688 288 2409 144 
Q 2131 0 1766 0 
Q 1125 0 706 504 
Q 288 1009 288 1791 
Q 288 2575 706 3076 
Q 1125 3578 1766 3578 
Q 2131 3578 2409 3434 
Q 2688 3291 2919 2981 
L 2919 3500 
L 4044 3500 
L 4044 353 
Q 4044 -491 3511 -936 
Q 2978 -1381 1966 -1381 
Q 1638 -1381 1331 -1331 
Q 1025 -1281 716 -1178 
L 716 -306 
Q 1009 -475 1290 -558 
Q 1572 -641 1856 -641 
Q 2406 -641 2662 -400 
Q 2919 -159 2919 353 
L 2919 594 
z
M 2181 2772 
Q 1834 2772 1640 2515 
Q 1447 2259 1447 1791 
Q 1447 1309 1634 1061 
Q 1822 813 2181 813 
Q 2531 813 2725 1069 
Q 2919 1325 2919 1791 
Q 2919 2259 2725 2515 
Q 2531 2772 2181 2772 
z
" transform="scale(0.015625)"/>
      </defs>
      <use xlink:href="#DejaVuSans-Bold-53"/>
      <use xlink:href="#DejaVuSans-Bold-42" transform="translate(72.021484 0)"/>
      <use xlink:href="#DejaVuSans-Bold-50" transform="translate(148.242188 0)"/>
      <use xlink:href="#DejaVuSans-Bold-20" transform="translate(221.533203 0)"/>
      <use xlink:href="#DejaVuSans-Bold-5b" transform="translate(256.347656 0)"/>
      <use xlink:href="#DejaVuSans-Bold-6d" transform="translate(302.050781 0)"/>
      <use xlink:href="#DejaVuSans-Bold-6d" transform="translate(406.25 0)"/>
      <use xlink:href="#DejaVuSans-Bold-48" transform="translate(510.449219 0)"/>
      <use xlink:href="#DejaVuSans-Bold-67" transform="translate(594.140625 0)"/>
      <use xlink:href="#DejaVuSans-Bold-5d" transform="translate(665.722656 0)"/>
     </g>
    </g>
   </g>
   <g id="LineCollection_5">
    <path d="M 547.849592 172.184365 
L 547.849592 129.536453 
" clip-path="url(#p3818ea9d00)" style="fill: none; stroke: #000000"/>
    <path d="M 556.340897 211.491525 
L 556.340897 120.509312 
" clip-path="url(#p3818ea9d00)" style="fill: none; stroke: #000000"/>
    <path d="M 564.832201 234.734637 
L 564.832201 116.742079 
" clip-path="url(#p3818ea9d00)" style="fill: none; stroke: #000000"/>
    <path d="M 573.323505 247.031451 
L 573.323505 127.617297 
" clip-path="url(#p3818ea9d00)" style="fill: none; stroke: #000000"/>
    <path d="M 581.81481 270.487803 
L 581.81481 132.592887 
" clip-path="url(#p3818ea9d00)" style="fill: none; stroke: #000000"/>
    <path d="M 590.306114 250.372205 
L 590.306114 143.752424 
" clip-path="url(#p3818ea9d00)" style="fill: none; stroke: #000000"/>
    <path d="M 598.797418 259.115027 
L 598.797418 153.916843 
" clip-path="url(#p3818ea9d00)" style="fill: none; stroke: #000000"/>
    <path d="M 615.780027 270.985362 
L 615.780027 151.571208 
" clip-path="url(#p3818ea9d00)" style="fill: none; stroke: #000000"/>
    <path d="M 649.745245 290.887721 
L 649.745245 131.668849 
" clip-path="url(#p3818ea9d00)" style="fill: none; stroke: #000000"/>
    <path d="M 700.693071 295.578992 
L 700.693071 157.684075 
" clip-path="url(#p3818ea9d00)" style="fill: none; stroke: #000000"/>
    <path d="M 751.640897 291.100961 
L 751.640897 157.470836 
" clip-path="url(#p3818ea9d00)" style="fill: none; stroke: #000000"/>
    <path d="M 853.536549 198.697151 
L 853.536549 100.606952 
" clip-path="url(#p3818ea9d00)" style="fill: none; stroke: #000000"/>
   </g>
   <g id="LineCollection_6">
    <path d="M 547.849592 164.365581 
L 547.849592 108.923295 
" clip-path="url(#p3818ea9d00)" style="fill: none; stroke: #000000"/>
    <path d="M 556.340897 168.630373 
L 556.340897 104.658504 
" clip-path="url(#p3818ea9d00)" style="fill: none; stroke: #000000"/>
    <path d="M 564.832201 193.010762 
L 564.832201 124.774103 
" clip-path="url(#p3818ea9d00)" style="fill: none; stroke: #000000"/>
    <path d="M 573.323505 191.589165 
L 573.323505 111.979729 
" clip-path="url(#p3818ea9d00)" style="fill: none; stroke: #000000"/>
    <path d="M 581.81481 223.36186 
L 581.81481 135.222841 
" clip-path="url(#p3818ea9d00)" style="fill: none; stroke: #000000"/>
    <path d="M 590.306114 229.048248 
L 590.306114 122.428468 
" clip-path="url(#p3818ea9d00)" style="fill: none; stroke: #000000"/>
    <path d="M 598.797418 280.225743 
L 598.797418 135.222841 
" clip-path="url(#p3818ea9d00)" style="fill: none; stroke: #000000"/>
    <path d="M 615.780027 349.884 
L 615.780027 179.292351 
" clip-path="url(#p3818ea9d00)" style="fill: none; stroke: #000000"/>
    <path d="M 649.745245 320.954499 
L 649.745245 238.501869 
" clip-path="url(#p3818ea9d00)" style="fill: none; stroke: #000000"/>
    <path d="M 700.693071 283.992975 
L 700.693071 214.334719 
" clip-path="url(#p3818ea9d00)" style="fill: none; stroke: #000000"/>
    <path d="M 751.640897 243.264219 
L 751.640897 172.184365 
" clip-path="url(#p3818ea9d00)" style="fill: none; stroke: #000000"/>
    <path d="M 853.536549 241.345063 
L 853.536549 147.519656 
" clip-path="url(#p3818ea9d00)" style="fill: none; stroke: #000000"/>
   </g>
   <g id="line2d_44">
    <path d="M 547.849592 150.860409 
L 548.698723 150.906155 
L 549.547853 151.302541 
L 550.396984 152.193033 
L 551.246114 153.52668 
L 552.095245 155.212133 
L 553.793505 159.307131 
L 556.340897 166.41124 
L 567.379592 198.417783 
L 571.625245 209.781639 
L 575.870897 220.465931 
L 580.116549 230.469296 
L 584.362201 239.803502 
L 588.607853 248.485564 
L 592.004375 254.974402 
L 595.400897 261.067948 
L 598.797418 266.776019 
L 602.19394 272.108138 
L 605.590462 277.073437 
L 608.986984 281.680602 
L 612.383505 285.937846 
L 615.780027 289.852902 
L 619.176549 293.433037 
L 622.573071 296.685075 
L 625.969592 299.615426 
L 629.366114 302.230132 
L 632.762636 304.534911 
L 636.159158 306.535212 
L 639.555679 308.236265 
L 642.952201 309.643141 
L 646.348723 310.760809 
L 649.745245 311.594191 
L 653.141766 312.148216 
L 656.538288 312.427869 
L 659.93481 312.438237 
L 663.331332 312.184545 
L 666.727853 311.672194 
L 670.124375 310.906782 
L 673.520897 309.894125 
L 676.917418 308.640266 
L 680.31394 307.151486 
L 683.710462 305.434296 
L 687.106984 303.495436 
L 690.503505 301.341863 
L 694.749158 298.358879 
L 698.99481 295.06599 
L 703.240462 291.477976 
L 707.486114 287.609952 
L 711.731766 283.477302 
L 716.826549 278.190786 
L 721.921332 272.572897 
L 727.016114 266.651039 
L 732.960027 259.394656 
L 738.90394 251.805421 
L 745.696984 242.779856 
L 753.339158 232.253226 
L 762.679592 218.976436 
L 774.567418 201.659671 
L 803.437853 159.427191 
L 813.627418 145.018955 
L 822.118723 133.394592 
L 829.760897 123.298852 
L 836.55394 114.659086 
L 843.346984 106.367498 
L 850.140027 98.452778 
L 856.08394 91.856411 
L 862.027853 85.582514 
L 867.971766 79.643614 
L 873.915679 74.050168 
L 879.010462 69.537165 
L 884.105245 65.288291 
L 887.501766 62.604 
L 887.501766 62.604 
" clip-path="url(#p3818ea9d00)" style="fill: none; stroke: #000000; stroke-width: 2; stroke-linecap: square"/>
   </g>
   <g id="line2d_45">
    <path d="M 547.849592 150.860409 
L 556.340897 166.000418 
L 564.832201 175.738358 
L 573.323505 187.324374 
L 581.81481 201.540345 
L 590.306114 197.062314 
L 598.797418 206.515935 
L 615.780027 211.278285 
L 649.745245 211.278285 
L 700.693071 226.631533 
L 751.640897 224.285898 
L 853.536549 149.652052 
" clip-path="url(#p3818ea9d00)" style="fill: none; stroke-dasharray: 3.7,1.6; stroke-dashoffset: 0; stroke: #000000"/>
    <g clip-path="url(#p3818ea9d00)">
     <use xlink:href="#m358b46087b" x="547.849592" y="150.860409" style="stroke: #000000; stroke-linejoin: miter"/>
     <use xlink:href="#m358b46087b" x="556.340897" y="166.000418" style="stroke: #000000; stroke-linejoin: miter"/>
     <use xlink:href="#m358b46087b" x="564.832201" y="175.738358" style="stroke: #000000; stroke-linejoin: miter"/>
     <use xlink:href="#m358b46087b" x="573.323505" y="187.324374" style="stroke: #000000; stroke-linejoin: miter"/>
     <use xlink:href="#m358b46087b" x="581.81481" y="201.540345" style="stroke: #000000; stroke-linejoin: miter"/>
     <use xlink:href="#m358b46087b" x="590.306114" y="197.062314" style="stroke: #000000; stroke-linejoin: miter"/>
     <use xlink:href="#m358b46087b" x="598.797418" y="206.515935" style="stroke: #000000; stroke-linejoin: miter"/>
     <use xlink:href="#m358b46087b" x="615.780027" y="211.278285" style="stroke: #000000; stroke-linejoin: miter"/>
     <use xlink:href="#m358b46087b" x="649.745245" y="211.278285" style="stroke: #000000; stroke-linejoin: miter"/>
     <use xlink:href="#m358b46087b" x="700.693071" y="226.631533" style="stroke: #000000; stroke-linejoin: miter"/>
     <use xlink:href="#m358b46087b" x="751.640897" y="224.285898" style="stroke: #000000; stroke-linejoin: miter"/>
     <use xlink:href="#m358b46087b" x="853.536549" y="149.652052" style="stroke: #000000; stroke-linejoin: miter"/>
    </g>
   </g>
   <g id="line2d_46">
    <path d="M 547.849592 136.857678 
L 548.698723 136.935216 
L 549.547853 137.295622 
L 550.396984 137.982529 
L 551.246114 138.969481 
L 552.095245 140.210277 
L 553.793505 143.265966 
L 555.491766 146.832315 
L 558.888288 154.708265 
L 569.077853 178.910351 
L 573.323505 188.356455 
L 577.569158 197.272807 
L 581.81481 205.632034 
L 586.060462 213.425545 
L 589.456984 219.253776 
L 592.853505 224.72425 
L 596.250027 229.842017 
L 599.646549 234.613186 
L 603.043071 239.044592 
L 606.439592 243.14358 
L 609.836114 246.917845 
L 613.232636 250.375323 
L 616.629158 253.524121 
L 620.025679 256.372465 
L 623.422201 258.928659 
L 626.818723 261.20107 
L 630.215245 263.198109 
L 633.611766 264.928223 
L 637.008288 266.39989 
L 640.40481 267.621611 
L 643.801332 268.601911 
L 647.197853 269.349334 
L 650.594375 269.872435 
L 653.990897 270.179777 
L 657.387418 270.279921 
L 660.78394 270.181418 
L 664.180462 269.892795 
L 668.426114 269.277591 
L 672.671766 268.395059 
L 676.917418 267.261503 
L 681.163071 265.893008 
L 685.408723 264.305395 
L 690.503505 262.132832 
L 695.598288 259.693159 
L 700.693071 257.01164 
L 706.636984 253.609939 
L 712.580897 249.949033 
L 719.37394 245.492441 
L 727.016114 240.189159 
L 735.507418 234.011724 
L 745.696984 226.310546 
L 760.132201 215.082489 
L 791.550027 190.545824 
L 804.286984 180.924831 
L 815.325679 172.854701 
L 825.515245 165.667766 
L 835.70481 158.761282 
L 845.045245 152.694982 
L 854.385679 146.894652 
L 863.726114 141.369361 
L 872.217418 136.590322 
L 880.708723 132.04666 
L 887.501766 128.582215 
L 887.501766 128.582215 
" clip-path="url(#p3818ea9d00)" style="fill: none; stroke: #000000; stroke-width: 2; stroke-linecap: square"/>
   </g>
   <g id="line2d_47">
    <path d="M 547.849592 136.644438 
L 556.340897 136.644438 
L 564.832201 158.892433 
L 573.323505 151.784447 
L 581.81481 179.292351 
L 590.306114 175.738358 
L 598.797418 207.724292 
L 615.780027 264.588175 
L 649.745245 279.728184 
L 700.693071 249.163847 
L 751.640897 207.724292 
L 853.536549 194.43236 
" clip-path="url(#p3818ea9d00)" style="fill: none; stroke-dasharray: 3.7,1.6; stroke-dashoffset: 0; stroke: #000000"/>
    <g clip-path="url(#p3818ea9d00)">
     <use xlink:href="#mbbd797e793" x="547.849592" y="136.644438" style="stroke: #000000"/>
     <use xlink:href="#mbbd797e793" x="556.340897" y="136.644438" style="stroke: #000000"/>
     <use xlink:href="#mbbd797e793" x="564.832201" y="158.892433" style="stroke: #000000"/>
     <use xlink:href="#mbbd797e793" x="573.323505" y="151.784447" style="stroke: #000000"/>
     <use xlink:href="#mbbd797e793" x="581.81481" y="179.292351" style="stroke: #000000"/>
     <use xlink:href="#mbbd797e793" x="590.306114" y="175.738358" style="stroke: #000000"/>
     <use xlink:href="#mbbd797e793" x="598.797418" y="207.724292" style="stroke: #000000"/>
     <use xlink:href="#mbbd797e793" x="615.780027" y="264.588175" style="stroke: #000000"/>
     <use xlink:href="#mbbd797e793" x="649.745245" y="279.728184" style="stroke: #000000"/>
     <use xlink:href="#mbbd797e793" x="700.693071" y="249.163847" style="stroke: #000000"/>
     <use xlink:href="#mbbd797e793" x="751.640897" y="207.724292" style="stroke: #000000"/>
     <use xlink:href="#mbbd797e793" x="853.536549" y="194.43236" style="stroke: #000000"/>
    </g>
   </g>
   <g id="patch_9">
    <path d="M 530.866984 364.248 
L 530.866984 48.24 
" style="fill: none; stroke: #000000; stroke-width: 0.8; stroke-linejoin: miter; stroke-linecap: square"/>
   </g>
   <g id="patch_10">
    <path d="M 904.484375 364.248 
L 904.484375 48.24 
" style="fill: none; stroke: #000000; stroke-width: 0.8; stroke-linejoin: miter; stroke-linecap: square"/>
   </g>
   <g id="patch_11">
    <path d="M 530.866984 364.248 
L 904.484375 364.248 
" style="fill: none; stroke: #000000; stroke-width: 0.8; stroke-linejoin: miter; stroke-linecap: square"/>
   </g>
   <g id="patch_12">
    <path d="M 530.866984 48.24 
L 904.484375 48.24 
" style="fill: none; stroke: #000000; stroke-width: 0.8; stroke-linejoin: miter; stroke-linecap: square"/>
   </g>
   <g id="legend_2">
    <g id="patch_13">
     <path d="M 537.866984 114.9525 
L 763.252921 114.9525 
Q 765.252921 114.9525 765.252921 112.9525 
L 765.252921 55.24 
Q 765.252921 53.24 763.252921 53.24 
L 537.866984 53.24 
Q 535.866984 53.24 535.866984 55.24 
L 535.866984 112.9525 
Q 535.866984 114.9525 537.866984 114.9525 
z
" style="fill: #ffffff; opacity: 0.8; stroke: #cccccc; stroke-linejoin: miter"/>
    </g>
    <g id="line2d_48">
     <path d="M 539.866984 61.338437 
L 559.866984 61.338437 
" style="fill: none; stroke: #000000; stroke-width: 2; stroke-linecap: square"/>
    </g>
    <g id="line2d_49"/>
    <g id="text_40">
     <!-- CHF unbuf sim: PO 12.5 mg -->
     <g transform="translate(567.866984 64.838437) scale(0.1 -0.1)">
      <use xlink:href="#DejaVuSans-43"/>
      <use xlink:href="#DejaVuSans-48" transform="translate(69.824219 0)"/>
      <use xlink:href="#DejaVuSans-46" transform="translate(145.019531 0)"/>
      <use xlink:href="#DejaVuSans-20" transform="translate(202.539062 0)"/>
      <use xlink:href="#DejaVuSans-75" transform="translate(234.326172 0)"/>
      <use xlink:href="#DejaVuSans-6e" transform="translate(297.705078 0)"/>
      <use xlink:href="#DejaVuSans-62" transform="translate(361.083984 0)"/>
      <use xlink:href="#DejaVuSans-75" transform="translate(424.560547 0)"/>
      <use xlink:href="#DejaVuSans-66" transform="translate(487.939453 0)"/>
      <use xlink:href="#DejaVuSans-20" transform="translate(523.144531 0)"/>
      <use xlink:href="#DejaVuSans-73" transform="translate(554.931641 0)"/>
      <use xlink:href="#DejaVuSans-69" transform="translate(607.03125 0)"/>
      <use xlink:href="#DejaVuSans-6d" transform="translate(634.814453 0)"/>
      <use xlink:href="#DejaVuSans-3a" transform="translate(732.226562 0)"/>
      <use xlink:href="#DejaVuSans-20" transform="translate(765.917969 0)"/>
      <use xlink:href="#DejaVuSans-50" transform="translate(797.705078 0)"/>
      <use xlink:href="#DejaVuSans-4f" transform="translate(858.007812 0)"/>
      <use xlink:href="#DejaVuSans-20" transform="translate(936.71875 0)"/>
      <use xlink:href="#DejaVuSans-31" transform="translate(968.505859 0)"/>
      <use xlink:href="#DejaVuSans-32" transform="translate(1032.128906 0)"/>
      <use xlink:href="#DejaVuSans-2e" transform="translate(1095.751953 0)"/>
      <use xlink:href="#DejaVuSans-35" transform="translate(1127.539062 0)"/>
      <use xlink:href="#DejaVuSans-20" transform="translate(1191.162109 0)"/>
      <use xlink:href="#DejaVuSans-6d" transform="translate(1222.949219 0)"/>
      <use xlink:href="#DejaVuSans-67" transform="translate(1320.361328 0)"/>
     </g>
    </g>
    <g id="LineCollection_7">
     <path d="M 549.866984 81.016562 
L 549.866984 71.016562 
" style="fill: none; stroke: #000000"/>
    </g>
    <g id="line2d_50">
     <path d="M 539.866984 76.016562 
L 559.866984 76.016562 
" style="fill: none; stroke-dasharray: 3.7,1.6; stroke-dashoffset: 0; stroke: #000000"/>
    </g>
    <g id="line2d_51">
     <g>
      <use xlink:href="#m358b46087b" x="549.866984" y="76.016562" style="stroke: #000000; stroke-linejoin: miter"/>
     </g>
    </g>
    <g id="text_41">
     <!-- CHF unbuf exp: PO 12.5 mg±SD (n=6) -->
     <g transform="translate(567.866984 79.516562) scale(0.1 -0.1)">
      <use xlink:href="#DejaVuSans-43"/>
      <use xlink:href="#DejaVuSans-48" transform="translate(69.824219 0)"/>
      <use xlink:href="#DejaVuSans-46" transform="translate(145.019531 0)"/>
      <use xlink:href="#DejaVuSans-20" transform="translate(202.539062 0)"/>
      <use xlink:href="#DejaVuSans-75" transform="translate(234.326172 0)"/>
      <use xlink:href="#DejaVuSans-6e" transform="translate(297.705078 0)"/>
      <use xlink:href="#DejaVuSans-62" transform="translate(361.083984 0)"/>
      <use xlink:href="#DejaVuSans-75" transform="translate(424.560547 0)"/>
      <use xlink:href="#DejaVuSans-66" transform="translate(487.939453 0)"/>
      <use xlink:href="#DejaVuSans-20" transform="translate(523.144531 0)"/>
      <use xlink:href="#DejaVuSans-65" transform="translate(554.931641 0)"/>
      <use xlink:href="#DejaVuSans-78" transform="translate(614.705078 0)"/>
      <use xlink:href="#DejaVuSans-70" transform="translate(673.884766 0)"/>
      <use xlink:href="#DejaVuSans-3a" transform="translate(737.361328 0)"/>
      <use xlink:href="#DejaVuSans-20" transform="translate(771.052734 0)"/>
      <use xlink:href="#DejaVuSans-50" transform="translate(802.839844 0)"/>
      <use xlink:href="#DejaVuSans-4f" transform="translate(863.142578 0)"/>
      <use xlink:href="#DejaVuSans-20" transform="translate(941.853516 0)"/>
      <use xlink:href="#DejaVuSans-31" transform="translate(973.640625 0)"/>
      <use xlink:href="#DejaVuSans-32" transform="translate(1037.263672 0)"/>
      <use xlink:href="#DejaVuSans-2e" transform="translate(1100.886719 0)"/>
      <use xlink:href="#DejaVuSans-35" transform="translate(1132.673828 0)"/>
      <use xlink:href="#DejaVuSans-20" transform="translate(1196.296875 0)"/>
      <use xlink:href="#DejaVuSans-6d" transform="translate(1228.083984 0)"/>
      <use xlink:href="#DejaVuSans-67" transform="translate(1325.496094 0)"/>
      <use xlink:href="#DejaVuSans-b1" transform="translate(1388.972656 0)"/>
      <use xlink:href="#DejaVuSans-53" transform="translate(1472.761719 0)"/>
      <use xlink:href="#DejaVuSans-44" transform="translate(1536.238281 0)"/>
      <use xlink:href="#DejaVuSans-20" transform="translate(1613.240234 0)"/>
      <use xlink:href="#DejaVuSans-28" transform="translate(1645.027344 0)"/>
      <use xlink:href="#DejaVuSans-6e" transform="translate(1684.041016 0)"/>
      <use xlink:href="#DejaVuSans-3d" transform="translate(1747.419922 0)"/>
      <use xlink:href="#DejaVuSans-36" transform="translate(1831.208984 0)"/>
      <use xlink:href="#DejaVuSans-29" transform="translate(1894.832031 0)"/>
     </g>
    </g>
    <g id="line2d_52">
     <path d="M 539.866984 90.694687 
L 559.866984 90.694687 
" style="fill: none; stroke: #000000; stroke-width: 2; stroke-linecap: square"/>
    </g>
    <g id="line2d_53"/>
    <g id="text_42">
     <!-- CHF buf sim: SL 12.5 mg -->
     <g transform="translate(567.866984 94.194687) scale(0.1 -0.1)">
      <use xlink:href="#DejaVuSans-43"/>
      <use xlink:href="#DejaVuSans-48" transform="translate(69.824219 0)"/>
      <use xlink:href="#DejaVuSans-46" transform="translate(145.019531 0)"/>
      <use xlink:href="#DejaVuSans-20" transform="translate(202.539062 0)"/>
      <use xlink:href="#DejaVuSans-62" transform="translate(234.326172 0)"/>
      <use xlink:href="#DejaVuSans-75" transform="translate(297.802734 0)"/>
      <use xlink:href="#DejaVuSans-66" transform="translate(361.181641 0)"/>
      <use xlink:href="#DejaVuSans-20" transform="translate(396.386719 0)"/>
      <use xlink:href="#DejaVuSans-73" transform="translate(428.173828 0)"/>
      <use xlink:href="#DejaVuSans-69" transform="translate(480.273438 0)"/>
      <use xlink:href="#DejaVuSans-6d" transform="translate(508.056641 0)"/>
      <use xlink:href="#DejaVuSans-3a" transform="translate(605.46875 0)"/>
      <use xlink:href="#DejaVuSans-20" transform="translate(639.160156 0)"/>
      <use xlink:href="#DejaVuSans-53" transform="translate(670.947266 0)"/>
      <use xlink:href="#DejaVuSans-4c" transform="translate(734.423828 0)"/>
      <use xlink:href="#DejaVuSans-20" transform="translate(790.136719 0)"/>
      <use xlink:href="#DejaVuSans-31" transform="translate(821.923828 0)"/>
      <use xlink:href="#DejaVuSans-32" transform="translate(885.546875 0)"/>
      <use xlink:href="#DejaVuSans-2e" transform="translate(949.169922 0)"/>
      <use xlink:href="#DejaVuSans-35" transform="translate(980.957031 0)"/>
      <use xlink:href="#DejaVuSans-20" transform="translate(1044.580078 0)"/>
      <use xlink:href="#DejaVuSans-6d" transform="translate(1076.367188 0)"/>
      <use xlink:href="#DejaVuSans-67" transform="translate(1173.779297 0)"/>
     </g>
    </g>
    <g id="LineCollection_8">
     <path d="M 549.866984 110.372812 
L 549.866984 100.372812 
" style="fill: none; stroke: #000000"/>
    </g>
    <g id="line2d_54">
     <path d="M 539.866984 105.372812 
L 559.866984 105.372812 
" style="fill: none; stroke-dasharray: 3.7,1.6; stroke-dashoffset: 0; stroke: #000000"/>
    </g>
    <g id="line2d_55">
     <g>
      <use xlink:href="#mbbd797e793" x="549.866984" y="105.372812" style="stroke: #000000"/>
     </g>
    </g>
    <g id="text_43">
     <!-- CHF buf exp: SL 12.5 mg±SD (n=6) -->
     <g transform="translate(567.866984 108.872812) scale(0.1 -0.1)">
      <use xlink:href="#DejaVuSans-43"/>
      <use xlink:href="#DejaVuSans-48" transform="translate(69.824219 0)"/>
      <use xlink:href="#DejaVuSans-46" transform="translate(145.019531 0)"/>
      <use xlink:href="#DejaVuSans-20" transform="translate(202.539062 0)"/>
      <use xlink:href="#DejaVuSans-62" transform="translate(234.326172 0)"/>
      <use xlink:href="#DejaVuSans-75" transform="translate(297.802734 0)"/>
      <use xlink:href="#DejaVuSans-66" transform="translate(361.181641 0)"/>
      <use xlink:href="#DejaVuSans-20" transform="translate(396.386719 0)"/>
      <use xlink:href="#DejaVuSans-65" transform="translate(428.173828 0)"/>
      <use xlink:href="#DejaVuSans-78" transform="translate(487.947266 0)"/>
      <use xlink:href="#DejaVuSans-70" transform="translate(547.126953 0)"/>
      <use xlink:href="#DejaVuSans-3a" transform="translate(610.603516 0)"/>
      <use xlink:href="#DejaVuSans-20" transform="translate(644.294922 0)"/>
      <use xlink:href="#DejaVuSans-53" transform="translate(676.082031 0)"/>
      <use xlink:href="#DejaVuSans-4c" transform="translate(739.558594 0)"/>
      <use xlink:href="#DejaVuSans-20" transform="translate(795.271484 0)"/>
      <use xlink:href="#DejaVuSans-31" transform="translate(827.058594 0)"/>
      <use xlink:href="#DejaVuSans-32" transform="translate(890.681641 0)"/>
      <use xlink:href="#DejaVuSans-2e" transform="translate(954.304688 0)"/>
      <use xlink:href="#DejaVuSans-35" transform="translate(986.091797 0)"/>
      <use xlink:href="#DejaVuSans-20" transform="translate(1049.714844 0)"/>
      <use xlink:href="#DejaVuSans-6d" transform="translate(1081.501953 0)"/>
      <use xlink:href="#DejaVuSans-67" transform="translate(1178.914062 0)"/>
      <use xlink:href="#DejaVuSans-b1" transform="translate(1242.390625 0)"/>
      <use xlink:href="#DejaVuSans-53" transform="translate(1326.179688 0)"/>
      <use xlink:href="#DejaVuSans-44" transform="translate(1389.65625 0)"/>
      <use xlink:href="#DejaVuSans-20" transform="translate(1466.658203 0)"/>
      <use xlink:href="#DejaVuSans-28" transform="translate(1498.445312 0)"/>
      <use xlink:href="#DejaVuSans-6e" transform="translate(1537.458984 0)"/>
      <use xlink:href="#DejaVuSans-3d" transform="translate(1600.837891 0)"/>
      <use xlink:href="#DejaVuSans-36" transform="translate(1684.626953 0)"/>
      <use xlink:href="#DejaVuSans-29" transform="translate(1748.25 0)"/>
     </g>
    </g>
   </g>
  </g>
  <g id="text_44">
   <!-- McElnay1996 -->
   <g transform="translate(368.409688 26.196094) scale(0.25 -0.25)">
    <defs>
     <path id="DejaVuSans-Bold-63" d="M 3366 3391 
L 3366 2478 
Q 3138 2634 2908 2709 
Q 2678 2784 2431 2784 
Q 1963 2784 1702 2511 
Q 1441 2238 1441 1747 
Q 1441 1256 1702 982 
Q 1963 709 2431 709 
Q 2694 709 2930 787 
Q 3166 866 3366 1019 
L 3366 103 
Q 3103 6 2833 -42 
Q 2563 -91 2291 -91 
Q 1344 -91 809 395 
Q 275 881 275 1747 
Q 275 2613 809 3098 
Q 1344 3584 2291 3584 
Q 2566 3584 2833 3536 
Q 3100 3488 3366 3391 
z
" transform="scale(0.015625)"/>
     <path id="DejaVuSans-Bold-45" d="M 588 4666 
L 3834 4666 
L 3834 3756 
L 1791 3756 
L 1791 2888 
L 3713 2888 
L 3713 1978 
L 1791 1978 
L 1791 909 
L 3903 909 
L 3903 0 
L 588 0 
L 588 4666 
z
" transform="scale(0.015625)"/>
     <path id="DejaVuSans-Bold-6c" d="M 538 4863 
L 1656 4863 
L 1656 0 
L 538 0 
L 538 4863 
z
" transform="scale(0.015625)"/>
     <path id="DejaVuSans-Bold-61" d="M 2106 1575 
Q 1756 1575 1579 1456 
Q 1403 1338 1403 1106 
Q 1403 894 1545 773 
Q 1688 653 1941 653 
Q 2256 653 2472 879 
Q 2688 1106 2688 1447 
L 2688 1575 
L 2106 1575 
z
M 3816 1997 
L 3816 0 
L 2688 0 
L 2688 519 
Q 2463 200 2181 54 
Q 1900 -91 1497 -91 
Q 953 -91 614 226 
Q 275 544 275 1050 
Q 275 1666 698 1953 
Q 1122 2241 2028 2241 
L 2688 2241 
L 2688 2328 
Q 2688 2594 2478 2717 
Q 2269 2841 1825 2841 
Q 1466 2841 1156 2769 
Q 847 2697 581 2553 
L 581 3406 
Q 941 3494 1303 3539 
Q 1666 3584 2028 3584 
Q 2975 3584 3395 3211 
Q 3816 2838 3816 1997 
z
" transform="scale(0.015625)"/>
     <path id="DejaVuSans-Bold-79" d="M 78 3500 
L 1197 3500 
L 2138 1125 
L 2938 3500 
L 4056 3500 
L 2584 -331 
Q 2363 -916 2067 -1148 
Q 1772 -1381 1288 -1381 
L 641 -1381 
L 641 -647 
L 991 -647 
Q 1275 -647 1404 -556 
Q 1534 -466 1606 -231 
L 1638 -134 
L 78 3500 
z
" transform="scale(0.015625)"/>
     <path id="DejaVuSans-Bold-31" d="M 750 831 
L 1813 831 
L 1813 3847 
L 722 3622 
L 722 4441 
L 1806 4666 
L 2950 4666 
L 2950 831 
L 4013 831 
L 4013 0 
L 750 0 
L 750 831 
z
" transform="scale(0.015625)"/>
     <path id="DejaVuSans-Bold-39" d="M 641 103 
L 641 966 
Q 928 831 1190 764 
Q 1453 697 1709 697 
Q 2247 697 2547 995 
Q 2847 1294 2900 1881 
Q 2688 1725 2447 1647 
Q 2206 1569 1925 1569 
Q 1209 1569 770 1986 
Q 331 2403 331 3084 
Q 331 3838 820 4291 
Q 1309 4744 2131 4744 
Q 3044 4744 3544 4128 
Q 4044 3513 4044 2388 
Q 4044 1231 3459 570 
Q 2875 -91 1856 -91 
Q 1528 -91 1228 -42 
Q 928 6 641 103 
z
M 2125 2350 
Q 2441 2350 2600 2554 
Q 2759 2759 2759 3169 
Q 2759 3575 2600 3781 
Q 2441 3988 2125 3988 
Q 1809 3988 1650 3781 
Q 1491 3575 1491 3169 
Q 1491 2759 1650 2554 
Q 1809 2350 2125 2350 
z
" transform="scale(0.015625)"/>
     <path id="DejaVuSans-Bold-36" d="M 2316 2303 
Q 2000 2303 1842 2098 
Q 1684 1894 1684 1484 
Q 1684 1075 1842 870 
Q 2000 666 2316 666 
Q 2634 666 2792 870 
Q 2950 1075 2950 1484 
Q 2950 1894 2792 2098 
Q 2634 2303 2316 2303 
z
M 3803 4544 
L 3803 3681 
Q 3506 3822 3243 3889 
Q 2981 3956 2731 3956 
Q 2194 3956 1894 3657 
Q 1594 3359 1544 2772 
Q 1750 2925 1990 3001 
Q 2231 3078 2516 3078 
Q 3231 3078 3670 2659 
Q 4109 2241 4109 1563 
Q 4109 813 3618 361 
Q 3128 -91 2303 -91 
Q 1394 -91 895 523 
Q 397 1138 397 2266 
Q 397 3422 980 4083 
Q 1563 4744 2578 4744 
Q 2900 4744 3203 4694 
Q 3506 4644 3803 4544 
z
" transform="scale(0.015625)"/>
    </defs>
    <use xlink:href="#DejaVuSans-Bold-4d"/>
    <use xlink:href="#DejaVuSans-Bold-63" transform="translate(99.511719 0)"/>
    <use xlink:href="#DejaVuSans-Bold-45" transform="translate(158.789062 0)"/>
    <use xlink:href="#DejaVuSans-Bold-6c" transform="translate(227.099609 0)"/>
    <use xlink:href="#DejaVuSans-Bold-6e" transform="translate(261.376953 0)"/>
    <use xlink:href="#DejaVuSans-Bold-61" transform="translate(332.568359 0)"/>
    <use xlink:href="#DejaVuSans-Bold-79" transform="translate(396.923828 0)"/>
    <use xlink:href="#DejaVuSans-Bold-31" transform="translate(462.109375 0)"/>
    <use xlink:href="#DejaVuSans-Bold-39" transform="translate(531.689453 0)"/>
    <use xlink:href="#DejaVuSans-Bold-39" transform="translate(601.269531 0)"/>
    <use xlink:href="#DejaVuSans-Bold-36" transform="translate(670.849609 0)"/>
   </g>
  </g>
 </g>
 <defs>
  <clipPath id="p29c6b445b7">
   <rect x="45.164375" y="48.24" width="373.617391" height="316.008"/>
  </clipPath>
  <clipPath id="p3818ea9d00">
   <rect x="530.866984" y="48.24" width="373.617391" height="316.008"/>
  </clipPath>
 </defs>
</svg>
