<?xml version="1.0" encoding="utf-8" standalone="no"?>
<!DOCTYPE svg PUBLIC "-//W3C//DTD SVG 1.1//EN"
  "http://www.w3.org/Graphics/SVG/1.1/DTD/svg11.dtd">
<svg xmlns:xlink="http://www.w3.org/1999/xlink" width="930.9125pt" height="414.385812pt" viewBox="0 0 930.9125 414.385812" xmlns="http://www.w3.org/2000/svg" version="1.1">
 <metadata>
  <rdf:RDF xmlns:dc="http://purl.org/dc/elements/1.1/" xmlns:cc="http://creativecommons.org/ns#" xmlns:rdf="http://www.w3.org/1999/02/22-rdf-syntax-ns#">
   <cc:Work>
    <dc:type rdf:resource="http://purl.org/dc/dcmitype/StillImage"/>
    <dc:date>2025-09-10T13:17:07.437351</dc:date>
    <dc:format>image/svg+xml</dc:format>
    <dc:creator>
     <cc:Agent>
      <dc:title>Matplotlib v3.10.6, https://matplotlib.org/</dc:title>
     </cc:Agent>
    </dc:creator>
   </cc:Work>
  </rdf:RDF>
 </metadata>
 <defs>
  <style type="text/css">*{stroke-linejoin: round; stroke-linecap: butt}</style>
 </defs>
 <g id="figure_1">
  <g id="patch_1">
   <path d="M 0 414.385812 
L 930.9125 414.385812 
L 930.9125 -0 
L 0 -0 
z
" style="fill: #ffffff"/>
  </g>
  <g id="axes_1">
   <g id="patch_2">
    <path d="M 64.3925 364.248 
L 438.009891 364.248 
L 438.009891 48.24 
L 64.3925 48.24 
z
" style="fill: #ffffff"/>
   </g>
   <g id="matplotlib.axis_1">
    <g id="xtick_1">
     <g id="line2d_1">
      <defs>
       <path id="mbd41178958" d="M 0 0 
L 0 3.5 
" style="stroke: #000000; stroke-width: 0.8"/>
      </defs>
      <g>
       <use xlink:href="#mbd41178958" x="81.375109" y="364.248" style="stroke: #000000; stroke-width: 0.8"/>
      </g>
     </g>
     <g id="text_1">
      <!-- 0 -->
      <g transform="translate(76.603234 382.645656) scale(0.15 -0.15)">
       <defs>
        <path id="DejaVuSans-30" d="M 2034 4250 
Q 1547 4250 1301 3770 
Q 1056 3291 1056 2328 
Q 1056 1369 1301 889 
Q 1547 409 2034 409 
Q 2525 409 2770 889 
Q 3016 1369 3016 2328 
Q 3016 3291 2770 3770 
Q 2525 4250 2034 4250 
z
M 2034 4750 
Q 2819 4750 3233 4129 
Q 3647 3509 3647 2328 
Q 3647 1150 3233 529 
Q 2819 -91 2034 -91 
Q 1250 -91 836 529 
Q 422 1150 422 2328 
Q 422 3509 836 4129 
Q 1250 4750 2034 4750 
z
" transform="scale(0.015625)"/>
       </defs>
       <use xlink:href="#DejaVuSans-30"/>
      </g>
     </g>
    </g>
    <g id="xtick_2">
     <g id="line2d_2">
      <g>
       <use xlink:href="#mbd41178958" x="149.305543" y="364.248" style="stroke: #000000; stroke-width: 0.8"/>
      </g>
     </g>
     <g id="text_2">
      <!-- 5 -->
      <g transform="translate(144.533668 382.645656) scale(0.15 -0.15)">
       <defs>
        <path id="DejaVuSans-35" d="M 691 4666 
L 3169 4666 
L 3169 4134 
L 1269 4134 
L 1269 2991 
Q 1406 3038 1543 3061 
Q 1681 3084 1819 3084 
Q 2600 3084 3056 2656 
Q 3513 2228 3513 1497 
Q 3513 744 3044 326 
Q 2575 -91 1722 -91 
Q 1428 -91 1123 -41 
Q 819 9 494 109 
L 494 744 
Q 775 591 1075 516 
Q 1375 441 1709 441 
Q 2250 441 2565 725 
Q 2881 1009 2881 1497 
Q 2881 1984 2565 2268 
Q 2250 2553 1709 2553 
Q 1456 2553 1204 2497 
Q 953 2441 691 2322 
L 691 4666 
z
" transform="scale(0.015625)"/>
       </defs>
       <use xlink:href="#DejaVuSans-35"/>
      </g>
     </g>
    </g>
    <g id="xtick_3">
     <g id="line2d_3">
      <g>
       <use xlink:href="#mbd41178958" x="217.235978" y="364.248" style="stroke: #000000; stroke-width: 0.8"/>
      </g>
     </g>
     <g id="text_3">
      <!-- 10 -->
      <g transform="translate(207.692228 382.645656) scale(0.15 -0.15)">
       <defs>
        <path id="DejaVuSans-31" d="M 794 531 
L 1825 531 
L 1825 4091 
L 703 3866 
L 703 4441 
L 1819 4666 
L 2450 4666 
L 2450 531 
L 3481 531 
L 3481 0 
L 794 0 
L 794 531 
z
" transform="scale(0.015625)"/>
       </defs>
       <use xlink:href="#DejaVuSans-31"/>
       <use xlink:href="#DejaVuSans-30" transform="translate(63.623047 0)"/>
      </g>
     </g>
    </g>
    <g id="xtick_4">
     <g id="line2d_4">
      <g>
       <use xlink:href="#mbd41178958" x="285.166413" y="364.248" style="stroke: #000000; stroke-width: 0.8"/>
      </g>
     </g>
     <g id="text_4">
      <!-- 15 -->
      <g transform="translate(275.622663 382.645656) scale(0.15 -0.15)">
       <use xlink:href="#DejaVuSans-31"/>
       <use xlink:href="#DejaVuSans-35" transform="translate(63.623047 0)"/>
      </g>
     </g>
    </g>
    <g id="xtick_5">
     <g id="line2d_5">
      <g>
       <use xlink:href="#mbd41178958" x="353.096848" y="364.248" style="stroke: #000000; stroke-width: 0.8"/>
      </g>
     </g>
     <g id="text_5">
      <!-- 20 -->
      <g transform="translate(343.553098 382.645656) scale(0.15 -0.15)">
       <defs>
        <path id="DejaVuSans-32" d="M 1228 531 
L 3431 531 
L 3431 0 
L 469 0 
L 469 531 
Q 828 903 1448 1529 
Q 2069 2156 2228 2338 
Q 2531 2678 2651 2914 
Q 2772 3150 2772 3378 
Q 2772 3750 2511 3984 
Q 2250 4219 1831 4219 
Q 1534 4219 1204 4116 
Q 875 4013 500 3803 
L 500 4441 
Q 881 4594 1212 4672 
Q 1544 4750 1819 4750 
Q 2544 4750 2975 4387 
Q 3406 4025 3406 3419 
Q 3406 3131 3298 2873 
Q 3191 2616 2906 2266 
Q 2828 2175 2409 1742 
Q 1991 1309 1228 531 
z
" transform="scale(0.015625)"/>
       </defs>
       <use xlink:href="#DejaVuSans-32"/>
       <use xlink:href="#DejaVuSans-30" transform="translate(63.623047 0)"/>
      </g>
     </g>
    </g>
    <g id="xtick_6">
     <g id="line2d_6">
      <g>
       <use xlink:href="#mbd41178958" x="421.027283" y="364.248" style="stroke: #000000; stroke-width: 0.8"/>
      </g>
     </g>
     <g id="text_6">
      <!-- 25 -->
      <g transform="translate(411.483533 382.645656) scale(0.15 -0.15)">
       <use xlink:href="#DejaVuSans-32"/>
       <use xlink:href="#DejaVuSans-35" transform="translate(63.623047 0)"/>
      </g>
     </g>
    </g>
    <g id="text_7">
     <!-- time [hr] -->
     <g transform="translate(206.126664 403.442375) scale(0.18 -0.18)">
      <defs>
       <path id="DejaVuSans-Bold-74" d="M 1759 4494 
L 1759 3500 
L 2913 3500 
L 2913 2700 
L 1759 2700 
L 1759 1216 
Q 1759 972 1856 886 
Q 1953 800 2241 800 
L 2816 800 
L 2816 0 
L 1856 0 
Q 1194 0 917 276 
Q 641 553 641 1216 
L 641 2700 
L 84 2700 
L 84 3500 
L 641 3500 
L 641 4494 
L 1759 4494 
z
" transform="scale(0.015625)"/>
       <path id="DejaVuSans-Bold-69" d="M 538 3500 
L 1656 3500 
L 1656 0 
L 538 0 
L 538 3500 
z
M 538 4863 
L 1656 4863 
L 1656 3950 
L 538 3950 
L 538 4863 
z
" transform="scale(0.015625)"/>
       <path id="DejaVuSans-Bold-6d" d="M 3781 2919 
Q 3994 3244 4286 3414 
Q 4578 3584 4928 3584 
Q 5531 3584 5847 3212 
Q 6163 2841 6163 2131 
L 6163 0 
L 5038 0 
L 5038 1825 
Q 5041 1866 5042 1909 
Q 5044 1953 5044 2034 
Q 5044 2406 4934 2573 
Q 4825 2741 4581 2741 
Q 4263 2741 4089 2478 
Q 3916 2216 3909 1719 
L 3909 0 
L 2784 0 
L 2784 1825 
Q 2784 2406 2684 2573 
Q 2584 2741 2328 2741 
Q 2006 2741 1831 2477 
Q 1656 2213 1656 1722 
L 1656 0 
L 531 0 
L 531 3500 
L 1656 3500 
L 1656 2988 
Q 1863 3284 2130 3434 
Q 2397 3584 2719 3584 
Q 3081 3584 3359 3409 
Q 3638 3234 3781 2919 
z
" transform="scale(0.015625)"/>
       <path id="DejaVuSans-Bold-65" d="M 4031 1759 
L 4031 1441 
L 1416 1441 
Q 1456 1047 1700 850 
Q 1944 653 2381 653 
Q 2734 653 3104 758 
Q 3475 863 3866 1075 
L 3866 213 
Q 3469 63 3072 -14 
Q 2675 -91 2278 -91 
Q 1328 -91 801 392 
Q 275 875 275 1747 
Q 275 2603 792 3093 
Q 1309 3584 2216 3584 
Q 3041 3584 3536 3087 
Q 4031 2591 4031 1759 
z
M 2881 2131 
Q 2881 2450 2695 2645 
Q 2509 2841 2209 2841 
Q 1884 2841 1681 2658 
Q 1478 2475 1428 2131 
L 2881 2131 
z
" transform="scale(0.015625)"/>
       <path id="DejaVuSans-Bold-20" transform="scale(0.015625)"/>
       <path id="DejaVuSans-Bold-5b" d="M 550 4863 
L 2491 4863 
L 2491 4159 
L 1613 4159 
L 1613 -141 
L 2491 -141 
L 2491 -844 
L 550 -844 
L 550 4863 
z
" transform="scale(0.015625)"/>
       <path id="DejaVuSans-Bold-68" d="M 4056 2131 
L 4056 0 
L 2931 0 
L 2931 347 
L 2931 1625 
Q 2931 2084 2911 2256 
Q 2891 2428 2841 2509 
Q 2775 2619 2662 2680 
Q 2550 2741 2406 2741 
Q 2056 2741 1856 2470 
Q 1656 2200 1656 1722 
L 1656 0 
L 538 0 
L 538 4863 
L 1656 4863 
L 1656 2988 
Q 1909 3294 2193 3439 
Q 2478 3584 2822 3584 
Q 3428 3584 3742 3212 
Q 4056 2841 4056 2131 
z
" transform="scale(0.015625)"/>
       <path id="DejaVuSans-Bold-72" d="M 3138 2547 
Q 2991 2616 2845 2648 
Q 2700 2681 2553 2681 
Q 2122 2681 1889 2404 
Q 1656 2128 1656 1613 
L 1656 0 
L 538 0 
L 538 3500 
L 1656 3500 
L 1656 2925 
Q 1872 3269 2151 3426 
Q 2431 3584 2822 3584 
Q 2878 3584 2943 3579 
Q 3009 3575 3134 3559 
L 3138 2547 
z
" transform="scale(0.015625)"/>
       <path id="DejaVuSans-Bold-5d" d="M 2375 -844 
L 434 -844 
L 434 -141 
L 1313 -141 
L 1313 4159 
L 434 4159 
L 434 4863 
L 2375 4863 
L 2375 -844 
z
" transform="scale(0.015625)"/>
      </defs>
      <use xlink:href="#DejaVuSans-Bold-74"/>
      <use xlink:href="#DejaVuSans-Bold-69" transform="translate(47.802734 0)"/>
      <use xlink:href="#DejaVuSans-Bold-6d" transform="translate(82.080078 0)"/>
      <use xlink:href="#DejaVuSans-Bold-65" transform="translate(186.279297 0)"/>
      <use xlink:href="#DejaVuSans-Bold-20" transform="translate(254.101562 0)"/>
      <use xlink:href="#DejaVuSans-Bold-5b" transform="translate(288.916016 0)"/>
      <use xlink:href="#DejaVuSans-Bold-68" transform="translate(334.619141 0)"/>
      <use xlink:href="#DejaVuSans-Bold-72" transform="translate(405.810547 0)"/>
      <use xlink:href="#DejaVuSans-Bold-5d" transform="translate(455.126953 0)"/>
     </g>
    </g>
   </g>
   <g id="matplotlib.axis_2">
    <g id="ytick_1">
     <g id="line2d_7">
      <defs>
       <path id="m42c2b0f4f8" d="M 0 0 
L -3.5 0 
" style="stroke: #000000; stroke-width: 0.8"/>
      </defs>
      <g>
       <use xlink:href="#m42c2b0f4f8" x="64.3925" y="320.544269" style="stroke: #000000; stroke-width: 0.8"/>
      </g>
     </g>
     <g id="text_8">
      <!-- 60 -->
      <g transform="translate(38.305 326.243097) scale(0.15 -0.15)">
       <defs>
        <path id="DejaVuSans-36" d="M 2113 2584 
Q 1688 2584 1439 2293 
Q 1191 2003 1191 1497 
Q 1191 994 1439 701 
Q 1688 409 2113 409 
Q 2538 409 2786 701 
Q 3034 994 3034 1497 
Q 3034 2003 2786 2293 
Q 2538 2584 2113 2584 
z
M 3366 4563 
L 3366 3988 
Q 3128 4100 2886 4159 
Q 2644 4219 2406 4219 
Q 1781 4219 1451 3797 
Q 1122 3375 1075 2522 
Q 1259 2794 1537 2939 
Q 1816 3084 2150 3084 
Q 2853 3084 3261 2657 
Q 3669 2231 3669 1497 
Q 3669 778 3244 343 
Q 2819 -91 2113 -91 
Q 1303 -91 875 529 
Q 447 1150 447 2328 
Q 447 3434 972 4092 
Q 1497 4750 2381 4750 
Q 2619 4750 2861 4703 
Q 3103 4656 3366 4563 
z
" transform="scale(0.015625)"/>
       </defs>
       <use xlink:href="#DejaVuSans-36"/>
       <use xlink:href="#DejaVuSans-30" transform="translate(63.623047 0)"/>
      </g>
     </g>
    </g>
    <g id="ytick_2">
     <g id="line2d_8">
      <g>
       <use xlink:href="#m42c2b0f4f8" x="64.3925" y="268.367945" style="stroke: #000000; stroke-width: 0.8"/>
      </g>
     </g>
     <g id="text_9">
      <!-- 80 -->
      <g transform="translate(38.305 274.066773) scale(0.15 -0.15)">
       <defs>
        <path id="DejaVuSans-38" d="M 2034 2216 
Q 1584 2216 1326 1975 
Q 1069 1734 1069 1313 
Q 1069 891 1326 650 
Q 1584 409 2034 409 
Q 2484 409 2743 651 
Q 3003 894 3003 1313 
Q 3003 1734 2745 1975 
Q 2488 2216 2034 2216 
z
M 1403 2484 
Q 997 2584 770 2862 
Q 544 3141 544 3541 
Q 544 4100 942 4425 
Q 1341 4750 2034 4750 
Q 2731 4750 3128 4425 
Q 3525 4100 3525 3541 
Q 3525 3141 3298 2862 
Q 3072 2584 2669 2484 
Q 3125 2378 3379 2068 
Q 3634 1759 3634 1313 
Q 3634 634 3220 271 
Q 2806 -91 2034 -91 
Q 1263 -91 848 271 
Q 434 634 434 1313 
Q 434 1759 690 2068 
Q 947 2378 1403 2484 
z
M 1172 3481 
Q 1172 3119 1398 2916 
Q 1625 2713 2034 2713 
Q 2441 2713 2670 2916 
Q 2900 3119 2900 3481 
Q 2900 3844 2670 4047 
Q 2441 4250 2034 4250 
Q 1625 4250 1398 4047 
Q 1172 3844 1172 3481 
z
" transform="scale(0.015625)"/>
       </defs>
       <use xlink:href="#DejaVuSans-38"/>
       <use xlink:href="#DejaVuSans-30" transform="translate(63.623047 0)"/>
      </g>
     </g>
    </g>
    <g id="ytick_3">
     <g id="line2d_9">
      <g>
       <use xlink:href="#m42c2b0f4f8" x="64.3925" y="216.19162" style="stroke: #000000; stroke-width: 0.8"/>
      </g>
     </g>
     <g id="text_10">
      <!-- 100 -->
      <g transform="translate(28.76125 221.890448) scale(0.15 -0.15)">
       <use xlink:href="#DejaVuSans-31"/>
       <use xlink:href="#DejaVuSans-30" transform="translate(63.623047 0)"/>
       <use xlink:href="#DejaVuSans-30" transform="translate(127.246094 0)"/>
      </g>
     </g>
    </g>
    <g id="ytick_4">
     <g id="line2d_10">
      <g>
       <use xlink:href="#m42c2b0f4f8" x="64.3925" y="164.015295" style="stroke: #000000; stroke-width: 0.8"/>
      </g>
     </g>
     <g id="text_11">
      <!-- 120 -->
      <g transform="translate(28.76125 169.714123) scale(0.15 -0.15)">
       <use xlink:href="#DejaVuSans-31"/>
       <use xlink:href="#DejaVuSans-32" transform="translate(63.623047 0)"/>
       <use xlink:href="#DejaVuSans-30" transform="translate(127.246094 0)"/>
      </g>
     </g>
    </g>
    <g id="ytick_5">
     <g id="line2d_11">
      <g>
       <use xlink:href="#m42c2b0f4f8" x="64.3925" y="111.838971" style="stroke: #000000; stroke-width: 0.8"/>
      </g>
     </g>
     <g id="text_12">
      <!-- 140 -->
      <g transform="translate(28.76125 117.537799) scale(0.15 -0.15)">
       <defs>
        <path id="DejaVuSans-34" d="M 2419 4116 
L 825 1625 
L 2419 1625 
L 2419 4116 
z
M 2253 4666 
L 3047 4666 
L 3047 1625 
L 3713 1625 
L 3713 1100 
L 3047 1100 
L 3047 0 
L 2419 0 
L 2419 1100 
L 313 1100 
L 313 1709 
L 2253 4666 
z
" transform="scale(0.015625)"/>
       </defs>
       <use xlink:href="#DejaVuSans-31"/>
       <use xlink:href="#DejaVuSans-34" transform="translate(63.623047 0)"/>
       <use xlink:href="#DejaVuSans-30" transform="translate(127.246094 0)"/>
      </g>
     </g>
    </g>
    <g id="ytick_6">
     <g id="line2d_12">
      <g>
       <use xlink:href="#m42c2b0f4f8" x="64.3925" y="59.662646" style="stroke: #000000; stroke-width: 0.8"/>
      </g>
     </g>
     <g id="text_13">
      <!-- 160 -->
      <g transform="translate(28.76125 65.361474) scale(0.15 -0.15)">
       <use xlink:href="#DejaVuSans-31"/>
       <use xlink:href="#DejaVuSans-36" transform="translate(63.623047 0)"/>
       <use xlink:href="#DejaVuSans-30" transform="translate(127.246094 0)"/>
      </g>
     </g>
    </g>
    <g id="text_14">
     <!-- SBP [mmHg] -->
     <g transform="translate(20.877188 270.271969) rotate(-90) scale(0.18 -0.18)">
      <defs>
       <path id="DejaVuSans-Bold-53" d="M 3834 4519 
L 3834 3531 
Q 3450 3703 3084 3790 
Q 2719 3878 2394 3878 
Q 1963 3878 1756 3759 
Q 1550 3641 1550 3391 
Q 1550 3203 1689 3098 
Q 1828 2994 2194 2919 
L 2706 2816 
Q 3484 2659 3812 2340 
Q 4141 2022 4141 1434 
Q 4141 663 3683 286 
Q 3225 -91 2284 -91 
Q 1841 -91 1394 -6 
Q 947 78 500 244 
L 500 1259 
Q 947 1022 1364 901 
Q 1781 781 2169 781 
Q 2563 781 2772 912 
Q 2981 1044 2981 1288 
Q 2981 1506 2839 1625 
Q 2697 1744 2272 1838 
L 1806 1941 
Q 1106 2091 782 2419 
Q 459 2747 459 3303 
Q 459 4000 909 4375 
Q 1359 4750 2203 4750 
Q 2588 4750 2994 4692 
Q 3400 4634 3834 4519 
z
" transform="scale(0.015625)"/>
       <path id="DejaVuSans-Bold-42" d="M 2456 2859 
Q 2741 2859 2887 2984 
Q 3034 3109 3034 3353 
Q 3034 3594 2887 3720 
Q 2741 3847 2456 3847 
L 1791 3847 
L 1791 2859 
L 2456 2859 
z
M 2497 819 
Q 2859 819 3042 972 
Q 3225 1125 3225 1434 
Q 3225 1738 3044 1889 
Q 2863 2041 2497 2041 
L 1791 2041 
L 1791 819 
L 2497 819 
z
M 3616 2497 
Q 4003 2384 4215 2081 
Q 4428 1778 4428 1338 
Q 4428 663 3972 331 
Q 3516 0 2584 0 
L 588 0 
L 588 4666 
L 2394 4666 
Q 3366 4666 3802 4372 
Q 4238 4078 4238 3431 
Q 4238 3091 4078 2852 
Q 3919 2613 3616 2497 
z
" transform="scale(0.015625)"/>
       <path id="DejaVuSans-Bold-50" d="M 588 4666 
L 2584 4666 
Q 3475 4666 3951 4270 
Q 4428 3875 4428 3144 
Q 4428 2409 3951 2014 
Q 3475 1619 2584 1619 
L 1791 1619 
L 1791 0 
L 588 0 
L 588 4666 
z
M 1791 3794 
L 1791 2491 
L 2456 2491 
Q 2806 2491 2997 2661 
Q 3188 2831 3188 3144 
Q 3188 3456 2997 3625 
Q 2806 3794 2456 3794 
L 1791 3794 
z
" transform="scale(0.015625)"/>
       <path id="DejaVuSans-Bold-48" d="M 588 4666 
L 1791 4666 
L 1791 2888 
L 3566 2888 
L 3566 4666 
L 4769 4666 
L 4769 0 
L 3566 0 
L 3566 1978 
L 1791 1978 
L 1791 0 
L 588 0 
L 588 4666 
z
" transform="scale(0.015625)"/>
       <path id="DejaVuSans-Bold-67" d="M 2919 594 
Q 2688 288 2409 144 
Q 2131 0 1766 0 
Q 1125 0 706 504 
Q 288 1009 288 1791 
Q 288 2575 706 3076 
Q 1125 3578 1766 3578 
Q 2131 3578 2409 3434 
Q 2688 3291 2919 2981 
L 2919 3500 
L 4044 3500 
L 4044 353 
Q 4044 -491 3511 -936 
Q 2978 -1381 1966 -1381 
Q 1638 -1381 1331 -1331 
Q 1025 -1281 716 -1178 
L 716 -306 
Q 1009 -475 1290 -558 
Q 1572 -641 1856 -641 
Q 2406 -641 2662 -400 
Q 2919 -159 2919 353 
L 2919 594 
z
M 2181 2772 
Q 1834 2772 1640 2515 
Q 1447 2259 1447 1791 
Q 1447 1309 1634 1061 
Q 1822 813 2181 813 
Q 2531 813 2725 1069 
Q 2919 1325 2919 1791 
Q 2919 2259 2725 2515 
Q 2531 2772 2181 2772 
z
" transform="scale(0.015625)"/>
      </defs>
      <use xlink:href="#DejaVuSans-Bold-53"/>
      <use xlink:href="#DejaVuSans-Bold-42" transform="translate(72.021484 0)"/>
      <use xlink:href="#DejaVuSans-Bold-50" transform="translate(148.242188 0)"/>
      <use xlink:href="#DejaVuSans-Bold-20" transform="translate(221.533203 0)"/>
      <use xlink:href="#DejaVuSans-Bold-5b" transform="translate(256.347656 0)"/>
      <use xlink:href="#DejaVuSans-Bold-6d" transform="translate(302.050781 0)"/>
      <use xlink:href="#DejaVuSans-Bold-6d" transform="translate(406.25 0)"/>
      <use xlink:href="#DejaVuSans-Bold-48" transform="translate(510.449219 0)"/>
      <use xlink:href="#DejaVuSans-Bold-67" transform="translate(594.140625 0)"/>
      <use xlink:href="#DejaVuSans-Bold-5d" transform="translate(665.722656 0)"/>
     </g>
    </g>
   </g>
   <g id="LineCollection_1">
    <path d="M 81.375109 275.819792 
L 81.375109 88.828996 
" clip-path="url(#p585ceb736c)" style="fill: none; stroke: #d62728"/>
    <path d="M 88.168152 292.594345 
L 88.168152 134.602853 
" clip-path="url(#p585ceb736c)" style="fill: none; stroke: #d62728"/>
    <path d="M 94.961196 286.669782 
L 94.961196 128.404712 
" clip-path="url(#p585ceb736c)" style="fill: none; stroke: #d62728"/>
    <path d="M 101.754239 255.980256 
L 101.754239 155.303426 
" clip-path="url(#p585ceb736c)" style="fill: none; stroke: #d62728"/>
    <path d="M 108.547283 276.67172 
L 108.547283 147.405954 
" clip-path="url(#p585ceb736c)" style="fill: none; stroke: #d62728"/>
    <path d="M 122.13337 349.884 
L 122.13337 91.489257 
" clip-path="url(#p585ceb736c)" style="fill: none; stroke: #d62728"/>
    <path d="M 135.719457 259.67903 
L 135.719457 145.049705 
" clip-path="url(#p585ceb736c)" style="fill: none; stroke: #d62728"/>
    <path d="M 162.89163 324.089468 
L 162.89163 94.420451 
" clip-path="url(#p585ceb736c)" style="fill: none; stroke: #d62728"/>
    <path d="M 190.063804 284.883676 
L 190.063804 126.755395 
" clip-path="url(#p585ceb736c)" style="fill: none; stroke: #d62728"/>
    <path d="M 407.441196 280.920432 
L 407.441196 108.566077 
" clip-path="url(#p585ceb736c)" style="fill: none; stroke: #d62728"/>
   </g>
   <g id="LineCollection_2">
    <path d="M 81.375109 233.49584 
L 81.375109 89.730422 
" clip-path="url(#p585ceb736c)" style="fill: none; stroke: #1f77b4"/>
    <path d="M 88.168152 254.228264 
L 88.168152 110.736425 
" clip-path="url(#p585ceb736c)" style="fill: none; stroke: #1f77b4"/>
    <path d="M 94.961196 254.562492 
L 94.961196 110.797074 
" clip-path="url(#p585ceb736c)" style="fill: none; stroke: #1f77b4"/>
    <path d="M 101.754239 284.428041 
L 101.754239 68.848309 
" clip-path="url(#p585ceb736c)" style="fill: none; stroke: #1f77b4"/>
    <path d="M 108.547283 277.485008 
L 108.547283 105.130653 
" clip-path="url(#p585ceb736c)" style="fill: none; stroke: #1f77b4"/>
    <path d="M 122.13337 281.830065 
L 122.13337 109.749289 
" clip-path="url(#p585ceb736c)" style="fill: none; stroke: #1f77b4"/>
    <path d="M 135.719457 292.409806 
L 135.719457 62.604 
" clip-path="url(#p585ceb736c)" style="fill: none; stroke: #1f77b4"/>
    <path d="M 162.89163 278.786627 
L 162.89163 77.569758 
" clip-path="url(#p585ceb736c)" style="fill: none; stroke: #1f77b4"/>
    <path d="M 190.063804 267.119504 
L 190.063804 94.76515 
" clip-path="url(#p585ceb736c)" style="fill: none; stroke: #1f77b4"/>
    <path d="M 407.441196 220.136066 
L 407.441196 119.596026 
" clip-path="url(#p585ceb736c)" style="fill: none; stroke: #1f77b4"/>
   </g>
   <g id="line2d_13">
    <path d="M 81.375109 164.015295 
L 82.224239 169.155655 
L 83.9225 184.465739 
L 85.620761 197.390408 
L 87.319022 208.072312 
L 89.017283 216.861164 
L 90.715543 224.050314 
L 92.413804 229.878062 
L 94.112065 234.533789 
L 95.810326 238.164154 
L 97.508587 240.87918 
L 98.357717 241.919398 
L 99.206848 242.758811 
L 100.055978 243.403966 
L 100.905109 243.860556 
L 101.754239 244.133705 
L 102.60337 244.228242 
L 103.4525 244.148951 
L 104.30163 243.900757 
L 105.150761 243.488862 
L 105.999891 242.918819 
L 106.849022 242.196539 
L 108.547283 240.320495 
L 110.245543 237.913387 
L 111.943804 235.029706 
L 113.642065 231.723773 
L 116.189457 226.08854 
L 118.736848 219.793334 
L 122.13337 210.654311 
L 127.228152 196.091624 
L 133.172065 179.165489 
L 136.568587 170.091007 
L 139.965109 161.731518 
L 142.5125 156.024808 
L 145.059891 150.847876 
L 147.607283 146.223074 
L 150.154674 142.156192 
L 152.702065 138.638966 
L 155.249457 135.651801 
L 156.947717 133.941183 
L 158.645978 132.443785 
L 160.344239 131.148764 
L 162.0425 130.044662 
L 163.740761 129.119646 
L 166.288152 128.041667 
L 168.835543 127.299373 
L 171.382935 126.853604 
L 173.930326 126.66709 
L 176.477717 126.704967 
L 179.025109 126.935082 
L 182.42163 127.49073 
L 185.818152 128.274896 
L 190.063804 129.496846 
L 195.158587 131.207291 
L 202.800761 134.042398 
L 219.78337 140.430388 
L 228.274674 143.338239 
L 235.916848 145.709659 
L 243.559022 147.833357 
L 251.201196 149.71139 
L 258.84337 151.355406 
L 266.485543 152.782515 
L 274.976848 154.137974 
L 284.317283 155.382027 
L 293.657717 156.403433 
L 303.847283 157.304506 
L 315.735109 158.126676 
L 329.321196 158.830536 
L 345.454674 159.425905 
L 364.984674 159.908043 
L 390.458587 160.297299 
L 421.027283 160.574697 
L 421.027283 160.574697 
" clip-path="url(#p585ceb736c)" style="fill: none; stroke: #1f77b4; stroke-width: 2; stroke-linecap: square"/>
   </g>
   <g id="line2d_14">
    <path d="M 81.375109 184.885825 
L 82.224239 189.69154 
L 83.9225 203.974993 
L 85.620761 216.033235 
L 87.319022 225.998544 
L 89.017283 234.196713 
L 90.715543 240.901066 
L 92.413804 246.33357 
L 94.112065 250.670526 
L 95.810326 254.048354 
L 97.508587 256.569314 
L 98.357717 257.532591 
L 99.206848 258.307708 
L 100.055978 258.900772 
L 100.905109 259.31711 
L 101.754239 259.56154 
L 102.60337 259.638628 
L 103.4525 259.552912 
L 104.30163 259.309081 
L 105.150761 258.912096 
L 105.999891 258.367249 
L 107.698152 256.856806 
L 109.396413 254.826118 
L 111.094674 252.326315 
L 112.792935 249.409157 
L 114.491196 246.125532 
L 117.038587 240.620328 
L 119.585978 234.560308 
L 122.9825 225.878735 
L 135.719457 192.492656 
L 139.115978 184.598648 
L 141.66337 179.188335 
L 144.210761 174.263658 
L 146.758152 169.848914 
L 149.305543 165.952512 
L 151.852935 162.569246 
L 154.400326 159.682825 
L 156.947717 157.268429 
L 159.495109 155.29513 
L 162.0425 153.728043 
L 164.589891 152.53017 
L 167.137283 151.663894 
L 169.684674 151.092146 
L 172.232065 150.779272 
L 174.779457 150.691634 
L 177.326848 150.797994 
L 180.72337 151.192491 
L 184.119891 151.820855 
L 188.365543 152.856507 
L 193.460326 154.356521 
L 200.25337 156.610161 
L 223.179891 164.405575 
L 230.822065 166.706954 
L 238.464239 168.787686 
L 246.106413 170.641495 
L 253.748587 172.274202 
L 262.239891 173.844926 
L 270.731196 175.182053 
L 280.07163 176.413817 
L 290.261196 177.511222 
L 301.299891 178.457688 
L 313.187717 179.248878 
L 326.773804 179.927683 
L 342.907283 180.503114 
L 362.437283 180.970081 
L 387.911196 181.347707 
L 421.027283 181.634047 
L 421.027283 181.634047 
" clip-path="url(#p585ceb736c)" style="fill: none; stroke: #d62728; stroke-width: 2; stroke-linecap: square"/>
   </g>
   <g id="line2d_15">
    <path d="M 81.375109 182.324394 
L 88.168152 213.598599 
L 94.961196 207.537247 
L 101.754239 205.641841 
L 108.547283 212.038837 
L 122.13337 220.686629 
L 135.719457 202.364367 
L 162.89163 209.254959 
L 190.063804 205.819535 
L 407.441196 194.743254 
" clip-path="url(#p585ceb736c)" style="fill: none; stroke-dasharray: 3.7,1.6; stroke-dashoffset: 0; stroke: #d62728"/>
    <defs>
     <path id="me168ecaa8f" d="M -3 3 
L 3 3 
L 3 -3 
L -3 -3 
z
" style="stroke: #000000; stroke-linejoin: miter"/>
    </defs>
    <g clip-path="url(#p585ceb736c)">
     <use xlink:href="#me168ecaa8f" x="81.375109" y="182.324394" style="fill: #d62728; stroke: #000000; stroke-linejoin: miter"/>
     <use xlink:href="#me168ecaa8f" x="88.168152" y="213.598599" style="fill: #d62728; stroke: #000000; stroke-linejoin: miter"/>
     <use xlink:href="#me168ecaa8f" x="94.961196" y="207.537247" style="fill: #d62728; stroke: #000000; stroke-linejoin: miter"/>
     <use xlink:href="#me168ecaa8f" x="101.754239" y="205.641841" style="fill: #d62728; stroke: #000000; stroke-linejoin: miter"/>
     <use xlink:href="#me168ecaa8f" x="108.547283" y="212.038837" style="fill: #d62728; stroke: #000000; stroke-linejoin: miter"/>
     <use xlink:href="#me168ecaa8f" x="122.13337" y="220.686629" style="fill: #d62728; stroke: #000000; stroke-linejoin: miter"/>
     <use xlink:href="#me168ecaa8f" x="135.719457" y="202.364367" style="fill: #d62728; stroke: #000000; stroke-linejoin: miter"/>
     <use xlink:href="#me168ecaa8f" x="162.89163" y="209.254959" style="fill: #d62728; stroke: #000000; stroke-linejoin: miter"/>
     <use xlink:href="#me168ecaa8f" x="190.063804" y="205.819535" style="fill: #d62728; stroke: #000000; stroke-linejoin: miter"/>
     <use xlink:href="#me168ecaa8f" x="407.441196" y="194.743254" style="fill: #d62728; stroke: #000000; stroke-linejoin: miter"/>
    </g>
   </g>
   <g id="line2d_16">
    <path d="M 81.375109 161.613131 
L 88.168152 182.482345 
L 94.961196 182.679783 
L 101.754239 176.638175 
L 108.547283 191.30783 
L 122.13337 195.789677 
L 135.719457 177.506903 
L 162.89163 178.178193 
L 190.063804 180.942327 
L 407.441196 169.866046 
" clip-path="url(#p585ceb736c)" style="fill: none; stroke-dasharray: 3.7,1.6; stroke-dashoffset: 0; stroke: #1f77b4"/>
    <defs>
     <path id="m1cf7a91c60" d="M -3 3 
L 3 3 
L 3 -3 
L -3 -3 
z
" style="stroke: #000000; stroke-linejoin: miter"/>
    </defs>
    <g clip-path="url(#p585ceb736c)">
     <use xlink:href="#m1cf7a91c60" x="81.375109" y="161.613131" style="fill: #1f77b4; stroke: #000000; stroke-linejoin: miter"/>
     <use xlink:href="#m1cf7a91c60" x="88.168152" y="182.482345" style="fill: #1f77b4; stroke: #000000; stroke-linejoin: miter"/>
     <use xlink:href="#m1cf7a91c60" x="94.961196" y="182.679783" style="fill: #1f77b4; stroke: #000000; stroke-linejoin: miter"/>
     <use xlink:href="#m1cf7a91c60" x="101.754239" y="176.638175" style="fill: #1f77b4; stroke: #000000; stroke-linejoin: miter"/>
     <use xlink:href="#m1cf7a91c60" x="108.547283" y="191.30783" style="fill: #1f77b4; stroke: #000000; stroke-linejoin: miter"/>
     <use xlink:href="#m1cf7a91c60" x="122.13337" y="195.789677" style="fill: #1f77b4; stroke: #000000; stroke-linejoin: miter"/>
     <use xlink:href="#m1cf7a91c60" x="135.719457" y="177.506903" style="fill: #1f77b4; stroke: #000000; stroke-linejoin: miter"/>
     <use xlink:href="#m1cf7a91c60" x="162.89163" y="178.178193" style="fill: #1f77b4; stroke: #000000; stroke-linejoin: miter"/>
     <use xlink:href="#m1cf7a91c60" x="190.063804" y="180.942327" style="fill: #1f77b4; stroke: #000000; stroke-linejoin: miter"/>
     <use xlink:href="#m1cf7a91c60" x="407.441196" y="169.866046" style="fill: #1f77b4; stroke: #000000; stroke-linejoin: miter"/>
    </g>
   </g>
   <g id="patch_3">
    <path d="M 64.3925 364.248 
L 64.3925 48.24 
" style="fill: none; stroke: #000000; stroke-width: 0.8; stroke-linejoin: miter; stroke-linecap: square"/>
   </g>
   <g id="patch_4">
    <path d="M 438.009891 364.248 
L 438.009891 48.24 
" style="fill: none; stroke: #000000; stroke-width: 0.8; stroke-linejoin: miter; stroke-linecap: square"/>
   </g>
   <g id="patch_5">
    <path d="M 64.3925 364.248 
L 438.009891 364.248 
" style="fill: none; stroke: #000000; stroke-width: 0.8; stroke-linejoin: miter; stroke-linecap: square"/>
   </g>
   <g id="patch_6">
    <path d="M 64.3925 48.24 
L 438.009891 48.24 
" style="fill: none; stroke: #000000; stroke-width: 0.8; stroke-linejoin: miter; stroke-linecap: square"/>
   </g>
   <g id="legend_1">
    <g id="patch_7">
     <path d="M 218.248954 114.9525 
L 431.009891 114.9525 
Q 433.009891 114.9525 433.009891 112.9525 
L 433.009891 55.24 
Q 433.009891 53.24 431.009891 53.24 
L 218.248954 53.24 
Q 216.248954 53.24 216.248954 55.24 
L 216.248954 112.9525 
Q 216.248954 114.9525 218.248954 114.9525 
z
" style="fill: #ffffff; opacity: 0.8; stroke: #cccccc; stroke-linejoin: miter"/>
    </g>
    <g id="line2d_17">
     <path d="M 220.248954 61.338437 
L 240.248954 61.338437 
" style="fill: none; stroke: #1f77b4; stroke-width: 2; stroke-linecap: square"/>
    </g>
    <g id="line2d_18"/>
    <g id="text_15">
     <!-- sim: 100mg PO -->
     <g transform="translate(248.248954 64.838437) scale(0.1 -0.1)">
      <defs>
       <path id="DejaVuSans-73" d="M 2834 3397 
L 2834 2853 
Q 2591 2978 2328 3040 
Q 2066 3103 1784 3103 
Q 1356 3103 1142 2972 
Q 928 2841 928 2578 
Q 928 2378 1081 2264 
Q 1234 2150 1697 2047 
L 1894 2003 
Q 2506 1872 2764 1633 
Q 3022 1394 3022 966 
Q 3022 478 2636 193 
Q 2250 -91 1575 -91 
Q 1294 -91 989 -36 
Q 684 19 347 128 
L 347 722 
Q 666 556 975 473 
Q 1284 391 1588 391 
Q 1994 391 2212 530 
Q 2431 669 2431 922 
Q 2431 1156 2273 1281 
Q 2116 1406 1581 1522 
L 1381 1569 
Q 847 1681 609 1914 
Q 372 2147 372 2553 
Q 372 3047 722 3315 
Q 1072 3584 1716 3584 
Q 2034 3584 2315 3537 
Q 2597 3491 2834 3397 
z
" transform="scale(0.015625)"/>
       <path id="DejaVuSans-69" d="M 603 3500 
L 1178 3500 
L 1178 0 
L 603 0 
L 603 3500 
z
M 603 4863 
L 1178 4863 
L 1178 4134 
L 603 4134 
L 603 4863 
z
" transform="scale(0.015625)"/>
       <path id="DejaVuSans-6d" d="M 3328 2828 
Q 3544 3216 3844 3400 
Q 4144 3584 4550 3584 
Q 5097 3584 5394 3201 
Q 5691 2819 5691 2113 
L 5691 0 
L 5113 0 
L 5113 2094 
Q 5113 2597 4934 2840 
Q 4756 3084 4391 3084 
Q 3944 3084 3684 2787 
Q 3425 2491 3425 1978 
L 3425 0 
L 2847 0 
L 2847 2094 
Q 2847 2600 2669 2842 
Q 2491 3084 2119 3084 
Q 1678 3084 1418 2786 
Q 1159 2488 1159 1978 
L 1159 0 
L 581 0 
L 581 3500 
L 1159 3500 
L 1159 2956 
Q 1356 3278 1631 3431 
Q 1906 3584 2284 3584 
Q 2666 3584 2933 3390 
Q 3200 3197 3328 2828 
z
" transform="scale(0.015625)"/>
       <path id="DejaVuSans-3a" d="M 750 794 
L 1409 794 
L 1409 0 
L 750 0 
L 750 794 
z
M 750 3309 
L 1409 3309 
L 1409 2516 
L 750 2516 
L 750 3309 
z
" transform="scale(0.015625)"/>
       <path id="DejaVuSans-20" transform="scale(0.015625)"/>
       <path id="DejaVuSans-67" d="M 2906 1791 
Q 2906 2416 2648 2759 
Q 2391 3103 1925 3103 
Q 1463 3103 1205 2759 
Q 947 2416 947 1791 
Q 947 1169 1205 825 
Q 1463 481 1925 481 
Q 2391 481 2648 825 
Q 2906 1169 2906 1791 
z
M 3481 434 
Q 3481 -459 3084 -895 
Q 2688 -1331 1869 -1331 
Q 1566 -1331 1297 -1286 
Q 1028 -1241 775 -1147 
L 775 -588 
Q 1028 -725 1275 -790 
Q 1522 -856 1778 -856 
Q 2344 -856 2625 -561 
Q 2906 -266 2906 331 
L 2906 616 
Q 2728 306 2450 153 
Q 2172 0 1784 0 
Q 1141 0 747 490 
Q 353 981 353 1791 
Q 353 2603 747 3093 
Q 1141 3584 1784 3584 
Q 2172 3584 2450 3431 
Q 2728 3278 2906 2969 
L 2906 3500 
L 3481 3500 
L 3481 434 
z
" transform="scale(0.015625)"/>
       <path id="DejaVuSans-50" d="M 1259 4147 
L 1259 2394 
L 2053 2394 
Q 2494 2394 2734 2622 
Q 2975 2850 2975 3272 
Q 2975 3691 2734 3919 
Q 2494 4147 2053 4147 
L 1259 4147 
z
M 628 4666 
L 2053 4666 
Q 2838 4666 3239 4311 
Q 3641 3956 3641 3272 
Q 3641 2581 3239 2228 
Q 2838 1875 2053 1875 
L 1259 1875 
L 1259 0 
L 628 0 
L 628 4666 
z
" transform="scale(0.015625)"/>
       <path id="DejaVuSans-4f" d="M 2522 4238 
Q 1834 4238 1429 3725 
Q 1025 3213 1025 2328 
Q 1025 1447 1429 934 
Q 1834 422 2522 422 
Q 3209 422 3611 934 
Q 4013 1447 4013 2328 
Q 4013 3213 3611 3725 
Q 3209 4238 2522 4238 
z
M 2522 4750 
Q 3503 4750 4090 4092 
Q 4678 3434 4678 2328 
Q 4678 1225 4090 567 
Q 3503 -91 2522 -91 
Q 1538 -91 948 565 
Q 359 1222 359 2328 
Q 359 3434 948 4092 
Q 1538 4750 2522 4750 
z
" transform="scale(0.015625)"/>
      </defs>
      <use xlink:href="#DejaVuSans-73"/>
      <use xlink:href="#DejaVuSans-69" transform="translate(52.099609 0)"/>
      <use xlink:href="#DejaVuSans-6d" transform="translate(79.882812 0)"/>
      <use xlink:href="#DejaVuSans-3a" transform="translate(177.294922 0)"/>
      <use xlink:href="#DejaVuSans-20" transform="translate(210.986328 0)"/>
      <use xlink:href="#DejaVuSans-31" transform="translate(242.773438 0)"/>
      <use xlink:href="#DejaVuSans-30" transform="translate(306.396484 0)"/>
      <use xlink:href="#DejaVuSans-30" transform="translate(370.019531 0)"/>
      <use xlink:href="#DejaVuSans-6d" transform="translate(433.642578 0)"/>
      <use xlink:href="#DejaVuSans-67" transform="translate(531.054688 0)"/>
      <use xlink:href="#DejaVuSans-20" transform="translate(594.53125 0)"/>
      <use xlink:href="#DejaVuSans-50" transform="translate(626.318359 0)"/>
      <use xlink:href="#DejaVuSans-4f" transform="translate(686.621094 0)"/>
     </g>
    </g>
    <g id="line2d_19">
     <path d="M 220.248954 76.016562 
L 240.248954 76.016562 
" style="fill: none; stroke: #d62728; stroke-width: 2; stroke-linecap: square"/>
    </g>
    <g id="line2d_20"/>
    <g id="text_16">
     <!-- sim: 100mg PO -->
     <g transform="translate(248.248954 79.516562) scale(0.1 -0.1)">
      <use xlink:href="#DejaVuSans-73"/>
      <use xlink:href="#DejaVuSans-69" transform="translate(52.099609 0)"/>
      <use xlink:href="#DejaVuSans-6d" transform="translate(79.882812 0)"/>
      <use xlink:href="#DejaVuSans-3a" transform="translate(177.294922 0)"/>
      <use xlink:href="#DejaVuSans-20" transform="translate(210.986328 0)"/>
      <use xlink:href="#DejaVuSans-31" transform="translate(242.773438 0)"/>
      <use xlink:href="#DejaVuSans-30" transform="translate(306.396484 0)"/>
      <use xlink:href="#DejaVuSans-30" transform="translate(370.019531 0)"/>
      <use xlink:href="#DejaVuSans-6d" transform="translate(433.642578 0)"/>
      <use xlink:href="#DejaVuSans-67" transform="translate(531.054688 0)"/>
      <use xlink:href="#DejaVuSans-20" transform="translate(594.53125 0)"/>
      <use xlink:href="#DejaVuSans-50" transform="translate(626.318359 0)"/>
      <use xlink:href="#DejaVuSans-4f" transform="translate(686.621094 0)"/>
     </g>
    </g>
    <g id="LineCollection_3">
     <path d="M 230.248954 95.694687 
L 230.248954 85.694687 
" style="fill: none; stroke: #d62728"/>
    </g>
    <g id="line2d_21">
     <path d="M 220.248954 90.694687 
L 240.248954 90.694687 
" style="fill: none; stroke-dasharray: 3.7,1.6; stroke-dashoffset: 0; stroke: #d62728"/>
    </g>
    <g id="line2d_22">
     <g>
      <use xlink:href="#me168ecaa8f" x="230.248954" y="90.694687" style="fill: #d62728; stroke: #000000; stroke-linejoin: miter"/>
     </g>
    </g>
    <g id="text_17">
     <!-- females exp: 100mg PO±SD (n=12) -->
     <g transform="translate(248.248954 94.194687) scale(0.1 -0.1)">
      <defs>
       <path id="DejaVuSans-66" d="M 2375 4863 
L 2375 4384 
L 1825 4384 
Q 1516 4384 1395 4259 
Q 1275 4134 1275 3809 
L 1275 3500 
L 2222 3500 
L 2222 3053 
L 1275 3053 
L 1275 0 
L 697 0 
L 697 3053 
L 147 3053 
L 147 3500 
L 697 3500 
L 697 3744 
Q 697 4328 969 4595 
Q 1241 4863 1831 4863 
L 2375 4863 
z
" transform="scale(0.015625)"/>
       <path id="DejaVuSans-65" d="M 3597 1894 
L 3597 1613 
L 953 1613 
Q 991 1019 1311 708 
Q 1631 397 2203 397 
Q 2534 397 2845 478 
Q 3156 559 3463 722 
L 3463 178 
Q 3153 47 2828 -22 
Q 2503 -91 2169 -91 
Q 1331 -91 842 396 
Q 353 884 353 1716 
Q 353 2575 817 3079 
Q 1281 3584 2069 3584 
Q 2775 3584 3186 3129 
Q 3597 2675 3597 1894 
z
M 3022 2063 
Q 3016 2534 2758 2815 
Q 2500 3097 2075 3097 
Q 1594 3097 1305 2825 
Q 1016 2553 972 2059 
L 3022 2063 
z
" transform="scale(0.015625)"/>
       <path id="DejaVuSans-61" d="M 2194 1759 
Q 1497 1759 1228 1600 
Q 959 1441 959 1056 
Q 959 750 1161 570 
Q 1363 391 1709 391 
Q 2188 391 2477 730 
Q 2766 1069 2766 1631 
L 2766 1759 
L 2194 1759 
z
M 3341 1997 
L 3341 0 
L 2766 0 
L 2766 531 
Q 2569 213 2275 61 
Q 1981 -91 1556 -91 
Q 1019 -91 701 211 
Q 384 513 384 1019 
Q 384 1609 779 1909 
Q 1175 2209 1959 2209 
L 2766 2209 
L 2766 2266 
Q 2766 2663 2505 2880 
Q 2244 3097 1772 3097 
Q 1472 3097 1187 3025 
Q 903 2953 641 2809 
L 641 3341 
Q 956 3463 1253 3523 
Q 1550 3584 1831 3584 
Q 2591 3584 2966 3190 
Q 3341 2797 3341 1997 
z
" transform="scale(0.015625)"/>
       <path id="DejaVuSans-6c" d="M 603 4863 
L 1178 4863 
L 1178 0 
L 603 0 
L 603 4863 
z
" transform="scale(0.015625)"/>
       <path id="DejaVuSans-78" d="M 3513 3500 
L 2247 1797 
L 3578 0 
L 2900 0 
L 1881 1375 
L 863 0 
L 184 0 
L 1544 1831 
L 300 3500 
L 978 3500 
L 1906 2253 
L 2834 3500 
L 3513 3500 
z
" transform="scale(0.015625)"/>
       <path id="DejaVuSans-70" d="M 1159 525 
L 1159 -1331 
L 581 -1331 
L 581 3500 
L 1159 3500 
L 1159 2969 
Q 1341 3281 1617 3432 
Q 1894 3584 2278 3584 
Q 2916 3584 3314 3078 
Q 3713 2572 3713 1747 
Q 3713 922 3314 415 
Q 2916 -91 2278 -91 
Q 1894 -91 1617 61 
Q 1341 213 1159 525 
z
M 3116 1747 
Q 3116 2381 2855 2742 
Q 2594 3103 2138 3103 
Q 1681 3103 1420 2742 
Q 1159 2381 1159 1747 
Q 1159 1113 1420 752 
Q 1681 391 2138 391 
Q 2594 391 2855 752 
Q 3116 1113 3116 1747 
z
" transform="scale(0.015625)"/>
       <path id="DejaVuSans-b1" d="M 2944 4013 
L 2944 2803 
L 4684 2803 
L 4684 2272 
L 2944 2272 
L 2944 1063 
L 2419 1063 
L 2419 2272 
L 678 2272 
L 678 2803 
L 2419 2803 
L 2419 4013 
L 2944 4013 
z
M 678 531 
L 4684 531 
L 4684 0 
L 678 0 
L 678 531 
z
" transform="scale(0.015625)"/>
       <path id="DejaVuSans-53" d="M 3425 4513 
L 3425 3897 
Q 3066 4069 2747 4153 
Q 2428 4238 2131 4238 
Q 1616 4238 1336 4038 
Q 1056 3838 1056 3469 
Q 1056 3159 1242 3001 
Q 1428 2844 1947 2747 
L 2328 2669 
Q 3034 2534 3370 2195 
Q 3706 1856 3706 1288 
Q 3706 609 3251 259 
Q 2797 -91 1919 -91 
Q 1588 -91 1214 -16 
Q 841 59 441 206 
L 441 856 
Q 825 641 1194 531 
Q 1563 422 1919 422 
Q 2459 422 2753 634 
Q 3047 847 3047 1241 
Q 3047 1584 2836 1778 
Q 2625 1972 2144 2069 
L 1759 2144 
Q 1053 2284 737 2584 
Q 422 2884 422 3419 
Q 422 4038 858 4394 
Q 1294 4750 2059 4750 
Q 2388 4750 2728 4690 
Q 3069 4631 3425 4513 
z
" transform="scale(0.015625)"/>
       <path id="DejaVuSans-44" d="M 1259 4147 
L 1259 519 
L 2022 519 
Q 2988 519 3436 956 
Q 3884 1394 3884 2338 
Q 3884 3275 3436 3711 
Q 2988 4147 2022 4147 
L 1259 4147 
z
M 628 4666 
L 1925 4666 
Q 3281 4666 3915 4102 
Q 4550 3538 4550 2338 
Q 4550 1131 3912 565 
Q 3275 0 1925 0 
L 628 0 
L 628 4666 
z
" transform="scale(0.015625)"/>
       <path id="DejaVuSans-28" d="M 1984 4856 
Q 1566 4138 1362 3434 
Q 1159 2731 1159 2009 
Q 1159 1288 1364 580 
Q 1569 -128 1984 -844 
L 1484 -844 
Q 1016 -109 783 600 
Q 550 1309 550 2009 
Q 550 2706 781 3412 
Q 1013 4119 1484 4856 
L 1984 4856 
z
" transform="scale(0.015625)"/>
       <path id="DejaVuSans-6e" d="M 3513 2113 
L 3513 0 
L 2938 0 
L 2938 2094 
Q 2938 2591 2744 2837 
Q 2550 3084 2163 3084 
Q 1697 3084 1428 2787 
Q 1159 2491 1159 1978 
L 1159 0 
L 581 0 
L 581 3500 
L 1159 3500 
L 1159 2956 
Q 1366 3272 1645 3428 
Q 1925 3584 2291 3584 
Q 2894 3584 3203 3211 
Q 3513 2838 3513 2113 
z
" transform="scale(0.015625)"/>
       <path id="DejaVuSans-3d" d="M 678 2906 
L 4684 2906 
L 4684 2381 
L 678 2381 
L 678 2906 
z
M 678 1631 
L 4684 1631 
L 4684 1100 
L 678 1100 
L 678 1631 
z
" transform="scale(0.015625)"/>
       <path id="DejaVuSans-29" d="M 513 4856 
L 1013 4856 
Q 1481 4119 1714 3412 
Q 1947 2706 1947 2009 
Q 1947 1309 1714 600 
Q 1481 -109 1013 -844 
L 513 -844 
Q 928 -128 1133 580 
Q 1338 1288 1338 2009 
Q 1338 2731 1133 3434 
Q 928 4138 513 4856 
z
" transform="scale(0.015625)"/>
      </defs>
      <use xlink:href="#DejaVuSans-66"/>
      <use xlink:href="#DejaVuSans-65" transform="translate(35.205078 0)"/>
      <use xlink:href="#DejaVuSans-6d" transform="translate(96.728516 0)"/>
      <use xlink:href="#DejaVuSans-61" transform="translate(194.140625 0)"/>
      <use xlink:href="#DejaVuSans-6c" transform="translate(255.419922 0)"/>
      <use xlink:href="#DejaVuSans-65" transform="translate(283.203125 0)"/>
      <use xlink:href="#DejaVuSans-73" transform="translate(344.726562 0)"/>
      <use xlink:href="#DejaVuSans-20" transform="translate(396.826172 0)"/>
      <use xlink:href="#DejaVuSans-65" transform="translate(428.613281 0)"/>
      <use xlink:href="#DejaVuSans-78" transform="translate(488.386719 0)"/>
      <use xlink:href="#DejaVuSans-70" transform="translate(547.566406 0)"/>
      <use xlink:href="#DejaVuSans-3a" transform="translate(611.042969 0)"/>
      <use xlink:href="#DejaVuSans-20" transform="translate(644.734375 0)"/>
      <use xlink:href="#DejaVuSans-31" transform="translate(676.521484 0)"/>
      <use xlink:href="#DejaVuSans-30" transform="translate(740.144531 0)"/>
      <use xlink:href="#DejaVuSans-30" transform="translate(803.767578 0)"/>
      <use xlink:href="#DejaVuSans-6d" transform="translate(867.390625 0)"/>
      <use xlink:href="#DejaVuSans-67" transform="translate(964.802734 0)"/>
      <use xlink:href="#DejaVuSans-20" transform="translate(1028.279297 0)"/>
      <use xlink:href="#DejaVuSans-50" transform="translate(1060.066406 0)"/>
      <use xlink:href="#DejaVuSans-4f" transform="translate(1120.369141 0)"/>
      <use xlink:href="#DejaVuSans-b1" transform="translate(1199.080078 0)"/>
      <use xlink:href="#DejaVuSans-53" transform="translate(1282.869141 0)"/>
      <use xlink:href="#DejaVuSans-44" transform="translate(1346.345703 0)"/>
      <use xlink:href="#DejaVuSans-20" transform="translate(1423.347656 0)"/>
      <use xlink:href="#DejaVuSans-28" transform="translate(1455.134766 0)"/>
      <use xlink:href="#DejaVuSans-6e" transform="translate(1494.148438 0)"/>
      <use xlink:href="#DejaVuSans-3d" transform="translate(1557.527344 0)"/>
      <use xlink:href="#DejaVuSans-31" transform="translate(1641.316406 0)"/>
      <use xlink:href="#DejaVuSans-32" transform="translate(1704.939453 0)"/>
      <use xlink:href="#DejaVuSans-29" transform="translate(1768.5625 0)"/>
     </g>
    </g>
    <g id="LineCollection_4">
     <path d="M 230.248954 110.372812 
L 230.248954 100.372812 
" style="fill: none; stroke: #1f77b4"/>
    </g>
    <g id="line2d_23">
     <path d="M 220.248954 105.372812 
L 240.248954 105.372812 
" style="fill: none; stroke-dasharray: 3.7,1.6; stroke-dashoffset: 0; stroke: #1f77b4"/>
    </g>
    <g id="line2d_24">
     <g>
      <use xlink:href="#m1cf7a91c60" x="230.248954" y="105.372812" style="fill: #1f77b4; stroke: #000000; stroke-linejoin: miter"/>
     </g>
    </g>
    <g id="text_18">
     <!-- males exp: 100mg PO±SD (n=12) -->
     <g transform="translate(248.248954 108.872812) scale(0.1 -0.1)">
      <use xlink:href="#DejaVuSans-6d"/>
      <use xlink:href="#DejaVuSans-61" transform="translate(97.412109 0)"/>
      <use xlink:href="#DejaVuSans-6c" transform="translate(158.691406 0)"/>
      <use xlink:href="#DejaVuSans-65" transform="translate(186.474609 0)"/>
      <use xlink:href="#DejaVuSans-73" transform="translate(247.998047 0)"/>
      <use xlink:href="#DejaVuSans-20" transform="translate(300.097656 0)"/>
      <use xlink:href="#DejaVuSans-65" transform="translate(331.884766 0)"/>
      <use xlink:href="#DejaVuSans-78" transform="translate(391.658203 0)"/>
      <use xlink:href="#DejaVuSans-70" transform="translate(450.837891 0)"/>
      <use xlink:href="#DejaVuSans-3a" transform="translate(514.314453 0)"/>
      <use xlink:href="#DejaVuSans-20" transform="translate(548.005859 0)"/>
      <use xlink:href="#DejaVuSans-31" transform="translate(579.792969 0)"/>
      <use xlink:href="#DejaVuSans-30" transform="translate(643.416016 0)"/>
      <use xlink:href="#DejaVuSans-30" transform="translate(707.039062 0)"/>
      <use xlink:href="#DejaVuSans-6d" transform="translate(770.662109 0)"/>
      <use xlink:href="#DejaVuSans-67" transform="translate(868.074219 0)"/>
      <use xlink:href="#DejaVuSans-20" transform="translate(931.550781 0)"/>
      <use xlink:href="#DejaVuSans-50" transform="translate(963.337891 0)"/>
      <use xlink:href="#DejaVuSans-4f" transform="translate(1023.640625 0)"/>
      <use xlink:href="#DejaVuSans-b1" transform="translate(1102.351562 0)"/>
      <use xlink:href="#DejaVuSans-53" transform="translate(1186.140625 0)"/>
      <use xlink:href="#DejaVuSans-44" transform="translate(1249.617188 0)"/>
      <use xlink:href="#DejaVuSans-20" transform="translate(1326.619141 0)"/>
      <use xlink:href="#DejaVuSans-28" transform="translate(1358.40625 0)"/>
      <use xlink:href="#DejaVuSans-6e" transform="translate(1397.419922 0)"/>
      <use xlink:href="#DejaVuSans-3d" transform="translate(1460.798828 0)"/>
      <use xlink:href="#DejaVuSans-31" transform="translate(1544.587891 0)"/>
      <use xlink:href="#DejaVuSans-32" transform="translate(1608.210938 0)"/>
      <use xlink:href="#DejaVuSans-29" transform="translate(1671.833984 0)"/>
     </g>
    </g>
   </g>
  </g>
  <g id="axes_2">
   <g id="patch_8">
    <path d="M 550.095109 364.248 
L 923.7125 364.248 
L 923.7125 48.24 
L 550.095109 48.24 
z
" style="fill: #ffffff"/>
   </g>
   <g id="matplotlib.axis_3">
    <g id="xtick_7">
     <g id="line2d_25">
      <g>
       <use xlink:href="#mbd41178958" x="567.077717" y="364.248" style="stroke: #000000; stroke-width: 0.8"/>
      </g>
     </g>
     <g id="text_19">
      <!-- 0 -->
      <g transform="translate(562.305842 382.645656) scale(0.15 -0.15)">
       <use xlink:href="#DejaVuSans-30"/>
      </g>
     </g>
    </g>
    <g id="xtick_8">
     <g id="line2d_26">
      <g>
       <use xlink:href="#mbd41178958" x="635.008152" y="364.248" style="stroke: #000000; stroke-width: 0.8"/>
      </g>
     </g>
     <g id="text_20">
      <!-- 5 -->
      <g transform="translate(630.236277 382.645656) scale(0.15 -0.15)">
       <use xlink:href="#DejaVuSans-35"/>
      </g>
     </g>
    </g>
    <g id="xtick_9">
     <g id="line2d_27">
      <g>
       <use xlink:href="#mbd41178958" x="702.938587" y="364.248" style="stroke: #000000; stroke-width: 0.8"/>
      </g>
     </g>
     <g id="text_21">
      <!-- 10 -->
      <g transform="translate(693.394837 382.645656) scale(0.15 -0.15)">
       <use xlink:href="#DejaVuSans-31"/>
       <use xlink:href="#DejaVuSans-30" transform="translate(63.623047 0)"/>
      </g>
     </g>
    </g>
    <g id="xtick_10">
     <g id="line2d_28">
      <g>
       <use xlink:href="#mbd41178958" x="770.869022" y="364.248" style="stroke: #000000; stroke-width: 0.8"/>
      </g>
     </g>
     <g id="text_22">
      <!-- 15 -->
      <g transform="translate(761.325272 382.645656) scale(0.15 -0.15)">
       <use xlink:href="#DejaVuSans-31"/>
       <use xlink:href="#DejaVuSans-35" transform="translate(63.623047 0)"/>
      </g>
     </g>
    </g>
    <g id="xtick_11">
     <g id="line2d_29">
      <g>
       <use xlink:href="#mbd41178958" x="838.799457" y="364.248" style="stroke: #000000; stroke-width: 0.8"/>
      </g>
     </g>
     <g id="text_23">
      <!-- 20 -->
      <g transform="translate(829.255707 382.645656) scale(0.15 -0.15)">
       <use xlink:href="#DejaVuSans-32"/>
       <use xlink:href="#DejaVuSans-30" transform="translate(63.623047 0)"/>
      </g>
     </g>
    </g>
    <g id="xtick_12">
     <g id="line2d_30">
      <g>
       <use xlink:href="#mbd41178958" x="906.729891" y="364.248" style="stroke: #000000; stroke-width: 0.8"/>
      </g>
     </g>
     <g id="text_24">
      <!-- 25 -->
      <g transform="translate(897.186141 382.645656) scale(0.15 -0.15)">
       <use xlink:href="#DejaVuSans-32"/>
       <use xlink:href="#DejaVuSans-35" transform="translate(63.623047 0)"/>
      </g>
     </g>
    </g>
    <g id="text_25">
     <!-- time [hr] -->
     <g transform="translate(691.829273 403.442375) scale(0.18 -0.18)">
      <use xlink:href="#DejaVuSans-Bold-74"/>
      <use xlink:href="#DejaVuSans-Bold-69" transform="translate(47.802734 0)"/>
      <use xlink:href="#DejaVuSans-Bold-6d" transform="translate(82.080078 0)"/>
      <use xlink:href="#DejaVuSans-Bold-65" transform="translate(186.279297 0)"/>
      <use xlink:href="#DejaVuSans-Bold-20" transform="translate(254.101562 0)"/>
      <use xlink:href="#DejaVuSans-Bold-5b" transform="translate(288.916016 0)"/>
      <use xlink:href="#DejaVuSans-Bold-68" transform="translate(334.619141 0)"/>
      <use xlink:href="#DejaVuSans-Bold-72" transform="translate(405.810547 0)"/>
      <use xlink:href="#DejaVuSans-Bold-5d" transform="translate(455.126953 0)"/>
     </g>
    </g>
   </g>
   <g id="matplotlib.axis_4">
    <g id="ytick_7">
     <g id="line2d_31">
      <g>
       <use xlink:href="#m42c2b0f4f8" x="550.095109" y="330.585084" style="stroke: #000000; stroke-width: 0.8"/>
      </g>
     </g>
     <g id="text_26">
      <!-- 20 -->
      <g transform="translate(524.007609 336.283912) scale(0.15 -0.15)">
       <use xlink:href="#DejaVuSans-32"/>
       <use xlink:href="#DejaVuSans-30" transform="translate(63.623047 0)"/>
      </g>
     </g>
    </g>
    <g id="ytick_8">
     <g id="line2d_32">
      <g>
       <use xlink:href="#m42c2b0f4f8" x="550.095109" y="290.538632" style="stroke: #000000; stroke-width: 0.8"/>
      </g>
     </g>
     <g id="text_27">
      <!-- 30 -->
      <g transform="translate(524.007609 296.23746) scale(0.15 -0.15)">
       <defs>
        <path id="DejaVuSans-33" d="M 2597 2516 
Q 3050 2419 3304 2112 
Q 3559 1806 3559 1356 
Q 3559 666 3084 287 
Q 2609 -91 1734 -91 
Q 1441 -91 1130 -33 
Q 819 25 488 141 
L 488 750 
Q 750 597 1062 519 
Q 1375 441 1716 441 
Q 2309 441 2620 675 
Q 2931 909 2931 1356 
Q 2931 1769 2642 2001 
Q 2353 2234 1838 2234 
L 1294 2234 
L 1294 2753 
L 1863 2753 
Q 2328 2753 2575 2939 
Q 2822 3125 2822 3475 
Q 2822 3834 2567 4026 
Q 2313 4219 1838 4219 
Q 1578 4219 1281 4162 
Q 984 4106 628 3988 
L 628 4550 
Q 988 4650 1302 4700 
Q 1616 4750 1894 4750 
Q 2613 4750 3031 4423 
Q 3450 4097 3450 3541 
Q 3450 3153 3228 2886 
Q 3006 2619 2597 2516 
z
" transform="scale(0.015625)"/>
       </defs>
       <use xlink:href="#DejaVuSans-33"/>
       <use xlink:href="#DejaVuSans-30" transform="translate(63.623047 0)"/>
      </g>
     </g>
    </g>
    <g id="ytick_9">
     <g id="line2d_33">
      <g>
       <use xlink:href="#m42c2b0f4f8" x="550.095109" y="250.492179" style="stroke: #000000; stroke-width: 0.8"/>
      </g>
     </g>
     <g id="text_28">
      <!-- 40 -->
      <g transform="translate(524.007609 256.191007) scale(0.15 -0.15)">
       <use xlink:href="#DejaVuSans-34"/>
       <use xlink:href="#DejaVuSans-30" transform="translate(63.623047 0)"/>
      </g>
     </g>
    </g>
    <g id="ytick_10">
     <g id="line2d_34">
      <g>
       <use xlink:href="#m42c2b0f4f8" x="550.095109" y="210.445727" style="stroke: #000000; stroke-width: 0.8"/>
      </g>
     </g>
     <g id="text_29">
      <!-- 50 -->
      <g transform="translate(524.007609 216.144555) scale(0.15 -0.15)">
       <use xlink:href="#DejaVuSans-35"/>
       <use xlink:href="#DejaVuSans-30" transform="translate(63.623047 0)"/>
      </g>
     </g>
    </g>
    <g id="ytick_11">
     <g id="line2d_35">
      <g>
       <use xlink:href="#m42c2b0f4f8" x="550.095109" y="170.399275" style="stroke: #000000; stroke-width: 0.8"/>
      </g>
     </g>
     <g id="text_30">
      <!-- 60 -->
      <g transform="translate(524.007609 176.098103) scale(0.15 -0.15)">
       <use xlink:href="#DejaVuSans-36"/>
       <use xlink:href="#DejaVuSans-30" transform="translate(63.623047 0)"/>
      </g>
     </g>
    </g>
    <g id="ytick_12">
     <g id="line2d_36">
      <g>
       <use xlink:href="#m42c2b0f4f8" x="550.095109" y="130.352822" style="stroke: #000000; stroke-width: 0.8"/>
      </g>
     </g>
     <g id="text_31">
      <!-- 70 -->
      <g transform="translate(524.007609 136.05165) scale(0.15 -0.15)">
       <defs>
        <path id="DejaVuSans-37" d="M 525 4666 
L 3525 4666 
L 3525 4397 
L 1831 0 
L 1172 0 
L 2766 4134 
L 525 4134 
L 525 4666 
z
" transform="scale(0.015625)"/>
       </defs>
       <use xlink:href="#DejaVuSans-37"/>
       <use xlink:href="#DejaVuSans-30" transform="translate(63.623047 0)"/>
      </g>
     </g>
    </g>
    <g id="ytick_13">
     <g id="line2d_37">
      <g>
       <use xlink:href="#m42c2b0f4f8" x="550.095109" y="90.30637" style="stroke: #000000; stroke-width: 0.8"/>
      </g>
     </g>
     <g id="text_32">
      <!-- 80 -->
      <g transform="translate(524.007609 96.005198) scale(0.15 -0.15)">
       <use xlink:href="#DejaVuSans-38"/>
       <use xlink:href="#DejaVuSans-30" transform="translate(63.623047 0)"/>
      </g>
     </g>
    </g>
    <g id="ytick_14">
     <g id="line2d_38">
      <g>
       <use xlink:href="#m42c2b0f4f8" x="550.095109" y="50.259917" style="stroke: #000000; stroke-width: 0.8"/>
      </g>
     </g>
     <g id="text_33">
      <!-- 90 -->
      <g transform="translate(524.007609 55.958745) scale(0.15 -0.15)">
       <defs>
        <path id="DejaVuSans-39" d="M 703 97 
L 703 672 
Q 941 559 1184 500 
Q 1428 441 1663 441 
Q 2288 441 2617 861 
Q 2947 1281 2994 2138 
Q 2813 1869 2534 1725 
Q 2256 1581 1919 1581 
Q 1219 1581 811 2004 
Q 403 2428 403 3163 
Q 403 3881 828 4315 
Q 1253 4750 1959 4750 
Q 2769 4750 3195 4129 
Q 3622 3509 3622 2328 
Q 3622 1225 3098 567 
Q 2575 -91 1691 -91 
Q 1453 -91 1209 -44 
Q 966 3 703 97 
z
M 1959 2075 
Q 2384 2075 2632 2365 
Q 2881 2656 2881 3163 
Q 2881 3666 2632 3958 
Q 2384 4250 1959 4250 
Q 1534 4250 1286 3958 
Q 1038 3666 1038 3163 
Q 1038 2656 1286 2365 
Q 1534 2075 1959 2075 
z
" transform="scale(0.015625)"/>
       </defs>
       <use xlink:href="#DejaVuSans-39"/>
       <use xlink:href="#DejaVuSans-30" transform="translate(63.623047 0)"/>
      </g>
     </g>
    </g>
    <g id="text_34">
     <!-- DBP [mmHg] -->
     <g transform="translate(516.123546 271.261969) rotate(-90) scale(0.18 -0.18)">
      <defs>
       <path id="DejaVuSans-Bold-44" d="M 1791 3756 
L 1791 909 
L 2222 909 
Q 2959 909 3348 1275 
Q 3738 1641 3738 2338 
Q 3738 3031 3350 3393 
Q 2963 3756 2222 3756 
L 1791 3756 
z
M 588 4666 
L 1856 4666 
Q 2919 4666 3439 4514 
Q 3959 4363 4331 4000 
Q 4659 3684 4818 3271 
Q 4978 2859 4978 2338 
Q 4978 1809 4818 1395 
Q 4659 981 4331 666 
Q 3956 303 3431 151 
Q 2906 0 1856 0 
L 588 0 
L 588 4666 
z
" transform="scale(0.015625)"/>
      </defs>
      <use xlink:href="#DejaVuSans-Bold-44"/>
      <use xlink:href="#DejaVuSans-Bold-42" transform="translate(83.007812 0)"/>
      <use xlink:href="#DejaVuSans-Bold-50" transform="translate(159.228516 0)"/>
      <use xlink:href="#DejaVuSans-Bold-20" transform="translate(232.519531 0)"/>
      <use xlink:href="#DejaVuSans-Bold-5b" transform="translate(267.333984 0)"/>
      <use xlink:href="#DejaVuSans-Bold-6d" transform="translate(313.037109 0)"/>
      <use xlink:href="#DejaVuSans-Bold-6d" transform="translate(417.236328 0)"/>
      <use xlink:href="#DejaVuSans-Bold-48" transform="translate(521.435547 0)"/>
      <use xlink:href="#DejaVuSans-Bold-67" transform="translate(605.126953 0)"/>
      <use xlink:href="#DejaVuSans-Bold-5d" transform="translate(676.708984 0)"/>
     </g>
    </g>
   </g>
   <g id="LineCollection_5">
    <path d="M 567.077717 262.947883 
L 567.077717 86.357002 
" clip-path="url(#p501adb1147)" style="fill: none; stroke: #d62728"/>
    <path d="M 573.870761 287.066835 
L 573.870761 132.733545 
" clip-path="url(#p501adb1147)" style="fill: none; stroke: #d62728"/>
    <path d="M 580.663804 280.944699 
L 580.663804 126.611408 
" clip-path="url(#p501adb1147)" style="fill: none; stroke: #d62728"/>
    <path d="M 587.456848 277.855498 
L 587.456848 123.942162 
" clip-path="url(#p501adb1147)" style="fill: none; stroke: #d62728"/>
    <path d="M 594.249891 295.516671 
L 594.249891 119.555722 
" clip-path="url(#p501adb1147)" style="fill: none; stroke: #d62728"/>
    <path d="M 607.835978 349.884 
L 607.835978 85.312645 
" clip-path="url(#p501adb1147)" style="fill: none; stroke: #d62728"/>
    <path d="M 621.422065 298.308698 
L 621.422065 99.670204 
" clip-path="url(#p501adb1147)" style="fill: none; stroke: #d62728"/>
    <path d="M 648.594239 308.736691 
L 648.594239 110.518152 
" clip-path="url(#p501adb1147)" style="fill: none; stroke: #d62728"/>
    <path d="M 675.766413 278.097959 
L 675.766413 124.184623 
" clip-path="url(#p501adb1147)" style="fill: none; stroke: #d62728"/>
    <path d="M 893.143804 277.018692 
L 893.143804 78.590175 
" clip-path="url(#p501adb1147)" style="fill: none; stroke: #d62728"/>
   </g>
   <g id="LineCollection_6">
    <path d="M 567.077717 261.242494 
L 567.077717 62.604 
" clip-path="url(#p501adb1147)" style="fill: none; stroke: #1f77b4"/>
    <path d="M 573.870761 263.055047 
L 573.870761 86.674144 
" clip-path="url(#p501adb1147)" style="fill: none; stroke: #1f77b4"/>
    <path d="M 580.663804 304.844803 
L 580.663804 83.738741 
" clip-path="url(#p501adb1147)" style="fill: none; stroke: #1f77b4"/>
    <path d="M 587.456848 296.900482 
L 587.456848 98.471966 
" clip-path="url(#p501adb1147)" style="fill: none; stroke: #1f77b4"/>
    <path d="M 594.249891 325.825746 
L 594.249891 82.882049 
" clip-path="url(#p501adb1147)" style="fill: none; stroke: #1f77b4"/>
    <path d="M 607.835978 304.053078 
L 607.835978 105.624561 
" clip-path="url(#p501adb1147)" style="fill: none; stroke: #1f77b4"/>
    <path d="M 621.422065 320.386619 
L 621.422065 77.652899 
" clip-path="url(#p501adb1147)" style="fill: none; stroke: #1f77b4"/>
    <path d="M 648.594239 288.270977 
L 648.594239 111.890073 
" clip-path="url(#p501adb1147)" style="fill: none; stroke: #1f77b4"/>
    <path d="M 675.766413 264.101831 
L 675.766413 131.816154 
" clip-path="url(#p501adb1147)" style="fill: none; stroke: #1f77b4"/>
    <path d="M 893.143804 266.099874 
L 893.143804 89.508993 
" clip-path="url(#p501adb1147)" style="fill: none; stroke: #1f77b4"/>
   </g>
   <g id="line2d_39">
    <path d="M 567.077717 167.716162 
L 567.926848 171.705555 
L 569.625109 183.587592 
L 571.32337 193.618326 
L 573.02163 201.908469 
L 574.719891 208.729428 
L 576.418152 214.308871 
L 578.116413 218.831741 
L 579.814674 222.445014 
L 581.512935 225.262512 
L 583.211196 227.369622 
L 584.060326 228.176927 
L 584.909457 228.828389 
L 585.758587 229.329089 
L 586.607717 229.683445 
L 587.456848 229.895434 
L 588.305978 229.968804 
L 589.155109 229.907266 
L 590.004239 229.714644 
L 590.85337 229.394976 
L 592.55163 228.392014 
L 594.249891 226.936032 
L 595.948152 225.067894 
L 597.646413 222.829891 
L 599.344674 220.264183 
L 601.892065 215.890723 
L 604.439457 211.005062 
L 607.835978 203.912338 
L 612.930761 192.61035 
L 618.874674 179.474109 
L 622.271196 172.431474 
L 625.667717 165.943741 
L 628.215109 161.514807 
L 630.7625 157.497031 
L 633.309891 153.907758 
L 635.857283 150.751483 
L 638.404674 148.021791 
L 640.952065 145.703476 
L 643.499457 143.774647 
L 646.046848 142.208704 
L 648.594239 140.976077 
L 651.14163 140.045701 
L 653.689022 139.386205 
L 656.236413 138.966834 
L 658.783804 138.758118 
L 661.331196 138.732345 
L 664.727717 138.938498 
L 668.124239 139.369733 
L 672.369891 140.153233 
L 677.464674 141.350466 
L 684.257717 143.212021 
L 713.128152 151.452808 
L 721.619457 153.509301 
L 730.110761 155.328734 
L 738.602065 156.913825 
L 747.09337 158.278082 
L 756.433804 159.546692 
L 766.62337 160.68634 
L 777.662065 161.676131 
L 789.549891 162.507971 
L 803.135978 163.223969 
L 818.420326 163.804279 
L 837.101196 164.286032 
L 860.876848 164.668682 
L 894.842065 164.974741 
L 906.729891 165.04594 
L 906.729891 165.04594 
" clip-path="url(#p501adb1147)" style="fill: none; stroke: #1f77b4; stroke-width: 2; stroke-linecap: square"/>
   </g>
   <g id="line2d_40">
    <path d="M 567.077717 183.094 
L 567.926848 186.837158 
L 569.625109 197.962501 
L 571.32337 207.354633 
L 573.02163 215.116585 
L 574.719891 221.502117 
L 576.418152 226.724119 
L 578.116413 230.955482 
L 579.814674 234.333526 
L 581.512935 236.964506 
L 583.211196 238.928076 
L 584.909457 240.282106 
L 585.758587 240.744042 
L 586.607717 241.068326 
L 587.456848 241.258712 
L 588.305978 241.318756 
L 589.155109 241.251992 
L 590.004239 241.062073 
L 591.7025 240.328482 
L 593.400761 239.152002 
L 595.099022 237.570305 
L 596.797283 235.623215 
L 598.495543 233.351048 
L 601.042935 229.419651 
L 603.590326 224.974145 
L 606.986848 218.457082 
L 611.2325 209.746333 
L 618.874674 193.963484 
L 622.271196 187.429985 
L 625.667717 181.42532 
L 628.215109 177.334399 
L 630.7625 173.629517 
L 633.309891 170.325299 
L 635.857283 167.424547 
L 638.404674 164.920106 
L 640.952065 162.796853 
L 643.499457 161.033671 
L 646.046848 159.605267 
L 648.594239 158.483774 
L 651.14163 157.640098 
L 653.689022 157.044993 
L 656.236413 156.669888 
L 658.783804 156.487494 
L 662.180326 156.500096 
L 665.576848 156.754731 
L 669.8225 157.339784 
L 674.068152 158.146451 
L 680.012065 159.524713 
L 688.50337 161.757846 
L 707.184239 166.721942 
L 716.524674 168.934526 
L 725.015978 170.724349 
L 733.507283 172.296325 
L 741.998587 173.658114 
L 751.339022 174.931599 
L 761.528587 176.081629 
L 772.567283 177.085277 
L 784.455109 177.932485 
L 798.041196 178.664625 
L 813.325543 179.260041 
L 832.006413 179.755493 
L 855.782065 180.149035 
L 888.898152 180.456245 
L 906.729891 180.561199 
L 906.729891 180.561199 
" clip-path="url(#p501adb1147)" style="fill: none; stroke: #d62728; stroke-width: 2; stroke-linecap: square"/>
   </g>
   <g id="line2d_41">
    <path d="M 567.077717 174.652442 
L 573.870761 209.90019 
L 580.663804 203.778053 
L 587.456848 200.89883 
L 594.249891 207.536197 
L 607.835978 217.598322 
L 621.422065 198.989451 
L 648.594239 209.627422 
L 675.766413 201.141291 
L 893.143804 177.804433 
" clip-path="url(#p501adb1147)" style="fill: none; stroke-dasharray: 3.7,1.6; stroke-dashoffset: 0; stroke: #d62728"/>
    <g clip-path="url(#p501adb1147)">
     <use xlink:href="#me168ecaa8f" x="567.077717" y="174.652442" style="fill: #d62728; stroke: #000000; stroke-linejoin: miter"/>
     <use xlink:href="#me168ecaa8f" x="573.870761" y="209.90019" style="fill: #d62728; stroke: #000000; stroke-linejoin: miter"/>
     <use xlink:href="#me168ecaa8f" x="580.663804" y="203.778053" style="fill: #d62728; stroke: #000000; stroke-linejoin: miter"/>
     <use xlink:href="#me168ecaa8f" x="587.456848" y="200.89883" style="fill: #d62728; stroke: #000000; stroke-linejoin: miter"/>
     <use xlink:href="#me168ecaa8f" x="594.249891" y="207.536197" style="fill: #d62728; stroke: #000000; stroke-linejoin: miter"/>
     <use xlink:href="#me168ecaa8f" x="607.835978" y="217.598322" style="fill: #d62728; stroke: #000000; stroke-linejoin: miter"/>
     <use xlink:href="#me168ecaa8f" x="621.422065" y="198.989451" style="fill: #d62728; stroke: #000000; stroke-linejoin: miter"/>
     <use xlink:href="#me168ecaa8f" x="648.594239" y="209.627422" style="fill: #d62728; stroke: #000000; stroke-linejoin: miter"/>
     <use xlink:href="#me168ecaa8f" x="675.766413" y="201.141291" style="fill: #d62728; stroke: #000000; stroke-linejoin: miter"/>
     <use xlink:href="#me168ecaa8f" x="893.143804" y="177.804433" style="fill: #d62728; stroke: #000000; stroke-linejoin: miter"/>
    </g>
   </g>
   <g id="line2d_42">
    <path d="M 567.077717 161.923247 
L 573.870761 174.864595 
L 580.663804 194.291772 
L 587.456848 197.686224 
L 594.249891 204.353898 
L 607.835978 204.838819 
L 621.422065 199.019759 
L 648.594239 200.080525 
L 675.766413 197.958993 
L 893.143804 177.804433 
" clip-path="url(#p501adb1147)" style="fill: none; stroke-dasharray: 3.7,1.6; stroke-dashoffset: 0; stroke: #1f77b4"/>
    <g clip-path="url(#p501adb1147)">
     <use xlink:href="#m1cf7a91c60" x="567.077717" y="161.923247" style="fill: #1f77b4; stroke: #000000; stroke-linejoin: miter"/>
     <use xlink:href="#m1cf7a91c60" x="573.870761" y="174.864595" style="fill: #1f77b4; stroke: #000000; stroke-linejoin: miter"/>
     <use xlink:href="#m1cf7a91c60" x="580.663804" y="194.291772" style="fill: #1f77b4; stroke: #000000; stroke-linejoin: miter"/>
     <use xlink:href="#m1cf7a91c60" x="587.456848" y="197.686224" style="fill: #1f77b4; stroke: #000000; stroke-linejoin: miter"/>
     <use xlink:href="#m1cf7a91c60" x="594.249891" y="204.353898" style="fill: #1f77b4; stroke: #000000; stroke-linejoin: miter"/>
     <use xlink:href="#m1cf7a91c60" x="607.835978" y="204.838819" style="fill: #1f77b4; stroke: #000000; stroke-linejoin: miter"/>
     <use xlink:href="#m1cf7a91c60" x="621.422065" y="199.019759" style="fill: #1f77b4; stroke: #000000; stroke-linejoin: miter"/>
     <use xlink:href="#m1cf7a91c60" x="648.594239" y="200.080525" style="fill: #1f77b4; stroke: #000000; stroke-linejoin: miter"/>
     <use xlink:href="#m1cf7a91c60" x="675.766413" y="197.958993" style="fill: #1f77b4; stroke: #000000; stroke-linejoin: miter"/>
     <use xlink:href="#m1cf7a91c60" x="893.143804" y="177.804433" style="fill: #1f77b4; stroke: #000000; stroke-linejoin: miter"/>
    </g>
   </g>
   <g id="patch_9">
    <path d="M 550.095109 364.248 
L 550.095109 48.24 
" style="fill: none; stroke: #000000; stroke-width: 0.8; stroke-linejoin: miter; stroke-linecap: square"/>
   </g>
   <g id="patch_10">
    <path d="M 923.7125 364.248 
L 923.7125 48.24 
" style="fill: none; stroke: #000000; stroke-width: 0.8; stroke-linejoin: miter; stroke-linecap: square"/>
   </g>
   <g id="patch_11">
    <path d="M 550.095109 364.248 
L 923.7125 364.248 
" style="fill: none; stroke: #000000; stroke-width: 0.8; stroke-linejoin: miter; stroke-linecap: square"/>
   </g>
   <g id="patch_12">
    <path d="M 550.095109 48.24 
L 923.7125 48.24 
" style="fill: none; stroke: #000000; stroke-width: 0.8; stroke-linejoin: miter; stroke-linecap: square"/>
   </g>
   <g id="legend_2">
    <g id="patch_13">
     <path d="M 703.951563 114.9525 
L 916.7125 114.9525 
Q 918.7125 114.9525 918.7125 112.9525 
L 918.7125 55.24 
Q 918.7125 53.24 916.7125 53.24 
L 703.951563 53.24 
Q 701.951563 53.24 701.951563 55.24 
L 701.951563 112.9525 
Q 701.951563 114.9525 703.951563 114.9525 
z
" style="fill: #ffffff; opacity: 0.8; stroke: #cccccc; stroke-linejoin: miter"/>
    </g>
    <g id="line2d_43">
     <path d="M 705.951563 61.338437 
L 725.951563 61.338437 
" style="fill: none; stroke: #1f77b4; stroke-width: 2; stroke-linecap: square"/>
    </g>
    <g id="line2d_44"/>
    <g id="text_35">
     <!-- sim: 100mg PO -->
     <g transform="translate(733.951563 64.838437) scale(0.1 -0.1)">
      <use xlink:href="#DejaVuSans-73"/>
      <use xlink:href="#DejaVuSans-69" transform="translate(52.099609 0)"/>
      <use xlink:href="#DejaVuSans-6d" transform="translate(79.882812 0)"/>
      <use xlink:href="#DejaVuSans-3a" transform="translate(177.294922 0)"/>
      <use xlink:href="#DejaVuSans-20" transform="translate(210.986328 0)"/>
      <use xlink:href="#DejaVuSans-31" transform="translate(242.773438 0)"/>
      <use xlink:href="#DejaVuSans-30" transform="translate(306.396484 0)"/>
      <use xlink:href="#DejaVuSans-30" transform="translate(370.019531 0)"/>
      <use xlink:href="#DejaVuSans-6d" transform="translate(433.642578 0)"/>
      <use xlink:href="#DejaVuSans-67" transform="translate(531.054688 0)"/>
      <use xlink:href="#DejaVuSans-20" transform="translate(594.53125 0)"/>
      <use xlink:href="#DejaVuSans-50" transform="translate(626.318359 0)"/>
      <use xlink:href="#DejaVuSans-4f" transform="translate(686.621094 0)"/>
     </g>
    </g>
    <g id="line2d_45">
     <path d="M 705.951563 76.016562 
L 725.951563 76.016562 
" style="fill: none; stroke: #d62728; stroke-width: 2; stroke-linecap: square"/>
    </g>
    <g id="line2d_46"/>
    <g id="text_36">
     <!-- sim: 100mg PO -->
     <g transform="translate(733.951563 79.516562) scale(0.1 -0.1)">
      <use xlink:href="#DejaVuSans-73"/>
      <use xlink:href="#DejaVuSans-69" transform="translate(52.099609 0)"/>
      <use xlink:href="#DejaVuSans-6d" transform="translate(79.882812 0)"/>
      <use xlink:href="#DejaVuSans-3a" transform="translate(177.294922 0)"/>
      <use xlink:href="#DejaVuSans-20" transform="translate(210.986328 0)"/>
      <use xlink:href="#DejaVuSans-31" transform="translate(242.773438 0)"/>
      <use xlink:href="#DejaVuSans-30" transform="translate(306.396484 0)"/>
      <use xlink:href="#DejaVuSans-30" transform="translate(370.019531 0)"/>
      <use xlink:href="#DejaVuSans-6d" transform="translate(433.642578 0)"/>
      <use xlink:href="#DejaVuSans-67" transform="translate(531.054688 0)"/>
      <use xlink:href="#DejaVuSans-20" transform="translate(594.53125 0)"/>
      <use xlink:href="#DejaVuSans-50" transform="translate(626.318359 0)"/>
      <use xlink:href="#DejaVuSans-4f" transform="translate(686.621094 0)"/>
     </g>
    </g>
    <g id="LineCollection_7">
     <path d="M 715.951563 95.694687 
L 715.951563 85.694687 
" style="fill: none; stroke: #d62728"/>
    </g>
    <g id="line2d_47">
     <path d="M 705.951563 90.694687 
L 725.951563 90.694687 
" style="fill: none; stroke-dasharray: 3.7,1.6; stroke-dashoffset: 0; stroke: #d62728"/>
    </g>
    <g id="line2d_48">
     <g>
      <use xlink:href="#me168ecaa8f" x="715.951563" y="90.694687" style="fill: #d62728; stroke: #000000; stroke-linejoin: miter"/>
     </g>
    </g>
    <g id="text_37">
     <!-- females exp: 100mg PO±SD (n=12) -->
     <g transform="translate(733.951563 94.194687) scale(0.1 -0.1)">
      <use xlink:href="#DejaVuSans-66"/>
      <use xlink:href="#DejaVuSans-65" transform="translate(35.205078 0)"/>
      <use xlink:href="#DejaVuSans-6d" transform="translate(96.728516 0)"/>
      <use xlink:href="#DejaVuSans-61" transform="translate(194.140625 0)"/>
      <use xlink:href="#DejaVuSans-6c" transform="translate(255.419922 0)"/>
      <use xlink:href="#DejaVuSans-65" transform="translate(283.203125 0)"/>
      <use xlink:href="#DejaVuSans-73" transform="translate(344.726562 0)"/>
      <use xlink:href="#DejaVuSans-20" transform="translate(396.826172 0)"/>
      <use xlink:href="#DejaVuSans-65" transform="translate(428.613281 0)"/>
      <use xlink:href="#DejaVuSans-78" transform="translate(488.386719 0)"/>
      <use xlink:href="#DejaVuSans-70" transform="translate(547.566406 0)"/>
      <use xlink:href="#DejaVuSans-3a" transform="translate(611.042969 0)"/>
      <use xlink:href="#DejaVuSans-20" transform="translate(644.734375 0)"/>
      <use xlink:href="#DejaVuSans-31" transform="translate(676.521484 0)"/>
      <use xlink:href="#DejaVuSans-30" transform="translate(740.144531 0)"/>
      <use xlink:href="#DejaVuSans-30" transform="translate(803.767578 0)"/>
      <use xlink:href="#DejaVuSans-6d" transform="translate(867.390625 0)"/>
      <use xlink:href="#DejaVuSans-67" transform="translate(964.802734 0)"/>
      <use xlink:href="#DejaVuSans-20" transform="translate(1028.279297 0)"/>
      <use xlink:href="#DejaVuSans-50" transform="translate(1060.066406 0)"/>
      <use xlink:href="#DejaVuSans-4f" transform="translate(1120.369141 0)"/>
      <use xlink:href="#DejaVuSans-b1" transform="translate(1199.080078 0)"/>
      <use xlink:href="#DejaVuSans-53" transform="translate(1282.869141 0)"/>
      <use xlink:href="#DejaVuSans-44" transform="translate(1346.345703 0)"/>
      <use xlink:href="#DejaVuSans-20" transform="translate(1423.347656 0)"/>
      <use xlink:href="#DejaVuSans-28" transform="translate(1455.134766 0)"/>
      <use xlink:href="#DejaVuSans-6e" transform="translate(1494.148438 0)"/>
      <use xlink:href="#DejaVuSans-3d" transform="translate(1557.527344 0)"/>
      <use xlink:href="#DejaVuSans-31" transform="translate(1641.316406 0)"/>
      <use xlink:href="#DejaVuSans-32" transform="translate(1704.939453 0)"/>
      <use xlink:href="#DejaVuSans-29" transform="translate(1768.5625 0)"/>
     </g>
    </g>
    <g id="LineCollection_8">
     <path d="M 715.951563 110.372812 
L 715.951563 100.372812 
" style="fill: none; stroke: #1f77b4"/>
    </g>
    <g id="line2d_49">
     <path d="M 705.951563 105.372812 
L 725.951563 105.372812 
" style="fill: none; stroke-dasharray: 3.7,1.6; stroke-dashoffset: 0; stroke: #1f77b4"/>
    </g>
    <g id="line2d_50">
     <g>
      <use xlink:href="#m1cf7a91c60" x="715.951563" y="105.372812" style="fill: #1f77b4; stroke: #000000; stroke-linejoin: miter"/>
     </g>
    </g>
    <g id="text_38">
     <!-- males exp: 100mg PO±SD (n=12) -->
     <g transform="translate(733.951563 108.872812) scale(0.1 -0.1)">
      <use xlink:href="#DejaVuSans-6d"/>
      <use xlink:href="#DejaVuSans-61" transform="translate(97.412109 0)"/>
      <use xlink:href="#DejaVuSans-6c" transform="translate(158.691406 0)"/>
      <use xlink:href="#DejaVuSans-65" transform="translate(186.474609 0)"/>
      <use xlink:href="#DejaVuSans-73" transform="translate(247.998047 0)"/>
      <use xlink:href="#DejaVuSans-20" transform="translate(300.097656 0)"/>
      <use xlink:href="#DejaVuSans-65" transform="translate(331.884766 0)"/>
      <use xlink:href="#DejaVuSans-78" transform="translate(391.658203 0)"/>
      <use xlink:href="#DejaVuSans-70" transform="translate(450.837891 0)"/>
      <use xlink:href="#DejaVuSans-3a" transform="translate(514.314453 0)"/>
      <use xlink:href="#DejaVuSans-20" transform="translate(548.005859 0)"/>
      <use xlink:href="#DejaVuSans-31" transform="translate(579.792969 0)"/>
      <use xlink:href="#DejaVuSans-30" transform="translate(643.416016 0)"/>
      <use xlink:href="#DejaVuSans-30" transform="translate(707.039062 0)"/>
      <use xlink:href="#DejaVuSans-6d" transform="translate(770.662109 0)"/>
      <use xlink:href="#DejaVuSans-67" transform="translate(868.074219 0)"/>
      <use xlink:href="#DejaVuSans-20" transform="translate(931.550781 0)"/>
      <use xlink:href="#DejaVuSans-50" transform="translate(963.337891 0)"/>
      <use xlink:href="#DejaVuSans-4f" transform="translate(1023.640625 0)"/>
      <use xlink:href="#DejaVuSans-b1" transform="translate(1102.351562 0)"/>
      <use xlink:href="#DejaVuSans-53" transform="translate(1186.140625 0)"/>
      <use xlink:href="#DejaVuSans-44" transform="translate(1249.617188 0)"/>
      <use xlink:href="#DejaVuSans-20" transform="translate(1326.619141 0)"/>
      <use xlink:href="#DejaVuSans-28" transform="translate(1358.40625 0)"/>
      <use xlink:href="#DejaVuSans-6e" transform="translate(1397.419922 0)"/>
      <use xlink:href="#DejaVuSans-3d" transform="translate(1460.798828 0)"/>
      <use xlink:href="#DejaVuSans-31" transform="translate(1544.587891 0)"/>
      <use xlink:href="#DejaVuSans-32" transform="translate(1608.210938 0)"/>
      <use xlink:href="#DejaVuSans-29" transform="translate(1671.833984 0)"/>
     </g>
    </g>
   </g>
  </g>
  <g id="text_39">
   <!-- Massana1997 -->
   <g transform="translate(383.88 26.196094) scale(0.25 -0.25)">
    <defs>
     <path id="DejaVuSans-Bold-4d" d="M 588 4666 
L 2119 4666 
L 3181 2169 
L 4250 4666 
L 5778 4666 
L 5778 0 
L 4641 0 
L 4641 3413 
L 3566 897 
L 2803 897 
L 1728 3413 
L 1728 0 
L 588 0 
L 588 4666 
z
" transform="scale(0.015625)"/>
     <path id="DejaVuSans-Bold-61" d="M 2106 1575 
Q 1756 1575 1579 1456 
Q 1403 1338 1403 1106 
Q 1403 894 1545 773 
Q 1688 653 1941 653 
Q 2256 653 2472 879 
Q 2688 1106 2688 1447 
L 2688 1575 
L 2106 1575 
z
M 3816 1997 
L 3816 0 
L 2688 0 
L 2688 519 
Q 2463 200 2181 54 
Q 1900 -91 1497 -91 
Q 953 -91 614 226 
Q 275 544 275 1050 
Q 275 1666 698 1953 
Q 1122 2241 2028 2241 
L 2688 2241 
L 2688 2328 
Q 2688 2594 2478 2717 
Q 2269 2841 1825 2841 
Q 1466 2841 1156 2769 
Q 847 2697 581 2553 
L 581 3406 
Q 941 3494 1303 3539 
Q 1666 3584 2028 3584 
Q 2975 3584 3395 3211 
Q 3816 2838 3816 1997 
z
" transform="scale(0.015625)"/>
     <path id="DejaVuSans-Bold-73" d="M 3272 3391 
L 3272 2541 
Q 2913 2691 2578 2766 
Q 2244 2841 1947 2841 
Q 1628 2841 1473 2761 
Q 1319 2681 1319 2516 
Q 1319 2381 1436 2309 
Q 1553 2238 1856 2203 
L 2053 2175 
Q 2913 2066 3209 1816 
Q 3506 1566 3506 1031 
Q 3506 472 3093 190 
Q 2681 -91 1863 -91 
Q 1516 -91 1145 -36 
Q 775 19 384 128 
L 384 978 
Q 719 816 1070 734 
Q 1422 653 1784 653 
Q 2113 653 2278 743 
Q 2444 834 2444 1013 
Q 2444 1163 2330 1236 
Q 2216 1309 1875 1350 
L 1678 1375 
Q 931 1469 631 1722 
Q 331 1975 331 2491 
Q 331 3047 712 3315 
Q 1094 3584 1881 3584 
Q 2191 3584 2531 3537 
Q 2872 3491 3272 3391 
z
" transform="scale(0.015625)"/>
     <path id="DejaVuSans-Bold-6e" d="M 4056 2131 
L 4056 0 
L 2931 0 
L 2931 347 
L 2931 1631 
Q 2931 2084 2911 2256 
Q 2891 2428 2841 2509 
Q 2775 2619 2662 2680 
Q 2550 2741 2406 2741 
Q 2056 2741 1856 2470 
Q 1656 2200 1656 1722 
L 1656 0 
L 538 0 
L 538 3500 
L 1656 3500 
L 1656 2988 
Q 1909 3294 2193 3439 
Q 2478 3584 2822 3584 
Q 3428 3584 3742 3212 
Q 4056 2841 4056 2131 
z
" transform="scale(0.015625)"/>
     <path id="DejaVuSans-Bold-31" d="M 750 831 
L 1813 831 
L 1813 3847 
L 722 3622 
L 722 4441 
L 1806 4666 
L 2950 4666 
L 2950 831 
L 4013 831 
L 4013 0 
L 750 0 
L 750 831 
z
" transform="scale(0.015625)"/>
     <path id="DejaVuSans-Bold-39" d="M 641 103 
L 641 966 
Q 928 831 1190 764 
Q 1453 697 1709 697 
Q 2247 697 2547 995 
Q 2847 1294 2900 1881 
Q 2688 1725 2447 1647 
Q 2206 1569 1925 1569 
Q 1209 1569 770 1986 
Q 331 2403 331 3084 
Q 331 3838 820 4291 
Q 1309 4744 2131 4744 
Q 3044 4744 3544 4128 
Q 4044 3513 4044 2388 
Q 4044 1231 3459 570 
Q 2875 -91 1856 -91 
Q 1528 -91 1228 -42 
Q 928 6 641 103 
z
M 2125 2350 
Q 2441 2350 2600 2554 
Q 2759 2759 2759 3169 
Q 2759 3575 2600 3781 
Q 2441 3988 2125 3988 
Q 1809 3988 1650 3781 
Q 1491 3575 1491 3169 
Q 1491 2759 1650 2554 
Q 1809 2350 2125 2350 
z
" transform="scale(0.015625)"/>
     <path id="DejaVuSans-Bold-37" d="M 428 4666 
L 3944 4666 
L 3944 3988 
L 2125 0 
L 953 0 
L 2675 3781 
L 428 3781 
L 428 4666 
z
" transform="scale(0.015625)"/>
    </defs>
    <use xlink:href="#DejaVuSans-Bold-4d"/>
    <use xlink:href="#DejaVuSans-Bold-61" transform="translate(99.511719 0)"/>
    <use xlink:href="#DejaVuSans-Bold-73" transform="translate(166.992188 0)"/>
    <use xlink:href="#DejaVuSans-Bold-73" transform="translate(226.513672 0)"/>
    <use xlink:href="#DejaVuSans-Bold-61" transform="translate(286.035156 0)"/>
    <use xlink:href="#DejaVuSans-Bold-6e" transform="translate(353.515625 0)"/>
    <use xlink:href="#DejaVuSans-Bold-61" transform="translate(424.707031 0)"/>
    <use xlink:href="#DejaVuSans-Bold-31" transform="translate(492.1875 0)"/>
    <use xlink:href="#DejaVuSans-Bold-39" transform="translate(561.767578 0)"/>
    <use xlink:href="#DejaVuSans-Bold-39" transform="translate(631.347656 0)"/>
    <use xlink:href="#DejaVuSans-Bold-37" transform="translate(700.927734 0)"/>
   </g>
  </g>
 </g>
 <defs>
  <clipPath id="p585ceb736c">
   <rect x="64.3925" y="48.24" width="373.617391" height="316.008"/>
  </clipPath>
  <clipPath id="p501adb1147">
   <rect x="550.095109" y="48.24" width="373.617391" height="316.008"/>
  </clipPath>
 </defs>
</svg>
