<?xml version="1.0" encoding="utf-8" standalone="no"?>
<!DOCTYPE svg PUBLIC "-//W3C//DTD SVG 1.1//EN"
  "http://www.w3.org/Graphics/SVG/1.1/DTD/svg11.dtd">
<svg xmlns:xlink="http://www.w3.org/1999/xlink" width="504.157344pt" height="414.385812pt" viewBox="0 0 504.157344 414.385812" xmlns="http://www.w3.org/2000/svg" version="1.1">
 <metadata>
  <rdf:RDF xmlns:dc="http://purl.org/dc/elements/1.1/" xmlns:cc="http://creativecommons.org/ns#" xmlns:rdf="http://www.w3.org/1999/02/22-rdf-syntax-ns#">
   <cc:Work>
    <dc:type rdf:resource="http://purl.org/dc/dcmitype/StillImage"/>
    <dc:date>2025-09-10T13:16:57.215955</dc:date>
    <dc:format>image/svg+xml</dc:format>
    <dc:creator>
     <cc:Agent>
      <dc:title>Matplotlib v3.10.6, https://matplotlib.org/</dc:title>
     </cc:Agent>
    </dc:creator>
   </cc:Work>
  </rdf:RDF>
 </metadata>
 <defs>
  <style type="text/css">*{stroke-linejoin: round; stroke-linecap: butt}</style>
 </defs>
 <g id="figure_1">
  <g id="patch_1">
   <path d="M 0 414.385812 
L 504.157344 414.385812 
L 504.157344 -0 
L 0 -0 
z
" style="fill: #ffffff"/>
  </g>
  <g id="axes_1">
   <g id="patch_2">
    <path d="M 57.753594 364.248 
L 487.413594 364.248 
L 487.413594 48.24 
L 57.753594 48.24 
z
" style="fill: #ffffff"/>
   </g>
   <g id="matplotlib.axis_1">
    <g id="xtick_1">
     <g id="line2d_1">
      <defs>
       <path id="m7837cbfcb8" d="M 0 0 
L 0 3.5 
" style="stroke: #000000; stroke-width: 0.8"/>
      </defs>
      <g>
       <use xlink:href="#m7837cbfcb8" x="57.753594" y="364.248" style="stroke: #000000; stroke-width: 0.8"/>
      </g>
     </g>
     <g id="text_1">
      <!-- 0 -->
      <g transform="translate(52.981719 382.645656) scale(0.15 -0.15)">
       <defs>
        <path id="DejaVuSans-30" d="M 2034 4250 
Q 1547 4250 1301 3770 
Q 1056 3291 1056 2328 
Q 1056 1369 1301 889 
Q 1547 409 2034 409 
Q 2525 409 2770 889 
Q 3016 1369 3016 2328 
Q 3016 3291 2770 3770 
Q 2525 4250 2034 4250 
z
M 2034 4750 
Q 2819 4750 3233 4129 
Q 3647 3509 3647 2328 
Q 3647 1150 3233 529 
Q 2819 -91 2034 -91 
Q 1250 -91 836 529 
Q 422 1150 422 2328 
Q 422 3509 836 4129 
Q 1250 4750 2034 4750 
z
" transform="scale(0.015625)"/>
       </defs>
       <use xlink:href="#DejaVuSans-30"/>
      </g>
     </g>
    </g>
    <g id="xtick_2">
     <g id="line2d_2">
      <g>
       <use xlink:href="#m7837cbfcb8" x="143.685594" y="364.248" style="stroke: #000000; stroke-width: 0.8"/>
      </g>
     </g>
     <g id="text_2">
      <!-- 5 -->
      <g transform="translate(138.913719 382.645656) scale(0.15 -0.15)">
       <defs>
        <path id="DejaVuSans-35" d="M 691 4666 
L 3169 4666 
L 3169 4134 
L 1269 4134 
L 1269 2991 
Q 1406 3038 1543 3061 
Q 1681 3084 1819 3084 
Q 2600 3084 3056 2656 
Q 3513 2228 3513 1497 
Q 3513 744 3044 326 
Q 2575 -91 1722 -91 
Q 1428 -91 1123 -41 
Q 819 9 494 109 
L 494 744 
Q 775 591 1075 516 
Q 1375 441 1709 441 
Q 2250 441 2565 725 
Q 2881 1009 2881 1497 
Q 2881 1984 2565 2268 
Q 2250 2553 1709 2553 
Q 1456 2553 1204 2497 
Q 953 2441 691 2322 
L 691 4666 
z
" transform="scale(0.015625)"/>
       </defs>
       <use xlink:href="#DejaVuSans-35"/>
      </g>
     </g>
    </g>
    <g id="xtick_3">
     <g id="line2d_3">
      <g>
       <use xlink:href="#m7837cbfcb8" x="229.617594" y="364.248" style="stroke: #000000; stroke-width: 0.8"/>
      </g>
     </g>
     <g id="text_3">
      <!-- 10 -->
      <g transform="translate(220.073844 382.645656) scale(0.15 -0.15)">
       <defs>
        <path id="DejaVuSans-31" d="M 794 531 
L 1825 531 
L 1825 4091 
L 703 3866 
L 703 4441 
L 1819 4666 
L 2450 4666 
L 2450 531 
L 3481 531 
L 3481 0 
L 794 0 
L 794 531 
z
" transform="scale(0.015625)"/>
       </defs>
       <use xlink:href="#DejaVuSans-31"/>
       <use xlink:href="#DejaVuSans-30" transform="translate(63.623047 0)"/>
      </g>
     </g>
    </g>
    <g id="xtick_4">
     <g id="line2d_4">
      <g>
       <use xlink:href="#m7837cbfcb8" x="315.549594" y="364.248" style="stroke: #000000; stroke-width: 0.8"/>
      </g>
     </g>
     <g id="text_4">
      <!-- 15 -->
      <g transform="translate(306.005844 382.645656) scale(0.15 -0.15)">
       <use xlink:href="#DejaVuSans-31"/>
       <use xlink:href="#DejaVuSans-35" transform="translate(63.623047 0)"/>
      </g>
     </g>
    </g>
    <g id="xtick_5">
     <g id="line2d_5">
      <g>
       <use xlink:href="#m7837cbfcb8" x="401.481594" y="364.248" style="stroke: #000000; stroke-width: 0.8"/>
      </g>
     </g>
     <g id="text_5">
      <!-- 20 -->
      <g transform="translate(391.937844 382.645656) scale(0.15 -0.15)">
       <defs>
        <path id="DejaVuSans-32" d="M 1228 531 
L 3431 531 
L 3431 0 
L 469 0 
L 469 531 
Q 828 903 1448 1529 
Q 2069 2156 2228 2338 
Q 2531 2678 2651 2914 
Q 2772 3150 2772 3378 
Q 2772 3750 2511 3984 
Q 2250 4219 1831 4219 
Q 1534 4219 1204 4116 
Q 875 4013 500 3803 
L 500 4441 
Q 881 4594 1212 4672 
Q 1544 4750 1819 4750 
Q 2544 4750 2975 4387 
Q 3406 4025 3406 3419 
Q 3406 3131 3298 2873 
Q 3191 2616 2906 2266 
Q 2828 2175 2409 1742 
Q 1991 1309 1228 531 
z
" transform="scale(0.015625)"/>
       </defs>
       <use xlink:href="#DejaVuSans-32"/>
       <use xlink:href="#DejaVuSans-30" transform="translate(63.623047 0)"/>
      </g>
     </g>
    </g>
    <g id="xtick_6">
     <g id="line2d_6">
      <g>
       <use xlink:href="#m7837cbfcb8" x="487.413594" y="364.248" style="stroke: #000000; stroke-width: 0.8"/>
      </g>
     </g>
     <g id="text_6">
      <!-- 25 -->
      <g transform="translate(477.869844 382.645656) scale(0.15 -0.15)">
       <use xlink:href="#DejaVuSans-32"/>
       <use xlink:href="#DejaVuSans-35" transform="translate(63.623047 0)"/>
      </g>
     </g>
    </g>
    <g id="text_7">
     <!-- time [hr] -->
     <g transform="translate(227.509062 403.442375) scale(0.18 -0.18)">
      <defs>
       <path id="DejaVuSans-Bold-74" d="M 1759 4494 
L 1759 3500 
L 2913 3500 
L 2913 2700 
L 1759 2700 
L 1759 1216 
Q 1759 972 1856 886 
Q 1953 800 2241 800 
L 2816 800 
L 2816 0 
L 1856 0 
Q 1194 0 917 276 
Q 641 553 641 1216 
L 641 2700 
L 84 2700 
L 84 3500 
L 641 3500 
L 641 4494 
L 1759 4494 
z
" transform="scale(0.015625)"/>
       <path id="DejaVuSans-Bold-69" d="M 538 3500 
L 1656 3500 
L 1656 0 
L 538 0 
L 538 3500 
z
M 538 4863 
L 1656 4863 
L 1656 3950 
L 538 3950 
L 538 4863 
z
" transform="scale(0.015625)"/>
       <path id="DejaVuSans-Bold-6d" d="M 3781 2919 
Q 3994 3244 4286 3414 
Q 4578 3584 4928 3584 
Q 5531 3584 5847 3212 
Q 6163 2841 6163 2131 
L 6163 0 
L 5038 0 
L 5038 1825 
Q 5041 1866 5042 1909 
Q 5044 1953 5044 2034 
Q 5044 2406 4934 2573 
Q 4825 2741 4581 2741 
Q 4263 2741 4089 2478 
Q 3916 2216 3909 1719 
L 3909 0 
L 2784 0 
L 2784 1825 
Q 2784 2406 2684 2573 
Q 2584 2741 2328 2741 
Q 2006 2741 1831 2477 
Q 1656 2213 1656 1722 
L 1656 0 
L 531 0 
L 531 3500 
L 1656 3500 
L 1656 2988 
Q 1863 3284 2130 3434 
Q 2397 3584 2719 3584 
Q 3081 3584 3359 3409 
Q 3638 3234 3781 2919 
z
" transform="scale(0.015625)"/>
       <path id="DejaVuSans-Bold-65" d="M 4031 1759 
L 4031 1441 
L 1416 1441 
Q 1456 1047 1700 850 
Q 1944 653 2381 653 
Q 2734 653 3104 758 
Q 3475 863 3866 1075 
L 3866 213 
Q 3469 63 3072 -14 
Q 2675 -91 2278 -91 
Q 1328 -91 801 392 
Q 275 875 275 1747 
Q 275 2603 792 3093 
Q 1309 3584 2216 3584 
Q 3041 3584 3536 3087 
Q 4031 2591 4031 1759 
z
M 2881 2131 
Q 2881 2450 2695 2645 
Q 2509 2841 2209 2841 
Q 1884 2841 1681 2658 
Q 1478 2475 1428 2131 
L 2881 2131 
z
" transform="scale(0.015625)"/>
       <path id="DejaVuSans-Bold-20" transform="scale(0.015625)"/>
       <path id="DejaVuSans-Bold-5b" d="M 550 4863 
L 2491 4863 
L 2491 4159 
L 1613 4159 
L 1613 -141 
L 2491 -141 
L 2491 -844 
L 550 -844 
L 550 4863 
z
" transform="scale(0.015625)"/>
       <path id="DejaVuSans-Bold-68" d="M 4056 2131 
L 4056 0 
L 2931 0 
L 2931 347 
L 2931 1625 
Q 2931 2084 2911 2256 
Q 2891 2428 2841 2509 
Q 2775 2619 2662 2680 
Q 2550 2741 2406 2741 
Q 2056 2741 1856 2470 
Q 1656 2200 1656 1722 
L 1656 0 
L 538 0 
L 538 4863 
L 1656 4863 
L 1656 2988 
Q 1909 3294 2193 3439 
Q 2478 3584 2822 3584 
Q 3428 3584 3742 3212 
Q 4056 2841 4056 2131 
z
" transform="scale(0.015625)"/>
       <path id="DejaVuSans-Bold-72" d="M 3138 2547 
Q 2991 2616 2845 2648 
Q 2700 2681 2553 2681 
Q 2122 2681 1889 2404 
Q 1656 2128 1656 1613 
L 1656 0 
L 538 0 
L 538 3500 
L 1656 3500 
L 1656 2925 
Q 1872 3269 2151 3426 
Q 2431 3584 2822 3584 
Q 2878 3584 2943 3579 
Q 3009 3575 3134 3559 
L 3138 2547 
z
" transform="scale(0.015625)"/>
       <path id="DejaVuSans-Bold-5d" d="M 2375 -844 
L 434 -844 
L 434 -141 
L 1313 -141 
L 1313 4159 
L 434 4159 
L 434 4863 
L 2375 4863 
L 2375 -844 
z
" transform="scale(0.015625)"/>
      </defs>
      <use xlink:href="#DejaVuSans-Bold-74"/>
      <use xlink:href="#DejaVuSans-Bold-69" transform="translate(47.802734 0)"/>
      <use xlink:href="#DejaVuSans-Bold-6d" transform="translate(82.080078 0)"/>
      <use xlink:href="#DejaVuSans-Bold-65" transform="translate(186.279297 0)"/>
      <use xlink:href="#DejaVuSans-Bold-20" transform="translate(254.101562 0)"/>
      <use xlink:href="#DejaVuSans-Bold-5b" transform="translate(288.916016 0)"/>
      <use xlink:href="#DejaVuSans-Bold-68" transform="translate(334.619141 0)"/>
      <use xlink:href="#DejaVuSans-Bold-72" transform="translate(405.810547 0)"/>
      <use xlink:href="#DejaVuSans-Bold-5d" transform="translate(455.126953 0)"/>
     </g>
    </g>
   </g>
   <g id="matplotlib.axis_2">
    <g id="ytick_1">
     <g id="line2d_7">
      <defs>
       <path id="mfb6a3512ee" d="M 0 0 
L -3.5 0 
" style="stroke: #000000; stroke-width: 0.8"/>
      </defs>
      <g>
       <use xlink:href="#mfb6a3512ee" x="57.753594" y="360.204647" style="stroke: #000000; stroke-width: 0.8"/>
      </g>
     </g>
     <g id="text_8">
      <!-- −5 -->
      <g transform="translate(28.640313 365.903475) scale(0.15 -0.15)">
       <defs>
        <path id="DejaVuSans-2212" d="M 678 2272 
L 4684 2272 
L 4684 1741 
L 678 1741 
L 678 2272 
z
" transform="scale(0.015625)"/>
       </defs>
       <use xlink:href="#DejaVuSans-2212"/>
       <use xlink:href="#DejaVuSans-35" transform="translate(83.789062 0)"/>
      </g>
     </g>
    </g>
    <g id="ytick_2">
     <g id="line2d_8">
      <g>
       <use xlink:href="#mfb6a3512ee" x="57.753594" y="298.32942" style="stroke: #000000; stroke-width: 0.8"/>
      </g>
     </g>
     <g id="text_9">
      <!-- 0 -->
      <g transform="translate(41.209844 304.028248) scale(0.15 -0.15)">
       <use xlink:href="#DejaVuSans-30"/>
      </g>
     </g>
    </g>
    <g id="ytick_3">
     <g id="line2d_9">
      <g>
       <use xlink:href="#mfb6a3512ee" x="57.753594" y="236.454193" style="stroke: #000000; stroke-width: 0.8"/>
      </g>
     </g>
     <g id="text_10">
      <!-- 5 -->
      <g transform="translate(41.209844 242.153021) scale(0.15 -0.15)">
       <use xlink:href="#DejaVuSans-35"/>
      </g>
     </g>
    </g>
    <g id="ytick_4">
     <g id="line2d_10">
      <g>
       <use xlink:href="#mfb6a3512ee" x="57.753594" y="174.578966" style="stroke: #000000; stroke-width: 0.8"/>
      </g>
     </g>
     <g id="text_11">
      <!-- 10 -->
      <g transform="translate(31.666094 180.277795) scale(0.15 -0.15)">
       <use xlink:href="#DejaVuSans-31"/>
       <use xlink:href="#DejaVuSans-30" transform="translate(63.623047 0)"/>
      </g>
     </g>
    </g>
    <g id="ytick_5">
     <g id="line2d_11">
      <g>
       <use xlink:href="#mfb6a3512ee" x="57.753594" y="112.703739" style="stroke: #000000; stroke-width: 0.8"/>
      </g>
     </g>
     <g id="text_12">
      <!-- 15 -->
      <g transform="translate(31.666094 118.402568) scale(0.15 -0.15)">
       <use xlink:href="#DejaVuSans-31"/>
       <use xlink:href="#DejaVuSans-35" transform="translate(63.623047 0)"/>
      </g>
     </g>
    </g>
    <g id="ytick_6">
     <g id="line2d_12">
      <g>
       <use xlink:href="#mfb6a3512ee" x="57.753594" y="50.828513" style="stroke: #000000; stroke-width: 0.8"/>
      </g>
     </g>
     <g id="text_13">
      <!-- 20 -->
      <g transform="translate(31.666094 56.527341) scale(0.15 -0.15)">
       <use xlink:href="#DejaVuSans-32"/>
       <use xlink:href="#DejaVuSans-30" transform="translate(63.623047 0)"/>
      </g>
     </g>
    </g>
    <g id="text_14">
     <!-- captopril [µM] -->
     <g transform="translate(20.877188 278.568844) rotate(-90) scale(0.18 -0.18)">
      <defs>
       <path id="DejaVuSans-Bold-63" d="M 3366 3391 
L 3366 2478 
Q 3138 2634 2908 2709 
Q 2678 2784 2431 2784 
Q 1963 2784 1702 2511 
Q 1441 2238 1441 1747 
Q 1441 1256 1702 982 
Q 1963 709 2431 709 
Q 2694 709 2930 787 
Q 3166 866 3366 1019 
L 3366 103 
Q 3103 6 2833 -42 
Q 2563 -91 2291 -91 
Q 1344 -91 809 395 
Q 275 881 275 1747 
Q 275 2613 809 3098 
Q 1344 3584 2291 3584 
Q 2566 3584 2833 3536 
Q 3100 3488 3366 3391 
z
" transform="scale(0.015625)"/>
       <path id="DejaVuSans-Bold-61" d="M 2106 1575 
Q 1756 1575 1579 1456 
Q 1403 1338 1403 1106 
Q 1403 894 1545 773 
Q 1688 653 1941 653 
Q 2256 653 2472 879 
Q 2688 1106 2688 1447 
L 2688 1575 
L 2106 1575 
z
M 3816 1997 
L 3816 0 
L 2688 0 
L 2688 519 
Q 2463 200 2181 54 
Q 1900 -91 1497 -91 
Q 953 -91 614 226 
Q 275 544 275 1050 
Q 275 1666 698 1953 
Q 1122 2241 2028 2241 
L 2688 2241 
L 2688 2328 
Q 2688 2594 2478 2717 
Q 2269 2841 1825 2841 
Q 1466 2841 1156 2769 
Q 847 2697 581 2553 
L 581 3406 
Q 941 3494 1303 3539 
Q 1666 3584 2028 3584 
Q 2975 3584 3395 3211 
Q 3816 2838 3816 1997 
z
" transform="scale(0.015625)"/>
       <path id="DejaVuSans-Bold-70" d="M 1656 506 
L 1656 -1331 
L 538 -1331 
L 538 3500 
L 1656 3500 
L 1656 2988 
Q 1888 3294 2169 3439 
Q 2450 3584 2816 3584 
Q 3463 3584 3878 3070 
Q 4294 2556 4294 1747 
Q 4294 938 3878 423 
Q 3463 -91 2816 -91 
Q 2450 -91 2169 54 
Q 1888 200 1656 506 
z
M 2400 2772 
Q 2041 2772 1848 2508 
Q 1656 2244 1656 1747 
Q 1656 1250 1848 986 
Q 2041 722 2400 722 
Q 2759 722 2948 984 
Q 3138 1247 3138 1747 
Q 3138 2247 2948 2509 
Q 2759 2772 2400 2772 
z
" transform="scale(0.015625)"/>
       <path id="DejaVuSans-Bold-6f" d="M 2203 2784 
Q 1831 2784 1636 2517 
Q 1441 2250 1441 1747 
Q 1441 1244 1636 976 
Q 1831 709 2203 709 
Q 2569 709 2762 976 
Q 2956 1244 2956 1747 
Q 2956 2250 2762 2517 
Q 2569 2784 2203 2784 
z
M 2203 3584 
Q 3106 3584 3614 3096 
Q 4122 2609 4122 1747 
Q 4122 884 3614 396 
Q 3106 -91 2203 -91 
Q 1297 -91 786 396 
Q 275 884 275 1747 
Q 275 2609 786 3096 
Q 1297 3584 2203 3584 
z
" transform="scale(0.015625)"/>
       <path id="DejaVuSans-Bold-6c" d="M 538 4863 
L 1656 4863 
L 1656 0 
L 538 0 
L 538 4863 
z
" transform="scale(0.015625)"/>
       <path id="DejaVuSans-Bold-b5" d="M 544 -1338 
L 544 3500 
L 1672 3500 
L 1672 1466 
Q 1672 1103 1828 926 
Q 1984 750 2303 750 
Q 2625 750 2781 926 
Q 2938 1103 2938 1466 
L 2938 3500 
L 4063 3500 
L 4063 1159 
Q 4063 938 4114 850 
Q 4166 763 4288 763 
Q 4344 763 4395 778 
Q 4447 794 4506 831 
L 4506 50 
Q 4341 -22 4195 -56 
Q 4050 -91 3909 -91 
Q 3631 -91 3454 26 
Q 3278 144 3169 403 
Q 3022 156 2811 32 
Q 2600 -91 2322 -91 
Q 2091 -91 1928 -17 
Q 1766 56 1672 206 
L 1672 -1338 
L 544 -1338 
z
" transform="scale(0.015625)"/>
       <path id="DejaVuSans-Bold-4d" d="M 588 4666 
L 2119 4666 
L 3181 2169 
L 4250 4666 
L 5778 4666 
L 5778 0 
L 4641 0 
L 4641 3413 
L 3566 897 
L 2803 897 
L 1728 3413 
L 1728 0 
L 588 0 
L 588 4666 
z
" transform="scale(0.015625)"/>
      </defs>
      <use xlink:href="#DejaVuSans-Bold-63"/>
      <use xlink:href="#DejaVuSans-Bold-61" transform="translate(59.277344 0)"/>
      <use xlink:href="#DejaVuSans-Bold-70" transform="translate(126.757812 0)"/>
      <use xlink:href="#DejaVuSans-Bold-74" transform="translate(198.339844 0)"/>
      <use xlink:href="#DejaVuSans-Bold-6f" transform="translate(246.142578 0)"/>
      <use xlink:href="#DejaVuSans-Bold-70" transform="translate(314.84375 0)"/>
      <use xlink:href="#DejaVuSans-Bold-72" transform="translate(386.425781 0)"/>
      <use xlink:href="#DejaVuSans-Bold-69" transform="translate(435.742188 0)"/>
      <use xlink:href="#DejaVuSans-Bold-6c" transform="translate(470.019531 0)"/>
      <use xlink:href="#DejaVuSans-Bold-20" transform="translate(504.296875 0)"/>
      <use xlink:href="#DejaVuSans-Bold-5b" transform="translate(539.111328 0)"/>
      <use xlink:href="#DejaVuSans-Bold-b5" transform="translate(584.814453 0)"/>
      <use xlink:href="#DejaVuSans-Bold-4d" transform="translate(658.398438 0)"/>
      <use xlink:href="#DejaVuSans-Bold-5d" transform="translate(757.910156 0)"/>
     </g>
    </g>
   </g>
   <g id="LineCollection_1">
    <path d="M 66.891857 285.156731 
L 66.891857 191.584857 
" clip-path="url(#p209557b736)" style="fill: none; stroke: #9333ff"/>
    <path d="M 75.288015 276.612065 
L 75.288015 197.735225 
" clip-path="url(#p209557b736)" style="fill: none; stroke: #9333ff"/>
    <path d="M 82.655193 254.262372 
L 82.655193 244.217738 
" clip-path="url(#p209557b736)" style="fill: none; stroke: #9333ff"/>
    <path d="M 90.913974 266.318194 
L 90.913974 259.021562 
" clip-path="url(#p209557b736)" style="fill: none; stroke: #9333ff"/>
    <path d="M 125.695942 291.657183 
L 125.695942 290.134807 
" clip-path="url(#p209557b736)" style="fill: none; stroke: #9333ff"/>
    <path d="M 160.910244 295.595764 
L 160.910244 292.045275 
" clip-path="url(#p209557b736)" style="fill: none; stroke: #9333ff"/>
    <path d="M 194.236285 296.891666 
L 194.236285 294.615008 
" clip-path="url(#p209557b736)" style="fill: none; stroke: #9333ff"/>
    <path d="M 262.127454 297.644712 
L 262.127454 295.422963 
" clip-path="url(#p209557b736)" style="fill: none; stroke: #9333ff"/>
    <path d="M 468.576784 298.874903 
L 468.576784 296.627111 
" clip-path="url(#p209557b736)" style="fill: none; stroke: #9333ff"/>
   </g>
   <g id="LineCollection_2">
    <path d="M 68.56193 279.100622 
L 68.56193 243.295245 
" clip-path="url(#p209557b736)" style="fill: none; stroke: #3c33ff"/>
    <path d="M 79.948058 272.112538 
L 79.948058 202.247994 
" clip-path="url(#p209557b736)" style="fill: none; stroke: #3c33ff"/>
    <path d="M 91.938915 267.451636 
L 91.938915 239.483664 
" clip-path="url(#p209557b736)" style="fill: none; stroke: #3c33ff"/>
    <path d="M 124.957878 288.14118 
L 124.957878 284.51171 
" clip-path="url(#p209557b736)" style="fill: none; stroke: #3c33ff"/>
    <path d="M 160.192382 293.487908 
L 160.192382 287.864404 
" clip-path="url(#p209557b736)" style="fill: none; stroke: #3c33ff"/>
    <path d="M 194.575687 294.728201 
L 194.575687 290.014152 
" clip-path="url(#p209557b736)" style="fill: none; stroke: #3c33ff"/>
    <path d="M 262.478978 295.743517 
L 262.478978 292.356787 
" clip-path="url(#p209557b736)" style="fill: none; stroke: #3c33ff"/>
    <path d="M 469.929005 297.779228 
L 469.929005 295.612821 
" clip-path="url(#p209557b736)" style="fill: none; stroke: #3c33ff"/>
   </g>
   <g id="LineCollection_3">
    <path d="M 64.156439 260.505776 
L 64.156439 196.857216 
" clip-path="url(#p209557b736)" style="fill: none; stroke: #338dff"/>
    <path d="M 74.521667 349.884 
L 74.521667 62.604 
" clip-path="url(#p209557b736)" style="fill: none; stroke: #338dff"/>
    <path d="M 83.73266 253.323456 
L 83.73266 202.706054 
" clip-path="url(#p209557b736)" style="fill: none; stroke: #338dff"/>
    <path d="M 92.943652 285.748223 
L 92.943652 203.528751 
" clip-path="url(#p209557b736)" style="fill: none; stroke: #338dff"/>
    <path d="M 125.155862 286.425924 
L 125.155862 271.081755 
" clip-path="url(#p209557b736)" style="fill: none; stroke: #338dff"/>
    <path d="M 159.55937 291.229426 
L 159.55937 273.389428 
" clip-path="url(#p209557b736)" style="fill: none; stroke: #338dff"/>
    <path d="M 193.995202 289.693643 
L 193.995202 278.564975 
" clip-path="url(#p209557b736)" style="fill: none; stroke: #338dff"/>
    <path d="M 261.975262 292.450026 
L 261.975262 279.551704 
" clip-path="url(#p209557b736)" style="fill: none; stroke: #338dff"/>
    <path d="M 468.707427 292.964503 
L 468.707427 287.719367 
" clip-path="url(#p209557b736)" style="fill: none; stroke: #338dff"/>
   </g>
   <g id="LineCollection_4">
    <path d="M 74.170144 265.981216 
L 74.170144 253.399462 
" clip-path="url(#p209557b736)" style="fill: none; stroke: #33ffd7"/>
    <path d="M 83.364974 277.912655 
L 83.364974 262.047767 
" clip-path="url(#p209557b736)" style="fill: none; stroke: #33ffd7"/>
    <path d="M 91.704566 277.758199 
L 91.704566 268.61272 
" clip-path="url(#p209557b736)" style="fill: none; stroke: #33ffd7"/>
    <path d="M 126.886543 290.238094 
L 126.886543 278.258739 
" clip-path="url(#p209557b736)" style="fill: none; stroke: #33ffd7"/>
    <path d="M 159.462398 287.070571 
L 159.462398 284.373962 
" clip-path="url(#p209557b736)" style="fill: none; stroke: #33ffd7"/>
    <path d="M 185.603084 287.367034 
L 185.603084 281.16819 
" clip-path="url(#p209557b736)" style="fill: none; stroke: #33ffd7"/>
    <path d="M 255.459283 286.865885 
L 255.459283 284.63482 
" clip-path="url(#p209557b736)" style="fill: none; stroke: #33ffd7"/>
    <path d="M 466.932301 290.37952 
L 466.932301 286.380208 
" clip-path="url(#p209557b736)" style="fill: none; stroke: #33ffd7"/>
   </g>
   <g id="line2d_13">
    <path d="M 57.753594 298.32942 
L 59.850335 224.329543 
L 61.947075 202.36218 
L 64.043816 195.180878 
L 66.140557 195.046538 
L 68.237298 198.738229 
L 70.334039 204.408393 
L 78.721002 230.532259 
L 80.817743 236.300312 
L 82.914483 241.56953 
L 85.011224 246.340819 
L 87.107965 250.635578 
L 89.204706 254.485764 
L 91.301447 257.927899 
L 93.398187 260.999518 
L 95.494928 263.737146 
L 97.591669 266.175201 
L 99.68841 268.345476 
L 101.785151 270.276957 
L 103.881891 271.99584 
L 105.978632 273.52566 
L 108.075373 274.88747 
L 110.172114 276.100055 
L 114.365595 278.142581 
L 118.559077 279.765909 
L 122.752559 281.058839 
L 126.94604 282.09125 
L 131.139522 282.918093 
L 137.429744 283.864862 
L 143.719967 284.553175 
L 152.10693 285.196981 
L 162.590634 285.720925 
L 175.171079 286.112174 
L 194.041746 286.456784 
L 225.492858 286.77693 
L 292.588563 287.187295 
L 487.585458 288.088215 
L 487.585458 288.088215 
" clip-path="url(#p209557b736)" style="fill: none; stroke: #9333ff; stroke-width: 2; stroke-linecap: square"/>
   </g>
   <g id="line2d_14">
    <path d="M 66.891857 238.370794 
L 75.288015 237.173645 
L 82.655193 249.240055 
L 90.913974 262.669878 
L 125.695942 290.895995 
L 160.910244 293.82052 
L 194.236285 295.753337 
L 262.127454 296.533837 
L 468.576784 297.751007 
" clip-path="url(#p209557b736)" style="fill: none; stroke-dasharray: 3.7,1.6; stroke-dashoffset: 0; stroke: #9333ff"/>
    <defs>
     <path id="m1f21dce3a6" d="M -3 3 
L 3 3 
L 3 -3 
L -3 -3 
z
" style="stroke: #000000; stroke-linejoin: miter"/>
    </defs>
    <g clip-path="url(#p209557b736)">
     <use xlink:href="#m1f21dce3a6" x="66.891857" y="238.370794" style="fill: #9333ff; stroke: #000000; stroke-linejoin: miter"/>
     <use xlink:href="#m1f21dce3a6" x="75.288015" y="237.173645" style="fill: #9333ff; stroke: #000000; stroke-linejoin: miter"/>
     <use xlink:href="#m1f21dce3a6" x="82.655193" y="249.240055" style="fill: #9333ff; stroke: #000000; stroke-linejoin: miter"/>
     <use xlink:href="#m1f21dce3a6" x="90.913974" y="262.669878" style="fill: #9333ff; stroke: #000000; stroke-linejoin: miter"/>
     <use xlink:href="#m1f21dce3a6" x="125.695942" y="290.895995" style="fill: #9333ff; stroke: #000000; stroke-linejoin: miter"/>
     <use xlink:href="#m1f21dce3a6" x="160.910244" y="293.82052" style="fill: #9333ff; stroke: #000000; stroke-linejoin: miter"/>
     <use xlink:href="#m1f21dce3a6" x="194.236285" y="295.753337" style="fill: #9333ff; stroke: #000000; stroke-linejoin: miter"/>
     <use xlink:href="#m1f21dce3a6" x="262.127454" y="296.533837" style="fill: #9333ff; stroke: #000000; stroke-linejoin: miter"/>
     <use xlink:href="#m1f21dce3a6" x="468.576784" y="297.751007" style="fill: #9333ff; stroke: #000000; stroke-linejoin: miter"/>
    </g>
   </g>
   <g id="line2d_15">
    <path d="M 57.753594 298.32942 
L 59.850335 230.48491 
L 61.947075 210.432495 
L 64.043816 204.018551 
L 66.140557 203.905055 
L 68.237298 207.222618 
L 70.334039 212.351 
L 74.52752 224.49724 
L 78.721002 236.340259 
L 80.817743 241.700146 
L 82.914483 246.612938 
L 85.011224 251.073967 
L 87.107965 255.098832 
L 89.204706 258.714072 
L 91.301447 261.951399 
L 93.398187 264.844185 
L 95.494928 267.425402 
L 97.591669 269.72645 
L 99.68841 271.77656 
L 101.785151 273.602539 
L 103.881891 275.22872 
L 105.978632 276.677038 
L 108.075373 277.967171 
L 112.268855 280.141334 
L 116.462336 281.87016 
L 120.655818 283.247732 
L 124.849299 284.348226 
L 129.042781 285.230036 
L 135.333003 286.240477 
L 141.623226 286.975897 
L 150.010189 287.664917 
L 160.493893 288.227294 
L 173.074338 288.649288 
L 191.945005 289.024137 
L 223.396117 289.377391 
L 286.298341 289.812134 
L 447.747383 290.652148 
L 487.585458 290.841532 
L 487.585458 290.841532 
" clip-path="url(#p209557b736)" style="fill: none; stroke: #3c33ff; stroke-width: 2; stroke-linecap: square"/>
   </g>
   <g id="line2d_16">
    <path d="M 68.56193 261.197934 
L 79.948058 237.180266 
L 91.938915 253.46765 
L 124.957878 286.326445 
L 160.192382 290.676156 
L 194.575687 292.371177 
L 262.478978 294.050152 
L 469.929005 296.696025 
" clip-path="url(#p209557b736)" style="fill: none; stroke-dasharray: 3.7,1.6; stroke-dashoffset: 0; stroke: #3c33ff"/>
    <defs>
     <path id="m838d537955" d="M -3 3 
L 3 3 
L 3 -3 
L -3 -3 
z
" style="stroke: #000000; stroke-linejoin: miter"/>
    </defs>
    <g clip-path="url(#p209557b736)">
     <use xlink:href="#m838d537955" x="68.56193" y="261.197934" style="fill: #3c33ff; stroke: #000000; stroke-linejoin: miter"/>
     <use xlink:href="#m838d537955" x="79.948058" y="237.180266" style="fill: #3c33ff; stroke: #000000; stroke-linejoin: miter"/>
     <use xlink:href="#m838d537955" x="91.938915" y="253.46765" style="fill: #3c33ff; stroke: #000000; stroke-linejoin: miter"/>
     <use xlink:href="#m838d537955" x="124.957878" y="286.326445" style="fill: #3c33ff; stroke: #000000; stroke-linejoin: miter"/>
     <use xlink:href="#m838d537955" x="160.192382" y="290.676156" style="fill: #3c33ff; stroke: #000000; stroke-linejoin: miter"/>
     <use xlink:href="#m838d537955" x="194.575687" y="292.371177" style="fill: #3c33ff; stroke: #000000; stroke-linejoin: miter"/>
     <use xlink:href="#m838d537955" x="262.478978" y="294.050152" style="fill: #3c33ff; stroke: #000000; stroke-linejoin: miter"/>
     <use xlink:href="#m838d537955" x="469.929005" y="296.696025" style="fill: #3c33ff; stroke: #000000; stroke-linejoin: miter"/>
    </g>
   </g>
   <g id="line2d_17">
    <path d="M 57.753594 298.32942 
L 59.850335 221.226458 
L 61.947075 197.889691 
L 64.043816 190.003904 
L 66.140557 189.625705 
L 68.237298 193.3479 
L 70.334039 199.197427 
L 78.721002 226.406133 
L 80.817743 232.426534 
L 82.914483 237.926718 
L 85.011224 242.906966 
L 87.107965 247.389327 
L 89.204706 251.407073 
L 91.301447 254.998332 
L 93.398187 258.202334 
L 95.494928 261.057269 
L 97.591669 263.599128 
L 99.68841 265.861158 
L 101.785151 267.873667 
L 103.881891 269.664046 
L 105.978632 271.256896 
L 108.075373 272.674228 
L 110.172114 273.935674 
L 114.365595 276.058885 
L 118.559077 277.744278 
L 122.752559 279.084646 
L 126.94604 280.153004 
L 131.139522 281.006764 
L 137.429744 281.981084 
L 143.719967 282.685737 
L 152.10693 283.339579 
L 162.590634 283.864226 
L 175.171079 284.246593 
L 194.041746 284.568508 
L 225.492858 284.842293 
L 292.588563 285.149049 
L 487.585458 285.77238 
L 487.585458 285.77238 
" clip-path="url(#p209557b736)" style="fill: none; stroke: #338dff; stroke-width: 2; stroke-linecap: square"/>
   </g>
   <g id="line2d_18">
    <path d="M 64.156439 228.681496 
L 74.521667 206.244 
L 83.73266 228.014755 
L 92.943652 244.638487 
L 125.155862 278.753839 
L 159.55937 282.309427 
L 193.995202 284.129309 
L 261.975262 286.000865 
L 468.707427 290.341935 
" clip-path="url(#p209557b736)" style="fill: none; stroke-dasharray: 3.7,1.6; stroke-dashoffset: 0; stroke: #338dff"/>
    <defs>
     <path id="m2bac5749b3" d="M -3 3 
L 3 3 
L 3 -3 
L -3 -3 
z
" style="stroke: #000000; stroke-linejoin: miter"/>
    </defs>
    <g clip-path="url(#p209557b736)">
     <use xlink:href="#m2bac5749b3" x="64.156439" y="228.681496" style="fill: #338dff; stroke: #000000; stroke-linejoin: miter"/>
     <use xlink:href="#m2bac5749b3" x="74.521667" y="206.244" style="fill: #338dff; stroke: #000000; stroke-linejoin: miter"/>
     <use xlink:href="#m2bac5749b3" x="83.73266" y="228.014755" style="fill: #338dff; stroke: #000000; stroke-linejoin: miter"/>
     <use xlink:href="#m2bac5749b3" x="92.943652" y="244.638487" style="fill: #338dff; stroke: #000000; stroke-linejoin: miter"/>
     <use xlink:href="#m2bac5749b3" x="125.155862" y="278.753839" style="fill: #338dff; stroke: #000000; stroke-linejoin: miter"/>
     <use xlink:href="#m2bac5749b3" x="159.55937" y="282.309427" style="fill: #338dff; stroke: #000000; stroke-linejoin: miter"/>
     <use xlink:href="#m2bac5749b3" x="193.995202" y="284.129309" style="fill: #338dff; stroke: #000000; stroke-linejoin: miter"/>
     <use xlink:href="#m2bac5749b3" x="261.975262" y="286.000865" style="fill: #338dff; stroke: #000000; stroke-linejoin: miter"/>
     <use xlink:href="#m2bac5749b3" x="468.707427" y="290.341935" style="fill: #338dff; stroke: #000000; stroke-linejoin: miter"/>
    </g>
   </g>
   <g id="line2d_19">
    <path d="M 57.753594 298.32942 
L 59.850335 222.756909 
L 61.947075 199.082026 
L 64.043816 190.679267 
L 66.140557 189.755379 
L 68.237298 193.006751 
L 70.334039 198.500623 
L 74.52752 211.946522 
L 78.721002 225.24712 
L 80.817743 231.292966 
L 82.914483 236.842607 
L 85.011224 241.886343 
L 87.107965 246.43913 
L 89.204706 250.529387 
L 91.301447 254.192056 
L 93.398187 257.464381 
L 95.494928 260.383405 
L 97.591669 262.98455 
L 99.68841 265.300872 
L 101.785151 267.362736 
L 103.881891 269.197735 
L 105.978632 270.830762 
L 108.075373 272.284158 
L 110.172114 273.5779 
L 114.365595 275.755745 
L 118.559077 277.48456 
L 122.752559 278.859295 
L 126.94604 279.954741 
L 131.139522 280.829749 
L 137.429744 281.827447 
L 143.719967 282.547829 
L 152.10693 283.214275 
L 162.590634 283.745716 
L 175.171079 284.128137 
L 194.041746 284.440967 
L 225.492858 284.688243 
L 290.491823 284.917906 
L 487.585458 285.329124 
L 487.585458 285.329124 
" clip-path="url(#p209557b736)" style="fill: none; stroke: #33ffd7; stroke-width: 2; stroke-linecap: square"/>
   </g>
   <g id="line2d_20">
    <path d="M 74.170144 259.690339 
L 83.364974 269.980211 
L 91.704566 273.18546 
L 126.886543 284.248417 
L 159.462398 285.722266 
L 185.603084 284.267612 
L 255.459283 285.750353 
L 466.932301 288.379864 
" clip-path="url(#p209557b736)" style="fill: none; stroke-dasharray: 3.7,1.6; stroke-dashoffset: 0; stroke: #33ffd7"/>
    <defs>
     <path id="md4f967c34d" d="M -3 3 
L 3 3 
L 3 -3 
L -3 -3 
z
" style="stroke: #000000; stroke-linejoin: miter"/>
    </defs>
    <g clip-path="url(#p209557b736)">
     <use xlink:href="#md4f967c34d" x="74.170144" y="259.690339" style="fill: #33ffd7; stroke: #000000; stroke-linejoin: miter"/>
     <use xlink:href="#md4f967c34d" x="83.364974" y="269.980211" style="fill: #33ffd7; stroke: #000000; stroke-linejoin: miter"/>
     <use xlink:href="#md4f967c34d" x="91.704566" y="273.18546" style="fill: #33ffd7; stroke: #000000; stroke-linejoin: miter"/>
     <use xlink:href="#md4f967c34d" x="126.886543" y="284.248417" style="fill: #33ffd7; stroke: #000000; stroke-linejoin: miter"/>
     <use xlink:href="#md4f967c34d" x="159.462398" y="285.722266" style="fill: #33ffd7; stroke: #000000; stroke-linejoin: miter"/>
     <use xlink:href="#md4f967c34d" x="185.603084" y="284.267612" style="fill: #33ffd7; stroke: #000000; stroke-linejoin: miter"/>
     <use xlink:href="#md4f967c34d" x="255.459283" y="285.750353" style="fill: #33ffd7; stroke: #000000; stroke-linejoin: miter"/>
     <use xlink:href="#md4f967c34d" x="466.932301" y="288.379864" style="fill: #33ffd7; stroke: #000000; stroke-linejoin: miter"/>
    </g>
   </g>
   <g id="patch_3">
    <path d="M 57.753594 364.248 
L 57.753594 48.24 
" style="fill: none; stroke: #000000; stroke-width: 0.8; stroke-linejoin: miter; stroke-linecap: square"/>
   </g>
   <g id="patch_4">
    <path d="M 487.413594 364.248 
L 487.413594 48.24 
" style="fill: none; stroke: #000000; stroke-width: 0.8; stroke-linejoin: miter; stroke-linecap: square"/>
   </g>
   <g id="patch_5">
    <path d="M 57.753594 364.248 
L 487.413594 364.248 
" style="fill: none; stroke: #000000; stroke-width: 0.8; stroke-linejoin: miter; stroke-linecap: square"/>
   </g>
   <g id="patch_6">
    <path d="M 57.753594 48.24 
L 487.413594 48.24 
" style="fill: none; stroke: #000000; stroke-width: 0.8; stroke-linejoin: miter; stroke-linecap: square"/>
   </g>
   <g id="legend_1">
    <g id="patch_7">
     <path d="M 289.052656 173.665 
L 480.413594 173.665 
Q 482.413594 173.665 482.413594 171.665 
L 482.413594 55.24 
Q 482.413594 53.24 480.413594 53.24 
L 289.052656 53.24 
Q 287.052656 53.24 287.052656 55.24 
L 287.052656 171.665 
Q 287.052656 173.665 289.052656 173.665 
z
" style="fill: #ffffff; opacity: 0.8; stroke: #cccccc; stroke-linejoin: miter"/>
    </g>
    <g id="line2d_21">
     <path d="M 291.052656 61.338437 
L 311.052656 61.338437 
" style="fill: none; stroke: #9333ff; stroke-width: 2; stroke-linecap: square"/>
    </g>
    <g id="line2d_22"/>
    <g id="text_15">
     <!-- MiRI sim: 100mg PO -->
     <g transform="translate(319.052656 64.838437) scale(0.1 -0.1)">
      <defs>
       <path id="DejaVuSans-4d" d="M 628 4666 
L 1569 4666 
L 2759 1491 
L 3956 4666 
L 4897 4666 
L 4897 0 
L 4281 0 
L 4281 4097 
L 3078 897 
L 2444 897 
L 1241 4097 
L 1241 0 
L 628 0 
L 628 4666 
z
" transform="scale(0.015625)"/>
       <path id="DejaVuSans-69" d="M 603 3500 
L 1178 3500 
L 1178 0 
L 603 0 
L 603 3500 
z
M 603 4863 
L 1178 4863 
L 1178 4134 
L 603 4134 
L 603 4863 
z
" transform="scale(0.015625)"/>
       <path id="DejaVuSans-52" d="M 2841 2188 
Q 3044 2119 3236 1894 
Q 3428 1669 3622 1275 
L 4263 0 
L 3584 0 
L 2988 1197 
Q 2756 1666 2539 1819 
Q 2322 1972 1947 1972 
L 1259 1972 
L 1259 0 
L 628 0 
L 628 4666 
L 2053 4666 
Q 2853 4666 3247 4331 
Q 3641 3997 3641 3322 
Q 3641 2881 3436 2590 
Q 3231 2300 2841 2188 
z
M 1259 4147 
L 1259 2491 
L 2053 2491 
Q 2509 2491 2742 2702 
Q 2975 2913 2975 3322 
Q 2975 3731 2742 3939 
Q 2509 4147 2053 4147 
L 1259 4147 
z
" transform="scale(0.015625)"/>
       <path id="DejaVuSans-49" d="M 628 4666 
L 1259 4666 
L 1259 0 
L 628 0 
L 628 4666 
z
" transform="scale(0.015625)"/>
       <path id="DejaVuSans-20" transform="scale(0.015625)"/>
       <path id="DejaVuSans-73" d="M 2834 3397 
L 2834 2853 
Q 2591 2978 2328 3040 
Q 2066 3103 1784 3103 
Q 1356 3103 1142 2972 
Q 928 2841 928 2578 
Q 928 2378 1081 2264 
Q 1234 2150 1697 2047 
L 1894 2003 
Q 2506 1872 2764 1633 
Q 3022 1394 3022 966 
Q 3022 478 2636 193 
Q 2250 -91 1575 -91 
Q 1294 -91 989 -36 
Q 684 19 347 128 
L 347 722 
Q 666 556 975 473 
Q 1284 391 1588 391 
Q 1994 391 2212 530 
Q 2431 669 2431 922 
Q 2431 1156 2273 1281 
Q 2116 1406 1581 1522 
L 1381 1569 
Q 847 1681 609 1914 
Q 372 2147 372 2553 
Q 372 3047 722 3315 
Q 1072 3584 1716 3584 
Q 2034 3584 2315 3537 
Q 2597 3491 2834 3397 
z
" transform="scale(0.015625)"/>
       <path id="DejaVuSans-6d" d="M 3328 2828 
Q 3544 3216 3844 3400 
Q 4144 3584 4550 3584 
Q 5097 3584 5394 3201 
Q 5691 2819 5691 2113 
L 5691 0 
L 5113 0 
L 5113 2094 
Q 5113 2597 4934 2840 
Q 4756 3084 4391 3084 
Q 3944 3084 3684 2787 
Q 3425 2491 3425 1978 
L 3425 0 
L 2847 0 
L 2847 2094 
Q 2847 2600 2669 2842 
Q 2491 3084 2119 3084 
Q 1678 3084 1418 2786 
Q 1159 2488 1159 1978 
L 1159 0 
L 581 0 
L 581 3500 
L 1159 3500 
L 1159 2956 
Q 1356 3278 1631 3431 
Q 1906 3584 2284 3584 
Q 2666 3584 2933 3390 
Q 3200 3197 3328 2828 
z
" transform="scale(0.015625)"/>
       <path id="DejaVuSans-3a" d="M 750 794 
L 1409 794 
L 1409 0 
L 750 0 
L 750 794 
z
M 750 3309 
L 1409 3309 
L 1409 2516 
L 750 2516 
L 750 3309 
z
" transform="scale(0.015625)"/>
       <path id="DejaVuSans-67" d="M 2906 1791 
Q 2906 2416 2648 2759 
Q 2391 3103 1925 3103 
Q 1463 3103 1205 2759 
Q 947 2416 947 1791 
Q 947 1169 1205 825 
Q 1463 481 1925 481 
Q 2391 481 2648 825 
Q 2906 1169 2906 1791 
z
M 3481 434 
Q 3481 -459 3084 -895 
Q 2688 -1331 1869 -1331 
Q 1566 -1331 1297 -1286 
Q 1028 -1241 775 -1147 
L 775 -588 
Q 1028 -725 1275 -790 
Q 1522 -856 1778 -856 
Q 2344 -856 2625 -561 
Q 2906 -266 2906 331 
L 2906 616 
Q 2728 306 2450 153 
Q 2172 0 1784 0 
Q 1141 0 747 490 
Q 353 981 353 1791 
Q 353 2603 747 3093 
Q 1141 3584 1784 3584 
Q 2172 3584 2450 3431 
Q 2728 3278 2906 2969 
L 2906 3500 
L 3481 3500 
L 3481 434 
z
" transform="scale(0.015625)"/>
       <path id="DejaVuSans-50" d="M 1259 4147 
L 1259 2394 
L 2053 2394 
Q 2494 2394 2734 2622 
Q 2975 2850 2975 3272 
Q 2975 3691 2734 3919 
Q 2494 4147 2053 4147 
L 1259 4147 
z
M 628 4666 
L 2053 4666 
Q 2838 4666 3239 4311 
Q 3641 3956 3641 3272 
Q 3641 2581 3239 2228 
Q 2838 1875 2053 1875 
L 1259 1875 
L 1259 0 
L 628 0 
L 628 4666 
z
" transform="scale(0.015625)"/>
       <path id="DejaVuSans-4f" d="M 2522 4238 
Q 1834 4238 1429 3725 
Q 1025 3213 1025 2328 
Q 1025 1447 1429 934 
Q 1834 422 2522 422 
Q 3209 422 3611 934 
Q 4013 1447 4013 2328 
Q 4013 3213 3611 3725 
Q 3209 4238 2522 4238 
z
M 2522 4750 
Q 3503 4750 4090 4092 
Q 4678 3434 4678 2328 
Q 4678 1225 4090 567 
Q 3503 -91 2522 -91 
Q 1538 -91 948 565 
Q 359 1222 359 2328 
Q 359 3434 948 4092 
Q 1538 4750 2522 4750 
z
" transform="scale(0.015625)"/>
      </defs>
      <use xlink:href="#DejaVuSans-4d"/>
      <use xlink:href="#DejaVuSans-69" transform="translate(86.279297 0)"/>
      <use xlink:href="#DejaVuSans-52" transform="translate(114.0625 0)"/>
      <use xlink:href="#DejaVuSans-49" transform="translate(183.544922 0)"/>
      <use xlink:href="#DejaVuSans-20" transform="translate(213.037109 0)"/>
      <use xlink:href="#DejaVuSans-73" transform="translate(244.824219 0)"/>
      <use xlink:href="#DejaVuSans-69" transform="translate(296.923828 0)"/>
      <use xlink:href="#DejaVuSans-6d" transform="translate(324.707031 0)"/>
      <use xlink:href="#DejaVuSans-3a" transform="translate(422.119141 0)"/>
      <use xlink:href="#DejaVuSans-20" transform="translate(455.810547 0)"/>
      <use xlink:href="#DejaVuSans-31" transform="translate(487.597656 0)"/>
      <use xlink:href="#DejaVuSans-30" transform="translate(551.220703 0)"/>
      <use xlink:href="#DejaVuSans-30" transform="translate(614.84375 0)"/>
      <use xlink:href="#DejaVuSans-6d" transform="translate(678.466797 0)"/>
      <use xlink:href="#DejaVuSans-67" transform="translate(775.878906 0)"/>
      <use xlink:href="#DejaVuSans-20" transform="translate(839.355469 0)"/>
      <use xlink:href="#DejaVuSans-50" transform="translate(871.142578 0)"/>
      <use xlink:href="#DejaVuSans-4f" transform="translate(931.445312 0)"/>
     </g>
    </g>
    <g id="LineCollection_5">
     <path d="M 301.052656 81.016562 
L 301.052656 71.016562 
" style="fill: none; stroke: #9333ff"/>
    </g>
    <g id="line2d_23">
     <path d="M 291.052656 76.016562 
L 311.052656 76.016562 
" style="fill: none; stroke-dasharray: 3.7,1.6; stroke-dashoffset: 0; stroke: #9333ff"/>
    </g>
    <g id="line2d_24">
     <g>
      <use xlink:href="#m1f21dce3a6" x="301.052656" y="76.016562" style="fill: #9333ff; stroke: #000000; stroke-linejoin: miter"/>
     </g>
    </g>
    <g id="text_16">
     <!-- MiRI exp: 100mg PO±SD (n=4) -->
     <g transform="translate(319.052656 79.516562) scale(0.1 -0.1)">
      <defs>
       <path id="DejaVuSans-65" d="M 3597 1894 
L 3597 1613 
L 953 1613 
Q 991 1019 1311 708 
Q 1631 397 2203 397 
Q 2534 397 2845 478 
Q 3156 559 3463 722 
L 3463 178 
Q 3153 47 2828 -22 
Q 2503 -91 2169 -91 
Q 1331 -91 842 396 
Q 353 884 353 1716 
Q 353 2575 817 3079 
Q 1281 3584 2069 3584 
Q 2775 3584 3186 3129 
Q 3597 2675 3597 1894 
z
M 3022 2063 
Q 3016 2534 2758 2815 
Q 2500 3097 2075 3097 
Q 1594 3097 1305 2825 
Q 1016 2553 972 2059 
L 3022 2063 
z
" transform="scale(0.015625)"/>
       <path id="DejaVuSans-78" d="M 3513 3500 
L 2247 1797 
L 3578 0 
L 2900 0 
L 1881 1375 
L 863 0 
L 184 0 
L 1544 1831 
L 300 3500 
L 978 3500 
L 1906 2253 
L 2834 3500 
L 3513 3500 
z
" transform="scale(0.015625)"/>
       <path id="DejaVuSans-70" d="M 1159 525 
L 1159 -1331 
L 581 -1331 
L 581 3500 
L 1159 3500 
L 1159 2969 
Q 1341 3281 1617 3432 
Q 1894 3584 2278 3584 
Q 2916 3584 3314 3078 
Q 3713 2572 3713 1747 
Q 3713 922 3314 415 
Q 2916 -91 2278 -91 
Q 1894 -91 1617 61 
Q 1341 213 1159 525 
z
M 3116 1747 
Q 3116 2381 2855 2742 
Q 2594 3103 2138 3103 
Q 1681 3103 1420 2742 
Q 1159 2381 1159 1747 
Q 1159 1113 1420 752 
Q 1681 391 2138 391 
Q 2594 391 2855 752 
Q 3116 1113 3116 1747 
z
" transform="scale(0.015625)"/>
       <path id="DejaVuSans-b1" d="M 2944 4013 
L 2944 2803 
L 4684 2803 
L 4684 2272 
L 2944 2272 
L 2944 1063 
L 2419 1063 
L 2419 2272 
L 678 2272 
L 678 2803 
L 2419 2803 
L 2419 4013 
L 2944 4013 
z
M 678 531 
L 4684 531 
L 4684 0 
L 678 0 
L 678 531 
z
" transform="scale(0.015625)"/>
       <path id="DejaVuSans-53" d="M 3425 4513 
L 3425 3897 
Q 3066 4069 2747 4153 
Q 2428 4238 2131 4238 
Q 1616 4238 1336 4038 
Q 1056 3838 1056 3469 
Q 1056 3159 1242 3001 
Q 1428 2844 1947 2747 
L 2328 2669 
Q 3034 2534 3370 2195 
Q 3706 1856 3706 1288 
Q 3706 609 3251 259 
Q 2797 -91 1919 -91 
Q 1588 -91 1214 -16 
Q 841 59 441 206 
L 441 856 
Q 825 641 1194 531 
Q 1563 422 1919 422 
Q 2459 422 2753 634 
Q 3047 847 3047 1241 
Q 3047 1584 2836 1778 
Q 2625 1972 2144 2069 
L 1759 2144 
Q 1053 2284 737 2584 
Q 422 2884 422 3419 
Q 422 4038 858 4394 
Q 1294 4750 2059 4750 
Q 2388 4750 2728 4690 
Q 3069 4631 3425 4513 
z
" transform="scale(0.015625)"/>
       <path id="DejaVuSans-44" d="M 1259 4147 
L 1259 519 
L 2022 519 
Q 2988 519 3436 956 
Q 3884 1394 3884 2338 
Q 3884 3275 3436 3711 
Q 2988 4147 2022 4147 
L 1259 4147 
z
M 628 4666 
L 1925 4666 
Q 3281 4666 3915 4102 
Q 4550 3538 4550 2338 
Q 4550 1131 3912 565 
Q 3275 0 1925 0 
L 628 0 
L 628 4666 
z
" transform="scale(0.015625)"/>
       <path id="DejaVuSans-28" d="M 1984 4856 
Q 1566 4138 1362 3434 
Q 1159 2731 1159 2009 
Q 1159 1288 1364 580 
Q 1569 -128 1984 -844 
L 1484 -844 
Q 1016 -109 783 600 
Q 550 1309 550 2009 
Q 550 2706 781 3412 
Q 1013 4119 1484 4856 
L 1984 4856 
z
" transform="scale(0.015625)"/>
       <path id="DejaVuSans-6e" d="M 3513 2113 
L 3513 0 
L 2938 0 
L 2938 2094 
Q 2938 2591 2744 2837 
Q 2550 3084 2163 3084 
Q 1697 3084 1428 2787 
Q 1159 2491 1159 1978 
L 1159 0 
L 581 0 
L 581 3500 
L 1159 3500 
L 1159 2956 
Q 1366 3272 1645 3428 
Q 1925 3584 2291 3584 
Q 2894 3584 3203 3211 
Q 3513 2838 3513 2113 
z
" transform="scale(0.015625)"/>
       <path id="DejaVuSans-3d" d="M 678 2906 
L 4684 2906 
L 4684 2381 
L 678 2381 
L 678 2906 
z
M 678 1631 
L 4684 1631 
L 4684 1100 
L 678 1100 
L 678 1631 
z
" transform="scale(0.015625)"/>
       <path id="DejaVuSans-34" d="M 2419 4116 
L 825 1625 
L 2419 1625 
L 2419 4116 
z
M 2253 4666 
L 3047 4666 
L 3047 1625 
L 3713 1625 
L 3713 1100 
L 3047 1100 
L 3047 0 
L 2419 0 
L 2419 1100 
L 313 1100 
L 313 1709 
L 2253 4666 
z
" transform="scale(0.015625)"/>
       <path id="DejaVuSans-29" d="M 513 4856 
L 1013 4856 
Q 1481 4119 1714 3412 
Q 1947 2706 1947 2009 
Q 1947 1309 1714 600 
Q 1481 -109 1013 -844 
L 513 -844 
Q 928 -128 1133 580 
Q 1338 1288 1338 2009 
Q 1338 2731 1133 3434 
Q 928 4138 513 4856 
z
" transform="scale(0.015625)"/>
      </defs>
      <use xlink:href="#DejaVuSans-4d"/>
      <use xlink:href="#DejaVuSans-69" transform="translate(86.279297 0)"/>
      <use xlink:href="#DejaVuSans-52" transform="translate(114.0625 0)"/>
      <use xlink:href="#DejaVuSans-49" transform="translate(183.544922 0)"/>
      <use xlink:href="#DejaVuSans-20" transform="translate(213.037109 0)"/>
      <use xlink:href="#DejaVuSans-65" transform="translate(244.824219 0)"/>
      <use xlink:href="#DejaVuSans-78" transform="translate(304.597656 0)"/>
      <use xlink:href="#DejaVuSans-70" transform="translate(363.777344 0)"/>
      <use xlink:href="#DejaVuSans-3a" transform="translate(427.253906 0)"/>
      <use xlink:href="#DejaVuSans-20" transform="translate(460.945312 0)"/>
      <use xlink:href="#DejaVuSans-31" transform="translate(492.732422 0)"/>
      <use xlink:href="#DejaVuSans-30" transform="translate(556.355469 0)"/>
      <use xlink:href="#DejaVuSans-30" transform="translate(619.978516 0)"/>
      <use xlink:href="#DejaVuSans-6d" transform="translate(683.601562 0)"/>
      <use xlink:href="#DejaVuSans-67" transform="translate(781.013672 0)"/>
      <use xlink:href="#DejaVuSans-20" transform="translate(844.490234 0)"/>
      <use xlink:href="#DejaVuSans-50" transform="translate(876.277344 0)"/>
      <use xlink:href="#DejaVuSans-4f" transform="translate(936.580078 0)"/>
      <use xlink:href="#DejaVuSans-b1" transform="translate(1015.291016 0)"/>
      <use xlink:href="#DejaVuSans-53" transform="translate(1099.080078 0)"/>
      <use xlink:href="#DejaVuSans-44" transform="translate(1162.556641 0)"/>
      <use xlink:href="#DejaVuSans-20" transform="translate(1239.558594 0)"/>
      <use xlink:href="#DejaVuSans-28" transform="translate(1271.345703 0)"/>
      <use xlink:href="#DejaVuSans-6e" transform="translate(1310.359375 0)"/>
      <use xlink:href="#DejaVuSans-3d" transform="translate(1373.738281 0)"/>
      <use xlink:href="#DejaVuSans-34" transform="translate(1457.527344 0)"/>
      <use xlink:href="#DejaVuSans-29" transform="translate(1521.150391 0)"/>
     </g>
    </g>
    <g id="line2d_25">
     <path d="M 291.052656 90.694687 
L 311.052656 90.694687 
" style="fill: none; stroke: #3c33ff; stroke-width: 2; stroke-linecap: square"/>
    </g>
    <g id="line2d_26"/>
    <g id="text_17">
     <!-- MoRI sim: 100mg PO -->
     <g transform="translate(319.052656 94.194687) scale(0.1 -0.1)">
      <defs>
       <path id="DejaVuSans-6f" d="M 1959 3097 
Q 1497 3097 1228 2736 
Q 959 2375 959 1747 
Q 959 1119 1226 758 
Q 1494 397 1959 397 
Q 2419 397 2687 759 
Q 2956 1122 2956 1747 
Q 2956 2369 2687 2733 
Q 2419 3097 1959 3097 
z
M 1959 3584 
Q 2709 3584 3137 3096 
Q 3566 2609 3566 1747 
Q 3566 888 3137 398 
Q 2709 -91 1959 -91 
Q 1206 -91 779 398 
Q 353 888 353 1747 
Q 353 2609 779 3096 
Q 1206 3584 1959 3584 
z
" transform="scale(0.015625)"/>
      </defs>
      <use xlink:href="#DejaVuSans-4d"/>
      <use xlink:href="#DejaVuSans-6f" transform="translate(86.279297 0)"/>
      <use xlink:href="#DejaVuSans-52" transform="translate(147.460938 0)"/>
      <use xlink:href="#DejaVuSans-49" transform="translate(216.943359 0)"/>
      <use xlink:href="#DejaVuSans-20" transform="translate(246.435547 0)"/>
      <use xlink:href="#DejaVuSans-73" transform="translate(278.222656 0)"/>
      <use xlink:href="#DejaVuSans-69" transform="translate(330.322266 0)"/>
      <use xlink:href="#DejaVuSans-6d" transform="translate(358.105469 0)"/>
      <use xlink:href="#DejaVuSans-3a" transform="translate(455.517578 0)"/>
      <use xlink:href="#DejaVuSans-20" transform="translate(489.208984 0)"/>
      <use xlink:href="#DejaVuSans-31" transform="translate(520.996094 0)"/>
      <use xlink:href="#DejaVuSans-30" transform="translate(584.619141 0)"/>
      <use xlink:href="#DejaVuSans-30" transform="translate(648.242188 0)"/>
      <use xlink:href="#DejaVuSans-6d" transform="translate(711.865234 0)"/>
      <use xlink:href="#DejaVuSans-67" transform="translate(809.277344 0)"/>
      <use xlink:href="#DejaVuSans-20" transform="translate(872.753906 0)"/>
      <use xlink:href="#DejaVuSans-50" transform="translate(904.541016 0)"/>
      <use xlink:href="#DejaVuSans-4f" transform="translate(964.84375 0)"/>
     </g>
    </g>
    <g id="LineCollection_6">
     <path d="M 301.052656 110.372812 
L 301.052656 100.372812 
" style="fill: none; stroke: #3c33ff"/>
    </g>
    <g id="line2d_27">
     <path d="M 291.052656 105.372812 
L 311.052656 105.372812 
" style="fill: none; stroke-dasharray: 3.7,1.6; stroke-dashoffset: 0; stroke: #3c33ff"/>
    </g>
    <g id="line2d_28">
     <g>
      <use xlink:href="#m838d537955" x="301.052656" y="105.372812" style="fill: #3c33ff; stroke: #000000; stroke-linejoin: miter"/>
     </g>
    </g>
    <g id="text_18">
     <!-- MoRI exp: 100mg PO±SD (n=6) -->
     <g transform="translate(319.052656 108.872812) scale(0.1 -0.1)">
      <defs>
       <path id="DejaVuSans-36" d="M 2113 2584 
Q 1688 2584 1439 2293 
Q 1191 2003 1191 1497 
Q 1191 994 1439 701 
Q 1688 409 2113 409 
Q 2538 409 2786 701 
Q 3034 994 3034 1497 
Q 3034 2003 2786 2293 
Q 2538 2584 2113 2584 
z
M 3366 4563 
L 3366 3988 
Q 3128 4100 2886 4159 
Q 2644 4219 2406 4219 
Q 1781 4219 1451 3797 
Q 1122 3375 1075 2522 
Q 1259 2794 1537 2939 
Q 1816 3084 2150 3084 
Q 2853 3084 3261 2657 
Q 3669 2231 3669 1497 
Q 3669 778 3244 343 
Q 2819 -91 2113 -91 
Q 1303 -91 875 529 
Q 447 1150 447 2328 
Q 447 3434 972 4092 
Q 1497 4750 2381 4750 
Q 2619 4750 2861 4703 
Q 3103 4656 3366 4563 
z
" transform="scale(0.015625)"/>
      </defs>
      <use xlink:href="#DejaVuSans-4d"/>
      <use xlink:href="#DejaVuSans-6f" transform="translate(86.279297 0)"/>
      <use xlink:href="#DejaVuSans-52" transform="translate(147.460938 0)"/>
      <use xlink:href="#DejaVuSans-49" transform="translate(216.943359 0)"/>
      <use xlink:href="#DejaVuSans-20" transform="translate(246.435547 0)"/>
      <use xlink:href="#DejaVuSans-65" transform="translate(278.222656 0)"/>
      <use xlink:href="#DejaVuSans-78" transform="translate(337.996094 0)"/>
      <use xlink:href="#DejaVuSans-70" transform="translate(397.175781 0)"/>
      <use xlink:href="#DejaVuSans-3a" transform="translate(460.652344 0)"/>
      <use xlink:href="#DejaVuSans-20" transform="translate(494.34375 0)"/>
      <use xlink:href="#DejaVuSans-31" transform="translate(526.130859 0)"/>
      <use xlink:href="#DejaVuSans-30" transform="translate(589.753906 0)"/>
      <use xlink:href="#DejaVuSans-30" transform="translate(653.376953 0)"/>
      <use xlink:href="#DejaVuSans-6d" transform="translate(717 0)"/>
      <use xlink:href="#DejaVuSans-67" transform="translate(814.412109 0)"/>
      <use xlink:href="#DejaVuSans-20" transform="translate(877.888672 0)"/>
      <use xlink:href="#DejaVuSans-50" transform="translate(909.675781 0)"/>
      <use xlink:href="#DejaVuSans-4f" transform="translate(969.978516 0)"/>
      <use xlink:href="#DejaVuSans-b1" transform="translate(1048.689453 0)"/>
      <use xlink:href="#DejaVuSans-53" transform="translate(1132.478516 0)"/>
      <use xlink:href="#DejaVuSans-44" transform="translate(1195.955078 0)"/>
      <use xlink:href="#DejaVuSans-20" transform="translate(1272.957031 0)"/>
      <use xlink:href="#DejaVuSans-28" transform="translate(1304.744141 0)"/>
      <use xlink:href="#DejaVuSans-6e" transform="translate(1343.757812 0)"/>
      <use xlink:href="#DejaVuSans-3d" transform="translate(1407.136719 0)"/>
      <use xlink:href="#DejaVuSans-36" transform="translate(1490.925781 0)"/>
      <use xlink:href="#DejaVuSans-29" transform="translate(1554.548828 0)"/>
     </g>
    </g>
    <g id="line2d_29">
     <path d="M 291.052656 120.050937 
L 311.052656 120.050937 
" style="fill: none; stroke: #338dff; stroke-width: 2; stroke-linecap: square"/>
    </g>
    <g id="line2d_30"/>
    <g id="text_19">
     <!-- SRI sim: 100mg PO -->
     <g transform="translate(319.052656 123.550937) scale(0.1 -0.1)">
      <use xlink:href="#DejaVuSans-53"/>
      <use xlink:href="#DejaVuSans-52" transform="translate(63.476562 0)"/>
      <use xlink:href="#DejaVuSans-49" transform="translate(132.958984 0)"/>
      <use xlink:href="#DejaVuSans-20" transform="translate(162.451172 0)"/>
      <use xlink:href="#DejaVuSans-73" transform="translate(194.238281 0)"/>
      <use xlink:href="#DejaVuSans-69" transform="translate(246.337891 0)"/>
      <use xlink:href="#DejaVuSans-6d" transform="translate(274.121094 0)"/>
      <use xlink:href="#DejaVuSans-3a" transform="translate(371.533203 0)"/>
      <use xlink:href="#DejaVuSans-20" transform="translate(405.224609 0)"/>
      <use xlink:href="#DejaVuSans-31" transform="translate(437.011719 0)"/>
      <use xlink:href="#DejaVuSans-30" transform="translate(500.634766 0)"/>
      <use xlink:href="#DejaVuSans-30" transform="translate(564.257812 0)"/>
      <use xlink:href="#DejaVuSans-6d" transform="translate(627.880859 0)"/>
      <use xlink:href="#DejaVuSans-67" transform="translate(725.292969 0)"/>
      <use xlink:href="#DejaVuSans-20" transform="translate(788.769531 0)"/>
      <use xlink:href="#DejaVuSans-50" transform="translate(820.556641 0)"/>
      <use xlink:href="#DejaVuSans-4f" transform="translate(880.859375 0)"/>
     </g>
    </g>
    <g id="LineCollection_7">
     <path d="M 301.052656 139.729062 
L 301.052656 129.729062 
" style="fill: none; stroke: #338dff"/>
    </g>
    <g id="line2d_31">
     <path d="M 291.052656 134.729062 
L 311.052656 134.729062 
" style="fill: none; stroke-dasharray: 3.7,1.6; stroke-dashoffset: 0; stroke: #338dff"/>
    </g>
    <g id="line2d_32">
     <g>
      <use xlink:href="#m2bac5749b3" x="301.052656" y="134.729062" style="fill: #338dff; stroke: #000000; stroke-linejoin: miter"/>
     </g>
    </g>
    <g id="text_20">
     <!-- SRI exp: 100mg PO±SD (n=8) -->
     <g transform="translate(319.052656 138.229062) scale(0.1 -0.1)">
      <defs>
       <path id="DejaVuSans-38" d="M 2034 2216 
Q 1584 2216 1326 1975 
Q 1069 1734 1069 1313 
Q 1069 891 1326 650 
Q 1584 409 2034 409 
Q 2484 409 2743 651 
Q 3003 894 3003 1313 
Q 3003 1734 2745 1975 
Q 2488 2216 2034 2216 
z
M 1403 2484 
Q 997 2584 770 2862 
Q 544 3141 544 3541 
Q 544 4100 942 4425 
Q 1341 4750 2034 4750 
Q 2731 4750 3128 4425 
Q 3525 4100 3525 3541 
Q 3525 3141 3298 2862 
Q 3072 2584 2669 2484 
Q 3125 2378 3379 2068 
Q 3634 1759 3634 1313 
Q 3634 634 3220 271 
Q 2806 -91 2034 -91 
Q 1263 -91 848 271 
Q 434 634 434 1313 
Q 434 1759 690 2068 
Q 947 2378 1403 2484 
z
M 1172 3481 
Q 1172 3119 1398 2916 
Q 1625 2713 2034 2713 
Q 2441 2713 2670 2916 
Q 2900 3119 2900 3481 
Q 2900 3844 2670 4047 
Q 2441 4250 2034 4250 
Q 1625 4250 1398 4047 
Q 1172 3844 1172 3481 
z
" transform="scale(0.015625)"/>
      </defs>
      <use xlink:href="#DejaVuSans-53"/>
      <use xlink:href="#DejaVuSans-52" transform="translate(63.476562 0)"/>
      <use xlink:href="#DejaVuSans-49" transform="translate(132.958984 0)"/>
      <use xlink:href="#DejaVuSans-20" transform="translate(162.451172 0)"/>
      <use xlink:href="#DejaVuSans-65" transform="translate(194.238281 0)"/>
      <use xlink:href="#DejaVuSans-78" transform="translate(254.011719 0)"/>
      <use xlink:href="#DejaVuSans-70" transform="translate(313.191406 0)"/>
      <use xlink:href="#DejaVuSans-3a" transform="translate(376.667969 0)"/>
      <use xlink:href="#DejaVuSans-20" transform="translate(410.359375 0)"/>
      <use xlink:href="#DejaVuSans-31" transform="translate(442.146484 0)"/>
      <use xlink:href="#DejaVuSans-30" transform="translate(505.769531 0)"/>
      <use xlink:href="#DejaVuSans-30" transform="translate(569.392578 0)"/>
      <use xlink:href="#DejaVuSans-6d" transform="translate(633.015625 0)"/>
      <use xlink:href="#DejaVuSans-67" transform="translate(730.427734 0)"/>
      <use xlink:href="#DejaVuSans-20" transform="translate(793.904297 0)"/>
      <use xlink:href="#DejaVuSans-50" transform="translate(825.691406 0)"/>
      <use xlink:href="#DejaVuSans-4f" transform="translate(885.994141 0)"/>
      <use xlink:href="#DejaVuSans-b1" transform="translate(964.705078 0)"/>
      <use xlink:href="#DejaVuSans-53" transform="translate(1048.494141 0)"/>
      <use xlink:href="#DejaVuSans-44" transform="translate(1111.970703 0)"/>
      <use xlink:href="#DejaVuSans-20" transform="translate(1188.972656 0)"/>
      <use xlink:href="#DejaVuSans-28" transform="translate(1220.759766 0)"/>
      <use xlink:href="#DejaVuSans-6e" transform="translate(1259.773438 0)"/>
      <use xlink:href="#DejaVuSans-3d" transform="translate(1323.152344 0)"/>
      <use xlink:href="#DejaVuSans-38" transform="translate(1406.941406 0)"/>
      <use xlink:href="#DejaVuSans-29" transform="translate(1470.564453 0)"/>
     </g>
    </g>
    <g id="line2d_33">
     <path d="M 291.052656 149.407187 
L 311.052656 149.407187 
" style="fill: none; stroke: #33ffd7; stroke-width: 2; stroke-linecap: square"/>
    </g>
    <g id="line2d_34"/>
    <g id="text_21">
     <!-- INTD sim: 100mg PO -->
     <g transform="translate(319.052656 152.907187) scale(0.1 -0.1)">
      <defs>
       <path id="DejaVuSans-4e" d="M 628 4666 
L 1478 4666 
L 3547 763 
L 3547 4666 
L 4159 4666 
L 4159 0 
L 3309 0 
L 1241 3903 
L 1241 0 
L 628 0 
L 628 4666 
z
" transform="scale(0.015625)"/>
       <path id="DejaVuSans-54" d="M -19 4666 
L 3928 4666 
L 3928 4134 
L 2272 4134 
L 2272 0 
L 1638 0 
L 1638 4134 
L -19 4134 
L -19 4666 
z
" transform="scale(0.015625)"/>
      </defs>
      <use xlink:href="#DejaVuSans-49"/>
      <use xlink:href="#DejaVuSans-4e" transform="translate(29.492188 0)"/>
      <use xlink:href="#DejaVuSans-54" transform="translate(104.296875 0)"/>
      <use xlink:href="#DejaVuSans-44" transform="translate(165.380859 0)"/>
      <use xlink:href="#DejaVuSans-20" transform="translate(242.382812 0)"/>
      <use xlink:href="#DejaVuSans-73" transform="translate(274.169922 0)"/>
      <use xlink:href="#DejaVuSans-69" transform="translate(326.269531 0)"/>
      <use xlink:href="#DejaVuSans-6d" transform="translate(354.052734 0)"/>
      <use xlink:href="#DejaVuSans-3a" transform="translate(451.464844 0)"/>
      <use xlink:href="#DejaVuSans-20" transform="translate(485.15625 0)"/>
      <use xlink:href="#DejaVuSans-31" transform="translate(516.943359 0)"/>
      <use xlink:href="#DejaVuSans-30" transform="translate(580.566406 0)"/>
      <use xlink:href="#DejaVuSans-30" transform="translate(644.189453 0)"/>
      <use xlink:href="#DejaVuSans-6d" transform="translate(707.8125 0)"/>
      <use xlink:href="#DejaVuSans-67" transform="translate(805.224609 0)"/>
      <use xlink:href="#DejaVuSans-20" transform="translate(868.701172 0)"/>
      <use xlink:href="#DejaVuSans-50" transform="translate(900.488281 0)"/>
      <use xlink:href="#DejaVuSans-4f" transform="translate(960.791016 0)"/>
     </g>
    </g>
    <g id="LineCollection_8">
     <path d="M 301.052656 169.085312 
L 301.052656 159.085312 
" style="fill: none; stroke: #33ffd7"/>
    </g>
    <g id="line2d_35">
     <path d="M 291.052656 164.085312 
L 311.052656 164.085312 
" style="fill: none; stroke-dasharray: 3.7,1.6; stroke-dashoffset: 0; stroke: #33ffd7"/>
    </g>
    <g id="line2d_36">
     <g>
      <use xlink:href="#md4f967c34d" x="301.052656" y="164.085312" style="fill: #33ffd7; stroke: #000000; stroke-linejoin: miter"/>
     </g>
    </g>
    <g id="text_22">
     <!-- INTD exp: 100mg PO±SD (n=3) -->
     <g transform="translate(319.052656 167.585312) scale(0.1 -0.1)">
      <defs>
       <path id="DejaVuSans-33" d="M 2597 2516 
Q 3050 2419 3304 2112 
Q 3559 1806 3559 1356 
Q 3559 666 3084 287 
Q 2609 -91 1734 -91 
Q 1441 -91 1130 -33 
Q 819 25 488 141 
L 488 750 
Q 750 597 1062 519 
Q 1375 441 1716 441 
Q 2309 441 2620 675 
Q 2931 909 2931 1356 
Q 2931 1769 2642 2001 
Q 2353 2234 1838 2234 
L 1294 2234 
L 1294 2753 
L 1863 2753 
Q 2328 2753 2575 2939 
Q 2822 3125 2822 3475 
Q 2822 3834 2567 4026 
Q 2313 4219 1838 4219 
Q 1578 4219 1281 4162 
Q 984 4106 628 3988 
L 628 4550 
Q 988 4650 1302 4700 
Q 1616 4750 1894 4750 
Q 2613 4750 3031 4423 
Q 3450 4097 3450 3541 
Q 3450 3153 3228 2886 
Q 3006 2619 2597 2516 
z
" transform="scale(0.015625)"/>
      </defs>
      <use xlink:href="#DejaVuSans-49"/>
      <use xlink:href="#DejaVuSans-4e" transform="translate(29.492188 0)"/>
      <use xlink:href="#DejaVuSans-54" transform="translate(104.296875 0)"/>
      <use xlink:href="#DejaVuSans-44" transform="translate(165.380859 0)"/>
      <use xlink:href="#DejaVuSans-20" transform="translate(242.382812 0)"/>
      <use xlink:href="#DejaVuSans-65" transform="translate(274.169922 0)"/>
      <use xlink:href="#DejaVuSans-78" transform="translate(333.943359 0)"/>
      <use xlink:href="#DejaVuSans-70" transform="translate(393.123047 0)"/>
      <use xlink:href="#DejaVuSans-3a" transform="translate(456.599609 0)"/>
      <use xlink:href="#DejaVuSans-20" transform="translate(490.291016 0)"/>
      <use xlink:href="#DejaVuSans-31" transform="translate(522.078125 0)"/>
      <use xlink:href="#DejaVuSans-30" transform="translate(585.701172 0)"/>
      <use xlink:href="#DejaVuSans-30" transform="translate(649.324219 0)"/>
      <use xlink:href="#DejaVuSans-6d" transform="translate(712.947266 0)"/>
      <use xlink:href="#DejaVuSans-67" transform="translate(810.359375 0)"/>
      <use xlink:href="#DejaVuSans-20" transform="translate(873.835938 0)"/>
      <use xlink:href="#DejaVuSans-50" transform="translate(905.623047 0)"/>
      <use xlink:href="#DejaVuSans-4f" transform="translate(965.925781 0)"/>
      <use xlink:href="#DejaVuSans-b1" transform="translate(1044.636719 0)"/>
      <use xlink:href="#DejaVuSans-53" transform="translate(1128.425781 0)"/>
      <use xlink:href="#DejaVuSans-44" transform="translate(1191.902344 0)"/>
      <use xlink:href="#DejaVuSans-20" transform="translate(1268.904297 0)"/>
      <use xlink:href="#DejaVuSans-28" transform="translate(1300.691406 0)"/>
      <use xlink:href="#DejaVuSans-6e" transform="translate(1339.705078 0)"/>
      <use xlink:href="#DejaVuSans-3d" transform="translate(1403.083984 0)"/>
      <use xlink:href="#DejaVuSans-33" transform="translate(1486.873047 0)"/>
      <use xlink:href="#DejaVuSans-29" transform="translate(1550.496094 0)"/>
     </g>
    </g>
   </g>
  </g>
  <g id="text_23">
   <!-- Duchin1984 -->
   <g transform="translate(182.096953 26.196094) scale(0.25 -0.25)">
    <defs>
     <path id="DejaVuSans-Bold-44" d="M 1791 3756 
L 1791 909 
L 2222 909 
Q 2959 909 3348 1275 
Q 3738 1641 3738 2338 
Q 3738 3031 3350 3393 
Q 2963 3756 2222 3756 
L 1791 3756 
z
M 588 4666 
L 1856 4666 
Q 2919 4666 3439 4514 
Q 3959 4363 4331 4000 
Q 4659 3684 4818 3271 
Q 4978 2859 4978 2338 
Q 4978 1809 4818 1395 
Q 4659 981 4331 666 
Q 3956 303 3431 151 
Q 2906 0 1856 0 
L 588 0 
L 588 4666 
z
" transform="scale(0.015625)"/>
     <path id="DejaVuSans-Bold-75" d="M 500 1363 
L 500 3500 
L 1625 3500 
L 1625 3150 
Q 1625 2866 1622 2436 
Q 1619 2006 1619 1863 
Q 1619 1441 1641 1255 
Q 1663 1069 1716 984 
Q 1784 875 1895 815 
Q 2006 756 2150 756 
Q 2500 756 2700 1025 
Q 2900 1294 2900 1772 
L 2900 3500 
L 4019 3500 
L 4019 0 
L 2900 0 
L 2900 506 
Q 2647 200 2364 54 
Q 2081 -91 1741 -91 
Q 1134 -91 817 281 
Q 500 653 500 1363 
z
" transform="scale(0.015625)"/>
     <path id="DejaVuSans-Bold-6e" d="M 4056 2131 
L 4056 0 
L 2931 0 
L 2931 347 
L 2931 1631 
Q 2931 2084 2911 2256 
Q 2891 2428 2841 2509 
Q 2775 2619 2662 2680 
Q 2550 2741 2406 2741 
Q 2056 2741 1856 2470 
Q 1656 2200 1656 1722 
L 1656 0 
L 538 0 
L 538 3500 
L 1656 3500 
L 1656 2988 
Q 1909 3294 2193 3439 
Q 2478 3584 2822 3584 
Q 3428 3584 3742 3212 
Q 4056 2841 4056 2131 
z
" transform="scale(0.015625)"/>
     <path id="DejaVuSans-Bold-31" d="M 750 831 
L 1813 831 
L 1813 3847 
L 722 3622 
L 722 4441 
L 1806 4666 
L 2950 4666 
L 2950 831 
L 4013 831 
L 4013 0 
L 750 0 
L 750 831 
z
" transform="scale(0.015625)"/>
     <path id="DejaVuSans-Bold-39" d="M 641 103 
L 641 966 
Q 928 831 1190 764 
Q 1453 697 1709 697 
Q 2247 697 2547 995 
Q 2847 1294 2900 1881 
Q 2688 1725 2447 1647 
Q 2206 1569 1925 1569 
Q 1209 1569 770 1986 
Q 331 2403 331 3084 
Q 331 3838 820 4291 
Q 1309 4744 2131 4744 
Q 3044 4744 3544 4128 
Q 4044 3513 4044 2388 
Q 4044 1231 3459 570 
Q 2875 -91 1856 -91 
Q 1528 -91 1228 -42 
Q 928 6 641 103 
z
M 2125 2350 
Q 2441 2350 2600 2554 
Q 2759 2759 2759 3169 
Q 2759 3575 2600 3781 
Q 2441 3988 2125 3988 
Q 1809 3988 1650 3781 
Q 1491 3575 1491 3169 
Q 1491 2759 1650 2554 
Q 1809 2350 2125 2350 
z
" transform="scale(0.015625)"/>
     <path id="DejaVuSans-Bold-38" d="M 2228 2088 
Q 1891 2088 1709 1903 
Q 1528 1719 1528 1375 
Q 1528 1031 1709 848 
Q 1891 666 2228 666 
Q 2563 666 2741 848 
Q 2919 1031 2919 1375 
Q 2919 1722 2741 1905 
Q 2563 2088 2228 2088 
z
M 1350 2484 
Q 925 2613 709 2878 
Q 494 3144 494 3541 
Q 494 4131 934 4440 
Q 1375 4750 2228 4750 
Q 3075 4750 3515 4442 
Q 3956 4134 3956 3541 
Q 3956 3144 3739 2878 
Q 3522 2613 3097 2484 
Q 3572 2353 3814 2058 
Q 4056 1763 4056 1313 
Q 4056 619 3595 264 
Q 3134 -91 2228 -91 
Q 1319 -91 855 264 
Q 391 619 391 1313 
Q 391 1763 633 2058 
Q 875 2353 1350 2484 
z
M 1631 3419 
Q 1631 3141 1786 2991 
Q 1941 2841 2228 2841 
Q 2509 2841 2662 2991 
Q 2816 3141 2816 3419 
Q 2816 3697 2662 3845 
Q 2509 3994 2228 3994 
Q 1941 3994 1786 3844 
Q 1631 3694 1631 3419 
z
" transform="scale(0.015625)"/>
     <path id="DejaVuSans-Bold-34" d="M 2356 3675 
L 1038 1722 
L 2356 1722 
L 2356 3675 
z
M 2156 4666 
L 3494 4666 
L 3494 1722 
L 4159 1722 
L 4159 850 
L 3494 850 
L 3494 0 
L 2356 0 
L 2356 850 
L 288 850 
L 288 1881 
L 2156 4666 
z
" transform="scale(0.015625)"/>
    </defs>
    <use xlink:href="#DejaVuSans-Bold-44"/>
    <use xlink:href="#DejaVuSans-Bold-75" transform="translate(83.007812 0)"/>
    <use xlink:href="#DejaVuSans-Bold-63" transform="translate(154.199219 0)"/>
    <use xlink:href="#DejaVuSans-Bold-68" transform="translate(213.476562 0)"/>
    <use xlink:href="#DejaVuSans-Bold-69" transform="translate(284.667969 0)"/>
    <use xlink:href="#DejaVuSans-Bold-6e" transform="translate(318.945312 0)"/>
    <use xlink:href="#DejaVuSans-Bold-31" transform="translate(390.136719 0)"/>
    <use xlink:href="#DejaVuSans-Bold-39" transform="translate(459.716797 0)"/>
    <use xlink:href="#DejaVuSans-Bold-38" transform="translate(529.296875 0)"/>
    <use xlink:href="#DejaVuSans-Bold-34" transform="translate(598.876953 0)"/>
   </g>
  </g>
 </g>
 <defs>
  <clipPath id="p209557b736">
   <rect x="57.753594" y="48.24" width="429.66" height="316.008"/>
  </clipPath>
 </defs>
</svg>
