<?xml version="1.0" encoding="utf-8" standalone="no"?>
<!DOCTYPE svg PUBLIC "-//W3C//DTD SVG 1.1//EN"
  "http://www.w3.org/Graphics/SVG/1.1/DTD/svg11.dtd">
<svg xmlns:xlink="http://www.w3.org/1999/xlink" width="833.584063pt" height="414.526437pt" viewBox="0 0 833.584063 414.526437" xmlns="http://www.w3.org/2000/svg" version="1.1">
 <metadata>
  <rdf:RDF xmlns:dc="http://purl.org/dc/elements/1.1/" xmlns:cc="http://creativecommons.org/ns#" xmlns:rdf="http://www.w3.org/1999/02/22-rdf-syntax-ns#">
   <cc:Work>
    <dc:type rdf:resource="http://purl.org/dc/dcmitype/StillImage"/>
    <dc:date>2025-09-10T13:17:00.583512</dc:date>
    <dc:format>image/svg+xml</dc:format>
    <dc:creator>
     <cc:Agent>
      <dc:title>Matplotlib v3.10.6, https://matplotlib.org/</dc:title>
     </cc:Agent>
    </dc:creator>
   </cc:Work>
  </rdf:RDF>
 </metadata>
 <defs>
  <style type="text/css">*{stroke-linejoin: round; stroke-linecap: butt}</style>
 </defs>
 <g id="figure_1">
  <g id="patch_1">
   <path d="M 0 414.526437 
L 833.584063 414.526437 
L 833.584063 0 
L 0 0 
z
" style="fill: #ffffff"/>
  </g>
  <g id="axes_1">
   <g id="patch_2">
    <path d="M 45.184063 364.248 
L 384.836236 364.248 
L 384.836236 48.24 
L 45.184063 48.24 
z
" style="fill: #ffffff"/>
   </g>
   <g id="matplotlib.axis_1">
    <g id="xtick_1">
     <g id="line2d_1">
      <defs>
       <path id="m06019ed8fc" d="M 0 0 
L 0 3.5 
" style="stroke: #000000; stroke-width: 0.8"/>
      </defs>
      <g>
       <use xlink:href="#m06019ed8fc" x="60.622798" y="364.248" style="stroke: #000000; stroke-width: 0.8"/>
      </g>
     </g>
     <g id="text_1">
      <!-- −1.0 -->
      <g transform="translate(42.410688 382.645656) scale(0.15 -0.15)">
       <defs>
        <path id="DejaVuSans-2212" d="M 678 2272 
L 4684 2272 
L 4684 1741 
L 678 1741 
L 678 2272 
z
" transform="scale(0.015625)"/>
        <path id="DejaVuSans-31" d="M 794 531 
L 1825 531 
L 1825 4091 
L 703 3866 
L 703 4441 
L 1819 4666 
L 2450 4666 
L 2450 531 
L 3481 531 
L 3481 0 
L 794 0 
L 794 531 
z
" transform="scale(0.015625)"/>
        <path id="DejaVuSans-2e" d="M 684 794 
L 1344 794 
L 1344 0 
L 684 0 
L 684 794 
z
" transform="scale(0.015625)"/>
        <path id="DejaVuSans-30" d="M 2034 4250 
Q 1547 4250 1301 3770 
Q 1056 3291 1056 2328 
Q 1056 1369 1301 889 
Q 1547 409 2034 409 
Q 2525 409 2770 889 
Q 3016 1369 3016 2328 
Q 3016 3291 2770 3770 
Q 2525 4250 2034 4250 
z
M 2034 4750 
Q 2819 4750 3233 4129 
Q 3647 3509 3647 2328 
Q 3647 1150 3233 529 
Q 2819 -91 2034 -91 
Q 1250 -91 836 529 
Q 422 1150 422 2328 
Q 422 3509 836 4129 
Q 1250 4750 2034 4750 
z
" transform="scale(0.015625)"/>
       </defs>
       <use xlink:href="#DejaVuSans-2212"/>
       <use xlink:href="#DejaVuSans-31" transform="translate(83.789062 0)"/>
       <use xlink:href="#DejaVuSans-2e" transform="translate(147.412109 0)"/>
       <use xlink:href="#DejaVuSans-30" transform="translate(179.199219 0)"/>
      </g>
     </g>
    </g>
    <g id="xtick_2">
     <g id="line2d_2">
      <g>
       <use xlink:href="#m06019ed8fc" x="137.816474" y="364.248" style="stroke: #000000; stroke-width: 0.8"/>
      </g>
     </g>
     <g id="text_2">
      <!-- −0.5 -->
      <g transform="translate(119.604364 382.645656) scale(0.15 -0.15)">
       <defs>
        <path id="DejaVuSans-35" d="M 691 4666 
L 3169 4666 
L 3169 4134 
L 1269 4134 
L 1269 2991 
Q 1406 3038 1543 3061 
Q 1681 3084 1819 3084 
Q 2600 3084 3056 2656 
Q 3513 2228 3513 1497 
Q 3513 744 3044 326 
Q 2575 -91 1722 -91 
Q 1428 -91 1123 -41 
Q 819 9 494 109 
L 494 744 
Q 775 591 1075 516 
Q 1375 441 1709 441 
Q 2250 441 2565 725 
Q 2881 1009 2881 1497 
Q 2881 1984 2565 2268 
Q 2250 2553 1709 2553 
Q 1456 2553 1204 2497 
Q 953 2441 691 2322 
L 691 4666 
z
" transform="scale(0.015625)"/>
       </defs>
       <use xlink:href="#DejaVuSans-2212"/>
       <use xlink:href="#DejaVuSans-30" transform="translate(83.789062 0)"/>
       <use xlink:href="#DejaVuSans-2e" transform="translate(147.412109 0)"/>
       <use xlink:href="#DejaVuSans-35" transform="translate(179.199219 0)"/>
      </g>
     </g>
    </g>
    <g id="xtick_3">
     <g id="line2d_3">
      <g>
       <use xlink:href="#m06019ed8fc" x="215.010149" y="364.248" style="stroke: #000000; stroke-width: 0.8"/>
      </g>
     </g>
     <g id="text_3">
      <!-- 0.0 -->
      <g transform="translate(203.082806 382.645656) scale(0.15 -0.15)">
       <use xlink:href="#DejaVuSans-30"/>
       <use xlink:href="#DejaVuSans-2e" transform="translate(63.623047 0)"/>
       <use xlink:href="#DejaVuSans-30" transform="translate(95.410156 0)"/>
      </g>
     </g>
    </g>
    <g id="xtick_4">
     <g id="line2d_4">
      <g>
       <use xlink:href="#m06019ed8fc" x="292.203825" y="364.248" style="stroke: #000000; stroke-width: 0.8"/>
      </g>
     </g>
     <g id="text_4">
      <!-- 0.5 -->
      <g transform="translate(280.276482 382.645656) scale(0.15 -0.15)">
       <use xlink:href="#DejaVuSans-30"/>
       <use xlink:href="#DejaVuSans-2e" transform="translate(63.623047 0)"/>
       <use xlink:href="#DejaVuSans-35" transform="translate(95.410156 0)"/>
      </g>
     </g>
    </g>
    <g id="xtick_5">
     <g id="line2d_5">
      <g>
       <use xlink:href="#m06019ed8fc" x="369.397501" y="364.248" style="stroke: #000000; stroke-width: 0.8"/>
      </g>
     </g>
     <g id="text_5">
      <!-- 1.0 -->
      <g transform="translate(357.470157 382.645656) scale(0.15 -0.15)">
       <use xlink:href="#DejaVuSans-31"/>
       <use xlink:href="#DejaVuSans-2e" transform="translate(63.623047 0)"/>
       <use xlink:href="#DejaVuSans-30" transform="translate(95.410156 0)"/>
      </g>
     </g>
    </g>
    <g id="text_6">
     <!-- time [day] -->
     <g transform="translate(162.679368 403.442375) scale(0.18 -0.18)">
      <defs>
       <path id="DejaVuSans-Bold-74" d="M 1759 4494 
L 1759 3500 
L 2913 3500 
L 2913 2700 
L 1759 2700 
L 1759 1216 
Q 1759 972 1856 886 
Q 1953 800 2241 800 
L 2816 800 
L 2816 0 
L 1856 0 
Q 1194 0 917 276 
Q 641 553 641 1216 
L 641 2700 
L 84 2700 
L 84 3500 
L 641 3500 
L 641 4494 
L 1759 4494 
z
" transform="scale(0.015625)"/>
       <path id="DejaVuSans-Bold-69" d="M 538 3500 
L 1656 3500 
L 1656 0 
L 538 0 
L 538 3500 
z
M 538 4863 
L 1656 4863 
L 1656 3950 
L 538 3950 
L 538 4863 
z
" transform="scale(0.015625)"/>
       <path id="DejaVuSans-Bold-6d" d="M 3781 2919 
Q 3994 3244 4286 3414 
Q 4578 3584 4928 3584 
Q 5531 3584 5847 3212 
Q 6163 2841 6163 2131 
L 6163 0 
L 5038 0 
L 5038 1825 
Q 5041 1866 5042 1909 
Q 5044 1953 5044 2034 
Q 5044 2406 4934 2573 
Q 4825 2741 4581 2741 
Q 4263 2741 4089 2478 
Q 3916 2216 3909 1719 
L 3909 0 
L 2784 0 
L 2784 1825 
Q 2784 2406 2684 2573 
Q 2584 2741 2328 2741 
Q 2006 2741 1831 2477 
Q 1656 2213 1656 1722 
L 1656 0 
L 531 0 
L 531 3500 
L 1656 3500 
L 1656 2988 
Q 1863 3284 2130 3434 
Q 2397 3584 2719 3584 
Q 3081 3584 3359 3409 
Q 3638 3234 3781 2919 
z
" transform="scale(0.015625)"/>
       <path id="DejaVuSans-Bold-65" d="M 4031 1759 
L 4031 1441 
L 1416 1441 
Q 1456 1047 1700 850 
Q 1944 653 2381 653 
Q 2734 653 3104 758 
Q 3475 863 3866 1075 
L 3866 213 
Q 3469 63 3072 -14 
Q 2675 -91 2278 -91 
Q 1328 -91 801 392 
Q 275 875 275 1747 
Q 275 2603 792 3093 
Q 1309 3584 2216 3584 
Q 3041 3584 3536 3087 
Q 4031 2591 4031 1759 
z
M 2881 2131 
Q 2881 2450 2695 2645 
Q 2509 2841 2209 2841 
Q 1884 2841 1681 2658 
Q 1478 2475 1428 2131 
L 2881 2131 
z
" transform="scale(0.015625)"/>
       <path id="DejaVuSans-Bold-20" transform="scale(0.015625)"/>
       <path id="DejaVuSans-Bold-5b" d="M 550 4863 
L 2491 4863 
L 2491 4159 
L 1613 4159 
L 1613 -141 
L 2491 -141 
L 2491 -844 
L 550 -844 
L 550 4863 
z
" transform="scale(0.015625)"/>
       <path id="DejaVuSans-Bold-64" d="M 2919 2988 
L 2919 4863 
L 4044 4863 
L 4044 0 
L 2919 0 
L 2919 506 
Q 2688 197 2409 53 
Q 2131 -91 1766 -91 
Q 1119 -91 703 423 
Q 288 938 288 1747 
Q 288 2556 703 3070 
Q 1119 3584 1766 3584 
Q 2128 3584 2408 3439 
Q 2688 3294 2919 2988 
z
M 2181 722 
Q 2541 722 2730 984 
Q 2919 1247 2919 1747 
Q 2919 2247 2730 2509 
Q 2541 2772 2181 2772 
Q 1825 2772 1636 2509 
Q 1447 2247 1447 1747 
Q 1447 1247 1636 984 
Q 1825 722 2181 722 
z
" transform="scale(0.015625)"/>
       <path id="DejaVuSans-Bold-61" d="M 2106 1575 
Q 1756 1575 1579 1456 
Q 1403 1338 1403 1106 
Q 1403 894 1545 773 
Q 1688 653 1941 653 
Q 2256 653 2472 879 
Q 2688 1106 2688 1447 
L 2688 1575 
L 2106 1575 
z
M 3816 1997 
L 3816 0 
L 2688 0 
L 2688 519 
Q 2463 200 2181 54 
Q 1900 -91 1497 -91 
Q 953 -91 614 226 
Q 275 544 275 1050 
Q 275 1666 698 1953 
Q 1122 2241 2028 2241 
L 2688 2241 
L 2688 2328 
Q 2688 2594 2478 2717 
Q 2269 2841 1825 2841 
Q 1466 2841 1156 2769 
Q 847 2697 581 2553 
L 581 3406 
Q 941 3494 1303 3539 
Q 1666 3584 2028 3584 
Q 2975 3584 3395 3211 
Q 3816 2838 3816 1997 
z
" transform="scale(0.015625)"/>
       <path id="DejaVuSans-Bold-79" d="M 78 3500 
L 1197 3500 
L 2138 1125 
L 2938 3500 
L 4056 3500 
L 2584 -331 
Q 2363 -916 2067 -1148 
Q 1772 -1381 1288 -1381 
L 641 -1381 
L 641 -647 
L 991 -647 
Q 1275 -647 1404 -556 
Q 1534 -466 1606 -231 
L 1638 -134 
L 78 3500 
z
" transform="scale(0.015625)"/>
       <path id="DejaVuSans-Bold-5d" d="M 2375 -844 
L 434 -844 
L 434 -141 
L 1313 -141 
L 1313 4159 
L 434 4159 
L 434 4863 
L 2375 4863 
L 2375 -844 
z
" transform="scale(0.015625)"/>
      </defs>
      <use xlink:href="#DejaVuSans-Bold-74"/>
      <use xlink:href="#DejaVuSans-Bold-69" transform="translate(47.802734 0)"/>
      <use xlink:href="#DejaVuSans-Bold-6d" transform="translate(82.080078 0)"/>
      <use xlink:href="#DejaVuSans-Bold-65" transform="translate(186.279297 0)"/>
      <use xlink:href="#DejaVuSans-Bold-20" transform="translate(254.101562 0)"/>
      <use xlink:href="#DejaVuSans-Bold-5b" transform="translate(288.916016 0)"/>
      <use xlink:href="#DejaVuSans-Bold-64" transform="translate(334.619141 0)"/>
      <use xlink:href="#DejaVuSans-Bold-61" transform="translate(406.201172 0)"/>
      <use xlink:href="#DejaVuSans-Bold-79" transform="translate(470.556641 0)"/>
      <use xlink:href="#DejaVuSans-Bold-5d" transform="translate(535.742188 0)"/>
     </g>
    </g>
   </g>
   <g id="matplotlib.axis_2">
    <g id="ytick_1">
     <g id="line2d_6">
      <defs>
       <path id="mb5c8f25161" d="M 0 0 
L -3.5 0 
" style="stroke: #000000; stroke-width: 0.8"/>
      </defs>
      <g>
       <use xlink:href="#mb5c8f25161" x="45.184063" y="340.830756" style="stroke: #000000; stroke-width: 0.8"/>
      </g>
     </g>
     <g id="text_7">
      <!-- 0 -->
      <g transform="translate(28.640313 346.529584) scale(0.15 -0.15)">
       <use xlink:href="#DejaVuSans-30"/>
      </g>
     </g>
    </g>
    <g id="ytick_2">
     <g id="line2d_7">
      <g>
       <use xlink:href="#mb5c8f25161" x="45.184063" y="283.460019" style="stroke: #000000; stroke-width: 0.8"/>
      </g>
     </g>
     <g id="text_8">
      <!-- 1 -->
      <g transform="translate(28.640313 289.158848) scale(0.15 -0.15)">
       <use xlink:href="#DejaVuSans-31"/>
      </g>
     </g>
    </g>
    <g id="ytick_3">
     <g id="line2d_8">
      <g>
       <use xlink:href="#mb5c8f25161" x="45.184063" y="226.089283" style="stroke: #000000; stroke-width: 0.8"/>
      </g>
     </g>
     <g id="text_9">
      <!-- 2 -->
      <g transform="translate(28.640313 231.788111) scale(0.15 -0.15)">
       <defs>
        <path id="DejaVuSans-32" d="M 1228 531 
L 3431 531 
L 3431 0 
L 469 0 
L 469 531 
Q 828 903 1448 1529 
Q 2069 2156 2228 2338 
Q 2531 2678 2651 2914 
Q 2772 3150 2772 3378 
Q 2772 3750 2511 3984 
Q 2250 4219 1831 4219 
Q 1534 4219 1204 4116 
Q 875 4013 500 3803 
L 500 4441 
Q 881 4594 1212 4672 
Q 1544 4750 1819 4750 
Q 2544 4750 2975 4387 
Q 3406 4025 3406 3419 
Q 3406 3131 3298 2873 
Q 3191 2616 2906 2266 
Q 2828 2175 2409 1742 
Q 1991 1309 1228 531 
z
" transform="scale(0.015625)"/>
       </defs>
       <use xlink:href="#DejaVuSans-32"/>
      </g>
     </g>
    </g>
    <g id="ytick_4">
     <g id="line2d_9">
      <g>
       <use xlink:href="#mb5c8f25161" x="45.184063" y="168.718547" style="stroke: #000000; stroke-width: 0.8"/>
      </g>
     </g>
     <g id="text_10">
      <!-- 3 -->
      <g transform="translate(28.640313 174.417375) scale(0.15 -0.15)">
       <defs>
        <path id="DejaVuSans-33" d="M 2597 2516 
Q 3050 2419 3304 2112 
Q 3559 1806 3559 1356 
Q 3559 666 3084 287 
Q 2609 -91 1734 -91 
Q 1441 -91 1130 -33 
Q 819 25 488 141 
L 488 750 
Q 750 597 1062 519 
Q 1375 441 1716 441 
Q 2309 441 2620 675 
Q 2931 909 2931 1356 
Q 2931 1769 2642 2001 
Q 2353 2234 1838 2234 
L 1294 2234 
L 1294 2753 
L 1863 2753 
Q 2328 2753 2575 2939 
Q 2822 3125 2822 3475 
Q 2822 3834 2567 4026 
Q 2313 4219 1838 4219 
Q 1578 4219 1281 4162 
Q 984 4106 628 3988 
L 628 4550 
Q 988 4650 1302 4700 
Q 1616 4750 1894 4750 
Q 2613 4750 3031 4423 
Q 3450 4097 3450 3541 
Q 3450 3153 3228 2886 
Q 3006 2619 2597 2516 
z
" transform="scale(0.015625)"/>
       </defs>
       <use xlink:href="#DejaVuSans-33"/>
      </g>
     </g>
    </g>
    <g id="ytick_5">
     <g id="line2d_10">
      <g>
       <use xlink:href="#mb5c8f25161" x="45.184063" y="111.34781" style="stroke: #000000; stroke-width: 0.8"/>
      </g>
     </g>
     <g id="text_11">
      <!-- 4 -->
      <g transform="translate(28.640313 117.046638) scale(0.15 -0.15)">
       <defs>
        <path id="DejaVuSans-34" d="M 2419 4116 
L 825 1625 
L 2419 1625 
L 2419 4116 
z
M 2253 4666 
L 3047 4666 
L 3047 1625 
L 3713 1625 
L 3713 1100 
L 3047 1100 
L 3047 0 
L 2419 0 
L 2419 1100 
L 313 1100 
L 313 1709 
L 2253 4666 
z
" transform="scale(0.015625)"/>
       </defs>
       <use xlink:href="#DejaVuSans-34"/>
      </g>
     </g>
    </g>
    <g id="ytick_6">
     <g id="line2d_11">
      <g>
       <use xlink:href="#mb5c8f25161" x="45.184063" y="53.977074" style="stroke: #000000; stroke-width: 0.8"/>
      </g>
     </g>
     <g id="text_12">
      <!-- 5 -->
      <g transform="translate(28.640313 59.675902) scale(0.15 -0.15)">
       <use xlink:href="#DejaVuSans-35"/>
      </g>
     </g>
    </g>
    <g id="text_13">
     <!-- captopril [µM] -->
     <g transform="translate(20.877188 278.568844) rotate(-90) scale(0.18 -0.18)">
      <defs>
       <path id="DejaVuSans-Bold-63" d="M 3366 3391 
L 3366 2478 
Q 3138 2634 2908 2709 
Q 2678 2784 2431 2784 
Q 1963 2784 1702 2511 
Q 1441 2238 1441 1747 
Q 1441 1256 1702 982 
Q 1963 709 2431 709 
Q 2694 709 2930 787 
Q 3166 866 3366 1019 
L 3366 103 
Q 3103 6 2833 -42 
Q 2563 -91 2291 -91 
Q 1344 -91 809 395 
Q 275 881 275 1747 
Q 275 2613 809 3098 
Q 1344 3584 2291 3584 
Q 2566 3584 2833 3536 
Q 3100 3488 3366 3391 
z
" transform="scale(0.015625)"/>
       <path id="DejaVuSans-Bold-70" d="M 1656 506 
L 1656 -1331 
L 538 -1331 
L 538 3500 
L 1656 3500 
L 1656 2988 
Q 1888 3294 2169 3439 
Q 2450 3584 2816 3584 
Q 3463 3584 3878 3070 
Q 4294 2556 4294 1747 
Q 4294 938 3878 423 
Q 3463 -91 2816 -91 
Q 2450 -91 2169 54 
Q 1888 200 1656 506 
z
M 2400 2772 
Q 2041 2772 1848 2508 
Q 1656 2244 1656 1747 
Q 1656 1250 1848 986 
Q 2041 722 2400 722 
Q 2759 722 2948 984 
Q 3138 1247 3138 1747 
Q 3138 2247 2948 2509 
Q 2759 2772 2400 2772 
z
" transform="scale(0.015625)"/>
       <path id="DejaVuSans-Bold-6f" d="M 2203 2784 
Q 1831 2784 1636 2517 
Q 1441 2250 1441 1747 
Q 1441 1244 1636 976 
Q 1831 709 2203 709 
Q 2569 709 2762 976 
Q 2956 1244 2956 1747 
Q 2956 2250 2762 2517 
Q 2569 2784 2203 2784 
z
M 2203 3584 
Q 3106 3584 3614 3096 
Q 4122 2609 4122 1747 
Q 4122 884 3614 396 
Q 3106 -91 2203 -91 
Q 1297 -91 786 396 
Q 275 884 275 1747 
Q 275 2609 786 3096 
Q 1297 3584 2203 3584 
z
" transform="scale(0.015625)"/>
       <path id="DejaVuSans-Bold-72" d="M 3138 2547 
Q 2991 2616 2845 2648 
Q 2700 2681 2553 2681 
Q 2122 2681 1889 2404 
Q 1656 2128 1656 1613 
L 1656 0 
L 538 0 
L 538 3500 
L 1656 3500 
L 1656 2925 
Q 1872 3269 2151 3426 
Q 2431 3584 2822 3584 
Q 2878 3584 2943 3579 
Q 3009 3575 3134 3559 
L 3138 2547 
z
" transform="scale(0.015625)"/>
       <path id="DejaVuSans-Bold-6c" d="M 538 4863 
L 1656 4863 
L 1656 0 
L 538 0 
L 538 4863 
z
" transform="scale(0.015625)"/>
       <path id="DejaVuSans-Bold-b5" d="M 544 -1338 
L 544 3500 
L 1672 3500 
L 1672 1466 
Q 1672 1103 1828 926 
Q 1984 750 2303 750 
Q 2625 750 2781 926 
Q 2938 1103 2938 1466 
L 2938 3500 
L 4063 3500 
L 4063 1159 
Q 4063 938 4114 850 
Q 4166 763 4288 763 
Q 4344 763 4395 778 
Q 4447 794 4506 831 
L 4506 50 
Q 4341 -22 4195 -56 
Q 4050 -91 3909 -91 
Q 3631 -91 3454 26 
Q 3278 144 3169 403 
Q 3022 156 2811 32 
Q 2600 -91 2322 -91 
Q 2091 -91 1928 -17 
Q 1766 56 1672 206 
L 1672 -1338 
L 544 -1338 
z
" transform="scale(0.015625)"/>
       <path id="DejaVuSans-Bold-4d" d="M 588 4666 
L 2119 4666 
L 3181 2169 
L 4250 4666 
L 5778 4666 
L 5778 0 
L 4641 0 
L 4641 3413 
L 3566 897 
L 2803 897 
L 1728 3413 
L 1728 0 
L 588 0 
L 588 4666 
z
" transform="scale(0.015625)"/>
      </defs>
      <use xlink:href="#DejaVuSans-Bold-63"/>
      <use xlink:href="#DejaVuSans-Bold-61" transform="translate(59.277344 0)"/>
      <use xlink:href="#DejaVuSans-Bold-70" transform="translate(126.757812 0)"/>
      <use xlink:href="#DejaVuSans-Bold-74" transform="translate(198.339844 0)"/>
      <use xlink:href="#DejaVuSans-Bold-6f" transform="translate(246.142578 0)"/>
      <use xlink:href="#DejaVuSans-Bold-70" transform="translate(314.84375 0)"/>
      <use xlink:href="#DejaVuSans-Bold-72" transform="translate(386.425781 0)"/>
      <use xlink:href="#DejaVuSans-Bold-69" transform="translate(435.742188 0)"/>
      <use xlink:href="#DejaVuSans-Bold-6c" transform="translate(470.019531 0)"/>
      <use xlink:href="#DejaVuSans-Bold-20" transform="translate(504.296875 0)"/>
      <use xlink:href="#DejaVuSans-Bold-5b" transform="translate(539.111328 0)"/>
      <use xlink:href="#DejaVuSans-Bold-b5" transform="translate(584.814453 0)"/>
      <use xlink:href="#DejaVuSans-Bold-4d" transform="translate(658.398438 0)"/>
      <use xlink:href="#DejaVuSans-Bold-5d" transform="translate(757.910156 0)"/>
     </g>
    </g>
   </g>
   <g id="LineCollection_1">
    <path d="M 218.226553 336.494535 
L 218.226553 83.138792 
" clip-path="url(#p8d71accbf3)" style="fill: none; stroke: #3c33ff"/>
    <path d="M 221.442956 288.666324 
L 221.442956 180.40177 
" clip-path="url(#p8d71accbf3)" style="fill: none; stroke: #3c33ff"/>
    <path d="M 224.659359 283.157135 
L 224.659359 216.739723 
" clip-path="url(#p8d71accbf3)" style="fill: none; stroke: #3c33ff"/>
    <path d="M 227.875762 303.949998 
L 227.875762 262.117241 
" clip-path="url(#p8d71accbf3)" style="fill: none; stroke: #3c33ff"/>
    <path d="M 234.308568 315.470271 
L 234.308568 283.44836 
" clip-path="url(#p8d71accbf3)" style="fill: none; stroke: #3c33ff"/>
    <path d="M 253.606987 350.616508 
L 253.606987 316.163464 
" clip-path="url(#p8d71accbf3)" style="fill: none; stroke: #3c33ff"/>
   </g>
   <g id="LineCollection_2">
    <path d="M 218.226553 298.708939 
L 218.226553 225.184373 
" clip-path="url(#p8d71accbf3)" style="fill: none; stroke: #000000"/>
    <path d="M 221.442956 287.737796 
L 221.442956 204.323708 
" clip-path="url(#p8d71accbf3)" style="fill: none; stroke: #000000"/>
    <path d="M 224.659359 288.739625 
L 224.659359 222.481269 
" clip-path="url(#p8d71accbf3)" style="fill: none; stroke: #000000"/>
    <path d="M 227.875762 306.875225 
L 227.875762 265.211304 
" clip-path="url(#p8d71accbf3)" style="fill: none; stroke: #000000"/>
    <path d="M 234.308568 320.850162 
L 234.308568 298.764043 
" clip-path="url(#p8d71accbf3)" style="fill: none; stroke: #000000"/>
    <path d="M 253.606987 347.543214 
L 253.606987 323.035026 
" clip-path="url(#p8d71accbf3)" style="fill: none; stroke: #000000"/>
   </g>
   <g id="line2d_12">
    <path d="M 215.010149 340.830756 
L 215.936474 170.863902 
L 216.862798 132.914585 
L 217.789122 127.13504 
L 218.715446 135.226858 
L 219.64177 149.604014 
L 222.420742 199.168116 
L 224.273391 227.061714 
L 226.126039 249.115986 
L 227.052363 258.176359 
L 227.978687 266.099435 
L 228.905011 273.01583 
L 229.831335 279.047498 
L 230.757659 284.305134 
L 231.683983 288.887529 
L 232.610308 292.881935 
L 233.536632 296.364907 
L 234.462956 299.403328 
L 236.315604 304.372044 
L 238.168252 308.168807 
L 240.0209 311.080755 
L 241.873549 313.324119 
L 243.726197 315.061681 
L 245.578845 316.416014 
L 247.431493 317.47947 
L 249.284142 318.321679 
L 252.063114 319.281513 
L 254.842086 319.985325 
L 258.547383 320.665283 
L 263.179003 321.262786 
L 269.663272 321.847454 
L 279.852837 322.499885 
L 296.526671 323.31346 
L 327.095367 324.555589 
L 374.337896 326.244976 
L 428.991019 327.974735 
L 487.349438 329.595374 
L 549.413153 331.095101 
L 616.108489 332.484096 
L 678.172205 333.597791 
L 678.172205 333.597791 
" clip-path="url(#p8d71accbf3)" style="fill: none; stroke: #3c33ff; stroke-width: 2; stroke-linecap: square"/>
   </g>
   <g id="line2d_13">
    <path d="M 44.875288 289.734616 
L 60.622798 291.557481 
L 60.622798 291.557481 
L 60.931572 203.931839 
L 61.240347 151.720867 
L 61.549122 121.69578 
L 61.857896 103.101046 
L 62.166671 91.239849 
L 62.475446 83.851389 
L 62.784221 79.694465 
L 63.092995 77.986668 
L 63.40177 78.176545 
L 63.710545 79.846319 
L 64.328094 86.372838 
L 65.254418 100.854244 
L 69.268489 170.125839 
L 70.503588 186.874319 
L 71.738687 201.08972 
L 72.973786 213.047484 
L 74.208885 223.060977 
L 75.443983 231.429802 
L 76.679082 238.420802 
L 77.914181 244.263605 
L 79.14928 249.152287 
L 80.384379 253.249282 
L 81.619478 256.689803 
L 82.854576 259.58607 
L 84.39845 262.581142 
L 85.942323 265.017156 
L 87.486197 267.010316 
L 89.03007 268.652339 
L 90.882719 270.260108 
L 92.735367 271.562521 
L 94.89679 272.792398 
L 97.366987 273.918636 
L 100.14596 274.935233 
L 103.542481 275.936598 
L 107.865327 276.970868 
L 113.732047 278.131019 
L 122.377738 279.58791 
L 135.346276 281.526726 
L 154.490308 284.152039 
L 179.192284 287.310438 
L 206.982007 290.636564 
L 215.010149 291.557467 
L 215.010149 291.557467 
L 215.936474 121.695766 
L 216.862798 83.851375 
L 217.789122 78.176531 
L 218.715446 86.372824 
L 219.64177 100.85423 
L 222.420742 150.72974 
L 224.273391 178.829829 
L 226.126039 201.089707 
L 227.052363 210.252551 
L 227.978687 218.277879 
L 228.905011 225.296307 
L 229.831335 231.429789 
L 230.757659 236.78902 
L 231.683983 241.472792 
L 232.610308 245.568359 
L 233.536632 249.152274 
L 235.38928 255.044082 
L 237.241928 259.586057 
L 239.094576 263.108937 
L 240.947225 265.861926 
L 242.799873 268.032638 
L 244.652521 269.762325 
L 246.505169 271.157375 
L 248.357817 272.297975 
L 251.13679 273.659941 
L 253.915762 274.727575 
L 257.621059 275.853846 
L 262.252679 276.970855 
L 268.736948 278.24274 
L 278.000189 279.781935 
L 291.895051 281.833975 
L 312.274181 284.599363 
L 337.284932 287.766879 
L 365.074655 291.063731 
L 385.453786 293.348448 
L 385.453786 293.348448 
" clip-path="url(#p8d71accbf3)" style="fill: none; stroke: #000000; stroke-width: 2; stroke-linecap: square"/>
   </g>
   <g id="line2d_14">
    <path d="M 218.226553 209.816664 
L 221.442956 234.534047 
L 224.659359 249.948429 
L 227.875762 283.033619 
L 234.308568 299.459315 
L 253.606987 333.389986 
" clip-path="url(#p8d71accbf3)" style="fill: none; stroke-dasharray: 3.7,1.6; stroke-dashoffset: 0; stroke: #3c33ff"/>
    <defs>
     <path id="m0c75161630" d="M -3 3 
L 3 3 
L 3 -3 
L -3 -3 
z
" style="stroke: #000000; stroke-linejoin: miter"/>
    </defs>
    <g clip-path="url(#p8d71accbf3)">
     <use xlink:href="#m0c75161630" x="218.226553" y="209.816664" style="fill: #3c33ff; stroke: #000000; stroke-linejoin: miter"/>
     <use xlink:href="#m0c75161630" x="221.442956" y="234.534047" style="fill: #3c33ff; stroke: #000000; stroke-linejoin: miter"/>
     <use xlink:href="#m0c75161630" x="224.659359" y="249.948429" style="fill: #3c33ff; stroke: #000000; stroke-linejoin: miter"/>
     <use xlink:href="#m0c75161630" x="227.875762" y="283.033619" style="fill: #3c33ff; stroke: #000000; stroke-linejoin: miter"/>
     <use xlink:href="#m0c75161630" x="234.308568" y="299.459315" style="fill: #3c33ff; stroke: #000000; stroke-linejoin: miter"/>
     <use xlink:href="#m0c75161630" x="253.606987" y="333.389986" style="fill: #3c33ff; stroke: #000000; stroke-linejoin: miter"/>
    </g>
   </g>
   <g id="line2d_15">
    <path d="M 218.226553 261.946656 
L 221.442956 246.030752 
L 224.659359 255.610447 
L 227.875762 286.043264 
L 234.308568 309.807103 
L 253.606987 335.28912 
" clip-path="url(#p8d71accbf3)" style="fill: none; stroke-dasharray: 3.7,1.6; stroke-dashoffset: 0; stroke: #000000"/>
    <defs>
     <path id="mbf27041f49" d="M -3 3 
L 3 3 
L 3 -3 
L -3 -3 
z
" style="stroke: #000000; stroke-linejoin: miter"/>
    </defs>
    <g clip-path="url(#p8d71accbf3)">
     <use xlink:href="#mbf27041f49" x="218.226553" y="261.946656" style="stroke: #000000; stroke-linejoin: miter"/>
     <use xlink:href="#mbf27041f49" x="221.442956" y="246.030752" style="stroke: #000000; stroke-linejoin: miter"/>
     <use xlink:href="#mbf27041f49" x="224.659359" y="255.610447" style="stroke: #000000; stroke-linejoin: miter"/>
     <use xlink:href="#mbf27041f49" x="227.875762" y="286.043264" style="stroke: #000000; stroke-linejoin: miter"/>
     <use xlink:href="#mbf27041f49" x="234.308568" y="309.807103" style="stroke: #000000; stroke-linejoin: miter"/>
     <use xlink:href="#mbf27041f49" x="253.606987" y="335.28912" style="stroke: #000000; stroke-linejoin: miter"/>
    </g>
   </g>
   <g id="patch_3">
    <path d="M 45.184063 364.248 
L 45.184063 48.24 
" style="fill: none; stroke: #000000; stroke-width: 0.8; stroke-linejoin: miter; stroke-linecap: square"/>
   </g>
   <g id="patch_4">
    <path d="M 384.836236 364.248 
L 384.836236 48.24 
" style="fill: none; stroke: #000000; stroke-width: 0.8; stroke-linejoin: miter; stroke-linecap: square"/>
   </g>
   <g id="patch_5">
    <path d="M 45.184063 364.248 
L 384.836236 364.248 
" style="fill: none; stroke: #000000; stroke-width: 0.8; stroke-linejoin: miter; stroke-linecap: square"/>
   </g>
   <g id="patch_6">
    <path d="M 45.184063 48.24 
L 384.836236 48.24 
" style="fill: none; stroke: #000000; stroke-width: 0.8; stroke-linejoin: miter; stroke-linecap: square"/>
   </g>
   <g id="legend_1">
    <g id="patch_7">
     <path d="M 181.028424 114.9525 
L 377.836236 114.9525 
Q 379.836236 114.9525 379.836236 112.9525 
L 379.836236 55.24 
Q 379.836236 53.24 377.836236 53.24 
L 181.028424 53.24 
Q 179.028424 53.24 179.028424 55.24 
L 179.028424 112.9525 
Q 179.028424 114.9525 181.028424 114.9525 
z
" style="fill: #ffffff; opacity: 0.8; stroke: #cccccc; stroke-linejoin: miter"/>
    </g>
    <g id="line2d_16">
     <path d="M 183.028424 61.338437 
L 203.028424 61.338437 
" style="fill: none; stroke: #3c33ff; stroke-width: 2; stroke-linecap: square"/>
    </g>
    <g id="line2d_17"/>
    <g id="text_14">
     <!-- sim: acute 50mg PO -->
     <g transform="translate(211.028424 64.838437) scale(0.1 -0.1)">
      <defs>
       <path id="DejaVuSans-73" d="M 2834 3397 
L 2834 2853 
Q 2591 2978 2328 3040 
Q 2066 3103 1784 3103 
Q 1356 3103 1142 2972 
Q 928 2841 928 2578 
Q 928 2378 1081 2264 
Q 1234 2150 1697 2047 
L 1894 2003 
Q 2506 1872 2764 1633 
Q 3022 1394 3022 966 
Q 3022 478 2636 193 
Q 2250 -91 1575 -91 
Q 1294 -91 989 -36 
Q 684 19 347 128 
L 347 722 
Q 666 556 975 473 
Q 1284 391 1588 391 
Q 1994 391 2212 530 
Q 2431 669 2431 922 
Q 2431 1156 2273 1281 
Q 2116 1406 1581 1522 
L 1381 1569 
Q 847 1681 609 1914 
Q 372 2147 372 2553 
Q 372 3047 722 3315 
Q 1072 3584 1716 3584 
Q 2034 3584 2315 3537 
Q 2597 3491 2834 3397 
z
" transform="scale(0.015625)"/>
       <path id="DejaVuSans-69" d="M 603 3500 
L 1178 3500 
L 1178 0 
L 603 0 
L 603 3500 
z
M 603 4863 
L 1178 4863 
L 1178 4134 
L 603 4134 
L 603 4863 
z
" transform="scale(0.015625)"/>
       <path id="DejaVuSans-6d" d="M 3328 2828 
Q 3544 3216 3844 3400 
Q 4144 3584 4550 3584 
Q 5097 3584 5394 3201 
Q 5691 2819 5691 2113 
L 5691 0 
L 5113 0 
L 5113 2094 
Q 5113 2597 4934 2840 
Q 4756 3084 4391 3084 
Q 3944 3084 3684 2787 
Q 3425 2491 3425 1978 
L 3425 0 
L 2847 0 
L 2847 2094 
Q 2847 2600 2669 2842 
Q 2491 3084 2119 3084 
Q 1678 3084 1418 2786 
Q 1159 2488 1159 1978 
L 1159 0 
L 581 0 
L 581 3500 
L 1159 3500 
L 1159 2956 
Q 1356 3278 1631 3431 
Q 1906 3584 2284 3584 
Q 2666 3584 2933 3390 
Q 3200 3197 3328 2828 
z
" transform="scale(0.015625)"/>
       <path id="DejaVuSans-3a" d="M 750 794 
L 1409 794 
L 1409 0 
L 750 0 
L 750 794 
z
M 750 3309 
L 1409 3309 
L 1409 2516 
L 750 2516 
L 750 3309 
z
" transform="scale(0.015625)"/>
       <path id="DejaVuSans-20" transform="scale(0.015625)"/>
       <path id="DejaVuSans-61" d="M 2194 1759 
Q 1497 1759 1228 1600 
Q 959 1441 959 1056 
Q 959 750 1161 570 
Q 1363 391 1709 391 
Q 2188 391 2477 730 
Q 2766 1069 2766 1631 
L 2766 1759 
L 2194 1759 
z
M 3341 1997 
L 3341 0 
L 2766 0 
L 2766 531 
Q 2569 213 2275 61 
Q 1981 -91 1556 -91 
Q 1019 -91 701 211 
Q 384 513 384 1019 
Q 384 1609 779 1909 
Q 1175 2209 1959 2209 
L 2766 2209 
L 2766 2266 
Q 2766 2663 2505 2880 
Q 2244 3097 1772 3097 
Q 1472 3097 1187 3025 
Q 903 2953 641 2809 
L 641 3341 
Q 956 3463 1253 3523 
Q 1550 3584 1831 3584 
Q 2591 3584 2966 3190 
Q 3341 2797 3341 1997 
z
" transform="scale(0.015625)"/>
       <path id="DejaVuSans-63" d="M 3122 3366 
L 3122 2828 
Q 2878 2963 2633 3030 
Q 2388 3097 2138 3097 
Q 1578 3097 1268 2742 
Q 959 2388 959 1747 
Q 959 1106 1268 751 
Q 1578 397 2138 397 
Q 2388 397 2633 464 
Q 2878 531 3122 666 
L 3122 134 
Q 2881 22 2623 -34 
Q 2366 -91 2075 -91 
Q 1284 -91 818 406 
Q 353 903 353 1747 
Q 353 2603 823 3093 
Q 1294 3584 2113 3584 
Q 2378 3584 2631 3529 
Q 2884 3475 3122 3366 
z
" transform="scale(0.015625)"/>
       <path id="DejaVuSans-75" d="M 544 1381 
L 544 3500 
L 1119 3500 
L 1119 1403 
Q 1119 906 1312 657 
Q 1506 409 1894 409 
Q 2359 409 2629 706 
Q 2900 1003 2900 1516 
L 2900 3500 
L 3475 3500 
L 3475 0 
L 2900 0 
L 2900 538 
Q 2691 219 2414 64 
Q 2138 -91 1772 -91 
Q 1169 -91 856 284 
Q 544 659 544 1381 
z
M 1991 3584 
L 1991 3584 
z
" transform="scale(0.015625)"/>
       <path id="DejaVuSans-74" d="M 1172 4494 
L 1172 3500 
L 2356 3500 
L 2356 3053 
L 1172 3053 
L 1172 1153 
Q 1172 725 1289 603 
Q 1406 481 1766 481 
L 2356 481 
L 2356 0 
L 1766 0 
Q 1100 0 847 248 
Q 594 497 594 1153 
L 594 3053 
L 172 3053 
L 172 3500 
L 594 3500 
L 594 4494 
L 1172 4494 
z
" transform="scale(0.015625)"/>
       <path id="DejaVuSans-65" d="M 3597 1894 
L 3597 1613 
L 953 1613 
Q 991 1019 1311 708 
Q 1631 397 2203 397 
Q 2534 397 2845 478 
Q 3156 559 3463 722 
L 3463 178 
Q 3153 47 2828 -22 
Q 2503 -91 2169 -91 
Q 1331 -91 842 396 
Q 353 884 353 1716 
Q 353 2575 817 3079 
Q 1281 3584 2069 3584 
Q 2775 3584 3186 3129 
Q 3597 2675 3597 1894 
z
M 3022 2063 
Q 3016 2534 2758 2815 
Q 2500 3097 2075 3097 
Q 1594 3097 1305 2825 
Q 1016 2553 972 2059 
L 3022 2063 
z
" transform="scale(0.015625)"/>
       <path id="DejaVuSans-67" d="M 2906 1791 
Q 2906 2416 2648 2759 
Q 2391 3103 1925 3103 
Q 1463 3103 1205 2759 
Q 947 2416 947 1791 
Q 947 1169 1205 825 
Q 1463 481 1925 481 
Q 2391 481 2648 825 
Q 2906 1169 2906 1791 
z
M 3481 434 
Q 3481 -459 3084 -895 
Q 2688 -1331 1869 -1331 
Q 1566 -1331 1297 -1286 
Q 1028 -1241 775 -1147 
L 775 -588 
Q 1028 -725 1275 -790 
Q 1522 -856 1778 -856 
Q 2344 -856 2625 -561 
Q 2906 -266 2906 331 
L 2906 616 
Q 2728 306 2450 153 
Q 2172 0 1784 0 
Q 1141 0 747 490 
Q 353 981 353 1791 
Q 353 2603 747 3093 
Q 1141 3584 1784 3584 
Q 2172 3584 2450 3431 
Q 2728 3278 2906 2969 
L 2906 3500 
L 3481 3500 
L 3481 434 
z
" transform="scale(0.015625)"/>
       <path id="DejaVuSans-50" d="M 1259 4147 
L 1259 2394 
L 2053 2394 
Q 2494 2394 2734 2622 
Q 2975 2850 2975 3272 
Q 2975 3691 2734 3919 
Q 2494 4147 2053 4147 
L 1259 4147 
z
M 628 4666 
L 2053 4666 
Q 2838 4666 3239 4311 
Q 3641 3956 3641 3272 
Q 3641 2581 3239 2228 
Q 2838 1875 2053 1875 
L 1259 1875 
L 1259 0 
L 628 0 
L 628 4666 
z
" transform="scale(0.015625)"/>
       <path id="DejaVuSans-4f" d="M 2522 4238 
Q 1834 4238 1429 3725 
Q 1025 3213 1025 2328 
Q 1025 1447 1429 934 
Q 1834 422 2522 422 
Q 3209 422 3611 934 
Q 4013 1447 4013 2328 
Q 4013 3213 3611 3725 
Q 3209 4238 2522 4238 
z
M 2522 4750 
Q 3503 4750 4090 4092 
Q 4678 3434 4678 2328 
Q 4678 1225 4090 567 
Q 3503 -91 2522 -91 
Q 1538 -91 948 565 
Q 359 1222 359 2328 
Q 359 3434 948 4092 
Q 1538 4750 2522 4750 
z
" transform="scale(0.015625)"/>
      </defs>
      <use xlink:href="#DejaVuSans-73"/>
      <use xlink:href="#DejaVuSans-69" transform="translate(52.099609 0)"/>
      <use xlink:href="#DejaVuSans-6d" transform="translate(79.882812 0)"/>
      <use xlink:href="#DejaVuSans-3a" transform="translate(177.294922 0)"/>
      <use xlink:href="#DejaVuSans-20" transform="translate(210.986328 0)"/>
      <use xlink:href="#DejaVuSans-61" transform="translate(242.773438 0)"/>
      <use xlink:href="#DejaVuSans-63" transform="translate(304.052734 0)"/>
      <use xlink:href="#DejaVuSans-75" transform="translate(359.033203 0)"/>
      <use xlink:href="#DejaVuSans-74" transform="translate(422.412109 0)"/>
      <use xlink:href="#DejaVuSans-65" transform="translate(461.621094 0)"/>
      <use xlink:href="#DejaVuSans-20" transform="translate(523.144531 0)"/>
      <use xlink:href="#DejaVuSans-35" transform="translate(554.931641 0)"/>
      <use xlink:href="#DejaVuSans-30" transform="translate(618.554688 0)"/>
      <use xlink:href="#DejaVuSans-6d" transform="translate(682.177734 0)"/>
      <use xlink:href="#DejaVuSans-67" transform="translate(779.589844 0)"/>
      <use xlink:href="#DejaVuSans-20" transform="translate(843.066406 0)"/>
      <use xlink:href="#DejaVuSans-50" transform="translate(874.853516 0)"/>
      <use xlink:href="#DejaVuSans-4f" transform="translate(935.15625 0)"/>
     </g>
    </g>
    <g id="line2d_18">
     <path d="M 183.028424 76.016562 
L 203.028424 76.016562 
" style="fill: none; stroke: #000000; stroke-width: 2; stroke-linecap: square"/>
    </g>
    <g id="line2d_19"/>
    <g id="text_15">
     <!-- sim: chronic 50mg PO -->
     <g transform="translate(211.028424 79.516562) scale(0.1 -0.1)">
      <defs>
       <path id="DejaVuSans-68" d="M 3513 2113 
L 3513 0 
L 2938 0 
L 2938 2094 
Q 2938 2591 2744 2837 
Q 2550 3084 2163 3084 
Q 1697 3084 1428 2787 
Q 1159 2491 1159 1978 
L 1159 0 
L 581 0 
L 581 4863 
L 1159 4863 
L 1159 2956 
Q 1366 3272 1645 3428 
Q 1925 3584 2291 3584 
Q 2894 3584 3203 3211 
Q 3513 2838 3513 2113 
z
" transform="scale(0.015625)"/>
       <path id="DejaVuSans-72" d="M 2631 2963 
Q 2534 3019 2420 3045 
Q 2306 3072 2169 3072 
Q 1681 3072 1420 2755 
Q 1159 2438 1159 1844 
L 1159 0 
L 581 0 
L 581 3500 
L 1159 3500 
L 1159 2956 
Q 1341 3275 1631 3429 
Q 1922 3584 2338 3584 
Q 2397 3584 2469 3576 
Q 2541 3569 2628 3553 
L 2631 2963 
z
" transform="scale(0.015625)"/>
       <path id="DejaVuSans-6f" d="M 1959 3097 
Q 1497 3097 1228 2736 
Q 959 2375 959 1747 
Q 959 1119 1226 758 
Q 1494 397 1959 397 
Q 2419 397 2687 759 
Q 2956 1122 2956 1747 
Q 2956 2369 2687 2733 
Q 2419 3097 1959 3097 
z
M 1959 3584 
Q 2709 3584 3137 3096 
Q 3566 2609 3566 1747 
Q 3566 888 3137 398 
Q 2709 -91 1959 -91 
Q 1206 -91 779 398 
Q 353 888 353 1747 
Q 353 2609 779 3096 
Q 1206 3584 1959 3584 
z
" transform="scale(0.015625)"/>
       <path id="DejaVuSans-6e" d="M 3513 2113 
L 3513 0 
L 2938 0 
L 2938 2094 
Q 2938 2591 2744 2837 
Q 2550 3084 2163 3084 
Q 1697 3084 1428 2787 
Q 1159 2491 1159 1978 
L 1159 0 
L 581 0 
L 581 3500 
L 1159 3500 
L 1159 2956 
Q 1366 3272 1645 3428 
Q 1925 3584 2291 3584 
Q 2894 3584 3203 3211 
Q 3513 2838 3513 2113 
z
" transform="scale(0.015625)"/>
      </defs>
      <use xlink:href="#DejaVuSans-73"/>
      <use xlink:href="#DejaVuSans-69" transform="translate(52.099609 0)"/>
      <use xlink:href="#DejaVuSans-6d" transform="translate(79.882812 0)"/>
      <use xlink:href="#DejaVuSans-3a" transform="translate(177.294922 0)"/>
      <use xlink:href="#DejaVuSans-20" transform="translate(210.986328 0)"/>
      <use xlink:href="#DejaVuSans-63" transform="translate(242.773438 0)"/>
      <use xlink:href="#DejaVuSans-68" transform="translate(297.753906 0)"/>
      <use xlink:href="#DejaVuSans-72" transform="translate(361.132812 0)"/>
      <use xlink:href="#DejaVuSans-6f" transform="translate(399.996094 0)"/>
      <use xlink:href="#DejaVuSans-6e" transform="translate(461.177734 0)"/>
      <use xlink:href="#DejaVuSans-69" transform="translate(524.556641 0)"/>
      <use xlink:href="#DejaVuSans-63" transform="translate(552.339844 0)"/>
      <use xlink:href="#DejaVuSans-20" transform="translate(607.320312 0)"/>
      <use xlink:href="#DejaVuSans-35" transform="translate(639.107422 0)"/>
      <use xlink:href="#DejaVuSans-30" transform="translate(702.730469 0)"/>
      <use xlink:href="#DejaVuSans-6d" transform="translate(766.353516 0)"/>
      <use xlink:href="#DejaVuSans-67" transform="translate(863.765625 0)"/>
      <use xlink:href="#DejaVuSans-20" transform="translate(927.242188 0)"/>
      <use xlink:href="#DejaVuSans-50" transform="translate(959.029297 0)"/>
      <use xlink:href="#DejaVuSans-4f" transform="translate(1019.332031 0)"/>
     </g>
    </g>
    <g id="LineCollection_3">
     <path d="M 193.028424 95.694687 
L 193.028424 85.694687 
" style="fill: none; stroke: #3c33ff"/>
    </g>
    <g id="line2d_20">
     <path d="M 183.028424 90.694687 
L 203.028424 90.694687 
" style="fill: none; stroke-dasharray: 3.7,1.6; stroke-dashoffset: 0; stroke: #3c33ff"/>
    </g>
    <g id="line2d_21">
     <g>
      <use xlink:href="#m0c75161630" x="193.028424" y="90.694687" style="fill: #3c33ff; stroke: #000000; stroke-linejoin: miter"/>
     </g>
    </g>
    <g id="text_16">
     <!-- exp: acute 50mg PO±SD (n=7) -->
     <g transform="translate(211.028424 94.194687) scale(0.1 -0.1)">
      <defs>
       <path id="DejaVuSans-78" d="M 3513 3500 
L 2247 1797 
L 3578 0 
L 2900 0 
L 1881 1375 
L 863 0 
L 184 0 
L 1544 1831 
L 300 3500 
L 978 3500 
L 1906 2253 
L 2834 3500 
L 3513 3500 
z
" transform="scale(0.015625)"/>
       <path id="DejaVuSans-70" d="M 1159 525 
L 1159 -1331 
L 581 -1331 
L 581 3500 
L 1159 3500 
L 1159 2969 
Q 1341 3281 1617 3432 
Q 1894 3584 2278 3584 
Q 2916 3584 3314 3078 
Q 3713 2572 3713 1747 
Q 3713 922 3314 415 
Q 2916 -91 2278 -91 
Q 1894 -91 1617 61 
Q 1341 213 1159 525 
z
M 3116 1747 
Q 3116 2381 2855 2742 
Q 2594 3103 2138 3103 
Q 1681 3103 1420 2742 
Q 1159 2381 1159 1747 
Q 1159 1113 1420 752 
Q 1681 391 2138 391 
Q 2594 391 2855 752 
Q 3116 1113 3116 1747 
z
" transform="scale(0.015625)"/>
       <path id="DejaVuSans-b1" d="M 2944 4013 
L 2944 2803 
L 4684 2803 
L 4684 2272 
L 2944 2272 
L 2944 1063 
L 2419 1063 
L 2419 2272 
L 678 2272 
L 678 2803 
L 2419 2803 
L 2419 4013 
L 2944 4013 
z
M 678 531 
L 4684 531 
L 4684 0 
L 678 0 
L 678 531 
z
" transform="scale(0.015625)"/>
       <path id="DejaVuSans-53" d="M 3425 4513 
L 3425 3897 
Q 3066 4069 2747 4153 
Q 2428 4238 2131 4238 
Q 1616 4238 1336 4038 
Q 1056 3838 1056 3469 
Q 1056 3159 1242 3001 
Q 1428 2844 1947 2747 
L 2328 2669 
Q 3034 2534 3370 2195 
Q 3706 1856 3706 1288 
Q 3706 609 3251 259 
Q 2797 -91 1919 -91 
Q 1588 -91 1214 -16 
Q 841 59 441 206 
L 441 856 
Q 825 641 1194 531 
Q 1563 422 1919 422 
Q 2459 422 2753 634 
Q 3047 847 3047 1241 
Q 3047 1584 2836 1778 
Q 2625 1972 2144 2069 
L 1759 2144 
Q 1053 2284 737 2584 
Q 422 2884 422 3419 
Q 422 4038 858 4394 
Q 1294 4750 2059 4750 
Q 2388 4750 2728 4690 
Q 3069 4631 3425 4513 
z
" transform="scale(0.015625)"/>
       <path id="DejaVuSans-44" d="M 1259 4147 
L 1259 519 
L 2022 519 
Q 2988 519 3436 956 
Q 3884 1394 3884 2338 
Q 3884 3275 3436 3711 
Q 2988 4147 2022 4147 
L 1259 4147 
z
M 628 4666 
L 1925 4666 
Q 3281 4666 3915 4102 
Q 4550 3538 4550 2338 
Q 4550 1131 3912 565 
Q 3275 0 1925 0 
L 628 0 
L 628 4666 
z
" transform="scale(0.015625)"/>
       <path id="DejaVuSans-28" d="M 1984 4856 
Q 1566 4138 1362 3434 
Q 1159 2731 1159 2009 
Q 1159 1288 1364 580 
Q 1569 -128 1984 -844 
L 1484 -844 
Q 1016 -109 783 600 
Q 550 1309 550 2009 
Q 550 2706 781 3412 
Q 1013 4119 1484 4856 
L 1984 4856 
z
" transform="scale(0.015625)"/>
       <path id="DejaVuSans-3d" d="M 678 2906 
L 4684 2906 
L 4684 2381 
L 678 2381 
L 678 2906 
z
M 678 1631 
L 4684 1631 
L 4684 1100 
L 678 1100 
L 678 1631 
z
" transform="scale(0.015625)"/>
       <path id="DejaVuSans-37" d="M 525 4666 
L 3525 4666 
L 3525 4397 
L 1831 0 
L 1172 0 
L 2766 4134 
L 525 4134 
L 525 4666 
z
" transform="scale(0.015625)"/>
       <path id="DejaVuSans-29" d="M 513 4856 
L 1013 4856 
Q 1481 4119 1714 3412 
Q 1947 2706 1947 2009 
Q 1947 1309 1714 600 
Q 1481 -109 1013 -844 
L 513 -844 
Q 928 -128 1133 580 
Q 1338 1288 1338 2009 
Q 1338 2731 1133 3434 
Q 928 4138 513 4856 
z
" transform="scale(0.015625)"/>
      </defs>
      <use xlink:href="#DejaVuSans-65"/>
      <use xlink:href="#DejaVuSans-78" transform="translate(59.773438 0)"/>
      <use xlink:href="#DejaVuSans-70" transform="translate(118.953125 0)"/>
      <use xlink:href="#DejaVuSans-3a" transform="translate(182.429688 0)"/>
      <use xlink:href="#DejaVuSans-20" transform="translate(216.121094 0)"/>
      <use xlink:href="#DejaVuSans-61" transform="translate(247.908203 0)"/>
      <use xlink:href="#DejaVuSans-63" transform="translate(309.1875 0)"/>
      <use xlink:href="#DejaVuSans-75" transform="translate(364.167969 0)"/>
      <use xlink:href="#DejaVuSans-74" transform="translate(427.546875 0)"/>
      <use xlink:href="#DejaVuSans-65" transform="translate(466.755859 0)"/>
      <use xlink:href="#DejaVuSans-20" transform="translate(528.279297 0)"/>
      <use xlink:href="#DejaVuSans-35" transform="translate(560.066406 0)"/>
      <use xlink:href="#DejaVuSans-30" transform="translate(623.689453 0)"/>
      <use xlink:href="#DejaVuSans-6d" transform="translate(687.3125 0)"/>
      <use xlink:href="#DejaVuSans-67" transform="translate(784.724609 0)"/>
      <use xlink:href="#DejaVuSans-20" transform="translate(848.201172 0)"/>
      <use xlink:href="#DejaVuSans-50" transform="translate(879.988281 0)"/>
      <use xlink:href="#DejaVuSans-4f" transform="translate(940.291016 0)"/>
      <use xlink:href="#DejaVuSans-b1" transform="translate(1019.001953 0)"/>
      <use xlink:href="#DejaVuSans-53" transform="translate(1102.791016 0)"/>
      <use xlink:href="#DejaVuSans-44" transform="translate(1166.267578 0)"/>
      <use xlink:href="#DejaVuSans-20" transform="translate(1243.269531 0)"/>
      <use xlink:href="#DejaVuSans-28" transform="translate(1275.056641 0)"/>
      <use xlink:href="#DejaVuSans-6e" transform="translate(1314.070312 0)"/>
      <use xlink:href="#DejaVuSans-3d" transform="translate(1377.449219 0)"/>
      <use xlink:href="#DejaVuSans-37" transform="translate(1461.238281 0)"/>
      <use xlink:href="#DejaVuSans-29" transform="translate(1524.861328 0)"/>
     </g>
    </g>
    <g id="LineCollection_4">
     <path d="M 193.028424 110.372812 
L 193.028424 100.372812 
" style="fill: none; stroke: #000000"/>
    </g>
    <g id="line2d_22">
     <path d="M 183.028424 105.372812 
L 203.028424 105.372812 
" style="fill: none; stroke-dasharray: 3.7,1.6; stroke-dashoffset: 0; stroke: #000000"/>
    </g>
    <g id="line2d_23">
     <g>
      <use xlink:href="#mbf27041f49" x="193.028424" y="105.372812" style="stroke: #000000; stroke-linejoin: miter"/>
     </g>
    </g>
    <g id="text_17">
     <!-- exp: chronic 50mg PO±SD (n=7) -->
     <g transform="translate(211.028424 108.872812) scale(0.1 -0.1)">
      <use xlink:href="#DejaVuSans-65"/>
      <use xlink:href="#DejaVuSans-78" transform="translate(59.773438 0)"/>
      <use xlink:href="#DejaVuSans-70" transform="translate(118.953125 0)"/>
      <use xlink:href="#DejaVuSans-3a" transform="translate(182.429688 0)"/>
      <use xlink:href="#DejaVuSans-20" transform="translate(216.121094 0)"/>
      <use xlink:href="#DejaVuSans-63" transform="translate(247.908203 0)"/>
      <use xlink:href="#DejaVuSans-68" transform="translate(302.888672 0)"/>
      <use xlink:href="#DejaVuSans-72" transform="translate(366.267578 0)"/>
      <use xlink:href="#DejaVuSans-6f" transform="translate(405.130859 0)"/>
      <use xlink:href="#DejaVuSans-6e" transform="translate(466.3125 0)"/>
      <use xlink:href="#DejaVuSans-69" transform="translate(529.691406 0)"/>
      <use xlink:href="#DejaVuSans-63" transform="translate(557.474609 0)"/>
      <use xlink:href="#DejaVuSans-20" transform="translate(612.455078 0)"/>
      <use xlink:href="#DejaVuSans-35" transform="translate(644.242188 0)"/>
      <use xlink:href="#DejaVuSans-30" transform="translate(707.865234 0)"/>
      <use xlink:href="#DejaVuSans-6d" transform="translate(771.488281 0)"/>
      <use xlink:href="#DejaVuSans-67" transform="translate(868.900391 0)"/>
      <use xlink:href="#DejaVuSans-20" transform="translate(932.376953 0)"/>
      <use xlink:href="#DejaVuSans-50" transform="translate(964.164062 0)"/>
      <use xlink:href="#DejaVuSans-4f" transform="translate(1024.466797 0)"/>
      <use xlink:href="#DejaVuSans-b1" transform="translate(1103.177734 0)"/>
      <use xlink:href="#DejaVuSans-53" transform="translate(1186.966797 0)"/>
      <use xlink:href="#DejaVuSans-44" transform="translate(1250.443359 0)"/>
      <use xlink:href="#DejaVuSans-20" transform="translate(1327.445312 0)"/>
      <use xlink:href="#DejaVuSans-28" transform="translate(1359.232422 0)"/>
      <use xlink:href="#DejaVuSans-6e" transform="translate(1398.246094 0)"/>
      <use xlink:href="#DejaVuSans-3d" transform="translate(1461.625 0)"/>
      <use xlink:href="#DejaVuSans-37" transform="translate(1545.414062 0)"/>
      <use xlink:href="#DejaVuSans-29" transform="translate(1609.037109 0)"/>
     </g>
    </g>
   </g>
  </g>
  <g id="axes_2">
   <g id="patch_8">
    <path d="M 486.731889 364.248 
L 826.384063 364.248 
L 826.384063 48.24 
L 486.731889 48.24 
z
" style="fill: #ffffff"/>
   </g>
   <g id="matplotlib.axis_3">
    <g id="xtick_6">
     <g id="line2d_24">
      <g>
       <use xlink:href="#m06019ed8fc" x="502.170624" y="364.248" style="stroke: #000000; stroke-width: 0.8"/>
      </g>
     </g>
     <g id="text_18">
      <!-- −1.0 -->
      <g transform="translate(483.958514 382.645656) scale(0.15 -0.15)">
       <use xlink:href="#DejaVuSans-2212"/>
       <use xlink:href="#DejaVuSans-31" transform="translate(83.789062 0)"/>
       <use xlink:href="#DejaVuSans-2e" transform="translate(147.412109 0)"/>
       <use xlink:href="#DejaVuSans-30" transform="translate(179.199219 0)"/>
      </g>
     </g>
    </g>
    <g id="xtick_7">
     <g id="line2d_25">
      <g>
       <use xlink:href="#m06019ed8fc" x="579.3643" y="364.248" style="stroke: #000000; stroke-width: 0.8"/>
      </g>
     </g>
     <g id="text_19">
      <!-- −0.5 -->
      <g transform="translate(561.15219 382.645656) scale(0.15 -0.15)">
       <use xlink:href="#DejaVuSans-2212"/>
       <use xlink:href="#DejaVuSans-30" transform="translate(83.789062 0)"/>
       <use xlink:href="#DejaVuSans-2e" transform="translate(147.412109 0)"/>
       <use xlink:href="#DejaVuSans-35" transform="translate(179.199219 0)"/>
      </g>
     </g>
    </g>
    <g id="xtick_8">
     <g id="line2d_26">
      <g>
       <use xlink:href="#m06019ed8fc" x="656.557976" y="364.248" style="stroke: #000000; stroke-width: 0.8"/>
      </g>
     </g>
     <g id="text_20">
      <!-- 0.0 -->
      <g transform="translate(644.630632 382.645656) scale(0.15 -0.15)">
       <use xlink:href="#DejaVuSans-30"/>
       <use xlink:href="#DejaVuSans-2e" transform="translate(63.623047 0)"/>
       <use xlink:href="#DejaVuSans-30" transform="translate(95.410156 0)"/>
      </g>
     </g>
    </g>
    <g id="xtick_9">
     <g id="line2d_27">
      <g>
       <use xlink:href="#m06019ed8fc" x="733.751651" y="364.248" style="stroke: #000000; stroke-width: 0.8"/>
      </g>
     </g>
     <g id="text_21">
      <!-- 0.5 -->
      <g transform="translate(721.824308 382.645656) scale(0.15 -0.15)">
       <use xlink:href="#DejaVuSans-30"/>
       <use xlink:href="#DejaVuSans-2e" transform="translate(63.623047 0)"/>
       <use xlink:href="#DejaVuSans-35" transform="translate(95.410156 0)"/>
      </g>
     </g>
    </g>
    <g id="xtick_10">
     <g id="line2d_28">
      <g>
       <use xlink:href="#m06019ed8fc" x="810.945327" y="364.248" style="stroke: #000000; stroke-width: 0.8"/>
      </g>
     </g>
     <g id="text_22">
      <!-- 1.0 -->
      <g transform="translate(799.017984 382.645656) scale(0.15 -0.15)">
       <use xlink:href="#DejaVuSans-31"/>
       <use xlink:href="#DejaVuSans-2e" transform="translate(63.623047 0)"/>
       <use xlink:href="#DejaVuSans-30" transform="translate(95.410156 0)"/>
      </g>
     </g>
    </g>
    <g id="text_23">
     <!-- time [day] -->
     <g transform="translate(604.227194 403.442375) scale(0.18 -0.18)">
      <use xlink:href="#DejaVuSans-Bold-74"/>
      <use xlink:href="#DejaVuSans-Bold-69" transform="translate(47.802734 0)"/>
      <use xlink:href="#DejaVuSans-Bold-6d" transform="translate(82.080078 0)"/>
      <use xlink:href="#DejaVuSans-Bold-65" transform="translate(186.279297 0)"/>
      <use xlink:href="#DejaVuSans-Bold-20" transform="translate(254.101562 0)"/>
      <use xlink:href="#DejaVuSans-Bold-5b" transform="translate(288.916016 0)"/>
      <use xlink:href="#DejaVuSans-Bold-64" transform="translate(334.619141 0)"/>
      <use xlink:href="#DejaVuSans-Bold-61" transform="translate(406.201172 0)"/>
      <use xlink:href="#DejaVuSans-Bold-79" transform="translate(470.556641 0)"/>
      <use xlink:href="#DejaVuSans-Bold-5d" transform="translate(535.742188 0)"/>
     </g>
    </g>
   </g>
   <g id="matplotlib.axis_4">
    <g id="ytick_7">
     <g id="line2d_29">
      <g>
       <use xlink:href="#mb5c8f25161" x="486.731889" y="339.387265" style="stroke: #000000; stroke-width: 0.8"/>
      </g>
     </g>
     <g id="text_24">
      <!-- 0 -->
      <g transform="translate(470.188139 345.086093) scale(0.15 -0.15)">
       <use xlink:href="#DejaVuSans-30"/>
      </g>
     </g>
    </g>
    <g id="ytick_8">
     <g id="line2d_30">
      <g>
       <use xlink:href="#mb5c8f25161" x="486.731889" y="282.299566" style="stroke: #000000; stroke-width: 0.8"/>
      </g>
     </g>
     <g id="text_25">
      <!-- 1 -->
      <g transform="translate(470.188139 287.998394) scale(0.15 -0.15)">
       <use xlink:href="#DejaVuSans-31"/>
      </g>
     </g>
    </g>
    <g id="ytick_9">
     <g id="line2d_31">
      <g>
       <use xlink:href="#mb5c8f25161" x="486.731889" y="225.211867" style="stroke: #000000; stroke-width: 0.8"/>
      </g>
     </g>
     <g id="text_26">
      <!-- 2 -->
      <g transform="translate(470.188139 230.910695) scale(0.15 -0.15)">
       <use xlink:href="#DejaVuSans-32"/>
      </g>
     </g>
    </g>
    <g id="ytick_10">
     <g id="line2d_32">
      <g>
       <use xlink:href="#mb5c8f25161" x="486.731889" y="168.124168" style="stroke: #000000; stroke-width: 0.8"/>
      </g>
     </g>
     <g id="text_27">
      <!-- 3 -->
      <g transform="translate(470.188139 173.822996) scale(0.15 -0.15)">
       <use xlink:href="#DejaVuSans-33"/>
      </g>
     </g>
    </g>
    <g id="ytick_11">
     <g id="line2d_33">
      <g>
       <use xlink:href="#mb5c8f25161" x="486.731889" y="111.036469" style="stroke: #000000; stroke-width: 0.8"/>
      </g>
     </g>
     <g id="text_28">
      <!-- 4 -->
      <g transform="translate(470.188139 116.735297) scale(0.15 -0.15)">
       <use xlink:href="#DejaVuSans-34"/>
      </g>
     </g>
    </g>
    <g id="ytick_12">
     <g id="line2d_34">
      <g>
       <use xlink:href="#mb5c8f25161" x="486.731889" y="53.94877" style="stroke: #000000; stroke-width: 0.8"/>
      </g>
     </g>
     <g id="text_29">
      <!-- 5 -->
      <g transform="translate(470.188139 59.647598) scale(0.15 -0.15)">
       <use xlink:href="#DejaVuSans-35"/>
      </g>
     </g>
    </g>
    <g id="text_30">
     <!-- captopril + capss [µM] -->
     <g transform="translate(462.425014 320.940562) rotate(-90) scale(0.18 -0.18)">
      <defs>
       <path id="DejaVuSans-Bold-2b" d="M 3053 4013 
L 3053 2375 
L 4684 2375 
L 4684 1638 
L 3053 1638 
L 3053 0 
L 2309 0 
L 2309 1638 
L 678 1638 
L 678 2375 
L 2309 2375 
L 2309 4013 
L 3053 4013 
z
" transform="scale(0.015625)"/>
       <path id="DejaVuSans-Bold-73" d="M 3272 3391 
L 3272 2541 
Q 2913 2691 2578 2766 
Q 2244 2841 1947 2841 
Q 1628 2841 1473 2761 
Q 1319 2681 1319 2516 
Q 1319 2381 1436 2309 
Q 1553 2238 1856 2203 
L 2053 2175 
Q 2913 2066 3209 1816 
Q 3506 1566 3506 1031 
Q 3506 472 3093 190 
Q 2681 -91 1863 -91 
Q 1516 -91 1145 -36 
Q 775 19 384 128 
L 384 978 
Q 719 816 1070 734 
Q 1422 653 1784 653 
Q 2113 653 2278 743 
Q 2444 834 2444 1013 
Q 2444 1163 2330 1236 
Q 2216 1309 1875 1350 
L 1678 1375 
Q 931 1469 631 1722 
Q 331 1975 331 2491 
Q 331 3047 712 3315 
Q 1094 3584 1881 3584 
Q 2191 3584 2531 3537 
Q 2872 3491 3272 3391 
z
" transform="scale(0.015625)"/>
      </defs>
      <use xlink:href="#DejaVuSans-Bold-63"/>
      <use xlink:href="#DejaVuSans-Bold-61" transform="translate(59.277344 0)"/>
      <use xlink:href="#DejaVuSans-Bold-70" transform="translate(126.757812 0)"/>
      <use xlink:href="#DejaVuSans-Bold-74" transform="translate(198.339844 0)"/>
      <use xlink:href="#DejaVuSans-Bold-6f" transform="translate(246.142578 0)"/>
      <use xlink:href="#DejaVuSans-Bold-70" transform="translate(314.84375 0)"/>
      <use xlink:href="#DejaVuSans-Bold-72" transform="translate(386.425781 0)"/>
      <use xlink:href="#DejaVuSans-Bold-69" transform="translate(435.742188 0)"/>
      <use xlink:href="#DejaVuSans-Bold-6c" transform="translate(470.019531 0)"/>
      <use xlink:href="#DejaVuSans-Bold-20" transform="translate(504.296875 0)"/>
      <use xlink:href="#DejaVuSans-Bold-2b" transform="translate(539.111328 0)"/>
      <use xlink:href="#DejaVuSans-Bold-20" transform="translate(622.900391 0)"/>
      <use xlink:href="#DejaVuSans-Bold-63" transform="translate(657.714844 0)"/>
      <use xlink:href="#DejaVuSans-Bold-61" transform="translate(716.992188 0)"/>
      <use xlink:href="#DejaVuSans-Bold-70" transform="translate(784.472656 0)"/>
      <use xlink:href="#DejaVuSans-Bold-73" transform="translate(856.054688 0)"/>
      <use xlink:href="#DejaVuSans-Bold-73" transform="translate(915.576172 0)"/>
      <use xlink:href="#DejaVuSans-Bold-20" transform="translate(975.097656 0)"/>
      <use xlink:href="#DejaVuSans-Bold-5b" transform="translate(1009.912109 0)"/>
      <use xlink:href="#DejaVuSans-Bold-b5" transform="translate(1055.615234 0)"/>
      <use xlink:href="#DejaVuSans-Bold-4d" transform="translate(1129.199219 0)"/>
      <use xlink:href="#DejaVuSans-Bold-5d" transform="translate(1228.710938 0)"/>
     </g>
    </g>
   </g>
   <g id="LineCollection_5">
    <path d="M 659.774379 322.22695 
L 659.774379 170.842016 
" clip-path="url(#pbbf3423f1f)" style="fill: none; stroke: #3c33ff"/>
    <path d="M 662.990782 297.99801 
L 662.990782 134.273362 
" clip-path="url(#pbbf3423f1f)" style="fill: none; stroke: #3c33ff"/>
    <path d="M 666.207185 260.699369 
L 666.207185 124.790036 
" clip-path="url(#pbbf3423f1f)" style="fill: none; stroke: #3c33ff"/>
    <path d="M 669.423588 264.253463 
L 669.423588 156.159446 
" clip-path="url(#pbbf3423f1f)" style="fill: none; stroke: #3c33ff"/>
    <path d="M 675.856395 286.883818 
L 675.856395 212.751454 
" clip-path="url(#pbbf3423f1f)" style="fill: none; stroke: #3c33ff"/>
    <path d="M 695.154813 324.818509 
L 695.154813 272.339444 
" clip-path="url(#pbbf3423f1f)" style="fill: none; stroke: #3c33ff"/>
    <path d="M 714.453232 334.974912 
L 714.453232 307.175276 
" clip-path="url(#pbbf3423f1f)" style="fill: none; stroke: #3c33ff"/>
    <path d="M 733.751651 339.877637 
L 733.751651 318.255698 
" clip-path="url(#pbbf3423f1f)" style="fill: none; stroke: #3c33ff"/>
    <path d="M 810.945327 346.313984 
L 810.945327 327.796572 
" clip-path="url(#pbbf3423f1f)" style="fill: none; stroke: #3c33ff"/>
   </g>
   <g id="LineCollection_6">
    <path d="M 656.557976 346.709576 
L 656.557976 325.071957 
" clip-path="url(#pbbf3423f1f)" style="fill: none; stroke: #000000"/>
    <path d="M 659.774379 307.725543 
L 659.774379 131.6455 
" clip-path="url(#pbbf3423f1f)" style="fill: none; stroke: #000000"/>
    <path d="M 662.990782 264.813781 
L 662.990782 23.852242 
" clip-path="url(#pbbf3423f1f)" style="fill: none; stroke: #000000"/>
    <path d="M 666.207185 236.0567 
L 666.207185 115.57593 
" clip-path="url(#pbbf3423f1f)" style="fill: none; stroke: #000000"/>
    <path d="M 669.423588 271.221685 
L 669.423588 153.861123 
" clip-path="url(#pbbf3423f1f)" style="fill: none; stroke: #000000"/>
    <path d="M 675.856395 277.459827 
L 675.856395 228.006893 
" clip-path="url(#pbbf3423f1f)" style="fill: none; stroke: #000000"/>
    <path d="M 695.154813 326.038291 
L 695.154813 282.794412 
" clip-path="url(#pbbf3423f1f)" style="fill: none; stroke: #000000"/>
    <path d="M 714.453232 333.013948 
L 714.453232 302.125463 
" clip-path="url(#pbbf3423f1f)" style="fill: none; stroke: #000000"/>
    <path d="M 733.751651 337.168701 
L 733.751651 318.63561 
" clip-path="url(#pbbf3423f1f)" style="fill: none; stroke: #000000"/>
    <path d="M 810.945327 344.176933 
L 810.945327 328.74837 
" clip-path="url(#pbbf3423f1f)" style="fill: none; stroke: #000000"/>
   </g>
   <g id="line2d_35">
    <path d="M 656.557976 339.387265 
L 657.4843 163.787884 
L 658.410624 114.873685 
L 659.336948 97.534535 
L 660.263272 94.837742 
L 661.189596 99.750592 
L 662.11592 108.461613 
L 667.673865 170.006679 
L 669.526513 186.57361 
L 671.379161 200.875096 
L 673.23181 213.218674 
L 675.084458 223.899636 
L 676.937106 233.172872 
L 678.789754 241.251373 
L 680.642402 248.311699 
L 682.495051 254.50036 
L 684.347699 259.939472 
L 686.200347 264.731401 
L 688.052995 268.962454 
L 689.905644 272.705822 
L 691.758292 276.023901 
L 693.61094 278.970155 
L 695.463588 281.590592 
L 697.316236 283.924973 
L 699.168885 286.007778 
L 701.947857 288.724843 
L 704.726829 291.028148 
L 707.505802 292.987878 
L 710.284774 294.661775 
L 713.063746 296.097514 
L 716.769043 297.70859 
L 720.474339 299.041204 
L 724.179636 300.154421 
L 728.811256 301.306957 
L 734.369201 302.428055 
L 740.85347 303.480629 
L 748.264063 304.45774 
L 758.453628 305.557982 
L 772.348489 306.808004 
L 792.72762 308.394866 
L 823.296315 310.531701 
L 834.584063 311.275021 
L 834.584063 311.275021 
" clip-path="url(#pbbf3423f1f)" style="fill: none; stroke: #3c33ff; stroke-width: 2; stroke-linecap: square"/>
   </g>
   <g id="line2d_36">
    <path d="M 486.423114 236.236513 
L 502.170624 239.920555 
L 502.170624 239.920555 
L 502.479398 151.795949 
L 502.788173 97.496138 
L 503.405723 42.5363 
L 504.023272 15.830656 
L 504.640821 2.288624 
L 504.92399 -1 
M 506.481831 -1 
L 506.802244 1.33945 
L 507.728568 10.260143 
L 509.581217 31.9833 
L 512.051414 60.36133 
L 513.904063 78.982158 
L 515.756711 95.173798 
L 517.609359 109.197876 
L 519.462007 121.364364 
L 521.314655 131.956238 
L 523.167304 141.214047 
L 525.019952 149.337937 
L 526.8726 156.493776 
L 528.725248 162.819374 
L 530.577896 168.429812 
L 532.430545 173.421741 
L 534.591968 178.572161 
L 536.753391 183.100207 
L 538.914813 187.0965 
L 541.076236 190.63697 
L 543.237659 193.785602 
L 545.707857 196.973365 
L 548.178055 199.787935 
L 550.648252 202.286168 
L 553.427225 204.777605 
L 556.206197 206.98534 
L 559.293944 209.162164 
L 562.690466 211.28094 
L 566.395762 213.326534 
L 570.409833 215.294319 
L 575.041454 217.315875 
L 580.290624 219.363335 
L 586.466118 221.530552 
L 593.876711 223.890138 
L 603.139952 226.593826 
L 614.873391 229.770329 
L 629.385802 233.459944 
L 646.98596 237.699478 
L 656.557976 239.920508 
L 656.557976 239.920508 
L 657.4843 64.533212 
L 658.410624 15.830609 
L 659.320862 -1 
M 660.766593 -1 
L 661.189596 1.339404 
L 662.11592 10.260096 
L 667.673865 73.053323 
L 669.526513 90.032603 
L 671.379161 104.744614 
L 673.23181 117.496909 
L 675.084458 128.584794 
L 676.937106 138.263172 
L 678.789754 146.745047 
L 680.642402 154.206991 
L 682.495051 160.795525 
L 684.347699 166.632779 
L 686.200347 171.821126 
L 688.052995 176.446887 
L 689.905644 180.583259 
L 691.758292 184.292651 
L 693.61094 187.628533 
L 695.463588 190.636925 
L 698.242561 194.620995 
L 701.021533 198.069243 
L 703.800505 201.073376 
L 706.579478 203.708391 
L 709.35845 206.035913 
L 712.137422 208.106766 
L 715.842719 210.540257 
L 719.548015 212.671793 
L 723.253312 214.564226 
L 727.884932 216.667512 
L 733.442877 218.901026 
L 739.927146 221.218922 
L 747.337738 223.606437 
L 756.600979 226.332725 
L 767.716869 229.364128 
L 781.61173 232.923172 
L 799.211889 237.190184 
L 818.664695 241.673106 
L 827.001612 243.529425 
L 827.001612 243.529425 
" clip-path="url(#pbbf3423f1f)" style="fill: none; stroke: #000000; stroke-width: 2; stroke-linecap: square"/>
   </g>
   <g id="line2d_37">
    <path d="M 659.774379 246.534483 
L 662.990782 216.135686 
L 666.207185 192.744703 
L 669.423588 210.206454 
L 675.856395 249.817636 
L 695.154813 298.578977 
L 714.453232 321.075094 
L 733.751651 329.066668 
L 810.945327 337.055278 
" clip-path="url(#pbbf3423f1f)" style="fill: none; stroke-dasharray: 3.7,1.6; stroke-dashoffset: 0; stroke: #3c33ff"/>
    <g clip-path="url(#pbbf3423f1f)">
     <use xlink:href="#m0c75161630" x="659.774379" y="246.534483" style="fill: #3c33ff; stroke: #000000; stroke-linejoin: miter"/>
     <use xlink:href="#m0c75161630" x="662.990782" y="216.135686" style="fill: #3c33ff; stroke: #000000; stroke-linejoin: miter"/>
     <use xlink:href="#m0c75161630" x="666.207185" y="192.744703" style="fill: #3c33ff; stroke: #000000; stroke-linejoin: miter"/>
     <use xlink:href="#m0c75161630" x="669.423588" y="210.206454" style="fill: #3c33ff; stroke: #000000; stroke-linejoin: miter"/>
     <use xlink:href="#m0c75161630" x="675.856395" y="249.817636" style="fill: #3c33ff; stroke: #000000; stroke-linejoin: miter"/>
     <use xlink:href="#m0c75161630" x="695.154813" y="298.578977" style="fill: #3c33ff; stroke: #000000; stroke-linejoin: miter"/>
     <use xlink:href="#m0c75161630" x="714.453232" y="321.075094" style="fill: #3c33ff; stroke: #000000; stroke-linejoin: miter"/>
     <use xlink:href="#m0c75161630" x="733.751651" y="329.066668" style="fill: #3c33ff; stroke: #000000; stroke-linejoin: miter"/>
     <use xlink:href="#m0c75161630" x="810.945327" y="337.055278" style="fill: #3c33ff; stroke: #000000; stroke-linejoin: miter"/>
    </g>
   </g>
   <g id="line2d_38">
    <path d="M 656.557976 335.890766 
L 659.774379 219.685521 
L 662.990782 144.333011 
L 666.207185 175.816315 
L 669.423588 212.541404 
L 675.856395 252.73336 
L 695.154813 304.416352 
L 714.453232 317.569706 
L 733.751651 327.902156 
L 810.945327 336.462651 
" clip-path="url(#pbbf3423f1f)" style="fill: none; stroke-dasharray: 3.7,1.6; stroke-dashoffset: 0; stroke: #000000"/>
    <g clip-path="url(#pbbf3423f1f)">
     <use xlink:href="#mbf27041f49" x="656.557976" y="335.890766" style="stroke: #000000; stroke-linejoin: miter"/>
     <use xlink:href="#mbf27041f49" x="659.774379" y="219.685521" style="stroke: #000000; stroke-linejoin: miter"/>
     <use xlink:href="#mbf27041f49" x="662.990782" y="144.333011" style="stroke: #000000; stroke-linejoin: miter"/>
     <use xlink:href="#mbf27041f49" x="666.207185" y="175.816315" style="stroke: #000000; stroke-linejoin: miter"/>
     <use xlink:href="#mbf27041f49" x="669.423588" y="212.541404" style="stroke: #000000; stroke-linejoin: miter"/>
     <use xlink:href="#mbf27041f49" x="675.856395" y="252.73336" style="stroke: #000000; stroke-linejoin: miter"/>
     <use xlink:href="#mbf27041f49" x="695.154813" y="304.416352" style="stroke: #000000; stroke-linejoin: miter"/>
     <use xlink:href="#mbf27041f49" x="714.453232" y="317.569706" style="stroke: #000000; stroke-linejoin: miter"/>
     <use xlink:href="#mbf27041f49" x="733.751651" y="327.902156" style="stroke: #000000; stroke-linejoin: miter"/>
     <use xlink:href="#mbf27041f49" x="810.945327" y="336.462651" style="stroke: #000000; stroke-linejoin: miter"/>
    </g>
   </g>
   <g id="patch_9">
    <path d="M 486.731889 364.248 
L 486.731889 48.24 
" style="fill: none; stroke: #000000; stroke-width: 0.8; stroke-linejoin: miter; stroke-linecap: square"/>
   </g>
   <g id="patch_10">
    <path d="M 826.384063 364.248 
L 826.384063 48.24 
" style="fill: none; stroke: #000000; stroke-width: 0.8; stroke-linejoin: miter; stroke-linecap: square"/>
   </g>
   <g id="patch_11">
    <path d="M 486.731889 364.248 
L 826.384063 364.248 
" style="fill: none; stroke: #000000; stroke-width: 0.8; stroke-linejoin: miter; stroke-linecap: square"/>
   </g>
   <g id="patch_12">
    <path d="M 486.731889 48.24 
L 826.384063 48.24 
" style="fill: none; stroke: #000000; stroke-width: 0.8; stroke-linejoin: miter; stroke-linecap: square"/>
   </g>
   <g id="legend_2">
    <g id="patch_13">
     <path d="M 493.731889 359.248 
L 690.539701 359.248 
Q 692.539701 359.248 692.539701 357.248 
L 692.539701 299.5355 
Q 692.539701 297.5355 690.539701 297.5355 
L 493.731889 297.5355 
Q 491.731889 297.5355 491.731889 299.5355 
L 491.731889 357.248 
Q 491.731889 359.248 493.731889 359.248 
z
" style="fill: #ffffff; opacity: 0.8; stroke: #cccccc; stroke-linejoin: miter"/>
    </g>
    <g id="line2d_39">
     <path d="M 495.731889 305.633937 
L 515.731889 305.633937 
" style="fill: none; stroke: #3c33ff; stroke-width: 2; stroke-linecap: square"/>
    </g>
    <g id="line2d_40"/>
    <g id="text_31">
     <!-- sim: acute 50mg PO -->
     <g transform="translate(523.731889 309.133937) scale(0.1 -0.1)">
      <use xlink:href="#DejaVuSans-73"/>
      <use xlink:href="#DejaVuSans-69" transform="translate(52.099609 0)"/>
      <use xlink:href="#DejaVuSans-6d" transform="translate(79.882812 0)"/>
      <use xlink:href="#DejaVuSans-3a" transform="translate(177.294922 0)"/>
      <use xlink:href="#DejaVuSans-20" transform="translate(210.986328 0)"/>
      <use xlink:href="#DejaVuSans-61" transform="translate(242.773438 0)"/>
      <use xlink:href="#DejaVuSans-63" transform="translate(304.052734 0)"/>
      <use xlink:href="#DejaVuSans-75" transform="translate(359.033203 0)"/>
      <use xlink:href="#DejaVuSans-74" transform="translate(422.412109 0)"/>
      <use xlink:href="#DejaVuSans-65" transform="translate(461.621094 0)"/>
      <use xlink:href="#DejaVuSans-20" transform="translate(523.144531 0)"/>
      <use xlink:href="#DejaVuSans-35" transform="translate(554.931641 0)"/>
      <use xlink:href="#DejaVuSans-30" transform="translate(618.554688 0)"/>
      <use xlink:href="#DejaVuSans-6d" transform="translate(682.177734 0)"/>
      <use xlink:href="#DejaVuSans-67" transform="translate(779.589844 0)"/>
      <use xlink:href="#DejaVuSans-20" transform="translate(843.066406 0)"/>
      <use xlink:href="#DejaVuSans-50" transform="translate(874.853516 0)"/>
      <use xlink:href="#DejaVuSans-4f" transform="translate(935.15625 0)"/>
     </g>
    </g>
    <g id="line2d_41">
     <path d="M 495.731889 320.312062 
L 515.731889 320.312062 
" style="fill: none; stroke: #000000; stroke-width: 2; stroke-linecap: square"/>
    </g>
    <g id="line2d_42"/>
    <g id="text_32">
     <!-- sim: chronic 50mg PO -->
     <g transform="translate(523.731889 323.812062) scale(0.1 -0.1)">
      <use xlink:href="#DejaVuSans-73"/>
      <use xlink:href="#DejaVuSans-69" transform="translate(52.099609 0)"/>
      <use xlink:href="#DejaVuSans-6d" transform="translate(79.882812 0)"/>
      <use xlink:href="#DejaVuSans-3a" transform="translate(177.294922 0)"/>
      <use xlink:href="#DejaVuSans-20" transform="translate(210.986328 0)"/>
      <use xlink:href="#DejaVuSans-63" transform="translate(242.773438 0)"/>
      <use xlink:href="#DejaVuSans-68" transform="translate(297.753906 0)"/>
      <use xlink:href="#DejaVuSans-72" transform="translate(361.132812 0)"/>
      <use xlink:href="#DejaVuSans-6f" transform="translate(399.996094 0)"/>
      <use xlink:href="#DejaVuSans-6e" transform="translate(461.177734 0)"/>
      <use xlink:href="#DejaVuSans-69" transform="translate(524.556641 0)"/>
      <use xlink:href="#DejaVuSans-63" transform="translate(552.339844 0)"/>
      <use xlink:href="#DejaVuSans-20" transform="translate(607.320312 0)"/>
      <use xlink:href="#DejaVuSans-35" transform="translate(639.107422 0)"/>
      <use xlink:href="#DejaVuSans-30" transform="translate(702.730469 0)"/>
      <use xlink:href="#DejaVuSans-6d" transform="translate(766.353516 0)"/>
      <use xlink:href="#DejaVuSans-67" transform="translate(863.765625 0)"/>
      <use xlink:href="#DejaVuSans-20" transform="translate(927.242188 0)"/>
      <use xlink:href="#DejaVuSans-50" transform="translate(959.029297 0)"/>
      <use xlink:href="#DejaVuSans-4f" transform="translate(1019.332031 0)"/>
     </g>
    </g>
    <g id="LineCollection_7">
     <path d="M 505.731889 339.990187 
L 505.731889 329.990187 
" style="fill: none; stroke: #3c33ff"/>
    </g>
    <g id="line2d_43">
     <path d="M 495.731889 334.990187 
L 515.731889 334.990187 
" style="fill: none; stroke-dasharray: 3.7,1.6; stroke-dashoffset: 0; stroke: #3c33ff"/>
    </g>
    <g id="line2d_44">
     <g>
      <use xlink:href="#m0c75161630" x="505.731889" y="334.990187" style="fill: #3c33ff; stroke: #000000; stroke-linejoin: miter"/>
     </g>
    </g>
    <g id="text_33">
     <!-- exp: acute 50mg PO±SD (n=7) -->
     <g transform="translate(523.731889 338.490187) scale(0.1 -0.1)">
      <use xlink:href="#DejaVuSans-65"/>
      <use xlink:href="#DejaVuSans-78" transform="translate(59.773438 0)"/>
      <use xlink:href="#DejaVuSans-70" transform="translate(118.953125 0)"/>
      <use xlink:href="#DejaVuSans-3a" transform="translate(182.429688 0)"/>
      <use xlink:href="#DejaVuSans-20" transform="translate(216.121094 0)"/>
      <use xlink:href="#DejaVuSans-61" transform="translate(247.908203 0)"/>
      <use xlink:href="#DejaVuSans-63" transform="translate(309.1875 0)"/>
      <use xlink:href="#DejaVuSans-75" transform="translate(364.167969 0)"/>
      <use xlink:href="#DejaVuSans-74" transform="translate(427.546875 0)"/>
      <use xlink:href="#DejaVuSans-65" transform="translate(466.755859 0)"/>
      <use xlink:href="#DejaVuSans-20" transform="translate(528.279297 0)"/>
      <use xlink:href="#DejaVuSans-35" transform="translate(560.066406 0)"/>
      <use xlink:href="#DejaVuSans-30" transform="translate(623.689453 0)"/>
      <use xlink:href="#DejaVuSans-6d" transform="translate(687.3125 0)"/>
      <use xlink:href="#DejaVuSans-67" transform="translate(784.724609 0)"/>
      <use xlink:href="#DejaVuSans-20" transform="translate(848.201172 0)"/>
      <use xlink:href="#DejaVuSans-50" transform="translate(879.988281 0)"/>
      <use xlink:href="#DejaVuSans-4f" transform="translate(940.291016 0)"/>
      <use xlink:href="#DejaVuSans-b1" transform="translate(1019.001953 0)"/>
      <use xlink:href="#DejaVuSans-53" transform="translate(1102.791016 0)"/>
      <use xlink:href="#DejaVuSans-44" transform="translate(1166.267578 0)"/>
      <use xlink:href="#DejaVuSans-20" transform="translate(1243.269531 0)"/>
      <use xlink:href="#DejaVuSans-28" transform="translate(1275.056641 0)"/>
      <use xlink:href="#DejaVuSans-6e" transform="translate(1314.070312 0)"/>
      <use xlink:href="#DejaVuSans-3d" transform="translate(1377.449219 0)"/>
      <use xlink:href="#DejaVuSans-37" transform="translate(1461.238281 0)"/>
      <use xlink:href="#DejaVuSans-29" transform="translate(1524.861328 0)"/>
     </g>
    </g>
    <g id="LineCollection_8">
     <path d="M 505.731889 354.668312 
L 505.731889 344.668312 
" style="fill: none; stroke: #000000"/>
    </g>
    <g id="line2d_45">
     <path d="M 495.731889 349.668312 
L 515.731889 349.668312 
" style="fill: none; stroke-dasharray: 3.7,1.6; stroke-dashoffset: 0; stroke: #000000"/>
    </g>
    <g id="line2d_46">
     <g>
      <use xlink:href="#mbf27041f49" x="505.731889" y="349.668312" style="stroke: #000000; stroke-linejoin: miter"/>
     </g>
    </g>
    <g id="text_34">
     <!-- exp: chronic 50mg PO±SD (n=7) -->
     <g transform="translate(523.731889 353.168312) scale(0.1 -0.1)">
      <use xlink:href="#DejaVuSans-65"/>
      <use xlink:href="#DejaVuSans-78" transform="translate(59.773438 0)"/>
      <use xlink:href="#DejaVuSans-70" transform="translate(118.953125 0)"/>
      <use xlink:href="#DejaVuSans-3a" transform="translate(182.429688 0)"/>
      <use xlink:href="#DejaVuSans-20" transform="translate(216.121094 0)"/>
      <use xlink:href="#DejaVuSans-63" transform="translate(247.908203 0)"/>
      <use xlink:href="#DejaVuSans-68" transform="translate(302.888672 0)"/>
      <use xlink:href="#DejaVuSans-72" transform="translate(366.267578 0)"/>
      <use xlink:href="#DejaVuSans-6f" transform="translate(405.130859 0)"/>
      <use xlink:href="#DejaVuSans-6e" transform="translate(466.3125 0)"/>
      <use xlink:href="#DejaVuSans-69" transform="translate(529.691406 0)"/>
      <use xlink:href="#DejaVuSans-63" transform="translate(557.474609 0)"/>
      <use xlink:href="#DejaVuSans-20" transform="translate(612.455078 0)"/>
      <use xlink:href="#DejaVuSans-35" transform="translate(644.242188 0)"/>
      <use xlink:href="#DejaVuSans-30" transform="translate(707.865234 0)"/>
      <use xlink:href="#DejaVuSans-6d" transform="translate(771.488281 0)"/>
      <use xlink:href="#DejaVuSans-67" transform="translate(868.900391 0)"/>
      <use xlink:href="#DejaVuSans-20" transform="translate(932.376953 0)"/>
      <use xlink:href="#DejaVuSans-50" transform="translate(964.164062 0)"/>
      <use xlink:href="#DejaVuSans-4f" transform="translate(1024.466797 0)"/>
      <use xlink:href="#DejaVuSans-b1" transform="translate(1103.177734 0)"/>
      <use xlink:href="#DejaVuSans-53" transform="translate(1186.966797 0)"/>
      <use xlink:href="#DejaVuSans-44" transform="translate(1250.443359 0)"/>
      <use xlink:href="#DejaVuSans-20" transform="translate(1327.445312 0)"/>
      <use xlink:href="#DejaVuSans-28" transform="translate(1359.232422 0)"/>
      <use xlink:href="#DejaVuSans-6e" transform="translate(1398.246094 0)"/>
      <use xlink:href="#DejaVuSans-3d" transform="translate(1461.625 0)"/>
      <use xlink:href="#DejaVuSans-37" transform="translate(1545.414062 0)"/>
      <use xlink:href="#DejaVuSans-29" transform="translate(1609.037109 0)"/>
     </g>
    </g>
   </g>
  </g>
  <g id="text_35">
   <!-- Giudicelli1987 -->
   <g transform="translate(322.975078 26.196094) scale(0.25 -0.25)">
    <defs>
     <path id="DejaVuSans-Bold-47" d="M 4781 347 
Q 4331 128 3847 18 
Q 3363 -91 2847 -91 
Q 1681 -91 1000 561 
Q 319 1213 319 2328 
Q 319 3456 1012 4103 
Q 1706 4750 2913 4750 
Q 3378 4750 3804 4662 
Q 4231 4575 4609 4403 
L 4609 3438 
Q 4219 3659 3833 3768 
Q 3447 3878 3059 3878 
Q 2341 3878 1952 3476 
Q 1563 3075 1563 2328 
Q 1563 1588 1938 1184 
Q 2313 781 3003 781 
Q 3191 781 3352 804 
Q 3513 828 3641 878 
L 3641 1784 
L 2906 1784 
L 2906 2591 
L 4781 2591 
L 4781 347 
z
" transform="scale(0.015625)"/>
     <path id="DejaVuSans-Bold-75" d="M 500 1363 
L 500 3500 
L 1625 3500 
L 1625 3150 
Q 1625 2866 1622 2436 
Q 1619 2006 1619 1863 
Q 1619 1441 1641 1255 
Q 1663 1069 1716 984 
Q 1784 875 1895 815 
Q 2006 756 2150 756 
Q 2500 756 2700 1025 
Q 2900 1294 2900 1772 
L 2900 3500 
L 4019 3500 
L 4019 0 
L 2900 0 
L 2900 506 
Q 2647 200 2364 54 
Q 2081 -91 1741 -91 
Q 1134 -91 817 281 
Q 500 653 500 1363 
z
" transform="scale(0.015625)"/>
     <path id="DejaVuSans-Bold-31" d="M 750 831 
L 1813 831 
L 1813 3847 
L 722 3622 
L 722 4441 
L 1806 4666 
L 2950 4666 
L 2950 831 
L 4013 831 
L 4013 0 
L 750 0 
L 750 831 
z
" transform="scale(0.015625)"/>
     <path id="DejaVuSans-Bold-39" d="M 641 103 
L 641 966 
Q 928 831 1190 764 
Q 1453 697 1709 697 
Q 2247 697 2547 995 
Q 2847 1294 2900 1881 
Q 2688 1725 2447 1647 
Q 2206 1569 1925 1569 
Q 1209 1569 770 1986 
Q 331 2403 331 3084 
Q 331 3838 820 4291 
Q 1309 4744 2131 4744 
Q 3044 4744 3544 4128 
Q 4044 3513 4044 2388 
Q 4044 1231 3459 570 
Q 2875 -91 1856 -91 
Q 1528 -91 1228 -42 
Q 928 6 641 103 
z
M 2125 2350 
Q 2441 2350 2600 2554 
Q 2759 2759 2759 3169 
Q 2759 3575 2600 3781 
Q 2441 3988 2125 3988 
Q 1809 3988 1650 3781 
Q 1491 3575 1491 3169 
Q 1491 2759 1650 2554 
Q 1809 2350 2125 2350 
z
" transform="scale(0.015625)"/>
     <path id="DejaVuSans-Bold-38" d="M 2228 2088 
Q 1891 2088 1709 1903 
Q 1528 1719 1528 1375 
Q 1528 1031 1709 848 
Q 1891 666 2228 666 
Q 2563 666 2741 848 
Q 2919 1031 2919 1375 
Q 2919 1722 2741 1905 
Q 2563 2088 2228 2088 
z
M 1350 2484 
Q 925 2613 709 2878 
Q 494 3144 494 3541 
Q 494 4131 934 4440 
Q 1375 4750 2228 4750 
Q 3075 4750 3515 4442 
Q 3956 4134 3956 3541 
Q 3956 3144 3739 2878 
Q 3522 2613 3097 2484 
Q 3572 2353 3814 2058 
Q 4056 1763 4056 1313 
Q 4056 619 3595 264 
Q 3134 -91 2228 -91 
Q 1319 -91 855 264 
Q 391 619 391 1313 
Q 391 1763 633 2058 
Q 875 2353 1350 2484 
z
M 1631 3419 
Q 1631 3141 1786 2991 
Q 1941 2841 2228 2841 
Q 2509 2841 2662 2991 
Q 2816 3141 2816 3419 
Q 2816 3697 2662 3845 
Q 2509 3994 2228 3994 
Q 1941 3994 1786 3844 
Q 1631 3694 1631 3419 
z
" transform="scale(0.015625)"/>
     <path id="DejaVuSans-Bold-37" d="M 428 4666 
L 3944 4666 
L 3944 3988 
L 2125 0 
L 953 0 
L 2675 3781 
L 428 3781 
L 428 4666 
z
" transform="scale(0.015625)"/>
    </defs>
    <use xlink:href="#DejaVuSans-Bold-47"/>
    <use xlink:href="#DejaVuSans-Bold-69" transform="translate(82.080078 0)"/>
    <use xlink:href="#DejaVuSans-Bold-75" transform="translate(116.357422 0)"/>
    <use xlink:href="#DejaVuSans-Bold-64" transform="translate(187.548828 0)"/>
    <use xlink:href="#DejaVuSans-Bold-69" transform="translate(259.130859 0)"/>
    <use xlink:href="#DejaVuSans-Bold-63" transform="translate(293.408203 0)"/>
    <use xlink:href="#DejaVuSans-Bold-65" transform="translate(352.685547 0)"/>
    <use xlink:href="#DejaVuSans-Bold-6c" transform="translate(420.507812 0)"/>
    <use xlink:href="#DejaVuSans-Bold-6c" transform="translate(454.785156 0)"/>
    <use xlink:href="#DejaVuSans-Bold-69" transform="translate(489.0625 0)"/>
    <use xlink:href="#DejaVuSans-Bold-31" transform="translate(523.339844 0)"/>
    <use xlink:href="#DejaVuSans-Bold-39" transform="translate(592.919922 0)"/>
    <use xlink:href="#DejaVuSans-Bold-38" transform="translate(662.5 0)"/>
    <use xlink:href="#DejaVuSans-Bold-37" transform="translate(732.080078 0)"/>
   </g>
  </g>
 </g>
 <defs>
  <clipPath id="p8d71accbf3">
   <rect x="45.184063" y="48.24" width="339.652174" height="316.008"/>
  </clipPath>
  <clipPath id="pbbf3423f1f">
   <rect x="486.731889" y="48.24" width="339.652174" height="316.008"/>
  </clipPath>
 </defs>
</svg>
