<?xml version="1.0" encoding="utf-8" standalone="no"?>
<!DOCTYPE svg PUBLIC "-//W3C//DTD SVG 1.1//EN"
  "http://www.w3.org/Graphics/SVG/1.1/DTD/svg11.dtd">
<svg xmlns:xlink="http://www.w3.org/1999/xlink" width="482.044062pt" height="414.385812pt" viewBox="0 0 482.044062 414.385812" xmlns="http://www.w3.org/2000/svg" version="1.1">
 <metadata>
  <rdf:RDF xmlns:dc="http://purl.org/dc/elements/1.1/" xmlns:cc="http://creativecommons.org/ns#" xmlns:rdf="http://www.w3.org/1999/02/22-rdf-syntax-ns#">
   <cc:Work>
    <dc:type rdf:resource="http://purl.org/dc/dcmitype/StillImage"/>
    <dc:date>2025-09-10T13:16:58.484116</dc:date>
    <dc:format>image/svg+xml</dc:format>
    <dc:creator>
     <cc:Agent>
      <dc:title>Matplotlib v3.10.6, https://matplotlib.org/</dc:title>
     </cc:Agent>
    </dc:creator>
   </cc:Work>
  </rdf:RDF>
 </metadata>
 <defs>
  <style type="text/css">*{stroke-linejoin: round; stroke-linecap: butt}</style>
 </defs>
 <g id="figure_1">
  <g id="patch_1">
   <path d="M 0 414.385812 
L 482.044062 414.385812 
L 482.044062 -0 
L 0 -0 
z
" style="fill: #ffffff"/>
  </g>
  <g id="axes_1">
   <g id="patch_2">
    <path d="M 45.184063 364.248 
L 474.844062 364.248 
L 474.844062 48.24 
L 45.184063 48.24 
z
" style="fill: #ffffff"/>
   </g>
   <g id="matplotlib.axis_1">
    <g id="xtick_1">
     <g id="line2d_1">
      <defs>
       <path id="m1ac226553f" d="M 0 0 
L 0 3.5 
" style="stroke: #000000; stroke-width: 0.8"/>
      </defs>
      <g>
       <use xlink:href="#m1ac226553f" x="64.714063" y="364.248" style="stroke: #000000; stroke-width: 0.8"/>
      </g>
     </g>
     <g id="text_1">
      <!-- 0 -->
      <g transform="translate(59.942188 382.645656) scale(0.15 -0.15)">
       <defs>
        <path id="DejaVuSans-30" d="M 2034 4250 
Q 1547 4250 1301 3770 
Q 1056 3291 1056 2328 
Q 1056 1369 1301 889 
Q 1547 409 2034 409 
Q 2525 409 2770 889 
Q 3016 1369 3016 2328 
Q 3016 3291 2770 3770 
Q 2525 4250 2034 4250 
z
M 2034 4750 
Q 2819 4750 3233 4129 
Q 3647 3509 3647 2328 
Q 3647 1150 3233 529 
Q 2819 -91 2034 -91 
Q 1250 -91 836 529 
Q 422 1150 422 2328 
Q 422 3509 836 4129 
Q 1250 4750 2034 4750 
z
" transform="scale(0.015625)"/>
       </defs>
       <use xlink:href="#DejaVuSans-30"/>
      </g>
     </g>
    </g>
    <g id="xtick_2">
     <g id="line2d_2">
      <g>
       <use xlink:href="#m1ac226553f" x="139.829447" y="364.248" style="stroke: #000000; stroke-width: 0.8"/>
      </g>
     </g>
     <g id="text_2">
      <!-- 5 -->
      <g transform="translate(135.057572 382.645656) scale(0.15 -0.15)">
       <defs>
        <path id="DejaVuSans-35" d="M 691 4666 
L 3169 4666 
L 3169 4134 
L 1269 4134 
L 1269 2991 
Q 1406 3038 1543 3061 
Q 1681 3084 1819 3084 
Q 2600 3084 3056 2656 
Q 3513 2228 3513 1497 
Q 3513 744 3044 326 
Q 2575 -91 1722 -91 
Q 1428 -91 1123 -41 
Q 819 9 494 109 
L 494 744 
Q 775 591 1075 516 
Q 1375 441 1709 441 
Q 2250 441 2565 725 
Q 2881 1009 2881 1497 
Q 2881 1984 2565 2268 
Q 2250 2553 1709 2553 
Q 1456 2553 1204 2497 
Q 953 2441 691 2322 
L 691 4666 
z
" transform="scale(0.015625)"/>
       </defs>
       <use xlink:href="#DejaVuSans-35"/>
      </g>
     </g>
    </g>
    <g id="xtick_3">
     <g id="line2d_3">
      <g>
       <use xlink:href="#m1ac226553f" x="214.944832" y="364.248" style="stroke: #000000; stroke-width: 0.8"/>
      </g>
     </g>
     <g id="text_3">
      <!-- 10 -->
      <g transform="translate(205.401082 382.645656) scale(0.15 -0.15)">
       <defs>
        <path id="DejaVuSans-31" d="M 794 531 
L 1825 531 
L 1825 4091 
L 703 3866 
L 703 4441 
L 1819 4666 
L 2450 4666 
L 2450 531 
L 3481 531 
L 3481 0 
L 794 0 
L 794 531 
z
" transform="scale(0.015625)"/>
       </defs>
       <use xlink:href="#DejaVuSans-31"/>
       <use xlink:href="#DejaVuSans-30" transform="translate(63.623047 0)"/>
      </g>
     </g>
    </g>
    <g id="xtick_4">
     <g id="line2d_4">
      <g>
       <use xlink:href="#m1ac226553f" x="290.060216" y="364.248" style="stroke: #000000; stroke-width: 0.8"/>
      </g>
     </g>
     <g id="text_4">
      <!-- 15 -->
      <g transform="translate(280.516466 382.645656) scale(0.15 -0.15)">
       <use xlink:href="#DejaVuSans-31"/>
       <use xlink:href="#DejaVuSans-35" transform="translate(63.623047 0)"/>
      </g>
     </g>
    </g>
    <g id="xtick_5">
     <g id="line2d_5">
      <g>
       <use xlink:href="#m1ac226553f" x="365.175601" y="364.248" style="stroke: #000000; stroke-width: 0.8"/>
      </g>
     </g>
     <g id="text_5">
      <!-- 20 -->
      <g transform="translate(355.631851 382.645656) scale(0.15 -0.15)">
       <defs>
        <path id="DejaVuSans-32" d="M 1228 531 
L 3431 531 
L 3431 0 
L 469 0 
L 469 531 
Q 828 903 1448 1529 
Q 2069 2156 2228 2338 
Q 2531 2678 2651 2914 
Q 2772 3150 2772 3378 
Q 2772 3750 2511 3984 
Q 2250 4219 1831 4219 
Q 1534 4219 1204 4116 
Q 875 4013 500 3803 
L 500 4441 
Q 881 4594 1212 4672 
Q 1544 4750 1819 4750 
Q 2544 4750 2975 4387 
Q 3406 4025 3406 3419 
Q 3406 3131 3298 2873 
Q 3191 2616 2906 2266 
Q 2828 2175 2409 1742 
Q 1991 1309 1228 531 
z
" transform="scale(0.015625)"/>
       </defs>
       <use xlink:href="#DejaVuSans-32"/>
       <use xlink:href="#DejaVuSans-30" transform="translate(63.623047 0)"/>
      </g>
     </g>
    </g>
    <g id="xtick_6">
     <g id="line2d_6">
      <g>
       <use xlink:href="#m1ac226553f" x="440.290986" y="364.248" style="stroke: #000000; stroke-width: 0.8"/>
      </g>
     </g>
     <g id="text_6">
      <!-- 25 -->
      <g transform="translate(430.747236 382.645656) scale(0.15 -0.15)">
       <use xlink:href="#DejaVuSans-32"/>
       <use xlink:href="#DejaVuSans-35" transform="translate(63.623047 0)"/>
      </g>
     </g>
    </g>
    <g id="text_7">
     <!-- time [hr] -->
     <g transform="translate(214.939531 403.442375) scale(0.18 -0.18)">
      <defs>
       <path id="DejaVuSans-Bold-74" d="M 1759 4494 
L 1759 3500 
L 2913 3500 
L 2913 2700 
L 1759 2700 
L 1759 1216 
Q 1759 972 1856 886 
Q 1953 800 2241 800 
L 2816 800 
L 2816 0 
L 1856 0 
Q 1194 0 917 276 
Q 641 553 641 1216 
L 641 2700 
L 84 2700 
L 84 3500 
L 641 3500 
L 641 4494 
L 1759 4494 
z
" transform="scale(0.015625)"/>
       <path id="DejaVuSans-Bold-69" d="M 538 3500 
L 1656 3500 
L 1656 0 
L 538 0 
L 538 3500 
z
M 538 4863 
L 1656 4863 
L 1656 3950 
L 538 3950 
L 538 4863 
z
" transform="scale(0.015625)"/>
       <path id="DejaVuSans-Bold-6d" d="M 3781 2919 
Q 3994 3244 4286 3414 
Q 4578 3584 4928 3584 
Q 5531 3584 5847 3212 
Q 6163 2841 6163 2131 
L 6163 0 
L 5038 0 
L 5038 1825 
Q 5041 1866 5042 1909 
Q 5044 1953 5044 2034 
Q 5044 2406 4934 2573 
Q 4825 2741 4581 2741 
Q 4263 2741 4089 2478 
Q 3916 2216 3909 1719 
L 3909 0 
L 2784 0 
L 2784 1825 
Q 2784 2406 2684 2573 
Q 2584 2741 2328 2741 
Q 2006 2741 1831 2477 
Q 1656 2213 1656 1722 
L 1656 0 
L 531 0 
L 531 3500 
L 1656 3500 
L 1656 2988 
Q 1863 3284 2130 3434 
Q 2397 3584 2719 3584 
Q 3081 3584 3359 3409 
Q 3638 3234 3781 2919 
z
" transform="scale(0.015625)"/>
       <path id="DejaVuSans-Bold-65" d="M 4031 1759 
L 4031 1441 
L 1416 1441 
Q 1456 1047 1700 850 
Q 1944 653 2381 653 
Q 2734 653 3104 758 
Q 3475 863 3866 1075 
L 3866 213 
Q 3469 63 3072 -14 
Q 2675 -91 2278 -91 
Q 1328 -91 801 392 
Q 275 875 275 1747 
Q 275 2603 792 3093 
Q 1309 3584 2216 3584 
Q 3041 3584 3536 3087 
Q 4031 2591 4031 1759 
z
M 2881 2131 
Q 2881 2450 2695 2645 
Q 2509 2841 2209 2841 
Q 1884 2841 1681 2658 
Q 1478 2475 1428 2131 
L 2881 2131 
z
" transform="scale(0.015625)"/>
       <path id="DejaVuSans-Bold-20" transform="scale(0.015625)"/>
       <path id="DejaVuSans-Bold-5b" d="M 550 4863 
L 2491 4863 
L 2491 4159 
L 1613 4159 
L 1613 -141 
L 2491 -141 
L 2491 -844 
L 550 -844 
L 550 4863 
z
" transform="scale(0.015625)"/>
       <path id="DejaVuSans-Bold-68" d="M 4056 2131 
L 4056 0 
L 2931 0 
L 2931 347 
L 2931 1625 
Q 2931 2084 2911 2256 
Q 2891 2428 2841 2509 
Q 2775 2619 2662 2680 
Q 2550 2741 2406 2741 
Q 2056 2741 1856 2470 
Q 1656 2200 1656 1722 
L 1656 0 
L 538 0 
L 538 4863 
L 1656 4863 
L 1656 2988 
Q 1909 3294 2193 3439 
Q 2478 3584 2822 3584 
Q 3428 3584 3742 3212 
Q 4056 2841 4056 2131 
z
" transform="scale(0.015625)"/>
       <path id="DejaVuSans-Bold-72" d="M 3138 2547 
Q 2991 2616 2845 2648 
Q 2700 2681 2553 2681 
Q 2122 2681 1889 2404 
Q 1656 2128 1656 1613 
L 1656 0 
L 538 0 
L 538 3500 
L 1656 3500 
L 1656 2925 
Q 1872 3269 2151 3426 
Q 2431 3584 2822 3584 
Q 2878 3584 2943 3579 
Q 3009 3575 3134 3559 
L 3138 2547 
z
" transform="scale(0.015625)"/>
       <path id="DejaVuSans-Bold-5d" d="M 2375 -844 
L 434 -844 
L 434 -141 
L 1313 -141 
L 1313 4159 
L 434 4159 
L 434 4863 
L 2375 4863 
L 2375 -844 
z
" transform="scale(0.015625)"/>
      </defs>
      <use xlink:href="#DejaVuSans-Bold-74"/>
      <use xlink:href="#DejaVuSans-Bold-69" transform="translate(47.802734 0)"/>
      <use xlink:href="#DejaVuSans-Bold-6d" transform="translate(82.080078 0)"/>
      <use xlink:href="#DejaVuSans-Bold-65" transform="translate(186.279297 0)"/>
      <use xlink:href="#DejaVuSans-Bold-20" transform="translate(254.101562 0)"/>
      <use xlink:href="#DejaVuSans-Bold-5b" transform="translate(288.916016 0)"/>
      <use xlink:href="#DejaVuSans-Bold-68" transform="translate(334.619141 0)"/>
      <use xlink:href="#DejaVuSans-Bold-72" transform="translate(405.810547 0)"/>
      <use xlink:href="#DejaVuSans-Bold-5d" transform="translate(455.126953 0)"/>
     </g>
    </g>
   </g>
   <g id="matplotlib.axis_2">
    <g id="ytick_1">
     <g id="line2d_7">
      <defs>
       <path id="m20693fe237" d="M 0 0 
L -3.5 0 
" style="stroke: #000000; stroke-width: 0.8"/>
      </defs>
      <g>
       <use xlink:href="#m20693fe237" x="45.184063" y="314.900607" style="stroke: #000000; stroke-width: 0.8"/>
      </g>
     </g>
     <g id="text_8">
      <!-- 0 -->
      <g transform="translate(28.640313 320.599435) scale(0.15 -0.15)">
       <use xlink:href="#DejaVuSans-30"/>
      </g>
     </g>
    </g>
    <g id="ytick_2">
     <g id="line2d_8">
      <g>
       <use xlink:href="#m20693fe237" x="45.184063" y="253.844344" style="stroke: #000000; stroke-width: 0.8"/>
      </g>
     </g>
     <g id="text_9">
      <!-- 2 -->
      <g transform="translate(28.640313 259.543173) scale(0.15 -0.15)">
       <use xlink:href="#DejaVuSans-32"/>
      </g>
     </g>
    </g>
    <g id="ytick_3">
     <g id="line2d_9">
      <g>
       <use xlink:href="#m20693fe237" x="45.184063" y="192.788082" style="stroke: #000000; stroke-width: 0.8"/>
      </g>
     </g>
     <g id="text_10">
      <!-- 4 -->
      <g transform="translate(28.640313 198.48691) scale(0.15 -0.15)">
       <defs>
        <path id="DejaVuSans-34" d="M 2419 4116 
L 825 1625 
L 2419 1625 
L 2419 4116 
z
M 2253 4666 
L 3047 4666 
L 3047 1625 
L 3713 1625 
L 3713 1100 
L 3047 1100 
L 3047 0 
L 2419 0 
L 2419 1100 
L 313 1100 
L 313 1709 
L 2253 4666 
z
" transform="scale(0.015625)"/>
       </defs>
       <use xlink:href="#DejaVuSans-34"/>
      </g>
     </g>
    </g>
    <g id="ytick_4">
     <g id="line2d_10">
      <g>
       <use xlink:href="#m20693fe237" x="45.184063" y="131.73182" style="stroke: #000000; stroke-width: 0.8"/>
      </g>
     </g>
     <g id="text_11">
      <!-- 6 -->
      <g transform="translate(28.640313 137.430648) scale(0.15 -0.15)">
       <defs>
        <path id="DejaVuSans-36" d="M 2113 2584 
Q 1688 2584 1439 2293 
Q 1191 2003 1191 1497 
Q 1191 994 1439 701 
Q 1688 409 2113 409 
Q 2538 409 2786 701 
Q 3034 994 3034 1497 
Q 3034 2003 2786 2293 
Q 2538 2584 2113 2584 
z
M 3366 4563 
L 3366 3988 
Q 3128 4100 2886 4159 
Q 2644 4219 2406 4219 
Q 1781 4219 1451 3797 
Q 1122 3375 1075 2522 
Q 1259 2794 1537 2939 
Q 1816 3084 2150 3084 
Q 2853 3084 3261 2657 
Q 3669 2231 3669 1497 
Q 3669 778 3244 343 
Q 2819 -91 2113 -91 
Q 1303 -91 875 529 
Q 447 1150 447 2328 
Q 447 3434 972 4092 
Q 1497 4750 2381 4750 
Q 2619 4750 2861 4703 
Q 3103 4656 3366 4563 
z
" transform="scale(0.015625)"/>
       </defs>
       <use xlink:href="#DejaVuSans-36"/>
      </g>
     </g>
    </g>
    <g id="ytick_5">
     <g id="line2d_11">
      <g>
       <use xlink:href="#m20693fe237" x="45.184063" y="70.675558" style="stroke: #000000; stroke-width: 0.8"/>
      </g>
     </g>
     <g id="text_12">
      <!-- 8 -->
      <g transform="translate(28.640313 76.374386) scale(0.15 -0.15)">
       <defs>
        <path id="DejaVuSans-38" d="M 2034 2216 
Q 1584 2216 1326 1975 
Q 1069 1734 1069 1313 
Q 1069 891 1326 650 
Q 1584 409 2034 409 
Q 2484 409 2743 651 
Q 3003 894 3003 1313 
Q 3003 1734 2745 1975 
Q 2488 2216 2034 2216 
z
M 1403 2484 
Q 997 2584 770 2862 
Q 544 3141 544 3541 
Q 544 4100 942 4425 
Q 1341 4750 2034 4750 
Q 2731 4750 3128 4425 
Q 3525 4100 3525 3541 
Q 3525 3141 3298 2862 
Q 3072 2584 2669 2484 
Q 3125 2378 3379 2068 
Q 3634 1759 3634 1313 
Q 3634 634 3220 271 
Q 2806 -91 2034 -91 
Q 1263 -91 848 271 
Q 434 634 434 1313 
Q 434 1759 690 2068 
Q 947 2378 1403 2484 
z
M 1172 3481 
Q 1172 3119 1398 2916 
Q 1625 2713 2034 2713 
Q 2441 2713 2670 2916 
Q 2900 3119 2900 3481 
Q 2900 3844 2670 4047 
Q 2441 4250 2034 4250 
Q 1625 4250 1398 4047 
Q 1172 3844 1172 3481 
z
" transform="scale(0.015625)"/>
       </defs>
       <use xlink:href="#DejaVuSans-38"/>
      </g>
     </g>
    </g>
    <g id="text_13">
     <!-- captopril [µM] -->
     <g transform="translate(20.877188 278.568844) rotate(-90) scale(0.18 -0.18)">
      <defs>
       <path id="DejaVuSans-Bold-63" d="M 3366 3391 
L 3366 2478 
Q 3138 2634 2908 2709 
Q 2678 2784 2431 2784 
Q 1963 2784 1702 2511 
Q 1441 2238 1441 1747 
Q 1441 1256 1702 982 
Q 1963 709 2431 709 
Q 2694 709 2930 787 
Q 3166 866 3366 1019 
L 3366 103 
Q 3103 6 2833 -42 
Q 2563 -91 2291 -91 
Q 1344 -91 809 395 
Q 275 881 275 1747 
Q 275 2613 809 3098 
Q 1344 3584 2291 3584 
Q 2566 3584 2833 3536 
Q 3100 3488 3366 3391 
z
" transform="scale(0.015625)"/>
       <path id="DejaVuSans-Bold-61" d="M 2106 1575 
Q 1756 1575 1579 1456 
Q 1403 1338 1403 1106 
Q 1403 894 1545 773 
Q 1688 653 1941 653 
Q 2256 653 2472 879 
Q 2688 1106 2688 1447 
L 2688 1575 
L 2106 1575 
z
M 3816 1997 
L 3816 0 
L 2688 0 
L 2688 519 
Q 2463 200 2181 54 
Q 1900 -91 1497 -91 
Q 953 -91 614 226 
Q 275 544 275 1050 
Q 275 1666 698 1953 
Q 1122 2241 2028 2241 
L 2688 2241 
L 2688 2328 
Q 2688 2594 2478 2717 
Q 2269 2841 1825 2841 
Q 1466 2841 1156 2769 
Q 847 2697 581 2553 
L 581 3406 
Q 941 3494 1303 3539 
Q 1666 3584 2028 3584 
Q 2975 3584 3395 3211 
Q 3816 2838 3816 1997 
z
" transform="scale(0.015625)"/>
       <path id="DejaVuSans-Bold-70" d="M 1656 506 
L 1656 -1331 
L 538 -1331 
L 538 3500 
L 1656 3500 
L 1656 2988 
Q 1888 3294 2169 3439 
Q 2450 3584 2816 3584 
Q 3463 3584 3878 3070 
Q 4294 2556 4294 1747 
Q 4294 938 3878 423 
Q 3463 -91 2816 -91 
Q 2450 -91 2169 54 
Q 1888 200 1656 506 
z
M 2400 2772 
Q 2041 2772 1848 2508 
Q 1656 2244 1656 1747 
Q 1656 1250 1848 986 
Q 2041 722 2400 722 
Q 2759 722 2948 984 
Q 3138 1247 3138 1747 
Q 3138 2247 2948 2509 
Q 2759 2772 2400 2772 
z
" transform="scale(0.015625)"/>
       <path id="DejaVuSans-Bold-6f" d="M 2203 2784 
Q 1831 2784 1636 2517 
Q 1441 2250 1441 1747 
Q 1441 1244 1636 976 
Q 1831 709 2203 709 
Q 2569 709 2762 976 
Q 2956 1244 2956 1747 
Q 2956 2250 2762 2517 
Q 2569 2784 2203 2784 
z
M 2203 3584 
Q 3106 3584 3614 3096 
Q 4122 2609 4122 1747 
Q 4122 884 3614 396 
Q 3106 -91 2203 -91 
Q 1297 -91 786 396 
Q 275 884 275 1747 
Q 275 2609 786 3096 
Q 1297 3584 2203 3584 
z
" transform="scale(0.015625)"/>
       <path id="DejaVuSans-Bold-6c" d="M 538 4863 
L 1656 4863 
L 1656 0 
L 538 0 
L 538 4863 
z
" transform="scale(0.015625)"/>
       <path id="DejaVuSans-Bold-b5" d="M 544 -1338 
L 544 3500 
L 1672 3500 
L 1672 1466 
Q 1672 1103 1828 926 
Q 1984 750 2303 750 
Q 2625 750 2781 926 
Q 2938 1103 2938 1466 
L 2938 3500 
L 4063 3500 
L 4063 1159 
Q 4063 938 4114 850 
Q 4166 763 4288 763 
Q 4344 763 4395 778 
Q 4447 794 4506 831 
L 4506 50 
Q 4341 -22 4195 -56 
Q 4050 -91 3909 -91 
Q 3631 -91 3454 26 
Q 3278 144 3169 403 
Q 3022 156 2811 32 
Q 2600 -91 2322 -91 
Q 2091 -91 1928 -17 
Q 1766 56 1672 206 
L 1672 -1338 
L 544 -1338 
z
" transform="scale(0.015625)"/>
       <path id="DejaVuSans-Bold-4d" d="M 588 4666 
L 2119 4666 
L 3181 2169 
L 4250 4666 
L 5778 4666 
L 5778 0 
L 4641 0 
L 4641 3413 
L 3566 897 
L 2803 897 
L 1728 3413 
L 1728 0 
L 588 0 
L 588 4666 
z
" transform="scale(0.015625)"/>
      </defs>
      <use xlink:href="#DejaVuSans-Bold-63"/>
      <use xlink:href="#DejaVuSans-Bold-61" transform="translate(59.277344 0)"/>
      <use xlink:href="#DejaVuSans-Bold-70" transform="translate(126.757812 0)"/>
      <use xlink:href="#DejaVuSans-Bold-74" transform="translate(198.339844 0)"/>
      <use xlink:href="#DejaVuSans-Bold-6f" transform="translate(246.142578 0)"/>
      <use xlink:href="#DejaVuSans-Bold-70" transform="translate(314.84375 0)"/>
      <use xlink:href="#DejaVuSans-Bold-72" transform="translate(386.425781 0)"/>
      <use xlink:href="#DejaVuSans-Bold-69" transform="translate(435.742188 0)"/>
      <use xlink:href="#DejaVuSans-Bold-6c" transform="translate(470.019531 0)"/>
      <use xlink:href="#DejaVuSans-Bold-20" transform="translate(504.296875 0)"/>
      <use xlink:href="#DejaVuSans-Bold-5b" transform="translate(539.111328 0)"/>
      <use xlink:href="#DejaVuSans-Bold-b5" transform="translate(584.814453 0)"/>
      <use xlink:href="#DejaVuSans-Bold-4d" transform="translate(658.398438 0)"/>
      <use xlink:href="#DejaVuSans-Bold-5d" transform="translate(757.910156 0)"/>
     </g>
    </g>
   </g>
   <g id="LineCollection_1">
    <path d="M 69.671678 349.884 
L 69.671678 194.526694 
" clip-path="url(#p449e2132dc)" style="fill: none; stroke: #000000"/>
    <path d="M 74.629293 315.7531 
L 74.629293 62.604 
" clip-path="url(#p449e2132dc)" style="fill: none; stroke: #000000"/>
    <path d="M 79.737139 244.855462 
L 79.737139 62.666517 
" clip-path="url(#p449e2132dc)" style="fill: none; stroke: #000000"/>
    <path d="M 87.248678 258.742512 
L 87.248678 153.267249 
" clip-path="url(#p449e2132dc)" style="fill: none; stroke: #000000"/>
    <path d="M 94.760216 299.087417 
L 94.760216 220.455893 
" clip-path="url(#p449e2132dc)" style="fill: none; stroke: #000000"/>
    <path d="M 109.783293 309.966677 
L 109.783293 286.958622 
" clip-path="url(#p449e2132dc)" style="fill: none; stroke: #000000"/>
    <path d="M 124.80637 326.279253 
L 124.80637 301.335207 
" clip-path="url(#p449e2132dc)" style="fill: none; stroke: #000000"/>
    <path d="M 139.829447 323.41582 
L 139.829447 305.24359 
" clip-path="url(#p449e2132dc)" style="fill: none; stroke: #000000"/>
   </g>
   <g id="LineCollection_2">
    <path d="M 69.671678 321.191448 
L 69.671678 255.972718 
" clip-path="url(#p449e2132dc)" style="fill: none; stroke: #3c33ff"/>
    <path d="M 74.629293 290.74137 
L 74.629293 173.740906 
" clip-path="url(#p449e2132dc)" style="fill: none; stroke: #3c33ff"/>
    <path d="M 79.737139 279.381373 
L 79.737139 99.09817 
" clip-path="url(#p449e2132dc)" style="fill: none; stroke: #3c33ff"/>
    <path d="M 87.248678 270.373851 
L 87.248678 172.569957 
" clip-path="url(#p449e2132dc)" style="fill: none; stroke: #3c33ff"/>
    <path d="M 94.760216 280.135087 
L 94.760216 207.26314 
" clip-path="url(#p449e2132dc)" style="fill: none; stroke: #3c33ff"/>
    <path d="M 109.783293 313.316508 
L 109.783293 230.8493 
" clip-path="url(#p449e2132dc)" style="fill: none; stroke: #3c33ff"/>
    <path d="M 124.80637 325.990258 
L 124.80637 253.10621 
" clip-path="url(#p449e2132dc)" style="fill: none; stroke: #3c33ff"/>
    <path d="M 139.829447 324.637576 
L 139.829447 288.180427 
" clip-path="url(#p449e2132dc)" style="fill: none; stroke: #3c33ff"/>
   </g>
   <g id="LineCollection_3">
    <path d="M 69.671678 328.122 
L 69.671678 205.374059 
" clip-path="url(#p449e2132dc)" style="fill: none; stroke: #338dff"/>
    <path d="M 74.629293 258.598223 
L 74.629293 153.11691 
" clip-path="url(#p449e2132dc)" style="fill: none; stroke: #338dff"/>
    <path d="M 79.737139 259.785349 
L 79.737139 110.199719 
" clip-path="url(#p449e2132dc)" style="fill: none; stroke: #338dff"/>
    <path d="M 87.248678 283.070669 
L 87.248678 198.685619 
" clip-path="url(#p449e2132dc)" style="fill: none; stroke: #338dff"/>
    <path d="M 94.760216 314.539581 
L 94.760216 212.887903 
" clip-path="url(#p449e2132dc)" style="fill: none; stroke: #338dff"/>
    <path d="M 109.783293 306.619075 
L 109.783293 260.590866 
" clip-path="url(#p449e2132dc)" style="fill: none; stroke: #338dff"/>
    <path d="M 124.80637 317.522609 
L 124.80637 279.159718 
" clip-path="url(#p449e2132dc)" style="fill: none; stroke: #338dff"/>
    <path d="M 139.829447 319.329955 
L 139.829447 302.577519 
" clip-path="url(#p449e2132dc)" style="fill: none; stroke: #338dff"/>
   </g>
   <g id="line2d_12">
    <path d="M 64.714063 314.900607 
L 65.690563 230.284416 
L 66.667063 192.053054 
L 67.643563 173.025749 
L 68.620063 162.958028 
L 69.596563 158.257725 
L 70.573063 157.161351 
L 71.549563 158.563157 
L 72.526063 161.689262 
L 73.502563 165.977936 
L 75.455563 176.508711 
L 81.314563 210.189383 
L 83.267562 220.054164 
L 85.220562 228.962749 
L 87.173563 236.931801 
L 89.126563 244.019242 
L 91.079563 250.300344 
L 93.032562 255.854981 
L 94.985563 260.761063 
L 96.938562 265.0914 
L 98.891562 268.912419 
L 100.844562 272.283863 
L 102.797562 275.259002 
L 104.750563 277.885081 
L 106.703563 280.203857 
L 108.656563 282.252163 
L 110.609562 284.062444 
L 113.539062 286.393081 
L 116.468562 288.333919 
L 119.398063 289.952835 
L 122.327562 291.305794 
L 125.257062 292.438933 
L 129.163062 293.672612 
L 133.069062 294.654642 
L 137.951562 295.612241 
L 142.834063 296.345353 
L 148.693062 297.011738 
L 156.505062 297.653072 
L 166.270062 298.206778 
L 179.941062 298.729064 
L 200.447562 299.260289 
L 236.578062 299.941598 
L 308.839062 301.047099 
L 426.019062 302.607605 
L 455.314062 302.968015 
L 455.314062 302.968015 
" clip-path="url(#p449e2132dc)" style="fill: none; stroke: #000000; stroke-width: 2; stroke-linecap: square"/>
   </g>
   <g id="line2d_13">
    <path d="M 69.671678 272.205347 
L 74.629293 189.17855 
L 79.737139 153.760989 
L 87.248678 206.004881 
L 94.760216 259.771655 
L 109.783293 298.46265 
L 124.80637 313.80723 
L 139.829447 314.329705 
" clip-path="url(#p449e2132dc)" style="fill: none; stroke-dasharray: 3.7,1.6; stroke-dashoffset: 0; stroke: #000000"/>
    <defs>
     <path id="mae36e008a3" d="M -3 3 
L 3 3 
L 3 -3 
L -3 -3 
z
" style="stroke: #000000; stroke-linejoin: miter"/>
    </defs>
    <g clip-path="url(#p449e2132dc)">
     <use xlink:href="#mae36e008a3" x="69.671678" y="272.205347" style="stroke: #000000; stroke-linejoin: miter"/>
     <use xlink:href="#mae36e008a3" x="74.629293" y="189.17855" style="stroke: #000000; stroke-linejoin: miter"/>
     <use xlink:href="#mae36e008a3" x="79.737139" y="153.760989" style="stroke: #000000; stroke-linejoin: miter"/>
     <use xlink:href="#mae36e008a3" x="87.248678" y="206.004881" style="stroke: #000000; stroke-linejoin: miter"/>
     <use xlink:href="#mae36e008a3" x="94.760216" y="259.771655" style="stroke: #000000; stroke-linejoin: miter"/>
     <use xlink:href="#mae36e008a3" x="109.783293" y="298.46265" style="stroke: #000000; stroke-linejoin: miter"/>
     <use xlink:href="#mae36e008a3" x="124.80637" y="313.80723" style="stroke: #000000; stroke-linejoin: miter"/>
     <use xlink:href="#mae36e008a3" x="139.829447" y="314.329705" style="stroke: #000000; stroke-linejoin: miter"/>
    </g>
   </g>
   <g id="line2d_14">
    <path d="M 64.714063 314.900607 
L 65.690563 226.882292 
L 66.667063 183.473541 
L 67.643563 160.37191 
L 68.620063 147.119369 
L 69.596563 139.873715 
L 70.573063 136.7651 
L 71.549563 136.634278 
L 72.526063 138.661059 
L 73.502563 142.233534 
L 74.479063 146.887345 
L 76.432063 158.110294 
L 82.291063 194.441391 
L 84.244063 205.310238 
L 86.197063 215.210836 
L 88.150063 224.129828 
L 90.103062 232.106442 
L 92.056063 239.20619 
L 94.009062 245.505555 
L 95.962063 251.083261 
L 97.915063 256.015501 
L 99.868063 260.373504 
L 101.821062 264.222461 
L 103.774063 267.621244 
L 105.727062 270.622555 
L 107.680062 273.273294 
L 109.633062 275.615036 
L 111.586062 277.68454 
L 113.539062 279.514244 
L 116.468562 281.870786 
L 119.398063 283.833858 
L 122.327562 285.471615 
L 125.257062 286.840308 
L 128.186562 287.986349 
L 132.092562 289.233262 
L 135.998562 290.224485 
L 140.881062 291.188613 
L 145.763562 291.92348 
L 151.622562 292.586618 
L 159.434562 293.216111 
L 169.199562 293.745504 
L 181.894062 294.193484 
L 201.424062 294.629252 
L 233.648562 295.095037 
L 300.050562 295.792212 
L 455.314062 297.174946 
L 455.314062 297.174946 
" clip-path="url(#p449e2132dc)" style="fill: none; stroke: #3c33ff; stroke-width: 2; stroke-linecap: square"/>
   </g>
   <g id="line2d_15">
    <path d="M 69.671678 288.582083 
L 74.629293 232.241138 
L 79.737139 189.239771 
L 87.248678 221.471904 
L 94.760216 243.699113 
L 109.783293 272.082904 
L 124.80637 289.548234 
L 139.829447 306.409001 
" clip-path="url(#p449e2132dc)" style="fill: none; stroke-dasharray: 3.7,1.6; stroke-dashoffset: 0; stroke: #3c33ff"/>
    <defs>
     <path id="m9a3afe3dca" d="M -3 3 
L 3 3 
L 3 -3 
L -3 -3 
z
" style="stroke: #000000; stroke-linejoin: miter"/>
    </defs>
    <g clip-path="url(#p449e2132dc)">
     <use xlink:href="#m9a3afe3dca" x="69.671678" y="288.582083" style="fill: #3c33ff; stroke: #000000; stroke-linejoin: miter"/>
     <use xlink:href="#m9a3afe3dca" x="74.629293" y="232.241138" style="fill: #3c33ff; stroke: #000000; stroke-linejoin: miter"/>
     <use xlink:href="#m9a3afe3dca" x="79.737139" y="189.239771" style="fill: #3c33ff; stroke: #000000; stroke-linejoin: miter"/>
     <use xlink:href="#m9a3afe3dca" x="87.248678" y="221.471904" style="fill: #3c33ff; stroke: #000000; stroke-linejoin: miter"/>
     <use xlink:href="#m9a3afe3dca" x="94.760216" y="243.699113" style="fill: #3c33ff; stroke: #000000; stroke-linejoin: miter"/>
     <use xlink:href="#m9a3afe3dca" x="109.783293" y="272.082904" style="fill: #3c33ff; stroke: #000000; stroke-linejoin: miter"/>
     <use xlink:href="#m9a3afe3dca" x="124.80637" y="289.548234" style="fill: #3c33ff; stroke: #000000; stroke-linejoin: miter"/>
     <use xlink:href="#m9a3afe3dca" x="139.829447" y="306.409001" style="fill: #3c33ff; stroke: #000000; stroke-linejoin: miter"/>
    </g>
   </g>
   <g id="line2d_16">
    <path d="M 64.714063 314.900607 
L 65.690563 226.404385 
L 66.667063 182.065598 
L 67.643563 158.030297 
L 68.620063 143.955064 
L 69.596563 136.021798 
L 70.573063 132.358383 
L 71.549563 131.794663 
L 72.526063 133.496599 
L 73.502563 136.837764 
L 74.479063 141.33971 
L 76.432063 152.446189 
L 83.267562 194.925602 
L 85.220562 205.585653 
L 87.173563 215.261586 
L 89.126563 223.959976 
L 91.079563 231.729725 
L 93.032562 238.640376 
L 94.985563 244.769414 
L 96.938562 250.195017 
L 98.891562 254.992101 
L 100.844562 259.230324 
L 102.797562 262.973259 
L 104.750563 266.278228 
L 106.703563 269.196496 
L 108.656563 271.773671 
L 110.609562 274.050175 
L 112.562562 276.061744 
L 114.515563 277.839917 
L 117.445063 280.129463 
L 120.374562 282.035912 
L 123.304062 283.625552 
L 126.233562 284.953097 
L 129.163062 286.063701 
L 133.069062 287.270488 
L 136.975062 288.227969 
L 141.857562 289.156641 
L 146.740062 289.861518 
L 152.599063 290.493701 
L 160.411062 291.087494 
L 170.176063 291.577466 
L 182.870562 291.978437 
L 202.400562 292.345378 
L 235.601562 292.708537 
L 304.933062 293.197884 
L 455.314062 294.069861 
L 455.314062 294.069861 
" clip-path="url(#p449e2132dc)" style="fill: none; stroke: #338dff; stroke-width: 2; stroke-linecap: square"/>
   </g>
   <g id="line2d_17">
    <path d="M 69.671678 266.74803 
L 74.629293 205.857566 
L 79.737139 184.992534 
L 87.248678 240.878144 
L 94.760216 263.713742 
L 109.783293 283.604971 
L 124.80637 298.341163 
L 139.829447 310.953737 
" clip-path="url(#p449e2132dc)" style="fill: none; stroke-dasharray: 3.7,1.6; stroke-dashoffset: 0; stroke: #338dff"/>
    <defs>
     <path id="mc8f0ece7e0" d="M -3 3 
L 3 3 
L 3 -3 
L -3 -3 
z
" style="stroke: #000000; stroke-linejoin: miter"/>
    </defs>
    <g clip-path="url(#p449e2132dc)">
     <use xlink:href="#mc8f0ece7e0" x="69.671678" y="266.74803" style="fill: #338dff; stroke: #000000; stroke-linejoin: miter"/>
     <use xlink:href="#mc8f0ece7e0" x="74.629293" y="205.857566" style="fill: #338dff; stroke: #000000; stroke-linejoin: miter"/>
     <use xlink:href="#mc8f0ece7e0" x="79.737139" y="184.992534" style="fill: #338dff; stroke: #000000; stroke-linejoin: miter"/>
     <use xlink:href="#mc8f0ece7e0" x="87.248678" y="240.878144" style="fill: #338dff; stroke: #000000; stroke-linejoin: miter"/>
     <use xlink:href="#mc8f0ece7e0" x="94.760216" y="263.713742" style="fill: #338dff; stroke: #000000; stroke-linejoin: miter"/>
     <use xlink:href="#mc8f0ece7e0" x="109.783293" y="283.604971" style="fill: #338dff; stroke: #000000; stroke-linejoin: miter"/>
     <use xlink:href="#mc8f0ece7e0" x="124.80637" y="298.341163" style="fill: #338dff; stroke: #000000; stroke-linejoin: miter"/>
     <use xlink:href="#mc8f0ece7e0" x="139.829447" y="310.953737" style="fill: #338dff; stroke: #000000; stroke-linejoin: miter"/>
    </g>
   </g>
   <g id="patch_3">
    <path d="M 45.184063 364.248 
L 45.184063 48.24 
" style="fill: none; stroke: #000000; stroke-width: 0.8; stroke-linejoin: miter; stroke-linecap: square"/>
   </g>
   <g id="patch_4">
    <path d="M 474.844062 364.248 
L 474.844062 48.24 
" style="fill: none; stroke: #000000; stroke-width: 0.8; stroke-linejoin: miter; stroke-linecap: square"/>
   </g>
   <g id="patch_5">
    <path d="M 45.184063 364.248 
L 474.844062 364.248 
" style="fill: none; stroke: #000000; stroke-width: 0.8; stroke-linejoin: miter; stroke-linecap: square"/>
   </g>
   <g id="patch_6">
    <path d="M 45.184063 48.24 
L 474.844062 48.24 
" style="fill: none; stroke: #000000; stroke-width: 0.8; stroke-linejoin: miter; stroke-linecap: square"/>
   </g>
   <g id="legend_1">
    <g id="patch_7">
     <path d="M 283.362812 144.30875 
L 467.844062 144.30875 
Q 469.844062 144.30875 469.844062 142.30875 
L 469.844062 55.24 
Q 469.844062 53.24 467.844062 53.24 
L 283.362812 53.24 
Q 281.362812 53.24 281.362812 55.24 
L 281.362812 142.30875 
Q 281.362812 144.30875 283.362812 144.30875 
z
" style="fill: #ffffff; opacity: 0.8; stroke: #cccccc; stroke-linejoin: miter"/>
    </g>
    <g id="line2d_18">
     <path d="M 285.362812 61.338437 
L 305.362812 61.338437 
" style="fill: none; stroke: #000000; stroke-width: 2; stroke-linecap: square"/>
    </g>
    <g id="line2d_19"/>
    <g id="text_14">
     <!-- sim: 1mg/kg PO -->
     <g transform="translate(313.362812 64.838437) scale(0.1 -0.1)">
      <defs>
       <path id="DejaVuSans-73" d="M 2834 3397 
L 2834 2853 
Q 2591 2978 2328 3040 
Q 2066 3103 1784 3103 
Q 1356 3103 1142 2972 
Q 928 2841 928 2578 
Q 928 2378 1081 2264 
Q 1234 2150 1697 2047 
L 1894 2003 
Q 2506 1872 2764 1633 
Q 3022 1394 3022 966 
Q 3022 478 2636 193 
Q 2250 -91 1575 -91 
Q 1294 -91 989 -36 
Q 684 19 347 128 
L 347 722 
Q 666 556 975 473 
Q 1284 391 1588 391 
Q 1994 391 2212 530 
Q 2431 669 2431 922 
Q 2431 1156 2273 1281 
Q 2116 1406 1581 1522 
L 1381 1569 
Q 847 1681 609 1914 
Q 372 2147 372 2553 
Q 372 3047 722 3315 
Q 1072 3584 1716 3584 
Q 2034 3584 2315 3537 
Q 2597 3491 2834 3397 
z
" transform="scale(0.015625)"/>
       <path id="DejaVuSans-69" d="M 603 3500 
L 1178 3500 
L 1178 0 
L 603 0 
L 603 3500 
z
M 603 4863 
L 1178 4863 
L 1178 4134 
L 603 4134 
L 603 4863 
z
" transform="scale(0.015625)"/>
       <path id="DejaVuSans-6d" d="M 3328 2828 
Q 3544 3216 3844 3400 
Q 4144 3584 4550 3584 
Q 5097 3584 5394 3201 
Q 5691 2819 5691 2113 
L 5691 0 
L 5113 0 
L 5113 2094 
Q 5113 2597 4934 2840 
Q 4756 3084 4391 3084 
Q 3944 3084 3684 2787 
Q 3425 2491 3425 1978 
L 3425 0 
L 2847 0 
L 2847 2094 
Q 2847 2600 2669 2842 
Q 2491 3084 2119 3084 
Q 1678 3084 1418 2786 
Q 1159 2488 1159 1978 
L 1159 0 
L 581 0 
L 581 3500 
L 1159 3500 
L 1159 2956 
Q 1356 3278 1631 3431 
Q 1906 3584 2284 3584 
Q 2666 3584 2933 3390 
Q 3200 3197 3328 2828 
z
" transform="scale(0.015625)"/>
       <path id="DejaVuSans-3a" d="M 750 794 
L 1409 794 
L 1409 0 
L 750 0 
L 750 794 
z
M 750 3309 
L 1409 3309 
L 1409 2516 
L 750 2516 
L 750 3309 
z
" transform="scale(0.015625)"/>
       <path id="DejaVuSans-20" transform="scale(0.015625)"/>
       <path id="DejaVuSans-67" d="M 2906 1791 
Q 2906 2416 2648 2759 
Q 2391 3103 1925 3103 
Q 1463 3103 1205 2759 
Q 947 2416 947 1791 
Q 947 1169 1205 825 
Q 1463 481 1925 481 
Q 2391 481 2648 825 
Q 2906 1169 2906 1791 
z
M 3481 434 
Q 3481 -459 3084 -895 
Q 2688 -1331 1869 -1331 
Q 1566 -1331 1297 -1286 
Q 1028 -1241 775 -1147 
L 775 -588 
Q 1028 -725 1275 -790 
Q 1522 -856 1778 -856 
Q 2344 -856 2625 -561 
Q 2906 -266 2906 331 
L 2906 616 
Q 2728 306 2450 153 
Q 2172 0 1784 0 
Q 1141 0 747 490 
Q 353 981 353 1791 
Q 353 2603 747 3093 
Q 1141 3584 1784 3584 
Q 2172 3584 2450 3431 
Q 2728 3278 2906 2969 
L 2906 3500 
L 3481 3500 
L 3481 434 
z
" transform="scale(0.015625)"/>
       <path id="DejaVuSans-2f" d="M 1625 4666 
L 2156 4666 
L 531 -594 
L 0 -594 
L 1625 4666 
z
" transform="scale(0.015625)"/>
       <path id="DejaVuSans-6b" d="M 581 4863 
L 1159 4863 
L 1159 1991 
L 2875 3500 
L 3609 3500 
L 1753 1863 
L 3688 0 
L 2938 0 
L 1159 1709 
L 1159 0 
L 581 0 
L 581 4863 
z
" transform="scale(0.015625)"/>
       <path id="DejaVuSans-50" d="M 1259 4147 
L 1259 2394 
L 2053 2394 
Q 2494 2394 2734 2622 
Q 2975 2850 2975 3272 
Q 2975 3691 2734 3919 
Q 2494 4147 2053 4147 
L 1259 4147 
z
M 628 4666 
L 2053 4666 
Q 2838 4666 3239 4311 
Q 3641 3956 3641 3272 
Q 3641 2581 3239 2228 
Q 2838 1875 2053 1875 
L 1259 1875 
L 1259 0 
L 628 0 
L 628 4666 
z
" transform="scale(0.015625)"/>
       <path id="DejaVuSans-4f" d="M 2522 4238 
Q 1834 4238 1429 3725 
Q 1025 3213 1025 2328 
Q 1025 1447 1429 934 
Q 1834 422 2522 422 
Q 3209 422 3611 934 
Q 4013 1447 4013 2328 
Q 4013 3213 3611 3725 
Q 3209 4238 2522 4238 
z
M 2522 4750 
Q 3503 4750 4090 4092 
Q 4678 3434 4678 2328 
Q 4678 1225 4090 567 
Q 3503 -91 2522 -91 
Q 1538 -91 948 565 
Q 359 1222 359 2328 
Q 359 3434 948 4092 
Q 1538 4750 2522 4750 
z
" transform="scale(0.015625)"/>
      </defs>
      <use xlink:href="#DejaVuSans-73"/>
      <use xlink:href="#DejaVuSans-69" transform="translate(52.099609 0)"/>
      <use xlink:href="#DejaVuSans-6d" transform="translate(79.882812 0)"/>
      <use xlink:href="#DejaVuSans-3a" transform="translate(177.294922 0)"/>
      <use xlink:href="#DejaVuSans-20" transform="translate(210.986328 0)"/>
      <use xlink:href="#DejaVuSans-31" transform="translate(242.773438 0)"/>
      <use xlink:href="#DejaVuSans-6d" transform="translate(306.396484 0)"/>
      <use xlink:href="#DejaVuSans-67" transform="translate(403.808594 0)"/>
      <use xlink:href="#DejaVuSans-2f" transform="translate(467.285156 0)"/>
      <use xlink:href="#DejaVuSans-6b" transform="translate(500.976562 0)"/>
      <use xlink:href="#DejaVuSans-67" transform="translate(558.886719 0)"/>
      <use xlink:href="#DejaVuSans-20" transform="translate(622.363281 0)"/>
      <use xlink:href="#DejaVuSans-50" transform="translate(654.150391 0)"/>
      <use xlink:href="#DejaVuSans-4f" transform="translate(714.453125 0)"/>
     </g>
    </g>
    <g id="LineCollection_4">
     <path d="M 295.362812 81.016562 
L 295.362812 71.016562 
" style="fill: none; stroke: #000000"/>
    </g>
    <g id="line2d_20">
     <path d="M 285.362812 76.016562 
L 305.362812 76.016562 
" style="fill: none; stroke-dasharray: 3.7,1.6; stroke-dashoffset: 0; stroke: #000000"/>
    </g>
    <g id="line2d_21">
     <g>
      <use xlink:href="#mae36e008a3" x="295.362812" y="76.016562" style="stroke: #000000; stroke-linejoin: miter"/>
     </g>
    </g>
    <g id="text_15">
     <!-- sim: 1mg PO±SD (n=10) -->
     <g transform="translate(313.362812 79.516562) scale(0.1 -0.1)">
      <defs>
       <path id="DejaVuSans-b1" d="M 2944 4013 
L 2944 2803 
L 4684 2803 
L 4684 2272 
L 2944 2272 
L 2944 1063 
L 2419 1063 
L 2419 2272 
L 678 2272 
L 678 2803 
L 2419 2803 
L 2419 4013 
L 2944 4013 
z
M 678 531 
L 4684 531 
L 4684 0 
L 678 0 
L 678 531 
z
" transform="scale(0.015625)"/>
       <path id="DejaVuSans-53" d="M 3425 4513 
L 3425 3897 
Q 3066 4069 2747 4153 
Q 2428 4238 2131 4238 
Q 1616 4238 1336 4038 
Q 1056 3838 1056 3469 
Q 1056 3159 1242 3001 
Q 1428 2844 1947 2747 
L 2328 2669 
Q 3034 2534 3370 2195 
Q 3706 1856 3706 1288 
Q 3706 609 3251 259 
Q 2797 -91 1919 -91 
Q 1588 -91 1214 -16 
Q 841 59 441 206 
L 441 856 
Q 825 641 1194 531 
Q 1563 422 1919 422 
Q 2459 422 2753 634 
Q 3047 847 3047 1241 
Q 3047 1584 2836 1778 
Q 2625 1972 2144 2069 
L 1759 2144 
Q 1053 2284 737 2584 
Q 422 2884 422 3419 
Q 422 4038 858 4394 
Q 1294 4750 2059 4750 
Q 2388 4750 2728 4690 
Q 3069 4631 3425 4513 
z
" transform="scale(0.015625)"/>
       <path id="DejaVuSans-44" d="M 1259 4147 
L 1259 519 
L 2022 519 
Q 2988 519 3436 956 
Q 3884 1394 3884 2338 
Q 3884 3275 3436 3711 
Q 2988 4147 2022 4147 
L 1259 4147 
z
M 628 4666 
L 1925 4666 
Q 3281 4666 3915 4102 
Q 4550 3538 4550 2338 
Q 4550 1131 3912 565 
Q 3275 0 1925 0 
L 628 0 
L 628 4666 
z
" transform="scale(0.015625)"/>
       <path id="DejaVuSans-28" d="M 1984 4856 
Q 1566 4138 1362 3434 
Q 1159 2731 1159 2009 
Q 1159 1288 1364 580 
Q 1569 -128 1984 -844 
L 1484 -844 
Q 1016 -109 783 600 
Q 550 1309 550 2009 
Q 550 2706 781 3412 
Q 1013 4119 1484 4856 
L 1984 4856 
z
" transform="scale(0.015625)"/>
       <path id="DejaVuSans-6e" d="M 3513 2113 
L 3513 0 
L 2938 0 
L 2938 2094 
Q 2938 2591 2744 2837 
Q 2550 3084 2163 3084 
Q 1697 3084 1428 2787 
Q 1159 2491 1159 1978 
L 1159 0 
L 581 0 
L 581 3500 
L 1159 3500 
L 1159 2956 
Q 1366 3272 1645 3428 
Q 1925 3584 2291 3584 
Q 2894 3584 3203 3211 
Q 3513 2838 3513 2113 
z
" transform="scale(0.015625)"/>
       <path id="DejaVuSans-3d" d="M 678 2906 
L 4684 2906 
L 4684 2381 
L 678 2381 
L 678 2906 
z
M 678 1631 
L 4684 1631 
L 4684 1100 
L 678 1100 
L 678 1631 
z
" transform="scale(0.015625)"/>
       <path id="DejaVuSans-29" d="M 513 4856 
L 1013 4856 
Q 1481 4119 1714 3412 
Q 1947 2706 1947 2009 
Q 1947 1309 1714 600 
Q 1481 -109 1013 -844 
L 513 -844 
Q 928 -128 1133 580 
Q 1338 1288 1338 2009 
Q 1338 2731 1133 3434 
Q 928 4138 513 4856 
z
" transform="scale(0.015625)"/>
      </defs>
      <use xlink:href="#DejaVuSans-73"/>
      <use xlink:href="#DejaVuSans-69" transform="translate(52.099609 0)"/>
      <use xlink:href="#DejaVuSans-6d" transform="translate(79.882812 0)"/>
      <use xlink:href="#DejaVuSans-3a" transform="translate(177.294922 0)"/>
      <use xlink:href="#DejaVuSans-20" transform="translate(210.986328 0)"/>
      <use xlink:href="#DejaVuSans-31" transform="translate(242.773438 0)"/>
      <use xlink:href="#DejaVuSans-6d" transform="translate(306.396484 0)"/>
      <use xlink:href="#DejaVuSans-67" transform="translate(403.808594 0)"/>
      <use xlink:href="#DejaVuSans-20" transform="translate(467.285156 0)"/>
      <use xlink:href="#DejaVuSans-50" transform="translate(499.072266 0)"/>
      <use xlink:href="#DejaVuSans-4f" transform="translate(559.375 0)"/>
      <use xlink:href="#DejaVuSans-b1" transform="translate(638.085938 0)"/>
      <use xlink:href="#DejaVuSans-53" transform="translate(721.875 0)"/>
      <use xlink:href="#DejaVuSans-44" transform="translate(785.351562 0)"/>
      <use xlink:href="#DejaVuSans-20" transform="translate(862.353516 0)"/>
      <use xlink:href="#DejaVuSans-28" transform="translate(894.140625 0)"/>
      <use xlink:href="#DejaVuSans-6e" transform="translate(933.154297 0)"/>
      <use xlink:href="#DejaVuSans-3d" transform="translate(996.533203 0)"/>
      <use xlink:href="#DejaVuSans-31" transform="translate(1080.322266 0)"/>
      <use xlink:href="#DejaVuSans-30" transform="translate(1143.945312 0)"/>
      <use xlink:href="#DejaVuSans-29" transform="translate(1207.568359 0)"/>
     </g>
    </g>
    <g id="line2d_22">
     <path d="M 285.362812 90.694687 
L 305.362812 90.694687 
" style="fill: none; stroke: #3c33ff; stroke-width: 2; stroke-linecap: square"/>
    </g>
    <g id="line2d_23"/>
    <g id="text_16">
     <!-- MoRI sim: 1mg/kg PO -->
     <g transform="translate(313.362812 94.194687) scale(0.1 -0.1)">
      <defs>
       <path id="DejaVuSans-4d" d="M 628 4666 
L 1569 4666 
L 2759 1491 
L 3956 4666 
L 4897 4666 
L 4897 0 
L 4281 0 
L 4281 4097 
L 3078 897 
L 2444 897 
L 1241 4097 
L 1241 0 
L 628 0 
L 628 4666 
z
" transform="scale(0.015625)"/>
       <path id="DejaVuSans-6f" d="M 1959 3097 
Q 1497 3097 1228 2736 
Q 959 2375 959 1747 
Q 959 1119 1226 758 
Q 1494 397 1959 397 
Q 2419 397 2687 759 
Q 2956 1122 2956 1747 
Q 2956 2369 2687 2733 
Q 2419 3097 1959 3097 
z
M 1959 3584 
Q 2709 3584 3137 3096 
Q 3566 2609 3566 1747 
Q 3566 888 3137 398 
Q 2709 -91 1959 -91 
Q 1206 -91 779 398 
Q 353 888 353 1747 
Q 353 2609 779 3096 
Q 1206 3584 1959 3584 
z
" transform="scale(0.015625)"/>
       <path id="DejaVuSans-52" d="M 2841 2188 
Q 3044 2119 3236 1894 
Q 3428 1669 3622 1275 
L 4263 0 
L 3584 0 
L 2988 1197 
Q 2756 1666 2539 1819 
Q 2322 1972 1947 1972 
L 1259 1972 
L 1259 0 
L 628 0 
L 628 4666 
L 2053 4666 
Q 2853 4666 3247 4331 
Q 3641 3997 3641 3322 
Q 3641 2881 3436 2590 
Q 3231 2300 2841 2188 
z
M 1259 4147 
L 1259 2491 
L 2053 2491 
Q 2509 2491 2742 2702 
Q 2975 2913 2975 3322 
Q 2975 3731 2742 3939 
Q 2509 4147 2053 4147 
L 1259 4147 
z
" transform="scale(0.015625)"/>
       <path id="DejaVuSans-49" d="M 628 4666 
L 1259 4666 
L 1259 0 
L 628 0 
L 628 4666 
z
" transform="scale(0.015625)"/>
      </defs>
      <use xlink:href="#DejaVuSans-4d"/>
      <use xlink:href="#DejaVuSans-6f" transform="translate(86.279297 0)"/>
      <use xlink:href="#DejaVuSans-52" transform="translate(147.460938 0)"/>
      <use xlink:href="#DejaVuSans-49" transform="translate(216.943359 0)"/>
      <use xlink:href="#DejaVuSans-20" transform="translate(246.435547 0)"/>
      <use xlink:href="#DejaVuSans-73" transform="translate(278.222656 0)"/>
      <use xlink:href="#DejaVuSans-69" transform="translate(330.322266 0)"/>
      <use xlink:href="#DejaVuSans-6d" transform="translate(358.105469 0)"/>
      <use xlink:href="#DejaVuSans-3a" transform="translate(455.517578 0)"/>
      <use xlink:href="#DejaVuSans-20" transform="translate(489.208984 0)"/>
      <use xlink:href="#DejaVuSans-31" transform="translate(520.996094 0)"/>
      <use xlink:href="#DejaVuSans-6d" transform="translate(584.619141 0)"/>
      <use xlink:href="#DejaVuSans-67" transform="translate(682.03125 0)"/>
      <use xlink:href="#DejaVuSans-2f" transform="translate(745.507812 0)"/>
      <use xlink:href="#DejaVuSans-6b" transform="translate(779.199219 0)"/>
      <use xlink:href="#DejaVuSans-67" transform="translate(837.109375 0)"/>
      <use xlink:href="#DejaVuSans-20" transform="translate(900.585938 0)"/>
      <use xlink:href="#DejaVuSans-50" transform="translate(932.373047 0)"/>
      <use xlink:href="#DejaVuSans-4f" transform="translate(992.675781 0)"/>
     </g>
    </g>
    <g id="LineCollection_5">
     <path d="M 295.362812 110.372812 
L 295.362812 100.372812 
" style="fill: none; stroke: #3c33ff"/>
    </g>
    <g id="line2d_24">
     <path d="M 285.362812 105.372812 
L 305.362812 105.372812 
" style="fill: none; stroke-dasharray: 3.7,1.6; stroke-dashoffset: 0; stroke: #3c33ff"/>
    </g>
    <g id="line2d_25">
     <g>
      <use xlink:href="#m9a3afe3dca" x="295.362812" y="105.372812" style="fill: #3c33ff; stroke: #000000; stroke-linejoin: miter"/>
     </g>
    </g>
    <g id="text_17">
     <!-- MoRI sim: 1mg PO±SD (n=10) -->
     <g transform="translate(313.362812 108.872812) scale(0.1 -0.1)">
      <use xlink:href="#DejaVuSans-4d"/>
      <use xlink:href="#DejaVuSans-6f" transform="translate(86.279297 0)"/>
      <use xlink:href="#DejaVuSans-52" transform="translate(147.460938 0)"/>
      <use xlink:href="#DejaVuSans-49" transform="translate(216.943359 0)"/>
      <use xlink:href="#DejaVuSans-20" transform="translate(246.435547 0)"/>
      <use xlink:href="#DejaVuSans-73" transform="translate(278.222656 0)"/>
      <use xlink:href="#DejaVuSans-69" transform="translate(330.322266 0)"/>
      <use xlink:href="#DejaVuSans-6d" transform="translate(358.105469 0)"/>
      <use xlink:href="#DejaVuSans-3a" transform="translate(455.517578 0)"/>
      <use xlink:href="#DejaVuSans-20" transform="translate(489.208984 0)"/>
      <use xlink:href="#DejaVuSans-31" transform="translate(520.996094 0)"/>
      <use xlink:href="#DejaVuSans-6d" transform="translate(584.619141 0)"/>
      <use xlink:href="#DejaVuSans-67" transform="translate(682.03125 0)"/>
      <use xlink:href="#DejaVuSans-20" transform="translate(745.507812 0)"/>
      <use xlink:href="#DejaVuSans-50" transform="translate(777.294922 0)"/>
      <use xlink:href="#DejaVuSans-4f" transform="translate(837.597656 0)"/>
      <use xlink:href="#DejaVuSans-b1" transform="translate(916.308594 0)"/>
      <use xlink:href="#DejaVuSans-53" transform="translate(1000.097656 0)"/>
      <use xlink:href="#DejaVuSans-44" transform="translate(1063.574219 0)"/>
      <use xlink:href="#DejaVuSans-20" transform="translate(1140.576172 0)"/>
      <use xlink:href="#DejaVuSans-28" transform="translate(1172.363281 0)"/>
      <use xlink:href="#DejaVuSans-6e" transform="translate(1211.376953 0)"/>
      <use xlink:href="#DejaVuSans-3d" transform="translate(1274.755859 0)"/>
      <use xlink:href="#DejaVuSans-31" transform="translate(1358.544922 0)"/>
      <use xlink:href="#DejaVuSans-30" transform="translate(1422.167969 0)"/>
      <use xlink:href="#DejaVuSans-29" transform="translate(1485.791016 0)"/>
     </g>
    </g>
    <g id="line2d_26">
     <path d="M 285.362812 120.050937 
L 305.362812 120.050937 
" style="fill: none; stroke: #338dff; stroke-width: 2; stroke-linecap: square"/>
    </g>
    <g id="line2d_27"/>
    <g id="text_18">
     <!-- SRI sim: 1mg/kg PO -->
     <g transform="translate(313.362812 123.550937) scale(0.1 -0.1)">
      <use xlink:href="#DejaVuSans-53"/>
      <use xlink:href="#DejaVuSans-52" transform="translate(63.476562 0)"/>
      <use xlink:href="#DejaVuSans-49" transform="translate(132.958984 0)"/>
      <use xlink:href="#DejaVuSans-20" transform="translate(162.451172 0)"/>
      <use xlink:href="#DejaVuSans-73" transform="translate(194.238281 0)"/>
      <use xlink:href="#DejaVuSans-69" transform="translate(246.337891 0)"/>
      <use xlink:href="#DejaVuSans-6d" transform="translate(274.121094 0)"/>
      <use xlink:href="#DejaVuSans-3a" transform="translate(371.533203 0)"/>
      <use xlink:href="#DejaVuSans-20" transform="translate(405.224609 0)"/>
      <use xlink:href="#DejaVuSans-31" transform="translate(437.011719 0)"/>
      <use xlink:href="#DejaVuSans-6d" transform="translate(500.634766 0)"/>
      <use xlink:href="#DejaVuSans-67" transform="translate(598.046875 0)"/>
      <use xlink:href="#DejaVuSans-2f" transform="translate(661.523438 0)"/>
      <use xlink:href="#DejaVuSans-6b" transform="translate(695.214844 0)"/>
      <use xlink:href="#DejaVuSans-67" transform="translate(753.125 0)"/>
      <use xlink:href="#DejaVuSans-20" transform="translate(816.601562 0)"/>
      <use xlink:href="#DejaVuSans-50" transform="translate(848.388672 0)"/>
      <use xlink:href="#DejaVuSans-4f" transform="translate(908.691406 0)"/>
     </g>
    </g>
    <g id="LineCollection_6">
     <path d="M 295.362812 139.729062 
L 295.362812 129.729062 
" style="fill: none; stroke: #338dff"/>
    </g>
    <g id="line2d_28">
     <path d="M 285.362812 134.729062 
L 305.362812 134.729062 
" style="fill: none; stroke-dasharray: 3.7,1.6; stroke-dashoffset: 0; stroke: #338dff"/>
    </g>
    <g id="line2d_29">
     <g>
      <use xlink:href="#mc8f0ece7e0" x="295.362812" y="134.729062" style="fill: #338dff; stroke: #000000; stroke-linejoin: miter"/>
     </g>
    </g>
    <g id="text_19">
     <!-- SRI sim: 1mg PO±SD (n=10) -->
     <g transform="translate(313.362812 138.229062) scale(0.1 -0.1)">
      <use xlink:href="#DejaVuSans-53"/>
      <use xlink:href="#DejaVuSans-52" transform="translate(63.476562 0)"/>
      <use xlink:href="#DejaVuSans-49" transform="translate(132.958984 0)"/>
      <use xlink:href="#DejaVuSans-20" transform="translate(162.451172 0)"/>
      <use xlink:href="#DejaVuSans-73" transform="translate(194.238281 0)"/>
      <use xlink:href="#DejaVuSans-69" transform="translate(246.337891 0)"/>
      <use xlink:href="#DejaVuSans-6d" transform="translate(274.121094 0)"/>
      <use xlink:href="#DejaVuSans-3a" transform="translate(371.533203 0)"/>
      <use xlink:href="#DejaVuSans-20" transform="translate(405.224609 0)"/>
      <use xlink:href="#DejaVuSans-31" transform="translate(437.011719 0)"/>
      <use xlink:href="#DejaVuSans-6d" transform="translate(500.634766 0)"/>
      <use xlink:href="#DejaVuSans-67" transform="translate(598.046875 0)"/>
      <use xlink:href="#DejaVuSans-20" transform="translate(661.523438 0)"/>
      <use xlink:href="#DejaVuSans-50" transform="translate(693.310547 0)"/>
      <use xlink:href="#DejaVuSans-4f" transform="translate(753.613281 0)"/>
      <use xlink:href="#DejaVuSans-b1" transform="translate(832.324219 0)"/>
      <use xlink:href="#DejaVuSans-53" transform="translate(916.113281 0)"/>
      <use xlink:href="#DejaVuSans-44" transform="translate(979.589844 0)"/>
      <use xlink:href="#DejaVuSans-20" transform="translate(1056.591797 0)"/>
      <use xlink:href="#DejaVuSans-28" transform="translate(1088.378906 0)"/>
      <use xlink:href="#DejaVuSans-6e" transform="translate(1127.392578 0)"/>
      <use xlink:href="#DejaVuSans-3d" transform="translate(1190.771484 0)"/>
      <use xlink:href="#DejaVuSans-31" transform="translate(1274.560547 0)"/>
      <use xlink:href="#DejaVuSans-30" transform="translate(1338.183594 0)"/>
      <use xlink:href="#DejaVuSans-29" transform="translate(1401.806641 0)"/>
     </g>
    </g>
   </g>
  </g>
  <g id="text_20">
   <!-- Giudicelli1984 -->
   <g transform="translate(152.875078 26.196094) scale(0.25 -0.25)">
    <defs>
     <path id="DejaVuSans-Bold-47" d="M 4781 347 
Q 4331 128 3847 18 
Q 3363 -91 2847 -91 
Q 1681 -91 1000 561 
Q 319 1213 319 2328 
Q 319 3456 1012 4103 
Q 1706 4750 2913 4750 
Q 3378 4750 3804 4662 
Q 4231 4575 4609 4403 
L 4609 3438 
Q 4219 3659 3833 3768 
Q 3447 3878 3059 3878 
Q 2341 3878 1952 3476 
Q 1563 3075 1563 2328 
Q 1563 1588 1938 1184 
Q 2313 781 3003 781 
Q 3191 781 3352 804 
Q 3513 828 3641 878 
L 3641 1784 
L 2906 1784 
L 2906 2591 
L 4781 2591 
L 4781 347 
z
" transform="scale(0.015625)"/>
     <path id="DejaVuSans-Bold-75" d="M 500 1363 
L 500 3500 
L 1625 3500 
L 1625 3150 
Q 1625 2866 1622 2436 
Q 1619 2006 1619 1863 
Q 1619 1441 1641 1255 
Q 1663 1069 1716 984 
Q 1784 875 1895 815 
Q 2006 756 2150 756 
Q 2500 756 2700 1025 
Q 2900 1294 2900 1772 
L 2900 3500 
L 4019 3500 
L 4019 0 
L 2900 0 
L 2900 506 
Q 2647 200 2364 54 
Q 2081 -91 1741 -91 
Q 1134 -91 817 281 
Q 500 653 500 1363 
z
" transform="scale(0.015625)"/>
     <path id="DejaVuSans-Bold-64" d="M 2919 2988 
L 2919 4863 
L 4044 4863 
L 4044 0 
L 2919 0 
L 2919 506 
Q 2688 197 2409 53 
Q 2131 -91 1766 -91 
Q 1119 -91 703 423 
Q 288 938 288 1747 
Q 288 2556 703 3070 
Q 1119 3584 1766 3584 
Q 2128 3584 2408 3439 
Q 2688 3294 2919 2988 
z
M 2181 722 
Q 2541 722 2730 984 
Q 2919 1247 2919 1747 
Q 2919 2247 2730 2509 
Q 2541 2772 2181 2772 
Q 1825 2772 1636 2509 
Q 1447 2247 1447 1747 
Q 1447 1247 1636 984 
Q 1825 722 2181 722 
z
" transform="scale(0.015625)"/>
     <path id="DejaVuSans-Bold-31" d="M 750 831 
L 1813 831 
L 1813 3847 
L 722 3622 
L 722 4441 
L 1806 4666 
L 2950 4666 
L 2950 831 
L 4013 831 
L 4013 0 
L 750 0 
L 750 831 
z
" transform="scale(0.015625)"/>
     <path id="DejaVuSans-Bold-39" d="M 641 103 
L 641 966 
Q 928 831 1190 764 
Q 1453 697 1709 697 
Q 2247 697 2547 995 
Q 2847 1294 2900 1881 
Q 2688 1725 2447 1647 
Q 2206 1569 1925 1569 
Q 1209 1569 770 1986 
Q 331 2403 331 3084 
Q 331 3838 820 4291 
Q 1309 4744 2131 4744 
Q 3044 4744 3544 4128 
Q 4044 3513 4044 2388 
Q 4044 1231 3459 570 
Q 2875 -91 1856 -91 
Q 1528 -91 1228 -42 
Q 928 6 641 103 
z
M 2125 2350 
Q 2441 2350 2600 2554 
Q 2759 2759 2759 3169 
Q 2759 3575 2600 3781 
Q 2441 3988 2125 3988 
Q 1809 3988 1650 3781 
Q 1491 3575 1491 3169 
Q 1491 2759 1650 2554 
Q 1809 2350 2125 2350 
z
" transform="scale(0.015625)"/>
     <path id="DejaVuSans-Bold-38" d="M 2228 2088 
Q 1891 2088 1709 1903 
Q 1528 1719 1528 1375 
Q 1528 1031 1709 848 
Q 1891 666 2228 666 
Q 2563 666 2741 848 
Q 2919 1031 2919 1375 
Q 2919 1722 2741 1905 
Q 2563 2088 2228 2088 
z
M 1350 2484 
Q 925 2613 709 2878 
Q 494 3144 494 3541 
Q 494 4131 934 4440 
Q 1375 4750 2228 4750 
Q 3075 4750 3515 4442 
Q 3956 4134 3956 3541 
Q 3956 3144 3739 2878 
Q 3522 2613 3097 2484 
Q 3572 2353 3814 2058 
Q 4056 1763 4056 1313 
Q 4056 619 3595 264 
Q 3134 -91 2228 -91 
Q 1319 -91 855 264 
Q 391 619 391 1313 
Q 391 1763 633 2058 
Q 875 2353 1350 2484 
z
M 1631 3419 
Q 1631 3141 1786 2991 
Q 1941 2841 2228 2841 
Q 2509 2841 2662 2991 
Q 2816 3141 2816 3419 
Q 2816 3697 2662 3845 
Q 2509 3994 2228 3994 
Q 1941 3994 1786 3844 
Q 1631 3694 1631 3419 
z
" transform="scale(0.015625)"/>
     <path id="DejaVuSans-Bold-34" d="M 2356 3675 
L 1038 1722 
L 2356 1722 
L 2356 3675 
z
M 2156 4666 
L 3494 4666 
L 3494 1722 
L 4159 1722 
L 4159 850 
L 3494 850 
L 3494 0 
L 2356 0 
L 2356 850 
L 288 850 
L 288 1881 
L 2156 4666 
z
" transform="scale(0.015625)"/>
    </defs>
    <use xlink:href="#DejaVuSans-Bold-47"/>
    <use xlink:href="#DejaVuSans-Bold-69" transform="translate(82.080078 0)"/>
    <use xlink:href="#DejaVuSans-Bold-75" transform="translate(116.357422 0)"/>
    <use xlink:href="#DejaVuSans-Bold-64" transform="translate(187.548828 0)"/>
    <use xlink:href="#DejaVuSans-Bold-69" transform="translate(259.130859 0)"/>
    <use xlink:href="#DejaVuSans-Bold-63" transform="translate(293.408203 0)"/>
    <use xlink:href="#DejaVuSans-Bold-65" transform="translate(352.685547 0)"/>
    <use xlink:href="#DejaVuSans-Bold-6c" transform="translate(420.507812 0)"/>
    <use xlink:href="#DejaVuSans-Bold-6c" transform="translate(454.785156 0)"/>
    <use xlink:href="#DejaVuSans-Bold-69" transform="translate(489.0625 0)"/>
    <use xlink:href="#DejaVuSans-Bold-31" transform="translate(523.339844 0)"/>
    <use xlink:href="#DejaVuSans-Bold-39" transform="translate(592.919922 0)"/>
    <use xlink:href="#DejaVuSans-Bold-38" transform="translate(662.5 0)"/>
    <use xlink:href="#DejaVuSans-Bold-34" transform="translate(732.080078 0)"/>
   </g>
  </g>
 </g>
 <defs>
  <clipPath id="p449e2132dc">
   <rect x="45.184063" y="48.24" width="429.66" height="316.008"/>
  </clipPath>
 </defs>
</svg>
