<?xml version="1.0" encoding="utf-8" standalone="no"?>
<!DOCTYPE svg PUBLIC "-//W3C//DTD SVG 1.1//EN"
  "http://www.w3.org/Graphics/SVG/1.1/DTD/svg11.dtd">
<svg xmlns:xlink="http://www.w3.org/1999/xlink" width="486.815937pt" height="414.385812pt" viewBox="0 0 486.815937 414.385812" xmlns="http://www.w3.org/2000/svg" version="1.1">
 <metadata>
  <rdf:RDF xmlns:dc="http://purl.org/dc/elements/1.1/" xmlns:cc="http://creativecommons.org/ns#" xmlns:rdf="http://www.w3.org/1999/02/22-rdf-syntax-ns#">
   <cc:Work>
    <dc:type rdf:resource="http://purl.org/dc/dcmitype/StillImage"/>
    <dc:date>2025-09-10T13:16:56.319386</dc:date>
    <dc:format>image/svg+xml</dc:format>
    <dc:creator>
     <cc:Agent>
      <dc:title>Matplotlib v3.10.6, https://matplotlib.org/</dc:title>
     </cc:Agent>
    </dc:creator>
   </cc:Work>
  </rdf:RDF>
 </metadata>
 <defs>
  <style type="text/css">*{stroke-linejoin: round; stroke-linecap: butt}</style>
 </defs>
 <g id="figure_1">
  <g id="patch_1">
   <path d="M 0 414.385812 
L 486.815937 414.385812 
L 486.815937 -0 
L 0 -0 
z
" style="fill: #ffffff"/>
  </g>
  <g id="axes_1">
   <g id="patch_2">
    <path d="M 45.184063 364.248 
L 474.844062 364.248 
L 474.844062 48.24 
L 45.184063 48.24 
z
" style="fill: #ffffff"/>
   </g>
   <g id="matplotlib.axis_1">
    <g id="xtick_1">
     <g id="line2d_1">
      <defs>
       <path id="m2bcb6dc416" d="M 0 0 
L 0 3.5 
" style="stroke: #000000; stroke-width: 0.8"/>
      </defs>
      <g>
       <use xlink:href="#m2bcb6dc416" x="45.184063" y="364.248" style="stroke: #000000; stroke-width: 0.8"/>
      </g>
     </g>
     <g id="text_1">
      <!-- 0 -->
      <g transform="translate(40.412188 382.645656) scale(0.15 -0.15)">
       <defs>
        <path id="DejaVuSans-30" d="M 2034 4250 
Q 1547 4250 1301 3770 
Q 1056 3291 1056 2328 
Q 1056 1369 1301 889 
Q 1547 409 2034 409 
Q 2525 409 2770 889 
Q 3016 1369 3016 2328 
Q 3016 3291 2770 3770 
Q 2525 4250 2034 4250 
z
M 2034 4750 
Q 2819 4750 3233 4129 
Q 3647 3509 3647 2328 
Q 3647 1150 3233 529 
Q 2819 -91 2034 -91 
Q 1250 -91 836 529 
Q 422 1150 422 2328 
Q 422 3509 836 4129 
Q 1250 4750 2034 4750 
z
" transform="scale(0.015625)"/>
       </defs>
       <use xlink:href="#DejaVuSans-30"/>
      </g>
     </g>
    </g>
    <g id="xtick_2">
     <g id="line2d_2">
      <g>
       <use xlink:href="#m2bcb6dc416" x="92.924063" y="364.248" style="stroke: #000000; stroke-width: 0.8"/>
      </g>
     </g>
     <g id="text_2">
      <!-- 1 -->
      <g transform="translate(88.152188 382.645656) scale(0.15 -0.15)">
       <defs>
        <path id="DejaVuSans-31" d="M 794 531 
L 1825 531 
L 1825 4091 
L 703 3866 
L 703 4441 
L 1819 4666 
L 2450 4666 
L 2450 531 
L 3481 531 
L 3481 0 
L 794 0 
L 794 531 
z
" transform="scale(0.015625)"/>
       </defs>
       <use xlink:href="#DejaVuSans-31"/>
      </g>
     </g>
    </g>
    <g id="xtick_3">
     <g id="line2d_3">
      <g>
       <use xlink:href="#m2bcb6dc416" x="140.664062" y="364.248" style="stroke: #000000; stroke-width: 0.8"/>
      </g>
     </g>
     <g id="text_3">
      <!-- 2 -->
      <g transform="translate(135.892188 382.645656) scale(0.15 -0.15)">
       <defs>
        <path id="DejaVuSans-32" d="M 1228 531 
L 3431 531 
L 3431 0 
L 469 0 
L 469 531 
Q 828 903 1448 1529 
Q 2069 2156 2228 2338 
Q 2531 2678 2651 2914 
Q 2772 3150 2772 3378 
Q 2772 3750 2511 3984 
Q 2250 4219 1831 4219 
Q 1534 4219 1204 4116 
Q 875 4013 500 3803 
L 500 4441 
Q 881 4594 1212 4672 
Q 1544 4750 1819 4750 
Q 2544 4750 2975 4387 
Q 3406 4025 3406 3419 
Q 3406 3131 3298 2873 
Q 3191 2616 2906 2266 
Q 2828 2175 2409 1742 
Q 1991 1309 1228 531 
z
" transform="scale(0.015625)"/>
       </defs>
       <use xlink:href="#DejaVuSans-32"/>
      </g>
     </g>
    </g>
    <g id="xtick_4">
     <g id="line2d_4">
      <g>
       <use xlink:href="#m2bcb6dc416" x="188.404062" y="364.248" style="stroke: #000000; stroke-width: 0.8"/>
      </g>
     </g>
     <g id="text_4">
      <!-- 3 -->
      <g transform="translate(183.632187 382.645656) scale(0.15 -0.15)">
       <defs>
        <path id="DejaVuSans-33" d="M 2597 2516 
Q 3050 2419 3304 2112 
Q 3559 1806 3559 1356 
Q 3559 666 3084 287 
Q 2609 -91 1734 -91 
Q 1441 -91 1130 -33 
Q 819 25 488 141 
L 488 750 
Q 750 597 1062 519 
Q 1375 441 1716 441 
Q 2309 441 2620 675 
Q 2931 909 2931 1356 
Q 2931 1769 2642 2001 
Q 2353 2234 1838 2234 
L 1294 2234 
L 1294 2753 
L 1863 2753 
Q 2328 2753 2575 2939 
Q 2822 3125 2822 3475 
Q 2822 3834 2567 4026 
Q 2313 4219 1838 4219 
Q 1578 4219 1281 4162 
Q 984 4106 628 3988 
L 628 4550 
Q 988 4650 1302 4700 
Q 1616 4750 1894 4750 
Q 2613 4750 3031 4423 
Q 3450 4097 3450 3541 
Q 3450 3153 3228 2886 
Q 3006 2619 2597 2516 
z
" transform="scale(0.015625)"/>
       </defs>
       <use xlink:href="#DejaVuSans-33"/>
      </g>
     </g>
    </g>
    <g id="xtick_5">
     <g id="line2d_5">
      <g>
       <use xlink:href="#m2bcb6dc416" x="236.144062" y="364.248" style="stroke: #000000; stroke-width: 0.8"/>
      </g>
     </g>
     <g id="text_5">
      <!-- 4 -->
      <g transform="translate(231.372187 382.645656) scale(0.15 -0.15)">
       <defs>
        <path id="DejaVuSans-34" d="M 2419 4116 
L 825 1625 
L 2419 1625 
L 2419 4116 
z
M 2253 4666 
L 3047 4666 
L 3047 1625 
L 3713 1625 
L 3713 1100 
L 3047 1100 
L 3047 0 
L 2419 0 
L 2419 1100 
L 313 1100 
L 313 1709 
L 2253 4666 
z
" transform="scale(0.015625)"/>
       </defs>
       <use xlink:href="#DejaVuSans-34"/>
      </g>
     </g>
    </g>
    <g id="xtick_6">
     <g id="line2d_6">
      <g>
       <use xlink:href="#m2bcb6dc416" x="283.884063" y="364.248" style="stroke: #000000; stroke-width: 0.8"/>
      </g>
     </g>
     <g id="text_6">
      <!-- 5 -->
      <g transform="translate(279.112188 382.645656) scale(0.15 -0.15)">
       <defs>
        <path id="DejaVuSans-35" d="M 691 4666 
L 3169 4666 
L 3169 4134 
L 1269 4134 
L 1269 2991 
Q 1406 3038 1543 3061 
Q 1681 3084 1819 3084 
Q 2600 3084 3056 2656 
Q 3513 2228 3513 1497 
Q 3513 744 3044 326 
Q 2575 -91 1722 -91 
Q 1428 -91 1123 -41 
Q 819 9 494 109 
L 494 744 
Q 775 591 1075 516 
Q 1375 441 1709 441 
Q 2250 441 2565 725 
Q 2881 1009 2881 1497 
Q 2881 1984 2565 2268 
Q 2250 2553 1709 2553 
Q 1456 2553 1204 2497 
Q 953 2441 691 2322 
L 691 4666 
z
" transform="scale(0.015625)"/>
       </defs>
       <use xlink:href="#DejaVuSans-35"/>
      </g>
     </g>
    </g>
    <g id="xtick_7">
     <g id="line2d_7">
      <g>
       <use xlink:href="#m2bcb6dc416" x="331.624062" y="364.248" style="stroke: #000000; stroke-width: 0.8"/>
      </g>
     </g>
     <g id="text_7">
      <!-- 6 -->
      <g transform="translate(326.852187 382.645656) scale(0.15 -0.15)">
       <defs>
        <path id="DejaVuSans-36" d="M 2113 2584 
Q 1688 2584 1439 2293 
Q 1191 2003 1191 1497 
Q 1191 994 1439 701 
Q 1688 409 2113 409 
Q 2538 409 2786 701 
Q 3034 994 3034 1497 
Q 3034 2003 2786 2293 
Q 2538 2584 2113 2584 
z
M 3366 4563 
L 3366 3988 
Q 3128 4100 2886 4159 
Q 2644 4219 2406 4219 
Q 1781 4219 1451 3797 
Q 1122 3375 1075 2522 
Q 1259 2794 1537 2939 
Q 1816 3084 2150 3084 
Q 2853 3084 3261 2657 
Q 3669 2231 3669 1497 
Q 3669 778 3244 343 
Q 2819 -91 2113 -91 
Q 1303 -91 875 529 
Q 447 1150 447 2328 
Q 447 3434 972 4092 
Q 1497 4750 2381 4750 
Q 2619 4750 2861 4703 
Q 3103 4656 3366 4563 
z
" transform="scale(0.015625)"/>
       </defs>
       <use xlink:href="#DejaVuSans-36"/>
      </g>
     </g>
    </g>
    <g id="xtick_8">
     <g id="line2d_8">
      <g>
       <use xlink:href="#m2bcb6dc416" x="379.364062" y="364.248" style="stroke: #000000; stroke-width: 0.8"/>
      </g>
     </g>
     <g id="text_8">
      <!-- 7 -->
      <g transform="translate(374.592187 382.645656) scale(0.15 -0.15)">
       <defs>
        <path id="DejaVuSans-37" d="M 525 4666 
L 3525 4666 
L 3525 4397 
L 1831 0 
L 1172 0 
L 2766 4134 
L 525 4134 
L 525 4666 
z
" transform="scale(0.015625)"/>
       </defs>
       <use xlink:href="#DejaVuSans-37"/>
      </g>
     </g>
    </g>
    <g id="xtick_9">
     <g id="line2d_9">
      <g>
       <use xlink:href="#m2bcb6dc416" x="427.104062" y="364.248" style="stroke: #000000; stroke-width: 0.8"/>
      </g>
     </g>
     <g id="text_9">
      <!-- 8 -->
      <g transform="translate(422.332187 382.645656) scale(0.15 -0.15)">
       <defs>
        <path id="DejaVuSans-38" d="M 2034 2216 
Q 1584 2216 1326 1975 
Q 1069 1734 1069 1313 
Q 1069 891 1326 650 
Q 1584 409 2034 409 
Q 2484 409 2743 651 
Q 3003 894 3003 1313 
Q 3003 1734 2745 1975 
Q 2488 2216 2034 2216 
z
M 1403 2484 
Q 997 2584 770 2862 
Q 544 3141 544 3541 
Q 544 4100 942 4425 
Q 1341 4750 2034 4750 
Q 2731 4750 3128 4425 
Q 3525 4100 3525 3541 
Q 3525 3141 3298 2862 
Q 3072 2584 2669 2484 
Q 3125 2378 3379 2068 
Q 3634 1759 3634 1313 
Q 3634 634 3220 271 
Q 2806 -91 2034 -91 
Q 1263 -91 848 271 
Q 434 634 434 1313 
Q 434 1759 690 2068 
Q 947 2378 1403 2484 
z
M 1172 3481 
Q 1172 3119 1398 2916 
Q 1625 2713 2034 2713 
Q 2441 2713 2670 2916 
Q 2900 3119 2900 3481 
Q 2900 3844 2670 4047 
Q 2441 4250 2034 4250 
Q 1625 4250 1398 4047 
Q 1172 3844 1172 3481 
z
" transform="scale(0.015625)"/>
       </defs>
       <use xlink:href="#DejaVuSans-38"/>
      </g>
     </g>
    </g>
    <g id="xtick_10">
     <g id="line2d_10">
      <g>
       <use xlink:href="#m2bcb6dc416" x="474.844062" y="364.248" style="stroke: #000000; stroke-width: 0.8"/>
      </g>
     </g>
     <g id="text_10">
      <!-- 9 -->
      <g transform="translate(470.072187 382.645656) scale(0.15 -0.15)">
       <defs>
        <path id="DejaVuSans-39" d="M 703 97 
L 703 672 
Q 941 559 1184 500 
Q 1428 441 1663 441 
Q 2288 441 2617 861 
Q 2947 1281 2994 2138 
Q 2813 1869 2534 1725 
Q 2256 1581 1919 1581 
Q 1219 1581 811 2004 
Q 403 2428 403 3163 
Q 403 3881 828 4315 
Q 1253 4750 1959 4750 
Q 2769 4750 3195 4129 
Q 3622 3509 3622 2328 
Q 3622 1225 3098 567 
Q 2575 -91 1691 -91 
Q 1453 -91 1209 -44 
Q 966 3 703 97 
z
M 1959 2075 
Q 2384 2075 2632 2365 
Q 2881 2656 2881 3163 
Q 2881 3666 2632 3958 
Q 2384 4250 1959 4250 
Q 1534 4250 1286 3958 
Q 1038 3666 1038 3163 
Q 1038 2656 1286 2365 
Q 1534 2075 1959 2075 
z
" transform="scale(0.015625)"/>
       </defs>
       <use xlink:href="#DejaVuSans-39"/>
      </g>
     </g>
    </g>
    <g id="text_11">
     <!-- time [hr] -->
     <g transform="translate(214.939531 403.442375) scale(0.18 -0.18)">
      <defs>
       <path id="DejaVuSans-Bold-74" d="M 1759 4494 
L 1759 3500 
L 2913 3500 
L 2913 2700 
L 1759 2700 
L 1759 1216 
Q 1759 972 1856 886 
Q 1953 800 2241 800 
L 2816 800 
L 2816 0 
L 1856 0 
Q 1194 0 917 276 
Q 641 553 641 1216 
L 641 2700 
L 84 2700 
L 84 3500 
L 641 3500 
L 641 4494 
L 1759 4494 
z
" transform="scale(0.015625)"/>
       <path id="DejaVuSans-Bold-69" d="M 538 3500 
L 1656 3500 
L 1656 0 
L 538 0 
L 538 3500 
z
M 538 4863 
L 1656 4863 
L 1656 3950 
L 538 3950 
L 538 4863 
z
" transform="scale(0.015625)"/>
       <path id="DejaVuSans-Bold-6d" d="M 3781 2919 
Q 3994 3244 4286 3414 
Q 4578 3584 4928 3584 
Q 5531 3584 5847 3212 
Q 6163 2841 6163 2131 
L 6163 0 
L 5038 0 
L 5038 1825 
Q 5041 1866 5042 1909 
Q 5044 1953 5044 2034 
Q 5044 2406 4934 2573 
Q 4825 2741 4581 2741 
Q 4263 2741 4089 2478 
Q 3916 2216 3909 1719 
L 3909 0 
L 2784 0 
L 2784 1825 
Q 2784 2406 2684 2573 
Q 2584 2741 2328 2741 
Q 2006 2741 1831 2477 
Q 1656 2213 1656 1722 
L 1656 0 
L 531 0 
L 531 3500 
L 1656 3500 
L 1656 2988 
Q 1863 3284 2130 3434 
Q 2397 3584 2719 3584 
Q 3081 3584 3359 3409 
Q 3638 3234 3781 2919 
z
" transform="scale(0.015625)"/>
       <path id="DejaVuSans-Bold-65" d="M 4031 1759 
L 4031 1441 
L 1416 1441 
Q 1456 1047 1700 850 
Q 1944 653 2381 653 
Q 2734 653 3104 758 
Q 3475 863 3866 1075 
L 3866 213 
Q 3469 63 3072 -14 
Q 2675 -91 2278 -91 
Q 1328 -91 801 392 
Q 275 875 275 1747 
Q 275 2603 792 3093 
Q 1309 3584 2216 3584 
Q 3041 3584 3536 3087 
Q 4031 2591 4031 1759 
z
M 2881 2131 
Q 2881 2450 2695 2645 
Q 2509 2841 2209 2841 
Q 1884 2841 1681 2658 
Q 1478 2475 1428 2131 
L 2881 2131 
z
" transform="scale(0.015625)"/>
       <path id="DejaVuSans-Bold-20" transform="scale(0.015625)"/>
       <path id="DejaVuSans-Bold-5b" d="M 550 4863 
L 2491 4863 
L 2491 4159 
L 1613 4159 
L 1613 -141 
L 2491 -141 
L 2491 -844 
L 550 -844 
L 550 4863 
z
" transform="scale(0.015625)"/>
       <path id="DejaVuSans-Bold-68" d="M 4056 2131 
L 4056 0 
L 2931 0 
L 2931 347 
L 2931 1625 
Q 2931 2084 2911 2256 
Q 2891 2428 2841 2509 
Q 2775 2619 2662 2680 
Q 2550 2741 2406 2741 
Q 2056 2741 1856 2470 
Q 1656 2200 1656 1722 
L 1656 0 
L 538 0 
L 538 4863 
L 1656 4863 
L 1656 2988 
Q 1909 3294 2193 3439 
Q 2478 3584 2822 3584 
Q 3428 3584 3742 3212 
Q 4056 2841 4056 2131 
z
" transform="scale(0.015625)"/>
       <path id="DejaVuSans-Bold-72" d="M 3138 2547 
Q 2991 2616 2845 2648 
Q 2700 2681 2553 2681 
Q 2122 2681 1889 2404 
Q 1656 2128 1656 1613 
L 1656 0 
L 538 0 
L 538 3500 
L 1656 3500 
L 1656 2925 
Q 1872 3269 2151 3426 
Q 2431 3584 2822 3584 
Q 2878 3584 2943 3579 
Q 3009 3575 3134 3559 
L 3138 2547 
z
" transform="scale(0.015625)"/>
       <path id="DejaVuSans-Bold-5d" d="M 2375 -844 
L 434 -844 
L 434 -141 
L 1313 -141 
L 1313 4159 
L 434 4159 
L 434 4863 
L 2375 4863 
L 2375 -844 
z
" transform="scale(0.015625)"/>
      </defs>
      <use xlink:href="#DejaVuSans-Bold-74"/>
      <use xlink:href="#DejaVuSans-Bold-69" transform="translate(47.802734 0)"/>
      <use xlink:href="#DejaVuSans-Bold-6d" transform="translate(82.080078 0)"/>
      <use xlink:href="#DejaVuSans-Bold-65" transform="translate(186.279297 0)"/>
      <use xlink:href="#DejaVuSans-Bold-20" transform="translate(254.101562 0)"/>
      <use xlink:href="#DejaVuSans-Bold-5b" transform="translate(288.916016 0)"/>
      <use xlink:href="#DejaVuSans-Bold-68" transform="translate(334.619141 0)"/>
      <use xlink:href="#DejaVuSans-Bold-72" transform="translate(405.810547 0)"/>
      <use xlink:href="#DejaVuSans-Bold-5d" transform="translate(455.126953 0)"/>
     </g>
    </g>
   </g>
   <g id="matplotlib.axis_2">
    <g id="ytick_1">
     <g id="line2d_11">
      <defs>
       <path id="m7146c25e18" d="M 0 0 
L -3.5 0 
" style="stroke: #000000; stroke-width: 0.8"/>
      </defs>
      <g>
       <use xlink:href="#m7146c25e18" x="45.184063" y="349.884" style="stroke: #000000; stroke-width: 0.8"/>
      </g>
     </g>
     <g id="text_12">
      <!-- 0 -->
      <g transform="translate(28.640313 355.582828) scale(0.15 -0.15)">
       <use xlink:href="#DejaVuSans-30"/>
      </g>
     </g>
    </g>
    <g id="ytick_2">
     <g id="line2d_12">
      <g>
       <use xlink:href="#m7146c25e18" x="45.184063" y="280.946307" style="stroke: #000000; stroke-width: 0.8"/>
      </g>
     </g>
     <g id="text_13">
      <!-- 1 -->
      <g transform="translate(28.640313 286.645135) scale(0.15 -0.15)">
       <use xlink:href="#DejaVuSans-31"/>
      </g>
     </g>
    </g>
    <g id="ytick_3">
     <g id="line2d_13">
      <g>
       <use xlink:href="#m7146c25e18" x="45.184063" y="212.008613" style="stroke: #000000; stroke-width: 0.8"/>
      </g>
     </g>
     <g id="text_14">
      <!-- 2 -->
      <g transform="translate(28.640313 217.707441) scale(0.15 -0.15)">
       <use xlink:href="#DejaVuSans-32"/>
      </g>
     </g>
    </g>
    <g id="ytick_4">
     <g id="line2d_14">
      <g>
       <use xlink:href="#m7146c25e18" x="45.184063" y="143.07092" style="stroke: #000000; stroke-width: 0.8"/>
      </g>
     </g>
     <g id="text_15">
      <!-- 3 -->
      <g transform="translate(28.640313 148.769748) scale(0.15 -0.15)">
       <use xlink:href="#DejaVuSans-33"/>
      </g>
     </g>
    </g>
    <g id="ytick_5">
     <g id="line2d_15">
      <g>
       <use xlink:href="#m7146c25e18" x="45.184063" y="74.133226" style="stroke: #000000; stroke-width: 0.8"/>
      </g>
     </g>
     <g id="text_16">
      <!-- 4 -->
      <g transform="translate(28.640313 79.832054) scale(0.15 -0.15)">
       <use xlink:href="#DejaVuSans-34"/>
      </g>
     </g>
    </g>
    <g id="text_17">
     <!-- captopril [µM] -->
     <g transform="translate(20.877188 278.568844) rotate(-90) scale(0.18 -0.18)">
      <defs>
       <path id="DejaVuSans-Bold-63" d="M 3366 3391 
L 3366 2478 
Q 3138 2634 2908 2709 
Q 2678 2784 2431 2784 
Q 1963 2784 1702 2511 
Q 1441 2238 1441 1747 
Q 1441 1256 1702 982 
Q 1963 709 2431 709 
Q 2694 709 2930 787 
Q 3166 866 3366 1019 
L 3366 103 
Q 3103 6 2833 -42 
Q 2563 -91 2291 -91 
Q 1344 -91 809 395 
Q 275 881 275 1747 
Q 275 2613 809 3098 
Q 1344 3584 2291 3584 
Q 2566 3584 2833 3536 
Q 3100 3488 3366 3391 
z
" transform="scale(0.015625)"/>
       <path id="DejaVuSans-Bold-61" d="M 2106 1575 
Q 1756 1575 1579 1456 
Q 1403 1338 1403 1106 
Q 1403 894 1545 773 
Q 1688 653 1941 653 
Q 2256 653 2472 879 
Q 2688 1106 2688 1447 
L 2688 1575 
L 2106 1575 
z
M 3816 1997 
L 3816 0 
L 2688 0 
L 2688 519 
Q 2463 200 2181 54 
Q 1900 -91 1497 -91 
Q 953 -91 614 226 
Q 275 544 275 1050 
Q 275 1666 698 1953 
Q 1122 2241 2028 2241 
L 2688 2241 
L 2688 2328 
Q 2688 2594 2478 2717 
Q 2269 2841 1825 2841 
Q 1466 2841 1156 2769 
Q 847 2697 581 2553 
L 581 3406 
Q 941 3494 1303 3539 
Q 1666 3584 2028 3584 
Q 2975 3584 3395 3211 
Q 3816 2838 3816 1997 
z
" transform="scale(0.015625)"/>
       <path id="DejaVuSans-Bold-70" d="M 1656 506 
L 1656 -1331 
L 538 -1331 
L 538 3500 
L 1656 3500 
L 1656 2988 
Q 1888 3294 2169 3439 
Q 2450 3584 2816 3584 
Q 3463 3584 3878 3070 
Q 4294 2556 4294 1747 
Q 4294 938 3878 423 
Q 3463 -91 2816 -91 
Q 2450 -91 2169 54 
Q 1888 200 1656 506 
z
M 2400 2772 
Q 2041 2772 1848 2508 
Q 1656 2244 1656 1747 
Q 1656 1250 1848 986 
Q 2041 722 2400 722 
Q 2759 722 2948 984 
Q 3138 1247 3138 1747 
Q 3138 2247 2948 2509 
Q 2759 2772 2400 2772 
z
" transform="scale(0.015625)"/>
       <path id="DejaVuSans-Bold-6f" d="M 2203 2784 
Q 1831 2784 1636 2517 
Q 1441 2250 1441 1747 
Q 1441 1244 1636 976 
Q 1831 709 2203 709 
Q 2569 709 2762 976 
Q 2956 1244 2956 1747 
Q 2956 2250 2762 2517 
Q 2569 2784 2203 2784 
z
M 2203 3584 
Q 3106 3584 3614 3096 
Q 4122 2609 4122 1747 
Q 4122 884 3614 396 
Q 3106 -91 2203 -91 
Q 1297 -91 786 396 
Q 275 884 275 1747 
Q 275 2609 786 3096 
Q 1297 3584 2203 3584 
z
" transform="scale(0.015625)"/>
       <path id="DejaVuSans-Bold-6c" d="M 538 4863 
L 1656 4863 
L 1656 0 
L 538 0 
L 538 4863 
z
" transform="scale(0.015625)"/>
       <path id="DejaVuSans-Bold-b5" d="M 544 -1338 
L 544 3500 
L 1672 3500 
L 1672 1466 
Q 1672 1103 1828 926 
Q 1984 750 2303 750 
Q 2625 750 2781 926 
Q 2938 1103 2938 1466 
L 2938 3500 
L 4063 3500 
L 4063 1159 
Q 4063 938 4114 850 
Q 4166 763 4288 763 
Q 4344 763 4395 778 
Q 4447 794 4506 831 
L 4506 50 
Q 4341 -22 4195 -56 
Q 4050 -91 3909 -91 
Q 3631 -91 3454 26 
Q 3278 144 3169 403 
Q 3022 156 2811 32 
Q 2600 -91 2322 -91 
Q 2091 -91 1928 -17 
Q 1766 56 1672 206 
L 1672 -1338 
L 544 -1338 
z
" transform="scale(0.015625)"/>
       <path id="DejaVuSans-Bold-4d" d="M 588 4666 
L 2119 4666 
L 3181 2169 
L 4250 4666 
L 5778 4666 
L 5778 0 
L 4641 0 
L 4641 3413 
L 3566 897 
L 2803 897 
L 1728 3413 
L 1728 0 
L 588 0 
L 588 4666 
z
" transform="scale(0.015625)"/>
      </defs>
      <use xlink:href="#DejaVuSans-Bold-63"/>
      <use xlink:href="#DejaVuSans-Bold-61" transform="translate(59.277344 0)"/>
      <use xlink:href="#DejaVuSans-Bold-70" transform="translate(126.757812 0)"/>
      <use xlink:href="#DejaVuSans-Bold-74" transform="translate(198.339844 0)"/>
      <use xlink:href="#DejaVuSans-Bold-6f" transform="translate(246.142578 0)"/>
      <use xlink:href="#DejaVuSans-Bold-70" transform="translate(314.84375 0)"/>
      <use xlink:href="#DejaVuSans-Bold-72" transform="translate(386.425781 0)"/>
      <use xlink:href="#DejaVuSans-Bold-69" transform="translate(435.742188 0)"/>
      <use xlink:href="#DejaVuSans-Bold-6c" transform="translate(470.019531 0)"/>
      <use xlink:href="#DejaVuSans-Bold-20" transform="translate(504.296875 0)"/>
      <use xlink:href="#DejaVuSans-Bold-5b" transform="translate(539.111328 0)"/>
      <use xlink:href="#DejaVuSans-Bold-b5" transform="translate(584.814453 0)"/>
      <use xlink:href="#DejaVuSans-Bold-4d" transform="translate(658.398438 0)"/>
      <use xlink:href="#DejaVuSans-Bold-5d" transform="translate(757.910156 0)"/>
     </g>
    </g>
   </g>
   <g id="LineCollection_1">
    <path d="M 48.576933 120.218829 
L 48.576933 72.175298 
" clip-path="url(#pbcfe41d97e)" style="fill: none; stroke: #3c33ff"/>
    <path d="M 50.154944 153.740876 
L 50.154944 100.895506 
" clip-path="url(#pbcfe41d97e)" style="fill: none; stroke: #3c33ff"/>
    <path d="M 53.941577 204.974228 
L 53.941577 156.955837 
" clip-path="url(#pbcfe41d97e)" style="fill: none; stroke: #3c33ff"/>
    <path d="M 58.287767 260.521994 
L 58.287767 217.280302 
" clip-path="url(#pbcfe41d97e)" style="fill: none; stroke: #3c33ff"/>
    <path d="M 67.889672 311.221673 
L 67.889672 299.018464 
" clip-path="url(#pbcfe41d97e)" style="fill: none; stroke: #3c33ff"/>
    <path d="M 81.169692 328.637895 
L 81.169692 321.107725 
" clip-path="url(#pbcfe41d97e)" style="fill: none; stroke: #3c33ff"/>
    <path d="M 92.501559 333.841967 
L 92.501559 327.239949 
" clip-path="url(#pbcfe41d97e)" style="fill: none; stroke: #3c33ff"/>
    <path d="M 117.01628 343.51383 
L 117.01628 336.447736 
" clip-path="url(#pbcfe41d97e)" style="fill: none; stroke: #3c33ff"/>
    <path d="M 136.40072 346.113819 
L 136.40072 344.68969 
" clip-path="url(#pbcfe41d97e)" style="fill: none; stroke: #3c33ff"/>
    <path d="M 189.068399 347.719161 
L 189.068399 347.185565 
" clip-path="url(#pbcfe41d97e)" style="fill: none; stroke: #3c33ff"/>
    <path d="M 238.225905 348.462226 
L 238.225905 347.589069 
" clip-path="url(#pbcfe41d97e)" style="fill: none; stroke: #3c33ff"/>
    <path d="M 432.187109 349.61839 
L 432.187109 349.327253 
" clip-path="url(#pbcfe41d97e)" style="fill: none; stroke: #3c33ff"/>
   </g>
   <g id="LineCollection_2">
    <path d="M 53.047204 348.60791 
L 53.047204 345.046593 
" clip-path="url(#pbcfe41d97e)" style="fill: none; stroke: #000000"/>
    <path d="M 67.307477 334.912832 
L 67.307477 311.799188 
" clip-path="url(#pbcfe41d97e)" style="fill: none; stroke: #000000"/>
    <path d="M 79.533575 323.315535 
L 79.533575 300.211363 
" clip-path="url(#pbcfe41d97e)" style="fill: none; stroke: #000000"/>
    <path d="M 91.177477 330.277019 
L 91.177477 307.144434 
" clip-path="url(#pbcfe41d97e)" style="fill: none; stroke: #000000"/>
    <path d="M 117.00759 332.86075 
L 117.00759 326.265292 
" clip-path="url(#pbcfe41d97e)" style="fill: none; stroke: #000000"/>
    <path d="M 142.255175 339.325073 
L 142.255175 333.20681 
" clip-path="url(#pbcfe41d97e)" style="fill: none; stroke: #000000"/>
    <path d="M 185.462788 346.206784 
L 185.462788 344.924621 
" clip-path="url(#pbcfe41d97e)" style="fill: none; stroke: #000000"/>
    <path d="M 236.583553 348.007318 
L 236.583553 347.328195 
" clip-path="url(#pbcfe41d97e)" style="fill: none; stroke: #000000"/>
    <path d="M 334.952121 348.910133 
L 334.952121 348.328029 
" clip-path="url(#pbcfe41d97e)" style="fill: none; stroke: #000000"/>
    <path d="M 430.467399 349.785062 
L 430.467399 349.008837 
" clip-path="url(#pbcfe41d97e)" style="fill: none; stroke: #000000"/>
   </g>
   <g id="line2d_16">
    <path d="M 49.380986 97.396649 
L 52.528678 132.126011 
L 56.725601 190.679022 
L 60.922524 232.350764 
L 67.999618 299.504457 
L 79.045698 306.895694 
L 93.141486 312.715172 
L 139.300831 325.290523 
L 187.685872 332.02654 
L 235.386551 336.498431 
L 331.670901 343.001951 
" clip-path="url(#pbcfe41d97e)" style="fill: none; stroke-dasharray: 3.7,1.6; stroke-dashoffset: 0; stroke: #3c33ff"/>
    <defs>
     <path id="m3d6fd3884a" d="M 0 -3 
L -3 3 
L 3 3 
z
" style="stroke: #000000; stroke-linejoin: miter"/>
    </defs>
    <g clip-path="url(#pbcfe41d97e)">
     <use xlink:href="#m3d6fd3884a" x="49.380986" y="97.396649" style="fill: #3c33ff; stroke: #000000; stroke-linejoin: miter"/>
     <use xlink:href="#m3d6fd3884a" x="52.528678" y="132.126011" style="fill: #3c33ff; stroke: #000000; stroke-linejoin: miter"/>
     <use xlink:href="#m3d6fd3884a" x="56.725601" y="190.679022" style="fill: #3c33ff; stroke: #000000; stroke-linejoin: miter"/>
     <use xlink:href="#m3d6fd3884a" x="60.922524" y="232.350764" style="fill: #3c33ff; stroke: #000000; stroke-linejoin: miter"/>
     <use xlink:href="#m3d6fd3884a" x="67.999618" y="299.504457" style="fill: #3c33ff; stroke: #000000; stroke-linejoin: miter"/>
     <use xlink:href="#m3d6fd3884a" x="79.045698" y="306.895694" style="fill: #3c33ff; stroke: #000000; stroke-linejoin: miter"/>
     <use xlink:href="#m3d6fd3884a" x="93.141486" y="312.715172" style="fill: #3c33ff; stroke: #000000; stroke-linejoin: miter"/>
     <use xlink:href="#m3d6fd3884a" x="139.300831" y="325.290523" style="fill: #3c33ff; stroke: #000000; stroke-linejoin: miter"/>
     <use xlink:href="#m3d6fd3884a" x="187.685872" y="332.02654" style="fill: #3c33ff; stroke: #000000; stroke-linejoin: miter"/>
     <use xlink:href="#m3d6fd3884a" x="235.386551" y="336.498431" style="fill: #3c33ff; stroke: #000000; stroke-linejoin: miter"/>
     <use xlink:href="#m3d6fd3884a" x="331.670901" y="343.001951" style="fill: #3c33ff; stroke: #000000; stroke-linejoin: miter"/>
    </g>
   </g>
   <g id="line2d_17">
    <path d="M 45.184063 349.884 
L 48.366729 62.604 
L 51.549396 186.472515 
L 54.732063 238.616649 
L 57.914729 266.761413 
L 61.097396 285.183182 
L 64.280063 298.555984 
L 67.462729 308.70593 
L 70.645396 316.544706 
L 73.828063 322.638783 
L 77.010729 327.38905 
L 80.193396 331.096481 
L 83.376063 333.992395 
L 86.558729 336.256138 
L 89.741396 338.02721 
L 92.924063 339.414246 
L 96.106729 340.501879 
L 99.289396 341.356055 
L 102.472062 342.028163 
L 108.837396 342.977528 
L 115.202729 343.57557 
L 121.568063 343.959324 
L 131.116062 344.305964 
L 147.029396 344.598631 
L 178.856062 344.868926 
L 252.057396 345.216208 
L 372.998729 345.554481 
L 478.026729 345.746877 
L 478.026729 345.746877 
" clip-path="url(#pbcfe41d97e)" style="fill: none; stroke: #3c33ff; stroke-width: 2; stroke-linecap: square"/>
   </g>
   <g id="line2d_18">
    <path d="M 48.576933 96.197064 
L 50.154944 127.318191 
L 53.941577 180.965032 
L 58.287767 238.901148 
L 67.889672 305.120068 
L 81.169692 324.87281 
L 92.501559 330.540958 
L 117.01628 339.980783 
L 136.40072 345.401754 
L 189.068399 347.452363 
L 238.225905 348.025647 
L 432.187109 349.472821 
" clip-path="url(#pbcfe41d97e)" style="fill: none; stroke-dasharray: 3.7,1.6; stroke-dashoffset: 0; stroke: #3c33ff"/>
    <defs>
     <path id="m99b886ecd1" d="M -3 3 
L 3 3 
L 3 -3 
L -3 -3 
z
" style="stroke: #000000; stroke-linejoin: miter"/>
    </defs>
    <g clip-path="url(#pbcfe41d97e)">
     <use xlink:href="#m99b886ecd1" x="48.576933" y="96.197064" style="fill: #3c33ff; stroke: #000000; stroke-linejoin: miter"/>
     <use xlink:href="#m99b886ecd1" x="50.154944" y="127.318191" style="fill: #3c33ff; stroke: #000000; stroke-linejoin: miter"/>
     <use xlink:href="#m99b886ecd1" x="53.941577" y="180.965032" style="fill: #3c33ff; stroke: #000000; stroke-linejoin: miter"/>
     <use xlink:href="#m99b886ecd1" x="58.287767" y="238.901148" style="fill: #3c33ff; stroke: #000000; stroke-linejoin: miter"/>
     <use xlink:href="#m99b886ecd1" x="67.889672" y="305.120068" style="fill: #3c33ff; stroke: #000000; stroke-linejoin: miter"/>
     <use xlink:href="#m99b886ecd1" x="81.169692" y="324.87281" style="fill: #3c33ff; stroke: #000000; stroke-linejoin: miter"/>
     <use xlink:href="#m99b886ecd1" x="92.501559" y="330.540958" style="fill: #3c33ff; stroke: #000000; stroke-linejoin: miter"/>
     <use xlink:href="#m99b886ecd1" x="117.01628" y="339.980783" style="fill: #3c33ff; stroke: #000000; stroke-linejoin: miter"/>
     <use xlink:href="#m99b886ecd1" x="136.40072" y="345.401754" style="fill: #3c33ff; stroke: #000000; stroke-linejoin: miter"/>
     <use xlink:href="#m99b886ecd1" x="189.068399" y="347.452363" style="fill: #3c33ff; stroke: #000000; stroke-linejoin: miter"/>
     <use xlink:href="#m99b886ecd1" x="238.225905" y="348.025647" style="fill: #3c33ff; stroke: #000000; stroke-linejoin: miter"/>
     <use xlink:href="#m99b886ecd1" x="432.187109" y="349.472821" style="fill: #3c33ff; stroke: #000000; stroke-linejoin: miter"/>
    </g>
   </g>
   <g id="line2d_19">
    <path d="M 45.184063 349.884 
L 48.366729 324.004759 
L 51.549396 311.571016 
L 54.732063 305.301505 
L 57.914729 301.938048 
L 61.097396 300.269252 
L 64.280063 299.727187 
L 67.462729 299.97731 
L 70.645396 300.791351 
L 73.828063 302.002436 
L 77.010729 303.485386 
L 83.376063 306.912002 
L 99.289396 315.883325 
L 105.654729 319.143452 
L 112.020062 322.116506 
L 118.385396 324.793929 
L 124.750729 327.185547 
L 131.116062 329.310482 
L 137.481396 331.191862 
L 143.846729 332.853815 
L 150.212063 334.319827 
L 156.577396 335.61189 
L 166.125396 337.267325 
L 175.673396 338.635855 
L 185.221396 339.767654 
L 194.769396 340.70446 
L 207.500062 341.708954 
L 220.230729 342.492908 
L 236.144062 343.238404 
L 255.240062 343.883273 
L 277.518729 344.400504 
L 306.162729 344.830469 
L 344.354729 345.170906 
L 404.825396 345.457753 
L 478.026729 345.648438 
L 478.026729 345.648438 
" clip-path="url(#pbcfe41d97e)" style="fill: none; stroke: #000000; stroke-width: 2; stroke-linecap: square"/>
   </g>
   <g id="line2d_20">
    <path d="M 53.047204 346.827251 
L 67.307477 323.35601 
L 79.533575 311.763449 
L 91.177477 318.710726 
L 117.00759 329.563021 
L 142.255175 336.265942 
L 185.462788 345.565702 
L 236.583553 347.667757 
L 334.952121 348.619081 
L 430.467399 349.396949 
" clip-path="url(#pbcfe41d97e)" style="fill: none; stroke-dasharray: 3.7,1.6; stroke-dashoffset: 0; stroke: #000000"/>
    <defs>
     <path id="m0a6bcc1176" d="M -3 3 
L 3 3 
L 3 -3 
L -3 -3 
z
" style="stroke: #000000; stroke-linejoin: miter"/>
    </defs>
    <g clip-path="url(#pbcfe41d97e)">
     <use xlink:href="#m0a6bcc1176" x="53.047204" y="346.827251" style="stroke: #000000; stroke-linejoin: miter"/>
     <use xlink:href="#m0a6bcc1176" x="67.307477" y="323.35601" style="stroke: #000000; stroke-linejoin: miter"/>
     <use xlink:href="#m0a6bcc1176" x="79.533575" y="311.763449" style="stroke: #000000; stroke-linejoin: miter"/>
     <use xlink:href="#m0a6bcc1176" x="91.177477" y="318.710726" style="stroke: #000000; stroke-linejoin: miter"/>
     <use xlink:href="#m0a6bcc1176" x="117.00759" y="329.563021" style="stroke: #000000; stroke-linejoin: miter"/>
     <use xlink:href="#m0a6bcc1176" x="142.255175" y="336.265942" style="stroke: #000000; stroke-linejoin: miter"/>
     <use xlink:href="#m0a6bcc1176" x="185.462788" y="345.565702" style="stroke: #000000; stroke-linejoin: miter"/>
     <use xlink:href="#m0a6bcc1176" x="236.583553" y="347.667757" style="stroke: #000000; stroke-linejoin: miter"/>
     <use xlink:href="#m0a6bcc1176" x="334.952121" y="348.619081" style="stroke: #000000; stroke-linejoin: miter"/>
     <use xlink:href="#m0a6bcc1176" x="430.467399" y="349.396949" style="stroke: #000000; stroke-linejoin: miter"/>
    </g>
   </g>
   <g id="patch_3">
    <path d="M 45.184063 364.248 
L 45.184063 48.24 
" style="fill: none; stroke: #000000; stroke-width: 0.8; stroke-linejoin: miter; stroke-linecap: square"/>
   </g>
   <g id="patch_4">
    <path d="M 474.844062 364.248 
L 474.844062 48.24 
" style="fill: none; stroke: #000000; stroke-width: 0.8; stroke-linejoin: miter; stroke-linecap: square"/>
   </g>
   <g id="patch_5">
    <path d="M 45.184063 364.248 
L 474.844062 364.248 
" style="fill: none; stroke: #000000; stroke-width: 0.8; stroke-linejoin: miter; stroke-linecap: square"/>
   </g>
   <g id="patch_6">
    <path d="M 45.184063 48.24 
L 474.844062 48.24 
" style="fill: none; stroke: #000000; stroke-width: 0.8; stroke-linejoin: miter; stroke-linecap: square"/>
   </g>
   <g id="legend_1">
    <g id="patch_7">
     <path d="M 295.806562 129.630625 
L 467.844062 129.630625 
Q 469.844062 129.630625 469.844062 127.630625 
L 469.844062 55.24 
Q 469.844062 53.24 467.844062 53.24 
L 295.806562 53.24 
Q 293.806562 53.24 293.806562 55.24 
L 293.806562 127.630625 
Q 293.806562 129.630625 295.806562 129.630625 
z
" style="fill: #ffffff; opacity: 0.8; stroke: #cccccc; stroke-linejoin: miter"/>
    </g>
    <g id="line2d_21">
     <path d="M 297.806562 61.338437 
L 317.806562 61.338437 
" style="fill: none; stroke-dasharray: 3.7,1.6; stroke-dashoffset: 0; stroke: #3c33ff"/>
    </g>
    <g id="line2d_22">
     <g>
      <use xlink:href="#m3d6fd3884a" x="307.806562" y="61.338437" style="fill: #3c33ff; stroke: #000000; stroke-linejoin: miter"/>
     </g>
    </g>
    <g id="text_18">
     <!-- exp I1: 10mg IV (n=1) -->
     <g transform="translate(325.806562 64.838437) scale(0.1 -0.1)">
      <defs>
       <path id="DejaVuSans-65" d="M 3597 1894 
L 3597 1613 
L 953 1613 
Q 991 1019 1311 708 
Q 1631 397 2203 397 
Q 2534 397 2845 478 
Q 3156 559 3463 722 
L 3463 178 
Q 3153 47 2828 -22 
Q 2503 -91 2169 -91 
Q 1331 -91 842 396 
Q 353 884 353 1716 
Q 353 2575 817 3079 
Q 1281 3584 2069 3584 
Q 2775 3584 3186 3129 
Q 3597 2675 3597 1894 
z
M 3022 2063 
Q 3016 2534 2758 2815 
Q 2500 3097 2075 3097 
Q 1594 3097 1305 2825 
Q 1016 2553 972 2059 
L 3022 2063 
z
" transform="scale(0.015625)"/>
       <path id="DejaVuSans-78" d="M 3513 3500 
L 2247 1797 
L 3578 0 
L 2900 0 
L 1881 1375 
L 863 0 
L 184 0 
L 1544 1831 
L 300 3500 
L 978 3500 
L 1906 2253 
L 2834 3500 
L 3513 3500 
z
" transform="scale(0.015625)"/>
       <path id="DejaVuSans-70" d="M 1159 525 
L 1159 -1331 
L 581 -1331 
L 581 3500 
L 1159 3500 
L 1159 2969 
Q 1341 3281 1617 3432 
Q 1894 3584 2278 3584 
Q 2916 3584 3314 3078 
Q 3713 2572 3713 1747 
Q 3713 922 3314 415 
Q 2916 -91 2278 -91 
Q 1894 -91 1617 61 
Q 1341 213 1159 525 
z
M 3116 1747 
Q 3116 2381 2855 2742 
Q 2594 3103 2138 3103 
Q 1681 3103 1420 2742 
Q 1159 2381 1159 1747 
Q 1159 1113 1420 752 
Q 1681 391 2138 391 
Q 2594 391 2855 752 
Q 3116 1113 3116 1747 
z
" transform="scale(0.015625)"/>
       <path id="DejaVuSans-20" transform="scale(0.015625)"/>
       <path id="DejaVuSans-49" d="M 628 4666 
L 1259 4666 
L 1259 0 
L 628 0 
L 628 4666 
z
" transform="scale(0.015625)"/>
       <path id="DejaVuSans-3a" d="M 750 794 
L 1409 794 
L 1409 0 
L 750 0 
L 750 794 
z
M 750 3309 
L 1409 3309 
L 1409 2516 
L 750 2516 
L 750 3309 
z
" transform="scale(0.015625)"/>
       <path id="DejaVuSans-6d" d="M 3328 2828 
Q 3544 3216 3844 3400 
Q 4144 3584 4550 3584 
Q 5097 3584 5394 3201 
Q 5691 2819 5691 2113 
L 5691 0 
L 5113 0 
L 5113 2094 
Q 5113 2597 4934 2840 
Q 4756 3084 4391 3084 
Q 3944 3084 3684 2787 
Q 3425 2491 3425 1978 
L 3425 0 
L 2847 0 
L 2847 2094 
Q 2847 2600 2669 2842 
Q 2491 3084 2119 3084 
Q 1678 3084 1418 2786 
Q 1159 2488 1159 1978 
L 1159 0 
L 581 0 
L 581 3500 
L 1159 3500 
L 1159 2956 
Q 1356 3278 1631 3431 
Q 1906 3584 2284 3584 
Q 2666 3584 2933 3390 
Q 3200 3197 3328 2828 
z
" transform="scale(0.015625)"/>
       <path id="DejaVuSans-67" d="M 2906 1791 
Q 2906 2416 2648 2759 
Q 2391 3103 1925 3103 
Q 1463 3103 1205 2759 
Q 947 2416 947 1791 
Q 947 1169 1205 825 
Q 1463 481 1925 481 
Q 2391 481 2648 825 
Q 2906 1169 2906 1791 
z
M 3481 434 
Q 3481 -459 3084 -895 
Q 2688 -1331 1869 -1331 
Q 1566 -1331 1297 -1286 
Q 1028 -1241 775 -1147 
L 775 -588 
Q 1028 -725 1275 -790 
Q 1522 -856 1778 -856 
Q 2344 -856 2625 -561 
Q 2906 -266 2906 331 
L 2906 616 
Q 2728 306 2450 153 
Q 2172 0 1784 0 
Q 1141 0 747 490 
Q 353 981 353 1791 
Q 353 2603 747 3093 
Q 1141 3584 1784 3584 
Q 2172 3584 2450 3431 
Q 2728 3278 2906 2969 
L 2906 3500 
L 3481 3500 
L 3481 434 
z
" transform="scale(0.015625)"/>
       <path id="DejaVuSans-56" d="M 1831 0 
L 50 4666 
L 709 4666 
L 2188 738 
L 3669 4666 
L 4325 4666 
L 2547 0 
L 1831 0 
z
" transform="scale(0.015625)"/>
       <path id="DejaVuSans-28" d="M 1984 4856 
Q 1566 4138 1362 3434 
Q 1159 2731 1159 2009 
Q 1159 1288 1364 580 
Q 1569 -128 1984 -844 
L 1484 -844 
Q 1016 -109 783 600 
Q 550 1309 550 2009 
Q 550 2706 781 3412 
Q 1013 4119 1484 4856 
L 1984 4856 
z
" transform="scale(0.015625)"/>
       <path id="DejaVuSans-6e" d="M 3513 2113 
L 3513 0 
L 2938 0 
L 2938 2094 
Q 2938 2591 2744 2837 
Q 2550 3084 2163 3084 
Q 1697 3084 1428 2787 
Q 1159 2491 1159 1978 
L 1159 0 
L 581 0 
L 581 3500 
L 1159 3500 
L 1159 2956 
Q 1366 3272 1645 3428 
Q 1925 3584 2291 3584 
Q 2894 3584 3203 3211 
Q 3513 2838 3513 2113 
z
" transform="scale(0.015625)"/>
       <path id="DejaVuSans-3d" d="M 678 2906 
L 4684 2906 
L 4684 2381 
L 678 2381 
L 678 2906 
z
M 678 1631 
L 4684 1631 
L 4684 1100 
L 678 1100 
L 678 1631 
z
" transform="scale(0.015625)"/>
       <path id="DejaVuSans-29" d="M 513 4856 
L 1013 4856 
Q 1481 4119 1714 3412 
Q 1947 2706 1947 2009 
Q 1947 1309 1714 600 
Q 1481 -109 1013 -844 
L 513 -844 
Q 928 -128 1133 580 
Q 1338 1288 1338 2009 
Q 1338 2731 1133 3434 
Q 928 4138 513 4856 
z
" transform="scale(0.015625)"/>
      </defs>
      <use xlink:href="#DejaVuSans-65"/>
      <use xlink:href="#DejaVuSans-78" transform="translate(59.773438 0)"/>
      <use xlink:href="#DejaVuSans-70" transform="translate(118.953125 0)"/>
      <use xlink:href="#DejaVuSans-20" transform="translate(182.429688 0)"/>
      <use xlink:href="#DejaVuSans-49" transform="translate(214.216797 0)"/>
      <use xlink:href="#DejaVuSans-31" transform="translate(243.708984 0)"/>
      <use xlink:href="#DejaVuSans-3a" transform="translate(307.332031 0)"/>
      <use xlink:href="#DejaVuSans-20" transform="translate(341.023438 0)"/>
      <use xlink:href="#DejaVuSans-31" transform="translate(372.810547 0)"/>
      <use xlink:href="#DejaVuSans-30" transform="translate(436.433594 0)"/>
      <use xlink:href="#DejaVuSans-6d" transform="translate(500.056641 0)"/>
      <use xlink:href="#DejaVuSans-67" transform="translate(597.46875 0)"/>
      <use xlink:href="#DejaVuSans-20" transform="translate(660.945312 0)"/>
      <use xlink:href="#DejaVuSans-49" transform="translate(692.732422 0)"/>
      <use xlink:href="#DejaVuSans-56" transform="translate(722.224609 0)"/>
      <use xlink:href="#DejaVuSans-20" transform="translate(790.632812 0)"/>
      <use xlink:href="#DejaVuSans-28" transform="translate(822.419922 0)"/>
      <use xlink:href="#DejaVuSans-6e" transform="translate(861.433594 0)"/>
      <use xlink:href="#DejaVuSans-3d" transform="translate(924.8125 0)"/>
      <use xlink:href="#DejaVuSans-31" transform="translate(1008.601562 0)"/>
      <use xlink:href="#DejaVuSans-29" transform="translate(1072.224609 0)"/>
     </g>
    </g>
    <g id="line2d_23">
     <path d="M 297.806562 76.016562 
L 317.806562 76.016562 
" style="fill: none; stroke: #3c33ff; stroke-width: 2; stroke-linecap: square"/>
    </g>
    <g id="line2d_24"/>
    <g id="text_19">
     <!-- sim all: 10mg IV -->
     <g transform="translate(325.806562 79.516562) scale(0.1 -0.1)">
      <defs>
       <path id="DejaVuSans-73" d="M 2834 3397 
L 2834 2853 
Q 2591 2978 2328 3040 
Q 2066 3103 1784 3103 
Q 1356 3103 1142 2972 
Q 928 2841 928 2578 
Q 928 2378 1081 2264 
Q 1234 2150 1697 2047 
L 1894 2003 
Q 2506 1872 2764 1633 
Q 3022 1394 3022 966 
Q 3022 478 2636 193 
Q 2250 -91 1575 -91 
Q 1294 -91 989 -36 
Q 684 19 347 128 
L 347 722 
Q 666 556 975 473 
Q 1284 391 1588 391 
Q 1994 391 2212 530 
Q 2431 669 2431 922 
Q 2431 1156 2273 1281 
Q 2116 1406 1581 1522 
L 1381 1569 
Q 847 1681 609 1914 
Q 372 2147 372 2553 
Q 372 3047 722 3315 
Q 1072 3584 1716 3584 
Q 2034 3584 2315 3537 
Q 2597 3491 2834 3397 
z
" transform="scale(0.015625)"/>
       <path id="DejaVuSans-69" d="M 603 3500 
L 1178 3500 
L 1178 0 
L 603 0 
L 603 3500 
z
M 603 4863 
L 1178 4863 
L 1178 4134 
L 603 4134 
L 603 4863 
z
" transform="scale(0.015625)"/>
       <path id="DejaVuSans-61" d="M 2194 1759 
Q 1497 1759 1228 1600 
Q 959 1441 959 1056 
Q 959 750 1161 570 
Q 1363 391 1709 391 
Q 2188 391 2477 730 
Q 2766 1069 2766 1631 
L 2766 1759 
L 2194 1759 
z
M 3341 1997 
L 3341 0 
L 2766 0 
L 2766 531 
Q 2569 213 2275 61 
Q 1981 -91 1556 -91 
Q 1019 -91 701 211 
Q 384 513 384 1019 
Q 384 1609 779 1909 
Q 1175 2209 1959 2209 
L 2766 2209 
L 2766 2266 
Q 2766 2663 2505 2880 
Q 2244 3097 1772 3097 
Q 1472 3097 1187 3025 
Q 903 2953 641 2809 
L 641 3341 
Q 956 3463 1253 3523 
Q 1550 3584 1831 3584 
Q 2591 3584 2966 3190 
Q 3341 2797 3341 1997 
z
" transform="scale(0.015625)"/>
       <path id="DejaVuSans-6c" d="M 603 4863 
L 1178 4863 
L 1178 0 
L 603 0 
L 603 4863 
z
" transform="scale(0.015625)"/>
      </defs>
      <use xlink:href="#DejaVuSans-73"/>
      <use xlink:href="#DejaVuSans-69" transform="translate(52.099609 0)"/>
      <use xlink:href="#DejaVuSans-6d" transform="translate(79.882812 0)"/>
      <use xlink:href="#DejaVuSans-20" transform="translate(177.294922 0)"/>
      <use xlink:href="#DejaVuSans-61" transform="translate(209.082031 0)"/>
      <use xlink:href="#DejaVuSans-6c" transform="translate(270.361328 0)"/>
      <use xlink:href="#DejaVuSans-6c" transform="translate(298.144531 0)"/>
      <use xlink:href="#DejaVuSans-3a" transform="translate(325.927734 0)"/>
      <use xlink:href="#DejaVuSans-20" transform="translate(359.619141 0)"/>
      <use xlink:href="#DejaVuSans-31" transform="translate(391.40625 0)"/>
      <use xlink:href="#DejaVuSans-30" transform="translate(455.029297 0)"/>
      <use xlink:href="#DejaVuSans-6d" transform="translate(518.652344 0)"/>
      <use xlink:href="#DejaVuSans-67" transform="translate(616.064453 0)"/>
      <use xlink:href="#DejaVuSans-20" transform="translate(679.541016 0)"/>
      <use xlink:href="#DejaVuSans-49" transform="translate(711.328125 0)"/>
      <use xlink:href="#DejaVuSans-56" transform="translate(740.820312 0)"/>
     </g>
    </g>
    <g id="LineCollection_3">
     <path d="M 307.806562 95.694687 
L 307.806562 85.694687 
" style="fill: none; stroke: #3c33ff"/>
    </g>
    <g id="line2d_25">
     <path d="M 297.806562 90.694687 
L 317.806562 90.694687 
" style="fill: none; stroke-dasharray: 3.7,1.6; stroke-dashoffset: 0; stroke: #3c33ff"/>
    </g>
    <g id="line2d_26">
     <g>
      <use xlink:href="#m99b886ecd1" x="307.806562" y="90.694687" style="fill: #3c33ff; stroke: #000000; stroke-linejoin: miter"/>
     </g>
    </g>
    <g id="text_20">
     <!-- exp all: 10mg IV±SD (n=5) -->
     <g transform="translate(325.806562 94.194687) scale(0.1 -0.1)">
      <defs>
       <path id="DejaVuSans-b1" d="M 2944 4013 
L 2944 2803 
L 4684 2803 
L 4684 2272 
L 2944 2272 
L 2944 1063 
L 2419 1063 
L 2419 2272 
L 678 2272 
L 678 2803 
L 2419 2803 
L 2419 4013 
L 2944 4013 
z
M 678 531 
L 4684 531 
L 4684 0 
L 678 0 
L 678 531 
z
" transform="scale(0.015625)"/>
       <path id="DejaVuSans-53" d="M 3425 4513 
L 3425 3897 
Q 3066 4069 2747 4153 
Q 2428 4238 2131 4238 
Q 1616 4238 1336 4038 
Q 1056 3838 1056 3469 
Q 1056 3159 1242 3001 
Q 1428 2844 1947 2747 
L 2328 2669 
Q 3034 2534 3370 2195 
Q 3706 1856 3706 1288 
Q 3706 609 3251 259 
Q 2797 -91 1919 -91 
Q 1588 -91 1214 -16 
Q 841 59 441 206 
L 441 856 
Q 825 641 1194 531 
Q 1563 422 1919 422 
Q 2459 422 2753 634 
Q 3047 847 3047 1241 
Q 3047 1584 2836 1778 
Q 2625 1972 2144 2069 
L 1759 2144 
Q 1053 2284 737 2584 
Q 422 2884 422 3419 
Q 422 4038 858 4394 
Q 1294 4750 2059 4750 
Q 2388 4750 2728 4690 
Q 3069 4631 3425 4513 
z
" transform="scale(0.015625)"/>
       <path id="DejaVuSans-44" d="M 1259 4147 
L 1259 519 
L 2022 519 
Q 2988 519 3436 956 
Q 3884 1394 3884 2338 
Q 3884 3275 3436 3711 
Q 2988 4147 2022 4147 
L 1259 4147 
z
M 628 4666 
L 1925 4666 
Q 3281 4666 3915 4102 
Q 4550 3538 4550 2338 
Q 4550 1131 3912 565 
Q 3275 0 1925 0 
L 628 0 
L 628 4666 
z
" transform="scale(0.015625)"/>
      </defs>
      <use xlink:href="#DejaVuSans-65"/>
      <use xlink:href="#DejaVuSans-78" transform="translate(59.773438 0)"/>
      <use xlink:href="#DejaVuSans-70" transform="translate(118.953125 0)"/>
      <use xlink:href="#DejaVuSans-20" transform="translate(182.429688 0)"/>
      <use xlink:href="#DejaVuSans-61" transform="translate(214.216797 0)"/>
      <use xlink:href="#DejaVuSans-6c" transform="translate(275.496094 0)"/>
      <use xlink:href="#DejaVuSans-6c" transform="translate(303.279297 0)"/>
      <use xlink:href="#DejaVuSans-3a" transform="translate(331.0625 0)"/>
      <use xlink:href="#DejaVuSans-20" transform="translate(364.753906 0)"/>
      <use xlink:href="#DejaVuSans-31" transform="translate(396.541016 0)"/>
      <use xlink:href="#DejaVuSans-30" transform="translate(460.164062 0)"/>
      <use xlink:href="#DejaVuSans-6d" transform="translate(523.787109 0)"/>
      <use xlink:href="#DejaVuSans-67" transform="translate(621.199219 0)"/>
      <use xlink:href="#DejaVuSans-20" transform="translate(684.675781 0)"/>
      <use xlink:href="#DejaVuSans-49" transform="translate(716.462891 0)"/>
      <use xlink:href="#DejaVuSans-56" transform="translate(745.955078 0)"/>
      <use xlink:href="#DejaVuSans-b1" transform="translate(814.363281 0)"/>
      <use xlink:href="#DejaVuSans-53" transform="translate(898.152344 0)"/>
      <use xlink:href="#DejaVuSans-44" transform="translate(961.628906 0)"/>
      <use xlink:href="#DejaVuSans-20" transform="translate(1038.630859 0)"/>
      <use xlink:href="#DejaVuSans-28" transform="translate(1070.417969 0)"/>
      <use xlink:href="#DejaVuSans-6e" transform="translate(1109.431641 0)"/>
      <use xlink:href="#DejaVuSans-3d" transform="translate(1172.810547 0)"/>
      <use xlink:href="#DejaVuSans-35" transform="translate(1256.599609 0)"/>
      <use xlink:href="#DejaVuSans-29" transform="translate(1320.222656 0)"/>
     </g>
    </g>
    <g id="line2d_27">
     <path d="M 297.806562 105.372812 
L 317.806562 105.372812 
" style="fill: none; stroke: #000000; stroke-width: 2; stroke-linecap: square"/>
    </g>
    <g id="line2d_28"/>
    <g id="text_21">
     <!-- sim all: 10mg PO -->
     <g transform="translate(325.806562 108.872812) scale(0.1 -0.1)">
      <defs>
       <path id="DejaVuSans-50" d="M 1259 4147 
L 1259 2394 
L 2053 2394 
Q 2494 2394 2734 2622 
Q 2975 2850 2975 3272 
Q 2975 3691 2734 3919 
Q 2494 4147 2053 4147 
L 1259 4147 
z
M 628 4666 
L 2053 4666 
Q 2838 4666 3239 4311 
Q 3641 3956 3641 3272 
Q 3641 2581 3239 2228 
Q 2838 1875 2053 1875 
L 1259 1875 
L 1259 0 
L 628 0 
L 628 4666 
z
" transform="scale(0.015625)"/>
       <path id="DejaVuSans-4f" d="M 2522 4238 
Q 1834 4238 1429 3725 
Q 1025 3213 1025 2328 
Q 1025 1447 1429 934 
Q 1834 422 2522 422 
Q 3209 422 3611 934 
Q 4013 1447 4013 2328 
Q 4013 3213 3611 3725 
Q 3209 4238 2522 4238 
z
M 2522 4750 
Q 3503 4750 4090 4092 
Q 4678 3434 4678 2328 
Q 4678 1225 4090 567 
Q 3503 -91 2522 -91 
Q 1538 -91 948 565 
Q 359 1222 359 2328 
Q 359 3434 948 4092 
Q 1538 4750 2522 4750 
z
" transform="scale(0.015625)"/>
      </defs>
      <use xlink:href="#DejaVuSans-73"/>
      <use xlink:href="#DejaVuSans-69" transform="translate(52.099609 0)"/>
      <use xlink:href="#DejaVuSans-6d" transform="translate(79.882812 0)"/>
      <use xlink:href="#DejaVuSans-20" transform="translate(177.294922 0)"/>
      <use xlink:href="#DejaVuSans-61" transform="translate(209.082031 0)"/>
      <use xlink:href="#DejaVuSans-6c" transform="translate(270.361328 0)"/>
      <use xlink:href="#DejaVuSans-6c" transform="translate(298.144531 0)"/>
      <use xlink:href="#DejaVuSans-3a" transform="translate(325.927734 0)"/>
      <use xlink:href="#DejaVuSans-20" transform="translate(359.619141 0)"/>
      <use xlink:href="#DejaVuSans-31" transform="translate(391.40625 0)"/>
      <use xlink:href="#DejaVuSans-30" transform="translate(455.029297 0)"/>
      <use xlink:href="#DejaVuSans-6d" transform="translate(518.652344 0)"/>
      <use xlink:href="#DejaVuSans-67" transform="translate(616.064453 0)"/>
      <use xlink:href="#DejaVuSans-20" transform="translate(679.541016 0)"/>
      <use xlink:href="#DejaVuSans-50" transform="translate(711.328125 0)"/>
      <use xlink:href="#DejaVuSans-4f" transform="translate(771.630859 0)"/>
     </g>
    </g>
    <g id="LineCollection_4">
     <path d="M 307.806562 125.050937 
L 307.806562 115.050937 
" style="fill: none; stroke: #000000"/>
    </g>
    <g id="line2d_29">
     <path d="M 297.806562 120.050937 
L 317.806562 120.050937 
" style="fill: none; stroke-dasharray: 3.7,1.6; stroke-dashoffset: 0; stroke: #000000"/>
    </g>
    <g id="line2d_30">
     <g>
      <use xlink:href="#m0a6bcc1176" x="307.806562" y="120.050937" style="stroke: #000000; stroke-linejoin: miter"/>
     </g>
    </g>
    <g id="text_22">
     <!-- exp all: 10mg PO±SD (n=5) -->
     <g transform="translate(325.806562 123.550937) scale(0.1 -0.1)">
      <use xlink:href="#DejaVuSans-65"/>
      <use xlink:href="#DejaVuSans-78" transform="translate(59.773438 0)"/>
      <use xlink:href="#DejaVuSans-70" transform="translate(118.953125 0)"/>
      <use xlink:href="#DejaVuSans-20" transform="translate(182.429688 0)"/>
      <use xlink:href="#DejaVuSans-61" transform="translate(214.216797 0)"/>
      <use xlink:href="#DejaVuSans-6c" transform="translate(275.496094 0)"/>
      <use xlink:href="#DejaVuSans-6c" transform="translate(303.279297 0)"/>
      <use xlink:href="#DejaVuSans-3a" transform="translate(331.0625 0)"/>
      <use xlink:href="#DejaVuSans-20" transform="translate(364.753906 0)"/>
      <use xlink:href="#DejaVuSans-31" transform="translate(396.541016 0)"/>
      <use xlink:href="#DejaVuSans-30" transform="translate(460.164062 0)"/>
      <use xlink:href="#DejaVuSans-6d" transform="translate(523.787109 0)"/>
      <use xlink:href="#DejaVuSans-67" transform="translate(621.199219 0)"/>
      <use xlink:href="#DejaVuSans-20" transform="translate(684.675781 0)"/>
      <use xlink:href="#DejaVuSans-50" transform="translate(716.462891 0)"/>
      <use xlink:href="#DejaVuSans-4f" transform="translate(776.765625 0)"/>
      <use xlink:href="#DejaVuSans-b1" transform="translate(855.476562 0)"/>
      <use xlink:href="#DejaVuSans-53" transform="translate(939.265625 0)"/>
      <use xlink:href="#DejaVuSans-44" transform="translate(1002.742188 0)"/>
      <use xlink:href="#DejaVuSans-20" transform="translate(1079.744141 0)"/>
      <use xlink:href="#DejaVuSans-28" transform="translate(1111.53125 0)"/>
      <use xlink:href="#DejaVuSans-6e" transform="translate(1150.544922 0)"/>
      <use xlink:href="#DejaVuSans-3d" transform="translate(1213.923828 0)"/>
      <use xlink:href="#DejaVuSans-35" transform="translate(1297.712891 0)"/>
      <use xlink:href="#DejaVuSans-29" transform="translate(1361.335938 0)"/>
     </g>
    </g>
   </g>
  </g>
  <g id="text_23">
   <!-- Duchin1982 -->
   <g transform="translate(169.527422 26.196094) scale(0.25 -0.25)">
    <defs>
     <path id="DejaVuSans-Bold-44" d="M 1791 3756 
L 1791 909 
L 2222 909 
Q 2959 909 3348 1275 
Q 3738 1641 3738 2338 
Q 3738 3031 3350 3393 
Q 2963 3756 2222 3756 
L 1791 3756 
z
M 588 4666 
L 1856 4666 
Q 2919 4666 3439 4514 
Q 3959 4363 4331 4000 
Q 4659 3684 4818 3271 
Q 4978 2859 4978 2338 
Q 4978 1809 4818 1395 
Q 4659 981 4331 666 
Q 3956 303 3431 151 
Q 2906 0 1856 0 
L 588 0 
L 588 4666 
z
" transform="scale(0.015625)"/>
     <path id="DejaVuSans-Bold-75" d="M 500 1363 
L 500 3500 
L 1625 3500 
L 1625 3150 
Q 1625 2866 1622 2436 
Q 1619 2006 1619 1863 
Q 1619 1441 1641 1255 
Q 1663 1069 1716 984 
Q 1784 875 1895 815 
Q 2006 756 2150 756 
Q 2500 756 2700 1025 
Q 2900 1294 2900 1772 
L 2900 3500 
L 4019 3500 
L 4019 0 
L 2900 0 
L 2900 506 
Q 2647 200 2364 54 
Q 2081 -91 1741 -91 
Q 1134 -91 817 281 
Q 500 653 500 1363 
z
" transform="scale(0.015625)"/>
     <path id="DejaVuSans-Bold-6e" d="M 4056 2131 
L 4056 0 
L 2931 0 
L 2931 347 
L 2931 1631 
Q 2931 2084 2911 2256 
Q 2891 2428 2841 2509 
Q 2775 2619 2662 2680 
Q 2550 2741 2406 2741 
Q 2056 2741 1856 2470 
Q 1656 2200 1656 1722 
L 1656 0 
L 538 0 
L 538 3500 
L 1656 3500 
L 1656 2988 
Q 1909 3294 2193 3439 
Q 2478 3584 2822 3584 
Q 3428 3584 3742 3212 
Q 4056 2841 4056 2131 
z
" transform="scale(0.015625)"/>
     <path id="DejaVuSans-Bold-31" d="M 750 831 
L 1813 831 
L 1813 3847 
L 722 3622 
L 722 4441 
L 1806 4666 
L 2950 4666 
L 2950 831 
L 4013 831 
L 4013 0 
L 750 0 
L 750 831 
z
" transform="scale(0.015625)"/>
     <path id="DejaVuSans-Bold-39" d="M 641 103 
L 641 966 
Q 928 831 1190 764 
Q 1453 697 1709 697 
Q 2247 697 2547 995 
Q 2847 1294 2900 1881 
Q 2688 1725 2447 1647 
Q 2206 1569 1925 1569 
Q 1209 1569 770 1986 
Q 331 2403 331 3084 
Q 331 3838 820 4291 
Q 1309 4744 2131 4744 
Q 3044 4744 3544 4128 
Q 4044 3513 4044 2388 
Q 4044 1231 3459 570 
Q 2875 -91 1856 -91 
Q 1528 -91 1228 -42 
Q 928 6 641 103 
z
M 2125 2350 
Q 2441 2350 2600 2554 
Q 2759 2759 2759 3169 
Q 2759 3575 2600 3781 
Q 2441 3988 2125 3988 
Q 1809 3988 1650 3781 
Q 1491 3575 1491 3169 
Q 1491 2759 1650 2554 
Q 1809 2350 2125 2350 
z
" transform="scale(0.015625)"/>
     <path id="DejaVuSans-Bold-38" d="M 2228 2088 
Q 1891 2088 1709 1903 
Q 1528 1719 1528 1375 
Q 1528 1031 1709 848 
Q 1891 666 2228 666 
Q 2563 666 2741 848 
Q 2919 1031 2919 1375 
Q 2919 1722 2741 1905 
Q 2563 2088 2228 2088 
z
M 1350 2484 
Q 925 2613 709 2878 
Q 494 3144 494 3541 
Q 494 4131 934 4440 
Q 1375 4750 2228 4750 
Q 3075 4750 3515 4442 
Q 3956 4134 3956 3541 
Q 3956 3144 3739 2878 
Q 3522 2613 3097 2484 
Q 3572 2353 3814 2058 
Q 4056 1763 4056 1313 
Q 4056 619 3595 264 
Q 3134 -91 2228 -91 
Q 1319 -91 855 264 
Q 391 619 391 1313 
Q 391 1763 633 2058 
Q 875 2353 1350 2484 
z
M 1631 3419 
Q 1631 3141 1786 2991 
Q 1941 2841 2228 2841 
Q 2509 2841 2662 2991 
Q 2816 3141 2816 3419 
Q 2816 3697 2662 3845 
Q 2509 3994 2228 3994 
Q 1941 3994 1786 3844 
Q 1631 3694 1631 3419 
z
" transform="scale(0.015625)"/>
     <path id="DejaVuSans-Bold-32" d="M 1844 884 
L 3897 884 
L 3897 0 
L 506 0 
L 506 884 
L 2209 2388 
Q 2438 2594 2547 2791 
Q 2656 2988 2656 3200 
Q 2656 3528 2436 3728 
Q 2216 3928 1850 3928 
Q 1569 3928 1234 3808 
Q 900 3688 519 3450 
L 519 4475 
Q 925 4609 1322 4679 
Q 1719 4750 2100 4750 
Q 2938 4750 3402 4381 
Q 3866 4013 3866 3353 
Q 3866 2972 3669 2642 
Q 3472 2313 2841 1759 
L 1844 884 
z
" transform="scale(0.015625)"/>
    </defs>
    <use xlink:href="#DejaVuSans-Bold-44"/>
    <use xlink:href="#DejaVuSans-Bold-75" transform="translate(83.007812 0)"/>
    <use xlink:href="#DejaVuSans-Bold-63" transform="translate(154.199219 0)"/>
    <use xlink:href="#DejaVuSans-Bold-68" transform="translate(213.476562 0)"/>
    <use xlink:href="#DejaVuSans-Bold-69" transform="translate(284.667969 0)"/>
    <use xlink:href="#DejaVuSans-Bold-6e" transform="translate(318.945312 0)"/>
    <use xlink:href="#DejaVuSans-Bold-31" transform="translate(390.136719 0)"/>
    <use xlink:href="#DejaVuSans-Bold-39" transform="translate(459.716797 0)"/>
    <use xlink:href="#DejaVuSans-Bold-38" transform="translate(529.296875 0)"/>
    <use xlink:href="#DejaVuSans-Bold-32" transform="translate(598.876953 0)"/>
   </g>
  </g>
 </g>
 <defs>
  <clipPath id="pbcfe41d97e">
   <rect x="45.184063" y="48.24" width="429.66" height="316.008"/>
  </clipPath>
 </defs>
</svg>
