<?xml version="1.0" encoding="utf-8" standalone="no"?>
<!DOCTYPE svg PUBLIC "-//W3C//DTD SVG 1.1//EN"
  "http://www.w3.org/Graphics/SVG/1.1/DTD/svg11.dtd">
<svg xmlns:xlink="http://www.w3.org/1999/xlink" width="482.044062pt" height="414.385812pt" viewBox="0 0 482.044062 414.385812" xmlns="http://www.w3.org/2000/svg" version="1.1">
 <metadata>
  <rdf:RDF xmlns:dc="http://purl.org/dc/elements/1.1/" xmlns:cc="http://creativecommons.org/ns#" xmlns:rdf="http://www.w3.org/1999/02/22-rdf-syntax-ns#">
   <cc:Work>
    <dc:type rdf:resource="http://purl.org/dc/dcmitype/StillImage"/>
    <dc:date>2025-09-10T13:16:39.033306</dc:date>
    <dc:format>image/svg+xml</dc:format>
    <dc:creator>
     <cc:Agent>
      <dc:title>Matplotlib v3.10.6, https://matplotlib.org/</dc:title>
     </cc:Agent>
    </dc:creator>
   </cc:Work>
  </rdf:RDF>
 </metadata>
 <defs>
  <style type="text/css">*{stroke-linejoin: round; stroke-linecap: butt}</style>
 </defs>
 <g id="figure_1">
  <g id="patch_1">
   <path d="M 0 414.385812 
L 482.044062 414.385812 
L 482.044062 -0 
L 0 -0 
z
" style="fill: #ffffff"/>
  </g>
  <g id="axes_1">
   <g id="patch_2">
    <path d="M 45.184063 364.248 
L 474.844062 364.248 
L 474.844062 48.24 
L 45.184063 48.24 
z
" style="fill: #ffffff"/>
   </g>
   <g id="matplotlib.axis_1">
    <g id="xtick_1">
     <g id="line2d_1">
      <defs>
       <path id="m00cf524e10" d="M 0 0 
L 0 3.5 
" style="stroke: #000000; stroke-width: 0.8"/>
      </defs>
      <g>
       <use xlink:href="#m00cf524e10" x="64.714063" y="364.248" style="stroke: #000000; stroke-width: 0.8"/>
      </g>
     </g>
     <g id="text_1">
      <!-- 0 -->
      <g transform="translate(59.942188 382.645656) scale(0.15 -0.15)">
       <defs>
        <path id="DejaVuSans-30" d="M 2034 4250 
Q 1547 4250 1301 3770 
Q 1056 3291 1056 2328 
Q 1056 1369 1301 889 
Q 1547 409 2034 409 
Q 2525 409 2770 889 
Q 3016 1369 3016 2328 
Q 3016 3291 2770 3770 
Q 2525 4250 2034 4250 
z
M 2034 4750 
Q 2819 4750 3233 4129 
Q 3647 3509 3647 2328 
Q 3647 1150 3233 529 
Q 2819 -91 2034 -91 
Q 1250 -91 836 529 
Q 422 1150 422 2328 
Q 422 3509 836 4129 
Q 1250 4750 2034 4750 
z
" transform="scale(0.015625)"/>
       </defs>
       <use xlink:href="#DejaVuSans-30"/>
      </g>
     </g>
    </g>
    <g id="xtick_2">
     <g id="line2d_2">
      <g>
       <use xlink:href="#m00cf524e10" x="142.834063" y="364.248" style="stroke: #000000; stroke-width: 0.8"/>
      </g>
     </g>
     <g id="text_2">
      <!-- 2 -->
      <g transform="translate(138.062188 382.645656) scale(0.15 -0.15)">
       <defs>
        <path id="DejaVuSans-32" d="M 1228 531 
L 3431 531 
L 3431 0 
L 469 0 
L 469 531 
Q 828 903 1448 1529 
Q 2069 2156 2228 2338 
Q 2531 2678 2651 2914 
Q 2772 3150 2772 3378 
Q 2772 3750 2511 3984 
Q 2250 4219 1831 4219 
Q 1534 4219 1204 4116 
Q 875 4013 500 3803 
L 500 4441 
Q 881 4594 1212 4672 
Q 1544 4750 1819 4750 
Q 2544 4750 2975 4387 
Q 3406 4025 3406 3419 
Q 3406 3131 3298 2873 
Q 3191 2616 2906 2266 
Q 2828 2175 2409 1742 
Q 1991 1309 1228 531 
z
" transform="scale(0.015625)"/>
       </defs>
       <use xlink:href="#DejaVuSans-32"/>
      </g>
     </g>
    </g>
    <g id="xtick_3">
     <g id="line2d_3">
      <g>
       <use xlink:href="#m00cf524e10" x="220.954062" y="364.248" style="stroke: #000000; stroke-width: 0.8"/>
      </g>
     </g>
     <g id="text_3">
      <!-- 4 -->
      <g transform="translate(216.182187 382.645656) scale(0.15 -0.15)">
       <defs>
        <path id="DejaVuSans-34" d="M 2419 4116 
L 825 1625 
L 2419 1625 
L 2419 4116 
z
M 2253 4666 
L 3047 4666 
L 3047 1625 
L 3713 1625 
L 3713 1100 
L 3047 1100 
L 3047 0 
L 2419 0 
L 2419 1100 
L 313 1100 
L 313 1709 
L 2253 4666 
z
" transform="scale(0.015625)"/>
       </defs>
       <use xlink:href="#DejaVuSans-34"/>
      </g>
     </g>
    </g>
    <g id="xtick_4">
     <g id="line2d_4">
      <g>
       <use xlink:href="#m00cf524e10" x="299.074062" y="364.248" style="stroke: #000000; stroke-width: 0.8"/>
      </g>
     </g>
     <g id="text_4">
      <!-- 6 -->
      <g transform="translate(294.302187 382.645656) scale(0.15 -0.15)">
       <defs>
        <path id="DejaVuSans-36" d="M 2113 2584 
Q 1688 2584 1439 2293 
Q 1191 2003 1191 1497 
Q 1191 994 1439 701 
Q 1688 409 2113 409 
Q 2538 409 2786 701 
Q 3034 994 3034 1497 
Q 3034 2003 2786 2293 
Q 2538 2584 2113 2584 
z
M 3366 4563 
L 3366 3988 
Q 3128 4100 2886 4159 
Q 2644 4219 2406 4219 
Q 1781 4219 1451 3797 
Q 1122 3375 1075 2522 
Q 1259 2794 1537 2939 
Q 1816 3084 2150 3084 
Q 2853 3084 3261 2657 
Q 3669 2231 3669 1497 
Q 3669 778 3244 343 
Q 2819 -91 2113 -91 
Q 1303 -91 875 529 
Q 447 1150 447 2328 
Q 447 3434 972 4092 
Q 1497 4750 2381 4750 
Q 2619 4750 2861 4703 
Q 3103 4656 3366 4563 
z
" transform="scale(0.015625)"/>
       </defs>
       <use xlink:href="#DejaVuSans-36"/>
      </g>
     </g>
    </g>
    <g id="xtick_5">
     <g id="line2d_5">
      <g>
       <use xlink:href="#m00cf524e10" x="377.194062" y="364.248" style="stroke: #000000; stroke-width: 0.8"/>
      </g>
     </g>
     <g id="text_5">
      <!-- 8 -->
      <g transform="translate(372.422187 382.645656) scale(0.15 -0.15)">
       <defs>
        <path id="DejaVuSans-38" d="M 2034 2216 
Q 1584 2216 1326 1975 
Q 1069 1734 1069 1313 
Q 1069 891 1326 650 
Q 1584 409 2034 409 
Q 2484 409 2743 651 
Q 3003 894 3003 1313 
Q 3003 1734 2745 1975 
Q 2488 2216 2034 2216 
z
M 1403 2484 
Q 997 2584 770 2862 
Q 544 3141 544 3541 
Q 544 4100 942 4425 
Q 1341 4750 2034 4750 
Q 2731 4750 3128 4425 
Q 3525 4100 3525 3541 
Q 3525 3141 3298 2862 
Q 3072 2584 2669 2484 
Q 3125 2378 3379 2068 
Q 3634 1759 3634 1313 
Q 3634 634 3220 271 
Q 2806 -91 2034 -91 
Q 1263 -91 848 271 
Q 434 634 434 1313 
Q 434 1759 690 2068 
Q 947 2378 1403 2484 
z
M 1172 3481 
Q 1172 3119 1398 2916 
Q 1625 2713 2034 2713 
Q 2441 2713 2670 2916 
Q 2900 3119 2900 3481 
Q 2900 3844 2670 4047 
Q 2441 4250 2034 4250 
Q 1625 4250 1398 4047 
Q 1172 3844 1172 3481 
z
" transform="scale(0.015625)"/>
       </defs>
       <use xlink:href="#DejaVuSans-38"/>
      </g>
     </g>
    </g>
    <g id="xtick_6">
     <g id="line2d_6">
      <g>
       <use xlink:href="#m00cf524e10" x="455.314062" y="364.248" style="stroke: #000000; stroke-width: 0.8"/>
      </g>
     </g>
     <g id="text_6">
      <!-- 10 -->
      <g transform="translate(445.770312 382.645656) scale(0.15 -0.15)">
       <defs>
        <path id="DejaVuSans-31" d="M 794 531 
L 1825 531 
L 1825 4091 
L 703 3866 
L 703 4441 
L 1819 4666 
L 2450 4666 
L 2450 531 
L 3481 531 
L 3481 0 
L 794 0 
L 794 531 
z
" transform="scale(0.015625)"/>
       </defs>
       <use xlink:href="#DejaVuSans-31"/>
       <use xlink:href="#DejaVuSans-30" transform="translate(63.623047 0)"/>
      </g>
     </g>
    </g>
    <g id="text_7">
     <!-- time [hr] -->
     <g transform="translate(214.939531 403.442375) scale(0.18 -0.18)">
      <defs>
       <path id="DejaVuSans-Bold-74" d="M 1759 4494 
L 1759 3500 
L 2913 3500 
L 2913 2700 
L 1759 2700 
L 1759 1216 
Q 1759 972 1856 886 
Q 1953 800 2241 800 
L 2816 800 
L 2816 0 
L 1856 0 
Q 1194 0 917 276 
Q 641 553 641 1216 
L 641 2700 
L 84 2700 
L 84 3500 
L 641 3500 
L 641 4494 
L 1759 4494 
z
" transform="scale(0.015625)"/>
       <path id="DejaVuSans-Bold-69" d="M 538 3500 
L 1656 3500 
L 1656 0 
L 538 0 
L 538 3500 
z
M 538 4863 
L 1656 4863 
L 1656 3950 
L 538 3950 
L 538 4863 
z
" transform="scale(0.015625)"/>
       <path id="DejaVuSans-Bold-6d" d="M 3781 2919 
Q 3994 3244 4286 3414 
Q 4578 3584 4928 3584 
Q 5531 3584 5847 3212 
Q 6163 2841 6163 2131 
L 6163 0 
L 5038 0 
L 5038 1825 
Q 5041 1866 5042 1909 
Q 5044 1953 5044 2034 
Q 5044 2406 4934 2573 
Q 4825 2741 4581 2741 
Q 4263 2741 4089 2478 
Q 3916 2216 3909 1719 
L 3909 0 
L 2784 0 
L 2784 1825 
Q 2784 2406 2684 2573 
Q 2584 2741 2328 2741 
Q 2006 2741 1831 2477 
Q 1656 2213 1656 1722 
L 1656 0 
L 531 0 
L 531 3500 
L 1656 3500 
L 1656 2988 
Q 1863 3284 2130 3434 
Q 2397 3584 2719 3584 
Q 3081 3584 3359 3409 
Q 3638 3234 3781 2919 
z
" transform="scale(0.015625)"/>
       <path id="DejaVuSans-Bold-65" d="M 4031 1759 
L 4031 1441 
L 1416 1441 
Q 1456 1047 1700 850 
Q 1944 653 2381 653 
Q 2734 653 3104 758 
Q 3475 863 3866 1075 
L 3866 213 
Q 3469 63 3072 -14 
Q 2675 -91 2278 -91 
Q 1328 -91 801 392 
Q 275 875 275 1747 
Q 275 2603 792 3093 
Q 1309 3584 2216 3584 
Q 3041 3584 3536 3087 
Q 4031 2591 4031 1759 
z
M 2881 2131 
Q 2881 2450 2695 2645 
Q 2509 2841 2209 2841 
Q 1884 2841 1681 2658 
Q 1478 2475 1428 2131 
L 2881 2131 
z
" transform="scale(0.015625)"/>
       <path id="DejaVuSans-Bold-20" transform="scale(0.015625)"/>
       <path id="DejaVuSans-Bold-5b" d="M 550 4863 
L 2491 4863 
L 2491 4159 
L 1613 4159 
L 1613 -141 
L 2491 -141 
L 2491 -844 
L 550 -844 
L 550 4863 
z
" transform="scale(0.015625)"/>
       <path id="DejaVuSans-Bold-68" d="M 4056 2131 
L 4056 0 
L 2931 0 
L 2931 347 
L 2931 1625 
Q 2931 2084 2911 2256 
Q 2891 2428 2841 2509 
Q 2775 2619 2662 2680 
Q 2550 2741 2406 2741 
Q 2056 2741 1856 2470 
Q 1656 2200 1656 1722 
L 1656 0 
L 538 0 
L 538 4863 
L 1656 4863 
L 1656 2988 
Q 1909 3294 2193 3439 
Q 2478 3584 2822 3584 
Q 3428 3584 3742 3212 
Q 4056 2841 4056 2131 
z
" transform="scale(0.015625)"/>
       <path id="DejaVuSans-Bold-72" d="M 3138 2547 
Q 2991 2616 2845 2648 
Q 2700 2681 2553 2681 
Q 2122 2681 1889 2404 
Q 1656 2128 1656 1613 
L 1656 0 
L 538 0 
L 538 3500 
L 1656 3500 
L 1656 2925 
Q 1872 3269 2151 3426 
Q 2431 3584 2822 3584 
Q 2878 3584 2943 3579 
Q 3009 3575 3134 3559 
L 3138 2547 
z
" transform="scale(0.015625)"/>
       <path id="DejaVuSans-Bold-5d" d="M 2375 -844 
L 434 -844 
L 434 -141 
L 1313 -141 
L 1313 4159 
L 434 4159 
L 434 4863 
L 2375 4863 
L 2375 -844 
z
" transform="scale(0.015625)"/>
      </defs>
      <use xlink:href="#DejaVuSans-Bold-74"/>
      <use xlink:href="#DejaVuSans-Bold-69" transform="translate(47.802734 0)"/>
      <use xlink:href="#DejaVuSans-Bold-6d" transform="translate(82.080078 0)"/>
      <use xlink:href="#DejaVuSans-Bold-65" transform="translate(186.279297 0)"/>
      <use xlink:href="#DejaVuSans-Bold-20" transform="translate(254.101562 0)"/>
      <use xlink:href="#DejaVuSans-Bold-5b" transform="translate(288.916016 0)"/>
      <use xlink:href="#DejaVuSans-Bold-68" transform="translate(334.619141 0)"/>
      <use xlink:href="#DejaVuSans-Bold-72" transform="translate(405.810547 0)"/>
      <use xlink:href="#DejaVuSans-Bold-5d" transform="translate(455.126953 0)"/>
     </g>
    </g>
   </g>
   <g id="matplotlib.axis_2">
    <g id="ytick_1">
     <g id="line2d_7">
      <defs>
       <path id="m8404ab4f55" d="M 0 0 
L -3.5 0 
" style="stroke: #000000; stroke-width: 0.8"/>
      </defs>
      <g>
       <use xlink:href="#m8404ab4f55" x="45.184063" y="349.884" style="stroke: #000000; stroke-width: 0.8"/>
      </g>
     </g>
     <g id="text_8">
      <!-- 0 -->
      <g transform="translate(28.640313 355.582828) scale(0.15 -0.15)">
       <use xlink:href="#DejaVuSans-30"/>
      </g>
     </g>
    </g>
    <g id="ytick_2">
     <g id="line2d_8">
      <g>
       <use xlink:href="#m8404ab4f55" x="45.184063" y="311.373581" style="stroke: #000000; stroke-width: 0.8"/>
      </g>
     </g>
     <g id="text_9">
      <!-- 1 -->
      <g transform="translate(28.640313 317.072409) scale(0.15 -0.15)">
       <use xlink:href="#DejaVuSans-31"/>
      </g>
     </g>
    </g>
    <g id="ytick_3">
     <g id="line2d_9">
      <g>
       <use xlink:href="#m8404ab4f55" x="45.184063" y="272.863162" style="stroke: #000000; stroke-width: 0.8"/>
      </g>
     </g>
     <g id="text_10">
      <!-- 2 -->
      <g transform="translate(28.640313 278.56199) scale(0.15 -0.15)">
       <use xlink:href="#DejaVuSans-32"/>
      </g>
     </g>
    </g>
    <g id="ytick_4">
     <g id="line2d_10">
      <g>
       <use xlink:href="#m8404ab4f55" x="45.184063" y="234.352743" style="stroke: #000000; stroke-width: 0.8"/>
      </g>
     </g>
     <g id="text_11">
      <!-- 3 -->
      <g transform="translate(28.640313 240.051571) scale(0.15 -0.15)">
       <defs>
        <path id="DejaVuSans-33" d="M 2597 2516 
Q 3050 2419 3304 2112 
Q 3559 1806 3559 1356 
Q 3559 666 3084 287 
Q 2609 -91 1734 -91 
Q 1441 -91 1130 -33 
Q 819 25 488 141 
L 488 750 
Q 750 597 1062 519 
Q 1375 441 1716 441 
Q 2309 441 2620 675 
Q 2931 909 2931 1356 
Q 2931 1769 2642 2001 
Q 2353 2234 1838 2234 
L 1294 2234 
L 1294 2753 
L 1863 2753 
Q 2328 2753 2575 2939 
Q 2822 3125 2822 3475 
Q 2822 3834 2567 4026 
Q 2313 4219 1838 4219 
Q 1578 4219 1281 4162 
Q 984 4106 628 3988 
L 628 4550 
Q 988 4650 1302 4700 
Q 1616 4750 1894 4750 
Q 2613 4750 3031 4423 
Q 3450 4097 3450 3541 
Q 3450 3153 3228 2886 
Q 3006 2619 2597 2516 
z
" transform="scale(0.015625)"/>
       </defs>
       <use xlink:href="#DejaVuSans-33"/>
      </g>
     </g>
    </g>
    <g id="ytick_5">
     <g id="line2d_11">
      <g>
       <use xlink:href="#m8404ab4f55" x="45.184063" y="195.842324" style="stroke: #000000; stroke-width: 0.8"/>
      </g>
     </g>
     <g id="text_12">
      <!-- 4 -->
      <g transform="translate(28.640313 201.541152) scale(0.15 -0.15)">
       <use xlink:href="#DejaVuSans-34"/>
      </g>
     </g>
    </g>
    <g id="ytick_6">
     <g id="line2d_12">
      <g>
       <use xlink:href="#m8404ab4f55" x="45.184063" y="157.331905" style="stroke: #000000; stroke-width: 0.8"/>
      </g>
     </g>
     <g id="text_13">
      <!-- 5 -->
      <g transform="translate(28.640313 163.030733) scale(0.15 -0.15)">
       <defs>
        <path id="DejaVuSans-35" d="M 691 4666 
L 3169 4666 
L 3169 4134 
L 1269 4134 
L 1269 2991 
Q 1406 3038 1543 3061 
Q 1681 3084 1819 3084 
Q 2600 3084 3056 2656 
Q 3513 2228 3513 1497 
Q 3513 744 3044 326 
Q 2575 -91 1722 -91 
Q 1428 -91 1123 -41 
Q 819 9 494 109 
L 494 744 
Q 775 591 1075 516 
Q 1375 441 1709 441 
Q 2250 441 2565 725 
Q 2881 1009 2881 1497 
Q 2881 1984 2565 2268 
Q 2250 2553 1709 2553 
Q 1456 2553 1204 2497 
Q 953 2441 691 2322 
L 691 4666 
z
" transform="scale(0.015625)"/>
       </defs>
       <use xlink:href="#DejaVuSans-35"/>
      </g>
     </g>
    </g>
    <g id="ytick_7">
     <g id="line2d_13">
      <g>
       <use xlink:href="#m8404ab4f55" x="45.184063" y="118.821486" style="stroke: #000000; stroke-width: 0.8"/>
      </g>
     </g>
     <g id="text_14">
      <!-- 6 -->
      <g transform="translate(28.640313 124.520314) scale(0.15 -0.15)">
       <use xlink:href="#DejaVuSans-36"/>
      </g>
     </g>
    </g>
    <g id="ytick_8">
     <g id="line2d_14">
      <g>
       <use xlink:href="#m8404ab4f55" x="45.184063" y="80.311067" style="stroke: #000000; stroke-width: 0.8"/>
      </g>
     </g>
     <g id="text_15">
      <!-- 7 -->
      <g transform="translate(28.640313 86.009895) scale(0.15 -0.15)">
       <defs>
        <path id="DejaVuSans-37" d="M 525 4666 
L 3525 4666 
L 3525 4397 
L 1831 0 
L 1172 0 
L 2766 4134 
L 525 4134 
L 525 4666 
z
" transform="scale(0.015625)"/>
       </defs>
       <use xlink:href="#DejaVuSans-37"/>
      </g>
     </g>
    </g>
    <g id="text_16">
     <!-- captopril [µM] -->
     <g transform="translate(20.877188 278.568844) rotate(-90) scale(0.18 -0.18)">
      <defs>
       <path id="DejaVuSans-Bold-63" d="M 3366 3391 
L 3366 2478 
Q 3138 2634 2908 2709 
Q 2678 2784 2431 2784 
Q 1963 2784 1702 2511 
Q 1441 2238 1441 1747 
Q 1441 1256 1702 982 
Q 1963 709 2431 709 
Q 2694 709 2930 787 
Q 3166 866 3366 1019 
L 3366 103 
Q 3103 6 2833 -42 
Q 2563 -91 2291 -91 
Q 1344 -91 809 395 
Q 275 881 275 1747 
Q 275 2613 809 3098 
Q 1344 3584 2291 3584 
Q 2566 3584 2833 3536 
Q 3100 3488 3366 3391 
z
" transform="scale(0.015625)"/>
       <path id="DejaVuSans-Bold-61" d="M 2106 1575 
Q 1756 1575 1579 1456 
Q 1403 1338 1403 1106 
Q 1403 894 1545 773 
Q 1688 653 1941 653 
Q 2256 653 2472 879 
Q 2688 1106 2688 1447 
L 2688 1575 
L 2106 1575 
z
M 3816 1997 
L 3816 0 
L 2688 0 
L 2688 519 
Q 2463 200 2181 54 
Q 1900 -91 1497 -91 
Q 953 -91 614 226 
Q 275 544 275 1050 
Q 275 1666 698 1953 
Q 1122 2241 2028 2241 
L 2688 2241 
L 2688 2328 
Q 2688 2594 2478 2717 
Q 2269 2841 1825 2841 
Q 1466 2841 1156 2769 
Q 847 2697 581 2553 
L 581 3406 
Q 941 3494 1303 3539 
Q 1666 3584 2028 3584 
Q 2975 3584 3395 3211 
Q 3816 2838 3816 1997 
z
" transform="scale(0.015625)"/>
       <path id="DejaVuSans-Bold-70" d="M 1656 506 
L 1656 -1331 
L 538 -1331 
L 538 3500 
L 1656 3500 
L 1656 2988 
Q 1888 3294 2169 3439 
Q 2450 3584 2816 3584 
Q 3463 3584 3878 3070 
Q 4294 2556 4294 1747 
Q 4294 938 3878 423 
Q 3463 -91 2816 -91 
Q 2450 -91 2169 54 
Q 1888 200 1656 506 
z
M 2400 2772 
Q 2041 2772 1848 2508 
Q 1656 2244 1656 1747 
Q 1656 1250 1848 986 
Q 2041 722 2400 722 
Q 2759 722 2948 984 
Q 3138 1247 3138 1747 
Q 3138 2247 2948 2509 
Q 2759 2772 2400 2772 
z
" transform="scale(0.015625)"/>
       <path id="DejaVuSans-Bold-6f" d="M 2203 2784 
Q 1831 2784 1636 2517 
Q 1441 2250 1441 1747 
Q 1441 1244 1636 976 
Q 1831 709 2203 709 
Q 2569 709 2762 976 
Q 2956 1244 2956 1747 
Q 2956 2250 2762 2517 
Q 2569 2784 2203 2784 
z
M 2203 3584 
Q 3106 3584 3614 3096 
Q 4122 2609 4122 1747 
Q 4122 884 3614 396 
Q 3106 -91 2203 -91 
Q 1297 -91 786 396 
Q 275 884 275 1747 
Q 275 2609 786 3096 
Q 1297 3584 2203 3584 
z
" transform="scale(0.015625)"/>
       <path id="DejaVuSans-Bold-6c" d="M 538 4863 
L 1656 4863 
L 1656 0 
L 538 0 
L 538 4863 
z
" transform="scale(0.015625)"/>
       <path id="DejaVuSans-Bold-b5" d="M 544 -1338 
L 544 3500 
L 1672 3500 
L 1672 1466 
Q 1672 1103 1828 926 
Q 1984 750 2303 750 
Q 2625 750 2781 926 
Q 2938 1103 2938 1466 
L 2938 3500 
L 4063 3500 
L 4063 1159 
Q 4063 938 4114 850 
Q 4166 763 4288 763 
Q 4344 763 4395 778 
Q 4447 794 4506 831 
L 4506 50 
Q 4341 -22 4195 -56 
Q 4050 -91 3909 -91 
Q 3631 -91 3454 26 
Q 3278 144 3169 403 
Q 3022 156 2811 32 
Q 2600 -91 2322 -91 
Q 2091 -91 1928 -17 
Q 1766 56 1672 206 
L 1672 -1338 
L 544 -1338 
z
" transform="scale(0.015625)"/>
       <path id="DejaVuSans-Bold-4d" d="M 588 4666 
L 2119 4666 
L 3181 2169 
L 4250 4666 
L 5778 4666 
L 5778 0 
L 4641 0 
L 4641 3413 
L 3566 897 
L 2803 897 
L 1728 3413 
L 1728 0 
L 588 0 
L 588 4666 
z
" transform="scale(0.015625)"/>
      </defs>
      <use xlink:href="#DejaVuSans-Bold-63"/>
      <use xlink:href="#DejaVuSans-Bold-61" transform="translate(59.277344 0)"/>
      <use xlink:href="#DejaVuSans-Bold-70" transform="translate(126.757812 0)"/>
      <use xlink:href="#DejaVuSans-Bold-74" transform="translate(198.339844 0)"/>
      <use xlink:href="#DejaVuSans-Bold-6f" transform="translate(246.142578 0)"/>
      <use xlink:href="#DejaVuSans-Bold-70" transform="translate(314.84375 0)"/>
      <use xlink:href="#DejaVuSans-Bold-72" transform="translate(386.425781 0)"/>
      <use xlink:href="#DejaVuSans-Bold-69" transform="translate(435.742188 0)"/>
      <use xlink:href="#DejaVuSans-Bold-6c" transform="translate(470.019531 0)"/>
      <use xlink:href="#DejaVuSans-Bold-20" transform="translate(504.296875 0)"/>
      <use xlink:href="#DejaVuSans-Bold-5b" transform="translate(539.111328 0)"/>
      <use xlink:href="#DejaVuSans-Bold-b5" transform="translate(584.814453 0)"/>
      <use xlink:href="#DejaVuSans-Bold-4d" transform="translate(658.398438 0)"/>
      <use xlink:href="#DejaVuSans-Bold-5d" transform="translate(757.910156 0)"/>
     </g>
    </g>
   </g>
   <g id="line2d_15">
    <path d="M 64.714063 349.884 
L 65.690563 285.147327 
L 66.667063 228.337858 
L 67.643563 187.709642 
L 68.620063 157.842186 
L 69.596563 135.301103 
L 70.573063 117.914737 
L 71.549563 104.288737 
L 72.526063 93.509221 
L 73.502563 84.961232 
L 74.479063 78.217522 
L 75.455563 72.970254 
L 76.432063 68.988917 
L 77.408563 66.094239 
L 78.385063 64.141915 
L 79.361563 63.012332 
L 80.338063 62.604 
L 81.314563 62.82925 
L 82.291063 63.611361 
L 83.267563 64.882567 
L 84.244063 66.58263 
L 85.220563 68.657777 
L 87.173563 73.745754 
L 89.126563 79.81791 
L 91.079563 86.609522 
L 94.009062 97.691299 
L 98.891563 117.291376 
L 105.727063 144.626393 
L 109.633062 159.413046 
L 113.539062 173.334347 
L 117.445063 186.305728 
L 121.351063 198.304089 
L 124.280563 206.672574 
L 127.210063 214.517443 
L 130.139563 221.858946 
L 133.069063 228.720238 
L 135.998562 235.126067 
L 138.928063 241.101836 
L 141.857563 246.672945 
L 144.787062 251.864326 
L 147.716563 256.700135 
L 150.646063 261.203553 
L 153.575562 265.39666 
L 157.481562 270.54075 
L 161.387563 275.216535 
L 165.293563 279.466616 
L 169.199562 283.330022 
L 173.105562 286.842401 
L 177.011562 290.036241 
L 180.917563 292.941101 
L 184.823563 295.583842 
L 188.729562 297.988854 
L 193.612062 300.694325 
L 198.494563 303.101518 
L 203.377062 305.24471 
L 208.259562 307.154213 
L 214.118562 309.174661 
L 219.977563 310.937502 
L 225.836562 312.477646 
L 232.672062 314.03295 
L 239.507562 315.366732 
L 247.319562 316.663584 
L 256.108062 317.882892 
L 265.873063 318.997284 
L 276.614562 319.99219 
L 289.309062 320.928491 
L 303.956563 321.769728 
L 321.533562 322.540029 
L 343.016562 323.244742 
L 370.358563 323.90839 
L 407.465562 324.575404 
L 455.314062 325.236086 
L 455.314062 325.236086 
" clip-path="url(#p40409b7775)" style="fill: none; stroke: #000000; stroke-width: 2; stroke-linecap: square"/>
   </g>
   <g id="line2d_16">
    <path d="M 64.714063 349.884 
L 65.690563 317.515664 
L 66.667063 289.110929 
L 67.643563 268.796821 
L 68.620063 253.863093 
L 69.596563 242.592552 
L 70.573063 233.899368 
L 71.549563 227.086368 
L 72.526063 221.696611 
L 73.502563 217.422616 
L 74.479063 214.050761 
L 75.455563 211.427127 
L 76.432063 209.436459 
L 77.408563 207.98912 
L 78.385063 207.012957 
L 79.361563 206.448166 
L 80.338063 206.244 
L 81.314563 206.356625 
L 82.291063 206.747681 
L 83.267563 207.383284 
L 84.244063 208.233315 
L 85.220563 209.270888 
L 87.173563 211.814877 
L 89.126563 214.850955 
L 92.056063 220.045386 
L 95.962063 227.66126 
L 106.703563 249.140181 
L 110.609563 256.431563 
L 114.515563 263.275995 
L 118.421563 269.640228 
L 122.327562 275.518422 
L 126.233563 280.921745 
L 130.139563 285.871473 
L 134.045563 290.394436 
L 137.951563 294.520062 
L 141.857563 298.278473 
L 145.763563 301.699302 
L 149.669562 304.81098 
L 153.575562 307.64033 
L 157.481562 310.212375 
L 161.387563 312.550267 
L 166.270062 315.175635 
L 171.152562 317.505994 
L 176.035062 319.57499 
L 180.917563 321.412551 
L 186.776563 323.349315 
L 192.635562 325.031133 
L 198.494563 326.492759 
L 205.330062 327.959489 
L 212.165562 329.207839 
L 219.977563 330.410751 
L 228.766063 331.528892 
L 238.531062 332.536195 
L 249.272562 333.419372 
L 261.967062 334.231208 
L 276.614562 334.938095 
L 294.191562 335.558776 
L 316.651062 336.115556 
L 345.946062 336.605092 
L 387.935563 337.066348 
L 455.314062 337.560043 
L 455.314062 337.560043 
" clip-path="url(#p40409b7775)" style="fill: none; stroke: #3c33ff; stroke-width: 2; stroke-linecap: square"/>
   </g>
   <g id="line2d_17">
    <path d="M 64.714063 349.884 
L 84.244063 334.349972 
L 103.774063 286.446827 
L 123.304063 206.856171 
L 142.834063 213.479575 
L 162.364062 239.865461 
L 181.894062 268.638011 
L 220.954062 284.242478 
L 260.014063 301.048564 
L 299.074062 317.247625 
L 377.194062 329.296959 
" clip-path="url(#p40409b7775)" style="fill: none; stroke-dasharray: 3.7,1.6; stroke-dashoffset: 0; stroke: #000000"/>
    <defs>
     <path id="m8000e35dd1" d="M -3 3 
L 3 3 
L 3 -3 
L -3 -3 
z
" style="stroke: #000000; stroke-linejoin: miter"/>
    </defs>
    <g clip-path="url(#p40409b7775)">
     <use xlink:href="#m8000e35dd1" x="64.714063" y="349.884" style="stroke: #000000; stroke-linejoin: miter"/>
     <use xlink:href="#m8000e35dd1" x="84.244063" y="334.349972" style="stroke: #000000; stroke-linejoin: miter"/>
     <use xlink:href="#m8000e35dd1" x="103.774063" y="286.446827" style="stroke: #000000; stroke-linejoin: miter"/>
     <use xlink:href="#m8000e35dd1" x="123.304063" y="206.856171" style="stroke: #000000; stroke-linejoin: miter"/>
     <use xlink:href="#m8000e35dd1" x="142.834063" y="213.479575" style="stroke: #000000; stroke-linejoin: miter"/>
     <use xlink:href="#m8000e35dd1" x="162.364062" y="239.865461" style="stroke: #000000; stroke-linejoin: miter"/>
     <use xlink:href="#m8000e35dd1" x="181.894062" y="268.638011" style="stroke: #000000; stroke-linejoin: miter"/>
     <use xlink:href="#m8000e35dd1" x="220.954062" y="284.242478" style="stroke: #000000; stroke-linejoin: miter"/>
     <use xlink:href="#m8000e35dd1" x="260.014063" y="301.048564" style="stroke: #000000; stroke-linejoin: miter"/>
     <use xlink:href="#m8000e35dd1" x="299.074062" y="317.247625" style="stroke: #000000; stroke-linejoin: miter"/>
     <use xlink:href="#m8000e35dd1" x="377.194062" y="329.296959" style="stroke: #000000; stroke-linejoin: miter"/>
    </g>
   </g>
   <g id="line2d_18">
    <path d="M 64.714063 349.884 
L 84.244063 285.87295 
L 103.774063 215.837233 
L 123.304063 187.738005 
L 142.834063 219.504242 
L 162.364062 259.656948 
L 181.894062 284.246622 
L 220.954062 300.445683 
L 260.014063 314.253938 
L 299.074062 328.103628 
L 377.194062 335.957655 
" clip-path="url(#p40409b7775)" style="fill: none; stroke-dasharray: 3.7,1.6; stroke-dashoffset: 0; stroke: #000000"/>
    <defs>
     <path id="mae684a15eb" d="M 0 3 
C 0.795609 3 1.55874 2.683901 2.12132 2.12132 
C 2.683901 1.55874 3 0.795609 3 0 
C 3 -0.795609 2.683901 -1.55874 2.12132 -2.12132 
C 1.55874 -2.683901 0.795609 -3 0 -3 
C -0.795609 -3 -1.55874 -2.683901 -2.12132 -2.12132 
C -2.683901 -1.55874 -3 -0.795609 -3 0 
C -3 0.795609 -2.683901 1.55874 -2.12132 2.12132 
C -1.55874 2.683901 -0.795609 3 0 3 
z
" style="stroke: #000000"/>
    </defs>
    <g clip-path="url(#p40409b7775)">
     <use xlink:href="#mae684a15eb" x="64.714063" y="349.884" style="stroke: #000000"/>
     <use xlink:href="#mae684a15eb" x="84.244063" y="285.87295" style="stroke: #000000"/>
     <use xlink:href="#mae684a15eb" x="103.774063" y="215.837233" style="stroke: #000000"/>
     <use xlink:href="#mae684a15eb" x="123.304063" y="187.738005" style="stroke: #000000"/>
     <use xlink:href="#mae684a15eb" x="142.834063" y="219.504242" style="stroke: #000000"/>
     <use xlink:href="#mae684a15eb" x="162.364062" y="259.656948" style="stroke: #000000"/>
     <use xlink:href="#mae684a15eb" x="181.894062" y="284.246622" style="stroke: #000000"/>
     <use xlink:href="#mae684a15eb" x="220.954062" y="300.445683" style="stroke: #000000"/>
     <use xlink:href="#mae684a15eb" x="260.014063" y="314.253938" style="stroke: #000000"/>
     <use xlink:href="#mae684a15eb" x="299.074062" y="328.103628" style="stroke: #000000"/>
     <use xlink:href="#mae684a15eb" x="377.194062" y="335.957655" style="stroke: #000000"/>
    </g>
   </g>
   <g id="line2d_19">
    <path d="M 64.714063 349.884 
L 84.244063 321.776484 
L 103.774063 287.685737 
L 123.304063 281.735653 
L 142.834063 291.951483 
L 162.364062 303.364787 
L 181.894062 314.179354 
L 220.954062 319.605284 
L 260.014063 325.634094 
L 299.074062 335.883072 
L 377.194062 341.350436 
" clip-path="url(#p40409b7775)" style="fill: none; stroke-dasharray: 3.7,1.6; stroke-dashoffset: 0; stroke: #3c33ff"/>
    <defs>
     <path id="m3cabf2303a" d="M -3 3 
L 3 -3 
M -3 -3 
L 3 3 
" style="stroke: #000000"/>
    </defs>
    <g clip-path="url(#p40409b7775)">
     <use xlink:href="#m3cabf2303a" x="64.714063" y="349.884" style="fill: #3c33ff; stroke: #000000"/>
     <use xlink:href="#m3cabf2303a" x="84.244063" y="321.776484" style="fill: #3c33ff; stroke: #000000"/>
     <use xlink:href="#m3cabf2303a" x="103.774063" y="287.685737" style="fill: #3c33ff; stroke: #000000"/>
     <use xlink:href="#m3cabf2303a" x="123.304063" y="281.735653" style="fill: #3c33ff; stroke: #000000"/>
     <use xlink:href="#m3cabf2303a" x="142.834063" y="291.951483" style="fill: #3c33ff; stroke: #000000"/>
     <use xlink:href="#m3cabf2303a" x="162.364062" y="303.364787" style="fill: #3c33ff; stroke: #000000"/>
     <use xlink:href="#m3cabf2303a" x="181.894062" y="314.179354" style="fill: #3c33ff; stroke: #000000"/>
     <use xlink:href="#m3cabf2303a" x="220.954062" y="319.605284" style="fill: #3c33ff; stroke: #000000"/>
     <use xlink:href="#m3cabf2303a" x="260.014063" y="325.634094" style="fill: #3c33ff; stroke: #000000"/>
     <use xlink:href="#m3cabf2303a" x="299.074062" y="335.883072" style="fill: #3c33ff; stroke: #000000"/>
     <use xlink:href="#m3cabf2303a" x="377.194062" y="341.350436" style="fill: #3c33ff; stroke: #000000"/>
    </g>
   </g>
   <g id="line2d_20">
    <path d="M 64.714063 349.884 
L 84.244063 316.982441 
L 103.774063 261.940023 
L 123.304063 258.38489 
L 142.834063 282.97042 
L 162.364062 303.963525 
L 181.894062 309.393598 
L 220.954062 315.418265 
L 260.014063 325.031213 
L 299.074062 331.696053 
L 377.194062 337.758011 
" clip-path="url(#p40409b7775)" style="fill: none; stroke-dasharray: 3.7,1.6; stroke-dashoffset: 0; stroke: #3c33ff"/>
    <defs>
     <path id="ma377922089" d="M 0 -3 
L -3 3 
L 3 3 
z
" style="stroke: #000000; stroke-linejoin: miter"/>
    </defs>
    <g clip-path="url(#p40409b7775)">
     <use xlink:href="#ma377922089" x="64.714063" y="349.884" style="fill: #3c33ff; stroke: #000000; stroke-linejoin: miter"/>
     <use xlink:href="#ma377922089" x="84.244063" y="316.982441" style="fill: #3c33ff; stroke: #000000; stroke-linejoin: miter"/>
     <use xlink:href="#ma377922089" x="103.774063" y="261.940023" style="fill: #3c33ff; stroke: #000000; stroke-linejoin: miter"/>
     <use xlink:href="#ma377922089" x="123.304063" y="258.38489" style="fill: #3c33ff; stroke: #000000; stroke-linejoin: miter"/>
     <use xlink:href="#ma377922089" x="142.834063" y="282.97042" style="fill: #3c33ff; stroke: #000000; stroke-linejoin: miter"/>
     <use xlink:href="#ma377922089" x="162.364062" y="303.963525" style="fill: #3c33ff; stroke: #000000; stroke-linejoin: miter"/>
     <use xlink:href="#ma377922089" x="181.894062" y="309.393598" style="fill: #3c33ff; stroke: #000000; stroke-linejoin: miter"/>
     <use xlink:href="#ma377922089" x="220.954062" y="315.418265" style="fill: #3c33ff; stroke: #000000; stroke-linejoin: miter"/>
     <use xlink:href="#ma377922089" x="260.014063" y="325.031213" style="fill: #3c33ff; stroke: #000000; stroke-linejoin: miter"/>
     <use xlink:href="#ma377922089" x="299.074062" y="331.696053" style="fill: #3c33ff; stroke: #000000; stroke-linejoin: miter"/>
     <use xlink:href="#ma377922089" x="377.194062" y="337.758011" style="fill: #3c33ff; stroke: #000000; stroke-linejoin: miter"/>
    </g>
   </g>
   <g id="line2d_21">
    <path d="M 64.714063 349.884 
L 84.244063 325.963503 
L 103.774063 295.469325 
L 123.304063 279.340703 
L 142.834063 291.951483 
L 162.364062 301.572718 
L 181.894062 313.580617 
L 220.954062 323.197709 
L 260.014063 329.226519 
L 299.074062 335.887215 
L 377.194062 341.350436 
" clip-path="url(#p40409b7775)" style="fill: none; stroke-dasharray: 3.7,1.6; stroke-dashoffset: 0; stroke: #3c33ff"/>
    <defs>
     <path id="m2238fabfb6" d="M 0 -3 
L -0.673542 -0.927051 
L -2.85317 -0.927051 
L -1.089814 0.354102 
L -1.763356 2.427051 
L -0 1.145898 
L 1.763356 2.427051 
L 1.089814 0.354102 
L 2.85317 -0.927051 
L 0.673542 -0.927051 
z
" style="stroke: #000000; stroke-linejoin: bevel"/>
    </defs>
    <g clip-path="url(#p40409b7775)">
     <use xlink:href="#m2238fabfb6" x="64.714063" y="349.884" style="fill: #3c33ff; stroke: #000000; stroke-linejoin: bevel"/>
     <use xlink:href="#m2238fabfb6" x="84.244063" y="325.963503" style="fill: #3c33ff; stroke: #000000; stroke-linejoin: bevel"/>
     <use xlink:href="#m2238fabfb6" x="103.774063" y="295.469325" style="fill: #3c33ff; stroke: #000000; stroke-linejoin: bevel"/>
     <use xlink:href="#m2238fabfb6" x="123.304063" y="279.340703" style="fill: #3c33ff; stroke: #000000; stroke-linejoin: bevel"/>
     <use xlink:href="#m2238fabfb6" x="142.834063" y="291.951483" style="fill: #3c33ff; stroke: #000000; stroke-linejoin: bevel"/>
     <use xlink:href="#m2238fabfb6" x="162.364062" y="301.572718" style="fill: #3c33ff; stroke: #000000; stroke-linejoin: bevel"/>
     <use xlink:href="#m2238fabfb6" x="181.894062" y="313.580617" style="fill: #3c33ff; stroke: #000000; stroke-linejoin: bevel"/>
     <use xlink:href="#m2238fabfb6" x="220.954062" y="323.197709" style="fill: #3c33ff; stroke: #000000; stroke-linejoin: bevel"/>
     <use xlink:href="#m2238fabfb6" x="260.014063" y="329.226519" style="fill: #3c33ff; stroke: #000000; stroke-linejoin: bevel"/>
     <use xlink:href="#m2238fabfb6" x="299.074062" y="335.887215" style="fill: #3c33ff; stroke: #000000; stroke-linejoin: bevel"/>
     <use xlink:href="#m2238fabfb6" x="377.194062" y="341.350436" style="fill: #3c33ff; stroke: #000000; stroke-linejoin: bevel"/>
    </g>
   </g>
   <g id="line2d_22">
    <path d="M 64.714063 349.884 
L 84.244063 322.973959 
L 103.774063 285.889524 
L 123.304063 282.933128 
L 142.834063 297.34012 
L 162.364062 311.747113 
L 181.894062 318.973398 
L 220.954062 324.395184 
L 260.014063 332.216064 
L 299.074062 337.683428 
L 377.194062 342.547911 
" clip-path="url(#p40409b7775)" style="fill: none; stroke-dasharray: 3.7,1.6; stroke-dashoffset: 0; stroke: #3c33ff"/>
    <defs>
     <path id="m201d92f762" d="M -0 4.242641 
L 4.242641 0 
L 0 -4.242641 
L -4.242641 -0 
z
" style="stroke: #000000; stroke-linejoin: miter"/>
    </defs>
    <g clip-path="url(#p40409b7775)">
     <use xlink:href="#m201d92f762" x="64.714063" y="349.884" style="fill: #3c33ff; stroke: #000000; stroke-linejoin: miter"/>
     <use xlink:href="#m201d92f762" x="84.244063" y="322.973959" style="fill: #3c33ff; stroke: #000000; stroke-linejoin: miter"/>
     <use xlink:href="#m201d92f762" x="103.774063" y="285.889524" style="fill: #3c33ff; stroke: #000000; stroke-linejoin: miter"/>
     <use xlink:href="#m201d92f762" x="123.304063" y="282.933128" style="fill: #3c33ff; stroke: #000000; stroke-linejoin: miter"/>
     <use xlink:href="#m201d92f762" x="142.834063" y="297.34012" style="fill: #3c33ff; stroke: #000000; stroke-linejoin: miter"/>
     <use xlink:href="#m201d92f762" x="162.364062" y="311.747113" style="fill: #3c33ff; stroke: #000000; stroke-linejoin: miter"/>
     <use xlink:href="#m201d92f762" x="181.894062" y="318.973398" style="fill: #3c33ff; stroke: #000000; stroke-linejoin: miter"/>
     <use xlink:href="#m201d92f762" x="220.954062" y="324.395184" style="fill: #3c33ff; stroke: #000000; stroke-linejoin: miter"/>
     <use xlink:href="#m201d92f762" x="260.014063" y="332.216064" style="fill: #3c33ff; stroke: #000000; stroke-linejoin: miter"/>
     <use xlink:href="#m201d92f762" x="299.074062" y="337.683428" style="fill: #3c33ff; stroke: #000000; stroke-linejoin: miter"/>
     <use xlink:href="#m201d92f762" x="377.194062" y="342.547911" style="fill: #3c33ff; stroke: #000000; stroke-linejoin: miter"/>
    </g>
   </g>
   <g id="patch_3">
    <path d="M 45.184063 364.248 
L 45.184063 48.24 
" style="fill: none; stroke: #000000; stroke-width: 0.8; stroke-linejoin: miter; stroke-linecap: square"/>
   </g>
   <g id="patch_4">
    <path d="M 474.844062 364.248 
L 474.844062 48.24 
" style="fill: none; stroke: #000000; stroke-width: 0.8; stroke-linejoin: miter; stroke-linecap: square"/>
   </g>
   <g id="patch_5">
    <path d="M 45.184063 364.248 
L 474.844062 364.248 
" style="fill: none; stroke: #000000; stroke-width: 0.8; stroke-linejoin: miter; stroke-linecap: square"/>
   </g>
   <g id="patch_6">
    <path d="M 45.184063 48.24 
L 474.844062 48.24 
" style="fill: none; stroke: #000000; stroke-width: 0.8; stroke-linejoin: miter; stroke-linecap: square"/>
   </g>
   <g id="legend_1">
    <g id="patch_7">
     <path d="M 314.009687 173.665 
L 467.844062 173.665 
Q 469.844062 173.665 469.844062 171.665 
L 469.844062 55.24 
Q 469.844062 53.24 467.844062 53.24 
L 314.009687 53.24 
Q 312.009687 53.24 312.009687 55.24 
L 312.009687 171.665 
Q 312.009687 173.665 314.009687 173.665 
z
" style="fill: #ffffff; opacity: 0.8; stroke: #cccccc; stroke-linejoin: miter"/>
    </g>
    <g id="line2d_23">
     <path d="M 316.009687 61.338437 
L 336.009687 61.338437 
" style="fill: none; stroke: #000000; stroke-width: 2; stroke-linecap: square"/>
    </g>
    <g id="line2d_24"/>
    <g id="text_17">
     <!-- sim: 100mg PO -->
     <g transform="translate(344.009687 64.838437) scale(0.1 -0.1)">
      <defs>
       <path id="DejaVuSans-73" d="M 2834 3397 
L 2834 2853 
Q 2591 2978 2328 3040 
Q 2066 3103 1784 3103 
Q 1356 3103 1142 2972 
Q 928 2841 928 2578 
Q 928 2378 1081 2264 
Q 1234 2150 1697 2047 
L 1894 2003 
Q 2506 1872 2764 1633 
Q 3022 1394 3022 966 
Q 3022 478 2636 193 
Q 2250 -91 1575 -91 
Q 1294 -91 989 -36 
Q 684 19 347 128 
L 347 722 
Q 666 556 975 473 
Q 1284 391 1588 391 
Q 1994 391 2212 530 
Q 2431 669 2431 922 
Q 2431 1156 2273 1281 
Q 2116 1406 1581 1522 
L 1381 1569 
Q 847 1681 609 1914 
Q 372 2147 372 2553 
Q 372 3047 722 3315 
Q 1072 3584 1716 3584 
Q 2034 3584 2315 3537 
Q 2597 3491 2834 3397 
z
" transform="scale(0.015625)"/>
       <path id="DejaVuSans-69" d="M 603 3500 
L 1178 3500 
L 1178 0 
L 603 0 
L 603 3500 
z
M 603 4863 
L 1178 4863 
L 1178 4134 
L 603 4134 
L 603 4863 
z
" transform="scale(0.015625)"/>
       <path id="DejaVuSans-6d" d="M 3328 2828 
Q 3544 3216 3844 3400 
Q 4144 3584 4550 3584 
Q 5097 3584 5394 3201 
Q 5691 2819 5691 2113 
L 5691 0 
L 5113 0 
L 5113 2094 
Q 5113 2597 4934 2840 
Q 4756 3084 4391 3084 
Q 3944 3084 3684 2787 
Q 3425 2491 3425 1978 
L 3425 0 
L 2847 0 
L 2847 2094 
Q 2847 2600 2669 2842 
Q 2491 3084 2119 3084 
Q 1678 3084 1418 2786 
Q 1159 2488 1159 1978 
L 1159 0 
L 581 0 
L 581 3500 
L 1159 3500 
L 1159 2956 
Q 1356 3278 1631 3431 
Q 1906 3584 2284 3584 
Q 2666 3584 2933 3390 
Q 3200 3197 3328 2828 
z
" transform="scale(0.015625)"/>
       <path id="DejaVuSans-3a" d="M 750 794 
L 1409 794 
L 1409 0 
L 750 0 
L 750 794 
z
M 750 3309 
L 1409 3309 
L 1409 2516 
L 750 2516 
L 750 3309 
z
" transform="scale(0.015625)"/>
       <path id="DejaVuSans-20" transform="scale(0.015625)"/>
       <path id="DejaVuSans-67" d="M 2906 1791 
Q 2906 2416 2648 2759 
Q 2391 3103 1925 3103 
Q 1463 3103 1205 2759 
Q 947 2416 947 1791 
Q 947 1169 1205 825 
Q 1463 481 1925 481 
Q 2391 481 2648 825 
Q 2906 1169 2906 1791 
z
M 3481 434 
Q 3481 -459 3084 -895 
Q 2688 -1331 1869 -1331 
Q 1566 -1331 1297 -1286 
Q 1028 -1241 775 -1147 
L 775 -588 
Q 1028 -725 1275 -790 
Q 1522 -856 1778 -856 
Q 2344 -856 2625 -561 
Q 2906 -266 2906 331 
L 2906 616 
Q 2728 306 2450 153 
Q 2172 0 1784 0 
Q 1141 0 747 490 
Q 353 981 353 1791 
Q 353 2603 747 3093 
Q 1141 3584 1784 3584 
Q 2172 3584 2450 3431 
Q 2728 3278 2906 2969 
L 2906 3500 
L 3481 3500 
L 3481 434 
z
" transform="scale(0.015625)"/>
       <path id="DejaVuSans-50" d="M 1259 4147 
L 1259 2394 
L 2053 2394 
Q 2494 2394 2734 2622 
Q 2975 2850 2975 3272 
Q 2975 3691 2734 3919 
Q 2494 4147 2053 4147 
L 1259 4147 
z
M 628 4666 
L 2053 4666 
Q 2838 4666 3239 4311 
Q 3641 3956 3641 3272 
Q 3641 2581 3239 2228 
Q 2838 1875 2053 1875 
L 1259 1875 
L 1259 0 
L 628 0 
L 628 4666 
z
" transform="scale(0.015625)"/>
       <path id="DejaVuSans-4f" d="M 2522 4238 
Q 1834 4238 1429 3725 
Q 1025 3213 1025 2328 
Q 1025 1447 1429 934 
Q 1834 422 2522 422 
Q 3209 422 3611 934 
Q 4013 1447 4013 2328 
Q 4013 3213 3611 3725 
Q 3209 4238 2522 4238 
z
M 2522 4750 
Q 3503 4750 4090 4092 
Q 4678 3434 4678 2328 
Q 4678 1225 4090 567 
Q 3503 -91 2522 -91 
Q 1538 -91 948 565 
Q 359 1222 359 2328 
Q 359 3434 948 4092 
Q 1538 4750 2522 4750 
z
" transform="scale(0.015625)"/>
      </defs>
      <use xlink:href="#DejaVuSans-73"/>
      <use xlink:href="#DejaVuSans-69" transform="translate(52.099609 0)"/>
      <use xlink:href="#DejaVuSans-6d" transform="translate(79.882812 0)"/>
      <use xlink:href="#DejaVuSans-3a" transform="translate(177.294922 0)"/>
      <use xlink:href="#DejaVuSans-20" transform="translate(210.986328 0)"/>
      <use xlink:href="#DejaVuSans-31" transform="translate(242.773438 0)"/>
      <use xlink:href="#DejaVuSans-30" transform="translate(306.396484 0)"/>
      <use xlink:href="#DejaVuSans-30" transform="translate(370.019531 0)"/>
      <use xlink:href="#DejaVuSans-6d" transform="translate(433.642578 0)"/>
      <use xlink:href="#DejaVuSans-67" transform="translate(531.054688 0)"/>
      <use xlink:href="#DejaVuSans-20" transform="translate(594.53125 0)"/>
      <use xlink:href="#DejaVuSans-50" transform="translate(626.318359 0)"/>
      <use xlink:href="#DejaVuSans-4f" transform="translate(686.621094 0)"/>
     </g>
    </g>
    <g id="line2d_25">
     <path d="M 316.009687 76.016562 
L 336.009687 76.016562 
" style="fill: none; stroke: #3c33ff; stroke-width: 2; stroke-linecap: square"/>
    </g>
    <g id="line2d_26"/>
    <g id="text_18">
     <!-- sim: 50mg PO -->
     <g transform="translate(344.009687 79.516562) scale(0.1 -0.1)">
      <use xlink:href="#DejaVuSans-73"/>
      <use xlink:href="#DejaVuSans-69" transform="translate(52.099609 0)"/>
      <use xlink:href="#DejaVuSans-6d" transform="translate(79.882812 0)"/>
      <use xlink:href="#DejaVuSans-3a" transform="translate(177.294922 0)"/>
      <use xlink:href="#DejaVuSans-20" transform="translate(210.986328 0)"/>
      <use xlink:href="#DejaVuSans-35" transform="translate(242.773438 0)"/>
      <use xlink:href="#DejaVuSans-30" transform="translate(306.396484 0)"/>
      <use xlink:href="#DejaVuSans-6d" transform="translate(370.019531 0)"/>
      <use xlink:href="#DejaVuSans-67" transform="translate(467.431641 0)"/>
      <use xlink:href="#DejaVuSans-20" transform="translate(530.908203 0)"/>
      <use xlink:href="#DejaVuSans-50" transform="translate(562.695312 0)"/>
      <use xlink:href="#DejaVuSans-4f" transform="translate(622.998047 0)"/>
     </g>
    </g>
    <g id="line2d_27">
     <path d="M 316.009687 90.694687 
L 336.009687 90.694687 
" style="fill: none; stroke-dasharray: 3.7,1.6; stroke-dashoffset: 0; stroke: #000000"/>
    </g>
    <g id="line2d_28">
     <g>
      <use xlink:href="#m8000e35dd1" x="326.009687" y="90.694687" style="stroke: #000000; stroke-linejoin: miter"/>
     </g>
    </g>
    <g id="text_19">
     <!-- exp1: 100mg PO (n=20) -->
     <g transform="translate(344.009687 94.194687) scale(0.1 -0.1)">
      <defs>
       <path id="DejaVuSans-65" d="M 3597 1894 
L 3597 1613 
L 953 1613 
Q 991 1019 1311 708 
Q 1631 397 2203 397 
Q 2534 397 2845 478 
Q 3156 559 3463 722 
L 3463 178 
Q 3153 47 2828 -22 
Q 2503 -91 2169 -91 
Q 1331 -91 842 396 
Q 353 884 353 1716 
Q 353 2575 817 3079 
Q 1281 3584 2069 3584 
Q 2775 3584 3186 3129 
Q 3597 2675 3597 1894 
z
M 3022 2063 
Q 3016 2534 2758 2815 
Q 2500 3097 2075 3097 
Q 1594 3097 1305 2825 
Q 1016 2553 972 2059 
L 3022 2063 
z
" transform="scale(0.015625)"/>
       <path id="DejaVuSans-78" d="M 3513 3500 
L 2247 1797 
L 3578 0 
L 2900 0 
L 1881 1375 
L 863 0 
L 184 0 
L 1544 1831 
L 300 3500 
L 978 3500 
L 1906 2253 
L 2834 3500 
L 3513 3500 
z
" transform="scale(0.015625)"/>
       <path id="DejaVuSans-70" d="M 1159 525 
L 1159 -1331 
L 581 -1331 
L 581 3500 
L 1159 3500 
L 1159 2969 
Q 1341 3281 1617 3432 
Q 1894 3584 2278 3584 
Q 2916 3584 3314 3078 
Q 3713 2572 3713 1747 
Q 3713 922 3314 415 
Q 2916 -91 2278 -91 
Q 1894 -91 1617 61 
Q 1341 213 1159 525 
z
M 3116 1747 
Q 3116 2381 2855 2742 
Q 2594 3103 2138 3103 
Q 1681 3103 1420 2742 
Q 1159 2381 1159 1747 
Q 1159 1113 1420 752 
Q 1681 391 2138 391 
Q 2594 391 2855 752 
Q 3116 1113 3116 1747 
z
" transform="scale(0.015625)"/>
       <path id="DejaVuSans-28" d="M 1984 4856 
Q 1566 4138 1362 3434 
Q 1159 2731 1159 2009 
Q 1159 1288 1364 580 
Q 1569 -128 1984 -844 
L 1484 -844 
Q 1016 -109 783 600 
Q 550 1309 550 2009 
Q 550 2706 781 3412 
Q 1013 4119 1484 4856 
L 1984 4856 
z
" transform="scale(0.015625)"/>
       <path id="DejaVuSans-6e" d="M 3513 2113 
L 3513 0 
L 2938 0 
L 2938 2094 
Q 2938 2591 2744 2837 
Q 2550 3084 2163 3084 
Q 1697 3084 1428 2787 
Q 1159 2491 1159 1978 
L 1159 0 
L 581 0 
L 581 3500 
L 1159 3500 
L 1159 2956 
Q 1366 3272 1645 3428 
Q 1925 3584 2291 3584 
Q 2894 3584 3203 3211 
Q 3513 2838 3513 2113 
z
" transform="scale(0.015625)"/>
       <path id="DejaVuSans-3d" d="M 678 2906 
L 4684 2906 
L 4684 2381 
L 678 2381 
L 678 2906 
z
M 678 1631 
L 4684 1631 
L 4684 1100 
L 678 1100 
L 678 1631 
z
" transform="scale(0.015625)"/>
       <path id="DejaVuSans-29" d="M 513 4856 
L 1013 4856 
Q 1481 4119 1714 3412 
Q 1947 2706 1947 2009 
Q 1947 1309 1714 600 
Q 1481 -109 1013 -844 
L 513 -844 
Q 928 -128 1133 580 
Q 1338 1288 1338 2009 
Q 1338 2731 1133 3434 
Q 928 4138 513 4856 
z
" transform="scale(0.015625)"/>
      </defs>
      <use xlink:href="#DejaVuSans-65"/>
      <use xlink:href="#DejaVuSans-78" transform="translate(59.773438 0)"/>
      <use xlink:href="#DejaVuSans-70" transform="translate(118.953125 0)"/>
      <use xlink:href="#DejaVuSans-31" transform="translate(182.429688 0)"/>
      <use xlink:href="#DejaVuSans-3a" transform="translate(246.052734 0)"/>
      <use xlink:href="#DejaVuSans-20" transform="translate(279.744141 0)"/>
      <use xlink:href="#DejaVuSans-31" transform="translate(311.53125 0)"/>
      <use xlink:href="#DejaVuSans-30" transform="translate(375.154297 0)"/>
      <use xlink:href="#DejaVuSans-30" transform="translate(438.777344 0)"/>
      <use xlink:href="#DejaVuSans-6d" transform="translate(502.400391 0)"/>
      <use xlink:href="#DejaVuSans-67" transform="translate(599.8125 0)"/>
      <use xlink:href="#DejaVuSans-20" transform="translate(663.289062 0)"/>
      <use xlink:href="#DejaVuSans-50" transform="translate(695.076172 0)"/>
      <use xlink:href="#DejaVuSans-4f" transform="translate(755.378906 0)"/>
      <use xlink:href="#DejaVuSans-20" transform="translate(834.089844 0)"/>
      <use xlink:href="#DejaVuSans-28" transform="translate(865.876953 0)"/>
      <use xlink:href="#DejaVuSans-6e" transform="translate(904.890625 0)"/>
      <use xlink:href="#DejaVuSans-3d" transform="translate(968.269531 0)"/>
      <use xlink:href="#DejaVuSans-32" transform="translate(1052.058594 0)"/>
      <use xlink:href="#DejaVuSans-30" transform="translate(1115.681641 0)"/>
      <use xlink:href="#DejaVuSans-29" transform="translate(1179.304688 0)"/>
     </g>
    </g>
    <g id="line2d_29">
     <path d="M 316.009687 105.372812 
L 336.009687 105.372812 
" style="fill: none; stroke-dasharray: 3.7,1.6; stroke-dashoffset: 0; stroke: #000000"/>
    </g>
    <g id="line2d_30">
     <g>
      <use xlink:href="#mae684a15eb" x="326.009687" y="105.372812" style="stroke: #000000"/>
     </g>
    </g>
    <g id="text_20">
     <!-- exp2: 100mg PO (n=20) -->
     <g transform="translate(344.009687 108.872812) scale(0.1 -0.1)">
      <use xlink:href="#DejaVuSans-65"/>
      <use xlink:href="#DejaVuSans-78" transform="translate(59.773438 0)"/>
      <use xlink:href="#DejaVuSans-70" transform="translate(118.953125 0)"/>
      <use xlink:href="#DejaVuSans-32" transform="translate(182.429688 0)"/>
      <use xlink:href="#DejaVuSans-3a" transform="translate(246.052734 0)"/>
      <use xlink:href="#DejaVuSans-20" transform="translate(279.744141 0)"/>
      <use xlink:href="#DejaVuSans-31" transform="translate(311.53125 0)"/>
      <use xlink:href="#DejaVuSans-30" transform="translate(375.154297 0)"/>
      <use xlink:href="#DejaVuSans-30" transform="translate(438.777344 0)"/>
      <use xlink:href="#DejaVuSans-6d" transform="translate(502.400391 0)"/>
      <use xlink:href="#DejaVuSans-67" transform="translate(599.8125 0)"/>
      <use xlink:href="#DejaVuSans-20" transform="translate(663.289062 0)"/>
      <use xlink:href="#DejaVuSans-50" transform="translate(695.076172 0)"/>
      <use xlink:href="#DejaVuSans-4f" transform="translate(755.378906 0)"/>
      <use xlink:href="#DejaVuSans-20" transform="translate(834.089844 0)"/>
      <use xlink:href="#DejaVuSans-28" transform="translate(865.876953 0)"/>
      <use xlink:href="#DejaVuSans-6e" transform="translate(904.890625 0)"/>
      <use xlink:href="#DejaVuSans-3d" transform="translate(968.269531 0)"/>
      <use xlink:href="#DejaVuSans-32" transform="translate(1052.058594 0)"/>
      <use xlink:href="#DejaVuSans-30" transform="translate(1115.681641 0)"/>
      <use xlink:href="#DejaVuSans-29" transform="translate(1179.304688 0)"/>
     </g>
    </g>
    <g id="line2d_31">
     <path d="M 316.009687 120.050937 
L 336.009687 120.050937 
" style="fill: none; stroke-dasharray: 3.7,1.6; stroke-dashoffset: 0; stroke: #3c33ff"/>
    </g>
    <g id="line2d_32">
     <g>
      <use xlink:href="#m3cabf2303a" x="326.009687" y="120.050937" style="fill: #3c33ff; stroke: #000000"/>
     </g>
    </g>
    <g id="text_21">
     <!-- exp3: 50mg PO (n=20) -->
     <g transform="translate(344.009687 123.550937) scale(0.1 -0.1)">
      <use xlink:href="#DejaVuSans-65"/>
      <use xlink:href="#DejaVuSans-78" transform="translate(59.773438 0)"/>
      <use xlink:href="#DejaVuSans-70" transform="translate(118.953125 0)"/>
      <use xlink:href="#DejaVuSans-33" transform="translate(182.429688 0)"/>
      <use xlink:href="#DejaVuSans-3a" transform="translate(246.052734 0)"/>
      <use xlink:href="#DejaVuSans-20" transform="translate(279.744141 0)"/>
      <use xlink:href="#DejaVuSans-35" transform="translate(311.53125 0)"/>
      <use xlink:href="#DejaVuSans-30" transform="translate(375.154297 0)"/>
      <use xlink:href="#DejaVuSans-6d" transform="translate(438.777344 0)"/>
      <use xlink:href="#DejaVuSans-67" transform="translate(536.189453 0)"/>
      <use xlink:href="#DejaVuSans-20" transform="translate(599.666016 0)"/>
      <use xlink:href="#DejaVuSans-50" transform="translate(631.453125 0)"/>
      <use xlink:href="#DejaVuSans-4f" transform="translate(691.755859 0)"/>
      <use xlink:href="#DejaVuSans-20" transform="translate(770.466797 0)"/>
      <use xlink:href="#DejaVuSans-28" transform="translate(802.253906 0)"/>
      <use xlink:href="#DejaVuSans-6e" transform="translate(841.267578 0)"/>
      <use xlink:href="#DejaVuSans-3d" transform="translate(904.646484 0)"/>
      <use xlink:href="#DejaVuSans-32" transform="translate(988.435547 0)"/>
      <use xlink:href="#DejaVuSans-30" transform="translate(1052.058594 0)"/>
      <use xlink:href="#DejaVuSans-29" transform="translate(1115.681641 0)"/>
     </g>
    </g>
    <g id="line2d_33">
     <path d="M 316.009687 134.729062 
L 336.009687 134.729062 
" style="fill: none; stroke-dasharray: 3.7,1.6; stroke-dashoffset: 0; stroke: #3c33ff"/>
    </g>
    <g id="line2d_34">
     <g>
      <use xlink:href="#ma377922089" x="326.009687" y="134.729062" style="fill: #3c33ff; stroke: #000000; stroke-linejoin: miter"/>
     </g>
    </g>
    <g id="text_22">
     <!-- exp4: 50mg PO (n=20) -->
     <g transform="translate(344.009687 138.229062) scale(0.1 -0.1)">
      <use xlink:href="#DejaVuSans-65"/>
      <use xlink:href="#DejaVuSans-78" transform="translate(59.773438 0)"/>
      <use xlink:href="#DejaVuSans-70" transform="translate(118.953125 0)"/>
      <use xlink:href="#DejaVuSans-34" transform="translate(182.429688 0)"/>
      <use xlink:href="#DejaVuSans-3a" transform="translate(246.052734 0)"/>
      <use xlink:href="#DejaVuSans-20" transform="translate(279.744141 0)"/>
      <use xlink:href="#DejaVuSans-35" transform="translate(311.53125 0)"/>
      <use xlink:href="#DejaVuSans-30" transform="translate(375.154297 0)"/>
      <use xlink:href="#DejaVuSans-6d" transform="translate(438.777344 0)"/>
      <use xlink:href="#DejaVuSans-67" transform="translate(536.189453 0)"/>
      <use xlink:href="#DejaVuSans-20" transform="translate(599.666016 0)"/>
      <use xlink:href="#DejaVuSans-50" transform="translate(631.453125 0)"/>
      <use xlink:href="#DejaVuSans-4f" transform="translate(691.755859 0)"/>
      <use xlink:href="#DejaVuSans-20" transform="translate(770.466797 0)"/>
      <use xlink:href="#DejaVuSans-28" transform="translate(802.253906 0)"/>
      <use xlink:href="#DejaVuSans-6e" transform="translate(841.267578 0)"/>
      <use xlink:href="#DejaVuSans-3d" transform="translate(904.646484 0)"/>
      <use xlink:href="#DejaVuSans-32" transform="translate(988.435547 0)"/>
      <use xlink:href="#DejaVuSans-30" transform="translate(1052.058594 0)"/>
      <use xlink:href="#DejaVuSans-29" transform="translate(1115.681641 0)"/>
     </g>
    </g>
    <g id="line2d_35">
     <path d="M 316.009687 149.407187 
L 336.009687 149.407187 
" style="fill: none; stroke-dasharray: 3.7,1.6; stroke-dashoffset: 0; stroke: #3c33ff"/>
    </g>
    <g id="line2d_36">
     <g>
      <use xlink:href="#m2238fabfb6" x="326.009687" y="149.407187" style="fill: #3c33ff; stroke: #000000; stroke-linejoin: bevel"/>
     </g>
    </g>
    <g id="text_23">
     <!-- exp5: 50mg PO (n=20) -->
     <g transform="translate(344.009687 152.907187) scale(0.1 -0.1)">
      <use xlink:href="#DejaVuSans-65"/>
      <use xlink:href="#DejaVuSans-78" transform="translate(59.773438 0)"/>
      <use xlink:href="#DejaVuSans-70" transform="translate(118.953125 0)"/>
      <use xlink:href="#DejaVuSans-35" transform="translate(182.429688 0)"/>
      <use xlink:href="#DejaVuSans-3a" transform="translate(246.052734 0)"/>
      <use xlink:href="#DejaVuSans-20" transform="translate(279.744141 0)"/>
      <use xlink:href="#DejaVuSans-35" transform="translate(311.53125 0)"/>
      <use xlink:href="#DejaVuSans-30" transform="translate(375.154297 0)"/>
      <use xlink:href="#DejaVuSans-6d" transform="translate(438.777344 0)"/>
      <use xlink:href="#DejaVuSans-67" transform="translate(536.189453 0)"/>
      <use xlink:href="#DejaVuSans-20" transform="translate(599.666016 0)"/>
      <use xlink:href="#DejaVuSans-50" transform="translate(631.453125 0)"/>
      <use xlink:href="#DejaVuSans-4f" transform="translate(691.755859 0)"/>
      <use xlink:href="#DejaVuSans-20" transform="translate(770.466797 0)"/>
      <use xlink:href="#DejaVuSans-28" transform="translate(802.253906 0)"/>
      <use xlink:href="#DejaVuSans-6e" transform="translate(841.267578 0)"/>
      <use xlink:href="#DejaVuSans-3d" transform="translate(904.646484 0)"/>
      <use xlink:href="#DejaVuSans-32" transform="translate(988.435547 0)"/>
      <use xlink:href="#DejaVuSans-30" transform="translate(1052.058594 0)"/>
      <use xlink:href="#DejaVuSans-29" transform="translate(1115.681641 0)"/>
     </g>
    </g>
    <g id="line2d_37">
     <path d="M 316.009687 164.085312 
L 336.009687 164.085312 
" style="fill: none; stroke-dasharray: 3.7,1.6; stroke-dashoffset: 0; stroke: #3c33ff"/>
    </g>
    <g id="line2d_38">
     <g>
      <use xlink:href="#m201d92f762" x="326.009687" y="164.085312" style="fill: #3c33ff; stroke: #000000; stroke-linejoin: miter"/>
     </g>
    </g>
    <g id="text_24">
     <!-- exp6: 50mg PO (n=20) -->
     <g transform="translate(344.009687 167.585312) scale(0.1 -0.1)">
      <use xlink:href="#DejaVuSans-65"/>
      <use xlink:href="#DejaVuSans-78" transform="translate(59.773438 0)"/>
      <use xlink:href="#DejaVuSans-70" transform="translate(118.953125 0)"/>
      <use xlink:href="#DejaVuSans-36" transform="translate(182.429688 0)"/>
      <use xlink:href="#DejaVuSans-3a" transform="translate(246.052734 0)"/>
      <use xlink:href="#DejaVuSans-20" transform="translate(279.744141 0)"/>
      <use xlink:href="#DejaVuSans-35" transform="translate(311.53125 0)"/>
      <use xlink:href="#DejaVuSans-30" transform="translate(375.154297 0)"/>
      <use xlink:href="#DejaVuSans-6d" transform="translate(438.777344 0)"/>
      <use xlink:href="#DejaVuSans-67" transform="translate(536.189453 0)"/>
      <use xlink:href="#DejaVuSans-20" transform="translate(599.666016 0)"/>
      <use xlink:href="#DejaVuSans-50" transform="translate(631.453125 0)"/>
      <use xlink:href="#DejaVuSans-4f" transform="translate(691.755859 0)"/>
      <use xlink:href="#DejaVuSans-20" transform="translate(770.466797 0)"/>
      <use xlink:href="#DejaVuSans-28" transform="translate(802.253906 0)"/>
      <use xlink:href="#DejaVuSans-6e" transform="translate(841.267578 0)"/>
      <use xlink:href="#DejaVuSans-3d" transform="translate(904.646484 0)"/>
      <use xlink:href="#DejaVuSans-32" transform="translate(988.435547 0)"/>
      <use xlink:href="#DejaVuSans-30" transform="translate(1052.058594 0)"/>
      <use xlink:href="#DejaVuSans-29" transform="translate(1115.681641 0)"/>
     </g>
    </g>
   </g>
  </g>
  <g id="text_25">
   <!-- Anuta2021 -->
   <g transform="translate(176.414141 26.196094) scale(0.25 -0.25)">
    <defs>
     <path id="DejaVuSans-Bold-41" d="M 3419 850 
L 1538 850 
L 1241 0 
L 31 0 
L 1759 4666 
L 3194 4666 
L 4922 0 
L 3713 0 
L 3419 850 
z
M 1838 1716 
L 3116 1716 
L 2478 3572 
L 1838 1716 
z
" transform="scale(0.015625)"/>
     <path id="DejaVuSans-Bold-6e" d="M 4056 2131 
L 4056 0 
L 2931 0 
L 2931 347 
L 2931 1631 
Q 2931 2084 2911 2256 
Q 2891 2428 2841 2509 
Q 2775 2619 2662 2680 
Q 2550 2741 2406 2741 
Q 2056 2741 1856 2470 
Q 1656 2200 1656 1722 
L 1656 0 
L 538 0 
L 538 3500 
L 1656 3500 
L 1656 2988 
Q 1909 3294 2193 3439 
Q 2478 3584 2822 3584 
Q 3428 3584 3742 3212 
Q 4056 2841 4056 2131 
z
" transform="scale(0.015625)"/>
     <path id="DejaVuSans-Bold-75" d="M 500 1363 
L 500 3500 
L 1625 3500 
L 1625 3150 
Q 1625 2866 1622 2436 
Q 1619 2006 1619 1863 
Q 1619 1441 1641 1255 
Q 1663 1069 1716 984 
Q 1784 875 1895 815 
Q 2006 756 2150 756 
Q 2500 756 2700 1025 
Q 2900 1294 2900 1772 
L 2900 3500 
L 4019 3500 
L 4019 0 
L 2900 0 
L 2900 506 
Q 2647 200 2364 54 
Q 2081 -91 1741 -91 
Q 1134 -91 817 281 
Q 500 653 500 1363 
z
" transform="scale(0.015625)"/>
     <path id="DejaVuSans-Bold-32" d="M 1844 884 
L 3897 884 
L 3897 0 
L 506 0 
L 506 884 
L 2209 2388 
Q 2438 2594 2547 2791 
Q 2656 2988 2656 3200 
Q 2656 3528 2436 3728 
Q 2216 3928 1850 3928 
Q 1569 3928 1234 3808 
Q 900 3688 519 3450 
L 519 4475 
Q 925 4609 1322 4679 
Q 1719 4750 2100 4750 
Q 2938 4750 3402 4381 
Q 3866 4013 3866 3353 
Q 3866 2972 3669 2642 
Q 3472 2313 2841 1759 
L 1844 884 
z
" transform="scale(0.015625)"/>
     <path id="DejaVuSans-Bold-30" d="M 2944 2338 
Q 2944 3213 2780 3570 
Q 2616 3928 2228 3928 
Q 1841 3928 1675 3570 
Q 1509 3213 1509 2338 
Q 1509 1453 1675 1090 
Q 1841 728 2228 728 
Q 2613 728 2778 1090 
Q 2944 1453 2944 2338 
z
M 4147 2328 
Q 4147 1169 3647 539 
Q 3147 -91 2228 -91 
Q 1306 -91 806 539 
Q 306 1169 306 2328 
Q 306 3491 806 4120 
Q 1306 4750 2228 4750 
Q 3147 4750 3647 4120 
Q 4147 3491 4147 2328 
z
" transform="scale(0.015625)"/>
     <path id="DejaVuSans-Bold-31" d="M 750 831 
L 1813 831 
L 1813 3847 
L 722 3622 
L 722 4441 
L 1806 4666 
L 2950 4666 
L 2950 831 
L 4013 831 
L 4013 0 
L 750 0 
L 750 831 
z
" transform="scale(0.015625)"/>
    </defs>
    <use xlink:href="#DejaVuSans-Bold-41"/>
    <use xlink:href="#DejaVuSans-Bold-6e" transform="translate(77.392578 0)"/>
    <use xlink:href="#DejaVuSans-Bold-75" transform="translate(148.583984 0)"/>
    <use xlink:href="#DejaVuSans-Bold-74" transform="translate(219.775391 0)"/>
    <use xlink:href="#DejaVuSans-Bold-61" transform="translate(267.578125 0)"/>
    <use xlink:href="#DejaVuSans-Bold-32" transform="translate(335.058594 0)"/>
    <use xlink:href="#DejaVuSans-Bold-30" transform="translate(404.638672 0)"/>
    <use xlink:href="#DejaVuSans-Bold-32" transform="translate(474.21875 0)"/>
    <use xlink:href="#DejaVuSans-Bold-31" transform="translate(543.798828 0)"/>
   </g>
  </g>
 </g>
 <defs>
  <clipPath id="p40409b7775">
   <rect x="45.184063" y="48.24" width="429.66" height="316.008"/>
  </clipPath>
 </defs>
</svg>
