<?xml version="1.0" encoding="utf-8" standalone="no"?>
<!DOCTYPE svg PUBLIC "-//W3C//DTD SVG 1.1//EN"
  "http://www.w3.org/Graphics/SVG/1.1/DTD/svg11.dtd">
<svg xmlns:xlink="http://www.w3.org/1999/xlink" width="496.355pt" height="414.385812pt" viewBox="0 0 496.355 414.385812" xmlns="http://www.w3.org/2000/svg" version="1.1">
 <metadata>
  <rdf:RDF xmlns:dc="http://purl.org/dc/elements/1.1/" xmlns:cc="http://creativecommons.org/ns#" xmlns:rdf="http://www.w3.org/1999/02/22-rdf-syntax-ns#">
   <cc:Work>
    <dc:type rdf:resource="http://purl.org/dc/dcmitype/StillImage"/>
    <dc:date>2025-09-10T13:17:01.074251</dc:date>
    <dc:format>image/svg+xml</dc:format>
    <dc:creator>
     <cc:Agent>
      <dc:title>Matplotlib v3.10.6, https://matplotlib.org/</dc:title>
     </cc:Agent>
    </dc:creator>
   </cc:Work>
  </rdf:RDF>
 </metadata>
 <defs>
  <style type="text/css">*{stroke-linejoin: round; stroke-linecap: butt}</style>
 </defs>
 <g id="figure_1">
  <g id="patch_1">
   <path d="M 0 414.385812 
L 496.355 414.385812 
L 496.355 -0 
L 0 -0 
z
" style="fill: #ffffff"/>
  </g>
  <g id="axes_1">
   <g id="patch_2">
    <path d="M 59.495 364.248 
L 489.155 364.248 
L 489.155 48.24 
L 59.495 48.24 
z
" style="fill: #ffffff"/>
   </g>
   <g id="matplotlib.axis_1">
    <g id="xtick_1">
     <g id="line2d_1">
      <defs>
       <path id="mf4bc101bb2" d="M 0 0 
L 0 3.5 
" style="stroke: #000000; stroke-width: 0.8"/>
      </defs>
      <g>
       <use xlink:href="#mf4bc101bb2" x="79.025" y="364.248" style="stroke: #000000; stroke-width: 0.8"/>
      </g>
     </g>
     <g id="text_1">
      <!-- 0 -->
      <g transform="translate(74.253125 382.645656) scale(0.15 -0.15)">
       <defs>
        <path id="DejaVuSans-30" d="M 2034 4250 
Q 1547 4250 1301 3770 
Q 1056 3291 1056 2328 
Q 1056 1369 1301 889 
Q 1547 409 2034 409 
Q 2525 409 2770 889 
Q 3016 1369 3016 2328 
Q 3016 3291 2770 3770 
Q 2525 4250 2034 4250 
z
M 2034 4750 
Q 2819 4750 3233 4129 
Q 3647 3509 3647 2328 
Q 3647 1150 3233 529 
Q 2819 -91 2034 -91 
Q 1250 -91 836 529 
Q 422 1150 422 2328 
Q 422 3509 836 4129 
Q 1250 4750 2034 4750 
z
" transform="scale(0.015625)"/>
       </defs>
       <use xlink:href="#DejaVuSans-30"/>
      </g>
     </g>
    </g>
    <g id="xtick_2">
     <g id="line2d_2">
      <g>
       <use xlink:href="#mf4bc101bb2" x="134.825" y="364.248" style="stroke: #000000; stroke-width: 0.8"/>
      </g>
     </g>
     <g id="text_2">
      <!-- 1 -->
      <g transform="translate(130.053125 382.645656) scale(0.15 -0.15)">
       <defs>
        <path id="DejaVuSans-31" d="M 794 531 
L 1825 531 
L 1825 4091 
L 703 3866 
L 703 4441 
L 1819 4666 
L 2450 4666 
L 2450 531 
L 3481 531 
L 3481 0 
L 794 0 
L 794 531 
z
" transform="scale(0.015625)"/>
       </defs>
       <use xlink:href="#DejaVuSans-31"/>
      </g>
     </g>
    </g>
    <g id="xtick_3">
     <g id="line2d_3">
      <g>
       <use xlink:href="#mf4bc101bb2" x="190.625" y="364.248" style="stroke: #000000; stroke-width: 0.8"/>
      </g>
     </g>
     <g id="text_3">
      <!-- 2 -->
      <g transform="translate(185.853125 382.645656) scale(0.15 -0.15)">
       <defs>
        <path id="DejaVuSans-32" d="M 1228 531 
L 3431 531 
L 3431 0 
L 469 0 
L 469 531 
Q 828 903 1448 1529 
Q 2069 2156 2228 2338 
Q 2531 2678 2651 2914 
Q 2772 3150 2772 3378 
Q 2772 3750 2511 3984 
Q 2250 4219 1831 4219 
Q 1534 4219 1204 4116 
Q 875 4013 500 3803 
L 500 4441 
Q 881 4594 1212 4672 
Q 1544 4750 1819 4750 
Q 2544 4750 2975 4387 
Q 3406 4025 3406 3419 
Q 3406 3131 3298 2873 
Q 3191 2616 2906 2266 
Q 2828 2175 2409 1742 
Q 1991 1309 1228 531 
z
" transform="scale(0.015625)"/>
       </defs>
       <use xlink:href="#DejaVuSans-32"/>
      </g>
     </g>
    </g>
    <g id="xtick_4">
     <g id="line2d_4">
      <g>
       <use xlink:href="#mf4bc101bb2" x="246.425" y="364.248" style="stroke: #000000; stroke-width: 0.8"/>
      </g>
     </g>
     <g id="text_4">
      <!-- 3 -->
      <g transform="translate(241.653125 382.645656) scale(0.15 -0.15)">
       <defs>
        <path id="DejaVuSans-33" d="M 2597 2516 
Q 3050 2419 3304 2112 
Q 3559 1806 3559 1356 
Q 3559 666 3084 287 
Q 2609 -91 1734 -91 
Q 1441 -91 1130 -33 
Q 819 25 488 141 
L 488 750 
Q 750 597 1062 519 
Q 1375 441 1716 441 
Q 2309 441 2620 675 
Q 2931 909 2931 1356 
Q 2931 1769 2642 2001 
Q 2353 2234 1838 2234 
L 1294 2234 
L 1294 2753 
L 1863 2753 
Q 2328 2753 2575 2939 
Q 2822 3125 2822 3475 
Q 2822 3834 2567 4026 
Q 2313 4219 1838 4219 
Q 1578 4219 1281 4162 
Q 984 4106 628 3988 
L 628 4550 
Q 988 4650 1302 4700 
Q 1616 4750 1894 4750 
Q 2613 4750 3031 4423 
Q 3450 4097 3450 3541 
Q 3450 3153 3228 2886 
Q 3006 2619 2597 2516 
z
" transform="scale(0.015625)"/>
       </defs>
       <use xlink:href="#DejaVuSans-33"/>
      </g>
     </g>
    </g>
    <g id="xtick_5">
     <g id="line2d_5">
      <g>
       <use xlink:href="#mf4bc101bb2" x="302.225" y="364.248" style="stroke: #000000; stroke-width: 0.8"/>
      </g>
     </g>
     <g id="text_5">
      <!-- 4 -->
      <g transform="translate(297.453125 382.645656) scale(0.15 -0.15)">
       <defs>
        <path id="DejaVuSans-34" d="M 2419 4116 
L 825 1625 
L 2419 1625 
L 2419 4116 
z
M 2253 4666 
L 3047 4666 
L 3047 1625 
L 3713 1625 
L 3713 1100 
L 3047 1100 
L 3047 0 
L 2419 0 
L 2419 1100 
L 313 1100 
L 313 1709 
L 2253 4666 
z
" transform="scale(0.015625)"/>
       </defs>
       <use xlink:href="#DejaVuSans-34"/>
      </g>
     </g>
    </g>
    <g id="xtick_6">
     <g id="line2d_6">
      <g>
       <use xlink:href="#mf4bc101bb2" x="358.025" y="364.248" style="stroke: #000000; stroke-width: 0.8"/>
      </g>
     </g>
     <g id="text_6">
      <!-- 5 -->
      <g transform="translate(353.253125 382.645656) scale(0.15 -0.15)">
       <defs>
        <path id="DejaVuSans-35" d="M 691 4666 
L 3169 4666 
L 3169 4134 
L 1269 4134 
L 1269 2991 
Q 1406 3038 1543 3061 
Q 1681 3084 1819 3084 
Q 2600 3084 3056 2656 
Q 3513 2228 3513 1497 
Q 3513 744 3044 326 
Q 2575 -91 1722 -91 
Q 1428 -91 1123 -41 
Q 819 9 494 109 
L 494 744 
Q 775 591 1075 516 
Q 1375 441 1709 441 
Q 2250 441 2565 725 
Q 2881 1009 2881 1497 
Q 2881 1984 2565 2268 
Q 2250 2553 1709 2553 
Q 1456 2553 1204 2497 
Q 953 2441 691 2322 
L 691 4666 
z
" transform="scale(0.015625)"/>
       </defs>
       <use xlink:href="#DejaVuSans-35"/>
      </g>
     </g>
    </g>
    <g id="xtick_7">
     <g id="line2d_7">
      <g>
       <use xlink:href="#mf4bc101bb2" x="413.825" y="364.248" style="stroke: #000000; stroke-width: 0.8"/>
      </g>
     </g>
     <g id="text_7">
      <!-- 6 -->
      <g transform="translate(409.053125 382.645656) scale(0.15 -0.15)">
       <defs>
        <path id="DejaVuSans-36" d="M 2113 2584 
Q 1688 2584 1439 2293 
Q 1191 2003 1191 1497 
Q 1191 994 1439 701 
Q 1688 409 2113 409 
Q 2538 409 2786 701 
Q 3034 994 3034 1497 
Q 3034 2003 2786 2293 
Q 2538 2584 2113 2584 
z
M 3366 4563 
L 3366 3988 
Q 3128 4100 2886 4159 
Q 2644 4219 2406 4219 
Q 1781 4219 1451 3797 
Q 1122 3375 1075 2522 
Q 1259 2794 1537 2939 
Q 1816 3084 2150 3084 
Q 2853 3084 3261 2657 
Q 3669 2231 3669 1497 
Q 3669 778 3244 343 
Q 2819 -91 2113 -91 
Q 1303 -91 875 529 
Q 447 1150 447 2328 
Q 447 3434 972 4092 
Q 1497 4750 2381 4750 
Q 2619 4750 2861 4703 
Q 3103 4656 3366 4563 
z
" transform="scale(0.015625)"/>
       </defs>
       <use xlink:href="#DejaVuSans-36"/>
      </g>
     </g>
    </g>
    <g id="xtick_8">
     <g id="line2d_8">
      <g>
       <use xlink:href="#mf4bc101bb2" x="469.625" y="364.248" style="stroke: #000000; stroke-width: 0.8"/>
      </g>
     </g>
     <g id="text_8">
      <!-- 7 -->
      <g transform="translate(464.853125 382.645656) scale(0.15 -0.15)">
       <defs>
        <path id="DejaVuSans-37" d="M 525 4666 
L 3525 4666 
L 3525 4397 
L 1831 0 
L 1172 0 
L 2766 4134 
L 525 4134 
L 525 4666 
z
" transform="scale(0.015625)"/>
       </defs>
       <use xlink:href="#DejaVuSans-37"/>
      </g>
     </g>
    </g>
    <g id="text_9">
     <!-- time [hr] -->
     <g transform="translate(229.250469 403.442375) scale(0.18 -0.18)">
      <defs>
       <path id="DejaVuSans-Bold-74" d="M 1759 4494 
L 1759 3500 
L 2913 3500 
L 2913 2700 
L 1759 2700 
L 1759 1216 
Q 1759 972 1856 886 
Q 1953 800 2241 800 
L 2816 800 
L 2816 0 
L 1856 0 
Q 1194 0 917 276 
Q 641 553 641 1216 
L 641 2700 
L 84 2700 
L 84 3500 
L 641 3500 
L 641 4494 
L 1759 4494 
z
" transform="scale(0.015625)"/>
       <path id="DejaVuSans-Bold-69" d="M 538 3500 
L 1656 3500 
L 1656 0 
L 538 0 
L 538 3500 
z
M 538 4863 
L 1656 4863 
L 1656 3950 
L 538 3950 
L 538 4863 
z
" transform="scale(0.015625)"/>
       <path id="DejaVuSans-Bold-6d" d="M 3781 2919 
Q 3994 3244 4286 3414 
Q 4578 3584 4928 3584 
Q 5531 3584 5847 3212 
Q 6163 2841 6163 2131 
L 6163 0 
L 5038 0 
L 5038 1825 
Q 5041 1866 5042 1909 
Q 5044 1953 5044 2034 
Q 5044 2406 4934 2573 
Q 4825 2741 4581 2741 
Q 4263 2741 4089 2478 
Q 3916 2216 3909 1719 
L 3909 0 
L 2784 0 
L 2784 1825 
Q 2784 2406 2684 2573 
Q 2584 2741 2328 2741 
Q 2006 2741 1831 2477 
Q 1656 2213 1656 1722 
L 1656 0 
L 531 0 
L 531 3500 
L 1656 3500 
L 1656 2988 
Q 1863 3284 2130 3434 
Q 2397 3584 2719 3584 
Q 3081 3584 3359 3409 
Q 3638 3234 3781 2919 
z
" transform="scale(0.015625)"/>
       <path id="DejaVuSans-Bold-65" d="M 4031 1759 
L 4031 1441 
L 1416 1441 
Q 1456 1047 1700 850 
Q 1944 653 2381 653 
Q 2734 653 3104 758 
Q 3475 863 3866 1075 
L 3866 213 
Q 3469 63 3072 -14 
Q 2675 -91 2278 -91 
Q 1328 -91 801 392 
Q 275 875 275 1747 
Q 275 2603 792 3093 
Q 1309 3584 2216 3584 
Q 3041 3584 3536 3087 
Q 4031 2591 4031 1759 
z
M 2881 2131 
Q 2881 2450 2695 2645 
Q 2509 2841 2209 2841 
Q 1884 2841 1681 2658 
Q 1478 2475 1428 2131 
L 2881 2131 
z
" transform="scale(0.015625)"/>
       <path id="DejaVuSans-Bold-20" transform="scale(0.015625)"/>
       <path id="DejaVuSans-Bold-5b" d="M 550 4863 
L 2491 4863 
L 2491 4159 
L 1613 4159 
L 1613 -141 
L 2491 -141 
L 2491 -844 
L 550 -844 
L 550 4863 
z
" transform="scale(0.015625)"/>
       <path id="DejaVuSans-Bold-68" d="M 4056 2131 
L 4056 0 
L 2931 0 
L 2931 347 
L 2931 1625 
Q 2931 2084 2911 2256 
Q 2891 2428 2841 2509 
Q 2775 2619 2662 2680 
Q 2550 2741 2406 2741 
Q 2056 2741 1856 2470 
Q 1656 2200 1656 1722 
L 1656 0 
L 538 0 
L 538 4863 
L 1656 4863 
L 1656 2988 
Q 1909 3294 2193 3439 
Q 2478 3584 2822 3584 
Q 3428 3584 3742 3212 
Q 4056 2841 4056 2131 
z
" transform="scale(0.015625)"/>
       <path id="DejaVuSans-Bold-72" d="M 3138 2547 
Q 2991 2616 2845 2648 
Q 2700 2681 2553 2681 
Q 2122 2681 1889 2404 
Q 1656 2128 1656 1613 
L 1656 0 
L 538 0 
L 538 3500 
L 1656 3500 
L 1656 2925 
Q 1872 3269 2151 3426 
Q 2431 3584 2822 3584 
Q 2878 3584 2943 3579 
Q 3009 3575 3134 3559 
L 3138 2547 
z
" transform="scale(0.015625)"/>
       <path id="DejaVuSans-Bold-5d" d="M 2375 -844 
L 434 -844 
L 434 -141 
L 1313 -141 
L 1313 4159 
L 434 4159 
L 434 4863 
L 2375 4863 
L 2375 -844 
z
" transform="scale(0.015625)"/>
      </defs>
      <use xlink:href="#DejaVuSans-Bold-74"/>
      <use xlink:href="#DejaVuSans-Bold-69" transform="translate(47.802734 0)"/>
      <use xlink:href="#DejaVuSans-Bold-6d" transform="translate(82.080078 0)"/>
      <use xlink:href="#DejaVuSans-Bold-65" transform="translate(186.279297 0)"/>
      <use xlink:href="#DejaVuSans-Bold-20" transform="translate(254.101562 0)"/>
      <use xlink:href="#DejaVuSans-Bold-5b" transform="translate(288.916016 0)"/>
      <use xlink:href="#DejaVuSans-Bold-68" transform="translate(334.619141 0)"/>
      <use xlink:href="#DejaVuSans-Bold-72" transform="translate(405.810547 0)"/>
      <use xlink:href="#DejaVuSans-Bold-5d" transform="translate(455.126953 0)"/>
     </g>
    </g>
   </g>
   <g id="matplotlib.axis_2">
    <g id="ytick_1">
     <g id="line2d_9">
      <defs>
       <path id="mdebaa53d35" d="M 0 0 
L -3.5 0 
" style="stroke: #000000; stroke-width: 0.8"/>
      </defs>
      <g>
       <use xlink:href="#mdebaa53d35" x="59.495" y="349.884" style="stroke: #000000; stroke-width: 0.8"/>
      </g>
     </g>
     <g id="text_10">
      <!-- 0.0 -->
      <g transform="translate(28.640313 355.582828) scale(0.15 -0.15)">
       <defs>
        <path id="DejaVuSans-2e" d="M 684 794 
L 1344 794 
L 1344 0 
L 684 0 
L 684 794 
z
" transform="scale(0.015625)"/>
       </defs>
       <use xlink:href="#DejaVuSans-30"/>
       <use xlink:href="#DejaVuSans-2e" transform="translate(63.623047 0)"/>
       <use xlink:href="#DejaVuSans-30" transform="translate(95.410156 0)"/>
      </g>
     </g>
    </g>
    <g id="ytick_2">
     <g id="line2d_10">
      <g>
       <use xlink:href="#mdebaa53d35" x="59.495" y="311.374203" style="stroke: #000000; stroke-width: 0.8"/>
      </g>
     </g>
     <g id="text_11">
      <!-- 0.5 -->
      <g transform="translate(28.640313 317.073031) scale(0.15 -0.15)">
       <use xlink:href="#DejaVuSans-30"/>
       <use xlink:href="#DejaVuSans-2e" transform="translate(63.623047 0)"/>
       <use xlink:href="#DejaVuSans-35" transform="translate(95.410156 0)"/>
      </g>
     </g>
    </g>
    <g id="ytick_3">
     <g id="line2d_11">
      <g>
       <use xlink:href="#mdebaa53d35" x="59.495" y="272.864406" style="stroke: #000000; stroke-width: 0.8"/>
      </g>
     </g>
     <g id="text_12">
      <!-- 1.0 -->
      <g transform="translate(28.640313 278.563235) scale(0.15 -0.15)">
       <use xlink:href="#DejaVuSans-31"/>
       <use xlink:href="#DejaVuSans-2e" transform="translate(63.623047 0)"/>
       <use xlink:href="#DejaVuSans-30" transform="translate(95.410156 0)"/>
      </g>
     </g>
    </g>
    <g id="ytick_4">
     <g id="line2d_12">
      <g>
       <use xlink:href="#mdebaa53d35" x="59.495" y="234.35461" style="stroke: #000000; stroke-width: 0.8"/>
      </g>
     </g>
     <g id="text_13">
      <!-- 1.5 -->
      <g transform="translate(28.640313 240.053438) scale(0.15 -0.15)">
       <use xlink:href="#DejaVuSans-31"/>
       <use xlink:href="#DejaVuSans-2e" transform="translate(63.623047 0)"/>
       <use xlink:href="#DejaVuSans-35" transform="translate(95.410156 0)"/>
      </g>
     </g>
    </g>
    <g id="ytick_5">
     <g id="line2d_13">
      <g>
       <use xlink:href="#mdebaa53d35" x="59.495" y="195.844813" style="stroke: #000000; stroke-width: 0.8"/>
      </g>
     </g>
     <g id="text_14">
      <!-- 2.0 -->
      <g transform="translate(28.640313 201.543641) scale(0.15 -0.15)">
       <use xlink:href="#DejaVuSans-32"/>
       <use xlink:href="#DejaVuSans-2e" transform="translate(63.623047 0)"/>
       <use xlink:href="#DejaVuSans-30" transform="translate(95.410156 0)"/>
      </g>
     </g>
    </g>
    <g id="ytick_6">
     <g id="line2d_14">
      <g>
       <use xlink:href="#mdebaa53d35" x="59.495" y="157.335016" style="stroke: #000000; stroke-width: 0.8"/>
      </g>
     </g>
     <g id="text_15">
      <!-- 2.5 -->
      <g transform="translate(28.640313 163.033844) scale(0.15 -0.15)">
       <use xlink:href="#DejaVuSans-32"/>
       <use xlink:href="#DejaVuSans-2e" transform="translate(63.623047 0)"/>
       <use xlink:href="#DejaVuSans-35" transform="translate(95.410156 0)"/>
      </g>
     </g>
    </g>
    <g id="ytick_7">
     <g id="line2d_15">
      <g>
       <use xlink:href="#mdebaa53d35" x="59.495" y="118.825219" style="stroke: #000000; stroke-width: 0.8"/>
      </g>
     </g>
     <g id="text_16">
      <!-- 3.0 -->
      <g transform="translate(28.640313 124.524048) scale(0.15 -0.15)">
       <use xlink:href="#DejaVuSans-33"/>
       <use xlink:href="#DejaVuSans-2e" transform="translate(63.623047 0)"/>
       <use xlink:href="#DejaVuSans-30" transform="translate(95.410156 0)"/>
      </g>
     </g>
    </g>
    <g id="ytick_8">
     <g id="line2d_16">
      <g>
       <use xlink:href="#mdebaa53d35" x="59.495" y="80.315423" style="stroke: #000000; stroke-width: 0.8"/>
      </g>
     </g>
     <g id="text_17">
      <!-- 3.5 -->
      <g transform="translate(28.640313 86.014251) scale(0.15 -0.15)">
       <use xlink:href="#DejaVuSans-33"/>
       <use xlink:href="#DejaVuSans-2e" transform="translate(63.623047 0)"/>
       <use xlink:href="#DejaVuSans-35" transform="translate(95.410156 0)"/>
      </g>
     </g>
    </g>
    <g id="text_18">
     <!-- captopril [µM] -->
     <g transform="translate(20.877187 278.568844) rotate(-90) scale(0.18 -0.18)">
      <defs>
       <path id="DejaVuSans-Bold-63" d="M 3366 3391 
L 3366 2478 
Q 3138 2634 2908 2709 
Q 2678 2784 2431 2784 
Q 1963 2784 1702 2511 
Q 1441 2238 1441 1747 
Q 1441 1256 1702 982 
Q 1963 709 2431 709 
Q 2694 709 2930 787 
Q 3166 866 3366 1019 
L 3366 103 
Q 3103 6 2833 -42 
Q 2563 -91 2291 -91 
Q 1344 -91 809 395 
Q 275 881 275 1747 
Q 275 2613 809 3098 
Q 1344 3584 2291 3584 
Q 2566 3584 2833 3536 
Q 3100 3488 3366 3391 
z
" transform="scale(0.015625)"/>
       <path id="DejaVuSans-Bold-61" d="M 2106 1575 
Q 1756 1575 1579 1456 
Q 1403 1338 1403 1106 
Q 1403 894 1545 773 
Q 1688 653 1941 653 
Q 2256 653 2472 879 
Q 2688 1106 2688 1447 
L 2688 1575 
L 2106 1575 
z
M 3816 1997 
L 3816 0 
L 2688 0 
L 2688 519 
Q 2463 200 2181 54 
Q 1900 -91 1497 -91 
Q 953 -91 614 226 
Q 275 544 275 1050 
Q 275 1666 698 1953 
Q 1122 2241 2028 2241 
L 2688 2241 
L 2688 2328 
Q 2688 2594 2478 2717 
Q 2269 2841 1825 2841 
Q 1466 2841 1156 2769 
Q 847 2697 581 2553 
L 581 3406 
Q 941 3494 1303 3539 
Q 1666 3584 2028 3584 
Q 2975 3584 3395 3211 
Q 3816 2838 3816 1997 
z
" transform="scale(0.015625)"/>
       <path id="DejaVuSans-Bold-70" d="M 1656 506 
L 1656 -1331 
L 538 -1331 
L 538 3500 
L 1656 3500 
L 1656 2988 
Q 1888 3294 2169 3439 
Q 2450 3584 2816 3584 
Q 3463 3584 3878 3070 
Q 4294 2556 4294 1747 
Q 4294 938 3878 423 
Q 3463 -91 2816 -91 
Q 2450 -91 2169 54 
Q 1888 200 1656 506 
z
M 2400 2772 
Q 2041 2772 1848 2508 
Q 1656 2244 1656 1747 
Q 1656 1250 1848 986 
Q 2041 722 2400 722 
Q 2759 722 2948 984 
Q 3138 1247 3138 1747 
Q 3138 2247 2948 2509 
Q 2759 2772 2400 2772 
z
" transform="scale(0.015625)"/>
       <path id="DejaVuSans-Bold-6f" d="M 2203 2784 
Q 1831 2784 1636 2517 
Q 1441 2250 1441 1747 
Q 1441 1244 1636 976 
Q 1831 709 2203 709 
Q 2569 709 2762 976 
Q 2956 1244 2956 1747 
Q 2956 2250 2762 2517 
Q 2569 2784 2203 2784 
z
M 2203 3584 
Q 3106 3584 3614 3096 
Q 4122 2609 4122 1747 
Q 4122 884 3614 396 
Q 3106 -91 2203 -91 
Q 1297 -91 786 396 
Q 275 884 275 1747 
Q 275 2609 786 3096 
Q 1297 3584 2203 3584 
z
" transform="scale(0.015625)"/>
       <path id="DejaVuSans-Bold-6c" d="M 538 4863 
L 1656 4863 
L 1656 0 
L 538 0 
L 538 4863 
z
" transform="scale(0.015625)"/>
       <path id="DejaVuSans-Bold-b5" d="M 544 -1338 
L 544 3500 
L 1672 3500 
L 1672 1466 
Q 1672 1103 1828 926 
Q 1984 750 2303 750 
Q 2625 750 2781 926 
Q 2938 1103 2938 1466 
L 2938 3500 
L 4063 3500 
L 4063 1159 
Q 4063 938 4114 850 
Q 4166 763 4288 763 
Q 4344 763 4395 778 
Q 4447 794 4506 831 
L 4506 50 
Q 4341 -22 4195 -56 
Q 4050 -91 3909 -91 
Q 3631 -91 3454 26 
Q 3278 144 3169 403 
Q 3022 156 2811 32 
Q 2600 -91 2322 -91 
Q 2091 -91 1928 -17 
Q 1766 56 1672 206 
L 1672 -1338 
L 544 -1338 
z
" transform="scale(0.015625)"/>
       <path id="DejaVuSans-Bold-4d" d="M 588 4666 
L 2119 4666 
L 3181 2169 
L 4250 4666 
L 5778 4666 
L 5778 0 
L 4641 0 
L 4641 3413 
L 3566 897 
L 2803 897 
L 1728 3413 
L 1728 0 
L 588 0 
L 588 4666 
z
" transform="scale(0.015625)"/>
      </defs>
      <use xlink:href="#DejaVuSans-Bold-63"/>
      <use xlink:href="#DejaVuSans-Bold-61" transform="translate(59.277344 0)"/>
      <use xlink:href="#DejaVuSans-Bold-70" transform="translate(126.757812 0)"/>
      <use xlink:href="#DejaVuSans-Bold-74" transform="translate(198.339844 0)"/>
      <use xlink:href="#DejaVuSans-Bold-6f" transform="translate(246.142578 0)"/>
      <use xlink:href="#DejaVuSans-Bold-70" transform="translate(314.84375 0)"/>
      <use xlink:href="#DejaVuSans-Bold-72" transform="translate(386.425781 0)"/>
      <use xlink:href="#DejaVuSans-Bold-69" transform="translate(435.742188 0)"/>
      <use xlink:href="#DejaVuSans-Bold-6c" transform="translate(470.019531 0)"/>
      <use xlink:href="#DejaVuSans-Bold-20" transform="translate(504.296875 0)"/>
      <use xlink:href="#DejaVuSans-Bold-5b" transform="translate(539.111328 0)"/>
      <use xlink:href="#DejaVuSans-Bold-b5" transform="translate(584.814453 0)"/>
      <use xlink:href="#DejaVuSans-Bold-4d" transform="translate(658.398438 0)"/>
      <use xlink:href="#DejaVuSans-Bold-5d" transform="translate(757.910156 0)"/>
     </g>
    </g>
   </g>
   <g id="LineCollection_1">
    <path d="M 92.975 340.099331 
L 92.975 300.960657 
" clip-path="url(#p7efb563f4a)" style="fill: none; stroke: #3c33ff"/>
    <path d="M 106.925 331.791594 
L 106.925 270.498954 
" clip-path="url(#p7efb563f4a)" style="fill: none; stroke: #3c33ff"/>
    <path d="M 120.875 320.714611 
L 120.875 292.65292 
" clip-path="url(#p7efb563f4a)" style="fill: none; stroke: #3c33ff"/>
    <path d="M 134.825 325.88387 
L 134.825 293.760618 
" clip-path="url(#p7efb563f4a)" style="fill: none; stroke: #3c33ff"/>
    <path d="M 162.725 332.714676 
L 162.725 309.453011 
" clip-path="url(#p7efb563f4a)" style="fill: none; stroke: #3c33ff"/>
    <path d="M 190.625 334.930073 
L 190.625 321.637693 
" clip-path="url(#p7efb563f4a)" style="fill: none; stroke: #3c33ff"/>
    <path d="M 218.525 336.59162 
L 218.525 326.253102 
" clip-path="url(#p7efb563f4a)" style="fill: none; stroke: #3c33ff"/>
    <path d="M 246.425 336.407004 
L 246.425 331.97621 
" clip-path="url(#p7efb563f4a)" style="fill: none; stroke: #3c33ff"/>
    <path d="M 302.225 340.099331 
L 302.225 331.606978 
" clip-path="url(#p7efb563f4a)" style="fill: none; stroke: #3c33ff"/>
    <path d="M 358.025 348.591685 
L 358.025 334.930073 
" clip-path="url(#p7efb563f4a)" style="fill: none; stroke: #3c33ff"/>
    <path d="M 413.825 349.330151 
L 413.825 343.053194 
" clip-path="url(#p7efb563f4a)" style="fill: none; stroke: #3c33ff"/>
   </g>
   <g id="LineCollection_2">
    <path d="M 92.975 340.653181 
L 92.975 280.468239 
" clip-path="url(#p7efb563f4a)" style="fill: none; stroke: #000000"/>
    <path d="M 106.925 324.960788 
L 106.925 211.606326 
" clip-path="url(#p7efb563f4a)" style="fill: none; stroke: #000000"/>
    <path d="M 120.875 303.545287 
L 120.875 244.09881 
" clip-path="url(#p7efb563f4a)" style="fill: none; stroke: #000000"/>
    <path d="M 134.825 314.253037 
L 134.825 242.991112 
" clip-path="url(#p7efb563f4a)" style="fill: none; stroke: #000000"/>
    <path d="M 162.725 321.453076 
L 162.725 290.806756 
" clip-path="url(#p7efb563f4a)" style="fill: none; stroke: #000000"/>
    <path d="M 190.625 330.683896 
L 190.625 310.00686 
" clip-path="url(#p7efb563f4a)" style="fill: none; stroke: #000000"/>
    <path d="M 218.525 331.791594 
L 218.525 317.391516 
" clip-path="url(#p7efb563f4a)" style="fill: none; stroke: #000000"/>
    <path d="M 246.425 334.006991 
L 246.425 324.776171 
" clip-path="url(#p7efb563f4a)" style="fill: none; stroke: #000000"/>
    <path d="M 302.225 335.668538 
L 302.225 332.714676 
" clip-path="url(#p7efb563f4a)" style="fill: none; stroke: #000000"/>
    <path d="M 358.025 339.914715 
L 358.025 335.483922 
" clip-path="url(#p7efb563f4a)" style="fill: none; stroke: #000000"/>
    <path d="M 413.825 342.868577 
L 413.825 335.483922 
" clip-path="url(#p7efb563f4a)" style="fill: none; stroke: #000000"/>
   </g>
   <g id="line2d_17">
    <path d="M 79.025 349.884 
L 81.9545 286.770707 
L 82.931 272.360624 
L 83.9075 260.784679 
L 84.884 251.359467 
L 85.8605 243.591089 
L 86.837 237.120443 
L 87.8135 231.684409 
L 88.79 227.088353 
L 89.7665 223.186643 
L 90.743 219.868843 
L 91.7195 217.049903 
L 92.696 214.663195 
L 93.6725 212.655561 
L 94.649 210.983775 
L 95.6255 209.612021 
L 96.602 208.510079 
L 97.5785 207.652021 
L 98.555 207.015266 
L 99.5315 206.579894 
L 100.508 206.328136 
L 101.4845 206.244 
L 102.461 206.312988 
L 103.4375 206.521879 
L 105.3905 207.311908 
L 107.3435 208.528326 
L 109.2965 210.098044 
L 111.2495 211.95844 
L 114.179 215.178468 
L 117.1085 218.782393 
L 121.0145 223.980811 
L 127.85 233.589567 
L 136.6385 245.92433 
L 142.4975 253.748268 
L 147.38 259.913974 
L 152.2625 265.721 
L 157.145 271.156406 
L 162.0275 276.220635 
L 166.91 280.92286 
L 171.7925 285.277725 
L 176.675 289.303098 
L 181.5575 293.018521 
L 186.44 296.444159 
L 191.3225 299.600098 
L 196.205 302.505893 
L 201.0875 305.18028 
L 206.9465 308.109008 
L 212.8055 310.758661 
L 218.6645 313.155607 
L 224.5235 315.32398 
L 231.359 317.594083 
L 238.1945 319.614404 
L 245.03 321.413011 
L 252.842 323.228974 
L 260.654 324.820725 
L 269.4425 326.378986 
L 279.2075 327.862763 
L 288.9725 329.125486 
L 299.714 330.300333 
L 312.4085 331.450034 
L 326.0795 332.454555 
L 341.7035 333.369383 
L 359.2805 334.170846 
L 379.787 334.880767 
L 405.176 335.523622 
L 436.424 336.079235 
L 469.625 336.493279 
L 469.625 336.493279 
" clip-path="url(#p7efb563f4a)" style="fill: none; stroke: #3c33ff; stroke-width: 2; stroke-linecap: square"/>
   </g>
   <g id="line2d_18">
    <path d="M 92.975 320.529994 
L 106.925 301.145274 
L 120.875 306.683765 
L 134.825 309.822244 
L 162.725 321.083844 
L 190.625 328.283883 
L 218.525 331.422361 
L 246.425 334.191607 
L 302.225 335.853155 
L 358.025 341.760879 
L 413.825 346.191672 
" clip-path="url(#p7efb563f4a)" style="fill: none; stroke-dasharray: 3.7,1.6; stroke-dashoffset: 0; stroke: #3c33ff"/>
    <defs>
     <path id="mf8982a5bbe" d="M -3 3 
L 3 3 
L 3 -3 
L -3 -3 
z
" style="stroke: #000000; stroke-linejoin: miter"/>
    </defs>
    <g clip-path="url(#p7efb563f4a)">
     <use xlink:href="#mf8982a5bbe" x="92.975" y="320.529994" style="fill: #3c33ff; stroke: #000000; stroke-linejoin: miter"/>
     <use xlink:href="#mf8982a5bbe" x="106.925" y="301.145274" style="fill: #3c33ff; stroke: #000000; stroke-linejoin: miter"/>
     <use xlink:href="#mf8982a5bbe" x="120.875" y="306.683765" style="fill: #3c33ff; stroke: #000000; stroke-linejoin: miter"/>
     <use xlink:href="#mf8982a5bbe" x="134.825" y="309.822244" style="fill: #3c33ff; stroke: #000000; stroke-linejoin: miter"/>
     <use xlink:href="#mf8982a5bbe" x="162.725" y="321.083844" style="fill: #3c33ff; stroke: #000000; stroke-linejoin: miter"/>
     <use xlink:href="#mf8982a5bbe" x="190.625" y="328.283883" style="fill: #3c33ff; stroke: #000000; stroke-linejoin: miter"/>
     <use xlink:href="#mf8982a5bbe" x="218.525" y="331.422361" style="fill: #3c33ff; stroke: #000000; stroke-linejoin: miter"/>
     <use xlink:href="#mf8982a5bbe" x="246.425" y="334.191607" style="fill: #3c33ff; stroke: #000000; stroke-linejoin: miter"/>
     <use xlink:href="#mf8982a5bbe" x="302.225" y="335.853155" style="fill: #3c33ff; stroke: #000000; stroke-linejoin: miter"/>
     <use xlink:href="#mf8982a5bbe" x="358.025" y="341.760879" style="fill: #3c33ff; stroke: #000000; stroke-linejoin: miter"/>
     <use xlink:href="#mf8982a5bbe" x="413.825" y="346.191672" style="fill: #3c33ff; stroke: #000000; stroke-linejoin: miter"/>
    </g>
   </g>
   <g id="line2d_19">
    <path d="M 79.025 349.884 
L 81.9545 223.657414 
L 82.931 194.837248 
L 83.9075 171.685358 
L 84.884 152.834934 
L 85.8605 137.298177 
L 86.837 124.356886 
L 87.8135 113.484819 
L 88.79 104.292705 
L 89.7665 96.489287 
L 90.743 89.853687 
L 91.7195 84.215806 
L 92.696 79.44239 
L 93.6725 75.427122 
L 94.649 72.08355 
L 95.6255 69.340043 
L 96.602 67.136158 
L 97.5785 65.420041 
L 98.555 64.146532 
L 99.5315 63.275788 
L 100.508 62.772272 
L 101.4845 62.604 
L 102.461 62.741976 
L 103.4375 63.159758 
L 104.414 63.833125 
L 105.3905 64.739815 
L 106.367 65.859307 
L 108.32 68.662321 
L 110.273 72.106921 
L 112.226 76.077046 
L 114.179 80.472935 
L 117.1085 87.680786 
L 121.0145 98.077621 
L 126.8735 114.518879 
L 136.6385 141.964659 
L 141.521 155.065079 
L 146.4035 167.533622 
L 151.286 179.294278 
L 155.192 188.170095 
L 159.098 196.568561 
L 163.004 204.495268 
L 166.91 211.961719 
L 170.816 218.98343 
L 174.722 225.57852 
L 178.628 231.766674 
L 182.534 237.568368 
L 186.44 243.004318 
L 190.346 248.095074 
L 194.252 252.860745 
L 198.158 257.320798 
L 202.064 261.493938 
L 205.97 265.398025 
L 210.8525 269.925555 
L 215.735 274.090325 
L 220.6175 277.921332 
L 225.5 281.445454 
L 230.3825 284.687542 
L 235.265 287.670526 
L 240.1475 290.415537 
L 246.0065 293.422695 
L 251.8655 296.145743 
L 257.7245 298.612377 
L 263.5835 300.847598 
L 270.419 303.192855 
L 277.2545 305.285816 
L 284.09 307.154904 
L 291.902 309.049055 
L 299.714 310.716667 
L 308.5025 312.357649 
L 318.2675 313.930227 
L 328.0325 315.278602 
L 338.774 316.544167 
L 350.492 317.708429 
L 364.163 318.834261 
L 378.8105 319.818795 
L 396.3875 320.765885 
L 415.9175 321.592786 
L 439.3535 322.359544 
L 468.6485 323.081863 
L 469.625 323.102558 
L 469.625 323.102558 
" clip-path="url(#p7efb563f4a)" style="fill: none; stroke: #000000; stroke-width: 2; stroke-linecap: square"/>
   </g>
   <g id="line2d_20">
    <path d="M 92.975 310.56071 
L 106.925 268.283557 
L 120.875 273.822049 
L 134.825 278.622075 
L 162.725 306.129916 
L 190.625 320.345378 
L 218.525 324.591555 
L 246.425 329.391581 
L 302.225 334.191607 
L 358.025 337.699318 
L 413.825 339.17625 
" clip-path="url(#p7efb563f4a)" style="fill: none; stroke-dasharray: 3.7,1.6; stroke-dashoffset: 0; stroke: #000000"/>
    <defs>
     <path id="mb502ecb717" d="M -3 3 
L 3 3 
L 3 -3 
L -3 -3 
z
" style="stroke: #000000; stroke-linejoin: miter"/>
    </defs>
    <g clip-path="url(#p7efb563f4a)">
     <use xlink:href="#mb502ecb717" x="92.975" y="310.56071" style="stroke: #000000; stroke-linejoin: miter"/>
     <use xlink:href="#mb502ecb717" x="106.925" y="268.283557" style="stroke: #000000; stroke-linejoin: miter"/>
     <use xlink:href="#mb502ecb717" x="120.875" y="273.822049" style="stroke: #000000; stroke-linejoin: miter"/>
     <use xlink:href="#mb502ecb717" x="134.825" y="278.622075" style="stroke: #000000; stroke-linejoin: miter"/>
     <use xlink:href="#mb502ecb717" x="162.725" y="306.129916" style="stroke: #000000; stroke-linejoin: miter"/>
     <use xlink:href="#mb502ecb717" x="190.625" y="320.345378" style="stroke: #000000; stroke-linejoin: miter"/>
     <use xlink:href="#mb502ecb717" x="218.525" y="324.591555" style="stroke: #000000; stroke-linejoin: miter"/>
     <use xlink:href="#mb502ecb717" x="246.425" y="329.391581" style="stroke: #000000; stroke-linejoin: miter"/>
     <use xlink:href="#mb502ecb717" x="302.225" y="334.191607" style="stroke: #000000; stroke-linejoin: miter"/>
     <use xlink:href="#mb502ecb717" x="358.025" y="337.699318" style="stroke: #000000; stroke-linejoin: miter"/>
     <use xlink:href="#mb502ecb717" x="413.825" y="339.17625" style="stroke: #000000; stroke-linejoin: miter"/>
    </g>
   </g>
   <g id="patch_3">
    <path d="M 59.495 364.248 
L 59.495 48.24 
" style="fill: none; stroke: #000000; stroke-width: 0.8; stroke-linejoin: miter; stroke-linecap: square"/>
   </g>
   <g id="patch_4">
    <path d="M 489.155 364.248 
L 489.155 48.24 
" style="fill: none; stroke: #000000; stroke-width: 0.8; stroke-linejoin: miter; stroke-linecap: square"/>
   </g>
   <g id="patch_5">
    <path d="M 59.495 364.248 
L 489.155 364.248 
" style="fill: none; stroke: #000000; stroke-width: 0.8; stroke-linejoin: miter; stroke-linecap: square"/>
   </g>
   <g id="patch_6">
    <path d="M 59.495 48.24 
L 489.155 48.24 
" style="fill: none; stroke: #000000; stroke-width: 0.8; stroke-linejoin: miter; stroke-linecap: square"/>
   </g>
   <g id="legend_1">
    <g id="patch_7">
     <path d="M 324.98 114.9525 
L 482.155 114.9525 
Q 484.155 114.9525 484.155 112.9525 
L 484.155 55.24 
Q 484.155 53.24 482.155 53.24 
L 324.98 53.24 
Q 322.98 53.24 322.98 55.24 
L 322.98 112.9525 
Q 322.98 114.9525 324.98 114.9525 
z
" style="fill: #ffffff; opacity: 0.8; stroke: #cccccc; stroke-linejoin: miter"/>
    </g>
    <g id="line2d_21">
     <path d="M 326.98 61.338437 
L 346.98 61.338437 
" style="fill: none; stroke: #3c33ff; stroke-width: 2; stroke-linecap: square"/>
    </g>
    <g id="line2d_22"/>
    <g id="text_19">
     <!-- sim: 25mg PO -->
     <g transform="translate(354.98 64.838437) scale(0.1 -0.1)">
      <defs>
       <path id="DejaVuSans-73" d="M 2834 3397 
L 2834 2853 
Q 2591 2978 2328 3040 
Q 2066 3103 1784 3103 
Q 1356 3103 1142 2972 
Q 928 2841 928 2578 
Q 928 2378 1081 2264 
Q 1234 2150 1697 2047 
L 1894 2003 
Q 2506 1872 2764 1633 
Q 3022 1394 3022 966 
Q 3022 478 2636 193 
Q 2250 -91 1575 -91 
Q 1294 -91 989 -36 
Q 684 19 347 128 
L 347 722 
Q 666 556 975 473 
Q 1284 391 1588 391 
Q 1994 391 2212 530 
Q 2431 669 2431 922 
Q 2431 1156 2273 1281 
Q 2116 1406 1581 1522 
L 1381 1569 
Q 847 1681 609 1914 
Q 372 2147 372 2553 
Q 372 3047 722 3315 
Q 1072 3584 1716 3584 
Q 2034 3584 2315 3537 
Q 2597 3491 2834 3397 
z
" transform="scale(0.015625)"/>
       <path id="DejaVuSans-69" d="M 603 3500 
L 1178 3500 
L 1178 0 
L 603 0 
L 603 3500 
z
M 603 4863 
L 1178 4863 
L 1178 4134 
L 603 4134 
L 603 4863 
z
" transform="scale(0.015625)"/>
       <path id="DejaVuSans-6d" d="M 3328 2828 
Q 3544 3216 3844 3400 
Q 4144 3584 4550 3584 
Q 5097 3584 5394 3201 
Q 5691 2819 5691 2113 
L 5691 0 
L 5113 0 
L 5113 2094 
Q 5113 2597 4934 2840 
Q 4756 3084 4391 3084 
Q 3944 3084 3684 2787 
Q 3425 2491 3425 1978 
L 3425 0 
L 2847 0 
L 2847 2094 
Q 2847 2600 2669 2842 
Q 2491 3084 2119 3084 
Q 1678 3084 1418 2786 
Q 1159 2488 1159 1978 
L 1159 0 
L 581 0 
L 581 3500 
L 1159 3500 
L 1159 2956 
Q 1356 3278 1631 3431 
Q 1906 3584 2284 3584 
Q 2666 3584 2933 3390 
Q 3200 3197 3328 2828 
z
" transform="scale(0.015625)"/>
       <path id="DejaVuSans-3a" d="M 750 794 
L 1409 794 
L 1409 0 
L 750 0 
L 750 794 
z
M 750 3309 
L 1409 3309 
L 1409 2516 
L 750 2516 
L 750 3309 
z
" transform="scale(0.015625)"/>
       <path id="DejaVuSans-20" transform="scale(0.015625)"/>
       <path id="DejaVuSans-67" d="M 2906 1791 
Q 2906 2416 2648 2759 
Q 2391 3103 1925 3103 
Q 1463 3103 1205 2759 
Q 947 2416 947 1791 
Q 947 1169 1205 825 
Q 1463 481 1925 481 
Q 2391 481 2648 825 
Q 2906 1169 2906 1791 
z
M 3481 434 
Q 3481 -459 3084 -895 
Q 2688 -1331 1869 -1331 
Q 1566 -1331 1297 -1286 
Q 1028 -1241 775 -1147 
L 775 -588 
Q 1028 -725 1275 -790 
Q 1522 -856 1778 -856 
Q 2344 -856 2625 -561 
Q 2906 -266 2906 331 
L 2906 616 
Q 2728 306 2450 153 
Q 2172 0 1784 0 
Q 1141 0 747 490 
Q 353 981 353 1791 
Q 353 2603 747 3093 
Q 1141 3584 1784 3584 
Q 2172 3584 2450 3431 
Q 2728 3278 2906 2969 
L 2906 3500 
L 3481 3500 
L 3481 434 
z
" transform="scale(0.015625)"/>
       <path id="DejaVuSans-50" d="M 1259 4147 
L 1259 2394 
L 2053 2394 
Q 2494 2394 2734 2622 
Q 2975 2850 2975 3272 
Q 2975 3691 2734 3919 
Q 2494 4147 2053 4147 
L 1259 4147 
z
M 628 4666 
L 2053 4666 
Q 2838 4666 3239 4311 
Q 3641 3956 3641 3272 
Q 3641 2581 3239 2228 
Q 2838 1875 2053 1875 
L 1259 1875 
L 1259 0 
L 628 0 
L 628 4666 
z
" transform="scale(0.015625)"/>
       <path id="DejaVuSans-4f" d="M 2522 4238 
Q 1834 4238 1429 3725 
Q 1025 3213 1025 2328 
Q 1025 1447 1429 934 
Q 1834 422 2522 422 
Q 3209 422 3611 934 
Q 4013 1447 4013 2328 
Q 4013 3213 3611 3725 
Q 3209 4238 2522 4238 
z
M 2522 4750 
Q 3503 4750 4090 4092 
Q 4678 3434 4678 2328 
Q 4678 1225 4090 567 
Q 3503 -91 2522 -91 
Q 1538 -91 948 565 
Q 359 1222 359 2328 
Q 359 3434 948 4092 
Q 1538 4750 2522 4750 
z
" transform="scale(0.015625)"/>
      </defs>
      <use xlink:href="#DejaVuSans-73"/>
      <use xlink:href="#DejaVuSans-69" transform="translate(52.099609 0)"/>
      <use xlink:href="#DejaVuSans-6d" transform="translate(79.882812 0)"/>
      <use xlink:href="#DejaVuSans-3a" transform="translate(177.294922 0)"/>
      <use xlink:href="#DejaVuSans-20" transform="translate(210.986328 0)"/>
      <use xlink:href="#DejaVuSans-32" transform="translate(242.773438 0)"/>
      <use xlink:href="#DejaVuSans-35" transform="translate(306.396484 0)"/>
      <use xlink:href="#DejaVuSans-6d" transform="translate(370.019531 0)"/>
      <use xlink:href="#DejaVuSans-67" transform="translate(467.431641 0)"/>
      <use xlink:href="#DejaVuSans-20" transform="translate(530.908203 0)"/>
      <use xlink:href="#DejaVuSans-50" transform="translate(562.695312 0)"/>
      <use xlink:href="#DejaVuSans-4f" transform="translate(622.998047 0)"/>
     </g>
    </g>
    <g id="LineCollection_3">
     <path d="M 336.98 81.016562 
L 336.98 71.016562 
" style="fill: none; stroke: #3c33ff"/>
    </g>
    <g id="line2d_23">
     <path d="M 326.98 76.016562 
L 346.98 76.016562 
" style="fill: none; stroke-dasharray: 3.7,1.6; stroke-dashoffset: 0; stroke: #3c33ff"/>
    </g>
    <g id="line2d_24">
     <g>
      <use xlink:href="#mf8982a5bbe" x="336.98" y="76.016562" style="fill: #3c33ff; stroke: #000000; stroke-linejoin: miter"/>
     </g>
    </g>
    <g id="text_20">
     <!-- exp: 25mg PO±SD (n=6) -->
     <g transform="translate(354.98 79.516562) scale(0.1 -0.1)">
      <defs>
       <path id="DejaVuSans-65" d="M 3597 1894 
L 3597 1613 
L 953 1613 
Q 991 1019 1311 708 
Q 1631 397 2203 397 
Q 2534 397 2845 478 
Q 3156 559 3463 722 
L 3463 178 
Q 3153 47 2828 -22 
Q 2503 -91 2169 -91 
Q 1331 -91 842 396 
Q 353 884 353 1716 
Q 353 2575 817 3079 
Q 1281 3584 2069 3584 
Q 2775 3584 3186 3129 
Q 3597 2675 3597 1894 
z
M 3022 2063 
Q 3016 2534 2758 2815 
Q 2500 3097 2075 3097 
Q 1594 3097 1305 2825 
Q 1016 2553 972 2059 
L 3022 2063 
z
" transform="scale(0.015625)"/>
       <path id="DejaVuSans-78" d="M 3513 3500 
L 2247 1797 
L 3578 0 
L 2900 0 
L 1881 1375 
L 863 0 
L 184 0 
L 1544 1831 
L 300 3500 
L 978 3500 
L 1906 2253 
L 2834 3500 
L 3513 3500 
z
" transform="scale(0.015625)"/>
       <path id="DejaVuSans-70" d="M 1159 525 
L 1159 -1331 
L 581 -1331 
L 581 3500 
L 1159 3500 
L 1159 2969 
Q 1341 3281 1617 3432 
Q 1894 3584 2278 3584 
Q 2916 3584 3314 3078 
Q 3713 2572 3713 1747 
Q 3713 922 3314 415 
Q 2916 -91 2278 -91 
Q 1894 -91 1617 61 
Q 1341 213 1159 525 
z
M 3116 1747 
Q 3116 2381 2855 2742 
Q 2594 3103 2138 3103 
Q 1681 3103 1420 2742 
Q 1159 2381 1159 1747 
Q 1159 1113 1420 752 
Q 1681 391 2138 391 
Q 2594 391 2855 752 
Q 3116 1113 3116 1747 
z
" transform="scale(0.015625)"/>
       <path id="DejaVuSans-b1" d="M 2944 4013 
L 2944 2803 
L 4684 2803 
L 4684 2272 
L 2944 2272 
L 2944 1063 
L 2419 1063 
L 2419 2272 
L 678 2272 
L 678 2803 
L 2419 2803 
L 2419 4013 
L 2944 4013 
z
M 678 531 
L 4684 531 
L 4684 0 
L 678 0 
L 678 531 
z
" transform="scale(0.015625)"/>
       <path id="DejaVuSans-53" d="M 3425 4513 
L 3425 3897 
Q 3066 4069 2747 4153 
Q 2428 4238 2131 4238 
Q 1616 4238 1336 4038 
Q 1056 3838 1056 3469 
Q 1056 3159 1242 3001 
Q 1428 2844 1947 2747 
L 2328 2669 
Q 3034 2534 3370 2195 
Q 3706 1856 3706 1288 
Q 3706 609 3251 259 
Q 2797 -91 1919 -91 
Q 1588 -91 1214 -16 
Q 841 59 441 206 
L 441 856 
Q 825 641 1194 531 
Q 1563 422 1919 422 
Q 2459 422 2753 634 
Q 3047 847 3047 1241 
Q 3047 1584 2836 1778 
Q 2625 1972 2144 2069 
L 1759 2144 
Q 1053 2284 737 2584 
Q 422 2884 422 3419 
Q 422 4038 858 4394 
Q 1294 4750 2059 4750 
Q 2388 4750 2728 4690 
Q 3069 4631 3425 4513 
z
" transform="scale(0.015625)"/>
       <path id="DejaVuSans-44" d="M 1259 4147 
L 1259 519 
L 2022 519 
Q 2988 519 3436 956 
Q 3884 1394 3884 2338 
Q 3884 3275 3436 3711 
Q 2988 4147 2022 4147 
L 1259 4147 
z
M 628 4666 
L 1925 4666 
Q 3281 4666 3915 4102 
Q 4550 3538 4550 2338 
Q 4550 1131 3912 565 
Q 3275 0 1925 0 
L 628 0 
L 628 4666 
z
" transform="scale(0.015625)"/>
       <path id="DejaVuSans-28" d="M 1984 4856 
Q 1566 4138 1362 3434 
Q 1159 2731 1159 2009 
Q 1159 1288 1364 580 
Q 1569 -128 1984 -844 
L 1484 -844 
Q 1016 -109 783 600 
Q 550 1309 550 2009 
Q 550 2706 781 3412 
Q 1013 4119 1484 4856 
L 1984 4856 
z
" transform="scale(0.015625)"/>
       <path id="DejaVuSans-6e" d="M 3513 2113 
L 3513 0 
L 2938 0 
L 2938 2094 
Q 2938 2591 2744 2837 
Q 2550 3084 2163 3084 
Q 1697 3084 1428 2787 
Q 1159 2491 1159 1978 
L 1159 0 
L 581 0 
L 581 3500 
L 1159 3500 
L 1159 2956 
Q 1366 3272 1645 3428 
Q 1925 3584 2291 3584 
Q 2894 3584 3203 3211 
Q 3513 2838 3513 2113 
z
" transform="scale(0.015625)"/>
       <path id="DejaVuSans-3d" d="M 678 2906 
L 4684 2906 
L 4684 2381 
L 678 2381 
L 678 2906 
z
M 678 1631 
L 4684 1631 
L 4684 1100 
L 678 1100 
L 678 1631 
z
" transform="scale(0.015625)"/>
       <path id="DejaVuSans-29" d="M 513 4856 
L 1013 4856 
Q 1481 4119 1714 3412 
Q 1947 2706 1947 2009 
Q 1947 1309 1714 600 
Q 1481 -109 1013 -844 
L 513 -844 
Q 928 -128 1133 580 
Q 1338 1288 1338 2009 
Q 1338 2731 1133 3434 
Q 928 4138 513 4856 
z
" transform="scale(0.015625)"/>
      </defs>
      <use xlink:href="#DejaVuSans-65"/>
      <use xlink:href="#DejaVuSans-78" transform="translate(59.773438 0)"/>
      <use xlink:href="#DejaVuSans-70" transform="translate(118.953125 0)"/>
      <use xlink:href="#DejaVuSans-3a" transform="translate(182.429688 0)"/>
      <use xlink:href="#DejaVuSans-20" transform="translate(216.121094 0)"/>
      <use xlink:href="#DejaVuSans-32" transform="translate(247.908203 0)"/>
      <use xlink:href="#DejaVuSans-35" transform="translate(311.53125 0)"/>
      <use xlink:href="#DejaVuSans-6d" transform="translate(375.154297 0)"/>
      <use xlink:href="#DejaVuSans-67" transform="translate(472.566406 0)"/>
      <use xlink:href="#DejaVuSans-20" transform="translate(536.042969 0)"/>
      <use xlink:href="#DejaVuSans-50" transform="translate(567.830078 0)"/>
      <use xlink:href="#DejaVuSans-4f" transform="translate(628.132812 0)"/>
      <use xlink:href="#DejaVuSans-b1" transform="translate(706.84375 0)"/>
      <use xlink:href="#DejaVuSans-53" transform="translate(790.632812 0)"/>
      <use xlink:href="#DejaVuSans-44" transform="translate(854.109375 0)"/>
      <use xlink:href="#DejaVuSans-20" transform="translate(931.111328 0)"/>
      <use xlink:href="#DejaVuSans-28" transform="translate(962.898438 0)"/>
      <use xlink:href="#DejaVuSans-6e" transform="translate(1001.912109 0)"/>
      <use xlink:href="#DejaVuSans-3d" transform="translate(1065.291016 0)"/>
      <use xlink:href="#DejaVuSans-36" transform="translate(1149.080078 0)"/>
      <use xlink:href="#DejaVuSans-29" transform="translate(1212.703125 0)"/>
     </g>
    </g>
    <g id="line2d_25">
     <path d="M 326.98 90.694687 
L 346.98 90.694687 
" style="fill: none; stroke: #000000; stroke-width: 2; stroke-linecap: square"/>
    </g>
    <g id="line2d_26"/>
    <g id="text_21">
     <!-- sim: 50mg PO -->
     <g transform="translate(354.98 94.194687) scale(0.1 -0.1)">
      <use xlink:href="#DejaVuSans-73"/>
      <use xlink:href="#DejaVuSans-69" transform="translate(52.099609 0)"/>
      <use xlink:href="#DejaVuSans-6d" transform="translate(79.882812 0)"/>
      <use xlink:href="#DejaVuSans-3a" transform="translate(177.294922 0)"/>
      <use xlink:href="#DejaVuSans-20" transform="translate(210.986328 0)"/>
      <use xlink:href="#DejaVuSans-35" transform="translate(242.773438 0)"/>
      <use xlink:href="#DejaVuSans-30" transform="translate(306.396484 0)"/>
      <use xlink:href="#DejaVuSans-6d" transform="translate(370.019531 0)"/>
      <use xlink:href="#DejaVuSans-67" transform="translate(467.431641 0)"/>
      <use xlink:href="#DejaVuSans-20" transform="translate(530.908203 0)"/>
      <use xlink:href="#DejaVuSans-50" transform="translate(562.695312 0)"/>
      <use xlink:href="#DejaVuSans-4f" transform="translate(622.998047 0)"/>
     </g>
    </g>
    <g id="LineCollection_4">
     <path d="M 336.98 110.372812 
L 336.98 100.372812 
" style="fill: none; stroke: #000000"/>
    </g>
    <g id="line2d_27">
     <path d="M 326.98 105.372812 
L 346.98 105.372812 
" style="fill: none; stroke-dasharray: 3.7,1.6; stroke-dashoffset: 0; stroke: #000000"/>
    </g>
    <g id="line2d_28">
     <g>
      <use xlink:href="#mb502ecb717" x="336.98" y="105.372812" style="stroke: #000000; stroke-linejoin: miter"/>
     </g>
    </g>
    <g id="text_22">
     <!-- exp: 50mg PO±SD (n=6) -->
     <g transform="translate(354.98 108.872812) scale(0.1 -0.1)">
      <use xlink:href="#DejaVuSans-65"/>
      <use xlink:href="#DejaVuSans-78" transform="translate(59.773438 0)"/>
      <use xlink:href="#DejaVuSans-70" transform="translate(118.953125 0)"/>
      <use xlink:href="#DejaVuSans-3a" transform="translate(182.429688 0)"/>
      <use xlink:href="#DejaVuSans-20" transform="translate(216.121094 0)"/>
      <use xlink:href="#DejaVuSans-35" transform="translate(247.908203 0)"/>
      <use xlink:href="#DejaVuSans-30" transform="translate(311.53125 0)"/>
      <use xlink:href="#DejaVuSans-6d" transform="translate(375.154297 0)"/>
      <use xlink:href="#DejaVuSans-67" transform="translate(472.566406 0)"/>
      <use xlink:href="#DejaVuSans-20" transform="translate(536.042969 0)"/>
      <use xlink:href="#DejaVuSans-50" transform="translate(567.830078 0)"/>
      <use xlink:href="#DejaVuSans-4f" transform="translate(628.132812 0)"/>
      <use xlink:href="#DejaVuSans-b1" transform="translate(706.84375 0)"/>
      <use xlink:href="#DejaVuSans-53" transform="translate(790.632812 0)"/>
      <use xlink:href="#DejaVuSans-44" transform="translate(854.109375 0)"/>
      <use xlink:href="#DejaVuSans-20" transform="translate(931.111328 0)"/>
      <use xlink:href="#DejaVuSans-28" transform="translate(962.898438 0)"/>
      <use xlink:href="#DejaVuSans-6e" transform="translate(1001.912109 0)"/>
      <use xlink:href="#DejaVuSans-3d" transform="translate(1065.291016 0)"/>
      <use xlink:href="#DejaVuSans-36" transform="translate(1149.080078 0)"/>
      <use xlink:href="#DejaVuSans-29" transform="translate(1212.703125 0)"/>
     </g>
    </g>
   </g>
  </g>
  <g id="text_23">
   <!-- Jankowski1995 -->
   <g transform="translate(162.463359 26.196094) scale(0.25 -0.25)">
    <defs>
     <path id="DejaVuSans-Bold-4a" d="M 588 4666 
L 1791 4666 
L 1791 453 
Q 1791 -419 1317 -850 
Q 844 -1281 -116 -1281 
L -359 -1281 
L -359 -372 
L -172 -372 
Q 203 -372 395 -162 
Q 588 47 588 453 
L 588 4666 
z
" transform="scale(0.015625)"/>
     <path id="DejaVuSans-Bold-6e" d="M 4056 2131 
L 4056 0 
L 2931 0 
L 2931 347 
L 2931 1631 
Q 2931 2084 2911 2256 
Q 2891 2428 2841 2509 
Q 2775 2619 2662 2680 
Q 2550 2741 2406 2741 
Q 2056 2741 1856 2470 
Q 1656 2200 1656 1722 
L 1656 0 
L 538 0 
L 538 3500 
L 1656 3500 
L 1656 2988 
Q 1909 3294 2193 3439 
Q 2478 3584 2822 3584 
Q 3428 3584 3742 3212 
Q 4056 2841 4056 2131 
z
" transform="scale(0.015625)"/>
     <path id="DejaVuSans-Bold-6b" d="M 538 4863 
L 1656 4863 
L 1656 2216 
L 2944 3500 
L 4244 3500 
L 2534 1894 
L 4378 0 
L 3022 0 
L 1656 1459 
L 1656 0 
L 538 0 
L 538 4863 
z
" transform="scale(0.015625)"/>
     <path id="DejaVuSans-Bold-77" d="M 225 3500 
L 1313 3500 
L 1900 1088 
L 2491 3500 
L 3425 3500 
L 4013 1113 
L 4603 3500 
L 5691 3500 
L 4769 0 
L 3547 0 
L 2956 2406 
L 2369 0 
L 1147 0 
L 225 3500 
z
" transform="scale(0.015625)"/>
     <path id="DejaVuSans-Bold-73" d="M 3272 3391 
L 3272 2541 
Q 2913 2691 2578 2766 
Q 2244 2841 1947 2841 
Q 1628 2841 1473 2761 
Q 1319 2681 1319 2516 
Q 1319 2381 1436 2309 
Q 1553 2238 1856 2203 
L 2053 2175 
Q 2913 2066 3209 1816 
Q 3506 1566 3506 1031 
Q 3506 472 3093 190 
Q 2681 -91 1863 -91 
Q 1516 -91 1145 -36 
Q 775 19 384 128 
L 384 978 
Q 719 816 1070 734 
Q 1422 653 1784 653 
Q 2113 653 2278 743 
Q 2444 834 2444 1013 
Q 2444 1163 2330 1236 
Q 2216 1309 1875 1350 
L 1678 1375 
Q 931 1469 631 1722 
Q 331 1975 331 2491 
Q 331 3047 712 3315 
Q 1094 3584 1881 3584 
Q 2191 3584 2531 3537 
Q 2872 3491 3272 3391 
z
" transform="scale(0.015625)"/>
     <path id="DejaVuSans-Bold-31" d="M 750 831 
L 1813 831 
L 1813 3847 
L 722 3622 
L 722 4441 
L 1806 4666 
L 2950 4666 
L 2950 831 
L 4013 831 
L 4013 0 
L 750 0 
L 750 831 
z
" transform="scale(0.015625)"/>
     <path id="DejaVuSans-Bold-39" d="M 641 103 
L 641 966 
Q 928 831 1190 764 
Q 1453 697 1709 697 
Q 2247 697 2547 995 
Q 2847 1294 2900 1881 
Q 2688 1725 2447 1647 
Q 2206 1569 1925 1569 
Q 1209 1569 770 1986 
Q 331 2403 331 3084 
Q 331 3838 820 4291 
Q 1309 4744 2131 4744 
Q 3044 4744 3544 4128 
Q 4044 3513 4044 2388 
Q 4044 1231 3459 570 
Q 2875 -91 1856 -91 
Q 1528 -91 1228 -42 
Q 928 6 641 103 
z
M 2125 2350 
Q 2441 2350 2600 2554 
Q 2759 2759 2759 3169 
Q 2759 3575 2600 3781 
Q 2441 3988 2125 3988 
Q 1809 3988 1650 3781 
Q 1491 3575 1491 3169 
Q 1491 2759 1650 2554 
Q 1809 2350 2125 2350 
z
" transform="scale(0.015625)"/>
     <path id="DejaVuSans-Bold-35" d="M 678 4666 
L 3669 4666 
L 3669 3781 
L 1638 3781 
L 1638 3059 
Q 1775 3097 1914 3117 
Q 2053 3138 2203 3138 
Q 3056 3138 3531 2711 
Q 4006 2284 4006 1522 
Q 4006 766 3489 337 
Q 2972 -91 2053 -91 
Q 1656 -91 1267 -14 
Q 878 63 494 219 
L 494 1166 
Q 875 947 1217 837 
Q 1559 728 1863 728 
Q 2300 728 2551 942 
Q 2803 1156 2803 1522 
Q 2803 1891 2551 2103 
Q 2300 2316 1863 2316 
Q 1603 2316 1309 2248 
Q 1016 2181 678 2041 
L 678 4666 
z
" transform="scale(0.015625)"/>
    </defs>
    <use xlink:href="#DejaVuSans-Bold-4a"/>
    <use xlink:href="#DejaVuSans-Bold-61" transform="translate(37.207031 0)"/>
    <use xlink:href="#DejaVuSans-Bold-6e" transform="translate(104.6875 0)"/>
    <use xlink:href="#DejaVuSans-Bold-6b" transform="translate(175.878906 0)"/>
    <use xlink:href="#DejaVuSans-Bold-6f" transform="translate(239.757812 0)"/>
    <use xlink:href="#DejaVuSans-Bold-77" transform="translate(308.458984 0)"/>
    <use xlink:href="#DejaVuSans-Bold-73" transform="translate(400.841797 0)"/>
    <use xlink:href="#DejaVuSans-Bold-6b" transform="translate(460.363281 0)"/>
    <use xlink:href="#DejaVuSans-Bold-69" transform="translate(526.867188 0)"/>
    <use xlink:href="#DejaVuSans-Bold-31" transform="translate(561.144531 0)"/>
    <use xlink:href="#DejaVuSans-Bold-39" transform="translate(630.724609 0)"/>
    <use xlink:href="#DejaVuSans-Bold-39" transform="translate(700.304688 0)"/>
    <use xlink:href="#DejaVuSans-Bold-35" transform="translate(769.884766 0)"/>
   </g>
  </g>
 </g>
 <defs>
  <clipPath id="p7efb563f4a">
   <rect x="59.495" y="48.24" width="429.66" height="316.008"/>
  </clipPath>
 </defs>
</svg>
