<?xml version="1.0" encoding="utf-8" standalone="no"?>
<!DOCTYPE svg PUBLIC "-//W3C//DTD SVG 1.1//EN"
  "http://www.w3.org/Graphics/SVG/1.1/DTD/svg11.dtd">
<svg xmlns:xlink="http://www.w3.org/1999/xlink" width="1790.111562pt" height="414.385812pt" viewBox="0 0 1790.111562 414.385812" xmlns="http://www.w3.org/2000/svg" version="1.1">
 <metadata>
  <rdf:RDF xmlns:dc="http://purl.org/dc/elements/1.1/" xmlns:cc="http://creativecommons.org/ns#" xmlns:rdf="http://www.w3.org/1999/02/22-rdf-syntax-ns#">
   <cc:Work>
    <dc:type rdf:resource="http://purl.org/dc/dcmitype/StillImage"/>
    <dc:date>2025-09-10T13:17:06.456779</dc:date>
    <dc:format>image/svg+xml</dc:format>
    <dc:creator>
     <cc:Agent>
      <dc:title>Matplotlib v3.10.6, https://matplotlib.org/</dc:title>
     </cc:Agent>
    </dc:creator>
   </cc:Work>
  </rdf:RDF>
 </metadata>
 <defs>
  <style type="text/css">*{stroke-linejoin: round; stroke-linecap: butt}</style>
 </defs>
 <g id="figure_1">
  <g id="patch_1">
   <path d="M 0 414.385812 
L 1790.111562 414.385812 
L 1790.111562 -0 
L 0 -0 
z
" style="fill: #ffffff"/>
  </g>
  <g id="axes_1">
   <g id="patch_2">
    <path d="M 64.271563 364.248 
L 415.01442 364.248 
L 415.01442 48.24 
L 64.271563 48.24 
z
" style="fill: #ffffff"/>
   </g>
   <g id="matplotlib.axis_1">
    <g id="xtick_1">
     <g id="line2d_1">
      <defs>
       <path id="m493276dd89" d="M 0 0 
L 0 3.5 
" style="stroke: #000000; stroke-width: 0.8"/>
      </defs>
      <g>
       <use xlink:href="#m493276dd89" x="80.21442" y="364.248" style="stroke: #000000; stroke-width: 0.8"/>
      </g>
     </g>
     <g id="text_1">
      <!-- 0 -->
      <g transform="translate(75.442545 382.645656) scale(0.15 -0.15)">
       <defs>
        <path id="DejaVuSans-30" d="M 2034 4250 
Q 1547 4250 1301 3770 
Q 1056 3291 1056 2328 
Q 1056 1369 1301 889 
Q 1547 409 2034 409 
Q 2525 409 2770 889 
Q 3016 1369 3016 2328 
Q 3016 3291 2770 3770 
Q 2525 4250 2034 4250 
z
M 2034 4750 
Q 2819 4750 3233 4129 
Q 3647 3509 3647 2328 
Q 3647 1150 3233 529 
Q 2819 -91 2034 -91 
Q 1250 -91 836 529 
Q 422 1150 422 2328 
Q 422 3509 836 4129 
Q 1250 4750 2034 4750 
z
" transform="scale(0.015625)"/>
       </defs>
       <use xlink:href="#DejaVuSans-30"/>
      </g>
     </g>
    </g>
    <g id="xtick_2">
     <g id="line2d_2">
      <g>
       <use xlink:href="#m493276dd89" x="132.91808" y="364.248" style="stroke: #000000; stroke-width: 0.8"/>
      </g>
     </g>
     <g id="text_2">
      <!-- 20 -->
      <g transform="translate(123.37433 382.645656) scale(0.15 -0.15)">
       <defs>
        <path id="DejaVuSans-32" d="M 1228 531 
L 3431 531 
L 3431 0 
L 469 0 
L 469 531 
Q 828 903 1448 1529 
Q 2069 2156 2228 2338 
Q 2531 2678 2651 2914 
Q 2772 3150 2772 3378 
Q 2772 3750 2511 3984 
Q 2250 4219 1831 4219 
Q 1534 4219 1204 4116 
Q 875 4013 500 3803 
L 500 4441 
Q 881 4594 1212 4672 
Q 1544 4750 1819 4750 
Q 2544 4750 2975 4387 
Q 3406 4025 3406 3419 
Q 3406 3131 3298 2873 
Q 3191 2616 2906 2266 
Q 2828 2175 2409 1742 
Q 1991 1309 1228 531 
z
" transform="scale(0.015625)"/>
       </defs>
       <use xlink:href="#DejaVuSans-32"/>
       <use xlink:href="#DejaVuSans-30" transform="translate(63.623047 0)"/>
      </g>
     </g>
    </g>
    <g id="xtick_3">
     <g id="line2d_3">
      <g>
       <use xlink:href="#m493276dd89" x="185.62174" y="364.248" style="stroke: #000000; stroke-width: 0.8"/>
      </g>
     </g>
     <g id="text_3">
      <!-- 40 -->
      <g transform="translate(176.07799 382.645656) scale(0.15 -0.15)">
       <defs>
        <path id="DejaVuSans-34" d="M 2419 4116 
L 825 1625 
L 2419 1625 
L 2419 4116 
z
M 2253 4666 
L 3047 4666 
L 3047 1625 
L 3713 1625 
L 3713 1100 
L 3047 1100 
L 3047 0 
L 2419 0 
L 2419 1100 
L 313 1100 
L 313 1709 
L 2253 4666 
z
" transform="scale(0.015625)"/>
       </defs>
       <use xlink:href="#DejaVuSans-34"/>
       <use xlink:href="#DejaVuSans-30" transform="translate(63.623047 0)"/>
      </g>
     </g>
    </g>
    <g id="xtick_4">
     <g id="line2d_4">
      <g>
       <use xlink:href="#m493276dd89" x="238.3254" y="364.248" style="stroke: #000000; stroke-width: 0.8"/>
      </g>
     </g>
     <g id="text_4">
      <!-- 60 -->
      <g transform="translate(228.78165 382.645656) scale(0.15 -0.15)">
       <defs>
        <path id="DejaVuSans-36" d="M 2113 2584 
Q 1688 2584 1439 2293 
Q 1191 2003 1191 1497 
Q 1191 994 1439 701 
Q 1688 409 2113 409 
Q 2538 409 2786 701 
Q 3034 994 3034 1497 
Q 3034 2003 2786 2293 
Q 2538 2584 2113 2584 
z
M 3366 4563 
L 3366 3988 
Q 3128 4100 2886 4159 
Q 2644 4219 2406 4219 
Q 1781 4219 1451 3797 
Q 1122 3375 1075 2522 
Q 1259 2794 1537 2939 
Q 1816 3084 2150 3084 
Q 2853 3084 3261 2657 
Q 3669 2231 3669 1497 
Q 3669 778 3244 343 
Q 2819 -91 2113 -91 
Q 1303 -91 875 529 
Q 447 1150 447 2328 
Q 447 3434 972 4092 
Q 1497 4750 2381 4750 
Q 2619 4750 2861 4703 
Q 3103 4656 3366 4563 
z
" transform="scale(0.015625)"/>
       </defs>
       <use xlink:href="#DejaVuSans-36"/>
       <use xlink:href="#DejaVuSans-30" transform="translate(63.623047 0)"/>
      </g>
     </g>
    </g>
    <g id="xtick_5">
     <g id="line2d_5">
      <g>
       <use xlink:href="#m493276dd89" x="291.02906" y="364.248" style="stroke: #000000; stroke-width: 0.8"/>
      </g>
     </g>
     <g id="text_5">
      <!-- 80 -->
      <g transform="translate(281.48531 382.645656) scale(0.15 -0.15)">
       <defs>
        <path id="DejaVuSans-38" d="M 2034 2216 
Q 1584 2216 1326 1975 
Q 1069 1734 1069 1313 
Q 1069 891 1326 650 
Q 1584 409 2034 409 
Q 2484 409 2743 651 
Q 3003 894 3003 1313 
Q 3003 1734 2745 1975 
Q 2488 2216 2034 2216 
z
M 1403 2484 
Q 997 2584 770 2862 
Q 544 3141 544 3541 
Q 544 4100 942 4425 
Q 1341 4750 2034 4750 
Q 2731 4750 3128 4425 
Q 3525 4100 3525 3541 
Q 3525 3141 3298 2862 
Q 3072 2584 2669 2484 
Q 3125 2378 3379 2068 
Q 3634 1759 3634 1313 
Q 3634 634 3220 271 
Q 2806 -91 2034 -91 
Q 1263 -91 848 271 
Q 434 634 434 1313 
Q 434 1759 690 2068 
Q 947 2378 1403 2484 
z
M 1172 3481 
Q 1172 3119 1398 2916 
Q 1625 2713 2034 2713 
Q 2441 2713 2670 2916 
Q 2900 3119 2900 3481 
Q 2900 3844 2670 4047 
Q 2441 4250 2034 4250 
Q 1625 4250 1398 4047 
Q 1172 3844 1172 3481 
z
" transform="scale(0.015625)"/>
       </defs>
       <use xlink:href="#DejaVuSans-38"/>
       <use xlink:href="#DejaVuSans-30" transform="translate(63.623047 0)"/>
      </g>
     </g>
    </g>
    <g id="xtick_6">
     <g id="line2d_6">
      <g>
       <use xlink:href="#m493276dd89" x="343.73272" y="364.248" style="stroke: #000000; stroke-width: 0.8"/>
      </g>
     </g>
     <g id="text_6">
      <!-- 100 -->
      <g transform="translate(329.417095 382.645656) scale(0.15 -0.15)">
       <defs>
        <path id="DejaVuSans-31" d="M 794 531 
L 1825 531 
L 1825 4091 
L 703 3866 
L 703 4441 
L 1819 4666 
L 2450 4666 
L 2450 531 
L 3481 531 
L 3481 0 
L 794 0 
L 794 531 
z
" transform="scale(0.015625)"/>
       </defs>
       <use xlink:href="#DejaVuSans-31"/>
       <use xlink:href="#DejaVuSans-30" transform="translate(63.623047 0)"/>
       <use xlink:href="#DejaVuSans-30" transform="translate(127.246094 0)"/>
      </g>
     </g>
    </g>
    <g id="xtick_7">
     <g id="line2d_7">
      <g>
       <use xlink:href="#m493276dd89" x="396.43638" y="364.248" style="stroke: #000000; stroke-width: 0.8"/>
      </g>
     </g>
     <g id="text_7">
      <!-- 120 -->
      <g transform="translate(382.120755 382.645656) scale(0.15 -0.15)">
       <use xlink:href="#DejaVuSans-31"/>
       <use xlink:href="#DejaVuSans-32" transform="translate(63.623047 0)"/>
       <use xlink:href="#DejaVuSans-30" transform="translate(127.246094 0)"/>
      </g>
     </g>
    </g>
    <g id="text_8">
     <!-- time [hr] -->
     <g transform="translate(194.56846 403.442375) scale(0.18 -0.18)">
      <defs>
       <path id="DejaVuSans-Bold-74" d="M 1759 4494 
L 1759 3500 
L 2913 3500 
L 2913 2700 
L 1759 2700 
L 1759 1216 
Q 1759 972 1856 886 
Q 1953 800 2241 800 
L 2816 800 
L 2816 0 
L 1856 0 
Q 1194 0 917 276 
Q 641 553 641 1216 
L 641 2700 
L 84 2700 
L 84 3500 
L 641 3500 
L 641 4494 
L 1759 4494 
z
" transform="scale(0.015625)"/>
       <path id="DejaVuSans-Bold-69" d="M 538 3500 
L 1656 3500 
L 1656 0 
L 538 0 
L 538 3500 
z
M 538 4863 
L 1656 4863 
L 1656 3950 
L 538 3950 
L 538 4863 
z
" transform="scale(0.015625)"/>
       <path id="DejaVuSans-Bold-6d" d="M 3781 2919 
Q 3994 3244 4286 3414 
Q 4578 3584 4928 3584 
Q 5531 3584 5847 3212 
Q 6163 2841 6163 2131 
L 6163 0 
L 5038 0 
L 5038 1825 
Q 5041 1866 5042 1909 
Q 5044 1953 5044 2034 
Q 5044 2406 4934 2573 
Q 4825 2741 4581 2741 
Q 4263 2741 4089 2478 
Q 3916 2216 3909 1719 
L 3909 0 
L 2784 0 
L 2784 1825 
Q 2784 2406 2684 2573 
Q 2584 2741 2328 2741 
Q 2006 2741 1831 2477 
Q 1656 2213 1656 1722 
L 1656 0 
L 531 0 
L 531 3500 
L 1656 3500 
L 1656 2988 
Q 1863 3284 2130 3434 
Q 2397 3584 2719 3584 
Q 3081 3584 3359 3409 
Q 3638 3234 3781 2919 
z
" transform="scale(0.015625)"/>
       <path id="DejaVuSans-Bold-65" d="M 4031 1759 
L 4031 1441 
L 1416 1441 
Q 1456 1047 1700 850 
Q 1944 653 2381 653 
Q 2734 653 3104 758 
Q 3475 863 3866 1075 
L 3866 213 
Q 3469 63 3072 -14 
Q 2675 -91 2278 -91 
Q 1328 -91 801 392 
Q 275 875 275 1747 
Q 275 2603 792 3093 
Q 1309 3584 2216 3584 
Q 3041 3584 3536 3087 
Q 4031 2591 4031 1759 
z
M 2881 2131 
Q 2881 2450 2695 2645 
Q 2509 2841 2209 2841 
Q 1884 2841 1681 2658 
Q 1478 2475 1428 2131 
L 2881 2131 
z
" transform="scale(0.015625)"/>
       <path id="DejaVuSans-Bold-20" transform="scale(0.015625)"/>
       <path id="DejaVuSans-Bold-5b" d="M 550 4863 
L 2491 4863 
L 2491 4159 
L 1613 4159 
L 1613 -141 
L 2491 -141 
L 2491 -844 
L 550 -844 
L 550 4863 
z
" transform="scale(0.015625)"/>
       <path id="DejaVuSans-Bold-68" d="M 4056 2131 
L 4056 0 
L 2931 0 
L 2931 347 
L 2931 1625 
Q 2931 2084 2911 2256 
Q 2891 2428 2841 2509 
Q 2775 2619 2662 2680 
Q 2550 2741 2406 2741 
Q 2056 2741 1856 2470 
Q 1656 2200 1656 1722 
L 1656 0 
L 538 0 
L 538 4863 
L 1656 4863 
L 1656 2988 
Q 1909 3294 2193 3439 
Q 2478 3584 2822 3584 
Q 3428 3584 3742 3212 
Q 4056 2841 4056 2131 
z
" transform="scale(0.015625)"/>
       <path id="DejaVuSans-Bold-72" d="M 3138 2547 
Q 2991 2616 2845 2648 
Q 2700 2681 2553 2681 
Q 2122 2681 1889 2404 
Q 1656 2128 1656 1613 
L 1656 0 
L 538 0 
L 538 3500 
L 1656 3500 
L 1656 2925 
Q 1872 3269 2151 3426 
Q 2431 3584 2822 3584 
Q 2878 3584 2943 3579 
Q 3009 3575 3134 3559 
L 3138 2547 
z
" transform="scale(0.015625)"/>
       <path id="DejaVuSans-Bold-5d" d="M 2375 -844 
L 434 -844 
L 434 -141 
L 1313 -141 
L 1313 4159 
L 434 4159 
L 434 4863 
L 2375 4863 
L 2375 -844 
z
" transform="scale(0.015625)"/>
      </defs>
      <use xlink:href="#DejaVuSans-Bold-74"/>
      <use xlink:href="#DejaVuSans-Bold-69" transform="translate(47.802734 0)"/>
      <use xlink:href="#DejaVuSans-Bold-6d" transform="translate(82.080078 0)"/>
      <use xlink:href="#DejaVuSans-Bold-65" transform="translate(186.279297 0)"/>
      <use xlink:href="#DejaVuSans-Bold-20" transform="translate(254.101562 0)"/>
      <use xlink:href="#DejaVuSans-Bold-5b" transform="translate(288.916016 0)"/>
      <use xlink:href="#DejaVuSans-Bold-68" transform="translate(334.619141 0)"/>
      <use xlink:href="#DejaVuSans-Bold-72" transform="translate(405.810547 0)"/>
      <use xlink:href="#DejaVuSans-Bold-5d" transform="translate(455.126953 0)"/>
     </g>
    </g>
   </g>
   <g id="matplotlib.axis_2">
    <g id="ytick_1">
     <g id="line2d_8">
      <defs>
       <path id="mc986d5a98d" d="M 0 0 
L -3.5 0 
" style="stroke: #000000; stroke-width: 0.8"/>
      </defs>
      <g>
       <use xlink:href="#mc986d5a98d" x="64.271563" y="349.884" style="stroke: #000000; stroke-width: 0.8"/>
      </g>
     </g>
     <g id="text_9">
      <!-- 0 -->
      <g transform="translate(47.727813 355.582828) scale(0.15 -0.15)">
       <use xlink:href="#DejaVuSans-30"/>
      </g>
     </g>
    </g>
    <g id="ytick_2">
     <g id="line2d_9">
      <g>
       <use xlink:href="#mc986d5a98d" x="64.271563" y="307.792951" style="stroke: #000000; stroke-width: 0.8"/>
      </g>
     </g>
     <g id="text_10">
      <!-- 50 -->
      <g transform="translate(38.184063 313.491779) scale(0.15 -0.15)">
       <defs>
        <path id="DejaVuSans-35" d="M 691 4666 
L 3169 4666 
L 3169 4134 
L 1269 4134 
L 1269 2991 
Q 1406 3038 1543 3061 
Q 1681 3084 1819 3084 
Q 2600 3084 3056 2656 
Q 3513 2228 3513 1497 
Q 3513 744 3044 326 
Q 2575 -91 1722 -91 
Q 1428 -91 1123 -41 
Q 819 9 494 109 
L 494 744 
Q 775 591 1075 516 
Q 1375 441 1709 441 
Q 2250 441 2565 725 
Q 2881 1009 2881 1497 
Q 2881 1984 2565 2268 
Q 2250 2553 1709 2553 
Q 1456 2553 1204 2497 
Q 953 2441 691 2322 
L 691 4666 
z
" transform="scale(0.015625)"/>
       </defs>
       <use xlink:href="#DejaVuSans-35"/>
       <use xlink:href="#DejaVuSans-30" transform="translate(63.623047 0)"/>
      </g>
     </g>
    </g>
    <g id="ytick_3">
     <g id="line2d_10">
      <g>
       <use xlink:href="#mc986d5a98d" x="64.271563" y="265.701901" style="stroke: #000000; stroke-width: 0.8"/>
      </g>
     </g>
     <g id="text_11">
      <!-- 100 -->
      <g transform="translate(28.640313 271.400729) scale(0.15 -0.15)">
       <use xlink:href="#DejaVuSans-31"/>
       <use xlink:href="#DejaVuSans-30" transform="translate(63.623047 0)"/>
       <use xlink:href="#DejaVuSans-30" transform="translate(127.246094 0)"/>
      </g>
     </g>
    </g>
    <g id="ytick_4">
     <g id="line2d_11">
      <g>
       <use xlink:href="#mc986d5a98d" x="64.271563" y="223.610852" style="stroke: #000000; stroke-width: 0.8"/>
      </g>
     </g>
     <g id="text_12">
      <!-- 150 -->
      <g transform="translate(28.640313 229.30968) scale(0.15 -0.15)">
       <use xlink:href="#DejaVuSans-31"/>
       <use xlink:href="#DejaVuSans-35" transform="translate(63.623047 0)"/>
       <use xlink:href="#DejaVuSans-30" transform="translate(127.246094 0)"/>
      </g>
     </g>
    </g>
    <g id="ytick_5">
     <g id="line2d_12">
      <g>
       <use xlink:href="#mc986d5a98d" x="64.271563" y="181.519802" style="stroke: #000000; stroke-width: 0.8"/>
      </g>
     </g>
     <g id="text_13">
      <!-- 200 -->
      <g transform="translate(28.640313 187.218631) scale(0.15 -0.15)">
       <use xlink:href="#DejaVuSans-32"/>
       <use xlink:href="#DejaVuSans-30" transform="translate(63.623047 0)"/>
       <use xlink:href="#DejaVuSans-30" transform="translate(127.246094 0)"/>
      </g>
     </g>
    </g>
    <g id="ytick_6">
     <g id="line2d_13">
      <g>
       <use xlink:href="#mc986d5a98d" x="64.271563" y="139.428753" style="stroke: #000000; stroke-width: 0.8"/>
      </g>
     </g>
     <g id="text_14">
      <!-- 250 -->
      <g transform="translate(28.640313 145.127581) scale(0.15 -0.15)">
       <use xlink:href="#DejaVuSans-32"/>
       <use xlink:href="#DejaVuSans-35" transform="translate(63.623047 0)"/>
       <use xlink:href="#DejaVuSans-30" transform="translate(127.246094 0)"/>
      </g>
     </g>
    </g>
    <g id="ytick_7">
     <g id="line2d_14">
      <g>
       <use xlink:href="#mc986d5a98d" x="64.271563" y="97.337704" style="stroke: #000000; stroke-width: 0.8"/>
      </g>
     </g>
     <g id="text_15">
      <!-- 300 -->
      <g transform="translate(28.640313 103.036532) scale(0.15 -0.15)">
       <defs>
        <path id="DejaVuSans-33" d="M 2597 2516 
Q 3050 2419 3304 2112 
Q 3559 1806 3559 1356 
Q 3559 666 3084 287 
Q 2609 -91 1734 -91 
Q 1441 -91 1130 -33 
Q 819 25 488 141 
L 488 750 
Q 750 597 1062 519 
Q 1375 441 1716 441 
Q 2309 441 2620 675 
Q 2931 909 2931 1356 
Q 2931 1769 2642 2001 
Q 2353 2234 1838 2234 
L 1294 2234 
L 1294 2753 
L 1863 2753 
Q 2328 2753 2575 2939 
Q 2822 3125 2822 3475 
Q 2822 3834 2567 4026 
Q 2313 4219 1838 4219 
Q 1578 4219 1281 4162 
Q 984 4106 628 3988 
L 628 4550 
Q 988 4650 1302 4700 
Q 1616 4750 1894 4750 
Q 2613 4750 3031 4423 
Q 3450 4097 3450 3541 
Q 3450 3153 3228 2886 
Q 3006 2619 2597 2516 
z
" transform="scale(0.015625)"/>
       </defs>
       <use xlink:href="#DejaVuSans-33"/>
       <use xlink:href="#DejaVuSans-30" transform="translate(63.623047 0)"/>
       <use xlink:href="#DejaVuSans-30" transform="translate(127.246094 0)"/>
      </g>
     </g>
    </g>
    <g id="ytick_8">
     <g id="line2d_15">
      <g>
       <use xlink:href="#mc986d5a98d" x="64.271563" y="55.246654" style="stroke: #000000; stroke-width: 0.8"/>
      </g>
     </g>
     <g id="text_16">
      <!-- 350 -->
      <g transform="translate(28.640313 60.945482) scale(0.15 -0.15)">
       <use xlink:href="#DejaVuSans-33"/>
       <use xlink:href="#DejaVuSans-35" transform="translate(63.623047 0)"/>
       <use xlink:href="#DejaVuSans-30" transform="translate(127.246094 0)"/>
      </g>
     </g>
    </g>
    <g id="text_17">
     <!-- captopril urine [µmole] -->
     <g transform="translate(20.877188 323.938687) rotate(-90) scale(0.18 -0.18)">
      <defs>
       <path id="DejaVuSans-Bold-63" d="M 3366 3391 
L 3366 2478 
Q 3138 2634 2908 2709 
Q 2678 2784 2431 2784 
Q 1963 2784 1702 2511 
Q 1441 2238 1441 1747 
Q 1441 1256 1702 982 
Q 1963 709 2431 709 
Q 2694 709 2930 787 
Q 3166 866 3366 1019 
L 3366 103 
Q 3103 6 2833 -42 
Q 2563 -91 2291 -91 
Q 1344 -91 809 395 
Q 275 881 275 1747 
Q 275 2613 809 3098 
Q 1344 3584 2291 3584 
Q 2566 3584 2833 3536 
Q 3100 3488 3366 3391 
z
" transform="scale(0.015625)"/>
       <path id="DejaVuSans-Bold-61" d="M 2106 1575 
Q 1756 1575 1579 1456 
Q 1403 1338 1403 1106 
Q 1403 894 1545 773 
Q 1688 653 1941 653 
Q 2256 653 2472 879 
Q 2688 1106 2688 1447 
L 2688 1575 
L 2106 1575 
z
M 3816 1997 
L 3816 0 
L 2688 0 
L 2688 519 
Q 2463 200 2181 54 
Q 1900 -91 1497 -91 
Q 953 -91 614 226 
Q 275 544 275 1050 
Q 275 1666 698 1953 
Q 1122 2241 2028 2241 
L 2688 2241 
L 2688 2328 
Q 2688 2594 2478 2717 
Q 2269 2841 1825 2841 
Q 1466 2841 1156 2769 
Q 847 2697 581 2553 
L 581 3406 
Q 941 3494 1303 3539 
Q 1666 3584 2028 3584 
Q 2975 3584 3395 3211 
Q 3816 2838 3816 1997 
z
" transform="scale(0.015625)"/>
       <path id="DejaVuSans-Bold-70" d="M 1656 506 
L 1656 -1331 
L 538 -1331 
L 538 3500 
L 1656 3500 
L 1656 2988 
Q 1888 3294 2169 3439 
Q 2450 3584 2816 3584 
Q 3463 3584 3878 3070 
Q 4294 2556 4294 1747 
Q 4294 938 3878 423 
Q 3463 -91 2816 -91 
Q 2450 -91 2169 54 
Q 1888 200 1656 506 
z
M 2400 2772 
Q 2041 2772 1848 2508 
Q 1656 2244 1656 1747 
Q 1656 1250 1848 986 
Q 2041 722 2400 722 
Q 2759 722 2948 984 
Q 3138 1247 3138 1747 
Q 3138 2247 2948 2509 
Q 2759 2772 2400 2772 
z
" transform="scale(0.015625)"/>
       <path id="DejaVuSans-Bold-6f" d="M 2203 2784 
Q 1831 2784 1636 2517 
Q 1441 2250 1441 1747 
Q 1441 1244 1636 976 
Q 1831 709 2203 709 
Q 2569 709 2762 976 
Q 2956 1244 2956 1747 
Q 2956 2250 2762 2517 
Q 2569 2784 2203 2784 
z
M 2203 3584 
Q 3106 3584 3614 3096 
Q 4122 2609 4122 1747 
Q 4122 884 3614 396 
Q 3106 -91 2203 -91 
Q 1297 -91 786 396 
Q 275 884 275 1747 
Q 275 2609 786 3096 
Q 1297 3584 2203 3584 
z
" transform="scale(0.015625)"/>
       <path id="DejaVuSans-Bold-6c" d="M 538 4863 
L 1656 4863 
L 1656 0 
L 538 0 
L 538 4863 
z
" transform="scale(0.015625)"/>
       <path id="DejaVuSans-Bold-75" d="M 500 1363 
L 500 3500 
L 1625 3500 
L 1625 3150 
Q 1625 2866 1622 2436 
Q 1619 2006 1619 1863 
Q 1619 1441 1641 1255 
Q 1663 1069 1716 984 
Q 1784 875 1895 815 
Q 2006 756 2150 756 
Q 2500 756 2700 1025 
Q 2900 1294 2900 1772 
L 2900 3500 
L 4019 3500 
L 4019 0 
L 2900 0 
L 2900 506 
Q 2647 200 2364 54 
Q 2081 -91 1741 -91 
Q 1134 -91 817 281 
Q 500 653 500 1363 
z
" transform="scale(0.015625)"/>
       <path id="DejaVuSans-Bold-6e" d="M 4056 2131 
L 4056 0 
L 2931 0 
L 2931 347 
L 2931 1631 
Q 2931 2084 2911 2256 
Q 2891 2428 2841 2509 
Q 2775 2619 2662 2680 
Q 2550 2741 2406 2741 
Q 2056 2741 1856 2470 
Q 1656 2200 1656 1722 
L 1656 0 
L 538 0 
L 538 3500 
L 1656 3500 
L 1656 2988 
Q 1909 3294 2193 3439 
Q 2478 3584 2822 3584 
Q 3428 3584 3742 3212 
Q 4056 2841 4056 2131 
z
" transform="scale(0.015625)"/>
       <path id="DejaVuSans-Bold-b5" d="M 544 -1338 
L 544 3500 
L 1672 3500 
L 1672 1466 
Q 1672 1103 1828 926 
Q 1984 750 2303 750 
Q 2625 750 2781 926 
Q 2938 1103 2938 1466 
L 2938 3500 
L 4063 3500 
L 4063 1159 
Q 4063 938 4114 850 
Q 4166 763 4288 763 
Q 4344 763 4395 778 
Q 4447 794 4506 831 
L 4506 50 
Q 4341 -22 4195 -56 
Q 4050 -91 3909 -91 
Q 3631 -91 3454 26 
Q 3278 144 3169 403 
Q 3022 156 2811 32 
Q 2600 -91 2322 -91 
Q 2091 -91 1928 -17 
Q 1766 56 1672 206 
L 1672 -1338 
L 544 -1338 
z
" transform="scale(0.015625)"/>
      </defs>
      <use xlink:href="#DejaVuSans-Bold-63"/>
      <use xlink:href="#DejaVuSans-Bold-61" transform="translate(59.277344 0)"/>
      <use xlink:href="#DejaVuSans-Bold-70" transform="translate(126.757812 0)"/>
      <use xlink:href="#DejaVuSans-Bold-74" transform="translate(198.339844 0)"/>
      <use xlink:href="#DejaVuSans-Bold-6f" transform="translate(246.142578 0)"/>
      <use xlink:href="#DejaVuSans-Bold-70" transform="translate(314.84375 0)"/>
      <use xlink:href="#DejaVuSans-Bold-72" transform="translate(386.425781 0)"/>
      <use xlink:href="#DejaVuSans-Bold-69" transform="translate(435.742188 0)"/>
      <use xlink:href="#DejaVuSans-Bold-6c" transform="translate(470.019531 0)"/>
      <use xlink:href="#DejaVuSans-Bold-20" transform="translate(504.296875 0)"/>
      <use xlink:href="#DejaVuSans-Bold-75" transform="translate(539.111328 0)"/>
      <use xlink:href="#DejaVuSans-Bold-72" transform="translate(610.302734 0)"/>
      <use xlink:href="#DejaVuSans-Bold-69" transform="translate(659.619141 0)"/>
      <use xlink:href="#DejaVuSans-Bold-6e" transform="translate(693.896484 0)"/>
      <use xlink:href="#DejaVuSans-Bold-65" transform="translate(765.087891 0)"/>
      <use xlink:href="#DejaVuSans-Bold-20" transform="translate(832.910156 0)"/>
      <use xlink:href="#DejaVuSans-Bold-5b" transform="translate(867.724609 0)"/>
      <use xlink:href="#DejaVuSans-Bold-b5" transform="translate(913.427734 0)"/>
      <use xlink:href="#DejaVuSans-Bold-6d" transform="translate(987.011719 0)"/>
      <use xlink:href="#DejaVuSans-Bold-6f" transform="translate(1091.210938 0)"/>
      <use xlink:href="#DejaVuSans-Bold-6c" transform="translate(1159.912109 0)"/>
      <use xlink:href="#DejaVuSans-Bold-65" transform="translate(1194.189453 0)"/>
      <use xlink:href="#DejaVuSans-Bold-5d" transform="translate(1262.011719 0)"/>
     </g>
    </g>
   </g>
   <g id="LineCollection_1">
    <path d="M 85.484786 293.65892 
L 85.484786 228.698553 
" clip-path="url(#pc5f525be38)" style="fill: none; stroke: #000000"/>
    <path d="M 90.755152 262.634456 
L 90.755152 183.311991 
" clip-path="url(#pc5f525be38)" style="fill: none; stroke: #000000"/>
    <path d="M 101.295884 229.778175 
L 101.295884 183.098327 
" clip-path="url(#pc5f525be38)" style="fill: none; stroke: #000000"/>
    <path d="M 111.836616 208.268066 
L 111.836616 197.294142 
" clip-path="url(#pc5f525be38)" style="fill: none; stroke: #000000"/>
    <path d="M 143.458812 202.933978 
L 143.458812 198.037344 
" clip-path="url(#pc5f525be38)" style="fill: none; stroke: #000000"/>
   </g>
   <g id="line2d_16">
    <path d="M 85.484786 261.178736 
L 90.755152 222.973223 
L 101.295884 206.438251 
L 111.836616 202.781104 
L 143.458812 200.485661 
" clip-path="url(#pc5f525be38)" style="fill: none; stroke-dasharray: 3.7,1.6; stroke-dashoffset: 0; stroke: #000000"/>
    <defs>
     <path id="m260228d1aa" d="M -3 3 
L 3 3 
L 3 -3 
L -3 -3 
z
" style="stroke: #000000; stroke-linejoin: miter"/>
    </defs>
    <g clip-path="url(#pc5f525be38)">
     <use xlink:href="#m260228d1aa" x="85.484786" y="261.178736" style="stroke: #000000; stroke-linejoin: miter"/>
     <use xlink:href="#m260228d1aa" x="90.755152" y="222.973223" style="stroke: #000000; stroke-linejoin: miter"/>
     <use xlink:href="#m260228d1aa" x="101.295884" y="206.438251" style="stroke: #000000; stroke-linejoin: miter"/>
     <use xlink:href="#m260228d1aa" x="111.836616" y="202.781104" style="stroke: #000000; stroke-linejoin: miter"/>
     <use xlink:href="#m260228d1aa" x="143.458812" y="200.485661" style="stroke: #000000; stroke-linejoin: miter"/>
    </g>
   </g>
   <g id="line2d_17">
    <path d="M 80.21442 349.884 
L 81.011563 341.538039 
L 82.605848 318.73702 
L 83.402991 309.969661 
L 84.200134 302.987777 
L 84.997277 297.426972 
L 85.79442 292.952008 
L 86.591563 289.294711 
L 87.388705 286.250297 
L 88.982991 281.424425 
L 90.577277 277.657491 
L 92.171563 274.496808 
L 94.562991 270.374231 
L 97.751563 265.449214 
L 102.53442 258.599761 
L 108.11442 251.015631 
L 114.491563 242.706332 
L 121.665848 233.738828 
L 128.840134 225.138163 
L 136.01442 216.882942 
L 143.188705 208.957242 
L 150.362991 201.347238 
L 157.537277 194.040126 
L 164.711563 187.02377 
L 172.682991 179.554728 
L 180.65442 172.4151 
L 188.625848 165.590335 
L 196.597277 159.066532 
L 204.568705 152.8304 
L 212.540134 146.86924 
L 220.511563 141.170911 
L 228.482991 135.72381 
L 237.251563 130.008944 
L 246.020134 124.570575 
L 254.788705 119.395307 
L 263.557277 114.470394 
L 272.325848 109.783706 
L 281.891563 104.929107 
L 291.457277 100.330068 
L 301.022991 95.973116 
L 310.588705 91.845486 
L 320.951563 87.618666 
L 331.31442 83.632277 
L 341.677277 79.872619 
L 352.837277 76.06252 
L 363.997277 72.485224 
L 375.95442 68.894575 
L 387.911563 65.538411 
L 399.071563 62.604 
L 399.071563 62.604 
" clip-path="url(#pc5f525be38)" style="fill: none; stroke: #000000; stroke-width: 2; stroke-linecap: square"/>
   </g>
   <g id="patch_3">
    <path d="M 64.271563 364.248 
L 64.271563 48.24 
" style="fill: none; stroke: #000000; stroke-width: 0.8; stroke-linejoin: miter; stroke-linecap: square"/>
   </g>
   <g id="patch_4">
    <path d="M 415.01442 364.248 
L 415.01442 48.24 
" style="fill: none; stroke: #000000; stroke-width: 0.8; stroke-linejoin: miter; stroke-linecap: square"/>
   </g>
   <g id="patch_5">
    <path d="M 64.271563 364.248 
L 415.01442 364.248 
" style="fill: none; stroke: #000000; stroke-width: 0.8; stroke-linejoin: miter; stroke-linecap: square"/>
   </g>
   <g id="patch_6">
    <path d="M 64.271563 48.24 
L 415.01442 48.24 
" style="fill: none; stroke: #000000; stroke-width: 0.8; stroke-linejoin: miter; stroke-linecap: square"/>
   </g>
   <g id="legend_1">
    <g id="patch_7">
     <path d="M 71.271563 85.59625 
L 259.8575 85.59625 
Q 261.8575 85.59625 261.8575 83.59625 
L 261.8575 55.24 
Q 261.8575 53.24 259.8575 53.24 
L 71.271563 53.24 
Q 69.271563 53.24 69.271563 55.24 
L 69.271563 83.59625 
Q 69.271563 85.59625 71.271563 85.59625 
z
" style="fill: #ffffff; opacity: 0.8; stroke: #cccccc; stroke-linejoin: miter"/>
    </g>
    <g id="LineCollection_2">
     <path d="M 83.271563 66.338437 
L 83.271563 56.338437 
" style="fill: none; stroke: #000000"/>
    </g>
    <g id="line2d_18">
     <path d="M 73.271563 61.338437 
L 93.271563 61.338437 
" style="fill: none; stroke-dasharray: 3.7,1.6; stroke-dashoffset: 0; stroke: #000000"/>
    </g>
    <g id="line2d_19">
     <g>
      <use xlink:href="#m260228d1aa" x="83.271563" y="61.338437" style="stroke: #000000; stroke-linejoin: miter"/>
     </g>
    </g>
    <g id="text_18">
     <!-- exp: 1.37mg/kg PO±SD (n=10) -->
     <g transform="translate(101.271563 64.838437) scale(0.1 -0.1)">
      <defs>
       <path id="DejaVuSans-65" d="M 3597 1894 
L 3597 1613 
L 953 1613 
Q 991 1019 1311 708 
Q 1631 397 2203 397 
Q 2534 397 2845 478 
Q 3156 559 3463 722 
L 3463 178 
Q 3153 47 2828 -22 
Q 2503 -91 2169 -91 
Q 1331 -91 842 396 
Q 353 884 353 1716 
Q 353 2575 817 3079 
Q 1281 3584 2069 3584 
Q 2775 3584 3186 3129 
Q 3597 2675 3597 1894 
z
M 3022 2063 
Q 3016 2534 2758 2815 
Q 2500 3097 2075 3097 
Q 1594 3097 1305 2825 
Q 1016 2553 972 2059 
L 3022 2063 
z
" transform="scale(0.015625)"/>
       <path id="DejaVuSans-78" d="M 3513 3500 
L 2247 1797 
L 3578 0 
L 2900 0 
L 1881 1375 
L 863 0 
L 184 0 
L 1544 1831 
L 300 3500 
L 978 3500 
L 1906 2253 
L 2834 3500 
L 3513 3500 
z
" transform="scale(0.015625)"/>
       <path id="DejaVuSans-70" d="M 1159 525 
L 1159 -1331 
L 581 -1331 
L 581 3500 
L 1159 3500 
L 1159 2969 
Q 1341 3281 1617 3432 
Q 1894 3584 2278 3584 
Q 2916 3584 3314 3078 
Q 3713 2572 3713 1747 
Q 3713 922 3314 415 
Q 2916 -91 2278 -91 
Q 1894 -91 1617 61 
Q 1341 213 1159 525 
z
M 3116 1747 
Q 3116 2381 2855 2742 
Q 2594 3103 2138 3103 
Q 1681 3103 1420 2742 
Q 1159 2381 1159 1747 
Q 1159 1113 1420 752 
Q 1681 391 2138 391 
Q 2594 391 2855 752 
Q 3116 1113 3116 1747 
z
" transform="scale(0.015625)"/>
       <path id="DejaVuSans-3a" d="M 750 794 
L 1409 794 
L 1409 0 
L 750 0 
L 750 794 
z
M 750 3309 
L 1409 3309 
L 1409 2516 
L 750 2516 
L 750 3309 
z
" transform="scale(0.015625)"/>
       <path id="DejaVuSans-20" transform="scale(0.015625)"/>
       <path id="DejaVuSans-2e" d="M 684 794 
L 1344 794 
L 1344 0 
L 684 0 
L 684 794 
z
" transform="scale(0.015625)"/>
       <path id="DejaVuSans-37" d="M 525 4666 
L 3525 4666 
L 3525 4397 
L 1831 0 
L 1172 0 
L 2766 4134 
L 525 4134 
L 525 4666 
z
" transform="scale(0.015625)"/>
       <path id="DejaVuSans-6d" d="M 3328 2828 
Q 3544 3216 3844 3400 
Q 4144 3584 4550 3584 
Q 5097 3584 5394 3201 
Q 5691 2819 5691 2113 
L 5691 0 
L 5113 0 
L 5113 2094 
Q 5113 2597 4934 2840 
Q 4756 3084 4391 3084 
Q 3944 3084 3684 2787 
Q 3425 2491 3425 1978 
L 3425 0 
L 2847 0 
L 2847 2094 
Q 2847 2600 2669 2842 
Q 2491 3084 2119 3084 
Q 1678 3084 1418 2786 
Q 1159 2488 1159 1978 
L 1159 0 
L 581 0 
L 581 3500 
L 1159 3500 
L 1159 2956 
Q 1356 3278 1631 3431 
Q 1906 3584 2284 3584 
Q 2666 3584 2933 3390 
Q 3200 3197 3328 2828 
z
" transform="scale(0.015625)"/>
       <path id="DejaVuSans-67" d="M 2906 1791 
Q 2906 2416 2648 2759 
Q 2391 3103 1925 3103 
Q 1463 3103 1205 2759 
Q 947 2416 947 1791 
Q 947 1169 1205 825 
Q 1463 481 1925 481 
Q 2391 481 2648 825 
Q 2906 1169 2906 1791 
z
M 3481 434 
Q 3481 -459 3084 -895 
Q 2688 -1331 1869 -1331 
Q 1566 -1331 1297 -1286 
Q 1028 -1241 775 -1147 
L 775 -588 
Q 1028 -725 1275 -790 
Q 1522 -856 1778 -856 
Q 2344 -856 2625 -561 
Q 2906 -266 2906 331 
L 2906 616 
Q 2728 306 2450 153 
Q 2172 0 1784 0 
Q 1141 0 747 490 
Q 353 981 353 1791 
Q 353 2603 747 3093 
Q 1141 3584 1784 3584 
Q 2172 3584 2450 3431 
Q 2728 3278 2906 2969 
L 2906 3500 
L 3481 3500 
L 3481 434 
z
" transform="scale(0.015625)"/>
       <path id="DejaVuSans-2f" d="M 1625 4666 
L 2156 4666 
L 531 -594 
L 0 -594 
L 1625 4666 
z
" transform="scale(0.015625)"/>
       <path id="DejaVuSans-6b" d="M 581 4863 
L 1159 4863 
L 1159 1991 
L 2875 3500 
L 3609 3500 
L 1753 1863 
L 3688 0 
L 2938 0 
L 1159 1709 
L 1159 0 
L 581 0 
L 581 4863 
z
" transform="scale(0.015625)"/>
       <path id="DejaVuSans-50" d="M 1259 4147 
L 1259 2394 
L 2053 2394 
Q 2494 2394 2734 2622 
Q 2975 2850 2975 3272 
Q 2975 3691 2734 3919 
Q 2494 4147 2053 4147 
L 1259 4147 
z
M 628 4666 
L 2053 4666 
Q 2838 4666 3239 4311 
Q 3641 3956 3641 3272 
Q 3641 2581 3239 2228 
Q 2838 1875 2053 1875 
L 1259 1875 
L 1259 0 
L 628 0 
L 628 4666 
z
" transform="scale(0.015625)"/>
       <path id="DejaVuSans-4f" d="M 2522 4238 
Q 1834 4238 1429 3725 
Q 1025 3213 1025 2328 
Q 1025 1447 1429 934 
Q 1834 422 2522 422 
Q 3209 422 3611 934 
Q 4013 1447 4013 2328 
Q 4013 3213 3611 3725 
Q 3209 4238 2522 4238 
z
M 2522 4750 
Q 3503 4750 4090 4092 
Q 4678 3434 4678 2328 
Q 4678 1225 4090 567 
Q 3503 -91 2522 -91 
Q 1538 -91 948 565 
Q 359 1222 359 2328 
Q 359 3434 948 4092 
Q 1538 4750 2522 4750 
z
" transform="scale(0.015625)"/>
       <path id="DejaVuSans-b1" d="M 2944 4013 
L 2944 2803 
L 4684 2803 
L 4684 2272 
L 2944 2272 
L 2944 1063 
L 2419 1063 
L 2419 2272 
L 678 2272 
L 678 2803 
L 2419 2803 
L 2419 4013 
L 2944 4013 
z
M 678 531 
L 4684 531 
L 4684 0 
L 678 0 
L 678 531 
z
" transform="scale(0.015625)"/>
       <path id="DejaVuSans-53" d="M 3425 4513 
L 3425 3897 
Q 3066 4069 2747 4153 
Q 2428 4238 2131 4238 
Q 1616 4238 1336 4038 
Q 1056 3838 1056 3469 
Q 1056 3159 1242 3001 
Q 1428 2844 1947 2747 
L 2328 2669 
Q 3034 2534 3370 2195 
Q 3706 1856 3706 1288 
Q 3706 609 3251 259 
Q 2797 -91 1919 -91 
Q 1588 -91 1214 -16 
Q 841 59 441 206 
L 441 856 
Q 825 641 1194 531 
Q 1563 422 1919 422 
Q 2459 422 2753 634 
Q 3047 847 3047 1241 
Q 3047 1584 2836 1778 
Q 2625 1972 2144 2069 
L 1759 2144 
Q 1053 2284 737 2584 
Q 422 2884 422 3419 
Q 422 4038 858 4394 
Q 1294 4750 2059 4750 
Q 2388 4750 2728 4690 
Q 3069 4631 3425 4513 
z
" transform="scale(0.015625)"/>
       <path id="DejaVuSans-44" d="M 1259 4147 
L 1259 519 
L 2022 519 
Q 2988 519 3436 956 
Q 3884 1394 3884 2338 
Q 3884 3275 3436 3711 
Q 2988 4147 2022 4147 
L 1259 4147 
z
M 628 4666 
L 1925 4666 
Q 3281 4666 3915 4102 
Q 4550 3538 4550 2338 
Q 4550 1131 3912 565 
Q 3275 0 1925 0 
L 628 0 
L 628 4666 
z
" transform="scale(0.015625)"/>
       <path id="DejaVuSans-28" d="M 1984 4856 
Q 1566 4138 1362 3434 
Q 1159 2731 1159 2009 
Q 1159 1288 1364 580 
Q 1569 -128 1984 -844 
L 1484 -844 
Q 1016 -109 783 600 
Q 550 1309 550 2009 
Q 550 2706 781 3412 
Q 1013 4119 1484 4856 
L 1984 4856 
z
" transform="scale(0.015625)"/>
       <path id="DejaVuSans-6e" d="M 3513 2113 
L 3513 0 
L 2938 0 
L 2938 2094 
Q 2938 2591 2744 2837 
Q 2550 3084 2163 3084 
Q 1697 3084 1428 2787 
Q 1159 2491 1159 1978 
L 1159 0 
L 581 0 
L 581 3500 
L 1159 3500 
L 1159 2956 
Q 1366 3272 1645 3428 
Q 1925 3584 2291 3584 
Q 2894 3584 3203 3211 
Q 3513 2838 3513 2113 
z
" transform="scale(0.015625)"/>
       <path id="DejaVuSans-3d" d="M 678 2906 
L 4684 2906 
L 4684 2381 
L 678 2381 
L 678 2906 
z
M 678 1631 
L 4684 1631 
L 4684 1100 
L 678 1100 
L 678 1631 
z
" transform="scale(0.015625)"/>
       <path id="DejaVuSans-29" d="M 513 4856 
L 1013 4856 
Q 1481 4119 1714 3412 
Q 1947 2706 1947 2009 
Q 1947 1309 1714 600 
Q 1481 -109 1013 -844 
L 513 -844 
Q 928 -128 1133 580 
Q 1338 1288 1338 2009 
Q 1338 2731 1133 3434 
Q 928 4138 513 4856 
z
" transform="scale(0.015625)"/>
      </defs>
      <use xlink:href="#DejaVuSans-65"/>
      <use xlink:href="#DejaVuSans-78" transform="translate(59.773438 0)"/>
      <use xlink:href="#DejaVuSans-70" transform="translate(118.953125 0)"/>
      <use xlink:href="#DejaVuSans-3a" transform="translate(182.429688 0)"/>
      <use xlink:href="#DejaVuSans-20" transform="translate(216.121094 0)"/>
      <use xlink:href="#DejaVuSans-31" transform="translate(247.908203 0)"/>
      <use xlink:href="#DejaVuSans-2e" transform="translate(311.53125 0)"/>
      <use xlink:href="#DejaVuSans-33" transform="translate(343.318359 0)"/>
      <use xlink:href="#DejaVuSans-37" transform="translate(406.941406 0)"/>
      <use xlink:href="#DejaVuSans-6d" transform="translate(470.564453 0)"/>
      <use xlink:href="#DejaVuSans-67" transform="translate(567.976562 0)"/>
      <use xlink:href="#DejaVuSans-2f" transform="translate(631.453125 0)"/>
      <use xlink:href="#DejaVuSans-6b" transform="translate(665.144531 0)"/>
      <use xlink:href="#DejaVuSans-67" transform="translate(723.054688 0)"/>
      <use xlink:href="#DejaVuSans-20" transform="translate(786.53125 0)"/>
      <use xlink:href="#DejaVuSans-50" transform="translate(818.318359 0)"/>
      <use xlink:href="#DejaVuSans-4f" transform="translate(878.621094 0)"/>
      <use xlink:href="#DejaVuSans-b1" transform="translate(957.332031 0)"/>
      <use xlink:href="#DejaVuSans-53" transform="translate(1041.121094 0)"/>
      <use xlink:href="#DejaVuSans-44" transform="translate(1104.597656 0)"/>
      <use xlink:href="#DejaVuSans-20" transform="translate(1181.599609 0)"/>
      <use xlink:href="#DejaVuSans-28" transform="translate(1213.386719 0)"/>
      <use xlink:href="#DejaVuSans-6e" transform="translate(1252.400391 0)"/>
      <use xlink:href="#DejaVuSans-3d" transform="translate(1315.779297 0)"/>
      <use xlink:href="#DejaVuSans-31" transform="translate(1399.568359 0)"/>
      <use xlink:href="#DejaVuSans-30" transform="translate(1463.191406 0)"/>
      <use xlink:href="#DejaVuSans-29" transform="translate(1526.814453 0)"/>
     </g>
    </g>
    <g id="line2d_20">
     <path d="M 73.271563 76.016562 
L 93.271563 76.016562 
" style="fill: none; stroke: #000000; stroke-width: 2; stroke-linecap: square"/>
    </g>
    <g id="line2d_21"/>
    <g id="text_19">
     <!-- sim: 1.37mg/kg PO -->
     <g transform="translate(101.271563 79.516562) scale(0.1 -0.1)">
      <defs>
       <path id="DejaVuSans-73" d="M 2834 3397 
L 2834 2853 
Q 2591 2978 2328 3040 
Q 2066 3103 1784 3103 
Q 1356 3103 1142 2972 
Q 928 2841 928 2578 
Q 928 2378 1081 2264 
Q 1234 2150 1697 2047 
L 1894 2003 
Q 2506 1872 2764 1633 
Q 3022 1394 3022 966 
Q 3022 478 2636 193 
Q 2250 -91 1575 -91 
Q 1294 -91 989 -36 
Q 684 19 347 128 
L 347 722 
Q 666 556 975 473 
Q 1284 391 1588 391 
Q 1994 391 2212 530 
Q 2431 669 2431 922 
Q 2431 1156 2273 1281 
Q 2116 1406 1581 1522 
L 1381 1569 
Q 847 1681 609 1914 
Q 372 2147 372 2553 
Q 372 3047 722 3315 
Q 1072 3584 1716 3584 
Q 2034 3584 2315 3537 
Q 2597 3491 2834 3397 
z
" transform="scale(0.015625)"/>
       <path id="DejaVuSans-69" d="M 603 3500 
L 1178 3500 
L 1178 0 
L 603 0 
L 603 3500 
z
M 603 4863 
L 1178 4863 
L 1178 4134 
L 603 4134 
L 603 4863 
z
" transform="scale(0.015625)"/>
      </defs>
      <use xlink:href="#DejaVuSans-73"/>
      <use xlink:href="#DejaVuSans-69" transform="translate(52.099609 0)"/>
      <use xlink:href="#DejaVuSans-6d" transform="translate(79.882812 0)"/>
      <use xlink:href="#DejaVuSans-3a" transform="translate(177.294922 0)"/>
      <use xlink:href="#DejaVuSans-20" transform="translate(210.986328 0)"/>
      <use xlink:href="#DejaVuSans-31" transform="translate(242.773438 0)"/>
      <use xlink:href="#DejaVuSans-2e" transform="translate(306.396484 0)"/>
      <use xlink:href="#DejaVuSans-33" transform="translate(338.183594 0)"/>
      <use xlink:href="#DejaVuSans-37" transform="translate(401.806641 0)"/>
      <use xlink:href="#DejaVuSans-6d" transform="translate(465.429688 0)"/>
      <use xlink:href="#DejaVuSans-67" transform="translate(562.841797 0)"/>
      <use xlink:href="#DejaVuSans-2f" transform="translate(626.318359 0)"/>
      <use xlink:href="#DejaVuSans-6b" transform="translate(660.009766 0)"/>
      <use xlink:href="#DejaVuSans-67" transform="translate(717.919922 0)"/>
      <use xlink:href="#DejaVuSans-20" transform="translate(781.396484 0)"/>
      <use xlink:href="#DejaVuSans-50" transform="translate(813.183594 0)"/>
      <use xlink:href="#DejaVuSans-4f" transform="translate(873.486328 0)"/>
     </g>
    </g>
   </g>
  </g>
  <g id="axes_2">
   <g id="patch_8">
    <path d="M 520.237277 364.248 
L 870.980134 364.248 
L 870.980134 48.24 
L 520.237277 48.24 
z
" style="fill: #ffffff"/>
   </g>
   <g id="matplotlib.axis_3">
    <g id="xtick_8">
     <g id="line2d_22">
      <g>
       <use xlink:href="#m493276dd89" x="536.180134" y="364.248" style="stroke: #000000; stroke-width: 0.8"/>
      </g>
     </g>
     <g id="text_20">
      <!-- 0 -->
      <g transform="translate(531.408259 382.645656) scale(0.15 -0.15)">
       <use xlink:href="#DejaVuSans-30"/>
      </g>
     </g>
    </g>
    <g id="xtick_9">
     <g id="line2d_23">
      <g>
       <use xlink:href="#m493276dd89" x="588.883794" y="364.248" style="stroke: #000000; stroke-width: 0.8"/>
      </g>
     </g>
     <g id="text_21">
      <!-- 20 -->
      <g transform="translate(579.340044 382.645656) scale(0.15 -0.15)">
       <use xlink:href="#DejaVuSans-32"/>
       <use xlink:href="#DejaVuSans-30" transform="translate(63.623047 0)"/>
      </g>
     </g>
    </g>
    <g id="xtick_10">
     <g id="line2d_24">
      <g>
       <use xlink:href="#m493276dd89" x="641.587454" y="364.248" style="stroke: #000000; stroke-width: 0.8"/>
      </g>
     </g>
     <g id="text_22">
      <!-- 40 -->
      <g transform="translate(632.043704 382.645656) scale(0.15 -0.15)">
       <use xlink:href="#DejaVuSans-34"/>
       <use xlink:href="#DejaVuSans-30" transform="translate(63.623047 0)"/>
      </g>
     </g>
    </g>
    <g id="xtick_11">
     <g id="line2d_25">
      <g>
       <use xlink:href="#m493276dd89" x="694.291114" y="364.248" style="stroke: #000000; stroke-width: 0.8"/>
      </g>
     </g>
     <g id="text_23">
      <!-- 60 -->
      <g transform="translate(684.747364 382.645656) scale(0.15 -0.15)">
       <use xlink:href="#DejaVuSans-36"/>
       <use xlink:href="#DejaVuSans-30" transform="translate(63.623047 0)"/>
      </g>
     </g>
    </g>
    <g id="xtick_12">
     <g id="line2d_26">
      <g>
       <use xlink:href="#m493276dd89" x="746.994774" y="364.248" style="stroke: #000000; stroke-width: 0.8"/>
      </g>
     </g>
     <g id="text_24">
      <!-- 80 -->
      <g transform="translate(737.451024 382.645656) scale(0.15 -0.15)">
       <use xlink:href="#DejaVuSans-38"/>
       <use xlink:href="#DejaVuSans-30" transform="translate(63.623047 0)"/>
      </g>
     </g>
    </g>
    <g id="xtick_13">
     <g id="line2d_27">
      <g>
       <use xlink:href="#m493276dd89" x="799.698434" y="364.248" style="stroke: #000000; stroke-width: 0.8"/>
      </g>
     </g>
     <g id="text_25">
      <!-- 100 -->
      <g transform="translate(785.382809 382.645656) scale(0.15 -0.15)">
       <use xlink:href="#DejaVuSans-31"/>
       <use xlink:href="#DejaVuSans-30" transform="translate(63.623047 0)"/>
       <use xlink:href="#DejaVuSans-30" transform="translate(127.246094 0)"/>
      </g>
     </g>
    </g>
    <g id="xtick_14">
     <g id="line2d_28">
      <g>
       <use xlink:href="#m493276dd89" x="852.402094" y="364.248" style="stroke: #000000; stroke-width: 0.8"/>
      </g>
     </g>
     <g id="text_26">
      <!-- 120 -->
      <g transform="translate(838.086469 382.645656) scale(0.15 -0.15)">
       <use xlink:href="#DejaVuSans-31"/>
       <use xlink:href="#DejaVuSans-32" transform="translate(63.623047 0)"/>
       <use xlink:href="#DejaVuSans-30" transform="translate(127.246094 0)"/>
      </g>
     </g>
    </g>
    <g id="text_27">
     <!-- time [hr] -->
     <g transform="translate(650.534174 403.442375) scale(0.18 -0.18)">
      <use xlink:href="#DejaVuSans-Bold-74"/>
      <use xlink:href="#DejaVuSans-Bold-69" transform="translate(47.802734 0)"/>
      <use xlink:href="#DejaVuSans-Bold-6d" transform="translate(82.080078 0)"/>
      <use xlink:href="#DejaVuSans-Bold-65" transform="translate(186.279297 0)"/>
      <use xlink:href="#DejaVuSans-Bold-20" transform="translate(254.101562 0)"/>
      <use xlink:href="#DejaVuSans-Bold-5b" transform="translate(288.916016 0)"/>
      <use xlink:href="#DejaVuSans-Bold-68" transform="translate(334.619141 0)"/>
      <use xlink:href="#DejaVuSans-Bold-72" transform="translate(405.810547 0)"/>
      <use xlink:href="#DejaVuSans-Bold-5d" transform="translate(455.126953 0)"/>
     </g>
    </g>
   </g>
   <g id="matplotlib.axis_4">
    <g id="ytick_9">
     <g id="line2d_29">
      <g>
       <use xlink:href="#mc986d5a98d" x="520.237277" y="349.884" style="stroke: #000000; stroke-width: 0.8"/>
      </g>
     </g>
     <g id="text_28">
      <!-- 0 -->
      <g transform="translate(503.693527 355.582828) scale(0.15 -0.15)">
       <use xlink:href="#DejaVuSans-30"/>
      </g>
     </g>
    </g>
    <g id="ytick_10">
     <g id="line2d_30">
      <g>
       <use xlink:href="#mc986d5a98d" x="520.237277" y="313.867982" style="stroke: #000000; stroke-width: 0.8"/>
      </g>
     </g>
     <g id="text_29">
      <!-- 50 -->
      <g transform="translate(494.149777 319.56681) scale(0.15 -0.15)">
       <use xlink:href="#DejaVuSans-35"/>
       <use xlink:href="#DejaVuSans-30" transform="translate(63.623047 0)"/>
      </g>
     </g>
    </g>
    <g id="ytick_11">
     <g id="line2d_31">
      <g>
       <use xlink:href="#mc986d5a98d" x="520.237277" y="277.851964" style="stroke: #000000; stroke-width: 0.8"/>
      </g>
     </g>
     <g id="text_30">
      <!-- 100 -->
      <g transform="translate(484.606027 283.550792) scale(0.15 -0.15)">
       <use xlink:href="#DejaVuSans-31"/>
       <use xlink:href="#DejaVuSans-30" transform="translate(63.623047 0)"/>
       <use xlink:href="#DejaVuSans-30" transform="translate(127.246094 0)"/>
      </g>
     </g>
    </g>
    <g id="ytick_12">
     <g id="line2d_32">
      <g>
       <use xlink:href="#mc986d5a98d" x="520.237277" y="241.835946" style="stroke: #000000; stroke-width: 0.8"/>
      </g>
     </g>
     <g id="text_31">
      <!-- 150 -->
      <g transform="translate(484.606027 247.534775) scale(0.15 -0.15)">
       <use xlink:href="#DejaVuSans-31"/>
       <use xlink:href="#DejaVuSans-35" transform="translate(63.623047 0)"/>
       <use xlink:href="#DejaVuSans-30" transform="translate(127.246094 0)"/>
      </g>
     </g>
    </g>
    <g id="ytick_13">
     <g id="line2d_33">
      <g>
       <use xlink:href="#mc986d5a98d" x="520.237277" y="205.819929" style="stroke: #000000; stroke-width: 0.8"/>
      </g>
     </g>
     <g id="text_32">
      <!-- 200 -->
      <g transform="translate(484.606027 211.518757) scale(0.15 -0.15)">
       <use xlink:href="#DejaVuSans-32"/>
       <use xlink:href="#DejaVuSans-30" transform="translate(63.623047 0)"/>
       <use xlink:href="#DejaVuSans-30" transform="translate(127.246094 0)"/>
      </g>
     </g>
    </g>
    <g id="ytick_14">
     <g id="line2d_34">
      <g>
       <use xlink:href="#mc986d5a98d" x="520.237277" y="169.803911" style="stroke: #000000; stroke-width: 0.8"/>
      </g>
     </g>
     <g id="text_33">
      <!-- 250 -->
      <g transform="translate(484.606027 175.502739) scale(0.15 -0.15)">
       <use xlink:href="#DejaVuSans-32"/>
       <use xlink:href="#DejaVuSans-35" transform="translate(63.623047 0)"/>
       <use xlink:href="#DejaVuSans-30" transform="translate(127.246094 0)"/>
      </g>
     </g>
    </g>
    <g id="ytick_15">
     <g id="line2d_35">
      <g>
       <use xlink:href="#mc986d5a98d" x="520.237277" y="133.787893" style="stroke: #000000; stroke-width: 0.8"/>
      </g>
     </g>
     <g id="text_34">
      <!-- 300 -->
      <g transform="translate(484.606027 139.486721) scale(0.15 -0.15)">
       <use xlink:href="#DejaVuSans-33"/>
       <use xlink:href="#DejaVuSans-30" transform="translate(63.623047 0)"/>
       <use xlink:href="#DejaVuSans-30" transform="translate(127.246094 0)"/>
      </g>
     </g>
    </g>
    <g id="ytick_16">
     <g id="line2d_36">
      <g>
       <use xlink:href="#mc986d5a98d" x="520.237277" y="97.771875" style="stroke: #000000; stroke-width: 0.8"/>
      </g>
     </g>
     <g id="text_35">
      <!-- 350 -->
      <g transform="translate(484.606027 103.470703) scale(0.15 -0.15)">
       <use xlink:href="#DejaVuSans-33"/>
       <use xlink:href="#DejaVuSans-35" transform="translate(63.623047 0)"/>
       <use xlink:href="#DejaVuSans-30" transform="translate(127.246094 0)"/>
      </g>
     </g>
    </g>
    <g id="ytick_17">
     <g id="line2d_37">
      <g>
       <use xlink:href="#mc986d5a98d" x="520.237277" y="61.755857" style="stroke: #000000; stroke-width: 0.8"/>
      </g>
     </g>
     <g id="text_36">
      <!-- 400 -->
      <g transform="translate(484.606027 67.454685) scale(0.15 -0.15)">
       <use xlink:href="#DejaVuSans-34"/>
       <use xlink:href="#DejaVuSans-30" transform="translate(63.623047 0)"/>
       <use xlink:href="#DejaVuSans-30" transform="translate(127.246094 0)"/>
      </g>
     </g>
    </g>
    <g id="text_37">
     <!-- cap + capss + capme -->
     <g transform="translate(456.686839 313.608375) rotate(-90) scale(0.18 -0.18)">
      <defs>
       <path id="DejaVuSans-Bold-2b" d="M 3053 4013 
L 3053 2375 
L 4684 2375 
L 4684 1638 
L 3053 1638 
L 3053 0 
L 2309 0 
L 2309 1638 
L 678 1638 
L 678 2375 
L 2309 2375 
L 2309 4013 
L 3053 4013 
z
" transform="scale(0.015625)"/>
       <path id="DejaVuSans-Bold-73" d="M 3272 3391 
L 3272 2541 
Q 2913 2691 2578 2766 
Q 2244 2841 1947 2841 
Q 1628 2841 1473 2761 
Q 1319 2681 1319 2516 
Q 1319 2381 1436 2309 
Q 1553 2238 1856 2203 
L 2053 2175 
Q 2913 2066 3209 1816 
Q 3506 1566 3506 1031 
Q 3506 472 3093 190 
Q 2681 -91 1863 -91 
Q 1516 -91 1145 -36 
Q 775 19 384 128 
L 384 978 
Q 719 816 1070 734 
Q 1422 653 1784 653 
Q 2113 653 2278 743 
Q 2444 834 2444 1013 
Q 2444 1163 2330 1236 
Q 2216 1309 1875 1350 
L 1678 1375 
Q 931 1469 631 1722 
Q 331 1975 331 2491 
Q 331 3047 712 3315 
Q 1094 3584 1881 3584 
Q 2191 3584 2531 3537 
Q 2872 3491 3272 3391 
z
" transform="scale(0.015625)"/>
      </defs>
      <use xlink:href="#DejaVuSans-Bold-63"/>
      <use xlink:href="#DejaVuSans-Bold-61" transform="translate(59.277344 0)"/>
      <use xlink:href="#DejaVuSans-Bold-70" transform="translate(126.757812 0)"/>
      <use xlink:href="#DejaVuSans-Bold-20" transform="translate(198.339844 0)"/>
      <use xlink:href="#DejaVuSans-Bold-2b" transform="translate(233.154297 0)"/>
      <use xlink:href="#DejaVuSans-Bold-20" transform="translate(316.943359 0)"/>
      <use xlink:href="#DejaVuSans-Bold-63" transform="translate(351.757812 0)"/>
      <use xlink:href="#DejaVuSans-Bold-61" transform="translate(411.035156 0)"/>
      <use xlink:href="#DejaVuSans-Bold-70" transform="translate(478.515625 0)"/>
      <use xlink:href="#DejaVuSans-Bold-73" transform="translate(550.097656 0)"/>
      <use xlink:href="#DejaVuSans-Bold-73" transform="translate(609.619141 0)"/>
      <use xlink:href="#DejaVuSans-Bold-20" transform="translate(669.140625 0)"/>
      <use xlink:href="#DejaVuSans-Bold-2b" transform="translate(703.955078 0)"/>
      <use xlink:href="#DejaVuSans-Bold-20" transform="translate(787.744141 0)"/>
      <use xlink:href="#DejaVuSans-Bold-63" transform="translate(822.558594 0)"/>
      <use xlink:href="#DejaVuSans-Bold-61" transform="translate(881.835938 0)"/>
      <use xlink:href="#DejaVuSans-Bold-70" transform="translate(949.316406 0)"/>
      <use xlink:href="#DejaVuSans-Bold-6d" transform="translate(1020.898438 0)"/>
      <use xlink:href="#DejaVuSans-Bold-65" transform="translate(1125.097656 0)"/>
     </g>
     <!-- urine [µmole] -->
     <g transform="translate(476.842902 275.418844) rotate(-90) scale(0.18 -0.18)">
      <use xlink:href="#DejaVuSans-Bold-75"/>
      <use xlink:href="#DejaVuSans-Bold-72" transform="translate(71.191406 0)"/>
      <use xlink:href="#DejaVuSans-Bold-69" transform="translate(120.507812 0)"/>
      <use xlink:href="#DejaVuSans-Bold-6e" transform="translate(154.785156 0)"/>
      <use xlink:href="#DejaVuSans-Bold-65" transform="translate(225.976562 0)"/>
      <use xlink:href="#DejaVuSans-Bold-20" transform="translate(293.798828 0)"/>
      <use xlink:href="#DejaVuSans-Bold-5b" transform="translate(328.613281 0)"/>
      <use xlink:href="#DejaVuSans-Bold-b5" transform="translate(374.316406 0)"/>
      <use xlink:href="#DejaVuSans-Bold-6d" transform="translate(447.900391 0)"/>
      <use xlink:href="#DejaVuSans-Bold-6f" transform="translate(552.099609 0)"/>
      <use xlink:href="#DejaVuSans-Bold-6c" transform="translate(620.800781 0)"/>
      <use xlink:href="#DejaVuSans-Bold-65" transform="translate(655.078125 0)"/>
      <use xlink:href="#DejaVuSans-Bold-5d" transform="translate(722.900391 0)"/>
     </g>
    </g>
   </g>
   <g id="LineCollection_3">
    <path d="M 541.4505 299.149335 
L 541.4505 244.477186 
" clip-path="url(#p8517ce1e52)" style="fill: none; stroke: #000000"/>
    <path d="M 546.720866 255.68177 
L 546.720866 196.821174 
" clip-path="url(#p8517ce1e52)" style="fill: none; stroke: #000000"/>
    <path d="M 557.261598 232.032571 
L 557.261598 170.721825 
" clip-path="url(#p8517ce1e52)" style="fill: none; stroke: #000000"/>
    <path d="M 567.80233 203.651553 
L 567.80233 182.503576 
" clip-path="url(#p8517ce1e52)" style="fill: none; stroke: #000000"/>
    <path d="M 599.424526 191.463236 
L 599.424526 183.215248 
" clip-path="url(#p8517ce1e52)" style="fill: none; stroke: #000000"/>
    <path d="M 662.668918 187.133556 
L 662.668918 182.520817 
" clip-path="url(#p8517ce1e52)" style="fill: none; stroke: #000000"/>
    <path d="M 725.91331 185.129419 
L 725.91331 182.948763 
" clip-path="url(#p8517ce1e52)" style="fill: none; stroke: #000000"/>
    <path d="M 789.157702 211.162498 
L 789.157702 156.47238 
" clip-path="url(#p8517ce1e52)" style="fill: none; stroke: #000000"/>
    <path d="M 852.402094 206.308284 
L 852.402094 160.981802 
" clip-path="url(#p8517ce1e52)" style="fill: none; stroke: #000000"/>
   </g>
   <g id="line2d_38">
    <path d="M 541.4505 271.81326 
L 546.720866 226.251472 
L 557.261598 201.377198 
L 567.80233 193.077565 
L 599.424526 187.339242 
L 662.668918 184.827187 
L 725.91331 184.039091 
L 789.157702 183.817439 
L 852.402094 183.645043 
" clip-path="url(#p8517ce1e52)" style="fill: none; stroke-dasharray: 3.7,1.6; stroke-dashoffset: 0; stroke: #000000"/>
    <g clip-path="url(#p8517ce1e52)">
     <use xlink:href="#m260228d1aa" x="541.4505" y="271.81326" style="stroke: #000000; stroke-linejoin: miter"/>
     <use xlink:href="#m260228d1aa" x="546.720866" y="226.251472" style="stroke: #000000; stroke-linejoin: miter"/>
     <use xlink:href="#m260228d1aa" x="557.261598" y="201.377198" style="stroke: #000000; stroke-linejoin: miter"/>
     <use xlink:href="#m260228d1aa" x="567.80233" y="193.077565" style="stroke: #000000; stroke-linejoin: miter"/>
     <use xlink:href="#m260228d1aa" x="599.424526" y="187.339242" style="stroke: #000000; stroke-linejoin: miter"/>
     <use xlink:href="#m260228d1aa" x="662.668918" y="184.827187" style="stroke: #000000; stroke-linejoin: miter"/>
     <use xlink:href="#m260228d1aa" x="725.91331" y="184.039091" style="stroke: #000000; stroke-linejoin: miter"/>
     <use xlink:href="#m260228d1aa" x="789.157702" y="183.817439" style="stroke: #000000; stroke-linejoin: miter"/>
     <use xlink:href="#m260228d1aa" x="852.402094" y="183.645043" style="stroke: #000000; stroke-linejoin: miter"/>
    </g>
   </g>
   <g id="line2d_39">
    <path d="M 536.180134 349.884 
L 536.977277 342.684511 
L 538.571563 322.538853 
L 539.368705 314.525044 
L 540.165848 307.969696 
L 540.962991 302.594797 
L 541.760134 298.137655 
L 542.557277 294.385342 
L 544.151562 288.377415 
L 545.745848 283.67868 
L 547.340134 279.778909 
L 548.93442 276.383715 
L 551.325848 271.878165 
L 554.51442 266.52032 
L 557.702991 261.597381 
L 561.688705 255.818164 
L 566.471563 249.244941 
L 572.051562 241.925715 
L 578.428705 233.91355 
L 585.602991 225.276555 
L 592.777277 216.997845 
L 599.951563 209.053641 
L 607.125848 201.427302 
L 614.300134 194.105011 
L 621.47442 187.074254 
L 629.445848 179.589952 
L 637.417277 172.435756 
L 645.388705 165.597072 
L 653.360134 159.059961 
L 661.331563 152.811107 
L 669.302991 146.837782 
L 677.27442 141.127822 
L 685.245848 135.669599 
L 694.01442 129.943061 
L 702.782991 124.493582 
L 711.551562 119.307738 
L 720.320134 114.372757 
L 729.088705 109.676486 
L 738.65442 104.811956 
L 748.220134 100.203505 
L 757.785848 95.837633 
L 767.351562 91.701551 
L 777.71442 87.466071 
L 788.077277 83.47151 
L 798.440134 79.704143 
L 809.600134 75.886226 
L 820.760134 72.301587 
L 832.717277 68.703564 
L 844.67442 65.340503 
L 855.037277 62.604 
L 855.037277 62.604 
" clip-path="url(#p8517ce1e52)" style="fill: none; stroke: #000000; stroke-width: 2; stroke-linecap: square"/>
   </g>
   <g id="patch_9">
    <path d="M 520.237277 364.248 
L 520.237277 48.24 
" style="fill: none; stroke: #000000; stroke-width: 0.8; stroke-linejoin: miter; stroke-linecap: square"/>
   </g>
   <g id="patch_10">
    <path d="M 870.980134 364.248 
L 870.980134 48.24 
" style="fill: none; stroke: #000000; stroke-width: 0.8; stroke-linejoin: miter; stroke-linecap: square"/>
   </g>
   <g id="patch_11">
    <path d="M 520.237277 364.248 
L 870.980134 364.248 
" style="fill: none; stroke: #000000; stroke-width: 0.8; stroke-linejoin: miter; stroke-linecap: square"/>
   </g>
   <g id="patch_12">
    <path d="M 520.237277 48.24 
L 870.980134 48.24 
" style="fill: none; stroke: #000000; stroke-width: 0.8; stroke-linejoin: miter; stroke-linecap: square"/>
   </g>
   <g id="legend_2">
    <g id="patch_13">
     <path d="M 527.237277 85.59625 
L 715.823214 85.59625 
Q 717.823214 85.59625 717.823214 83.59625 
L 717.823214 55.24 
Q 717.823214 53.24 715.823214 53.24 
L 527.237277 53.24 
Q 525.237277 53.24 525.237277 55.24 
L 525.237277 83.59625 
Q 525.237277 85.59625 527.237277 85.59625 
z
" style="fill: #ffffff; opacity: 0.8; stroke: #cccccc; stroke-linejoin: miter"/>
    </g>
    <g id="LineCollection_4">
     <path d="M 539.237277 66.338437 
L 539.237277 56.338437 
" style="fill: none; stroke: #000000"/>
    </g>
    <g id="line2d_40">
     <path d="M 529.237277 61.338437 
L 549.237277 61.338437 
" style="fill: none; stroke-dasharray: 3.7,1.6; stroke-dashoffset: 0; stroke: #000000"/>
    </g>
    <g id="line2d_41">
     <g>
      <use xlink:href="#m260228d1aa" x="539.237277" y="61.338437" style="stroke: #000000; stroke-linejoin: miter"/>
     </g>
    </g>
    <g id="text_38">
     <!-- exp: 1.37mg/kg PO±SD (n=10) -->
     <g transform="translate(557.237277 64.838437) scale(0.1 -0.1)">
      <use xlink:href="#DejaVuSans-65"/>
      <use xlink:href="#DejaVuSans-78" transform="translate(59.773438 0)"/>
      <use xlink:href="#DejaVuSans-70" transform="translate(118.953125 0)"/>
      <use xlink:href="#DejaVuSans-3a" transform="translate(182.429688 0)"/>
      <use xlink:href="#DejaVuSans-20" transform="translate(216.121094 0)"/>
      <use xlink:href="#DejaVuSans-31" transform="translate(247.908203 0)"/>
      <use xlink:href="#DejaVuSans-2e" transform="translate(311.53125 0)"/>
      <use xlink:href="#DejaVuSans-33" transform="translate(343.318359 0)"/>
      <use xlink:href="#DejaVuSans-37" transform="translate(406.941406 0)"/>
      <use xlink:href="#DejaVuSans-6d" transform="translate(470.564453 0)"/>
      <use xlink:href="#DejaVuSans-67" transform="translate(567.976562 0)"/>
      <use xlink:href="#DejaVuSans-2f" transform="translate(631.453125 0)"/>
      <use xlink:href="#DejaVuSans-6b" transform="translate(665.144531 0)"/>
      <use xlink:href="#DejaVuSans-67" transform="translate(723.054688 0)"/>
      <use xlink:href="#DejaVuSans-20" transform="translate(786.53125 0)"/>
      <use xlink:href="#DejaVuSans-50" transform="translate(818.318359 0)"/>
      <use xlink:href="#DejaVuSans-4f" transform="translate(878.621094 0)"/>
      <use xlink:href="#DejaVuSans-b1" transform="translate(957.332031 0)"/>
      <use xlink:href="#DejaVuSans-53" transform="translate(1041.121094 0)"/>
      <use xlink:href="#DejaVuSans-44" transform="translate(1104.597656 0)"/>
      <use xlink:href="#DejaVuSans-20" transform="translate(1181.599609 0)"/>
      <use xlink:href="#DejaVuSans-28" transform="translate(1213.386719 0)"/>
      <use xlink:href="#DejaVuSans-6e" transform="translate(1252.400391 0)"/>
      <use xlink:href="#DejaVuSans-3d" transform="translate(1315.779297 0)"/>
      <use xlink:href="#DejaVuSans-31" transform="translate(1399.568359 0)"/>
      <use xlink:href="#DejaVuSans-30" transform="translate(1463.191406 0)"/>
      <use xlink:href="#DejaVuSans-29" transform="translate(1526.814453 0)"/>
     </g>
    </g>
    <g id="line2d_42">
     <path d="M 529.237277 76.016562 
L 549.237277 76.016562 
" style="fill: none; stroke: #000000; stroke-width: 2; stroke-linecap: square"/>
    </g>
    <g id="line2d_43"/>
    <g id="text_39">
     <!-- sim: 1.37mg/kg PO -->
     <g transform="translate(557.237277 79.516562) scale(0.1 -0.1)">
      <use xlink:href="#DejaVuSans-73"/>
      <use xlink:href="#DejaVuSans-69" transform="translate(52.099609 0)"/>
      <use xlink:href="#DejaVuSans-6d" transform="translate(79.882812 0)"/>
      <use xlink:href="#DejaVuSans-3a" transform="translate(177.294922 0)"/>
      <use xlink:href="#DejaVuSans-20" transform="translate(210.986328 0)"/>
      <use xlink:href="#DejaVuSans-31" transform="translate(242.773438 0)"/>
      <use xlink:href="#DejaVuSans-2e" transform="translate(306.396484 0)"/>
      <use xlink:href="#DejaVuSans-33" transform="translate(338.183594 0)"/>
      <use xlink:href="#DejaVuSans-37" transform="translate(401.806641 0)"/>
      <use xlink:href="#DejaVuSans-6d" transform="translate(465.429688 0)"/>
      <use xlink:href="#DejaVuSans-67" transform="translate(562.841797 0)"/>
      <use xlink:href="#DejaVuSans-2f" transform="translate(626.318359 0)"/>
      <use xlink:href="#DejaVuSans-6b" transform="translate(660.009766 0)"/>
      <use xlink:href="#DejaVuSans-67" transform="translate(717.919922 0)"/>
      <use xlink:href="#DejaVuSans-20" transform="translate(781.396484 0)"/>
      <use xlink:href="#DejaVuSans-50" transform="translate(813.183594 0)"/>
      <use xlink:href="#DejaVuSans-4f" transform="translate(873.486328 0)"/>
     </g>
    </g>
   </g>
  </g>
  <g id="axes_3">
   <g id="patch_14">
    <path d="M 976.202991 364.248 
L 1326.945848 364.248 
L 1326.945848 48.24 
L 976.202991 48.24 
z
" style="fill: #ffffff"/>
   </g>
   <g id="matplotlib.axis_5">
    <g id="xtick_15">
     <g id="line2d_44">
      <g>
       <use xlink:href="#m493276dd89" x="992.145848" y="364.248" style="stroke: #000000; stroke-width: 0.8"/>
      </g>
     </g>
     <g id="text_40">
      <!-- 0 -->
      <g transform="translate(987.373973 382.645656) scale(0.15 -0.15)">
       <use xlink:href="#DejaVuSans-30"/>
      </g>
     </g>
    </g>
    <g id="xtick_16">
     <g id="line2d_45">
      <g>
       <use xlink:href="#m493276dd89" x="1044.849508" y="364.248" style="stroke: #000000; stroke-width: 0.8"/>
      </g>
     </g>
     <g id="text_41">
      <!-- 20 -->
      <g transform="translate(1035.305758 382.645656) scale(0.15 -0.15)">
       <use xlink:href="#DejaVuSans-32"/>
       <use xlink:href="#DejaVuSans-30" transform="translate(63.623047 0)"/>
      </g>
     </g>
    </g>
    <g id="xtick_17">
     <g id="line2d_46">
      <g>
       <use xlink:href="#m493276dd89" x="1097.553168" y="364.248" style="stroke: #000000; stroke-width: 0.8"/>
      </g>
     </g>
     <g id="text_42">
      <!-- 40 -->
      <g transform="translate(1088.009418 382.645656) scale(0.15 -0.15)">
       <use xlink:href="#DejaVuSans-34"/>
       <use xlink:href="#DejaVuSans-30" transform="translate(63.623047 0)"/>
      </g>
     </g>
    </g>
    <g id="xtick_18">
     <g id="line2d_47">
      <g>
       <use xlink:href="#m493276dd89" x="1150.256828" y="364.248" style="stroke: #000000; stroke-width: 0.8"/>
      </g>
     </g>
     <g id="text_43">
      <!-- 60 -->
      <g transform="translate(1140.713078 382.645656) scale(0.15 -0.15)">
       <use xlink:href="#DejaVuSans-36"/>
       <use xlink:href="#DejaVuSans-30" transform="translate(63.623047 0)"/>
      </g>
     </g>
    </g>
    <g id="xtick_19">
     <g id="line2d_48">
      <g>
       <use xlink:href="#m493276dd89" x="1202.960488" y="364.248" style="stroke: #000000; stroke-width: 0.8"/>
      </g>
     </g>
     <g id="text_44">
      <!-- 80 -->
      <g transform="translate(1193.416738 382.645656) scale(0.15 -0.15)">
       <use xlink:href="#DejaVuSans-38"/>
       <use xlink:href="#DejaVuSans-30" transform="translate(63.623047 0)"/>
      </g>
     </g>
    </g>
    <g id="xtick_20">
     <g id="line2d_49">
      <g>
       <use xlink:href="#m493276dd89" x="1255.664148" y="364.248" style="stroke: #000000; stroke-width: 0.8"/>
      </g>
     </g>
     <g id="text_45">
      <!-- 100 -->
      <g transform="translate(1241.348523 382.645656) scale(0.15 -0.15)">
       <use xlink:href="#DejaVuSans-31"/>
       <use xlink:href="#DejaVuSans-30" transform="translate(63.623047 0)"/>
       <use xlink:href="#DejaVuSans-30" transform="translate(127.246094 0)"/>
      </g>
     </g>
    </g>
    <g id="xtick_21">
     <g id="line2d_50">
      <g>
       <use xlink:href="#m493276dd89" x="1308.367808" y="364.248" style="stroke: #000000; stroke-width: 0.8"/>
      </g>
     </g>
     <g id="text_46">
      <!-- 120 -->
      <g transform="translate(1294.052183 382.645656) scale(0.15 -0.15)">
       <use xlink:href="#DejaVuSans-31"/>
       <use xlink:href="#DejaVuSans-32" transform="translate(63.623047 0)"/>
       <use xlink:href="#DejaVuSans-30" transform="translate(127.246094 0)"/>
      </g>
     </g>
    </g>
    <g id="text_47">
     <!-- time [hr] -->
     <g transform="translate(1106.499888 403.442375) scale(0.18 -0.18)">
      <use xlink:href="#DejaVuSans-Bold-74"/>
      <use xlink:href="#DejaVuSans-Bold-69" transform="translate(47.802734 0)"/>
      <use xlink:href="#DejaVuSans-Bold-6d" transform="translate(82.080078 0)"/>
      <use xlink:href="#DejaVuSans-Bold-65" transform="translate(186.279297 0)"/>
      <use xlink:href="#DejaVuSans-Bold-20" transform="translate(254.101562 0)"/>
      <use xlink:href="#DejaVuSans-Bold-5b" transform="translate(288.916016 0)"/>
      <use xlink:href="#DejaVuSans-Bold-68" transform="translate(334.619141 0)"/>
      <use xlink:href="#DejaVuSans-Bold-72" transform="translate(405.810547 0)"/>
      <use xlink:href="#DejaVuSans-Bold-5d" transform="translate(455.126953 0)"/>
     </g>
    </g>
   </g>
   <g id="matplotlib.axis_6">
    <g id="ytick_18">
     <g id="line2d_51">
      <g>
       <use xlink:href="#mc986d5a98d" x="976.202991" y="349.884" style="stroke: #000000; stroke-width: 0.8"/>
      </g>
     </g>
     <g id="text_48">
      <!-- 0 -->
      <g transform="translate(959.659241 355.582828) scale(0.15 -0.15)">
       <use xlink:href="#DejaVuSans-30"/>
      </g>
     </g>
    </g>
    <g id="ytick_19">
     <g id="line2d_52">
      <g>
       <use xlink:href="#mc986d5a98d" x="976.202991" y="310.650167" style="stroke: #000000; stroke-width: 0.8"/>
      </g>
     </g>
     <g id="text_49">
      <!-- 10 -->
      <g transform="translate(950.115491 316.348995) scale(0.15 -0.15)">
       <use xlink:href="#DejaVuSans-31"/>
       <use xlink:href="#DejaVuSans-30" transform="translate(63.623047 0)"/>
      </g>
     </g>
    </g>
    <g id="ytick_20">
     <g id="line2d_53">
      <g>
       <use xlink:href="#mc986d5a98d" x="976.202991" y="271.416334" style="stroke: #000000; stroke-width: 0.8"/>
      </g>
     </g>
     <g id="text_50">
      <!-- 20 -->
      <g transform="translate(950.115491 277.115163) scale(0.15 -0.15)">
       <use xlink:href="#DejaVuSans-32"/>
       <use xlink:href="#DejaVuSans-30" transform="translate(63.623047 0)"/>
      </g>
     </g>
    </g>
    <g id="ytick_21">
     <g id="line2d_54">
      <g>
       <use xlink:href="#mc986d5a98d" x="976.202991" y="232.182502" style="stroke: #000000; stroke-width: 0.8"/>
      </g>
     </g>
     <g id="text_51">
      <!-- 30 -->
      <g transform="translate(950.115491 237.88133) scale(0.15 -0.15)">
       <use xlink:href="#DejaVuSans-33"/>
       <use xlink:href="#DejaVuSans-30" transform="translate(63.623047 0)"/>
      </g>
     </g>
    </g>
    <g id="ytick_22">
     <g id="line2d_55">
      <g>
       <use xlink:href="#mc986d5a98d" x="976.202991" y="192.948669" style="stroke: #000000; stroke-width: 0.8"/>
      </g>
     </g>
     <g id="text_52">
      <!-- 40 -->
      <g transform="translate(950.115491 198.647497) scale(0.15 -0.15)">
       <use xlink:href="#DejaVuSans-34"/>
       <use xlink:href="#DejaVuSans-30" transform="translate(63.623047 0)"/>
      </g>
     </g>
    </g>
    <g id="ytick_23">
     <g id="line2d_56">
      <g>
       <use xlink:href="#mc986d5a98d" x="976.202991" y="153.714836" style="stroke: #000000; stroke-width: 0.8"/>
      </g>
     </g>
     <g id="text_53">
      <!-- 50 -->
      <g transform="translate(950.115491 159.413664) scale(0.15 -0.15)">
       <use xlink:href="#DejaVuSans-35"/>
       <use xlink:href="#DejaVuSans-30" transform="translate(63.623047 0)"/>
      </g>
     </g>
    </g>
    <g id="ytick_24">
     <g id="line2d_57">
      <g>
       <use xlink:href="#mc986d5a98d" x="976.202991" y="114.481003" style="stroke: #000000; stroke-width: 0.8"/>
      </g>
     </g>
     <g id="text_54">
      <!-- 60 -->
      <g transform="translate(950.115491 120.179831) scale(0.15 -0.15)">
       <use xlink:href="#DejaVuSans-36"/>
       <use xlink:href="#DejaVuSans-30" transform="translate(63.623047 0)"/>
      </g>
     </g>
    </g>
    <g id="ytick_25">
     <g id="line2d_58">
      <g>
       <use xlink:href="#mc986d5a98d" x="976.202991" y="75.24717" style="stroke: #000000; stroke-width: 0.8"/>
      </g>
     </g>
     <g id="text_55">
      <!-- 70 -->
      <g transform="translate(950.115491 80.945999) scale(0.15 -0.15)">
       <use xlink:href="#DejaVuSans-37"/>
       <use xlink:href="#DejaVuSans-30" transform="translate(63.623047 0)"/>
      </g>
     </g>
    </g>
    <g id="text_56">
     <!-- captopril disulfide -->
     <g transform="translate(922.196304 298.686656) rotate(-90) scale(0.18 -0.18)">
      <defs>
       <path id="DejaVuSans-Bold-64" d="M 2919 2988 
L 2919 4863 
L 4044 4863 
L 4044 0 
L 2919 0 
L 2919 506 
Q 2688 197 2409 53 
Q 2131 -91 1766 -91 
Q 1119 -91 703 423 
Q 288 938 288 1747 
Q 288 2556 703 3070 
Q 1119 3584 1766 3584 
Q 2128 3584 2408 3439 
Q 2688 3294 2919 2988 
z
M 2181 722 
Q 2541 722 2730 984 
Q 2919 1247 2919 1747 
Q 2919 2247 2730 2509 
Q 2541 2772 2181 2772 
Q 1825 2772 1636 2509 
Q 1447 2247 1447 1747 
Q 1447 1247 1636 984 
Q 1825 722 2181 722 
z
" transform="scale(0.015625)"/>
       <path id="DejaVuSans-Bold-66" d="M 2841 4863 
L 2841 4128 
L 2222 4128 
Q 1984 4128 1890 4042 
Q 1797 3956 1797 3744 
L 1797 3500 
L 2753 3500 
L 2753 2700 
L 1797 2700 
L 1797 0 
L 678 0 
L 678 2700 
L 122 2700 
L 122 3500 
L 678 3500 
L 678 3744 
Q 678 4316 997 4589 
Q 1316 4863 1984 4863 
L 2841 4863 
z
" transform="scale(0.015625)"/>
      </defs>
      <use xlink:href="#DejaVuSans-Bold-63"/>
      <use xlink:href="#DejaVuSans-Bold-61" transform="translate(59.277344 0)"/>
      <use xlink:href="#DejaVuSans-Bold-70" transform="translate(126.757812 0)"/>
      <use xlink:href="#DejaVuSans-Bold-74" transform="translate(198.339844 0)"/>
      <use xlink:href="#DejaVuSans-Bold-6f" transform="translate(246.142578 0)"/>
      <use xlink:href="#DejaVuSans-Bold-70" transform="translate(314.84375 0)"/>
      <use xlink:href="#DejaVuSans-Bold-72" transform="translate(386.425781 0)"/>
      <use xlink:href="#DejaVuSans-Bold-69" transform="translate(435.742188 0)"/>
      <use xlink:href="#DejaVuSans-Bold-6c" transform="translate(470.019531 0)"/>
      <use xlink:href="#DejaVuSans-Bold-20" transform="translate(504.296875 0)"/>
      <use xlink:href="#DejaVuSans-Bold-64" transform="translate(539.111328 0)"/>
      <use xlink:href="#DejaVuSans-Bold-69" transform="translate(610.693359 0)"/>
      <use xlink:href="#DejaVuSans-Bold-73" transform="translate(644.970703 0)"/>
      <use xlink:href="#DejaVuSans-Bold-75" transform="translate(704.492188 0)"/>
      <use xlink:href="#DejaVuSans-Bold-6c" transform="translate(775.683594 0)"/>
      <use xlink:href="#DejaVuSans-Bold-66" transform="translate(809.960938 0)"/>
      <use xlink:href="#DejaVuSans-Bold-69" transform="translate(853.466797 0)"/>
      <use xlink:href="#DejaVuSans-Bold-64" transform="translate(887.744141 0)"/>
      <use xlink:href="#DejaVuSans-Bold-65" transform="translate(959.326172 0)"/>
     </g>
     <!-- urine [µmole] -->
     <g transform="translate(942.352366 275.418844) rotate(-90) scale(0.18 -0.18)">
      <use xlink:href="#DejaVuSans-Bold-75"/>
      <use xlink:href="#DejaVuSans-Bold-72" transform="translate(71.191406 0)"/>
      <use xlink:href="#DejaVuSans-Bold-69" transform="translate(120.507812 0)"/>
      <use xlink:href="#DejaVuSans-Bold-6e" transform="translate(154.785156 0)"/>
      <use xlink:href="#DejaVuSans-Bold-65" transform="translate(225.976562 0)"/>
      <use xlink:href="#DejaVuSans-Bold-20" transform="translate(293.798828 0)"/>
      <use xlink:href="#DejaVuSans-Bold-5b" transform="translate(328.613281 0)"/>
      <use xlink:href="#DejaVuSans-Bold-b5" transform="translate(374.316406 0)"/>
      <use xlink:href="#DejaVuSans-Bold-6d" transform="translate(447.900391 0)"/>
      <use xlink:href="#DejaVuSans-Bold-6f" transform="translate(552.099609 0)"/>
      <use xlink:href="#DejaVuSans-Bold-6c" transform="translate(620.800781 0)"/>
      <use xlink:href="#DejaVuSans-Bold-65" transform="translate(655.078125 0)"/>
      <use xlink:href="#DejaVuSans-Bold-5d" transform="translate(722.900391 0)"/>
     </g>
    </g>
   </g>
   <g id="LineCollection_5">
    <path d="M 997.416214 287.828245 
L 997.416214 229.534571 
" clip-path="url(#p625ca59ec0)" style="fill: none; stroke: #000000"/>
    <path d="M 1002.68658 217.27044 
L 1002.68658 123.015884 
" clip-path="url(#p625ca59ec0)" style="fill: none; stroke: #000000"/>
    <path d="M 1013.227312 150.647319 
L 1013.227312 68.718715 
" clip-path="url(#p625ca59ec0)" style="fill: none; stroke: #000000"/>
    <path d="M 1023.768044 106.386575 
L 1023.768044 63.176696 
" clip-path="url(#p625ca59ec0)" style="fill: none; stroke: #000000"/>
    <path d="M 1055.39024 69.863385 
L 1055.39024 62.604 
" clip-path="url(#p625ca59ec0)" style="fill: none; stroke: #000000"/>
   </g>
   <g id="line2d_59">
    <path d="M 997.416214 258.681408 
L 1002.68658 170.143162 
L 1013.227312 109.683017 
L 1023.768044 84.781635 
L 1055.39024 66.233692 
" clip-path="url(#p625ca59ec0)" style="fill: none; stroke-dasharray: 3.7,1.6; stroke-dashoffset: 0; stroke: #000000"/>
    <g clip-path="url(#p625ca59ec0)">
     <use xlink:href="#m260228d1aa" x="997.416214" y="258.681408" style="stroke: #000000; stroke-linejoin: miter"/>
     <use xlink:href="#m260228d1aa" x="1002.68658" y="170.143162" style="stroke: #000000; stroke-linejoin: miter"/>
     <use xlink:href="#m260228d1aa" x="1013.227312" y="109.683017" style="stroke: #000000; stroke-linejoin: miter"/>
     <use xlink:href="#m260228d1aa" x="1023.768044" y="84.781635" style="stroke: #000000; stroke-linejoin: miter"/>
     <use xlink:href="#m260228d1aa" x="1055.39024" y="66.233692" style="stroke: #000000; stroke-linejoin: miter"/>
    </g>
   </g>
   <g id="line2d_60">
    <path d="M 992.145848 349.884 
L 995.33442 349.758119 
L 1005.697277 349.067602 
L 1015.262991 348.748145 
L 1036.785848 348.314504 
L 1084.61442 347.584861 
L 1142.008705 346.934091 
L 1210.562991 346.387655 
L 1294.262991 345.951296 
L 1311.002991 345.886023 
L 1311.002991 345.886023 
" clip-path="url(#p625ca59ec0)" style="fill: none; stroke: #000000; stroke-width: 2; stroke-linecap: square"/>
   </g>
   <g id="patch_15">
    <path d="M 976.202991 364.248 
L 976.202991 48.24 
" style="fill: none; stroke: #000000; stroke-width: 0.8; stroke-linejoin: miter; stroke-linecap: square"/>
   </g>
   <g id="patch_16">
    <path d="M 1326.945848 364.248 
L 1326.945848 48.24 
" style="fill: none; stroke: #000000; stroke-width: 0.8; stroke-linejoin: miter; stroke-linecap: square"/>
   </g>
   <g id="patch_17">
    <path d="M 976.202991 364.248 
L 1326.945848 364.248 
" style="fill: none; stroke: #000000; stroke-width: 0.8; stroke-linejoin: miter; stroke-linecap: square"/>
   </g>
   <g id="patch_18">
    <path d="M 976.202991 48.24 
L 1326.945848 48.24 
" style="fill: none; stroke: #000000; stroke-width: 0.8; stroke-linejoin: miter; stroke-linecap: square"/>
   </g>
   <g id="legend_3">
    <g id="patch_19">
     <path d="M 1131.359911 85.59625 
L 1319.945848 85.59625 
Q 1321.945848 85.59625 1321.945848 83.59625 
L 1321.945848 55.24 
Q 1321.945848 53.24 1319.945848 53.24 
L 1131.359911 53.24 
Q 1129.359911 53.24 1129.359911 55.24 
L 1129.359911 83.59625 
Q 1129.359911 85.59625 1131.359911 85.59625 
z
" style="fill: #ffffff; opacity: 0.8; stroke: #cccccc; stroke-linejoin: miter"/>
    </g>
    <g id="LineCollection_6">
     <path d="M 1143.359911 66.338437 
L 1143.359911 56.338437 
" style="fill: none; stroke: #000000"/>
    </g>
    <g id="line2d_61">
     <path d="M 1133.359911 61.338437 
L 1153.359911 61.338437 
" style="fill: none; stroke-dasharray: 3.7,1.6; stroke-dashoffset: 0; stroke: #000000"/>
    </g>
    <g id="line2d_62">
     <g>
      <use xlink:href="#m260228d1aa" x="1143.359911" y="61.338437" style="stroke: #000000; stroke-linejoin: miter"/>
     </g>
    </g>
    <g id="text_57">
     <!-- exp: 1.37mg/kg PO±SD (n=10) -->
     <g transform="translate(1161.359911 64.838437) scale(0.1 -0.1)">
      <use xlink:href="#DejaVuSans-65"/>
      <use xlink:href="#DejaVuSans-78" transform="translate(59.773438 0)"/>
      <use xlink:href="#DejaVuSans-70" transform="translate(118.953125 0)"/>
      <use xlink:href="#DejaVuSans-3a" transform="translate(182.429688 0)"/>
      <use xlink:href="#DejaVuSans-20" transform="translate(216.121094 0)"/>
      <use xlink:href="#DejaVuSans-31" transform="translate(247.908203 0)"/>
      <use xlink:href="#DejaVuSans-2e" transform="translate(311.53125 0)"/>
      <use xlink:href="#DejaVuSans-33" transform="translate(343.318359 0)"/>
      <use xlink:href="#DejaVuSans-37" transform="translate(406.941406 0)"/>
      <use xlink:href="#DejaVuSans-6d" transform="translate(470.564453 0)"/>
      <use xlink:href="#DejaVuSans-67" transform="translate(567.976562 0)"/>
      <use xlink:href="#DejaVuSans-2f" transform="translate(631.453125 0)"/>
      <use xlink:href="#DejaVuSans-6b" transform="translate(665.144531 0)"/>
      <use xlink:href="#DejaVuSans-67" transform="translate(723.054688 0)"/>
      <use xlink:href="#DejaVuSans-20" transform="translate(786.53125 0)"/>
      <use xlink:href="#DejaVuSans-50" transform="translate(818.318359 0)"/>
      <use xlink:href="#DejaVuSans-4f" transform="translate(878.621094 0)"/>
      <use xlink:href="#DejaVuSans-b1" transform="translate(957.332031 0)"/>
      <use xlink:href="#DejaVuSans-53" transform="translate(1041.121094 0)"/>
      <use xlink:href="#DejaVuSans-44" transform="translate(1104.597656 0)"/>
      <use xlink:href="#DejaVuSans-20" transform="translate(1181.599609 0)"/>
      <use xlink:href="#DejaVuSans-28" transform="translate(1213.386719 0)"/>
      <use xlink:href="#DejaVuSans-6e" transform="translate(1252.400391 0)"/>
      <use xlink:href="#DejaVuSans-3d" transform="translate(1315.779297 0)"/>
      <use xlink:href="#DejaVuSans-31" transform="translate(1399.568359 0)"/>
      <use xlink:href="#DejaVuSans-30" transform="translate(1463.191406 0)"/>
      <use xlink:href="#DejaVuSans-29" transform="translate(1526.814453 0)"/>
     </g>
    </g>
    <g id="line2d_63">
     <path d="M 1133.359911 76.016562 
L 1153.359911 76.016562 
" style="fill: none; stroke: #000000; stroke-width: 2; stroke-linecap: square"/>
    </g>
    <g id="line2d_64"/>
    <g id="text_58">
     <!-- sim: 1.37mg/kg PO -->
     <g transform="translate(1161.359911 79.516562) scale(0.1 -0.1)">
      <use xlink:href="#DejaVuSans-73"/>
      <use xlink:href="#DejaVuSans-69" transform="translate(52.099609 0)"/>
      <use xlink:href="#DejaVuSans-6d" transform="translate(79.882812 0)"/>
      <use xlink:href="#DejaVuSans-3a" transform="translate(177.294922 0)"/>
      <use xlink:href="#DejaVuSans-20" transform="translate(210.986328 0)"/>
      <use xlink:href="#DejaVuSans-31" transform="translate(242.773438 0)"/>
      <use xlink:href="#DejaVuSans-2e" transform="translate(306.396484 0)"/>
      <use xlink:href="#DejaVuSans-33" transform="translate(338.183594 0)"/>
      <use xlink:href="#DejaVuSans-37" transform="translate(401.806641 0)"/>
      <use xlink:href="#DejaVuSans-6d" transform="translate(465.429688 0)"/>
      <use xlink:href="#DejaVuSans-67" transform="translate(562.841797 0)"/>
      <use xlink:href="#DejaVuSans-2f" transform="translate(626.318359 0)"/>
      <use xlink:href="#DejaVuSans-6b" transform="translate(660.009766 0)"/>
      <use xlink:href="#DejaVuSans-67" transform="translate(717.919922 0)"/>
      <use xlink:href="#DejaVuSans-20" transform="translate(781.396484 0)"/>
      <use xlink:href="#DejaVuSans-50" transform="translate(813.183594 0)"/>
      <use xlink:href="#DejaVuSans-4f" transform="translate(873.486328 0)"/>
     </g>
    </g>
   </g>
  </g>
  <g id="axes_4">
   <g id="patch_20">
    <path d="M 1432.168705 364.248 
L 1782.911562 364.248 
L 1782.911562 48.24 
L 1432.168705 48.24 
z
" style="fill: #ffffff"/>
   </g>
   <g id="matplotlib.axis_7">
    <g id="xtick_22">
     <g id="line2d_65">
      <g>
       <use xlink:href="#m493276dd89" x="1448.111562" y="364.248" style="stroke: #000000; stroke-width: 0.8"/>
      </g>
     </g>
     <g id="text_59">
      <!-- 0 -->
      <g transform="translate(1443.339687 382.645656) scale(0.15 -0.15)">
       <use xlink:href="#DejaVuSans-30"/>
      </g>
     </g>
    </g>
    <g id="xtick_23">
     <g id="line2d_66">
      <g>
       <use xlink:href="#m493276dd89" x="1500.815222" y="364.248" style="stroke: #000000; stroke-width: 0.8"/>
      </g>
     </g>
     <g id="text_60">
      <!-- 20 -->
      <g transform="translate(1491.271472 382.645656) scale(0.15 -0.15)">
       <use xlink:href="#DejaVuSans-32"/>
       <use xlink:href="#DejaVuSans-30" transform="translate(63.623047 0)"/>
      </g>
     </g>
    </g>
    <g id="xtick_24">
     <g id="line2d_67">
      <g>
       <use xlink:href="#m493276dd89" x="1553.518882" y="364.248" style="stroke: #000000; stroke-width: 0.8"/>
      </g>
     </g>
     <g id="text_61">
      <!-- 40 -->
      <g transform="translate(1543.975132 382.645656) scale(0.15 -0.15)">
       <use xlink:href="#DejaVuSans-34"/>
       <use xlink:href="#DejaVuSans-30" transform="translate(63.623047 0)"/>
      </g>
     </g>
    </g>
    <g id="xtick_25">
     <g id="line2d_68">
      <g>
       <use xlink:href="#m493276dd89" x="1606.222542" y="364.248" style="stroke: #000000; stroke-width: 0.8"/>
      </g>
     </g>
     <g id="text_62">
      <!-- 60 -->
      <g transform="translate(1596.678792 382.645656) scale(0.15 -0.15)">
       <use xlink:href="#DejaVuSans-36"/>
       <use xlink:href="#DejaVuSans-30" transform="translate(63.623047 0)"/>
      </g>
     </g>
    </g>
    <g id="xtick_26">
     <g id="line2d_69">
      <g>
       <use xlink:href="#m493276dd89" x="1658.926202" y="364.248" style="stroke: #000000; stroke-width: 0.8"/>
      </g>
     </g>
     <g id="text_63">
      <!-- 80 -->
      <g transform="translate(1649.382452 382.645656) scale(0.15 -0.15)">
       <use xlink:href="#DejaVuSans-38"/>
       <use xlink:href="#DejaVuSans-30" transform="translate(63.623047 0)"/>
      </g>
     </g>
    </g>
    <g id="xtick_27">
     <g id="line2d_70">
      <g>
       <use xlink:href="#m493276dd89" x="1711.629862" y="364.248" style="stroke: #000000; stroke-width: 0.8"/>
      </g>
     </g>
     <g id="text_64">
      <!-- 100 -->
      <g transform="translate(1697.314237 382.645656) scale(0.15 -0.15)">
       <use xlink:href="#DejaVuSans-31"/>
       <use xlink:href="#DejaVuSans-30" transform="translate(63.623047 0)"/>
       <use xlink:href="#DejaVuSans-30" transform="translate(127.246094 0)"/>
      </g>
     </g>
    </g>
    <g id="xtick_28">
     <g id="line2d_71">
      <g>
       <use xlink:href="#m493276dd89" x="1764.333522" y="364.248" style="stroke: #000000; stroke-width: 0.8"/>
      </g>
     </g>
     <g id="text_65">
      <!-- 120 -->
      <g transform="translate(1750.017897 382.645656) scale(0.15 -0.15)">
       <use xlink:href="#DejaVuSans-31"/>
       <use xlink:href="#DejaVuSans-32" transform="translate(63.623047 0)"/>
       <use xlink:href="#DejaVuSans-30" transform="translate(127.246094 0)"/>
      </g>
     </g>
    </g>
    <g id="text_66">
     <!-- time [hr] -->
     <g transform="translate(1562.465603 403.442375) scale(0.18 -0.18)">
      <use xlink:href="#DejaVuSans-Bold-74"/>
      <use xlink:href="#DejaVuSans-Bold-69" transform="translate(47.802734 0)"/>
      <use xlink:href="#DejaVuSans-Bold-6d" transform="translate(82.080078 0)"/>
      <use xlink:href="#DejaVuSans-Bold-65" transform="translate(186.279297 0)"/>
      <use xlink:href="#DejaVuSans-Bold-20" transform="translate(254.101562 0)"/>
      <use xlink:href="#DejaVuSans-Bold-5b" transform="translate(288.916016 0)"/>
      <use xlink:href="#DejaVuSans-Bold-68" transform="translate(334.619141 0)"/>
      <use xlink:href="#DejaVuSans-Bold-72" transform="translate(405.810547 0)"/>
      <use xlink:href="#DejaVuSans-Bold-5d" transform="translate(455.126953 0)"/>
     </g>
    </g>
   </g>
   <g id="matplotlib.axis_8">
    <g id="ytick_26">
     <g id="line2d_72">
      <g>
       <use xlink:href="#mc986d5a98d" x="1432.168705" y="334.482237" style="stroke: #000000; stroke-width: 0.8"/>
      </g>
     </g>
     <g id="text_67">
      <!-- 0 -->
      <g transform="translate(1415.624955 340.181065) scale(0.15 -0.15)">
       <use xlink:href="#DejaVuSans-30"/>
      </g>
     </g>
    </g>
    <g id="ytick_27">
     <g id="line2d_73">
      <g>
       <use xlink:href="#mc986d5a98d" x="1432.168705" y="266.552019" style="stroke: #000000; stroke-width: 0.8"/>
      </g>
     </g>
     <g id="text_68">
      <!-- 20 -->
      <g transform="translate(1406.081205 272.250847) scale(0.15 -0.15)">
       <use xlink:href="#DejaVuSans-32"/>
       <use xlink:href="#DejaVuSans-30" transform="translate(63.623047 0)"/>
      </g>
     </g>
    </g>
    <g id="ytick_28">
     <g id="line2d_74">
      <g>
       <use xlink:href="#mc986d5a98d" x="1432.168705" y="198.6218" style="stroke: #000000; stroke-width: 0.8"/>
      </g>
     </g>
     <g id="text_69">
      <!-- 40 -->
      <g transform="translate(1406.081205 204.320628) scale(0.15 -0.15)">
       <use xlink:href="#DejaVuSans-34"/>
       <use xlink:href="#DejaVuSans-30" transform="translate(63.623047 0)"/>
      </g>
     </g>
    </g>
    <g id="ytick_29">
     <g id="line2d_75">
      <g>
       <use xlink:href="#mc986d5a98d" x="1432.168705" y="130.691582" style="stroke: #000000; stroke-width: 0.8"/>
      </g>
     </g>
     <g id="text_70">
      <!-- 60 -->
      <g transform="translate(1406.081205 136.39041) scale(0.15 -0.15)">
       <use xlink:href="#DejaVuSans-36"/>
       <use xlink:href="#DejaVuSans-30" transform="translate(63.623047 0)"/>
      </g>
     </g>
    </g>
    <g id="ytick_30">
     <g id="line2d_76">
      <g>
       <use xlink:href="#mc986d5a98d" x="1432.168705" y="62.761363" style="stroke: #000000; stroke-width: 0.8"/>
      </g>
     </g>
     <g id="text_71">
      <!-- 80 -->
      <g transform="translate(1406.081205 68.460191) scale(0.15 -0.15)">
       <use xlink:href="#DejaVuSans-38"/>
       <use xlink:href="#DejaVuSans-30" transform="translate(63.623047 0)"/>
      </g>
     </g>
    </g>
    <g id="text_72">
     <!-- cap + capss -->
     <g transform="translate(1378.162018 266.466656) rotate(-90) scale(0.18 -0.18)">
      <use xlink:href="#DejaVuSans-Bold-63"/>
      <use xlink:href="#DejaVuSans-Bold-61" transform="translate(59.277344 0)"/>
      <use xlink:href="#DejaVuSans-Bold-70" transform="translate(126.757812 0)"/>
      <use xlink:href="#DejaVuSans-Bold-20" transform="translate(198.339844 0)"/>
      <use xlink:href="#DejaVuSans-Bold-2b" transform="translate(233.154297 0)"/>
      <use xlink:href="#DejaVuSans-Bold-20" transform="translate(316.943359 0)"/>
      <use xlink:href="#DejaVuSans-Bold-63" transform="translate(351.757812 0)"/>
      <use xlink:href="#DejaVuSans-Bold-61" transform="translate(411.035156 0)"/>
      <use xlink:href="#DejaVuSans-Bold-70" transform="translate(478.515625 0)"/>
      <use xlink:href="#DejaVuSans-Bold-73" transform="translate(550.097656 0)"/>
      <use xlink:href="#DejaVuSans-Bold-73" transform="translate(609.619141 0)"/>
     </g>
     <!-- feces [µmole] -->
     <g transform="translate(1398.31808 275.792906) rotate(-90) scale(0.18 -0.18)">
      <use xlink:href="#DejaVuSans-Bold-66"/>
      <use xlink:href="#DejaVuSans-Bold-65" transform="translate(43.505859 0)"/>
      <use xlink:href="#DejaVuSans-Bold-63" transform="translate(111.328125 0)"/>
      <use xlink:href="#DejaVuSans-Bold-65" transform="translate(170.605469 0)"/>
      <use xlink:href="#DejaVuSans-Bold-73" transform="translate(238.427734 0)"/>
      <use xlink:href="#DejaVuSans-Bold-20" transform="translate(297.949219 0)"/>
      <use xlink:href="#DejaVuSans-Bold-5b" transform="translate(332.763672 0)"/>
      <use xlink:href="#DejaVuSans-Bold-b5" transform="translate(378.466797 0)"/>
      <use xlink:href="#DejaVuSans-Bold-6d" transform="translate(452.050781 0)"/>
      <use xlink:href="#DejaVuSans-Bold-6f" transform="translate(556.25 0)"/>
      <use xlink:href="#DejaVuSans-Bold-6c" transform="translate(624.951172 0)"/>
      <use xlink:href="#DejaVuSans-Bold-65" transform="translate(659.228516 0)"/>
      <use xlink:href="#DejaVuSans-Bold-5d" transform="translate(727.050781 0)"/>
     </g>
    </g>
   </g>
   <g id="LineCollection_7">
    <path d="M 1511.355954 349.884 
L 1511.355954 256.935479 
" clip-path="url(#pc0f46b404d)" style="fill: none; stroke: #000000"/>
    <path d="M 1574.600346 230.276904 
L 1574.600346 130.901883 
" clip-path="url(#pc0f46b404d)" style="fill: none; stroke: #000000"/>
    <path d="M 1637.844738 233.70045 
L 1637.844738 62.604 
" clip-path="url(#pc0f46b404d)" style="fill: none; stroke: #000000"/>
    <path d="M 1701.08913 176.039896 
L 1701.08913 112.28648 
" clip-path="url(#pc0f46b404d)" style="fill: none; stroke: #000000"/>
    <path d="M 1764.333522 218.16486 
L 1764.333522 66.592378 
" clip-path="url(#pc0f46b404d)" style="fill: none; stroke: #000000"/>
   </g>
   <g id="line2d_77">
    <path d="M 1511.355954 303.409739 
L 1574.600346 180.589393 
L 1637.844738 148.152225 
L 1701.08913 144.163188 
L 1764.333522 142.378619 
" clip-path="url(#pc0f46b404d)" style="fill: none; stroke-dasharray: 3.7,1.6; stroke-dashoffset: 0; stroke: #000000"/>
    <g clip-path="url(#pc0f46b404d)">
     <use xlink:href="#m260228d1aa" x="1511.355954" y="303.409739" style="stroke: #000000; stroke-linejoin: miter"/>
     <use xlink:href="#m260228d1aa" x="1574.600346" y="180.589393" style="stroke: #000000; stroke-linejoin: miter"/>
     <use xlink:href="#m260228d1aa" x="1637.844738" y="148.152225" style="stroke: #000000; stroke-linejoin: miter"/>
     <use xlink:href="#m260228d1aa" x="1701.08913" y="144.163188" style="stroke: #000000; stroke-linejoin: miter"/>
     <use xlink:href="#m260228d1aa" x="1764.333522" y="142.378619" style="stroke: #000000; stroke-linejoin: miter"/>
    </g>
   </g>
   <g id="line2d_78">
    <path d="M 1448.111562 334.482237 
L 1766.968705 334.450246 
L 1766.968705 334.450246 
" clip-path="url(#pc0f46b404d)" style="fill: none; stroke: #000000; stroke-width: 2; stroke-linecap: square"/>
   </g>
   <g id="patch_21">
    <path d="M 1432.168705 364.248 
L 1432.168705 48.24 
" style="fill: none; stroke: #000000; stroke-width: 0.8; stroke-linejoin: miter; stroke-linecap: square"/>
   </g>
   <g id="patch_22">
    <path d="M 1782.911562 364.248 
L 1782.911562 48.24 
" style="fill: none; stroke: #000000; stroke-width: 0.8; stroke-linejoin: miter; stroke-linecap: square"/>
   </g>
   <g id="patch_23">
    <path d="M 1432.168705 364.248 
L 1782.911562 364.248 
" style="fill: none; stroke: #000000; stroke-width: 0.8; stroke-linejoin: miter; stroke-linecap: square"/>
   </g>
   <g id="patch_24">
    <path d="M 1432.168705 48.24 
L 1782.911562 48.24 
" style="fill: none; stroke: #000000; stroke-width: 0.8; stroke-linejoin: miter; stroke-linecap: square"/>
   </g>
   <g id="legend_4">
    <g id="patch_25">
     <path d="M 1587.325625 85.59625 
L 1775.911562 85.59625 
Q 1777.911562 85.59625 1777.911562 83.59625 
L 1777.911562 55.24 
Q 1777.911562 53.24 1775.911562 53.24 
L 1587.325625 53.24 
Q 1585.325625 53.24 1585.325625 55.24 
L 1585.325625 83.59625 
Q 1585.325625 85.59625 1587.325625 85.59625 
z
" style="fill: #ffffff; opacity: 0.8; stroke: #cccccc; stroke-linejoin: miter"/>
    </g>
    <g id="LineCollection_8">
     <path d="M 1599.325625 66.338437 
L 1599.325625 56.338437 
" style="fill: none; stroke: #000000"/>
    </g>
    <g id="line2d_79">
     <path d="M 1589.325625 61.338437 
L 1609.325625 61.338437 
" style="fill: none; stroke-dasharray: 3.7,1.6; stroke-dashoffset: 0; stroke: #000000"/>
    </g>
    <g id="line2d_80">
     <g>
      <use xlink:href="#m260228d1aa" x="1599.325625" y="61.338437" style="stroke: #000000; stroke-linejoin: miter"/>
     </g>
    </g>
    <g id="text_73">
     <!-- exp: 1.37mg/kg PO±SD (n=10) -->
     <g transform="translate(1617.325625 64.838437) scale(0.1 -0.1)">
      <use xlink:href="#DejaVuSans-65"/>
      <use xlink:href="#DejaVuSans-78" transform="translate(59.773438 0)"/>
      <use xlink:href="#DejaVuSans-70" transform="translate(118.953125 0)"/>
      <use xlink:href="#DejaVuSans-3a" transform="translate(182.429688 0)"/>
      <use xlink:href="#DejaVuSans-20" transform="translate(216.121094 0)"/>
      <use xlink:href="#DejaVuSans-31" transform="translate(247.908203 0)"/>
      <use xlink:href="#DejaVuSans-2e" transform="translate(311.53125 0)"/>
      <use xlink:href="#DejaVuSans-33" transform="translate(343.318359 0)"/>
      <use xlink:href="#DejaVuSans-37" transform="translate(406.941406 0)"/>
      <use xlink:href="#DejaVuSans-6d" transform="translate(470.564453 0)"/>
      <use xlink:href="#DejaVuSans-67" transform="translate(567.976562 0)"/>
      <use xlink:href="#DejaVuSans-2f" transform="translate(631.453125 0)"/>
      <use xlink:href="#DejaVuSans-6b" transform="translate(665.144531 0)"/>
      <use xlink:href="#DejaVuSans-67" transform="translate(723.054688 0)"/>
      <use xlink:href="#DejaVuSans-20" transform="translate(786.53125 0)"/>
      <use xlink:href="#DejaVuSans-50" transform="translate(818.318359 0)"/>
      <use xlink:href="#DejaVuSans-4f" transform="translate(878.621094 0)"/>
      <use xlink:href="#DejaVuSans-b1" transform="translate(957.332031 0)"/>
      <use xlink:href="#DejaVuSans-53" transform="translate(1041.121094 0)"/>
      <use xlink:href="#DejaVuSans-44" transform="translate(1104.597656 0)"/>
      <use xlink:href="#DejaVuSans-20" transform="translate(1181.599609 0)"/>
      <use xlink:href="#DejaVuSans-28" transform="translate(1213.386719 0)"/>
      <use xlink:href="#DejaVuSans-6e" transform="translate(1252.400391 0)"/>
      <use xlink:href="#DejaVuSans-3d" transform="translate(1315.779297 0)"/>
      <use xlink:href="#DejaVuSans-31" transform="translate(1399.568359 0)"/>
      <use xlink:href="#DejaVuSans-30" transform="translate(1463.191406 0)"/>
      <use xlink:href="#DejaVuSans-29" transform="translate(1526.814453 0)"/>
     </g>
    </g>
    <g id="line2d_81">
     <path d="M 1589.325625 76.016562 
L 1609.325625 76.016562 
" style="fill: none; stroke: #000000; stroke-width: 2; stroke-linecap: square"/>
    </g>
    <g id="line2d_82"/>
    <g id="text_74">
     <!-- sim: 1.37mg/kg PO -->
     <g transform="translate(1617.325625 79.516562) scale(0.1 -0.1)">
      <use xlink:href="#DejaVuSans-73"/>
      <use xlink:href="#DejaVuSans-69" transform="translate(52.099609 0)"/>
      <use xlink:href="#DejaVuSans-6d" transform="translate(79.882812 0)"/>
      <use xlink:href="#DejaVuSans-3a" transform="translate(177.294922 0)"/>
      <use xlink:href="#DejaVuSans-20" transform="translate(210.986328 0)"/>
      <use xlink:href="#DejaVuSans-31" transform="translate(242.773438 0)"/>
      <use xlink:href="#DejaVuSans-2e" transform="translate(306.396484 0)"/>
      <use xlink:href="#DejaVuSans-33" transform="translate(338.183594 0)"/>
      <use xlink:href="#DejaVuSans-37" transform="translate(401.806641 0)"/>
      <use xlink:href="#DejaVuSans-6d" transform="translate(465.429688 0)"/>
      <use xlink:href="#DejaVuSans-67" transform="translate(562.841797 0)"/>
      <use xlink:href="#DejaVuSans-2f" transform="translate(626.318359 0)"/>
      <use xlink:href="#DejaVuSans-6b" transform="translate(660.009766 0)"/>
      <use xlink:href="#DejaVuSans-67" transform="translate(717.919922 0)"/>
      <use xlink:href="#DejaVuSans-20" transform="translate(781.396484 0)"/>
      <use xlink:href="#DejaVuSans-50" transform="translate(813.183594 0)"/>
      <use xlink:href="#DejaVuSans-4f" transform="translate(873.486328 0)"/>
     </g>
    </g>
   </g>
  </g>
  <g id="text_75">
   <!-- Kripalani1980 -->
   <g transform="translate(797.660625 26.196094) scale(0.25 -0.25)">
    <defs>
     <path id="DejaVuSans-Bold-4b" d="M 588 4666 
L 1791 4666 
L 1791 2963 
L 3525 4666 
L 4922 4666 
L 2675 2456 
L 5153 0 
L 3647 0 
L 1791 1838 
L 1791 0 
L 588 0 
L 588 4666 
z
" transform="scale(0.015625)"/>
     <path id="DejaVuSans-Bold-31" d="M 750 831 
L 1813 831 
L 1813 3847 
L 722 3622 
L 722 4441 
L 1806 4666 
L 2950 4666 
L 2950 831 
L 4013 831 
L 4013 0 
L 750 0 
L 750 831 
z
" transform="scale(0.015625)"/>
     <path id="DejaVuSans-Bold-39" d="M 641 103 
L 641 966 
Q 928 831 1190 764 
Q 1453 697 1709 697 
Q 2247 697 2547 995 
Q 2847 1294 2900 1881 
Q 2688 1725 2447 1647 
Q 2206 1569 1925 1569 
Q 1209 1569 770 1986 
Q 331 2403 331 3084 
Q 331 3838 820 4291 
Q 1309 4744 2131 4744 
Q 3044 4744 3544 4128 
Q 4044 3513 4044 2388 
Q 4044 1231 3459 570 
Q 2875 -91 1856 -91 
Q 1528 -91 1228 -42 
Q 928 6 641 103 
z
M 2125 2350 
Q 2441 2350 2600 2554 
Q 2759 2759 2759 3169 
Q 2759 3575 2600 3781 
Q 2441 3988 2125 3988 
Q 1809 3988 1650 3781 
Q 1491 3575 1491 3169 
Q 1491 2759 1650 2554 
Q 1809 2350 2125 2350 
z
" transform="scale(0.015625)"/>
     <path id="DejaVuSans-Bold-38" d="M 2228 2088 
Q 1891 2088 1709 1903 
Q 1528 1719 1528 1375 
Q 1528 1031 1709 848 
Q 1891 666 2228 666 
Q 2563 666 2741 848 
Q 2919 1031 2919 1375 
Q 2919 1722 2741 1905 
Q 2563 2088 2228 2088 
z
M 1350 2484 
Q 925 2613 709 2878 
Q 494 3144 494 3541 
Q 494 4131 934 4440 
Q 1375 4750 2228 4750 
Q 3075 4750 3515 4442 
Q 3956 4134 3956 3541 
Q 3956 3144 3739 2878 
Q 3522 2613 3097 2484 
Q 3572 2353 3814 2058 
Q 4056 1763 4056 1313 
Q 4056 619 3595 264 
Q 3134 -91 2228 -91 
Q 1319 -91 855 264 
Q 391 619 391 1313 
Q 391 1763 633 2058 
Q 875 2353 1350 2484 
z
M 1631 3419 
Q 1631 3141 1786 2991 
Q 1941 2841 2228 2841 
Q 2509 2841 2662 2991 
Q 2816 3141 2816 3419 
Q 2816 3697 2662 3845 
Q 2509 3994 2228 3994 
Q 1941 3994 1786 3844 
Q 1631 3694 1631 3419 
z
" transform="scale(0.015625)"/>
     <path id="DejaVuSans-Bold-30" d="M 2944 2338 
Q 2944 3213 2780 3570 
Q 2616 3928 2228 3928 
Q 1841 3928 1675 3570 
Q 1509 3213 1509 2338 
Q 1509 1453 1675 1090 
Q 1841 728 2228 728 
Q 2613 728 2778 1090 
Q 2944 1453 2944 2338 
z
M 4147 2328 
Q 4147 1169 3647 539 
Q 3147 -91 2228 -91 
Q 1306 -91 806 539 
Q 306 1169 306 2328 
Q 306 3491 806 4120 
Q 1306 4750 2228 4750 
Q 3147 4750 3647 4120 
Q 4147 3491 4147 2328 
z
" transform="scale(0.015625)"/>
    </defs>
    <use xlink:href="#DejaVuSans-Bold-4b"/>
    <use xlink:href="#DejaVuSans-Bold-72" transform="translate(77.490234 0)"/>
    <use xlink:href="#DejaVuSans-Bold-69" transform="translate(126.806641 0)"/>
    <use xlink:href="#DejaVuSans-Bold-70" transform="translate(161.083984 0)"/>
    <use xlink:href="#DejaVuSans-Bold-61" transform="translate(232.666016 0)"/>
    <use xlink:href="#DejaVuSans-Bold-6c" transform="translate(300.146484 0)"/>
    <use xlink:href="#DejaVuSans-Bold-61" transform="translate(334.423828 0)"/>
    <use xlink:href="#DejaVuSans-Bold-6e" transform="translate(401.904297 0)"/>
    <use xlink:href="#DejaVuSans-Bold-69" transform="translate(473.095703 0)"/>
    <use xlink:href="#DejaVuSans-Bold-31" transform="translate(507.373047 0)"/>
    <use xlink:href="#DejaVuSans-Bold-39" transform="translate(576.953125 0)"/>
    <use xlink:href="#DejaVuSans-Bold-38" transform="translate(646.533203 0)"/>
    <use xlink:href="#DejaVuSans-Bold-30" transform="translate(716.113281 0)"/>
   </g>
  </g>
 </g>
 <defs>
  <clipPath id="pc5f525be38">
   <rect x="64.271563" y="48.24" width="350.742857" height="316.008"/>
  </clipPath>
  <clipPath id="p8517ce1e52">
   <rect x="520.237277" y="48.24" width="350.742857" height="316.008"/>
  </clipPath>
  <clipPath id="p625ca59ec0">
   <rect x="976.202991" y="48.24" width="350.742857" height="316.008"/>
  </clipPath>
  <clipPath id="pc0f46b404d">
   <rect x="1432.168705" y="48.24" width="350.742857" height="316.008"/>
  </clipPath>
 </defs>
</svg>
