<?xml version="1.0" encoding="utf-8" standalone="no"?>
<!DOCTYPE svg PUBLIC "-//W3C//DTD SVG 1.1//EN"
  "http://www.w3.org/Graphics/SVG/1.1/DTD/svg11.dtd">
<svg xmlns:xlink="http://www.w3.org/1999/xlink" width="921.247813pt" height="414.385812pt" viewBox="0 0 921.247813 414.385812" xmlns="http://www.w3.org/2000/svg" version="1.1">
 <metadata>
  <rdf:RDF xmlns:dc="http://purl.org/dc/elements/1.1/" xmlns:cc="http://creativecommons.org/ns#" xmlns:rdf="http://www.w3.org/1999/02/22-rdf-syntax-ns#">
   <cc:Work>
    <dc:type rdf:resource="http://purl.org/dc/dcmitype/StillImage"/>
    <dc:date>2025-09-10T13:17:06.317486</dc:date>
    <dc:format>image/svg+xml</dc:format>
    <dc:creator>
     <cc:Agent>
      <dc:title>Matplotlib v3.10.6, https://matplotlib.org/</dc:title>
     </cc:Agent>
    </dc:creator>
   </cc:Work>
  </rdf:RDF>
 </metadata>
 <defs>
  <style type="text/css">*{stroke-linejoin: round; stroke-linecap: butt}</style>
 </defs>
 <g id="figure_1">
  <g id="patch_1">
   <path d="M 0 414.385812 
L 921.247813 414.385812 
L 921.247813 -0 
L 0 -0 
z
" style="fill: #ffffff"/>
  </g>
  <g id="axes_1">
   <g id="patch_2">
    <path d="M 54.727813 364.248 
L 428.345204 364.248 
L 428.345204 48.24 
L 54.727813 48.24 
z
" style="fill: #ffffff"/>
   </g>
   <g id="matplotlib.axis_1">
    <g id="xtick_1">
     <g id="line2d_1">
      <defs>
       <path id="m73a3f9bacf" d="M 0 0 
L 0 3.5 
" style="stroke: #000000; stroke-width: 0.8"/>
      </defs>
      <g>
       <use xlink:href="#m73a3f9bacf" x="54.976725" y="364.248" style="stroke: #000000; stroke-width: 0.8"/>
      </g>
     </g>
     <g id="text_1">
      <!-- 0 -->
      <g transform="translate(50.20485 382.645656) scale(0.15 -0.15)">
       <defs>
        <path id="DejaVuSans-30" d="M 2034 4250 
Q 1547 4250 1301 3770 
Q 1056 3291 1056 2328 
Q 1056 1369 1301 889 
Q 1547 409 2034 409 
Q 2525 409 2770 889 
Q 3016 1369 3016 2328 
Q 3016 3291 2770 3770 
Q 2525 4250 2034 4250 
z
M 2034 4750 
Q 2819 4750 3233 4129 
Q 3647 3509 3647 2328 
Q 3647 1150 3233 529 
Q 2819 -91 2034 -91 
Q 1250 -91 836 529 
Q 422 1150 422 2328 
Q 422 3509 836 4129 
Q 1250 4750 2034 4750 
z
" transform="scale(0.015625)"/>
       </defs>
       <use xlink:href="#DejaVuSans-30"/>
      </g>
     </g>
    </g>
    <g id="xtick_2">
     <g id="line2d_2">
      <g>
       <use xlink:href="#m73a3f9bacf" x="104.759189" y="364.248" style="stroke: #000000; stroke-width: 0.8"/>
      </g>
     </g>
     <g id="text_2">
      <!-- 2 -->
      <g transform="translate(99.987314 382.645656) scale(0.15 -0.15)">
       <defs>
        <path id="DejaVuSans-32" d="M 1228 531 
L 3431 531 
L 3431 0 
L 469 0 
L 469 531 
Q 828 903 1448 1529 
Q 2069 2156 2228 2338 
Q 2531 2678 2651 2914 
Q 2772 3150 2772 3378 
Q 2772 3750 2511 3984 
Q 2250 4219 1831 4219 
Q 1534 4219 1204 4116 
Q 875 4013 500 3803 
L 500 4441 
Q 881 4594 1212 4672 
Q 1544 4750 1819 4750 
Q 2544 4750 2975 4387 
Q 3406 4025 3406 3419 
Q 3406 3131 3298 2873 
Q 3191 2616 2906 2266 
Q 2828 2175 2409 1742 
Q 1991 1309 1228 531 
z
" transform="scale(0.015625)"/>
       </defs>
       <use xlink:href="#DejaVuSans-32"/>
      </g>
     </g>
    </g>
    <g id="xtick_3">
     <g id="line2d_3">
      <g>
       <use xlink:href="#m73a3f9bacf" x="154.541653" y="364.248" style="stroke: #000000; stroke-width: 0.8"/>
      </g>
     </g>
     <g id="text_3">
      <!-- 4 -->
      <g transform="translate(149.769778 382.645656) scale(0.15 -0.15)">
       <defs>
        <path id="DejaVuSans-34" d="M 2419 4116 
L 825 1625 
L 2419 1625 
L 2419 4116 
z
M 2253 4666 
L 3047 4666 
L 3047 1625 
L 3713 1625 
L 3713 1100 
L 3047 1100 
L 3047 0 
L 2419 0 
L 2419 1100 
L 313 1100 
L 313 1709 
L 2253 4666 
z
" transform="scale(0.015625)"/>
       </defs>
       <use xlink:href="#DejaVuSans-34"/>
      </g>
     </g>
    </g>
    <g id="xtick_4">
     <g id="line2d_4">
      <g>
       <use xlink:href="#m73a3f9bacf" x="204.324116" y="364.248" style="stroke: #000000; stroke-width: 0.8"/>
      </g>
     </g>
     <g id="text_4">
      <!-- 6 -->
      <g transform="translate(199.552241 382.645656) scale(0.15 -0.15)">
       <defs>
        <path id="DejaVuSans-36" d="M 2113 2584 
Q 1688 2584 1439 2293 
Q 1191 2003 1191 1497 
Q 1191 994 1439 701 
Q 1688 409 2113 409 
Q 2538 409 2786 701 
Q 3034 994 3034 1497 
Q 3034 2003 2786 2293 
Q 2538 2584 2113 2584 
z
M 3366 4563 
L 3366 3988 
Q 3128 4100 2886 4159 
Q 2644 4219 2406 4219 
Q 1781 4219 1451 3797 
Q 1122 3375 1075 2522 
Q 1259 2794 1537 2939 
Q 1816 3084 2150 3084 
Q 2853 3084 3261 2657 
Q 3669 2231 3669 1497 
Q 3669 778 3244 343 
Q 2819 -91 2113 -91 
Q 1303 -91 875 529 
Q 447 1150 447 2328 
Q 447 3434 972 4092 
Q 1497 4750 2381 4750 
Q 2619 4750 2861 4703 
Q 3103 4656 3366 4563 
z
" transform="scale(0.015625)"/>
       </defs>
       <use xlink:href="#DejaVuSans-36"/>
      </g>
     </g>
    </g>
    <g id="xtick_5">
     <g id="line2d_5">
      <g>
       <use xlink:href="#m73a3f9bacf" x="254.10658" y="364.248" style="stroke: #000000; stroke-width: 0.8"/>
      </g>
     </g>
     <g id="text_5">
      <!-- 8 -->
      <g transform="translate(249.334705 382.645656) scale(0.15 -0.15)">
       <defs>
        <path id="DejaVuSans-38" d="M 2034 2216 
Q 1584 2216 1326 1975 
Q 1069 1734 1069 1313 
Q 1069 891 1326 650 
Q 1584 409 2034 409 
Q 2484 409 2743 651 
Q 3003 894 3003 1313 
Q 3003 1734 2745 1975 
Q 2488 2216 2034 2216 
z
M 1403 2484 
Q 997 2584 770 2862 
Q 544 3141 544 3541 
Q 544 4100 942 4425 
Q 1341 4750 2034 4750 
Q 2731 4750 3128 4425 
Q 3525 4100 3525 3541 
Q 3525 3141 3298 2862 
Q 3072 2584 2669 2484 
Q 3125 2378 3379 2068 
Q 3634 1759 3634 1313 
Q 3634 634 3220 271 
Q 2806 -91 2034 -91 
Q 1263 -91 848 271 
Q 434 634 434 1313 
Q 434 1759 690 2068 
Q 947 2378 1403 2484 
z
M 1172 3481 
Q 1172 3119 1398 2916 
Q 1625 2713 2034 2713 
Q 2441 2713 2670 2916 
Q 2900 3119 2900 3481 
Q 2900 3844 2670 4047 
Q 2441 4250 2034 4250 
Q 1625 4250 1398 4047 
Q 1172 3844 1172 3481 
z
" transform="scale(0.015625)"/>
       </defs>
       <use xlink:href="#DejaVuSans-38"/>
      </g>
     </g>
    </g>
    <g id="xtick_6">
     <g id="line2d_6">
      <g>
       <use xlink:href="#m73a3f9bacf" x="303.889044" y="364.248" style="stroke: #000000; stroke-width: 0.8"/>
      </g>
     </g>
     <g id="text_6">
      <!-- 10 -->
      <g transform="translate(294.345294 382.645656) scale(0.15 -0.15)">
       <defs>
        <path id="DejaVuSans-31" d="M 794 531 
L 1825 531 
L 1825 4091 
L 703 3866 
L 703 4441 
L 1819 4666 
L 2450 4666 
L 2450 531 
L 3481 531 
L 3481 0 
L 794 0 
L 794 531 
z
" transform="scale(0.015625)"/>
       </defs>
       <use xlink:href="#DejaVuSans-31"/>
       <use xlink:href="#DejaVuSans-30" transform="translate(63.623047 0)"/>
      </g>
     </g>
    </g>
    <g id="xtick_7">
     <g id="line2d_7">
      <g>
       <use xlink:href="#m73a3f9bacf" x="353.671508" y="364.248" style="stroke: #000000; stroke-width: 0.8"/>
      </g>
     </g>
     <g id="text_7">
      <!-- 12 -->
      <g transform="translate(344.127758 382.645656) scale(0.15 -0.15)">
       <use xlink:href="#DejaVuSans-31"/>
       <use xlink:href="#DejaVuSans-32" transform="translate(63.623047 0)"/>
      </g>
     </g>
    </g>
    <g id="xtick_8">
     <g id="line2d_8">
      <g>
       <use xlink:href="#m73a3f9bacf" x="403.453972" y="364.248" style="stroke: #000000; stroke-width: 0.8"/>
      </g>
     </g>
     <g id="text_8">
      <!-- 14 -->
      <g transform="translate(393.910222 382.645656) scale(0.15 -0.15)">
       <use xlink:href="#DejaVuSans-31"/>
       <use xlink:href="#DejaVuSans-34" transform="translate(63.623047 0)"/>
      </g>
     </g>
    </g>
    <g id="text_9">
     <!-- time [hr] -->
     <g transform="translate(196.461977 403.442375) scale(0.18 -0.18)">
      <defs>
       <path id="DejaVuSans-Bold-74" d="M 1759 4494 
L 1759 3500 
L 2913 3500 
L 2913 2700 
L 1759 2700 
L 1759 1216 
Q 1759 972 1856 886 
Q 1953 800 2241 800 
L 2816 800 
L 2816 0 
L 1856 0 
Q 1194 0 917 276 
Q 641 553 641 1216 
L 641 2700 
L 84 2700 
L 84 3500 
L 641 3500 
L 641 4494 
L 1759 4494 
z
" transform="scale(0.015625)"/>
       <path id="DejaVuSans-Bold-69" d="M 538 3500 
L 1656 3500 
L 1656 0 
L 538 0 
L 538 3500 
z
M 538 4863 
L 1656 4863 
L 1656 3950 
L 538 3950 
L 538 4863 
z
" transform="scale(0.015625)"/>
       <path id="DejaVuSans-Bold-6d" d="M 3781 2919 
Q 3994 3244 4286 3414 
Q 4578 3584 4928 3584 
Q 5531 3584 5847 3212 
Q 6163 2841 6163 2131 
L 6163 0 
L 5038 0 
L 5038 1825 
Q 5041 1866 5042 1909 
Q 5044 1953 5044 2034 
Q 5044 2406 4934 2573 
Q 4825 2741 4581 2741 
Q 4263 2741 4089 2478 
Q 3916 2216 3909 1719 
L 3909 0 
L 2784 0 
L 2784 1825 
Q 2784 2406 2684 2573 
Q 2584 2741 2328 2741 
Q 2006 2741 1831 2477 
Q 1656 2213 1656 1722 
L 1656 0 
L 531 0 
L 531 3500 
L 1656 3500 
L 1656 2988 
Q 1863 3284 2130 3434 
Q 2397 3584 2719 3584 
Q 3081 3584 3359 3409 
Q 3638 3234 3781 2919 
z
" transform="scale(0.015625)"/>
       <path id="DejaVuSans-Bold-65" d="M 4031 1759 
L 4031 1441 
L 1416 1441 
Q 1456 1047 1700 850 
Q 1944 653 2381 653 
Q 2734 653 3104 758 
Q 3475 863 3866 1075 
L 3866 213 
Q 3469 63 3072 -14 
Q 2675 -91 2278 -91 
Q 1328 -91 801 392 
Q 275 875 275 1747 
Q 275 2603 792 3093 
Q 1309 3584 2216 3584 
Q 3041 3584 3536 3087 
Q 4031 2591 4031 1759 
z
M 2881 2131 
Q 2881 2450 2695 2645 
Q 2509 2841 2209 2841 
Q 1884 2841 1681 2658 
Q 1478 2475 1428 2131 
L 2881 2131 
z
" transform="scale(0.015625)"/>
       <path id="DejaVuSans-Bold-20" transform="scale(0.015625)"/>
       <path id="DejaVuSans-Bold-5b" d="M 550 4863 
L 2491 4863 
L 2491 4159 
L 1613 4159 
L 1613 -141 
L 2491 -141 
L 2491 -844 
L 550 -844 
L 550 4863 
z
" transform="scale(0.015625)"/>
       <path id="DejaVuSans-Bold-68" d="M 4056 2131 
L 4056 0 
L 2931 0 
L 2931 347 
L 2931 1625 
Q 2931 2084 2911 2256 
Q 2891 2428 2841 2509 
Q 2775 2619 2662 2680 
Q 2550 2741 2406 2741 
Q 2056 2741 1856 2470 
Q 1656 2200 1656 1722 
L 1656 0 
L 538 0 
L 538 4863 
L 1656 4863 
L 1656 2988 
Q 1909 3294 2193 3439 
Q 2478 3584 2822 3584 
Q 3428 3584 3742 3212 
Q 4056 2841 4056 2131 
z
" transform="scale(0.015625)"/>
       <path id="DejaVuSans-Bold-72" d="M 3138 2547 
Q 2991 2616 2845 2648 
Q 2700 2681 2553 2681 
Q 2122 2681 1889 2404 
Q 1656 2128 1656 1613 
L 1656 0 
L 538 0 
L 538 3500 
L 1656 3500 
L 1656 2925 
Q 1872 3269 2151 3426 
Q 2431 3584 2822 3584 
Q 2878 3584 2943 3579 
Q 3009 3575 3134 3559 
L 3138 2547 
z
" transform="scale(0.015625)"/>
       <path id="DejaVuSans-Bold-5d" d="M 2375 -844 
L 434 -844 
L 434 -141 
L 1313 -141 
L 1313 4159 
L 434 4159 
L 434 4863 
L 2375 4863 
L 2375 -844 
z
" transform="scale(0.015625)"/>
      </defs>
      <use xlink:href="#DejaVuSans-Bold-74"/>
      <use xlink:href="#DejaVuSans-Bold-69" transform="translate(47.802734 0)"/>
      <use xlink:href="#DejaVuSans-Bold-6d" transform="translate(82.080078 0)"/>
      <use xlink:href="#DejaVuSans-Bold-65" transform="translate(186.279297 0)"/>
      <use xlink:href="#DejaVuSans-Bold-20" transform="translate(254.101562 0)"/>
      <use xlink:href="#DejaVuSans-Bold-5b" transform="translate(288.916016 0)"/>
      <use xlink:href="#DejaVuSans-Bold-68" transform="translate(334.619141 0)"/>
      <use xlink:href="#DejaVuSans-Bold-72" transform="translate(405.810547 0)"/>
      <use xlink:href="#DejaVuSans-Bold-5d" transform="translate(455.126953 0)"/>
     </g>
    </g>
   </g>
   <g id="matplotlib.axis_2">
    <g id="ytick_1">
     <g id="line2d_9">
      <defs>
       <path id="m13772005b9" d="M 0 0 
L -3.5 0 
" style="stroke: #000000; stroke-width: 0.8"/>
      </defs>
      <g>
       <use xlink:href="#m13772005b9" x="54.727813" y="338.226715" style="stroke: #000000; stroke-width: 0.8"/>
      </g>
     </g>
     <g id="text_10">
      <!-- 0 -->
      <g transform="translate(38.184063 343.925543) scale(0.15 -0.15)">
       <use xlink:href="#DejaVuSans-30"/>
      </g>
     </g>
    </g>
    <g id="ytick_2">
     <g id="line2d_10">
      <g>
       <use xlink:href="#m13772005b9" x="54.727813" y="285.501858" style="stroke: #000000; stroke-width: 0.8"/>
      </g>
     </g>
     <g id="text_11">
      <!-- 2 -->
      <g transform="translate(38.184063 291.200686) scale(0.15 -0.15)">
       <use xlink:href="#DejaVuSans-32"/>
      </g>
     </g>
    </g>
    <g id="ytick_3">
     <g id="line2d_11">
      <g>
       <use xlink:href="#m13772005b9" x="54.727813" y="232.777001" style="stroke: #000000; stroke-width: 0.8"/>
      </g>
     </g>
     <g id="text_12">
      <!-- 4 -->
      <g transform="translate(38.184063 238.475829) scale(0.15 -0.15)">
       <use xlink:href="#DejaVuSans-34"/>
      </g>
     </g>
    </g>
    <g id="ytick_4">
     <g id="line2d_12">
      <g>
       <use xlink:href="#m13772005b9" x="54.727813" y="180.052143" style="stroke: #000000; stroke-width: 0.8"/>
      </g>
     </g>
     <g id="text_13">
      <!-- 6 -->
      <g transform="translate(38.184063 185.750971) scale(0.15 -0.15)">
       <use xlink:href="#DejaVuSans-36"/>
      </g>
     </g>
    </g>
    <g id="ytick_5">
     <g id="line2d_13">
      <g>
       <use xlink:href="#m13772005b9" x="54.727813" y="127.327286" style="stroke: #000000; stroke-width: 0.8"/>
      </g>
     </g>
     <g id="text_14">
      <!-- 8 -->
      <g transform="translate(38.184063 133.026114) scale(0.15 -0.15)">
       <use xlink:href="#DejaVuSans-38"/>
      </g>
     </g>
    </g>
    <g id="ytick_6">
     <g id="line2d_14">
      <g>
       <use xlink:href="#m13772005b9" x="54.727813" y="74.602429" style="stroke: #000000; stroke-width: 0.8"/>
      </g>
     </g>
     <g id="text_15">
      <!-- 10 -->
      <g transform="translate(28.640313 80.301257) scale(0.15 -0.15)">
       <use xlink:href="#DejaVuSans-31"/>
       <use xlink:href="#DejaVuSans-30" transform="translate(63.623047 0)"/>
      </g>
     </g>
    </g>
    <g id="text_16">
     <!-- captopril [µM] -->
     <g transform="translate(20.877188 278.568844) rotate(-90) scale(0.18 -0.18)">
      <defs>
       <path id="DejaVuSans-Bold-63" d="M 3366 3391 
L 3366 2478 
Q 3138 2634 2908 2709 
Q 2678 2784 2431 2784 
Q 1963 2784 1702 2511 
Q 1441 2238 1441 1747 
Q 1441 1256 1702 982 
Q 1963 709 2431 709 
Q 2694 709 2930 787 
Q 3166 866 3366 1019 
L 3366 103 
Q 3103 6 2833 -42 
Q 2563 -91 2291 -91 
Q 1344 -91 809 395 
Q 275 881 275 1747 
Q 275 2613 809 3098 
Q 1344 3584 2291 3584 
Q 2566 3584 2833 3536 
Q 3100 3488 3366 3391 
z
" transform="scale(0.015625)"/>
       <path id="DejaVuSans-Bold-61" d="M 2106 1575 
Q 1756 1575 1579 1456 
Q 1403 1338 1403 1106 
Q 1403 894 1545 773 
Q 1688 653 1941 653 
Q 2256 653 2472 879 
Q 2688 1106 2688 1447 
L 2688 1575 
L 2106 1575 
z
M 3816 1997 
L 3816 0 
L 2688 0 
L 2688 519 
Q 2463 200 2181 54 
Q 1900 -91 1497 -91 
Q 953 -91 614 226 
Q 275 544 275 1050 
Q 275 1666 698 1953 
Q 1122 2241 2028 2241 
L 2688 2241 
L 2688 2328 
Q 2688 2594 2478 2717 
Q 2269 2841 1825 2841 
Q 1466 2841 1156 2769 
Q 847 2697 581 2553 
L 581 3406 
Q 941 3494 1303 3539 
Q 1666 3584 2028 3584 
Q 2975 3584 3395 3211 
Q 3816 2838 3816 1997 
z
" transform="scale(0.015625)"/>
       <path id="DejaVuSans-Bold-70" d="M 1656 506 
L 1656 -1331 
L 538 -1331 
L 538 3500 
L 1656 3500 
L 1656 2988 
Q 1888 3294 2169 3439 
Q 2450 3584 2816 3584 
Q 3463 3584 3878 3070 
Q 4294 2556 4294 1747 
Q 4294 938 3878 423 
Q 3463 -91 2816 -91 
Q 2450 -91 2169 54 
Q 1888 200 1656 506 
z
M 2400 2772 
Q 2041 2772 1848 2508 
Q 1656 2244 1656 1747 
Q 1656 1250 1848 986 
Q 2041 722 2400 722 
Q 2759 722 2948 984 
Q 3138 1247 3138 1747 
Q 3138 2247 2948 2509 
Q 2759 2772 2400 2772 
z
" transform="scale(0.015625)"/>
       <path id="DejaVuSans-Bold-6f" d="M 2203 2784 
Q 1831 2784 1636 2517 
Q 1441 2250 1441 1747 
Q 1441 1244 1636 976 
Q 1831 709 2203 709 
Q 2569 709 2762 976 
Q 2956 1244 2956 1747 
Q 2956 2250 2762 2517 
Q 2569 2784 2203 2784 
z
M 2203 3584 
Q 3106 3584 3614 3096 
Q 4122 2609 4122 1747 
Q 4122 884 3614 396 
Q 3106 -91 2203 -91 
Q 1297 -91 786 396 
Q 275 884 275 1747 
Q 275 2609 786 3096 
Q 1297 3584 2203 3584 
z
" transform="scale(0.015625)"/>
       <path id="DejaVuSans-Bold-6c" d="M 538 4863 
L 1656 4863 
L 1656 0 
L 538 0 
L 538 4863 
z
" transform="scale(0.015625)"/>
       <path id="DejaVuSans-Bold-b5" d="M 544 -1338 
L 544 3500 
L 1672 3500 
L 1672 1466 
Q 1672 1103 1828 926 
Q 1984 750 2303 750 
Q 2625 750 2781 926 
Q 2938 1103 2938 1466 
L 2938 3500 
L 4063 3500 
L 4063 1159 
Q 4063 938 4114 850 
Q 4166 763 4288 763 
Q 4344 763 4395 778 
Q 4447 794 4506 831 
L 4506 50 
Q 4341 -22 4195 -56 
Q 4050 -91 3909 -91 
Q 3631 -91 3454 26 
Q 3278 144 3169 403 
Q 3022 156 2811 32 
Q 2600 -91 2322 -91 
Q 2091 -91 1928 -17 
Q 1766 56 1672 206 
L 1672 -1338 
L 544 -1338 
z
" transform="scale(0.015625)"/>
       <path id="DejaVuSans-Bold-4d" d="M 588 4666 
L 2119 4666 
L 3181 2169 
L 4250 4666 
L 5778 4666 
L 5778 0 
L 4641 0 
L 4641 3413 
L 3566 897 
L 2803 897 
L 1728 3413 
L 1728 0 
L 588 0 
L 588 4666 
z
" transform="scale(0.015625)"/>
      </defs>
      <use xlink:href="#DejaVuSans-Bold-63"/>
      <use xlink:href="#DejaVuSans-Bold-61" transform="translate(59.277344 0)"/>
      <use xlink:href="#DejaVuSans-Bold-70" transform="translate(126.757812 0)"/>
      <use xlink:href="#DejaVuSans-Bold-74" transform="translate(198.339844 0)"/>
      <use xlink:href="#DejaVuSans-Bold-6f" transform="translate(246.142578 0)"/>
      <use xlink:href="#DejaVuSans-Bold-70" transform="translate(314.84375 0)"/>
      <use xlink:href="#DejaVuSans-Bold-72" transform="translate(386.425781 0)"/>
      <use xlink:href="#DejaVuSans-Bold-69" transform="translate(435.742188 0)"/>
      <use xlink:href="#DejaVuSans-Bold-6c" transform="translate(470.019531 0)"/>
      <use xlink:href="#DejaVuSans-Bold-20" transform="translate(504.296875 0)"/>
      <use xlink:href="#DejaVuSans-Bold-5b" transform="translate(539.111328 0)"/>
      <use xlink:href="#DejaVuSans-Bold-b5" transform="translate(584.814453 0)"/>
      <use xlink:href="#DejaVuSans-Bold-4d" transform="translate(658.398438 0)"/>
      <use xlink:href="#DejaVuSans-Bold-5d" transform="translate(757.910156 0)"/>
     </g>
    </g>
   </g>
   <g id="LineCollection_1">
    <path d="M 62.444094 353.130122 
L 62.444094 292.72231 
" clip-path="url(#p748b33e707)" style="fill: none; stroke: #000000"/>
    <path d="M 67.422341 286.718967 
L 67.422341 208.251838 
" clip-path="url(#p748b33e707)" style="fill: none; stroke: #000000"/>
    <path d="M 72.400587 251.491216 
L 72.400587 130.772556 
" clip-path="url(#p748b33e707)" style="fill: none; stroke: #000000"/>
    <path d="M 79.867957 227.798013 
L 79.867957 137.210536 
" clip-path="url(#p748b33e707)" style="fill: none; stroke: #000000"/>
    <path d="M 92.313573 280.374851 
L 92.313573 220.015521 
" clip-path="url(#p748b33e707)" style="fill: none; stroke: #000000"/>
    <path d="M 104.759189 320.536389 
L 104.759189 254.141126 
" clip-path="url(#p748b33e707)" style="fill: none; stroke: #000000"/>
    <path d="M 117.204805 331.130085 
L 117.204805 294.914487 
" clip-path="url(#p748b33e707)" style="fill: none; stroke: #000000"/>
    <path d="M 129.650421 334.747922 
L 129.650421 304.519776 
" clip-path="url(#p748b33e707)" style="fill: none; stroke: #000000"/>
    <path d="M 154.541653 348.218225 
L 154.541653 305.966694 
" clip-path="url(#p748b33e707)" style="fill: none; stroke: #000000"/>
    <path d="M 204.324116 346.46838 
L 204.324116 322.373129 
" clip-path="url(#p748b33e707)" style="fill: none; stroke: #000000"/>
   </g>
   <g id="line2d_15">
    <path d="M 62.444094 322.926216 
L 67.422341 247.485403 
L 72.400587 191.131886 
L 79.867957 182.504275 
L 92.313573 250.195186 
L 104.759189 287.338757 
L 117.204805 313.022286 
L 129.650421 319.633849 
L 154.541653 327.092459 
L 204.324116 334.420754 
" clip-path="url(#p748b33e707)" style="fill: none; stroke-dasharray: 3.7,1.6; stroke-dashoffset: 0; stroke: #000000"/>
    <defs>
     <path id="m03b06de2f0" d="M -3 3 
L 3 3 
L 3 -3 
L -3 -3 
z
" style="stroke: #000000; stroke-linejoin: miter"/>
    </defs>
    <g clip-path="url(#p748b33e707)">
     <use xlink:href="#m03b06de2f0" x="62.444094" y="322.926216" style="stroke: #000000; stroke-linejoin: miter"/>
     <use xlink:href="#m03b06de2f0" x="67.422341" y="247.485403" style="stroke: #000000; stroke-linejoin: miter"/>
     <use xlink:href="#m03b06de2f0" x="72.400587" y="191.131886" style="stroke: #000000; stroke-linejoin: miter"/>
     <use xlink:href="#m03b06de2f0" x="79.867957" y="182.504275" style="stroke: #000000; stroke-linejoin: miter"/>
     <use xlink:href="#m03b06de2f0" x="92.313573" y="250.195186" style="stroke: #000000; stroke-linejoin: miter"/>
     <use xlink:href="#m03b06de2f0" x="104.759189" y="287.338757" style="stroke: #000000; stroke-linejoin: miter"/>
     <use xlink:href="#m03b06de2f0" x="117.204805" y="313.022286" style="stroke: #000000; stroke-linejoin: miter"/>
     <use xlink:href="#m03b06de2f0" x="129.650421" y="319.633849" style="stroke: #000000; stroke-linejoin: miter"/>
     <use xlink:href="#m03b06de2f0" x="154.541653" y="327.092459" style="stroke: #000000; stroke-linejoin: miter"/>
     <use xlink:href="#m03b06de2f0" x="204.324116" y="334.420754" style="stroke: #000000; stroke-linejoin: miter"/>
    </g>
   </g>
   <g id="line2d_16">
    <path d="M 54.976725 338.226715 
L 62.506322 142.356191 
L 70.03592 148.919067 
L 85.095115 212.182744 
L 92.624713 238.095966 
L 100.154311 258.107494 
L 107.683908 273.232346 
L 115.213506 284.579789 
L 122.743104 293.079174 
L 130.272701 299.451204 
L 137.802299 304.239382 
L 145.331897 307.849224 
L 152.861494 310.582068 
L 160.391092 312.661552 
L 167.92069 314.253613 
L 175.450287 315.48143 
L 182.979885 316.436497 
L 190.509483 317.186842 
L 198.03908 317.783094 
L 213.098276 318.654693 
L 228.157471 319.252504 
L 250.746264 319.868849 
L 280.864655 320.434378 
L 333.571838 321.151724 
L 431.456608 322.202371 
L 597.107756 323.73291 
L 807.936491 325.453835 
L 922.247813 326.299258 
L 922.247813 326.299258 
" clip-path="url(#p748b33e707)" style="fill: none; stroke: #000000; stroke-width: 2; stroke-linecap: square"/>
   </g>
   <g id="patch_3">
    <path d="M 54.727813 364.248 
L 54.727813 48.24 
" style="fill: none; stroke: #000000; stroke-width: 0.8; stroke-linejoin: miter; stroke-linecap: square"/>
   </g>
   <g id="patch_4">
    <path d="M 428.345204 364.248 
L 428.345204 48.24 
" style="fill: none; stroke: #000000; stroke-width: 0.8; stroke-linejoin: miter; stroke-linecap: square"/>
   </g>
   <g id="patch_5">
    <path d="M 54.727813 364.248 
L 428.345204 364.248 
" style="fill: none; stroke: #000000; stroke-width: 0.8; stroke-linejoin: miter; stroke-linecap: square"/>
   </g>
   <g id="patch_6">
    <path d="M 54.727813 48.24 
L 428.345204 48.24 
" style="fill: none; stroke: #000000; stroke-width: 0.8; stroke-linejoin: miter; stroke-linecap: square"/>
   </g>
   <g id="legend_1">
    <g id="patch_7">
     <path d="M 232.759266 85.59625 
L 421.345204 85.59625 
Q 423.345204 85.59625 423.345204 83.59625 
L 423.345204 55.24 
Q 423.345204 53.24 421.345204 53.24 
L 232.759266 53.24 
Q 230.759266 53.24 230.759266 55.24 
L 230.759266 83.59625 
Q 230.759266 85.59625 232.759266 85.59625 
z
" style="fill: #ffffff; opacity: 0.8; stroke: #cccccc; stroke-linejoin: miter"/>
    </g>
    <g id="LineCollection_2">
     <path d="M 244.759266 66.338437 
L 244.759266 56.338437 
" style="fill: none; stroke: #000000"/>
    </g>
    <g id="line2d_17">
     <path d="M 234.759266 61.338437 
L 254.759266 61.338437 
" style="fill: none; stroke-dasharray: 3.7,1.6; stroke-dashoffset: 0; stroke: #000000"/>
    </g>
    <g id="line2d_18">
     <g>
      <use xlink:href="#m03b06de2f0" x="244.759266" y="61.338437" style="stroke: #000000; stroke-linejoin: miter"/>
     </g>
    </g>
    <g id="text_17">
     <!-- exp: 1.37mg/kg PO±SD (n=10) -->
     <g transform="translate(262.759266 64.838437) scale(0.1 -0.1)">
      <defs>
       <path id="DejaVuSans-65" d="M 3597 1894 
L 3597 1613 
L 953 1613 
Q 991 1019 1311 708 
Q 1631 397 2203 397 
Q 2534 397 2845 478 
Q 3156 559 3463 722 
L 3463 178 
Q 3153 47 2828 -22 
Q 2503 -91 2169 -91 
Q 1331 -91 842 396 
Q 353 884 353 1716 
Q 353 2575 817 3079 
Q 1281 3584 2069 3584 
Q 2775 3584 3186 3129 
Q 3597 2675 3597 1894 
z
M 3022 2063 
Q 3016 2534 2758 2815 
Q 2500 3097 2075 3097 
Q 1594 3097 1305 2825 
Q 1016 2553 972 2059 
L 3022 2063 
z
" transform="scale(0.015625)"/>
       <path id="DejaVuSans-78" d="M 3513 3500 
L 2247 1797 
L 3578 0 
L 2900 0 
L 1881 1375 
L 863 0 
L 184 0 
L 1544 1831 
L 300 3500 
L 978 3500 
L 1906 2253 
L 2834 3500 
L 3513 3500 
z
" transform="scale(0.015625)"/>
       <path id="DejaVuSans-70" d="M 1159 525 
L 1159 -1331 
L 581 -1331 
L 581 3500 
L 1159 3500 
L 1159 2969 
Q 1341 3281 1617 3432 
Q 1894 3584 2278 3584 
Q 2916 3584 3314 3078 
Q 3713 2572 3713 1747 
Q 3713 922 3314 415 
Q 2916 -91 2278 -91 
Q 1894 -91 1617 61 
Q 1341 213 1159 525 
z
M 3116 1747 
Q 3116 2381 2855 2742 
Q 2594 3103 2138 3103 
Q 1681 3103 1420 2742 
Q 1159 2381 1159 1747 
Q 1159 1113 1420 752 
Q 1681 391 2138 391 
Q 2594 391 2855 752 
Q 3116 1113 3116 1747 
z
" transform="scale(0.015625)"/>
       <path id="DejaVuSans-3a" d="M 750 794 
L 1409 794 
L 1409 0 
L 750 0 
L 750 794 
z
M 750 3309 
L 1409 3309 
L 1409 2516 
L 750 2516 
L 750 3309 
z
" transform="scale(0.015625)"/>
       <path id="DejaVuSans-20" transform="scale(0.015625)"/>
       <path id="DejaVuSans-2e" d="M 684 794 
L 1344 794 
L 1344 0 
L 684 0 
L 684 794 
z
" transform="scale(0.015625)"/>
       <path id="DejaVuSans-33" d="M 2597 2516 
Q 3050 2419 3304 2112 
Q 3559 1806 3559 1356 
Q 3559 666 3084 287 
Q 2609 -91 1734 -91 
Q 1441 -91 1130 -33 
Q 819 25 488 141 
L 488 750 
Q 750 597 1062 519 
Q 1375 441 1716 441 
Q 2309 441 2620 675 
Q 2931 909 2931 1356 
Q 2931 1769 2642 2001 
Q 2353 2234 1838 2234 
L 1294 2234 
L 1294 2753 
L 1863 2753 
Q 2328 2753 2575 2939 
Q 2822 3125 2822 3475 
Q 2822 3834 2567 4026 
Q 2313 4219 1838 4219 
Q 1578 4219 1281 4162 
Q 984 4106 628 3988 
L 628 4550 
Q 988 4650 1302 4700 
Q 1616 4750 1894 4750 
Q 2613 4750 3031 4423 
Q 3450 4097 3450 3541 
Q 3450 3153 3228 2886 
Q 3006 2619 2597 2516 
z
" transform="scale(0.015625)"/>
       <path id="DejaVuSans-37" d="M 525 4666 
L 3525 4666 
L 3525 4397 
L 1831 0 
L 1172 0 
L 2766 4134 
L 525 4134 
L 525 4666 
z
" transform="scale(0.015625)"/>
       <path id="DejaVuSans-6d" d="M 3328 2828 
Q 3544 3216 3844 3400 
Q 4144 3584 4550 3584 
Q 5097 3584 5394 3201 
Q 5691 2819 5691 2113 
L 5691 0 
L 5113 0 
L 5113 2094 
Q 5113 2597 4934 2840 
Q 4756 3084 4391 3084 
Q 3944 3084 3684 2787 
Q 3425 2491 3425 1978 
L 3425 0 
L 2847 0 
L 2847 2094 
Q 2847 2600 2669 2842 
Q 2491 3084 2119 3084 
Q 1678 3084 1418 2786 
Q 1159 2488 1159 1978 
L 1159 0 
L 581 0 
L 581 3500 
L 1159 3500 
L 1159 2956 
Q 1356 3278 1631 3431 
Q 1906 3584 2284 3584 
Q 2666 3584 2933 3390 
Q 3200 3197 3328 2828 
z
" transform="scale(0.015625)"/>
       <path id="DejaVuSans-67" d="M 2906 1791 
Q 2906 2416 2648 2759 
Q 2391 3103 1925 3103 
Q 1463 3103 1205 2759 
Q 947 2416 947 1791 
Q 947 1169 1205 825 
Q 1463 481 1925 481 
Q 2391 481 2648 825 
Q 2906 1169 2906 1791 
z
M 3481 434 
Q 3481 -459 3084 -895 
Q 2688 -1331 1869 -1331 
Q 1566 -1331 1297 -1286 
Q 1028 -1241 775 -1147 
L 775 -588 
Q 1028 -725 1275 -790 
Q 1522 -856 1778 -856 
Q 2344 -856 2625 -561 
Q 2906 -266 2906 331 
L 2906 616 
Q 2728 306 2450 153 
Q 2172 0 1784 0 
Q 1141 0 747 490 
Q 353 981 353 1791 
Q 353 2603 747 3093 
Q 1141 3584 1784 3584 
Q 2172 3584 2450 3431 
Q 2728 3278 2906 2969 
L 2906 3500 
L 3481 3500 
L 3481 434 
z
" transform="scale(0.015625)"/>
       <path id="DejaVuSans-2f" d="M 1625 4666 
L 2156 4666 
L 531 -594 
L 0 -594 
L 1625 4666 
z
" transform="scale(0.015625)"/>
       <path id="DejaVuSans-6b" d="M 581 4863 
L 1159 4863 
L 1159 1991 
L 2875 3500 
L 3609 3500 
L 1753 1863 
L 3688 0 
L 2938 0 
L 1159 1709 
L 1159 0 
L 581 0 
L 581 4863 
z
" transform="scale(0.015625)"/>
       <path id="DejaVuSans-50" d="M 1259 4147 
L 1259 2394 
L 2053 2394 
Q 2494 2394 2734 2622 
Q 2975 2850 2975 3272 
Q 2975 3691 2734 3919 
Q 2494 4147 2053 4147 
L 1259 4147 
z
M 628 4666 
L 2053 4666 
Q 2838 4666 3239 4311 
Q 3641 3956 3641 3272 
Q 3641 2581 3239 2228 
Q 2838 1875 2053 1875 
L 1259 1875 
L 1259 0 
L 628 0 
L 628 4666 
z
" transform="scale(0.015625)"/>
       <path id="DejaVuSans-4f" d="M 2522 4238 
Q 1834 4238 1429 3725 
Q 1025 3213 1025 2328 
Q 1025 1447 1429 934 
Q 1834 422 2522 422 
Q 3209 422 3611 934 
Q 4013 1447 4013 2328 
Q 4013 3213 3611 3725 
Q 3209 4238 2522 4238 
z
M 2522 4750 
Q 3503 4750 4090 4092 
Q 4678 3434 4678 2328 
Q 4678 1225 4090 567 
Q 3503 -91 2522 -91 
Q 1538 -91 948 565 
Q 359 1222 359 2328 
Q 359 3434 948 4092 
Q 1538 4750 2522 4750 
z
" transform="scale(0.015625)"/>
       <path id="DejaVuSans-b1" d="M 2944 4013 
L 2944 2803 
L 4684 2803 
L 4684 2272 
L 2944 2272 
L 2944 1063 
L 2419 1063 
L 2419 2272 
L 678 2272 
L 678 2803 
L 2419 2803 
L 2419 4013 
L 2944 4013 
z
M 678 531 
L 4684 531 
L 4684 0 
L 678 0 
L 678 531 
z
" transform="scale(0.015625)"/>
       <path id="DejaVuSans-53" d="M 3425 4513 
L 3425 3897 
Q 3066 4069 2747 4153 
Q 2428 4238 2131 4238 
Q 1616 4238 1336 4038 
Q 1056 3838 1056 3469 
Q 1056 3159 1242 3001 
Q 1428 2844 1947 2747 
L 2328 2669 
Q 3034 2534 3370 2195 
Q 3706 1856 3706 1288 
Q 3706 609 3251 259 
Q 2797 -91 1919 -91 
Q 1588 -91 1214 -16 
Q 841 59 441 206 
L 441 856 
Q 825 641 1194 531 
Q 1563 422 1919 422 
Q 2459 422 2753 634 
Q 3047 847 3047 1241 
Q 3047 1584 2836 1778 
Q 2625 1972 2144 2069 
L 1759 2144 
Q 1053 2284 737 2584 
Q 422 2884 422 3419 
Q 422 4038 858 4394 
Q 1294 4750 2059 4750 
Q 2388 4750 2728 4690 
Q 3069 4631 3425 4513 
z
" transform="scale(0.015625)"/>
       <path id="DejaVuSans-44" d="M 1259 4147 
L 1259 519 
L 2022 519 
Q 2988 519 3436 956 
Q 3884 1394 3884 2338 
Q 3884 3275 3436 3711 
Q 2988 4147 2022 4147 
L 1259 4147 
z
M 628 4666 
L 1925 4666 
Q 3281 4666 3915 4102 
Q 4550 3538 4550 2338 
Q 4550 1131 3912 565 
Q 3275 0 1925 0 
L 628 0 
L 628 4666 
z
" transform="scale(0.015625)"/>
       <path id="DejaVuSans-28" d="M 1984 4856 
Q 1566 4138 1362 3434 
Q 1159 2731 1159 2009 
Q 1159 1288 1364 580 
Q 1569 -128 1984 -844 
L 1484 -844 
Q 1016 -109 783 600 
Q 550 1309 550 2009 
Q 550 2706 781 3412 
Q 1013 4119 1484 4856 
L 1984 4856 
z
" transform="scale(0.015625)"/>
       <path id="DejaVuSans-6e" d="M 3513 2113 
L 3513 0 
L 2938 0 
L 2938 2094 
Q 2938 2591 2744 2837 
Q 2550 3084 2163 3084 
Q 1697 3084 1428 2787 
Q 1159 2491 1159 1978 
L 1159 0 
L 581 0 
L 581 3500 
L 1159 3500 
L 1159 2956 
Q 1366 3272 1645 3428 
Q 1925 3584 2291 3584 
Q 2894 3584 3203 3211 
Q 3513 2838 3513 2113 
z
" transform="scale(0.015625)"/>
       <path id="DejaVuSans-3d" d="M 678 2906 
L 4684 2906 
L 4684 2381 
L 678 2381 
L 678 2906 
z
M 678 1631 
L 4684 1631 
L 4684 1100 
L 678 1100 
L 678 1631 
z
" transform="scale(0.015625)"/>
       <path id="DejaVuSans-29" d="M 513 4856 
L 1013 4856 
Q 1481 4119 1714 3412 
Q 1947 2706 1947 2009 
Q 1947 1309 1714 600 
Q 1481 -109 1013 -844 
L 513 -844 
Q 928 -128 1133 580 
Q 1338 1288 1338 2009 
Q 1338 2731 1133 3434 
Q 928 4138 513 4856 
z
" transform="scale(0.015625)"/>
      </defs>
      <use xlink:href="#DejaVuSans-65"/>
      <use xlink:href="#DejaVuSans-78" transform="translate(59.773438 0)"/>
      <use xlink:href="#DejaVuSans-70" transform="translate(118.953125 0)"/>
      <use xlink:href="#DejaVuSans-3a" transform="translate(182.429688 0)"/>
      <use xlink:href="#DejaVuSans-20" transform="translate(216.121094 0)"/>
      <use xlink:href="#DejaVuSans-31" transform="translate(247.908203 0)"/>
      <use xlink:href="#DejaVuSans-2e" transform="translate(311.53125 0)"/>
      <use xlink:href="#DejaVuSans-33" transform="translate(343.318359 0)"/>
      <use xlink:href="#DejaVuSans-37" transform="translate(406.941406 0)"/>
      <use xlink:href="#DejaVuSans-6d" transform="translate(470.564453 0)"/>
      <use xlink:href="#DejaVuSans-67" transform="translate(567.976562 0)"/>
      <use xlink:href="#DejaVuSans-2f" transform="translate(631.453125 0)"/>
      <use xlink:href="#DejaVuSans-6b" transform="translate(665.144531 0)"/>
      <use xlink:href="#DejaVuSans-67" transform="translate(723.054688 0)"/>
      <use xlink:href="#DejaVuSans-20" transform="translate(786.53125 0)"/>
      <use xlink:href="#DejaVuSans-50" transform="translate(818.318359 0)"/>
      <use xlink:href="#DejaVuSans-4f" transform="translate(878.621094 0)"/>
      <use xlink:href="#DejaVuSans-b1" transform="translate(957.332031 0)"/>
      <use xlink:href="#DejaVuSans-53" transform="translate(1041.121094 0)"/>
      <use xlink:href="#DejaVuSans-44" transform="translate(1104.597656 0)"/>
      <use xlink:href="#DejaVuSans-20" transform="translate(1181.599609 0)"/>
      <use xlink:href="#DejaVuSans-28" transform="translate(1213.386719 0)"/>
      <use xlink:href="#DejaVuSans-6e" transform="translate(1252.400391 0)"/>
      <use xlink:href="#DejaVuSans-3d" transform="translate(1315.779297 0)"/>
      <use xlink:href="#DejaVuSans-31" transform="translate(1399.568359 0)"/>
      <use xlink:href="#DejaVuSans-30" transform="translate(1463.191406 0)"/>
      <use xlink:href="#DejaVuSans-29" transform="translate(1526.814453 0)"/>
     </g>
    </g>
    <g id="line2d_19">
     <path d="M 234.759266 76.016562 
L 254.759266 76.016562 
" style="fill: none; stroke: #000000; stroke-width: 2; stroke-linecap: square"/>
    </g>
    <g id="line2d_20"/>
    <g id="text_18">
     <!-- sim: 1.37mg/kg PO -->
     <g transform="translate(262.759266 79.516562) scale(0.1 -0.1)">
      <defs>
       <path id="DejaVuSans-73" d="M 2834 3397 
L 2834 2853 
Q 2591 2978 2328 3040 
Q 2066 3103 1784 3103 
Q 1356 3103 1142 2972 
Q 928 2841 928 2578 
Q 928 2378 1081 2264 
Q 1234 2150 1697 2047 
L 1894 2003 
Q 2506 1872 2764 1633 
Q 3022 1394 3022 966 
Q 3022 478 2636 193 
Q 2250 -91 1575 -91 
Q 1294 -91 989 -36 
Q 684 19 347 128 
L 347 722 
Q 666 556 975 473 
Q 1284 391 1588 391 
Q 1994 391 2212 530 
Q 2431 669 2431 922 
Q 2431 1156 2273 1281 
Q 2116 1406 1581 1522 
L 1381 1569 
Q 847 1681 609 1914 
Q 372 2147 372 2553 
Q 372 3047 722 3315 
Q 1072 3584 1716 3584 
Q 2034 3584 2315 3537 
Q 2597 3491 2834 3397 
z
" transform="scale(0.015625)"/>
       <path id="DejaVuSans-69" d="M 603 3500 
L 1178 3500 
L 1178 0 
L 603 0 
L 603 3500 
z
M 603 4863 
L 1178 4863 
L 1178 4134 
L 603 4134 
L 603 4863 
z
" transform="scale(0.015625)"/>
      </defs>
      <use xlink:href="#DejaVuSans-73"/>
      <use xlink:href="#DejaVuSans-69" transform="translate(52.099609 0)"/>
      <use xlink:href="#DejaVuSans-6d" transform="translate(79.882812 0)"/>
      <use xlink:href="#DejaVuSans-3a" transform="translate(177.294922 0)"/>
      <use xlink:href="#DejaVuSans-20" transform="translate(210.986328 0)"/>
      <use xlink:href="#DejaVuSans-31" transform="translate(242.773438 0)"/>
      <use xlink:href="#DejaVuSans-2e" transform="translate(306.396484 0)"/>
      <use xlink:href="#DejaVuSans-33" transform="translate(338.183594 0)"/>
      <use xlink:href="#DejaVuSans-37" transform="translate(401.806641 0)"/>
      <use xlink:href="#DejaVuSans-6d" transform="translate(465.429688 0)"/>
      <use xlink:href="#DejaVuSans-67" transform="translate(562.841797 0)"/>
      <use xlink:href="#DejaVuSans-2f" transform="translate(626.318359 0)"/>
      <use xlink:href="#DejaVuSans-6b" transform="translate(660.009766 0)"/>
      <use xlink:href="#DejaVuSans-67" transform="translate(717.919922 0)"/>
      <use xlink:href="#DejaVuSans-20" transform="translate(781.396484 0)"/>
      <use xlink:href="#DejaVuSans-50" transform="translate(813.183594 0)"/>
      <use xlink:href="#DejaVuSans-4f" transform="translate(873.486328 0)"/>
     </g>
    </g>
   </g>
  </g>
  <g id="axes_2">
   <g id="patch_8">
    <path d="M 540.430421 364.248 
L 914.047813 364.248 
L 914.047813 48.24 
L 540.430421 48.24 
z
" style="fill: #ffffff"/>
   </g>
   <g id="matplotlib.axis_3">
    <g id="xtick_9">
     <g id="line2d_21">
      <g>
       <use xlink:href="#m73a3f9bacf" x="540.679334" y="364.248" style="stroke: #000000; stroke-width: 0.8"/>
      </g>
     </g>
     <g id="text_19">
      <!-- 0 -->
      <g transform="translate(535.907459 382.645656) scale(0.15 -0.15)">
       <use xlink:href="#DejaVuSans-30"/>
      </g>
     </g>
    </g>
    <g id="xtick_10">
     <g id="line2d_22">
      <g>
       <use xlink:href="#m73a3f9bacf" x="590.461797" y="364.248" style="stroke: #000000; stroke-width: 0.8"/>
      </g>
     </g>
     <g id="text_20">
      <!-- 2 -->
      <g transform="translate(585.689922 382.645656) scale(0.15 -0.15)">
       <use xlink:href="#DejaVuSans-32"/>
      </g>
     </g>
    </g>
    <g id="xtick_11">
     <g id="line2d_23">
      <g>
       <use xlink:href="#m73a3f9bacf" x="640.244261" y="364.248" style="stroke: #000000; stroke-width: 0.8"/>
      </g>
     </g>
     <g id="text_21">
      <!-- 4 -->
      <g transform="translate(635.472386 382.645656) scale(0.15 -0.15)">
       <use xlink:href="#DejaVuSans-34"/>
      </g>
     </g>
    </g>
    <g id="xtick_12">
     <g id="line2d_24">
      <g>
       <use xlink:href="#m73a3f9bacf" x="690.026725" y="364.248" style="stroke: #000000; stroke-width: 0.8"/>
      </g>
     </g>
     <g id="text_22">
      <!-- 6 -->
      <g transform="translate(685.25485 382.645656) scale(0.15 -0.15)">
       <use xlink:href="#DejaVuSans-36"/>
      </g>
     </g>
    </g>
    <g id="xtick_13">
     <g id="line2d_25">
      <g>
       <use xlink:href="#m73a3f9bacf" x="739.809189" y="364.248" style="stroke: #000000; stroke-width: 0.8"/>
      </g>
     </g>
     <g id="text_23">
      <!-- 8 -->
      <g transform="translate(735.037314 382.645656) scale(0.15 -0.15)">
       <use xlink:href="#DejaVuSans-38"/>
      </g>
     </g>
    </g>
    <g id="xtick_14">
     <g id="line2d_26">
      <g>
       <use xlink:href="#m73a3f9bacf" x="789.591653" y="364.248" style="stroke: #000000; stroke-width: 0.8"/>
      </g>
     </g>
     <g id="text_24">
      <!-- 10 -->
      <g transform="translate(780.047903 382.645656) scale(0.15 -0.15)">
       <use xlink:href="#DejaVuSans-31"/>
       <use xlink:href="#DejaVuSans-30" transform="translate(63.623047 0)"/>
      </g>
     </g>
    </g>
    <g id="xtick_15">
     <g id="line2d_27">
      <g>
       <use xlink:href="#m73a3f9bacf" x="839.374117" y="364.248" style="stroke: #000000; stroke-width: 0.8"/>
      </g>
     </g>
     <g id="text_25">
      <!-- 12 -->
      <g transform="translate(829.830367 382.645656) scale(0.15 -0.15)">
       <use xlink:href="#DejaVuSans-31"/>
       <use xlink:href="#DejaVuSans-32" transform="translate(63.623047 0)"/>
      </g>
     </g>
    </g>
    <g id="xtick_16">
     <g id="line2d_28">
      <g>
       <use xlink:href="#m73a3f9bacf" x="889.156581" y="364.248" style="stroke: #000000; stroke-width: 0.8"/>
      </g>
     </g>
     <g id="text_26">
      <!-- 14 -->
      <g transform="translate(879.612831 382.645656) scale(0.15 -0.15)">
       <use xlink:href="#DejaVuSans-31"/>
       <use xlink:href="#DejaVuSans-34" transform="translate(63.623047 0)"/>
      </g>
     </g>
    </g>
    <g id="text_27">
     <!-- time [hr] -->
     <g transform="translate(682.164586 403.442375) scale(0.18 -0.18)">
      <use xlink:href="#DejaVuSans-Bold-74"/>
      <use xlink:href="#DejaVuSans-Bold-69" transform="translate(47.802734 0)"/>
      <use xlink:href="#DejaVuSans-Bold-6d" transform="translate(82.080078 0)"/>
      <use xlink:href="#DejaVuSans-Bold-65" transform="translate(186.279297 0)"/>
      <use xlink:href="#DejaVuSans-Bold-20" transform="translate(254.101562 0)"/>
      <use xlink:href="#DejaVuSans-Bold-5b" transform="translate(288.916016 0)"/>
      <use xlink:href="#DejaVuSans-Bold-68" transform="translate(334.619141 0)"/>
      <use xlink:href="#DejaVuSans-Bold-72" transform="translate(405.810547 0)"/>
      <use xlink:href="#DejaVuSans-Bold-5d" transform="translate(455.126953 0)"/>
     </g>
    </g>
   </g>
   <g id="matplotlib.axis_4">
    <g id="ytick_7">
     <g id="line2d_29">
      <g>
       <use xlink:href="#m13772005b9" x="540.430421" y="342.104378" style="stroke: #000000; stroke-width: 0.8"/>
      </g>
     </g>
     <g id="text_28">
      <!-- 0 -->
      <g transform="translate(523.886671 347.803207) scale(0.15 -0.15)">
       <use xlink:href="#DejaVuSans-30"/>
      </g>
     </g>
    </g>
    <g id="ytick_8">
     <g id="line2d_30">
      <g>
       <use xlink:href="#m13772005b9" x="540.430421" y="288.674491" style="stroke: #000000; stroke-width: 0.8"/>
      </g>
     </g>
     <g id="text_29">
      <!-- 2 -->
      <g transform="translate(523.886671 294.37332) scale(0.15 -0.15)">
       <use xlink:href="#DejaVuSans-32"/>
      </g>
     </g>
    </g>
    <g id="ytick_9">
     <g id="line2d_31">
      <g>
       <use xlink:href="#m13772005b9" x="540.430421" y="235.244604" style="stroke: #000000; stroke-width: 0.8"/>
      </g>
     </g>
     <g id="text_30">
      <!-- 4 -->
      <g transform="translate(523.886671 240.943433) scale(0.15 -0.15)">
       <use xlink:href="#DejaVuSans-34"/>
      </g>
     </g>
    </g>
    <g id="ytick_10">
     <g id="line2d_32">
      <g>
       <use xlink:href="#m13772005b9" x="540.430421" y="181.814717" style="stroke: #000000; stroke-width: 0.8"/>
      </g>
     </g>
     <g id="text_31">
      <!-- 6 -->
      <g transform="translate(523.886671 187.513546) scale(0.15 -0.15)">
       <use xlink:href="#DejaVuSans-36"/>
      </g>
     </g>
    </g>
    <g id="ytick_11">
     <g id="line2d_33">
      <g>
       <use xlink:href="#m13772005b9" x="540.430421" y="128.38483" style="stroke: #000000; stroke-width: 0.8"/>
      </g>
     </g>
     <g id="text_32">
      <!-- 8 -->
      <g transform="translate(523.886671 134.083659) scale(0.15 -0.15)">
       <use xlink:href="#DejaVuSans-38"/>
      </g>
     </g>
    </g>
    <g id="ytick_12">
     <g id="line2d_34">
      <g>
       <use xlink:href="#m13772005b9" x="540.430421" y="74.954943" style="stroke: #000000; stroke-width: 0.8"/>
      </g>
     </g>
     <g id="text_33">
      <!-- 10 -->
      <g transform="translate(514.342921 80.653772) scale(0.15 -0.15)">
       <use xlink:href="#DejaVuSans-31"/>
       <use xlink:href="#DejaVuSans-30" transform="translate(63.623047 0)"/>
      </g>
     </g>
    </g>
    <g id="text_34">
     <!-- cap + capss + capme [µM] -->
     <g transform="translate(506.579796 340.5465) rotate(-90) scale(0.18 -0.18)">
      <defs>
       <path id="DejaVuSans-Bold-2b" d="M 3053 4013 
L 3053 2375 
L 4684 2375 
L 4684 1638 
L 3053 1638 
L 3053 0 
L 2309 0 
L 2309 1638 
L 678 1638 
L 678 2375 
L 2309 2375 
L 2309 4013 
L 3053 4013 
z
" transform="scale(0.015625)"/>
       <path id="DejaVuSans-Bold-73" d="M 3272 3391 
L 3272 2541 
Q 2913 2691 2578 2766 
Q 2244 2841 1947 2841 
Q 1628 2841 1473 2761 
Q 1319 2681 1319 2516 
Q 1319 2381 1436 2309 
Q 1553 2238 1856 2203 
L 2053 2175 
Q 2913 2066 3209 1816 
Q 3506 1566 3506 1031 
Q 3506 472 3093 190 
Q 2681 -91 1863 -91 
Q 1516 -91 1145 -36 
Q 775 19 384 128 
L 384 978 
Q 719 816 1070 734 
Q 1422 653 1784 653 
Q 2113 653 2278 743 
Q 2444 834 2444 1013 
Q 2444 1163 2330 1236 
Q 2216 1309 1875 1350 
L 1678 1375 
Q 931 1469 631 1722 
Q 331 1975 331 2491 
Q 331 3047 712 3315 
Q 1094 3584 1881 3584 
Q 2191 3584 2531 3537 
Q 2872 3491 3272 3391 
z
" transform="scale(0.015625)"/>
      </defs>
      <use xlink:href="#DejaVuSans-Bold-63"/>
      <use xlink:href="#DejaVuSans-Bold-61" transform="translate(59.277344 0)"/>
      <use xlink:href="#DejaVuSans-Bold-70" transform="translate(126.757812 0)"/>
      <use xlink:href="#DejaVuSans-Bold-20" transform="translate(198.339844 0)"/>
      <use xlink:href="#DejaVuSans-Bold-2b" transform="translate(233.154297 0)"/>
      <use xlink:href="#DejaVuSans-Bold-20" transform="translate(316.943359 0)"/>
      <use xlink:href="#DejaVuSans-Bold-63" transform="translate(351.757812 0)"/>
      <use xlink:href="#DejaVuSans-Bold-61" transform="translate(411.035156 0)"/>
      <use xlink:href="#DejaVuSans-Bold-70" transform="translate(478.515625 0)"/>
      <use xlink:href="#DejaVuSans-Bold-73" transform="translate(550.097656 0)"/>
      <use xlink:href="#DejaVuSans-Bold-73" transform="translate(609.619141 0)"/>
      <use xlink:href="#DejaVuSans-Bold-20" transform="translate(669.140625 0)"/>
      <use xlink:href="#DejaVuSans-Bold-2b" transform="translate(703.955078 0)"/>
      <use xlink:href="#DejaVuSans-Bold-20" transform="translate(787.744141 0)"/>
      <use xlink:href="#DejaVuSans-Bold-63" transform="translate(822.558594 0)"/>
      <use xlink:href="#DejaVuSans-Bold-61" transform="translate(881.835938 0)"/>
      <use xlink:href="#DejaVuSans-Bold-70" transform="translate(949.316406 0)"/>
      <use xlink:href="#DejaVuSans-Bold-6d" transform="translate(1020.898438 0)"/>
      <use xlink:href="#DejaVuSans-Bold-65" transform="translate(1125.097656 0)"/>
      <use xlink:href="#DejaVuSans-Bold-20" transform="translate(1192.919922 0)"/>
      <use xlink:href="#DejaVuSans-Bold-5b" transform="translate(1227.734375 0)"/>
      <use xlink:href="#DejaVuSans-Bold-b5" transform="translate(1273.4375 0)"/>
      <use xlink:href="#DejaVuSans-Bold-4d" transform="translate(1347.021484 0)"/>
      <use xlink:href="#DejaVuSans-Bold-5d" transform="translate(1446.533203 0)"/>
     </g>
    </g>
   </g>
   <g id="LineCollection_3">
    <path d="M 548.146703 349.540983 
L 548.146703 281.66548 
" clip-path="url(#p04558e73ae)" style="fill: none; stroke: #000000"/>
    <path d="M 553.124949 277.444244 
L 553.124949 146.218271 
" clip-path="url(#p04558e73ae)" style="fill: none; stroke: #000000"/>
    <path d="M 558.103196 184.783911 
L 558.103196 67.096693 
" clip-path="url(#p04558e73ae)" style="fill: none; stroke: #000000"/>
    <path d="M 565.570565 182.101585 
L 565.570565 55.400646 
" clip-path="url(#p04558e73ae)" style="fill: none; stroke: #000000"/>
    <path d="M 578.016181 170.151678 
L 578.016181 115.887621 
" clip-path="url(#p04558e73ae)" style="fill: none; stroke: #000000"/>
    <path d="M 590.461797 207.218923 
L 590.461797 157.407209 
" clip-path="url(#p04558e73ae)" style="fill: none; stroke: #000000"/>
    <path d="M 602.907413 240.538192 
L 602.907413 199.812891 
" clip-path="url(#p04558e73ae)" style="fill: none; stroke: #000000"/>
    <path d="M 615.353029 265.038936 
L 615.353029 215.263567 
" clip-path="url(#p04558e73ae)" style="fill: none; stroke: #000000"/>
    <path d="M 640.244261 286.779195 
L 640.244261 250.542581 
" clip-path="url(#p04558e73ae)" style="fill: none; stroke: #000000"/>
    <path d="M 690.026725 311.323174 
L 690.026725 284.172973 
" clip-path="url(#p04558e73ae)" style="fill: none; stroke: #000000"/>
    <path d="M 739.809189 323.984201 
L 739.809189 296.797654 
" clip-path="url(#p04558e73ae)" style="fill: none; stroke: #000000"/>
    <path d="M 789.591653 327.809198 
L 789.591653 309.672718 
" clip-path="url(#p04558e73ae)" style="fill: none; stroke: #000000"/>
    <path d="M 839.374117 328.1672 
L 839.374117 314.555754 
" clip-path="url(#p04558e73ae)" style="fill: none; stroke: #000000"/>
   </g>
   <g id="line2d_35">
    <path d="M 548.146703 315.603232 
L 553.124949 211.831258 
L 558.103196 125.940302 
L 565.570565 118.751116 
L 578.016181 143.019649 
L 590.461797 182.313066 
L 602.907413 220.175541 
L 615.353029 240.151251 
L 640.244261 268.660888 
L 690.026725 297.748073 
L 739.809189 310.390928 
L 789.591653 318.740958 
L 839.374117 321.361477 
" clip-path="url(#p04558e73ae)" style="fill: none; stroke-dasharray: 3.7,1.6; stroke-dashoffset: 0; stroke: #000000"/>
    <g clip-path="url(#p04558e73ae)">
     <use xlink:href="#m03b06de2f0" x="548.146703" y="315.603232" style="stroke: #000000; stroke-linejoin: miter"/>
     <use xlink:href="#m03b06de2f0" x="553.124949" y="211.831258" style="stroke: #000000; stroke-linejoin: miter"/>
     <use xlink:href="#m03b06de2f0" x="558.103196" y="125.940302" style="stroke: #000000; stroke-linejoin: miter"/>
     <use xlink:href="#m03b06de2f0" x="565.570565" y="118.751116" style="stroke: #000000; stroke-linejoin: miter"/>
     <use xlink:href="#m03b06de2f0" x="578.016181" y="143.019649" style="stroke: #000000; stroke-linejoin: miter"/>
     <use xlink:href="#m03b06de2f0" x="590.461797" y="182.313066" style="stroke: #000000; stroke-linejoin: miter"/>
     <use xlink:href="#m03b06de2f0" x="602.907413" y="220.175541" style="stroke: #000000; stroke-linejoin: miter"/>
     <use xlink:href="#m03b06de2f0" x="615.353029" y="240.151251" style="stroke: #000000; stroke-linejoin: miter"/>
     <use xlink:href="#m03b06de2f0" x="640.244261" y="268.660888" style="stroke: #000000; stroke-linejoin: miter"/>
     <use xlink:href="#m03b06de2f0" x="690.026725" y="297.748073" style="stroke: #000000; stroke-linejoin: miter"/>
     <use xlink:href="#m03b06de2f0" x="739.809189" y="310.390928" style="stroke: #000000; stroke-linejoin: miter"/>
     <use xlink:href="#m03b06de2f0" x="789.591653" y="318.740958" style="stroke: #000000; stroke-linejoin: miter"/>
     <use xlink:href="#m03b06de2f0" x="839.374117" y="321.361477" style="stroke: #000000; stroke-linejoin: miter"/>
    </g>
   </g>
   <g id="line2d_36">
    <path d="M 540.679334 342.104378 
L 548.208931 116.789119 
L 555.738529 90.390881 
L 563.268126 97.687193 
L 570.797724 113.860816 
L 578.327322 131.483808 
L 585.856919 148.359704 
L 593.386517 163.893467 
L 600.916115 177.984117 
L 608.445712 190.683844 
L 615.97531 202.09106 
L 623.504908 212.315604 
L 631.034505 221.466701 
L 638.564103 229.648458 
L 646.093701 236.958087 
L 653.623298 243.48525 
L 661.152896 249.311954 
L 668.682494 254.512738 
L 676.212091 259.155025 
L 683.741689 263.299568 
L 691.271287 267.000945 
L 698.800884 270.308061 
L 706.330482 273.264653 
L 713.86008 275.909769 
L 721.389677 278.278224 
L 728.919275 280.401025 
L 736.448873 282.305762 
L 743.97847 284.016966 
L 751.508068 285.556434 
L 759.037666 286.943525 
L 766.567263 288.195423 
L 781.626459 290.352924 
L 796.685654 292.131421 
L 811.744849 293.611507 
L 826.804045 294.856529 
L 841.86324 295.916253 
L 864.452033 297.241568 
L 887.040826 298.334378 
L 917.159216 299.545038 
L 922.247813 299.727788 
L 922.247813 299.727788 
" clip-path="url(#p04558e73ae)" style="fill: none; stroke: #000000; stroke-width: 2; stroke-linecap: square"/>
   </g>
   <g id="patch_9">
    <path d="M 540.430421 364.248 
L 540.430421 48.24 
" style="fill: none; stroke: #000000; stroke-width: 0.8; stroke-linejoin: miter; stroke-linecap: square"/>
   </g>
   <g id="patch_10">
    <path d="M 914.047813 364.248 
L 914.047813 48.24 
" style="fill: none; stroke: #000000; stroke-width: 0.8; stroke-linejoin: miter; stroke-linecap: square"/>
   </g>
   <g id="patch_11">
    <path d="M 540.430421 364.248 
L 914.047813 364.248 
" style="fill: none; stroke: #000000; stroke-width: 0.8; stroke-linejoin: miter; stroke-linecap: square"/>
   </g>
   <g id="patch_12">
    <path d="M 540.430421 48.24 
L 914.047813 48.24 
" style="fill: none; stroke: #000000; stroke-width: 0.8; stroke-linejoin: miter; stroke-linecap: square"/>
   </g>
   <g id="legend_2">
    <g id="patch_13">
     <path d="M 718.461875 85.59625 
L 907.047813 85.59625 
Q 909.047813 85.59625 909.047813 83.59625 
L 909.047813 55.24 
Q 909.047813 53.24 907.047813 53.24 
L 718.461875 53.24 
Q 716.461875 53.24 716.461875 55.24 
L 716.461875 83.59625 
Q 716.461875 85.59625 718.461875 85.59625 
z
" style="fill: #ffffff; opacity: 0.8; stroke: #cccccc; stroke-linejoin: miter"/>
    </g>
    <g id="LineCollection_4">
     <path d="M 730.461875 66.338437 
L 730.461875 56.338437 
" style="fill: none; stroke: #000000"/>
    </g>
    <g id="line2d_37">
     <path d="M 720.461875 61.338437 
L 740.461875 61.338437 
" style="fill: none; stroke-dasharray: 3.7,1.6; stroke-dashoffset: 0; stroke: #000000"/>
    </g>
    <g id="line2d_38">
     <g>
      <use xlink:href="#m03b06de2f0" x="730.461875" y="61.338437" style="stroke: #000000; stroke-linejoin: miter"/>
     </g>
    </g>
    <g id="text_35">
     <!-- exp: 1.37mg/kg PO±SD (n=10) -->
     <g transform="translate(748.461875 64.838437) scale(0.1 -0.1)">
      <use xlink:href="#DejaVuSans-65"/>
      <use xlink:href="#DejaVuSans-78" transform="translate(59.773438 0)"/>
      <use xlink:href="#DejaVuSans-70" transform="translate(118.953125 0)"/>
      <use xlink:href="#DejaVuSans-3a" transform="translate(182.429688 0)"/>
      <use xlink:href="#DejaVuSans-20" transform="translate(216.121094 0)"/>
      <use xlink:href="#DejaVuSans-31" transform="translate(247.908203 0)"/>
      <use xlink:href="#DejaVuSans-2e" transform="translate(311.53125 0)"/>
      <use xlink:href="#DejaVuSans-33" transform="translate(343.318359 0)"/>
      <use xlink:href="#DejaVuSans-37" transform="translate(406.941406 0)"/>
      <use xlink:href="#DejaVuSans-6d" transform="translate(470.564453 0)"/>
      <use xlink:href="#DejaVuSans-67" transform="translate(567.976562 0)"/>
      <use xlink:href="#DejaVuSans-2f" transform="translate(631.453125 0)"/>
      <use xlink:href="#DejaVuSans-6b" transform="translate(665.144531 0)"/>
      <use xlink:href="#DejaVuSans-67" transform="translate(723.054688 0)"/>
      <use xlink:href="#DejaVuSans-20" transform="translate(786.53125 0)"/>
      <use xlink:href="#DejaVuSans-50" transform="translate(818.318359 0)"/>
      <use xlink:href="#DejaVuSans-4f" transform="translate(878.621094 0)"/>
      <use xlink:href="#DejaVuSans-b1" transform="translate(957.332031 0)"/>
      <use xlink:href="#DejaVuSans-53" transform="translate(1041.121094 0)"/>
      <use xlink:href="#DejaVuSans-44" transform="translate(1104.597656 0)"/>
      <use xlink:href="#DejaVuSans-20" transform="translate(1181.599609 0)"/>
      <use xlink:href="#DejaVuSans-28" transform="translate(1213.386719 0)"/>
      <use xlink:href="#DejaVuSans-6e" transform="translate(1252.400391 0)"/>
      <use xlink:href="#DejaVuSans-3d" transform="translate(1315.779297 0)"/>
      <use xlink:href="#DejaVuSans-31" transform="translate(1399.568359 0)"/>
      <use xlink:href="#DejaVuSans-30" transform="translate(1463.191406 0)"/>
      <use xlink:href="#DejaVuSans-29" transform="translate(1526.814453 0)"/>
     </g>
    </g>
    <g id="line2d_39">
     <path d="M 720.461875 76.016562 
L 740.461875 76.016562 
" style="fill: none; stroke: #000000; stroke-width: 2; stroke-linecap: square"/>
    </g>
    <g id="line2d_40"/>
    <g id="text_36">
     <!-- sim: 1.37mg/kg PO -->
     <g transform="translate(748.461875 79.516562) scale(0.1 -0.1)">
      <use xlink:href="#DejaVuSans-73"/>
      <use xlink:href="#DejaVuSans-69" transform="translate(52.099609 0)"/>
      <use xlink:href="#DejaVuSans-6d" transform="translate(79.882812 0)"/>
      <use xlink:href="#DejaVuSans-3a" transform="translate(177.294922 0)"/>
      <use xlink:href="#DejaVuSans-20" transform="translate(210.986328 0)"/>
      <use xlink:href="#DejaVuSans-31" transform="translate(242.773438 0)"/>
      <use xlink:href="#DejaVuSans-2e" transform="translate(306.396484 0)"/>
      <use xlink:href="#DejaVuSans-33" transform="translate(338.183594 0)"/>
      <use xlink:href="#DejaVuSans-37" transform="translate(401.806641 0)"/>
      <use xlink:href="#DejaVuSans-6d" transform="translate(465.429688 0)"/>
      <use xlink:href="#DejaVuSans-67" transform="translate(562.841797 0)"/>
      <use xlink:href="#DejaVuSans-2f" transform="translate(626.318359 0)"/>
      <use xlink:href="#DejaVuSans-6b" transform="translate(660.009766 0)"/>
      <use xlink:href="#DejaVuSans-67" transform="translate(717.919922 0)"/>
      <use xlink:href="#DejaVuSans-20" transform="translate(781.396484 0)"/>
      <use xlink:href="#DejaVuSans-50" transform="translate(813.183594 0)"/>
      <use xlink:href="#DejaVuSans-4f" transform="translate(873.486328 0)"/>
     </g>
    </g>
   </g>
  </g>
  <g id="text_37">
   <!-- Kripalani1980 -->
   <g transform="translate(372.316875 26.196094) scale(0.25 -0.25)">
    <defs>
     <path id="DejaVuSans-Bold-4b" d="M 588 4666 
L 1791 4666 
L 1791 2963 
L 3525 4666 
L 4922 4666 
L 2675 2456 
L 5153 0 
L 3647 0 
L 1791 1838 
L 1791 0 
L 588 0 
L 588 4666 
z
" transform="scale(0.015625)"/>
     <path id="DejaVuSans-Bold-6e" d="M 4056 2131 
L 4056 0 
L 2931 0 
L 2931 347 
L 2931 1631 
Q 2931 2084 2911 2256 
Q 2891 2428 2841 2509 
Q 2775 2619 2662 2680 
Q 2550 2741 2406 2741 
Q 2056 2741 1856 2470 
Q 1656 2200 1656 1722 
L 1656 0 
L 538 0 
L 538 3500 
L 1656 3500 
L 1656 2988 
Q 1909 3294 2193 3439 
Q 2478 3584 2822 3584 
Q 3428 3584 3742 3212 
Q 4056 2841 4056 2131 
z
" transform="scale(0.015625)"/>
     <path id="DejaVuSans-Bold-31" d="M 750 831 
L 1813 831 
L 1813 3847 
L 722 3622 
L 722 4441 
L 1806 4666 
L 2950 4666 
L 2950 831 
L 4013 831 
L 4013 0 
L 750 0 
L 750 831 
z
" transform="scale(0.015625)"/>
     <path id="DejaVuSans-Bold-39" d="M 641 103 
L 641 966 
Q 928 831 1190 764 
Q 1453 697 1709 697 
Q 2247 697 2547 995 
Q 2847 1294 2900 1881 
Q 2688 1725 2447 1647 
Q 2206 1569 1925 1569 
Q 1209 1569 770 1986 
Q 331 2403 331 3084 
Q 331 3838 820 4291 
Q 1309 4744 2131 4744 
Q 3044 4744 3544 4128 
Q 4044 3513 4044 2388 
Q 4044 1231 3459 570 
Q 2875 -91 1856 -91 
Q 1528 -91 1228 -42 
Q 928 6 641 103 
z
M 2125 2350 
Q 2441 2350 2600 2554 
Q 2759 2759 2759 3169 
Q 2759 3575 2600 3781 
Q 2441 3988 2125 3988 
Q 1809 3988 1650 3781 
Q 1491 3575 1491 3169 
Q 1491 2759 1650 2554 
Q 1809 2350 2125 2350 
z
" transform="scale(0.015625)"/>
     <path id="DejaVuSans-Bold-38" d="M 2228 2088 
Q 1891 2088 1709 1903 
Q 1528 1719 1528 1375 
Q 1528 1031 1709 848 
Q 1891 666 2228 666 
Q 2563 666 2741 848 
Q 2919 1031 2919 1375 
Q 2919 1722 2741 1905 
Q 2563 2088 2228 2088 
z
M 1350 2484 
Q 925 2613 709 2878 
Q 494 3144 494 3541 
Q 494 4131 934 4440 
Q 1375 4750 2228 4750 
Q 3075 4750 3515 4442 
Q 3956 4134 3956 3541 
Q 3956 3144 3739 2878 
Q 3522 2613 3097 2484 
Q 3572 2353 3814 2058 
Q 4056 1763 4056 1313 
Q 4056 619 3595 264 
Q 3134 -91 2228 -91 
Q 1319 -91 855 264 
Q 391 619 391 1313 
Q 391 1763 633 2058 
Q 875 2353 1350 2484 
z
M 1631 3419 
Q 1631 3141 1786 2991 
Q 1941 2841 2228 2841 
Q 2509 2841 2662 2991 
Q 2816 3141 2816 3419 
Q 2816 3697 2662 3845 
Q 2509 3994 2228 3994 
Q 1941 3994 1786 3844 
Q 1631 3694 1631 3419 
z
" transform="scale(0.015625)"/>
     <path id="DejaVuSans-Bold-30" d="M 2944 2338 
Q 2944 3213 2780 3570 
Q 2616 3928 2228 3928 
Q 1841 3928 1675 3570 
Q 1509 3213 1509 2338 
Q 1509 1453 1675 1090 
Q 1841 728 2228 728 
Q 2613 728 2778 1090 
Q 2944 1453 2944 2338 
z
M 4147 2328 
Q 4147 1169 3647 539 
Q 3147 -91 2228 -91 
Q 1306 -91 806 539 
Q 306 1169 306 2328 
Q 306 3491 806 4120 
Q 1306 4750 2228 4750 
Q 3147 4750 3647 4120 
Q 4147 3491 4147 2328 
z
" transform="scale(0.015625)"/>
    </defs>
    <use xlink:href="#DejaVuSans-Bold-4b"/>
    <use xlink:href="#DejaVuSans-Bold-72" transform="translate(77.490234 0)"/>
    <use xlink:href="#DejaVuSans-Bold-69" transform="translate(126.806641 0)"/>
    <use xlink:href="#DejaVuSans-Bold-70" transform="translate(161.083984 0)"/>
    <use xlink:href="#DejaVuSans-Bold-61" transform="translate(232.666016 0)"/>
    <use xlink:href="#DejaVuSans-Bold-6c" transform="translate(300.146484 0)"/>
    <use xlink:href="#DejaVuSans-Bold-61" transform="translate(334.423828 0)"/>
    <use xlink:href="#DejaVuSans-Bold-6e" transform="translate(401.904297 0)"/>
    <use xlink:href="#DejaVuSans-Bold-69" transform="translate(473.095703 0)"/>
    <use xlink:href="#DejaVuSans-Bold-31" transform="translate(507.373047 0)"/>
    <use xlink:href="#DejaVuSans-Bold-39" transform="translate(576.953125 0)"/>
    <use xlink:href="#DejaVuSans-Bold-38" transform="translate(646.533203 0)"/>
    <use xlink:href="#DejaVuSans-Bold-30" transform="translate(716.113281 0)"/>
   </g>
  </g>
 </g>
 <defs>
  <clipPath id="p748b33e707">
   <rect x="54.727813" y="48.24" width="373.617391" height="316.008"/>
  </clipPath>
  <clipPath id="p04558e73ae">
   <rect x="540.430421" y="48.24" width="373.617391" height="316.008"/>
  </clipPath>
 </defs>
</svg>
